<svg xmlns="http://www.w3.org/2000/svg" width="716.35" height="103.652" viewBox="0 0 716.35 103.652">
  <g id="Grupo_144016" data-name="Grupo 144016" transform="translate(2072.175 4849.5)">
    <path id="Trazado_203264" data-name="Trazado 203264" d="M427.181,50.5H737.467v57.744H179.61V50.5Z" transform="translate(-2094.664 -4855.464)" fill="#fff" stroke="#000" stroke-width="1"/>
    <path id="Trazado_203265" data-name="Trazado 203265" d="M714.606,1v.471H1V1Z" transform="translate(-2071.803 -4849.128)" fill="#e3e3e3" stroke="#000" stroke-width="1"/>
    <path id="Trazado_203266" data-name="Trazado 203266" d="M179.61,1.54H737.467V44.233H179.61Z" transform="translate(-2094.664 -4849.197)" fill="#e3e3e3" stroke="#000" stroke-width="1"/>
    <path id="Trazado_204678" data-name="Trazado 204678" d="M0,0H155.749V57.744H0Z" transform="translate(-2070.803 -4804.964)" fill="#e3e3e3" stroke="#000" stroke-width="1"/>
    <path id="Trazado_204674" data-name="Trazado 204674" d="M0,0H155.749V42.693H0Z" transform="translate(-2070.803 -4847.657)" fill="#e3e3e3" stroke="#000" stroke-width="1"/>
    <path id="Trazado_204675" data-name="Trazado 204675" d="M0,0H713.606V100.909H0Z" transform="translate(-2070.803 -4848.128)" fill="none" stroke="#000" stroke-width="1"/>
    <path id="Trazado_204676" data-name="Trazado 204676" d="M0,0H713.606V100.909H0Z" transform="translate(-2070.803 -4848.128)" fill="none" stroke="#000" stroke-width="1"/>
    <path id="Trazado_203267" data-name="Trazado 203267" d="M714.606,1.471V1H1v.471" transform="translate(-2071.803 -4849.128)" fill="none" stroke="#000" stroke-width="2"/>
    <path id="Trazado_203268" data-name="Trazado 203268" d="M1,50.5H714.606" transform="translate(-2071.803 -4855.464)" fill="none" stroke="#000" stroke-width="2"/>
    <path id="Trazado_203269" data-name="Trazado 203269" d="M156.749,101.978H1V1.54H714.606V101.978Z" transform="translate(-2071.803 -4849.197)" fill="none" stroke="#000" stroke-width="2"/>
    <path id="Trazado_203270" data-name="Trazado 203270" d="M179.61,102.457V1.54" transform="translate(-2094.664 -4849.197)" fill="none" stroke="#000" stroke-width="2"/>
    <path id="Trazado_203271" data-name="Trazado 203271" d="M463.52,101.5V1.55" transform="translate(-2131.003 -4849.198)" fill="none" stroke="#000" stroke-width="2"/>
    <path id="Trazado_204677" data-name="Trazado 204677" d="M0,0H715.35V102.653H0Z" transform="translate(-2071.675 -4849)" fill="none" stroke="#000" stroke-width="1"/>
    <path id="Trazado_204683" data-name="Trazado 204683" d="M8.381-3.295l.014.041a3.116,3.116,0,0,1-.971,2.5,3.958,3.958,0,0,1-2.755.9A3.816,3.816,0,0,1,1.777-1.008a4.132,4.132,0,0,1-1.1-2.977V-5.961A4.208,4.208,0,0,1,1.75-8.938,3.659,3.659,0,0,1,4.566-10.1a4.2,4.2,0,0,1,2.844.889,3.06,3.06,0,0,1,1,2.5l-.014.041H6.453A1.957,1.957,0,0,0,5.992-8.09a1.925,1.925,0,0,0-1.425-.468,1.609,1.609,0,0,0-1.4.721,3.189,3.189,0,0,0-.5,1.863v1.989A3.1,3.1,0,0,0,3.2-2.112a1.722,1.722,0,0,0,1.473.725,1.752,1.752,0,0,0,1.336-.468,2.037,2.037,0,0,0,.441-1.439Zm.984-.472a3.969,3.969,0,0,1,.923-2.71,3.217,3.217,0,0,1,2.557-1.056,3.251,3.251,0,0,1,2.57,1.053,3.948,3.948,0,0,1,.93,2.714v.144a3.954,3.954,0,0,1-.926,2.717A3.237,3.237,0,0,1,12.858.144,3.246,3.246,0,0,1,10.292-.906a3.954,3.954,0,0,1-.926-2.717Zm1.989.144A3.218,3.218,0,0,0,11.71-2a1.227,1.227,0,0,0,1.148.612A1.215,1.215,0,0,0,13.99-2a3.2,3.2,0,0,0,.359-1.62v-.144a3.164,3.164,0,0,0-.362-1.606A1.226,1.226,0,0,0,12.845-6a1.211,1.211,0,0,0-1.131.625,3.192,3.192,0,0,0-.359,1.6ZM19.4-7.4l.089,1.06a2.705,2.705,0,0,1,.909-.882,2.36,2.36,0,0,1,1.21-.314,2.2,2.2,0,0,1,1.75.721,3.419,3.419,0,0,1,.629,2.28V0h-2V-4.525a1.771,1.771,0,0,0-.277-1.125,1.02,1.02,0,0,0-.831-.332,1.743,1.743,0,0,0-.783.167,1.528,1.528,0,0,0-.557.461V0h-2V-7.4Zm8.47-1.812V-7.4h1.251V-6H27.87v3.767a.859.859,0,0,0,.181.615.636.636,0,0,0,.475.185,1.906,1.906,0,0,0,.273-.017,2.3,2.3,0,0,0,.267-.058L29.23-.062a4.041,4.041,0,0,1-.584.154,3.484,3.484,0,0,1-.619.051,2.127,2.127,0,0,1-1.589-.567,2.488,2.488,0,0,1-.557-1.8V-6H24.8V-7.4h1.08V-9.208ZM34.713,0a4.2,4.2,0,0,1-.188-.533,3.709,3.709,0,0,1-.113-.574,2.736,2.736,0,0,1-.813.9,2.039,2.039,0,0,1-1.2.355,2.5,2.5,0,0,1-1.791-.6,2.143,2.143,0,0,1-.629-1.63,1.95,1.95,0,0,1,.837-1.685,4.182,4.182,0,0,1,2.444-.6h1.121v-.588a1.151,1.151,0,0,0-.28-.827,1.1,1.1,0,0,0-.834-.294,1.084,1.084,0,0,0-.749.236.823.823,0,0,0-.263.646H30.331l-.014-.041a1.876,1.876,0,0,1,.817-1.617,3.548,3.548,0,0,1,2.259-.68,3.311,3.311,0,0,1,2.157.67,2.333,2.333,0,0,1,.824,1.921v3.056a5.779,5.779,0,0,0,.079.978A4.905,4.905,0,0,0,36.7,0ZM32.888-1.333a1.7,1.7,0,0,0,.93-.26,1.4,1.4,0,0,0,.561-.6V-3.24H33.257a1.329,1.329,0,0,0-.96.314,1.033,1.033,0,0,0-.325.772.771.771,0,0,0,.243.6A.96.96,0,0,0,32.888-1.333ZM39.724-7.4l.082.978a2.485,2.485,0,0,1,.892-.824,2.565,2.565,0,0,1,1.241-.291,2.259,2.259,0,0,1,1.217.314,1.94,1.94,0,0,1,.766.95,2.564,2.564,0,0,1,.889-.93,2.411,2.411,0,0,1,1.285-.335,2.107,2.107,0,0,1,1.726.776,3.7,3.7,0,0,1,.632,2.369V0h-2V-4.4a2.073,2.073,0,0,0-.273-1.237.971.971,0,0,0-.813-.349,1.393,1.393,0,0,0-.735.188,1.369,1.369,0,0,0-.5.523q0,.13.007.222t.007.188V0H42.164V-4.4a2.079,2.079,0,0,0-.273-1.227.966.966,0,0,0-.82-.359,1.548,1.548,0,0,0-.708.154,1.357,1.357,0,0,0-.5.434V0H37.871V-7.4ZM52.083,0h-2V-7.4h2Zm0-9.167h-2v-1.5h2ZM55.549-7.4l.089,1.06a2.705,2.705,0,0,1,.909-.882,2.36,2.36,0,0,1,1.21-.314,2.2,2.2,0,0,1,1.75.721,3.419,3.419,0,0,1,.629,2.28V0h-2V-4.525a1.771,1.771,0,0,0-.277-1.125,1.02,1.02,0,0,0-.831-.332,1.743,1.743,0,0,0-.783.167,1.528,1.528,0,0,0-.557.461V0h-2V-7.4ZM65.987,0A4.2,4.2,0,0,1,65.8-.533a3.71,3.71,0,0,1-.113-.574,2.736,2.736,0,0,1-.813.9,2.039,2.039,0,0,1-1.2.355,2.5,2.5,0,0,1-1.791-.6,2.143,2.143,0,0,1-.629-1.63,1.95,1.95,0,0,1,.837-1.685,4.182,4.182,0,0,1,2.444-.6h1.121v-.588a1.151,1.151,0,0,0-.28-.827,1.1,1.1,0,0,0-.834-.294,1.084,1.084,0,0,0-.749.236.823.823,0,0,0-.263.646H61.605l-.014-.041a1.876,1.876,0,0,1,.817-1.617,3.548,3.548,0,0,1,2.259-.68,3.311,3.311,0,0,1,2.157.67,2.333,2.333,0,0,1,.824,1.921v3.056a5.78,5.78,0,0,0,.079.978,4.905,4.905,0,0,0,.25.909ZM64.162-1.333a1.7,1.7,0,0,0,.93-.26,1.4,1.4,0,0,0,.561-.6V-3.24H64.531a1.329,1.329,0,0,0-.96.314,1.033,1.033,0,0,0-.325.772.771.771,0,0,0,.243.6A.96.96,0,0,0,64.162-1.333Zm8.073-.055a1.111,1.111,0,0,0,.827-.311,1.129,1.129,0,0,0,.308-.831h1.818l.014.041a2.315,2.315,0,0,1-.834,1.876,3.119,3.119,0,0,1-2.133.755A3.152,3.152,0,0,1,69.7-.906a3.988,3.988,0,0,1-.9-2.683v-.205A4.014,4.014,0,0,1,69.7-6.477a3.124,3.124,0,0,1,2.526-1.056,3.05,3.05,0,0,1,2.181.779A2.6,2.6,0,0,1,75.2-4.7l-.014.041H73.37a1.476,1.476,0,0,0-.3-.954A1.022,1.022,0,0,0,72.222-6a1.139,1.139,0,0,0-1.1.619A3.393,3.393,0,0,0,70.8-3.794v.205A3.38,3.38,0,0,0,71.125-2,1.155,1.155,0,0,0,72.235-1.388ZM78.463,0h-2V-7.4h2Zm0-9.167h-2v-1.5h2Zm1.333,5.4a3.969,3.969,0,0,1,.923-2.71,3.217,3.217,0,0,1,2.557-1.056,3.251,3.251,0,0,1,2.57,1.053,3.948,3.948,0,0,1,.93,2.714v.144a3.954,3.954,0,0,1-.926,2.717A3.237,3.237,0,0,1,83.289.144,3.246,3.246,0,0,1,80.722-.906,3.954,3.954,0,0,1,79.8-3.623Zm1.989.144A3.218,3.218,0,0,0,82.141-2a1.227,1.227,0,0,0,1.148.612A1.215,1.215,0,0,0,84.42-2a3.2,3.2,0,0,0,.359-1.62v-.144a3.164,3.164,0,0,0-.362-1.606A1.226,1.226,0,0,0,83.275-6a1.211,1.211,0,0,0-1.131.625,3.192,3.192,0,0,0-.359,1.6Zm1.894-6.932H85.9l.014.041L84.021-8.736h-1.7ZM89.831-7.4l.089,1.06a2.705,2.705,0,0,1,.909-.882,2.36,2.36,0,0,1,1.21-.314,2.2,2.2,0,0,1,1.75.721,3.419,3.419,0,0,1,.629,2.28V0h-2V-4.525a1.771,1.771,0,0,0-.277-1.125,1.02,1.02,0,0,0-.831-.332,1.743,1.743,0,0,0-.783.167,1.528,1.528,0,0,0-.557.461V0h-2V-7.4Zm16.235,3.9a4.248,4.248,0,0,1-.759,2.639,2.51,2.51,0,0,1-2.119,1,2.369,2.369,0,0,1-1.032-.215,2.12,2.12,0,0,1-.772-.632V2.844H99.395V-7.4h1.8l.116.875a2.37,2.37,0,0,1,.79-.749,2.136,2.136,0,0,1,1.077-.263,2.462,2.462,0,0,1,2.133,1.073,4.79,4.79,0,0,1,.759,2.823Zm-2-.144a3.578,3.578,0,0,0-.349-1.7,1.137,1.137,0,0,0-1.066-.649,1.507,1.507,0,0,0-.769.185,1.317,1.317,0,0,0-.5.526v3.24a1.224,1.224,0,0,0,.5.479,1.693,1.693,0,0,0,.783.164,1.148,1.148,0,0,0,1.063-.567,3,3,0,0,0,.338-1.538Zm2.919-.13a3.969,3.969,0,0,1,.923-2.71,3.217,3.217,0,0,1,2.557-1.056,3.251,3.251,0,0,1,2.57,1.053,3.948,3.948,0,0,1,.93,2.714v.144a3.954,3.954,0,0,1-.926,2.717,3.237,3.237,0,0,1-2.56,1.049,3.246,3.246,0,0,1-2.567-1.049,3.954,3.954,0,0,1-.926-2.717Zm1.989.144A3.218,3.218,0,0,0,109.334-2a1.227,1.227,0,0,0,1.148.612A1.215,1.215,0,0,0,111.614-2a3.2,3.2,0,0,0,.359-1.62v-.144a3.164,3.164,0,0,0-.362-1.606A1.226,1.226,0,0,0,110.469-6a1.211,1.211,0,0,0-1.131.625,3.192,3.192,0,0,0-.359,1.6Zm10.11-2.058-.731-.021a1.329,1.329,0,0,0-.731.185,1.17,1.17,0,0,0-.437.52V0H115.2V-7.4h1.853l.089,1.094a2.333,2.333,0,0,1,.673-.906,1.5,1.5,0,0,1,.954-.325,1.492,1.492,0,0,1,.277.024q.126.024.256.058ZM126.7-1.388a1.111,1.111,0,0,0,.827-.311,1.129,1.129,0,0,0,.308-.831h1.818l.014.041a2.315,2.315,0,0,1-.834,1.876A3.119,3.119,0,0,1,126.7.144a3.152,3.152,0,0,1-2.536-1.049,3.988,3.988,0,0,1-.9-2.683v-.205a4.014,4.014,0,0,1,.892-2.683,3.124,3.124,0,0,1,2.526-1.056,3.05,3.05,0,0,1,2.181.779,2.6,2.6,0,0,1,.8,2.051l-.014.041h-1.818a1.476,1.476,0,0,0-.3-.954A1.022,1.022,0,0,0,126.69-6a1.139,1.139,0,0,0-1.1.619,3.393,3.393,0,0,0-.325,1.583v.205A3.38,3.38,0,0,0,125.593-2,1.155,1.155,0,0,0,126.7-1.388Zm3.821-2.379a3.969,3.969,0,0,1,.923-2.71A3.217,3.217,0,0,1,134-7.533a3.251,3.251,0,0,1,2.57,1.053,3.948,3.948,0,0,1,.93,2.714v.144a3.954,3.954,0,0,1-.926,2.717,3.237,3.237,0,0,1-2.56,1.049,3.246,3.246,0,0,1-2.567-1.049,3.954,3.954,0,0,1-.926-2.717Zm1.989.144A3.218,3.218,0,0,0,132.87-2a1.227,1.227,0,0,0,1.148.612A1.215,1.215,0,0,0,135.15-2a3.2,3.2,0,0,0,.359-1.62v-.144a3.164,3.164,0,0,0-.362-1.606A1.226,1.226,0,0,0,134-6a1.211,1.211,0,0,0-1.131.625,3.192,3.192,0,0,0-.359,1.6ZM140.588-7.4l.082.978a2.485,2.485,0,0,1,.892-.824,2.565,2.565,0,0,1,1.241-.291,2.259,2.259,0,0,1,1.217.314,1.94,1.94,0,0,1,.766.95,2.564,2.564,0,0,1,.889-.93,2.411,2.411,0,0,1,1.285-.335,2.107,2.107,0,0,1,1.726.776,3.7,3.7,0,0,1,.632,2.369V0h-2V-4.4a2.073,2.073,0,0,0-.273-1.237.971.971,0,0,0-.813-.349,1.393,1.393,0,0,0-.735.188,1.369,1.369,0,0,0-.5.523q0,.13.007.222t.007.188V0h-1.989V-4.4a2.079,2.079,0,0,0-.273-1.227.966.966,0,0,0-.82-.359,1.548,1.548,0,0,0-.708.154,1.357,1.357,0,0,0-.5.434V0h-1.989V-7.4Zm16.933,3.9a4.327,4.327,0,0,1-.738,2.646,2.5,2.5,0,0,1-2.133.991,2.254,2.254,0,0,1-1.131-.273,2.338,2.338,0,0,1-.817-.8l-.164.93h-1.688V-10.664h1.989V-6.61a2.26,2.26,0,0,1,.769-.684,2.149,2.149,0,0,1,1.029-.239,2.45,2.45,0,0,1,2.146,1.063,4.88,4.88,0,0,1,.738,2.833Zm-1.989-.144a3.851,3.851,0,0,0-.318-1.712,1.115,1.115,0,0,0-1.083-.632,1.49,1.49,0,0,0-.786.195,1.35,1.35,0,0,0-.506.557V-2.1a1.268,1.268,0,0,0,.509.513,1.639,1.639,0,0,0,.8.178,1.135,1.135,0,0,0,1.08-.543,3.165,3.165,0,0,0,.308-1.542Zm7.752,2.543a2.511,2.511,0,0,1-.868.916,2.3,2.3,0,0,1-1.224.321,2.249,2.249,0,0,1-1.829-.793,3.8,3.8,0,0,1-.66-2.461V-7.4h1.989v4.3a2.388,2.388,0,0,0,.263,1.33.946.946,0,0,0,.817.359,1.989,1.989,0,0,0,.82-.154,1.383,1.383,0,0,0,.561-.455V-7.4h2V0H163.5Zm7.369-.957a.689.689,0,0,0-.318-.564,3.229,3.229,0,0,0-1.179-.414,4.7,4.7,0,0,1-1.972-.786,1.717,1.717,0,0,1-.673-1.429,2.038,2.038,0,0,1,.807-1.62,3.252,3.252,0,0,1,2.146-.67,3.51,3.51,0,0,1,2.246.67,1.957,1.957,0,0,1,.81,1.668l-.014.041h-1.928a.968.968,0,0,0-.287-.725,1.136,1.136,0,0,0-.827-.28,1.13,1.13,0,0,0-.759.239.744.744,0,0,0-.28.588.664.664,0,0,0,.291.557,3.234,3.234,0,0,0,1.179.386,4.8,4.8,0,0,1,2.027.8,1.762,1.762,0,0,1,.667,1.459,1.952,1.952,0,0,1-.854,1.634,3.688,3.688,0,0,1-2.256.636A3.429,3.429,0,0,1,167.142-.6a2.093,2.093,0,0,1-.817-1.706l.014-.041h1.825a1.037,1.037,0,0,0,.39.861,1.609,1.609,0,0,0,.964.267,1.371,1.371,0,0,0,.844-.222A.721.721,0,0,0,170.652-2.051Zm5.612-7.157V-7.4h1.251V-6h-1.251v3.767a.859.859,0,0,0,.181.615.636.636,0,0,0,.475.185,1.906,1.906,0,0,0,.273-.017,2.3,2.3,0,0,0,.267-.058l.164,1.442a4.041,4.041,0,0,1-.584.154,3.484,3.484,0,0,1-.619.051,2.127,2.127,0,0,1-1.589-.567,2.488,2.488,0,0,1-.557-1.8V-6H173.2V-7.4h1.08V-9.208ZM180.845,0h-2V-7.4h2Zm0-9.167h-2v-1.5h2Zm1.333,5.4a3.969,3.969,0,0,1,.923-2.71,3.217,3.217,0,0,1,2.557-1.056,3.251,3.251,0,0,1,2.57,1.053,3.948,3.948,0,0,1,.93,2.714v.144a3.954,3.954,0,0,1-.926,2.717,3.237,3.237,0,0,1-2.56,1.049A3.246,3.246,0,0,1,183.1-.906a3.954,3.954,0,0,1-.926-2.717Zm1.989.144A3.218,3.218,0,0,0,184.522-2a1.227,1.227,0,0,0,1.148.612A1.215,1.215,0,0,0,186.8-2a3.2,3.2,0,0,0,.359-1.62v-.144a3.164,3.164,0,0,0-.362-1.606A1.226,1.226,0,0,0,185.657-6a1.211,1.211,0,0,0-1.131.625,3.192,3.192,0,0,0-.359,1.6Zm1.894-6.932h2.222l.014.041L186.4-8.736h-1.7ZM192.213-7.4l.089,1.06a2.705,2.705,0,0,1,.909-.882,2.36,2.36,0,0,1,1.21-.314,2.2,2.2,0,0,1,1.75.721,3.419,3.419,0,0,1,.629,2.28V0h-2V-4.525a1.771,1.771,0,0,0-.277-1.125,1.02,1.02,0,0,0-.831-.332,1.743,1.743,0,0,0-.783.167,1.528,1.528,0,0,0-.557.461V0h-2V-7.4Zm8.162,7.308-1.087,2.153h-1.333l.479-2.215V-1.709h1.941Zm4.717-3.548a4.79,4.79,0,0,1,.759-2.823,2.462,2.462,0,0,1,2.133-1.073,2.1,2.1,0,0,1,1.094.28,2.455,2.455,0,0,1,.807.8l.157-.943h1.716V-.034a2.749,2.749,0,0,1-.943,2.232,3.983,3.983,0,0,1-2.632.79,5.014,5.014,0,0,1-1.189-.154,5.524,5.524,0,0,1-1.162-.42l.335-1.49a4.581,4.581,0,0,0,.947.332,4.692,4.692,0,0,0,1.056.113,1.787,1.787,0,0,0,1.207-.342,1.353,1.353,0,0,0,.386-1.066v-.67a2.233,2.233,0,0,1-.772.636,2.277,2.277,0,0,1-1.019.219,2.51,2.51,0,0,1-2.119-1,4.248,4.248,0,0,1-.759-2.639Zm2,.144a3.039,3.039,0,0,0,.325,1.528,1.135,1.135,0,0,0,1.063.557,1.648,1.648,0,0,0,.776-.167,1.28,1.28,0,0,0,.509-.489V-5.271a1.364,1.364,0,0,0-.509-.526,1.493,1.493,0,0,0-.762-.185,1.12,1.12,0,0,0-1.066.649,3.7,3.7,0,0,0-.335,1.7ZM216.494.144A3.328,3.328,0,0,1,213.91-.872a3.721,3.721,0,0,1-.93-2.615V-3.76a4.05,4.05,0,0,1,.9-2.721,3.068,3.068,0,0,1,2.481-1.053,2.872,2.872,0,0,1,2.287.913,3.607,3.607,0,0,1,.8,2.458v1.032h-4.409l-.021.041a2,2,0,0,0,.461,1.23,1.545,1.545,0,0,0,1.227.472,4.106,4.106,0,0,0,1.138-.137,4.644,4.644,0,0,0,.967-.417l.54,1.23a3.7,3.7,0,0,1-1.2.608A5.336,5.336,0,0,1,216.494.144ZM216.364-6a1.109,1.109,0,0,0-.926.414,2.075,2.075,0,0,0-.393,1.1l.014.034h2.434V-4.6a1.728,1.728,0,0,0-.267-1.022A.986.986,0,0,0,216.364-6Zm6.07-1.4.089,1.06a2.705,2.705,0,0,1,.909-.882,2.36,2.36,0,0,1,1.21-.314,2.2,2.2,0,0,1,1.75.721,3.419,3.419,0,0,1,.629,2.28V0h-2V-4.525a1.771,1.771,0,0,0-.277-1.125,1.02,1.02,0,0,0-.831-.332,1.743,1.743,0,0,0-.783.167,1.528,1.528,0,0,0-.557.461V0h-2V-7.4Zm9.283,7.54a3.328,3.328,0,0,1-2.584-1.015,3.721,3.721,0,0,1-.93-2.615V-3.76a4.05,4.05,0,0,1,.9-2.721,3.068,3.068,0,0,1,2.481-1.053,2.872,2.872,0,0,1,2.287.913,3.607,3.607,0,0,1,.8,2.458v1.032h-4.409l-.021.041a2,2,0,0,0,.461,1.23,1.545,1.545,0,0,0,1.227.472,4.106,4.106,0,0,0,1.138-.137,4.644,4.644,0,0,0,.967-.417l.54,1.23a3.7,3.7,0,0,1-1.2.608A5.336,5.336,0,0,1,231.718.144ZM231.588-6a1.109,1.109,0,0,0-.926.414,2.075,2.075,0,0,0-.393,1.1l.014.034h2.434V-4.6a1.728,1.728,0,0,0-.267-1.022A.986.986,0,0,0,231.588-6Zm8.135.314-.731-.021a1.33,1.33,0,0,0-.731.185,1.17,1.17,0,0,0-.437.52V0h-1.989V-7.4h1.853l.089,1.094a2.333,2.333,0,0,1,.673-.906,1.5,1.5,0,0,1,.954-.325,1.492,1.492,0,0,1,.277.024q.126.024.256.058ZM244.955,0a4.2,4.2,0,0,1-.188-.533,3.708,3.708,0,0,1-.113-.574,2.736,2.736,0,0,1-.813.9,2.039,2.039,0,0,1-1.2.355,2.5,2.5,0,0,1-1.791-.6,2.143,2.143,0,0,1-.629-1.63,1.95,1.95,0,0,1,.837-1.685,4.182,4.182,0,0,1,2.444-.6h1.121v-.588a1.151,1.151,0,0,0-.28-.827,1.1,1.1,0,0,0-.834-.294,1.084,1.084,0,0,0-.749.236.823.823,0,0,0-.263.646h-1.921l-.014-.041a1.876,1.876,0,0,1,.817-1.617,3.548,3.548,0,0,1,2.259-.68,3.311,3.311,0,0,1,2.157.67,2.333,2.333,0,0,1,.824,1.921v3.056a5.779,5.779,0,0,0,.079.978,4.905,4.905,0,0,0,.25.909ZM243.13-1.333a1.7,1.7,0,0,0,.93-.26,1.4,1.4,0,0,0,.561-.6V-3.24H243.5a1.329,1.329,0,0,0-.96.314,1.033,1.033,0,0,0-.325.772.771.771,0,0,0,.243.6A.96.96,0,0,0,243.13-1.333Zm8.073-.055a1.111,1.111,0,0,0,.827-.311,1.129,1.129,0,0,0,.308-.831h1.818l.014.041a2.315,2.315,0,0,1-.834,1.876A3.119,3.119,0,0,1,251.2.144a3.152,3.152,0,0,1-2.536-1.049,3.988,3.988,0,0,1-.9-2.683v-.205a4.014,4.014,0,0,1,.892-2.683,3.124,3.124,0,0,1,2.526-1.056,3.05,3.05,0,0,1,2.181.779,2.6,2.6,0,0,1,.8,2.051l-.014.041h-1.818a1.476,1.476,0,0,0-.3-.954A1.022,1.022,0,0,0,251.189-6a1.139,1.139,0,0,0-1.1.619,3.393,3.393,0,0,0-.325,1.583v.205A3.38,3.38,0,0,0,250.092-2,1.155,1.155,0,0,0,251.2-1.388ZM257.431,0h-2V-7.4h2Zm0-9.167h-2v-1.5h2Zm1.333,5.4a3.969,3.969,0,0,1,.923-2.71,3.217,3.217,0,0,1,2.557-1.056,3.251,3.251,0,0,1,2.57,1.053,3.948,3.948,0,0,1,.93,2.714v.144a3.954,3.954,0,0,1-.926,2.717,3.237,3.237,0,0,1-2.56,1.049A3.246,3.246,0,0,1,259.69-.906a3.954,3.954,0,0,1-.926-2.717Zm1.989.144A3.218,3.218,0,0,0,261.108-2a1.227,1.227,0,0,0,1.148.612A1.215,1.215,0,0,0,263.388-2a3.2,3.2,0,0,0,.359-1.62v-.144a3.164,3.164,0,0,0-.362-1.606A1.226,1.226,0,0,0,262.243-6a1.211,1.211,0,0,0-1.131.625,3.192,3.192,0,0,0-.359,1.6Zm1.894-6.932h2.222l.014.041-1.894,1.777h-1.7ZM268.8-7.4l.089,1.06a2.705,2.705,0,0,1,.909-.882,2.36,2.36,0,0,1,1.21-.314,2.2,2.2,0,0,1,1.75.721,3.419,3.419,0,0,1,.629,2.28V0h-2V-4.525a1.771,1.771,0,0,0-.277-1.125,1.02,1.02,0,0,0-.831-.332,1.743,1.743,0,0,0-.783.167,1.528,1.528,0,0,0-.557.461V0h-2V-7.4ZM.458,10.363A4.806,4.806,0,0,1,1.213,7.54,2.453,2.453,0,0,1,3.343,6.467a2.071,2.071,0,0,1,1,.239,2.4,2.4,0,0,1,.779.684V3.336h2V14h-1.7l-.171-.909a2.473,2.473,0,0,1-.827.783,2.187,2.187,0,0,1-1.094.27,2.5,2.5,0,0,1-2.116-1,4.262,4.262,0,0,1-.755-2.639Zm1.989.144a3.013,3.013,0,0,0,.328,1.528,1.142,1.142,0,0,0,1.066.557,1.553,1.553,0,0,0,.752-.174,1.391,1.391,0,0,0,.526-.509V8.757A1.536,1.536,0,0,0,4.6,8.213a1.391,1.391,0,0,0-.742-.195,1.127,1.127,0,0,0-1.07.649,3.67,3.67,0,0,0-.338,1.7Zm9.427,3.637A3.328,3.328,0,0,1,9.29,13.128a3.721,3.721,0,0,1-.93-2.615V10.24a4.05,4.05,0,0,1,.9-2.721,3.068,3.068,0,0,1,2.481-1.053,2.872,2.872,0,0,1,2.287.913,3.607,3.607,0,0,1,.8,2.458v1.032H10.418l-.021.041a2,2,0,0,0,.461,1.23,1.545,1.545,0,0,0,1.227.472,4.106,4.106,0,0,0,1.138-.137,4.644,4.644,0,0,0,.967-.417l.54,1.23a3.7,3.7,0,0,1-1.2.608A5.336,5.336,0,0,1,11.874,14.144ZM11.744,8a1.109,1.109,0,0,0-.926.414,2.075,2.075,0,0,0-.393,1.1l.014.034h2.434V9.4a1.728,1.728,0,0,0-.267-1.022A.986.986,0,0,0,11.744,8Zm10.821,4.607a1.111,1.111,0,0,0,.827-.311,1.129,1.129,0,0,0,.308-.831h1.818l.014.041a2.315,2.315,0,0,1-.834,1.876,3.119,3.119,0,0,1-2.133.755,3.152,3.152,0,0,1-2.536-1.049,3.988,3.988,0,0,1-.9-2.683v-.205a4.014,4.014,0,0,1,.892-2.683,3.124,3.124,0,0,1,2.526-1.056,3.05,3.05,0,0,1,2.181.779,2.6,2.6,0,0,1,.8,2.051l-.014.041H23.7a1.476,1.476,0,0,0-.3-.954A1.022,1.022,0,0,0,22.552,8a1.139,1.139,0,0,0-1.1.619,3.393,3.393,0,0,0-.325,1.583v.205A3.38,3.38,0,0,0,21.455,12,1.155,1.155,0,0,0,22.565,12.612ZM29.9,14.144a3.328,3.328,0,0,1-2.584-1.015,3.721,3.721,0,0,1-.93-2.615V10.24a4.05,4.05,0,0,1,.9-2.721,3.068,3.068,0,0,1,2.481-1.053,2.872,2.872,0,0,1,2.287.913,3.607,3.607,0,0,1,.8,2.458v1.032H28.444l-.021.041a2,2,0,0,0,.461,1.23,1.545,1.545,0,0,0,1.227.472,4.106,4.106,0,0,0,1.138-.137,4.644,4.644,0,0,0,.967-.417l.54,1.23a3.7,3.7,0,0,1-1.2.608A5.336,5.336,0,0,1,29.9,14.144ZM29.771,8a1.109,1.109,0,0,0-.926.414,2.075,2.075,0,0,0-.393,1.1l.014.034H30.9V9.4a1.728,1.728,0,0,0-.267-1.022A.986.986,0,0,0,29.771,8Zm6.07-1.4.089,1.06a2.705,2.705,0,0,1,.909-.882,2.36,2.36,0,0,1,1.21-.314,2.2,2.2,0,0,1,1.75.721,3.419,3.419,0,0,1,.629,2.28V14h-2V9.475a1.771,1.771,0,0,0-.277-1.125,1.02,1.02,0,0,0-.831-.332,1.743,1.743,0,0,0-.783.167,1.528,1.528,0,0,0-.557.461V14h-2V6.6ZM44.017,14h-2V6.6h2Zm0-9.167h-2v-1.5h2Zm3.869,7.636H51.55V14H45.4V12.824l3.521-4.676H45.514V6.6h5.92V7.745ZM57.169,14a4.2,4.2,0,0,1-.188-.533,3.709,3.709,0,0,1-.113-.574,2.736,2.736,0,0,1-.813.9,2.039,2.039,0,0,1-1.2.355,2.5,2.5,0,0,1-1.791-.6,2.143,2.143,0,0,1-.629-1.63,1.95,1.95,0,0,1,.837-1.685,4.182,4.182,0,0,1,2.444-.6h1.121V9.044a1.151,1.151,0,0,0-.28-.827,1.1,1.1,0,0,0-.834-.294,1.084,1.084,0,0,0-.749.236.823.823,0,0,0-.263.646H52.787l-.014-.041a1.876,1.876,0,0,1,.817-1.617,3.548,3.548,0,0,1,2.259-.68,3.311,3.311,0,0,1,2.157.67,2.333,2.333,0,0,1,.824,1.921v3.056a5.779,5.779,0,0,0,.079.978,4.905,4.905,0,0,0,.25.909Zm-1.825-1.333a1.7,1.7,0,0,0,.93-.26,1.4,1.4,0,0,0,.561-.6V10.76H55.713a1.329,1.329,0,0,0-.96.314,1.033,1.033,0,0,0-.325.772.771.771,0,0,0,.243.6A.96.96,0,0,0,55.344,12.667ZM66.479,10.9l.082.41H66.6l1.415-4.7h2.146l-3,8.5a3.915,3.915,0,0,1-.854,1.336,2.192,2.192,0,0,1-1.62.543,2.505,2.505,0,0,1-.468-.041Q64,16.905,63.7,16.83l.232-1.456.191.027a1.41,1.41,0,0,0,.185.014,1.088,1.088,0,0,0,.759-.243,1.6,1.6,0,0,0,.41-.6l.232-.574L63.082,6.6h2.146ZM76.3,6.6l.082.978a2.485,2.485,0,0,1,.892-.824,2.565,2.565,0,0,1,1.241-.291,2.259,2.259,0,0,1,1.217.314,1.94,1.94,0,0,1,.766.95,2.564,2.564,0,0,1,.889-.93,2.411,2.411,0,0,1,1.285-.335,2.107,2.107,0,0,1,1.726.776,3.7,3.7,0,0,1,.632,2.369V14h-2V9.6a2.073,2.073,0,0,0-.273-1.237.971.971,0,0,0-.813-.349,1.393,1.393,0,0,0-.735.188,1.369,1.369,0,0,0-.5.523q0,.13.007.222t.007.188V14H78.743V9.6a2.079,2.079,0,0,0-.273-1.227.966.966,0,0,0-.82-.359,1.548,1.548,0,0,0-.708.154,1.357,1.357,0,0,0-.5.434V14H74.45V6.6ZM90.925,14a4.2,4.2,0,0,1-.188-.533,3.71,3.71,0,0,1-.113-.574,2.736,2.736,0,0,1-.813.9,2.039,2.039,0,0,1-1.2.355,2.5,2.5,0,0,1-1.791-.6,2.143,2.143,0,0,1-.629-1.63,1.95,1.95,0,0,1,.837-1.685,4.182,4.182,0,0,1,2.444-.6H90.59V9.044a1.151,1.151,0,0,0-.28-.827,1.1,1.1,0,0,0-.834-.294,1.084,1.084,0,0,0-.749.236.823.823,0,0,0-.263.646H86.543l-.014-.041a1.876,1.876,0,0,1,.817-1.617,3.548,3.548,0,0,1,2.259-.68,3.311,3.311,0,0,1,2.157.67,2.333,2.333,0,0,1,.824,1.921v3.056a5.78,5.78,0,0,0,.079.978,4.905,4.905,0,0,0,.25.909ZM89.1,12.667a1.7,1.7,0,0,0,.93-.26,1.4,1.4,0,0,0,.561-.6V10.76H89.469a1.329,1.329,0,0,0-.96.314,1.033,1.033,0,0,0-.325.772.771.771,0,0,0,.243.6A.96.96,0,0,0,89.1,12.667Zm7.376-7.875V6.6h1.251V8H96.476v3.767a.859.859,0,0,0,.181.615.636.636,0,0,0,.475.185,1.906,1.906,0,0,0,.273-.017,2.3,2.3,0,0,0,.267-.058l.164,1.442a4.041,4.041,0,0,1-.584.154,3.484,3.484,0,0,1-.619.051,2.127,2.127,0,0,1-1.589-.567,2.488,2.488,0,0,1-.557-1.8V8h-1.08V6.6h1.08V4.792Zm5.688,9.352a3.328,3.328,0,0,1-2.584-1.015,3.721,3.721,0,0,1-.93-2.615V10.24a4.05,4.05,0,0,1,.9-2.721,3.068,3.068,0,0,1,2.481-1.053,2.872,2.872,0,0,1,2.287.913,3.607,3.607,0,0,1,.8,2.458v1.032h-4.409l-.021.041a2,2,0,0,0,.461,1.23,1.545,1.545,0,0,0,1.227.472,4.106,4.106,0,0,0,1.138-.137,4.644,4.644,0,0,0,.967-.417l.54,1.23a3.705,3.705,0,0,1-1.2.608A5.336,5.336,0,0,1,102.163,14.144ZM102.033,8a1.109,1.109,0,0,0-.926.414,2.075,2.075,0,0,0-.393,1.1l.014.034h2.434V9.4a1.728,1.728,0,0,0-.267-1.022A.986.986,0,0,0,102.033,8Zm8.135.314-.731-.021a1.329,1.329,0,0,0-.731.185,1.17,1.17,0,0,0-.437.52v5h-1.989V6.6h1.853L108.22,7.7a2.333,2.333,0,0,1,.673-.906,1.573,1.573,0,0,1,1.23-.3q.126.024.256.058ZM113.306,14h-2V6.6h2Zm0-9.167h-2v-1.5h2Zm6,9.167a4.2,4.2,0,0,1-.188-.533,3.71,3.71,0,0,1-.113-.574,2.736,2.736,0,0,1-.813.9,2.039,2.039,0,0,1-1.2.355,2.5,2.5,0,0,1-1.791-.6,2.143,2.143,0,0,1-.629-1.63,1.95,1.95,0,0,1,.837-1.685,4.182,4.182,0,0,1,2.444-.6h1.121V9.044a1.151,1.151,0,0,0-.28-.827,1.1,1.1,0,0,0-.834-.294,1.084,1.084,0,0,0-.749.236.823.823,0,0,0-.263.646h-1.921l-.014-.041a1.876,1.876,0,0,1,.817-1.617,3.548,3.548,0,0,1,2.259-.68,3.311,3.311,0,0,1,2.157.67,2.333,2.333,0,0,1,.824,1.921v3.056a5.78,5.78,0,0,0,.079.978,4.905,4.905,0,0,0,.25.909Zm-1.825-1.333a1.7,1.7,0,0,0,.93-.26,1.4,1.4,0,0,0,.561-.6V10.76h-1.121a1.329,1.329,0,0,0-.96.314,1.033,1.033,0,0,0-.325.772.771.771,0,0,0,.243.6A.96.96,0,0,0,117.482,12.667ZM124.564,14h-2V3.336h2Zm11.8-3.493a4.248,4.248,0,0,1-.759,2.639,2.51,2.51,0,0,1-2.119,1,2.369,2.369,0,0,1-1.032-.215,2.12,2.12,0,0,1-.772-.632v3.548h-1.989V6.6h1.8l.116.875a2.37,2.37,0,0,1,.79-.749,2.136,2.136,0,0,1,1.077-.263A2.462,2.462,0,0,1,135.6,7.54a4.79,4.79,0,0,1,.759,2.823Zm-2-.144a3.578,3.578,0,0,0-.349-1.7,1.137,1.137,0,0,0-1.066-.649,1.507,1.507,0,0,0-.769.185,1.317,1.317,0,0,0-.5.526v3.24a1.224,1.224,0,0,0,.5.479,1.693,1.693,0,0,0,.783.164,1.148,1.148,0,0,0,1.063-.567,3,3,0,0,0,.338-1.538ZM141.955,14a4.2,4.2,0,0,1-.188-.533,3.708,3.708,0,0,1-.113-.574,2.736,2.736,0,0,1-.813.9,2.039,2.039,0,0,1-1.2.355,2.5,2.5,0,0,1-1.791-.6,2.143,2.143,0,0,1-.629-1.63,1.95,1.95,0,0,1,.837-1.685,4.182,4.182,0,0,1,2.444-.6h1.121V9.044a1.151,1.151,0,0,0-.28-.827,1.1,1.1,0,0,0-.834-.294,1.084,1.084,0,0,0-.749.236.823.823,0,0,0-.263.646h-1.921l-.014-.041a1.876,1.876,0,0,1,.817-1.617,3.548,3.548,0,0,1,2.259-.68,3.311,3.311,0,0,1,2.157.67,2.333,2.333,0,0,1,.824,1.921v3.056a5.779,5.779,0,0,0,.079.978,4.905,4.905,0,0,0,.25.909Zm-1.825-1.333a1.7,1.7,0,0,0,.93-.26,1.4,1.4,0,0,0,.561-.6V10.76H140.5a1.329,1.329,0,0,0-.96.314,1.033,1.033,0,0,0-.325.772.771.771,0,0,0,.243.6A.96.96,0,0,0,140.13,12.667ZM149,8.319l-.731-.021a1.33,1.33,0,0,0-.731.185A1.17,1.17,0,0,0,147.1,9v5h-1.989V6.6h1.853l.089,1.094a2.333,2.333,0,0,1,.673-.906,1.573,1.573,0,0,1,1.23-.3q.126.024.256.058Zm3.548-3.527V6.6H153.8V8h-1.251v3.767a.859.859,0,0,0,.181.615.636.636,0,0,0,.475.185,1.906,1.906,0,0,0,.273-.017,2.3,2.3,0,0,0,.267-.058l.164,1.442a4.041,4.041,0,0,1-.584.154,3.484,3.484,0,0,1-.619.051,2.127,2.127,0,0,1-1.589-.567,2.488,2.488,0,0,1-.557-1.8V8h-1.08V6.6h1.08V4.792ZM157.131,14h-2V6.6h2Zm0-9.167h-2v-1.5h2Zm4.73,7.779a1.111,1.111,0,0,0,.827-.311,1.129,1.129,0,0,0,.308-.831h1.818l.014.041a2.315,2.315,0,0,1-.834,1.876,3.119,3.119,0,0,1-2.133.755,3.152,3.152,0,0,1-2.536-1.049,3.988,3.988,0,0,1-.9-2.683v-.205a4.014,4.014,0,0,1,.892-2.683,3.124,3.124,0,0,1,2.526-1.056,3.05,3.05,0,0,1,2.181.779,2.6,2.6,0,0,1,.8,2.051l-.014.041H163a1.476,1.476,0,0,0-.3-.954A1.022,1.022,0,0,0,161.848,8a1.139,1.139,0,0,0-1.1.619,3.393,3.393,0,0,0-.325,1.583v.205A3.38,3.38,0,0,0,160.75,12,1.155,1.155,0,0,0,161.861,12.612Zm8.661.294a2.511,2.511,0,0,1-.868.916,2.3,2.3,0,0,1-1.224.321,2.249,2.249,0,0,1-1.829-.793,3.8,3.8,0,0,1-.66-2.461V6.6h1.989v4.3a2.388,2.388,0,0,0,.263,1.33.946.946,0,0,0,.817.359,1.989,1.989,0,0,0,.82-.154,1.383,1.383,0,0,0,.561-.455V6.6h2V14h-1.654ZM175.991,14h-2V3.336h2Zm6,0a4.2,4.2,0,0,1-.188-.533,3.708,3.708,0,0,1-.113-.574,2.736,2.736,0,0,1-.813.9,2.039,2.039,0,0,1-1.2.355,2.5,2.5,0,0,1-1.791-.6,2.143,2.143,0,0,1-.629-1.63,1.95,1.95,0,0,1,.837-1.685,4.182,4.182,0,0,1,2.444-.6h1.121V9.044a1.151,1.151,0,0,0-.28-.827,1.1,1.1,0,0,0-.834-.294,1.084,1.084,0,0,0-.749.236.823.823,0,0,0-.263.646h-1.921l-.014-.041a1.876,1.876,0,0,1,.817-1.617,3.548,3.548,0,0,1,2.259-.68,3.311,3.311,0,0,1,2.157.67,2.333,2.333,0,0,1,.824,1.921v3.056a5.779,5.779,0,0,0,.079.978,4.905,4.905,0,0,0,.25.909Zm-1.825-1.333a1.7,1.7,0,0,0,.93-.26,1.4,1.4,0,0,0,.561-.6V10.76h-1.121a1.329,1.329,0,0,0-.96.314,1.033,1.033,0,0,0-.325.772.771.771,0,0,0,.243.6A.96.96,0,0,0,180.168,12.667Zm4.676-2.3A4.806,4.806,0,0,1,185.6,7.54a2.453,2.453,0,0,1,2.129-1.073,2.071,2.071,0,0,1,1,.239,2.4,2.4,0,0,1,.779.684V3.336h2V14h-1.7l-.171-.909a2.473,2.473,0,0,1-.827.783,2.187,2.187,0,0,1-1.094.27,2.5,2.5,0,0,1-2.116-1,4.262,4.262,0,0,1-.755-2.639Zm1.989.144a3.013,3.013,0,0,0,.328,1.528,1.142,1.142,0,0,0,1.066.557,1.553,1.553,0,0,0,.752-.174,1.391,1.391,0,0,0,.526-.509V8.757a1.536,1.536,0,0,0-.523-.543,1.391,1.391,0,0,0-.742-.195,1.127,1.127,0,0,0-1.07.649,3.67,3.67,0,0,0-.338,1.7Zm5.913-.273a3.969,3.969,0,0,1,.923-2.71,3.217,3.217,0,0,1,2.557-1.056A3.251,3.251,0,0,1,198.8,7.52a3.948,3.948,0,0,1,.93,2.714v.144a3.954,3.954,0,0,1-.926,2.717,3.656,3.656,0,0,1-5.127,0,3.954,3.954,0,0,1-.926-2.717Zm1.989.144A3.218,3.218,0,0,0,195.091,12a1.366,1.366,0,0,0,2.28,0,3.2,3.2,0,0,0,.359-1.62v-.144a3.164,3.164,0,0,0-.362-1.606A1.226,1.226,0,0,0,196.226,8a1.211,1.211,0,0,0-1.131.625,3.192,3.192,0,0,0-.359,1.6ZM203.171,14h-2V12.25h2Z" transform="translate(-1655.457 -4782.903)" fill="#0c1d30"/>
    <path id="Trazado_204679" data-name="Trazado 204679" d="M7.547-5H3.328v3.25H8.344V0h-7.3V-11.375H8.328v1.758h-5v2.859H7.547Zm4.886,1.852.148.781h.047l.156-.781,1.391-5.3h2.383L13.683,0H11.5L8.628-8.453h2.383ZM22.305,0a4.8,4.8,0,0,1-.215-.609,4.239,4.239,0,0,1-.129-.656,3.127,3.127,0,0,1-.93,1.023,2.33,2.33,0,0,1-1.375.406A2.855,2.855,0,0,1,17.61-.52a2.449,2.449,0,0,1-.719-1.863,2.229,2.229,0,0,1,.957-1.926,4.78,4.78,0,0,1,2.793-.684h1.281v-.672a1.315,1.315,0,0,0-.32-.945,1.257,1.257,0,0,0-.953-.336,1.239,1.239,0,0,0-.855.27.941.941,0,0,0-.3.738H17.3l-.016-.047a2.144,2.144,0,0,1,.934-1.848A4.055,4.055,0,0,1,20.8-8.609a3.784,3.784,0,0,1,2.465.766,2.667,2.667,0,0,1,.941,2.2v3.492a6.6,6.6,0,0,0,.09,1.117A5.606,5.606,0,0,0,24.579,0ZM20.219-1.523a1.944,1.944,0,0,0,1.063-.3,1.6,1.6,0,0,0,.641-.687V-3.7H20.641a1.519,1.519,0,0,0-1.1.359,1.181,1.181,0,0,0-.371.883.881.881,0,0,0,.277.684A1.1,1.1,0,0,0,20.219-1.523ZM33.54-3.992a4.855,4.855,0,0,1-.867,3.016A2.869,2.869,0,0,1,30.251.164a2.707,2.707,0,0,1-1.18-.246A2.423,2.423,0,0,1,28.188-.8V3.25H25.915v-11.7h2.055l.133,1a2.709,2.709,0,0,1,.9-.855,2.441,2.441,0,0,1,1.23-.3,2.813,2.813,0,0,1,2.438,1.227,5.474,5.474,0,0,1,.867,3.227Zm-2.281-.164a4.09,4.09,0,0,0-.4-1.937,1.3,1.3,0,0,0-1.219-.742,1.722,1.722,0,0,0-.879.211,1.505,1.505,0,0,0-.574.6v3.7a1.4,1.4,0,0,0,.574.547,1.935,1.935,0,0,0,.895.188,1.312,1.312,0,0,0,1.215-.648,3.423,3.423,0,0,0,.387-1.758ZM34.594-4.3a4.536,4.536,0,0,1,1.055-3.1,3.676,3.676,0,0,1,2.922-1.207,3.715,3.715,0,0,1,2.938,1.2,4.512,4.512,0,0,1,1.063,3.1v.164a4.519,4.519,0,0,1-1.059,3.105,3.7,3.7,0,0,1-2.926,1.2,3.709,3.709,0,0,1-2.934-1.2,4.519,4.519,0,0,1-1.059-3.105Zm2.273.164a3.677,3.677,0,0,0,.406,1.855,1.4,1.4,0,0,0,1.313.7,1.389,1.389,0,0,0,1.293-.7,3.653,3.653,0,0,0,.41-1.852V-4.3a3.616,3.616,0,0,0-.414-1.836,1.4,1.4,0,0,0-1.3-.711,1.384,1.384,0,0,0-1.293.715,3.648,3.648,0,0,0-.41,1.832ZM48.423-6.492l-.836-.023a1.519,1.519,0,0,0-.836.211,1.337,1.337,0,0,0-.5.594V0H43.977V-8.453h2.117l.1,1.25a2.667,2.667,0,0,1,.77-1.035,1.715,1.715,0,0,1,1.09-.371,1.705,1.705,0,0,1,.316.027q.145.027.293.066ZM54.37,0a4.8,4.8,0,0,1-.215-.609,4.239,4.239,0,0,1-.129-.656A3.127,3.127,0,0,1,53.1-.242a2.33,2.33,0,0,1-1.375.406A2.855,2.855,0,0,1,49.675-.52a2.449,2.449,0,0,1-.719-1.863,2.229,2.229,0,0,1,.957-1.926,4.78,4.78,0,0,1,2.793-.684h1.281v-.672a1.315,1.315,0,0,0-.32-.945,1.257,1.257,0,0,0-.953-.336,1.239,1.239,0,0,0-.855.27.941.941,0,0,0-.3.738h-2.2l-.016-.047a2.144,2.144,0,0,1,.934-1.848,4.055,4.055,0,0,1,2.582-.777,3.784,3.784,0,0,1,2.465.766,2.667,2.667,0,0,1,.941,2.2v3.492a6.605,6.605,0,0,0,.09,1.117A5.606,5.606,0,0,0,56.644,0ZM52.285-1.523a1.944,1.944,0,0,0,1.063-.3,1.6,1.6,0,0,0,.641-.687V-3.7H52.706a1.519,1.519,0,0,0-1.1.359,1.181,1.181,0,0,0-.371.883.881.881,0,0,0,.277.684A1.1,1.1,0,0,0,52.285-1.523Zm9.227-.062a1.27,1.27,0,0,0,.945-.355,1.291,1.291,0,0,0,.352-.949h2.078l.016.047A2.645,2.645,0,0,1,63.949-.7a3.564,3.564,0,0,1-2.437.863,3.6,3.6,0,0,1-2.9-1.2A4.558,4.558,0,0,1,57.589-4.1v-.234A4.588,4.588,0,0,1,58.609-7.4,3.57,3.57,0,0,1,61.5-8.609a3.486,3.486,0,0,1,2.492.891A2.976,2.976,0,0,1,64.9-5.375l-.016.047H62.808a1.687,1.687,0,0,0-.348-1.09,1.168,1.168,0,0,0-.965-.434,1.3,1.3,0,0,0-1.254.707,3.878,3.878,0,0,0-.371,1.809V-4.1a3.863,3.863,0,0,0,.371,1.82A1.32,1.32,0,0,0,61.511-1.586ZM68.628,0H66.347V-8.453h2.281Zm0-10.477H66.347v-1.711h2.281ZM70.152-4.3a4.536,4.536,0,0,1,1.055-3.1,3.676,3.676,0,0,1,2.922-1.207,3.715,3.715,0,0,1,2.938,1.2,4.512,4.512,0,0,1,1.063,3.1v.164A4.519,4.519,0,0,1,77.07-1.035a3.7,3.7,0,0,1-2.926,1.2,3.709,3.709,0,0,1-2.934-1.2,4.519,4.519,0,0,1-1.059-3.105Zm2.273.164a3.677,3.677,0,0,0,.406,1.855,1.4,1.4,0,0,0,1.313.7,1.389,1.389,0,0,0,1.293-.7,3.653,3.653,0,0,0,.41-1.852V-4.3a3.616,3.616,0,0,0-.414-1.836,1.4,1.4,0,0,0-1.3-.711,1.384,1.384,0,0,0-1.293.715,3.648,3.648,0,0,0-.41,1.832Zm2.164-7.922h2.539l.016.047L74.98-9.984H73.035ZM81.62-8.453l.1,1.211A3.092,3.092,0,0,1,82.761-8.25a2.7,2.7,0,0,1,1.383-.359,2.513,2.513,0,0,1,2,.824,3.908,3.908,0,0,1,.719,2.605V0H84.574V-5.172a2.024,2.024,0,0,0-.316-1.285,1.166,1.166,0,0,0-.949-.379,1.992,1.992,0,0,0-.895.191,1.746,1.746,0,0,0-.637.527V0H79.5V-8.453Z" transform="translate(-2049.375 -4770.548)" fill="#0c1d30"/>
    <path id="Trazado_204680" data-name="Trazado 204680" d="M6.977-2.453H3.289L2.523,0H.141L3.977-11.375H6.313L10.133,0H7.75ZM3.852-4.242h2.57L5.164-8.25H5.117ZM14.586-1.586a1.27,1.27,0,0,0,.945-.355,1.291,1.291,0,0,0,.352-.949h2.078l.016.047A2.645,2.645,0,0,1,17.023-.7a3.564,3.564,0,0,1-2.437.863,3.6,3.6,0,0,1-2.9-1.2A4.558,4.558,0,0,1,10.664-4.1v-.234A4.588,4.588,0,0,1,11.684-7.4,3.57,3.57,0,0,1,14.57-8.609a3.486,3.486,0,0,1,2.492.891,2.976,2.976,0,0,1,.914,2.344l-.016.047H15.883a1.687,1.687,0,0,0-.348-1.09,1.168,1.168,0,0,0-.965-.434,1.3,1.3,0,0,0-1.254.707,3.878,3.878,0,0,0-.371,1.809V-4.1a3.863,3.863,0,0,0,.371,1.82A1.32,1.32,0,0,0,14.586-1.586Zm7.453-8.937v2.07h1.43v1.6h-1.43v4.3a.982.982,0,0,0,.207.7.727.727,0,0,0,.543.211,2.178,2.178,0,0,0,.313-.02,2.632,2.632,0,0,0,.3-.066L23.594-.07a4.618,4.618,0,0,1-.668.176,3.982,3.982,0,0,1-.707.059A2.431,2.431,0,0,1,20.4-.484a2.843,2.843,0,0,1-.637-2.055V-6.852H18.531v-1.6h1.234v-2.07ZM27.273,0H24.992V-8.453h2.281Zm0-10.477H24.992v-1.711h2.281ZM32.2-3.148l.148.781H32.4l.156-.781,1.391-5.3h2.383L33.453,0h-2.18L28.4-8.453h2.383ZM39.719,0H37.438V-8.453h2.281Zm0-10.477H37.438v-1.711h2.281Zm1.523,6.32a5.493,5.493,0,0,1,.863-3.227,2.8,2.8,0,0,1,2.434-1.227,2.367,2.367,0,0,1,1.141.273,2.744,2.744,0,0,1,.891.781v-4.633h2.289V0H46.914l-.2-1.039a2.826,2.826,0,0,1-.945.895,2.5,2.5,0,0,1-1.25.309A2.858,2.858,0,0,1,42.105-.977a4.871,4.871,0,0,1-.863-3.016Zm2.273.164a3.443,3.443,0,0,0,.375,1.746,1.306,1.306,0,0,0,1.219.637,1.775,1.775,0,0,0,.859-.2,1.589,1.589,0,0,0,.6-.582v-3.6a1.756,1.756,0,0,0-.6-.621,1.589,1.589,0,0,0-.848-.223,1.287,1.287,0,0,0-1.223.742,4.194,4.194,0,0,0-.387,1.938ZM55.609,0a4.8,4.8,0,0,1-.215-.609,4.239,4.239,0,0,1-.129-.656,3.127,3.127,0,0,1-.93,1.023,2.33,2.33,0,0,1-1.375.406A2.855,2.855,0,0,1,50.914-.52,2.449,2.449,0,0,1,50.2-2.383a2.229,2.229,0,0,1,.957-1.926,4.78,4.78,0,0,1,2.793-.684h1.281v-.672a1.315,1.315,0,0,0-.32-.945,1.257,1.257,0,0,0-.953-.336,1.239,1.239,0,0,0-.855.27.941.941,0,0,0-.3.738H50.6l-.016-.047a2.144,2.144,0,0,1,.934-1.848A4.055,4.055,0,0,1,54.1-8.609a3.784,3.784,0,0,1,2.465.766,2.667,2.667,0,0,1,.941,2.2v3.492a6.605,6.605,0,0,0,.09,1.117A5.606,5.606,0,0,0,57.883,0ZM53.523-1.523a1.944,1.944,0,0,0,1.063-.3,1.6,1.6,0,0,0,.641-.687V-3.7H53.945a1.519,1.519,0,0,0-1.1.359,1.181,1.181,0,0,0-.371.883.881.881,0,0,0,.277.684A1.1,1.1,0,0,0,53.523-1.523Zm5.344-2.633a5.493,5.493,0,0,1,.863-3.227,2.8,2.8,0,0,1,2.434-1.227,2.367,2.367,0,0,1,1.141.273,2.744,2.744,0,0,1,.891.781v-4.633h2.289V0H64.539l-.2-1.039a2.826,2.826,0,0,1-.945.895,2.5,2.5,0,0,1-1.25.309A2.858,2.858,0,0,1,59.73-.977a4.871,4.871,0,0,1-.863-3.016Zm2.273.164a3.443,3.443,0,0,0,.375,1.746,1.306,1.306,0,0,0,1.219.637,1.775,1.775,0,0,0,.859-.2,1.589,1.589,0,0,0,.6-.582v-3.6a1.756,1.756,0,0,0-.6-.621,1.589,1.589,0,0,0-.848-.223,1.287,1.287,0,0,0-1.223.742,4.194,4.194,0,0,0-.387,1.938Z" transform="translate(-2022.204 -4823.289)" fill="#0c1d30"/>
    <path id="Trazado_204681" data-name="Trazado 204681" d="M6.977-2.453H3.289L2.523,0H.141L3.977-11.375H6.313L10.133,0H7.75ZM3.852-4.242h2.57L5.164-8.25H5.117Zm11.773,1.9a.787.787,0,0,0-.363-.645,3.69,3.69,0,0,0-1.348-.473,5.375,5.375,0,0,1-2.254-.9,1.962,1.962,0,0,1-.77-1.633,2.329,2.329,0,0,1,.922-1.852,3.717,3.717,0,0,1,2.453-.766,4.011,4.011,0,0,1,2.566.766,2.237,2.237,0,0,1,.926,1.906l-.016.047h-2.2a1.106,1.106,0,0,0-.328-.828,1.3,1.3,0,0,0-.945-.32,1.292,1.292,0,0,0-.867.273.85.85,0,0,0-.32.672.759.759,0,0,0,.332.637,3.7,3.7,0,0,0,1.348.441,5.484,5.484,0,0,1,2.316.918,2.014,2.014,0,0,1,.762,1.668,2.231,2.231,0,0,1-.977,1.867,4.215,4.215,0,0,1-2.578.727,3.918,3.918,0,0,1-2.668-.855,2.392,2.392,0,0,1-.934-1.949l.016-.047h2.086a1.186,1.186,0,0,0,.445.984,1.838,1.838,0,0,0,1.1.3,1.567,1.567,0,0,0,.965-.254A.824.824,0,0,0,15.625-2.344Zm11.3-1.648a4.855,4.855,0,0,1-.867,3.016A2.869,2.869,0,0,1,23.641.164a2.707,2.707,0,0,1-1.18-.246A2.423,2.423,0,0,1,21.578-.8V3.25H19.3v-11.7h2.055l.133,1a2.709,2.709,0,0,1,.9-.855,2.441,2.441,0,0,1,1.23-.3,2.813,2.813,0,0,1,2.438,1.227,5.474,5.474,0,0,1,.867,3.227Zm-2.281-.164a4.09,4.09,0,0,0-.4-1.937,1.3,1.3,0,0,0-1.219-.742,1.722,1.722,0,0,0-.879.211,1.505,1.505,0,0,0-.574.6v3.7a1.4,1.4,0,0,0,.574.547,1.935,1.935,0,0,0,.895.188,1.312,1.312,0,0,0,1.215-.648,3.423,3.423,0,0,0,.387-1.758ZM32,.164A3.8,3.8,0,0,1,29.047-1a4.252,4.252,0,0,1-1.062-2.988V-4.3a4.628,4.628,0,0,1,1.031-3.109,3.506,3.506,0,0,1,2.836-1.2,3.282,3.282,0,0,1,2.613,1.043,4.122,4.122,0,0,1,.91,2.809v1.18H30.336l-.023.047a2.284,2.284,0,0,0,.527,1.406,1.766,1.766,0,0,0,1.4.539,4.692,4.692,0,0,0,1.3-.156,5.307,5.307,0,0,0,1.105-.477l.617,1.406a4.234,4.234,0,0,1-1.375.7A6.1,6.1,0,0,1,32,.164Zm-.148-7.016a1.267,1.267,0,0,0-1.059.473,2.371,2.371,0,0,0-.449,1.254l.016.039h2.781v-.172a1.974,1.974,0,0,0-.3-1.168A1.127,1.127,0,0,0,31.852-6.852Zm8.383,5.266a1.27,1.27,0,0,0,.945-.355,1.291,1.291,0,0,0,.352-.949h2.078l.016.047A2.645,2.645,0,0,1,42.672-.7a3.564,3.564,0,0,1-2.437.863,3.6,3.6,0,0,1-2.9-1.2A4.558,4.558,0,0,1,36.313-4.1v-.234A4.588,4.588,0,0,1,37.332-7.4a3.57,3.57,0,0,1,2.887-1.207,3.486,3.486,0,0,1,2.492.891,2.976,2.976,0,0,1,.914,2.344l-.016.047H41.531a1.687,1.687,0,0,0-.348-1.09,1.168,1.168,0,0,0-.965-.434,1.3,1.3,0,0,0-1.254.707,3.878,3.878,0,0,0-.371,1.809V-4.1a3.863,3.863,0,0,0,.371,1.82A1.32,1.32,0,0,0,40.234-1.586Zm7.453-8.937v2.07h1.43v1.6h-1.43v4.3a.982.982,0,0,0,.207.7.727.727,0,0,0,.543.211,2.178,2.178,0,0,0,.313-.02,2.632,2.632,0,0,0,.3-.066L49.242-.07a4.618,4.618,0,0,1-.668.176,3.982,3.982,0,0,1-.707.059,2.431,2.431,0,0,1-1.816-.648,2.843,2.843,0,0,1-.637-2.055V-6.852H44.18v-1.6h1.234v-2.07ZM49.948-4.3A4.536,4.536,0,0,1,51-7.4a3.676,3.676,0,0,1,2.922-1.207,3.715,3.715,0,0,1,2.938,1.2,4.512,4.512,0,0,1,1.063,3.1v.164a4.519,4.519,0,0,1-1.059,3.105A3.7,3.7,0,0,1,53.94.164a3.709,3.709,0,0,1-2.934-1.2,4.519,4.519,0,0,1-1.059-3.105Zm2.273.164a3.677,3.677,0,0,0,.406,1.855,1.4,1.4,0,0,0,1.313.7,1.389,1.389,0,0,0,1.293-.7,3.653,3.653,0,0,0,.41-1.852V-4.3a3.616,3.616,0,0,0-.414-1.836,1.4,1.4,0,0,0-1.3-.711,1.384,1.384,0,0,0-1.293.715,3.648,3.648,0,0,0-.41,1.832Z" transform="translate(-1817.025 -4823.289)" fill="#0c1d30"/>
    <path id="Trazado_204682" data-name="Trazado 204682" d="M6.6-4.375H2.912v2.844H7.3V0H.916V-9.953H7.287v1.538H2.912v2.5H6.6ZM10.4-7.4l.082.978a2.485,2.485,0,0,1,.892-.824,2.565,2.565,0,0,1,1.241-.291,2.259,2.259,0,0,1,1.217.314,1.94,1.94,0,0,1,.766.95,2.564,2.564,0,0,1,.889-.93,2.411,2.411,0,0,1,1.285-.335,2.107,2.107,0,0,1,1.726.776,3.7,3.7,0,0,1,.632,2.369V0h-2V-4.4a2.073,2.073,0,0,0-.273-1.237.971.971,0,0,0-.813-.349,1.393,1.393,0,0,0-.735.188,1.369,1.369,0,0,0-.5.523q0,.13.007.222t.007.188V0H12.845V-4.4a2.079,2.079,0,0,0-.273-1.227.966.966,0,0,0-.82-.359,1.548,1.548,0,0,0-.708.154,1.357,1.357,0,0,0-.5.434V0H8.552V-7.4ZM22.764,0h-2V-7.4h2Zm0-9.167h-2v-1.5h2ZM28.4-2.051a.689.689,0,0,0-.318-.564,3.229,3.229,0,0,0-1.179-.414,4.7,4.7,0,0,1-1.972-.786,1.717,1.717,0,0,1-.673-1.429,2.038,2.038,0,0,1,.807-1.62,3.252,3.252,0,0,1,2.146-.67,3.51,3.51,0,0,1,2.246.67A1.957,1.957,0,0,1,30.27-5.2l-.014.041H28.328a.968.968,0,0,0-.287-.725,1.136,1.136,0,0,0-.827-.28,1.13,1.13,0,0,0-.759.239.744.744,0,0,0-.28.588.664.664,0,0,0,.291.557,3.234,3.234,0,0,0,1.179.386,4.8,4.8,0,0,1,2.027.8,1.762,1.762,0,0,1,.667,1.459,1.952,1.952,0,0,1-.854,1.634,3.688,3.688,0,0,1-2.256.636A3.429,3.429,0,0,1,24.893-.6a2.093,2.093,0,0,1-.817-1.706l.014-.041h1.825a1.037,1.037,0,0,0,.39.861,1.609,1.609,0,0,0,.964.267,1.371,1.371,0,0,0,.844-.222A.721.721,0,0,0,28.4-2.051ZM33.722,0h-2V-7.4h2Zm0-9.167h-2v-1.5h2Zm1.333,5.4a3.969,3.969,0,0,1,.923-2.71,3.217,3.217,0,0,1,2.557-1.056A3.251,3.251,0,0,1,41.1-6.48a3.948,3.948,0,0,1,.93,2.714v.144a3.954,3.954,0,0,1-.926,2.717A3.237,3.237,0,0,1,38.548.144,3.246,3.246,0,0,1,35.981-.906a3.954,3.954,0,0,1-.926-2.717Zm1.989.144A3.218,3.218,0,0,0,37.4-2a1.227,1.227,0,0,0,1.148.612A1.215,1.215,0,0,0,39.679-2a3.2,3.2,0,0,0,.359-1.62v-.144a3.164,3.164,0,0,0-.362-1.606A1.226,1.226,0,0,0,38.534-6,1.211,1.211,0,0,0,37.4-5.37a3.192,3.192,0,0,0-.359,1.6Zm1.894-6.932h2.222l.014.041L39.279-8.736h-1.7ZM45.09-7.4l.089,1.06a2.705,2.705,0,0,1,.909-.882,2.36,2.36,0,0,1,1.21-.314,2.2,2.2,0,0,1,1.75.721,3.419,3.419,0,0,1,.629,2.28V0h-2V-4.525A1.771,1.771,0,0,0,47.4-5.65a1.02,1.02,0,0,0-.831-.332,1.743,1.743,0,0,0-.783.167,1.528,1.528,0,0,0-.557.461V0h-2V-7.4Zm9.256,3.76A4.806,4.806,0,0,1,55.1-6.46,2.453,2.453,0,0,1,57.23-7.533a2.071,2.071,0,0,1,1,.239,2.4,2.4,0,0,1,.779.684v-4.054h2V0h-1.7l-.171-.909a2.473,2.473,0,0,1-.827.783,2.187,2.187,0,0,1-1.094.27,2.5,2.5,0,0,1-2.116-1,4.262,4.262,0,0,1-.755-2.639Zm1.989.144a3.013,3.013,0,0,0,.328,1.528,1.142,1.142,0,0,0,1.066.557,1.553,1.553,0,0,0,.752-.174,1.391,1.391,0,0,0,.526-.509V-5.243a1.536,1.536,0,0,0-.523-.543,1.391,1.391,0,0,0-.742-.195,1.127,1.127,0,0,0-1.07.649,3.67,3.67,0,0,0-.338,1.7ZM65.762.144A3.328,3.328,0,0,1,63.178-.872a3.721,3.721,0,0,1-.93-2.615V-3.76a4.05,4.05,0,0,1,.9-2.721,3.068,3.068,0,0,1,2.481-1.053,2.872,2.872,0,0,1,2.287.913,3.607,3.607,0,0,1,.8,2.458v1.032H64.306l-.021.041a2,2,0,0,0,.461,1.23,1.545,1.545,0,0,0,1.227.472,4.106,4.106,0,0,0,1.138-.137,4.644,4.644,0,0,0,.967-.417l.54,1.23a3.705,3.705,0,0,1-1.2.608A5.336,5.336,0,0,1,65.762.144ZM65.632-6a1.109,1.109,0,0,0-.926.414,2.075,2.075,0,0,0-.393,1.1l.014.034H66.76V-4.6a1.728,1.728,0,0,0-.267-1.022A.986.986,0,0,0,65.632-6Zm7.438,2.358a4.79,4.79,0,0,1,.759-2.823,2.462,2.462,0,0,1,2.133-1.073,2.1,2.1,0,0,1,1.094.28,2.455,2.455,0,0,1,.807.8l.157-.943h1.716V-.034A2.749,2.749,0,0,1,78.791,2.2a3.983,3.983,0,0,1-2.632.79,5.014,5.014,0,0,1-1.189-.154,5.524,5.524,0,0,1-1.162-.42l.335-1.49a4.581,4.581,0,0,0,.947.332,4.692,4.692,0,0,0,1.056.113,1.787,1.787,0,0,0,1.207-.342,1.353,1.353,0,0,0,.386-1.066v-.67a2.233,2.233,0,0,1-.772.636,2.277,2.277,0,0,1-1.019.219,2.51,2.51,0,0,1-2.119-1,4.248,4.248,0,0,1-.759-2.639Zm2,.144a3.039,3.039,0,0,0,.325,1.528,1.135,1.135,0,0,0,1.063.557,1.648,1.648,0,0,0,.776-.167,1.279,1.279,0,0,0,.509-.489V-5.271a1.364,1.364,0,0,0-.509-.526,1.493,1.493,0,0,0-.762-.185,1.12,1.12,0,0,0-1.066.649,3.7,3.7,0,0,0-.335,1.7ZM85.627,0a4.2,4.2,0,0,1-.188-.533,3.71,3.71,0,0,1-.113-.574,2.736,2.736,0,0,1-.813.9,2.039,2.039,0,0,1-1.2.355,2.5,2.5,0,0,1-1.791-.6,2.143,2.143,0,0,1-.629-1.63,1.95,1.95,0,0,1,.837-1.685,4.182,4.182,0,0,1,2.444-.6h1.121v-.588a1.151,1.151,0,0,0-.28-.827,1.1,1.1,0,0,0-.834-.294,1.084,1.084,0,0,0-.749.236.823.823,0,0,0-.263.646H81.245l-.014-.041a1.876,1.876,0,0,1,.817-1.617,3.548,3.548,0,0,1,2.259-.68,3.311,3.311,0,0,1,2.157.67,2.333,2.333,0,0,1,.824,1.921v3.056a5.78,5.78,0,0,0,.079.978,4.905,4.905,0,0,0,.25.909ZM83.8-1.333a1.7,1.7,0,0,0,.93-.26,1.4,1.4,0,0,0,.561-.6V-3.24H84.171a1.329,1.329,0,0,0-.96.314,1.033,1.033,0,0,0-.325.772.771.771,0,0,0,.243.6A.96.96,0,0,0,83.8-1.333Zm8.982-.718a.689.689,0,0,0-.318-.564,3.229,3.229,0,0,0-1.179-.414,4.7,4.7,0,0,1-1.972-.786,1.717,1.717,0,0,1-.673-1.429,2.038,2.038,0,0,1,.807-1.62,3.252,3.252,0,0,1,2.146-.67,3.51,3.51,0,0,1,2.246.67A1.957,1.957,0,0,1,94.65-5.2l-.014.041H92.709a.968.968,0,0,0-.287-.725,1.136,1.136,0,0,0-.827-.28,1.13,1.13,0,0,0-.759.239.744.744,0,0,0-.28.588.664.664,0,0,0,.291.557,3.234,3.234,0,0,0,1.179.386,4.8,4.8,0,0,1,2.027.8,1.762,1.762,0,0,1,.667,1.459,1.952,1.952,0,0,1-.854,1.634,3.688,3.688,0,0,1-2.256.636A3.429,3.429,0,0,1,89.274-.6a2.093,2.093,0,0,1-.817-1.706l.014-.041H90.3a1.037,1.037,0,0,0,.39.861,1.609,1.609,0,0,0,.964.267,1.371,1.371,0,0,0,.844-.222A.721.721,0,0,0,92.784-2.051ZM99.21.144A3.328,3.328,0,0,1,96.626-.872a3.721,3.721,0,0,1-.93-2.615V-3.76a4.05,4.05,0,0,1,.9-2.721A3.068,3.068,0,0,1,99.08-7.533a2.872,2.872,0,0,1,2.287.913,3.607,3.607,0,0,1,.8,2.458v1.032H97.754l-.021.041a2,2,0,0,0,.461,1.23,1.545,1.545,0,0,0,1.227.472,4.106,4.106,0,0,0,1.138-.137,4.644,4.644,0,0,0,.967-.417l.54,1.23a3.705,3.705,0,0,1-1.2.608A5.336,5.336,0,0,1,99.21.144ZM99.08-6a1.109,1.109,0,0,0-.926.414,2.075,2.075,0,0,0-.393,1.1l.014.034h2.434V-4.6a1.728,1.728,0,0,0-.267-1.022A.986.986,0,0,0,99.08-6Zm8.244,3.944a.689.689,0,0,0-.318-.564,3.229,3.229,0,0,0-1.179-.414,4.7,4.7,0,0,1-1.972-.786,1.717,1.717,0,0,1-.673-1.429,2.038,2.038,0,0,1,.807-1.62,3.252,3.252,0,0,1,2.146-.67,3.51,3.51,0,0,1,2.246.67,1.957,1.957,0,0,1,.81,1.668l-.014.041h-1.928a.968.968,0,0,0-.287-.725,1.136,1.136,0,0,0-.827-.28,1.13,1.13,0,0,0-.759.239.744.744,0,0,0-.28.588.664.664,0,0,0,.291.557,3.234,3.234,0,0,0,1.179.386,4.8,4.8,0,0,1,2.027.8,1.762,1.762,0,0,1,.667,1.459A1.952,1.952,0,0,1,108.4-.492a3.688,3.688,0,0,1-2.256.636A3.429,3.429,0,0,1,103.814-.6,2.093,2.093,0,0,1,103-2.311l.014-.041h1.825a1.037,1.037,0,0,0,.39.861,1.609,1.609,0,0,0,.964.267,1.371,1.371,0,0,0,.844-.222A.721.721,0,0,0,107.324-2.051Z" transform="translate(-1887.367 -4770.55)" fill="#0c1d30"/>
    <path id="Trazado_204684" data-name="Trazado 204684" d="M3.484,0H1.2V-11.375H3.484Zm4.2-8.453.094,1.117A2.84,2.84,0,0,1,8.8-8.277a2.932,2.932,0,0,1,1.418-.332,2.582,2.582,0,0,1,1.391.359,2.217,2.217,0,0,1,.875,1.086A2.93,2.93,0,0,1,13.5-8.227a2.756,2.756,0,0,1,1.469-.383,2.408,2.408,0,0,1,1.973.887,4.233,4.233,0,0,1,.723,2.707V0H15.383V-5.023a2.369,2.369,0,0,0-.312-1.414,1.109,1.109,0,0,0-.93-.4,1.592,1.592,0,0,0-.84.215,1.565,1.565,0,0,0-.566.6q0,.148.008.254t.008.215V0H10.477V-5.023a2.376,2.376,0,0,0-.312-1.4,1.1,1.1,0,0,0-.937-.41,1.769,1.769,0,0,0-.809.176,1.551,1.551,0,0,0-.574.5V0H5.57V-8.453ZM27.039-3.992a4.855,4.855,0,0,1-.867,3.016A2.869,2.869,0,0,1,23.75.164a2.707,2.707,0,0,1-1.18-.246A2.423,2.423,0,0,1,21.688-.8V3.25H19.414v-11.7h2.055l.133,1a2.709,2.709,0,0,1,.9-.855,2.441,2.441,0,0,1,1.23-.3,2.813,2.813,0,0,1,2.438,1.227,5.474,5.474,0,0,1,.867,3.227Zm-2.281-.164a4.09,4.09,0,0,0-.4-1.937,1.3,1.3,0,0,0-1.219-.742,1.722,1.722,0,0,0-.879.211,1.505,1.505,0,0,0-.574.6v3.7a1.4,1.4,0,0,0,.574.547,1.935,1.935,0,0,0,.895.188,1.312,1.312,0,0,0,1.215-.648,3.423,3.423,0,0,0,.387-1.758ZM33.43,0a4.8,4.8,0,0,1-.215-.609,4.239,4.239,0,0,1-.129-.656,3.127,3.127,0,0,1-.93,1.023,2.33,2.33,0,0,1-1.375.406A2.855,2.855,0,0,1,28.734-.52a2.449,2.449,0,0,1-.719-1.863,2.229,2.229,0,0,1,.957-1.926,4.78,4.78,0,0,1,2.793-.684h1.281v-.672a1.315,1.315,0,0,0-.32-.945,1.257,1.257,0,0,0-.953-.336,1.239,1.239,0,0,0-.855.27.941.941,0,0,0-.3.738h-2.2l-.016-.047a2.144,2.144,0,0,1,.934-1.848,4.055,4.055,0,0,1,2.582-.777,3.784,3.784,0,0,1,2.465.766,2.667,2.667,0,0,1,.941,2.2v3.492a6.605,6.605,0,0,0,.09,1.117A5.606,5.606,0,0,0,35.7,0ZM31.344-1.523a1.944,1.944,0,0,0,1.063-.3,1.6,1.6,0,0,0,.641-.687V-3.7H31.766a1.519,1.519,0,0,0-1.1.359,1.181,1.181,0,0,0-.371.883.881.881,0,0,0,.277.684A1.1,1.1,0,0,0,31.344-1.523Zm9.227-.062a1.27,1.27,0,0,0,.945-.355,1.291,1.291,0,0,0,.352-.949h2.078l.016.047A2.645,2.645,0,0,1,43.008-.7,3.564,3.564,0,0,1,40.57.164a3.6,3.6,0,0,1-2.9-1.2A4.558,4.558,0,0,1,36.648-4.1v-.234A4.588,4.588,0,0,1,37.668-7.4a3.57,3.57,0,0,1,2.887-1.207,3.486,3.486,0,0,1,2.492.891,2.976,2.976,0,0,1,.914,2.344l-.016.047H41.867a1.687,1.687,0,0,0-.348-1.09,1.168,1.168,0,0,0-.965-.434,1.3,1.3,0,0,0-1.254.707,3.878,3.878,0,0,0-.371,1.809V-4.1a3.863,3.863,0,0,0,.371,1.82A1.32,1.32,0,0,0,40.57-1.586Zm7.453-8.937v2.07h1.43v1.6h-1.43v4.3a.982.982,0,0,0,.207.7.727.727,0,0,0,.543.211,2.178,2.178,0,0,0,.313-.02,2.632,2.632,0,0,0,.3-.066L49.578-.07a4.618,4.618,0,0,1-.668.176A3.982,3.982,0,0,1,48.2.164a2.431,2.431,0,0,1-1.816-.648,2.843,2.843,0,0,1-.637-2.055V-6.852H44.516v-1.6H45.75v-2.07ZM50.3-4.3a4.536,4.536,0,0,1,1.055-3.1,3.676,3.676,0,0,1,2.922-1.207,3.715,3.715,0,0,1,2.938,1.2,4.512,4.512,0,0,1,1.063,3.1v.164a4.519,4.519,0,0,1-1.059,3.105,3.7,3.7,0,0,1-2.926,1.2,3.709,3.709,0,0,1-2.934-1.2A4.519,4.519,0,0,1,50.3-4.141Zm2.273.164a3.677,3.677,0,0,0,.406,1.855,1.4,1.4,0,0,0,1.313.7,1.389,1.389,0,0,0,1.293-.7A3.653,3.653,0,0,0,56-4.141V-4.3a3.616,3.616,0,0,0-.414-1.836,1.4,1.4,0,0,0-1.3-.711,1.384,1.384,0,0,0-1.293.715,3.648,3.648,0,0,0-.41,1.832Z" transform="translate(-1538.271 -4823.289)" fill="#0c1d30"/>
  </g>
</svg>
