<svg xmlns="http://www.w3.org/2000/svg" width="714.052" height="201.746" viewBox="0 0 714.052 201.746">
  <g id="Grupo_144013" data-name="Grupo 144013" transform="translate(6322.374 12903.729)">
    <path id="Trazado_204599" data-name="Trazado 204599" d="M0,0H711.958V200H0Z" transform="translate(-6321.153 -12902.855)" fill="#fff" stroke="#000" stroke-width="1"/>
    <path id="Trazado_204600" data-name="Trazado 204600" d="M0,0H160.3V40H0Z" transform="translate(-6321.5 -12902.855)" fill="none" stroke="#000" stroke-width="1.747"/>
    <path id="Trazado_204601" data-name="Trazado 204601" d="M0,0H160.3V32H0Z" transform="translate(-6321.199 -12862.855)" fill="none" stroke="#000" stroke-width="1.747"/>
    <path id="Trazado_204602" data-name="Trazado 204602" d="M0,0H160.3V32H0Z" transform="translate(-6321.199 -12830.855)" fill="none" stroke="#000" stroke-width="1.747"/>
    <path id="Trazado_204603" data-name="Trazado 204603" d="M0,0H160.3V32H0Z" transform="translate(-6321.199 -12798.855)" fill="none" stroke="#000" stroke-width="1.747"/>
    <path id="Trazado_204604" data-name="Trazado 204604" d="M0,0H160.3V32H0Z" transform="translate(-6321.199 -12766.855)" fill="none" stroke="#000" stroke-width="1.747"/>
    <path id="Trazado_204605" data-name="Trazado 204605" d="M0,0H160.3V32H0Z" transform="translate(-6321.199 -12734.855)" fill="none" stroke="#000" stroke-width="1.747"/>
    <path id="Trazado_204606" data-name="Trazado 204606" d="M0,0H108.3V40H0Z" transform="translate(-6160.5 -12902.855)" fill="none" stroke="#000" stroke-width="1.747"/>
    <path id="Trazado_204607" data-name="Trazado 204607" d="M0,0H108.3V32H0Z" transform="translate(-6160.5 -12862.855)" fill="none" stroke="#000" stroke-width="1.747"/>
    <path id="Trazado_204608" data-name="Trazado 204608" d="M0,0H108.3V32H0Z" transform="translate(-6160.5 -12830.855)" fill="none" stroke="#000" stroke-width="1.747"/>
    <path id="Trazado_204609" data-name="Trazado 204609" d="M0,0H108.3V32H0Z" transform="translate(-6160.5 -12798.855)" fill="none" stroke="#000" stroke-width="1.747"/>
    <path id="Trazado_204610" data-name="Trazado 204610" d="M0,0H108.3V32H0Z" transform="translate(-6160.5 -12766.855)" fill="none" stroke="#000" stroke-width="1.747"/>
    <path id="Trazado_204611" data-name="Trazado 204611" d="M0,0H108.3V32H0Z" transform="translate(-6160.5 -12734.855)" fill="none" stroke="#000" stroke-width="1.747"/>
    <path id="Trazado_204612" data-name="Trazado 204612" d="M0,0H108.3V40H0Z" transform="translate(-6052.5 -12902.855)" fill="none" stroke="#000" stroke-width="1.747"/>
    <path id="Trazado_204613" data-name="Trazado 204613" d="M0,0H108.3V32H0Z" transform="translate(-6052.5 -12862.855)" fill="none" stroke="#000" stroke-width="1.747"/>
    <path id="Trazado_204614" data-name="Trazado 204614" d="M0,0H108.3V32H0Z" transform="translate(-6052.5 -12830.855)" fill="none" stroke="#000" stroke-width="1.747"/>
    <path id="Trazado_204615" data-name="Trazado 204615" d="M0,0H108.3V32H0Z" transform="translate(-6052.5 -12798.855)" fill="none" stroke="#000" stroke-width="1.747"/>
    <path id="Trazado_204616" data-name="Trazado 204616" d="M0,0H108.3V32H0Z" transform="translate(-6052.5 -12766.855)" fill="none" stroke="#000" stroke-width="1.747"/>
    <path id="Trazado_204617" data-name="Trazado 204617" d="M0,0H108.3V32H0Z" transform="translate(-6052.5 -12734.855)" fill="none" stroke="#000" stroke-width="1.747"/>
    <path id="Trazado_204618" data-name="Trazado 204618" d="M0,0H174.784V40H0Z" transform="translate(-5944.5 -12902.855)" fill="none" stroke="#000" stroke-width="1.747"/>
    <path id="Trazado_204619" data-name="Trazado 204619" d="M0,0H174.784V32H0Z" transform="translate(-5944.5 -12862.855)" fill="none" stroke="#000" stroke-width="1.747"/>
    <path id="Trazado_204620" data-name="Trazado 204620" d="M0,0H174.784V32H0Z" transform="translate(-5944.5 -12830.855)" fill="none" stroke="#000" stroke-width="1.747"/>
    <path id="Trazado_204621" data-name="Trazado 204621" d="M0,0H174.784V32H0Z" transform="translate(-5944.5 -12798.855)" fill="none" stroke="#000" stroke-width="1.747"/>
    <path id="Trazado_204622" data-name="Trazado 204622" d="M0,0H174.784V32H0Z" transform="translate(-5944.5 -12766.855)" fill="none" stroke="#000" stroke-width="1.747"/>
    <path id="Trazado_204623" data-name="Trazado 204623" d="M0,0H174.784V32H0Z" transform="translate(-5944.5 -12734.855)" fill="none" stroke="#000" stroke-width="1.747"/>
    <path id="Trazado_204624" data-name="Trazado 204624" d="M0,0H160.3V40H0Z" transform="translate(-5769.5 -12902.855)" fill="none" stroke="#000" stroke-width="1.747"/>
    <path id="Trazado_204625" data-name="Trazado 204625" d="M0,0H160.3V32H0Z" transform="translate(-5769.5 -12862.855)" fill="none" stroke="#000" stroke-width="1.747"/>
    <path id="Trazado_204626" data-name="Trazado 204626" d="M0,0H160.3V32H0Z" transform="translate(-5769.5 -12830.855)" fill="none" stroke="#000" stroke-width="1.747"/>
    <path id="Trazado_204627" data-name="Trazado 204627" d="M0,0H160.3V32H0Z" transform="translate(-5769.5 -12798.855)" fill="none" stroke="#000" stroke-width="1.747"/>
    <path id="Trazado_204628" data-name="Trazado 204628" d="M0,0H160.3V32H0Z" transform="translate(-5769.5 -12766.855)" fill="none" stroke="#000" stroke-width="1.747"/>
    <path id="Trazado_204629" data-name="Trazado 204629" d="M0,0H160.3V32H0Z" transform="translate(-5769.5 -12734.855)" fill="none" stroke="#000" stroke-width="1.747"/>
    <path id="Trazado_204630" data-name="Trazado 204630" d="M.915,0V-9.937H4.382a4.1,4.1,0,0,1,3,1.164A4.011,4.011,0,0,1,8.565-5.788v1.645A4,4,0,0,1,7.385-1.157,4.113,4.113,0,0,1,4.382,0ZM2.907-8.4v6.873H4.382a1.946,1.946,0,0,0,1.583-.734,2.872,2.872,0,0,0,.6-1.88V-5.8a2.847,2.847,0,0,0-.6-1.87A1.949,1.949,0,0,0,4.382-8.4Zm6.8,4.641a3.963,3.963,0,0,1,.921-2.706,3.212,3.212,0,0,1,2.553-1.054A3.246,3.246,0,0,1,15.746-6.47a3.942,3.942,0,0,1,.928,2.71v.143A3.948,3.948,0,0,1,15.749-.9,3.232,3.232,0,0,1,13.193.143,3.241,3.241,0,0,1,10.63-.9a3.948,3.948,0,0,1-.925-2.713Zm1.986.143A3.213,3.213,0,0,0,12.046-2a1.225,1.225,0,0,0,1.147.611A1.213,1.213,0,0,0,14.322-2a3.191,3.191,0,0,0,.358-1.618v-.143a3.159,3.159,0,0,0-.362-1.6,1.224,1.224,0,0,0-1.14-.621,1.209,1.209,0,0,0-1.13.624,3.187,3.187,0,0,0-.358,1.6Zm9.3,2.232a1.109,1.109,0,0,0,.826-.311,1.128,1.128,0,0,0,.307-.829h1.815l.014.041a2.311,2.311,0,0,1-.833,1.873,3.114,3.114,0,0,1-2.129.754A3.147,3.147,0,0,1,18.455-.9a3.982,3.982,0,0,1-.894-2.679v-.2a4.008,4.008,0,0,1,.891-2.679,3.119,3.119,0,0,1,2.522-1.054,3.045,3.045,0,0,1,2.177.778,2.6,2.6,0,0,1,.8,2.048l-.014.041H22.12a1.474,1.474,0,0,0-.3-.952,1.02,1.02,0,0,0-.843-.379,1.137,1.137,0,0,0-1.1.618,3.387,3.387,0,0,0-.324,1.58v.2a3.375,3.375,0,0,0,.324,1.59A1.153,1.153,0,0,0,20.987-1.385Zm8.647.293a2.507,2.507,0,0,1-.867.915,2.3,2.3,0,0,1-1.222.321A2.245,2.245,0,0,1,25.72-.648a3.8,3.8,0,0,1-.659-2.457V-7.385h1.986v4.293a2.384,2.384,0,0,0,.263,1.327.944.944,0,0,0,.816.358,1.986,1.986,0,0,0,.819-.154,1.381,1.381,0,0,0,.56-.454V-7.385H31.5V0H29.846Zm5.214-6.293.082.976a2.481,2.481,0,0,1,.891-.822,2.561,2.561,0,0,1,1.239-.29,2.256,2.256,0,0,1,1.215.314,1.937,1.937,0,0,1,.764.949,2.56,2.56,0,0,1,.887-.928,2.408,2.408,0,0,1,1.283-.334,2.1,2.1,0,0,1,1.723.775,3.7,3.7,0,0,1,.631,2.365V0H41.572V-4.389A2.07,2.07,0,0,0,41.3-5.624a.969.969,0,0,0-.812-.348,1.391,1.391,0,0,0-.734.188,1.367,1.367,0,0,0-.495.522q0,.13.007.222t.007.188V0H37.286V-4.389a2.076,2.076,0,0,0-.273-1.225.965.965,0,0,0-.819-.358,1.546,1.546,0,0,0-.706.154,1.355,1.355,0,0,0-.5.433V0H33V-7.385ZM48.294.143A3.323,3.323,0,0,1,45.715-.87a3.715,3.715,0,0,1-.928-2.611v-.273a4.043,4.043,0,0,1,.9-2.716,3.063,3.063,0,0,1,2.478-1.051,2.867,2.867,0,0,1,2.283.911,3.6,3.6,0,0,1,.8,2.454v1.031h-4.4l-.02.041a2,2,0,0,0,.461,1.229,1.543,1.543,0,0,0,1.225.471,4.1,4.1,0,0,0,1.136-.137,4.637,4.637,0,0,0,.966-.416L51.147-.71a3.7,3.7,0,0,1-1.2.607A5.327,5.327,0,0,1,48.294.143Zm-.13-6.129a1.107,1.107,0,0,0-.925.413,2.071,2.071,0,0,0-.392,1.1l.014.034h2.43v-.15a1.725,1.725,0,0,0-.266-1.02A.985.985,0,0,0,48.165-5.986Zm6.061-1.4.089,1.058a2.7,2.7,0,0,1,.908-.88,2.356,2.356,0,0,1,1.208-.314,2.2,2.2,0,0,1,1.747.72,3.414,3.414,0,0,1,.628,2.276V0h-2V-4.518a1.768,1.768,0,0,0-.276-1.123,1.019,1.019,0,0,0-.829-.331,1.74,1.74,0,0,0-.781.167,1.526,1.526,0,0,0-.556.461V0H52.369V-7.385Zm8.456-1.809v1.809h1.249v1.4H62.682v3.761a.858.858,0,0,0,.181.614.635.635,0,0,0,.474.184,1.9,1.9,0,0,0,.273-.017,2.3,2.3,0,0,0,.266-.058l.164,1.44a4.034,4.034,0,0,1-.584.154,3.479,3.479,0,0,1-.618.051,2.124,2.124,0,0,1-1.587-.566,2.484,2.484,0,0,1-.556-1.8V-5.986H59.617v-1.4H60.7V-9.193Zm2.17,5.433a3.963,3.963,0,0,1,.921-2.706,3.212,3.212,0,0,1,2.553-1.054A3.246,3.246,0,0,1,70.892-6.47a3.942,3.942,0,0,1,.928,2.71v.143A3.948,3.948,0,0,1,70.9-.9,3.232,3.232,0,0,1,68.34.143,3.241,3.241,0,0,1,65.777-.9a3.948,3.948,0,0,1-.925-2.713Zm1.986.143A3.213,3.213,0,0,0,67.193-2a1.225,1.225,0,0,0,1.147.611A1.213,1.213,0,0,0,69.469-2a3.191,3.191,0,0,0,.358-1.618v-.143a3.159,3.159,0,0,0-.362-1.6,1.224,1.224,0,0,0-1.14-.621,1.209,1.209,0,0,0-1.13.624,3.187,3.187,0,0,0-.358,1.6Zm10.2,1.57a.688.688,0,0,0-.317-.563,3.224,3.224,0,0,0-1.177-.413,4.7,4.7,0,0,1-1.969-.785,1.714,1.714,0,0,1-.672-1.426,2.035,2.035,0,0,1,.805-1.618,3.247,3.247,0,0,1,2.143-.669,3.5,3.5,0,0,1,2.242.669A1.954,1.954,0,0,1,78.9-5.187l-.014.041H76.967a.967.967,0,0,0-.287-.723,1.134,1.134,0,0,0-.826-.28,1.128,1.128,0,0,0-.758.239.743.743,0,0,0-.28.587.663.663,0,0,0,.29.556,3.229,3.229,0,0,0,1.177.386,4.791,4.791,0,0,1,2.024.8,1.759,1.759,0,0,1,.665,1.457A1.949,1.949,0,0,1,78.12-.491a3.682,3.682,0,0,1-2.252.635A3.423,3.423,0,0,1,73.537-.6a2.089,2.089,0,0,1-.816-1.7l.014-.041h1.822a1.036,1.036,0,0,0,.389.86,1.606,1.606,0,0,0,.962.266,1.369,1.369,0,0,0,.843-.222A.72.72,0,0,0,77.042-2.048Z" transform="translate(-6281 -12877.355)"/>
    <path id="Trazado_204631" data-name="Trazado 204631" d="M8.368-3.29l.014.041A3.111,3.111,0,0,1,7.412-.758a3.952,3.952,0,0,1-2.751.9,3.81,3.81,0,0,1-2.887-1.15,4.125,4.125,0,0,1-1.1-2.972V-5.951A4.2,4.2,0,0,1,1.747-8.924a3.653,3.653,0,0,1,2.812-1.157A4.194,4.194,0,0,1,7.4-9.193a3.055,3.055,0,0,1,1,2.5l-.014.041H6.443a1.954,1.954,0,0,0-.461-1.423,1.921,1.921,0,0,0-1.423-.468,1.607,1.607,0,0,0-1.4.72,3.184,3.184,0,0,0-.5,1.86v1.986a3.091,3.091,0,0,0,.529,1.87,1.719,1.719,0,0,0,1.471.723A1.75,1.75,0,0,0,6-1.853a2.034,2.034,0,0,0,.44-1.437Zm.983-.471a3.963,3.963,0,0,1,.921-2.706,3.212,3.212,0,0,1,2.553-1.054A3.246,3.246,0,0,1,15.391-6.47a3.942,3.942,0,0,1,.928,2.71v.143A3.948,3.948,0,0,1,15.394-.9,3.232,3.232,0,0,1,12.838.143,3.241,3.241,0,0,1,10.275-.9,3.948,3.948,0,0,1,9.35-3.617Zm1.986.143A3.213,3.213,0,0,0,11.691-2a1.225,1.225,0,0,0,1.147.611A1.213,1.213,0,0,0,13.968-2a3.191,3.191,0,0,0,.358-1.618v-.143a3.159,3.159,0,0,0-.362-1.6,1.224,1.224,0,0,0-1.14-.621,1.209,1.209,0,0,0-1.13.624,3.187,3.187,0,0,0-.358,1.6Zm1.891-6.921h2.218l.014.041L13.568-8.722h-1.7ZM17.24-3.631a4.8,4.8,0,0,1,.754-2.819A2.449,2.449,0,0,1,20.12-7.521a2.068,2.068,0,0,1,1,.239,2.4,2.4,0,0,1,.778.683v-4.047h2V0H22.2l-.171-.908a2.469,2.469,0,0,1-.826.781,2.183,2.183,0,0,1-1.092.27,2.5,2.5,0,0,1-2.112-1,4.255,4.255,0,0,1-.754-2.634Zm1.986.143a3.008,3.008,0,0,0,.328,1.525,1.141,1.141,0,0,0,1.065.556,1.551,1.551,0,0,0,.751-.174,1.388,1.388,0,0,0,.526-.508V-5.235a1.534,1.534,0,0,0-.522-.543,1.389,1.389,0,0,0-.741-.195,1.125,1.125,0,0,0-1.068.648,3.664,3.664,0,0,0-.338,1.693ZM27.532,0H25.54V-7.385h1.993Zm0-9.152H25.54v-1.495h1.993Zm1.345,5.522a4.783,4.783,0,0,1,.758-2.819,2.458,2.458,0,0,1,2.129-1.072,2.1,2.1,0,0,1,1.092.28,2.451,2.451,0,0,1,.805.8l.157-.942h1.713V-.034a2.745,2.745,0,0,1-.942,2.228,3.977,3.977,0,0,1-2.628.788,5.006,5.006,0,0,1-1.188-.154,5.515,5.515,0,0,1-1.16-.42L29.949.921a4.574,4.574,0,0,0,.945.331,4.684,4.684,0,0,0,1.054.113,1.784,1.784,0,0,0,1.2-.341,1.351,1.351,0,0,0,.386-1.065V-.71a2.229,2.229,0,0,1-.771.635A2.274,2.274,0,0,1,31.75.143a2.506,2.506,0,0,1-2.116-1,4.241,4.241,0,0,1-.758-2.634Zm1.993.143a3.034,3.034,0,0,0,.324,1.525,1.133,1.133,0,0,0,1.061.556,1.645,1.645,0,0,0,.775-.167,1.277,1.277,0,0,0,.508-.488v-3.2a1.362,1.362,0,0,0-.508-.526,1.49,1.49,0,0,0-.761-.184,1.118,1.118,0,0,0-1.065.648,3.7,3.7,0,0,0-.334,1.693Zm5.883-.273a3.963,3.963,0,0,1,.921-2.706,3.212,3.212,0,0,1,2.553-1.054A3.246,3.246,0,0,1,42.793-6.47a3.942,3.942,0,0,1,.928,2.71v.143A3.948,3.948,0,0,1,42.8-.9,3.232,3.232,0,0,1,40.241.143,3.241,3.241,0,0,1,37.678-.9a3.948,3.948,0,0,1-.925-2.713Zm1.986.143A3.213,3.213,0,0,0,39.094-2a1.225,1.225,0,0,0,1.147.611A1.213,1.213,0,0,0,41.37-2a3.191,3.191,0,0,0,.358-1.618v-.143a3.159,3.159,0,0,0-.362-1.6,1.224,1.224,0,0,0-1.14-.621,1.209,1.209,0,0,0-1.13.624,3.187,3.187,0,0,0-.358,1.6Z" transform="translate(-6129 -12877.355)"/>
    <path id="Trazado_204632" data-name="Trazado 204632" d="M6.095-2.143H2.873L2.2,0H.123L3.474-9.937H5.515L8.852,0H6.77ZM3.365-3.706H5.61l-1.1-3.5H4.47Zm1.488-9.03H7.071l.014.041L5.194-10.92h-1.7Zm8.688,7.064-.73-.02a1.327,1.327,0,0,0-.73.184,1.168,1.168,0,0,0-.437.519V0H9.658V-7.385h1.85L11.6-6.293a2.33,2.33,0,0,1,.672-.9,1.5,1.5,0,0,1,.952-.324A1.49,1.49,0,0,1,13.5-7.5q.126.024.256.058ZM17.65.143A3.323,3.323,0,0,1,15.07-.87a3.715,3.715,0,0,1-.928-2.611v-.273a4.043,4.043,0,0,1,.9-2.716A3.063,3.063,0,0,1,17.52-7.521,2.867,2.867,0,0,1,19.8-6.61a3.6,3.6,0,0,1,.8,2.454v1.031H16.2l-.02.041a2,2,0,0,0,.461,1.229,1.543,1.543,0,0,0,1.225.471A4.1,4.1,0,0,0,19-1.522a4.637,4.637,0,0,0,.966-.416L20.5-.71A3.7,3.7,0,0,1,19.3-.1,5.327,5.327,0,0,1,17.65.143Zm-.13-6.129a1.107,1.107,0,0,0-.925.413,2.071,2.071,0,0,0-.392,1.1l.014.034h2.43v-.15a1.725,1.725,0,0,0-.266-1.02A.985.985,0,0,0,17.52-5.986ZM26.113,0a4.192,4.192,0,0,1-.188-.532,3.7,3.7,0,0,1-.113-.573A2.732,2.732,0,0,1,25-.212a2.036,2.036,0,0,1-1.2.355,2.494,2.494,0,0,1-1.788-.6,2.14,2.14,0,0,1-.628-1.628,1.947,1.947,0,0,1,.836-1.682,4.175,4.175,0,0,1,2.44-.6h1.119v-.587a1.149,1.149,0,0,0-.28-.826,1.1,1.1,0,0,0-.833-.293,1.083,1.083,0,0,0-.747.235.822.822,0,0,0-.263.645H21.738l-.014-.041a1.873,1.873,0,0,1,.816-1.614A3.543,3.543,0,0,1,24.8-7.521a3.306,3.306,0,0,1,2.153.669,2.33,2.33,0,0,1,.822,1.918v3.051a5.77,5.77,0,0,0,.078.976A4.9,4.9,0,0,0,28.1,0ZM24.291-1.331a1.7,1.7,0,0,0,.928-.259,1.4,1.4,0,0,0,.56-.6V-3.235H24.659a1.327,1.327,0,0,0-.959.314,1.032,1.032,0,0,0-.324.771.77.77,0,0,0,.242.6A.959.959,0,0,0,24.291-1.331Z" transform="translate(-6013 -12877.355)"/>
    <path id="Trazado_204633" data-name="Trazado 204633" d="M6.723-4.129H2.907V0H.915V-9.937h6.5V-8.4H2.907v2.737H6.723ZM11.6.143A3.323,3.323,0,0,1,9.016-.87a3.715,3.715,0,0,1-.928-2.611v-.273a4.043,4.043,0,0,1,.9-2.716,3.063,3.063,0,0,1,2.478-1.051,2.867,2.867,0,0,1,2.283.911,3.6,3.6,0,0,1,.8,2.454v1.031h-4.4l-.02.041a2,2,0,0,0,.461,1.229,1.543,1.543,0,0,0,1.225.471,4.1,4.1,0,0,0,1.136-.137,4.637,4.637,0,0,0,.966-.416L14.449-.71a3.7,3.7,0,0,1-1.2.607A5.327,5.327,0,0,1,11.6.143Zm-.13-6.129a1.107,1.107,0,0,0-.925.413,2.071,2.071,0,0,0-.392,1.1l.014.034h2.43v-.15a1.725,1.725,0,0,0-.266-1.02A.985.985,0,0,0,11.466-5.986Zm7.323,4.6a1.109,1.109,0,0,0,.826-.311,1.128,1.128,0,0,0,.307-.829h1.815l.014.041a2.311,2.311,0,0,1-.833,1.873,3.114,3.114,0,0,1-2.129.754A3.147,3.147,0,0,1,16.257-.9a3.982,3.982,0,0,1-.894-2.679v-.2a4.008,4.008,0,0,1,.891-2.679,3.119,3.119,0,0,1,2.522-1.054,3.045,3.045,0,0,1,2.177.778,2.6,2.6,0,0,1,.8,2.048l-.014.041H19.922a1.474,1.474,0,0,0-.3-.952,1.02,1.02,0,0,0-.843-.379,1.137,1.137,0,0,0-1.1.618,3.387,3.387,0,0,0-.324,1.58v.2a3.375,3.375,0,0,0,.324,1.59A1.153,1.153,0,0,0,18.789-1.385ZM24.857-6.45a2.537,2.537,0,0,1,.853-.788,2.249,2.249,0,0,1,1.119-.283,2.261,2.261,0,0,1,1.812.768A3.583,3.583,0,0,1,29.3-4.382V0H27.307V-4.4a2.041,2.041,0,0,0-.276-1.218.982.982,0,0,0-.829-.358,1.984,1.984,0,0,0-.8.147,1.372,1.372,0,0,0-.549.42V0H22.864V-10.647h1.993ZM35.156,0a4.192,4.192,0,0,1-.188-.532,3.7,3.7,0,0,1-.113-.573,2.732,2.732,0,0,1-.812.894,2.036,2.036,0,0,1-1.2.355,2.494,2.494,0,0,1-1.788-.6,2.14,2.14,0,0,1-.628-1.628,1.947,1.947,0,0,1,.836-1.682,4.175,4.175,0,0,1,2.44-.6h1.119v-.587a1.149,1.149,0,0,0-.28-.826,1.1,1.1,0,0,0-.833-.293,1.083,1.083,0,0,0-.747.235.822.822,0,0,0-.263.645H30.781l-.014-.041a1.873,1.873,0,0,1,.816-1.614,3.543,3.543,0,0,1,2.256-.679,3.306,3.306,0,0,1,2.153.669,2.33,2.33,0,0,1,.822,1.918v3.051a5.77,5.77,0,0,0,.078.976A4.9,4.9,0,0,0,37.142,0ZM33.334-1.331a1.7,1.7,0,0,0,.928-.259,1.4,1.4,0,0,0,.56-.6V-3.235H33.7a1.327,1.327,0,0,0-.959.314,1.032,1.032,0,0,0-.324.771.77.77,0,0,0,.242.6A.959.959,0,0,0,33.334-1.331Zm8.149-2.3a4.8,4.8,0,0,1,.754-2.819,2.449,2.449,0,0,1,2.126-1.072,2.068,2.068,0,0,1,1,.239,2.4,2.4,0,0,1,.778.683v-4.047h2V0h-1.7l-.171-.908a2.469,2.469,0,0,1-.826.781,2.183,2.183,0,0,1-1.092.27,2.5,2.5,0,0,1-2.112-1,4.255,4.255,0,0,1-.754-2.634Zm1.986.143A3.008,3.008,0,0,0,43.8-1.962a1.141,1.141,0,0,0,1.065.556,1.551,1.551,0,0,0,.751-.174,1.388,1.388,0,0,0,.526-.508V-5.235a1.534,1.534,0,0,0-.522-.543,1.389,1.389,0,0,0-.741-.195,1.125,1.125,0,0,0-1.068.648,3.664,3.664,0,0,0-.338,1.693ZM52.881.143A3.323,3.323,0,0,1,50.3-.87a3.715,3.715,0,0,1-.928-2.611v-.273a4.043,4.043,0,0,1,.9-2.716,3.063,3.063,0,0,1,2.478-1.051,2.867,2.867,0,0,1,2.283.911,3.6,3.6,0,0,1,.8,2.454v1.031h-4.4l-.02.041a2,2,0,0,0,.461,1.229,1.543,1.543,0,0,0,1.225.471,4.1,4.1,0,0,0,1.136-.137,4.637,4.637,0,0,0,.966-.416L55.734-.71a3.7,3.7,0,0,1-1.2.607A5.327,5.327,0,0,1,52.881.143Zm-.13-6.129a1.107,1.107,0,0,0-.925.413,2.071,2.071,0,0,0-.392,1.1l.014.034h2.43v-.15a1.725,1.725,0,0,0-.266-1.02A.985.985,0,0,0,52.751-5.986ZM63.671.143A3.323,3.323,0,0,1,61.091-.87a3.715,3.715,0,0,1-.928-2.611v-.273a4.043,4.043,0,0,1,.9-2.716,3.063,3.063,0,0,1,2.478-1.051,2.867,2.867,0,0,1,2.283.911,3.6,3.6,0,0,1,.8,2.454v1.031h-4.4l-.02.041a2,2,0,0,0,.461,1.229,1.543,1.543,0,0,0,1.225.471,4.1,4.1,0,0,0,1.136-.137,4.637,4.637,0,0,0,.966-.416L66.524-.71a3.7,3.7,0,0,1-1.2.607A5.327,5.327,0,0,1,63.671.143Zm-.13-6.129a1.107,1.107,0,0,0-.925.413,2.071,2.071,0,0,0-.392,1.1l.014.034h2.43v-.15a1.725,1.725,0,0,0-.266-1.02A.985.985,0,0,0,63.542-5.986ZM69.875,0H67.882V-10.647h1.993Zm5.992,0a4.193,4.193,0,0,1-.188-.532,3.7,3.7,0,0,1-.113-.573,2.732,2.732,0,0,1-.812.894,2.036,2.036,0,0,1-1.2.355,2.494,2.494,0,0,1-1.788-.6,2.14,2.14,0,0,1-.628-1.628,1.947,1.947,0,0,1,.836-1.682,4.175,4.175,0,0,1,2.44-.6h1.119v-.587a1.149,1.149,0,0,0-.28-.826,1.1,1.1,0,0,0-.833-.293,1.083,1.083,0,0,0-.747.235.822.822,0,0,0-.263.645H71.493l-.014-.041a1.873,1.873,0,0,1,.816-1.614,3.543,3.543,0,0,1,2.256-.679,3.306,3.306,0,0,1,2.153.669,2.33,2.33,0,0,1,.822,1.918v3.051a5.77,5.77,0,0,0,.078.976A4.9,4.9,0,0,0,77.854,0ZM74.045-1.331a1.7,1.7,0,0,0,.928-.259,1.4,1.4,0,0,0,.56-.6V-3.235H74.414a1.327,1.327,0,0,0-.959.314,1.032,1.032,0,0,0-.324.771.77.77,0,0,0,.242.6A.958.958,0,0,0,74.045-1.331ZM85.682-3.488a4.32,4.32,0,0,1-.737,2.641,2.493,2.493,0,0,1-2.129.99,2.251,2.251,0,0,1-1.13-.273,2.334,2.334,0,0,1-.816-.8L80.707,0H79.021V-10.647h1.986V-6.6a2.256,2.256,0,0,1,.768-.683A2.146,2.146,0,0,1,82.8-7.521,2.446,2.446,0,0,1,84.945-6.46a4.872,4.872,0,0,1,.737,2.829ZM83.7-3.631a3.845,3.845,0,0,0-.317-1.71A1.114,1.114,0,0,0,82.3-5.972a1.488,1.488,0,0,0-.785.195,1.348,1.348,0,0,0-.505.556V-2.1a1.266,1.266,0,0,0,.508.512,1.637,1.637,0,0,0,.8.177,1.133,1.133,0,0,0,1.078-.543A3.16,3.16,0,0,0,83.7-3.488Zm2.907-.13a3.963,3.963,0,0,1,.921-2.706,3.212,3.212,0,0,1,2.553-1.054A3.246,3.246,0,0,1,92.644-6.47a3.942,3.942,0,0,1,.928,2.71v.143A3.948,3.948,0,0,1,92.647-.9,3.232,3.232,0,0,1,90.091.143,3.241,3.241,0,0,1,87.528-.9,3.948,3.948,0,0,1,86.6-3.617Zm1.986.143A3.213,3.213,0,0,0,88.945-2a1.225,1.225,0,0,0,1.147.611A1.213,1.213,0,0,0,91.221-2a3.191,3.191,0,0,0,.358-1.618v-.143a3.159,3.159,0,0,0-.362-1.6,1.224,1.224,0,0,0-1.14-.621,1.209,1.209,0,0,0-1.13.624,3.187,3.187,0,0,0-.358,1.6ZM98.684-5.672l-.73-.02a1.327,1.327,0,0,0-.73.184,1.168,1.168,0,0,0-.437.519V0H94.8V-7.385h1.85l.089,1.092a2.33,2.33,0,0,1,.672-.9,1.5,1.5,0,0,1,.952-.324,1.49,1.49,0,0,1,.276.024q.126.024.256.058ZM104.076,0a4.191,4.191,0,0,1-.188-.532,3.7,3.7,0,0,1-.113-.573,2.732,2.732,0,0,1-.812.894,2.036,2.036,0,0,1-1.2.355,2.494,2.494,0,0,1-1.788-.6,2.14,2.14,0,0,1-.628-1.628,1.947,1.947,0,0,1,.836-1.682,4.175,4.175,0,0,1,2.44-.6h1.119v-.587a1.149,1.149,0,0,0-.28-.826,1.1,1.1,0,0,0-.833-.293,1.083,1.083,0,0,0-.747.235.822.822,0,0,0-.263.645H99.7l-.014-.041a1.873,1.873,0,0,1,.816-1.614,3.543,3.543,0,0,1,2.256-.679,3.306,3.306,0,0,1,2.153.669,2.33,2.33,0,0,1,.822,1.918v3.051a5.77,5.77,0,0,0,.078.976,4.9,4.9,0,0,0,.249.908Zm-1.822-1.331a1.7,1.7,0,0,0,.928-.259,1.4,1.4,0,0,0,.56-.6V-3.235h-1.119a1.327,1.327,0,0,0-.959.314,1.032,1.032,0,0,0-.324.771.77.77,0,0,0,.242.6A.958.958,0,0,0,102.254-1.331Zm8.06-.055a1.109,1.109,0,0,0,.826-.311,1.128,1.128,0,0,0,.307-.829h1.815l.014.041a2.311,2.311,0,0,1-.833,1.873,3.114,3.114,0,0,1-2.129.754A3.147,3.147,0,0,1,107.782-.9a3.982,3.982,0,0,1-.894-2.679v-.2a4.008,4.008,0,0,1,.891-2.679A3.119,3.119,0,0,1,110.3-7.521a3.045,3.045,0,0,1,2.177.778,2.6,2.6,0,0,1,.8,2.048l-.014.041h-1.815a1.474,1.474,0,0,0-.3-.952,1.02,1.02,0,0,0-.843-.379,1.137,1.137,0,0,0-1.1.618,3.387,3.387,0,0,0-.324,1.58v.2a3.375,3.375,0,0,0,.324,1.59A1.153,1.153,0,0,0,110.314-1.385ZM116.532,0h-1.993V-7.385h1.993Zm0-9.152h-1.993v-1.495h1.993Zm1.331,5.392a3.963,3.963,0,0,1,.921-2.706,3.212,3.212,0,0,1,2.553-1.054A3.246,3.246,0,0,1,123.9-6.47a3.942,3.942,0,0,1,.928,2.71v.143A3.948,3.948,0,0,1,123.906-.9,3.232,3.232,0,0,1,121.35.143,3.241,3.241,0,0,1,118.787-.9a3.948,3.948,0,0,1-.925-2.713Zm1.986.143A3.213,3.213,0,0,0,120.2-2a1.225,1.225,0,0,0,1.147.611A1.213,1.213,0,0,0,122.48-2a3.191,3.191,0,0,0,.358-1.618v-.143a3.159,3.159,0,0,0-.362-1.6,1.224,1.224,0,0,0-1.14-.621,1.209,1.209,0,0,0-1.13.624,3.187,3.187,0,0,0-.358,1.6Zm1.891-6.921h2.218l.014.041-1.891,1.775h-1.7Zm6.143,3.153.089,1.058a2.7,2.7,0,0,1,.908-.88,2.356,2.356,0,0,1,1.208-.314,2.2,2.2,0,0,1,1.747.72,3.414,3.414,0,0,1,.628,2.276V0h-2V-4.518a1.768,1.768,0,0,0-.276-1.123,1.019,1.019,0,0,0-.829-.331,1.74,1.74,0,0,0-.781.167,1.525,1.525,0,0,0-.556.461V0h-1.993V-7.385Z" transform="translate(-5924 -12877.355)"/>
    <path id="Trazado_204634" data-name="Trazado 204634" d="M4.3-2.7l.123.546h.041l.116-.526L6.743-9.937h2.1L5.467,0H3.419L.048-9.937h2.1ZM12.558.143A3.323,3.323,0,0,1,9.978-.87,3.715,3.715,0,0,1,9.05-3.481v-.273a4.043,4.043,0,0,1,.9-2.716,3.063,3.063,0,0,1,2.478-1.051,2.867,2.867,0,0,1,2.283.911,3.6,3.6,0,0,1,.8,2.454v1.031H11.1l-.02.041a2,2,0,0,0,.461,1.229,1.543,1.543,0,0,0,1.225.471,4.1,4.1,0,0,0,1.136-.137,4.637,4.637,0,0,0,.966-.416L15.411-.71a3.7,3.7,0,0,1-1.2.607A5.327,5.327,0,0,1,12.558.143Zm-.13-6.129a1.107,1.107,0,0,0-.925.413,2.071,2.071,0,0,0-.392,1.1l.014.034h2.43v-.15a1.725,1.725,0,0,0-.266-1.02A.985.985,0,0,0,12.429-5.986Zm8.122.314-.73-.02a1.327,1.327,0,0,0-.73.184,1.168,1.168,0,0,0-.437.519V0H16.667V-7.385h1.85l.089,1.092a2.33,2.33,0,0,1,.672-.9,1.5,1.5,0,0,1,.952-.324,1.49,1.49,0,0,1,.276.024q.126.024.256.058Zm5.03,3.624a.688.688,0,0,0-.317-.563,3.224,3.224,0,0,0-1.177-.413,4.7,4.7,0,0,1-1.969-.785,1.714,1.714,0,0,1-.672-1.426,2.035,2.035,0,0,1,.805-1.618,3.247,3.247,0,0,1,2.143-.669,3.5,3.5,0,0,1,2.242.669,1.954,1.954,0,0,1,.809,1.665l-.014.041H25.505a.966.966,0,0,0-.287-.723,1.134,1.134,0,0,0-.826-.28,1.128,1.128,0,0,0-.758.239.743.743,0,0,0-.28.587.663.663,0,0,0,.29.556,3.229,3.229,0,0,0,1.177.386,4.791,4.791,0,0,1,2.024.8,1.759,1.759,0,0,1,.665,1.457,1.949,1.949,0,0,1-.853,1.631,3.682,3.682,0,0,1-2.252.635A3.423,3.423,0,0,1,22.076-.6a2.089,2.089,0,0,1-.816-1.7l.014-.041H23.1a1.036,1.036,0,0,0,.389.86,1.606,1.606,0,0,0,.962.266,1.369,1.369,0,0,0,.843-.222A.72.72,0,0,0,25.58-2.048ZM30.89,0H28.9V-7.385H30.89Zm0-9.152H28.9v-1.495H30.89Zm1.331,5.392a3.963,3.963,0,0,1,.921-2.706A3.212,3.212,0,0,1,35.7-7.521,3.246,3.246,0,0,1,38.261-6.47a3.942,3.942,0,0,1,.928,2.71v.143A3.948,3.948,0,0,1,38.265-.9,3.232,3.232,0,0,1,35.709.143,3.241,3.241,0,0,1,33.146-.9a3.948,3.948,0,0,1-.925-2.713Zm1.986.143A3.213,3.213,0,0,0,34.562-2a1.225,1.225,0,0,0,1.147.611A1.213,1.213,0,0,0,36.838-2,3.191,3.191,0,0,0,37.2-3.617v-.143a3.159,3.159,0,0,0-.362-1.6,1.224,1.224,0,0,0-1.14-.621,1.209,1.209,0,0,0-1.13.624,3.187,3.187,0,0,0-.358,1.6ZM36.1-10.538h2.218l.014.041L36.439-8.722h-1.7Zm6.143,3.153.089,1.058a2.7,2.7,0,0,1,.908-.88,2.356,2.356,0,0,1,1.208-.314,2.2,2.2,0,0,1,1.747.72,3.414,3.414,0,0,1,.628,2.276V0h-2V-4.518a1.768,1.768,0,0,0-.276-1.123,1.019,1.019,0,0,0-.829-.331,1.74,1.74,0,0,0-.781.167,1.526,1.526,0,0,0-.556.461V0H40.384V-7.385ZM54.457-2.751l.13.683h.041l.137-.683,1.215-4.634h2.082L55.549,0h-1.9L51.134-7.385h2.082ZM61.023,0H59.03V-7.385h1.993Zm0-9.152H59.03v-1.495h1.993Zm1.345,5.522a4.783,4.783,0,0,1,.758-2.819,2.458,2.458,0,0,1,2.129-1.072,2.1,2.1,0,0,1,1.092.28,2.451,2.451,0,0,1,.805.8l.157-.942h1.713V-.034a2.745,2.745,0,0,1-.942,2.228,3.977,3.977,0,0,1-2.628.788,5.006,5.006,0,0,1-1.188-.154,5.515,5.515,0,0,1-1.16-.42L63.439.921a4.573,4.573,0,0,0,.945.331,4.684,4.684,0,0,0,1.054.113,1.784,1.784,0,0,0,1.2-.341,1.351,1.351,0,0,0,.386-1.065V-.71a2.23,2.23,0,0,1-.771.635,2.274,2.274,0,0,1-1.017.218,2.506,2.506,0,0,1-2.116-1,4.241,4.241,0,0,1-.758-2.634Zm1.993.143a3.034,3.034,0,0,0,.324,1.525,1.133,1.133,0,0,0,1.061.556,1.645,1.645,0,0,0,.775-.167,1.277,1.277,0,0,0,.508-.488v-3.2a1.362,1.362,0,0,0-.508-.526,1.49,1.49,0,0,0-.761-.184,1.118,1.118,0,0,0-1.065.648,3.7,3.7,0,0,0-.334,1.693ZM73.752.143A3.323,3.323,0,0,1,71.172-.87a3.715,3.715,0,0,1-.928-2.611v-.273a4.043,4.043,0,0,1,.9-2.716,3.063,3.063,0,0,1,2.478-1.051,2.867,2.867,0,0,1,2.283.911,3.6,3.6,0,0,1,.8,2.454v1.031H72.3l-.02.041a2,2,0,0,0,.461,1.229,1.543,1.543,0,0,0,1.225.471A4.1,4.1,0,0,0,75.1-1.522a4.637,4.637,0,0,0,.966-.416L76.6-.71A3.7,3.7,0,0,1,75.4-.1,5.327,5.327,0,0,1,73.752.143Zm-.13-6.129a1.107,1.107,0,0,0-.925.413,2.071,2.071,0,0,0-.392,1.1l.014.034h2.43v-.15a1.725,1.725,0,0,0-.266-1.02A.985.985,0,0,0,73.622-5.986Zm6.061-1.4.089,1.058a2.7,2.7,0,0,1,.908-.88,2.356,2.356,0,0,1,1.208-.314,2.2,2.2,0,0,1,1.747.72,3.414,3.414,0,0,1,.628,2.276V0h-2V-4.518a1.768,1.768,0,0,0-.276-1.123,1.019,1.019,0,0,0-.829-.331,1.74,1.74,0,0,0-.781.167,1.526,1.526,0,0,0-.556.461V0H77.827V-7.385Zm8.456-1.809v1.809h1.249v1.4H88.139v3.761a.858.858,0,0,0,.181.614.635.635,0,0,0,.474.184,1.9,1.9,0,0,0,.273-.017,2.3,2.3,0,0,0,.266-.058L89.5-.061a4.035,4.035,0,0,1-.584.154A3.479,3.479,0,0,1,88.3.143a2.124,2.124,0,0,1-1.587-.566,2.484,2.484,0,0,1-.556-1.8V-5.986H85.075v-1.4h1.078V-9.193ZM93.818.143A3.323,3.323,0,0,1,91.238-.87a3.715,3.715,0,0,1-.928-2.611v-.273a4.043,4.043,0,0,1,.9-2.716,3.063,3.063,0,0,1,2.478-1.051,2.867,2.867,0,0,1,2.283.911,3.6,3.6,0,0,1,.8,2.454v1.031h-4.4l-.02.041A2,2,0,0,0,92.8-1.856a1.543,1.543,0,0,0,1.225.471,4.1,4.1,0,0,0,1.136-.137,4.637,4.637,0,0,0,.966-.416L96.671-.71a3.7,3.7,0,0,1-1.2.607A5.327,5.327,0,0,1,93.818.143Zm-.13-6.129a1.107,1.107,0,0,0-.925.413,2.071,2.071,0,0,0-.392,1.1l.014.034h2.43v-.15a1.725,1.725,0,0,0-.266-1.02A.985.985,0,0,0,93.688-5.986Z" transform="translate(-5738 -12877.355)"/>
    <path id="Trazado_204635" data-name="Trazado 204635" d="M2.365-3.3V0H.914V-8.7H4.246A3.221,3.221,0,0,1,6.5-7.952,2.521,2.521,0,0,1,7.316-6,2.517,2.517,0,0,1,6.5-4.034,3.238,3.238,0,0,1,4.246-3.3Zm0-1.165H4.246a1.591,1.591,0,0,0,1.212-.43,1.528,1.528,0,0,0,.406-1.093,1.571,1.571,0,0,0-.406-1.1,1.566,1.566,0,0,0-1.212-.442H2.365Zm9.406-.693-.621-.024A1.3,1.3,0,0,0,10.442-5,1.18,1.18,0,0,0,10-4.491V0H8.552V-6.462H9.878l.1.938A2.072,2.072,0,0,1,10.6-6.3a1.467,1.467,0,0,1,.887-.281,1.352,1.352,0,0,1,.245.021,1.788,1.788,0,0,1,.209.051Zm.687,1.863a3.509,3.509,0,0,1,.791-2.368,2.7,2.7,0,0,1,2.165-.923,2.723,2.723,0,0,1,2.183.923,3.509,3.509,0,0,1,.791,2.368v.125A3.5,3.5,0,0,1,17.6-.791a2.717,2.717,0,0,1-2.171.917,2.72,2.72,0,0,1-2.177-.92,3.506,3.506,0,0,1-.791-2.371Zm1.451.125a2.866,2.866,0,0,0,.37,1.541,1.257,1.257,0,0,0,1.147.591,1.26,1.26,0,0,0,1.138-.594,2.816,2.816,0,0,0,.379-1.538v-.125a2.81,2.81,0,0,0-.379-1.526,1.268,1.268,0,0,0-1.15-.6,1.243,1.243,0,0,0-1.132.6,2.845,2.845,0,0,0-.373,1.526Zm5.518.024a4.261,4.261,0,0,1,.663-2.493,2.144,2.144,0,0,1,1.863-.947,2.036,2.036,0,0,1,1.018.248,2.151,2.151,0,0,1,.744.714l.143-.842h1.206V0a2.439,2.439,0,0,1-.77,1.929,3.194,3.194,0,0,1-2.186.681,4.279,4.279,0,0,1-1.018-.134A4.73,4.73,0,0,1,20.1,2.12L20.334.979a3.677,3.677,0,0,0,.827.29,4.178,4.178,0,0,0,.935.1,1.658,1.658,0,0,0,1.153-.337A1.347,1.347,0,0,0,23.613,0V-.663a2.03,2.03,0,0,1-.72.588,2.168,2.168,0,0,1-.953.2A2.2,2.2,0,0,1,20.09-.741a3.643,3.643,0,0,1-.663-2.275Zm1.445.125a2.585,2.585,0,0,0,.346,1.427,1.21,1.21,0,0,0,1.093.532,1.487,1.487,0,0,0,.785-.194,1.433,1.433,0,0,0,.517-.558V-4.64a1.551,1.551,0,0,0-.523-.552,1.417,1.417,0,0,0-.767-.2,1.175,1.175,0,0,0-1.1.624,3.293,3.293,0,0,0-.352,1.627ZM29.8-5.154l-.621-.024A1.3,1.3,0,0,0,28.471-5a1.18,1.18,0,0,0-.439.508V0H26.581V-6.462h1.326l.1.938a2.072,2.072,0,0,1,.63-.776,1.467,1.467,0,0,1,.887-.281,1.352,1.352,0,0,1,.245.021,1.788,1.788,0,0,1,.209.051ZM34.769,0q-.078-.245-.128-.478a3.415,3.415,0,0,1-.069-.466,2.489,2.489,0,0,1-.782.761A2.013,2.013,0,0,1,32.7.125a2.148,2.148,0,0,1-1.55-.52,1.887,1.887,0,0,1-.54-1.427,1.686,1.686,0,0,1,.741-1.46A3.576,3.576,0,0,1,33.431-3.8H34.56v-.567a1.055,1.055,0,0,0-.3-.794,1.182,1.182,0,0,0-.857-.287,1.22,1.22,0,0,0-.788.236.75.75,0,0,0-.293.612l-1.4.006-.006-.036a1.6,1.6,0,0,1,.684-1.356,2.9,2.9,0,0,1,1.89-.591,2.764,2.764,0,0,1,1.821.573,2.018,2.018,0,0,1,.693,1.648v2.872a5.3,5.3,0,0,0,.054.767,4.075,4.075,0,0,0,.173.72ZM32.995-1.039a1.814,1.814,0,0,0,.982-.275,1.383,1.383,0,0,0,.582-.627V-2.9H33.407a1.455,1.455,0,0,0-.991.314.952.952,0,0,0-.358.738.752.752,0,0,0,.242.588A1,1,0,0,0,32.995-1.039Zm5.858-5.423.078.842a2.19,2.19,0,0,1,.794-.711,2.343,2.343,0,0,1,1.1-.251,1.993,1.993,0,0,1,1.087.287,1.732,1.732,0,0,1,.681.86,2.264,2.264,0,0,1,.788-.842,2.126,2.126,0,0,1,1.147-.3A1.9,1.9,0,0,1,46.07-5.9a3.153,3.153,0,0,1,.564,2.051V0H45.184V-3.858A1.9,1.9,0,0,0,44.9-5.049a1.04,1.04,0,0,0-.851-.343,1.245,1.245,0,0,0-.788.251,1.4,1.4,0,0,0-.466.675q0,.09.006.155t.006.125V0H41.356V-3.858a1.882,1.882,0,0,0-.29-1.176,1.03,1.03,0,0,0-.851-.358,1.528,1.528,0,0,0-.749.17,1.255,1.255,0,0,0-.487.481V0H37.528V-6.462ZM52.057,0q-.078-.245-.128-.478a3.415,3.415,0,0,1-.069-.466,2.489,2.489,0,0,1-.782.761,2.013,2.013,0,0,1-1.093.308,2.148,2.148,0,0,1-1.55-.52,1.887,1.887,0,0,1-.54-1.427,1.686,1.686,0,0,1,.741-1.46A3.576,3.576,0,0,1,50.72-3.8h1.129v-.567a1.055,1.055,0,0,0-.3-.794,1.182,1.182,0,0,0-.857-.287,1.22,1.22,0,0,0-.788.236.75.75,0,0,0-.293.612l-1.4.006-.006-.036A1.6,1.6,0,0,1,48.9-5.99a2.9,2.9,0,0,1,1.89-.591,2.764,2.764,0,0,1,1.821.573A2.018,2.018,0,0,1,53.3-4.36v2.872a5.3,5.3,0,0,0,.054.767,4.075,4.075,0,0,0,.173.72ZM50.284-1.039a1.814,1.814,0,0,0,.982-.275,1.383,1.383,0,0,0,.582-.627V-2.9H50.7a1.455,1.455,0,0,0-.991.314.952.952,0,0,0-.358.738.752.752,0,0,0,.242.588A1,1,0,0,0,50.284-1.039Zm8.164-.729a.669.669,0,0,0-.284-.552,2.934,2.934,0,0,0-1.072-.391A4.36,4.36,0,0,1,55.348-3.4a1.447,1.447,0,0,1-.6-1.218A1.755,1.755,0,0,1,55.431-6a2.721,2.721,0,0,1,1.809-.576,2.806,2.806,0,0,1,1.866.594,1.721,1.721,0,0,1,.678,1.43l-.012.036H58.382a.905.905,0,0,0-.311-.684,1.168,1.168,0,0,0-.83-.29,1.186,1.186,0,0,0-.8.239.747.747,0,0,0-.275.585.629.629,0,0,0,.257.526,2.815,2.815,0,0,0,1.057.352,4.378,4.378,0,0,1,1.792.7,1.482,1.482,0,0,1,.6,1.239,1.717,1.717,0,0,1-.72,1.424,3.031,3.031,0,0,1-1.9.552A2.894,2.894,0,0,1,55.27-.52,1.822,1.822,0,0,1,54.577-2l.012-.036h1.35a.968.968,0,0,0,.406.818,1.632,1.632,0,0,0,.932.257,1.46,1.46,0,0,0,.863-.221A.687.687,0,0,0,58.447-1.768Z" transform="translate(-6305.047 -12842.355)" fill="#0c1d30"/>
    <path id="Trazado_204636" data-name="Trazado 204636" d="M2.365-3.3V0H.914V-8.7H4.246A3.221,3.221,0,0,1,6.5-7.952,2.521,2.521,0,0,1,7.316-6,2.517,2.517,0,0,1,6.5-4.034,3.238,3.238,0,0,1,4.246-3.3Zm0-1.165H4.246a1.591,1.591,0,0,0,1.212-.43,1.528,1.528,0,0,0,.406-1.093,1.571,1.571,0,0,0-.406-1.1,1.566,1.566,0,0,0-1.212-.442H2.365Zm9.406-.693-.621-.024A1.3,1.3,0,0,0,10.442-5,1.18,1.18,0,0,0,10-4.491V0H8.552V-6.462H9.878l.1.938A2.072,2.072,0,0,1,10.6-6.3a1.467,1.467,0,0,1,.887-.281,1.352,1.352,0,0,1,.245.021,1.788,1.788,0,0,1,.209.051Zm.687,1.863a3.509,3.509,0,0,1,.791-2.368,2.7,2.7,0,0,1,2.165-.923,2.723,2.723,0,0,1,2.183.923,3.509,3.509,0,0,1,.791,2.368v.125A3.5,3.5,0,0,1,17.6-.791a2.717,2.717,0,0,1-2.171.917,2.72,2.72,0,0,1-2.177-.92,3.506,3.506,0,0,1-.791-2.371Zm1.451.125a2.866,2.866,0,0,0,.37,1.541,1.257,1.257,0,0,0,1.147.591,1.26,1.26,0,0,0,1.138-.594,2.816,2.816,0,0,0,.379-1.538v-.125a2.81,2.81,0,0,0-.379-1.526,1.268,1.268,0,0,0-1.15-.6,1.243,1.243,0,0,0-1.132.6,2.845,2.845,0,0,0-.373,1.526Zm8.379,2.132a1.206,1.206,0,0,0,.839-.311,1.016,1.016,0,0,0,.343-.788h1.314L24.8-2.1a1.948,1.948,0,0,1-.72,1.565,2.609,2.609,0,0,1-1.789.657A2.633,2.633,0,0,1,20.131-.8a3.542,3.542,0,0,1-.758-2.326v-.209a3.545,3.545,0,0,1,.758-2.323,2.622,2.622,0,0,1,2.15-.926,2.534,2.534,0,0,1,1.833.678A2.213,2.213,0,0,1,24.8-4.18l-.012.036H23.47a1.311,1.311,0,0,0-.328-.9,1.1,1.1,0,0,0-.86-.37,1.184,1.184,0,0,0-1.117.6,2.97,2.97,0,0,0-.34,1.484v.209a3,3,0,0,0,.337,1.5A1.191,1.191,0,0,0,22.287-1.033ZM28.755.125a2.813,2.813,0,0,1-2.213-.893,3.344,3.344,0,0,1-.8-2.314V-3.32a3.457,3.457,0,0,1,.8-2.344A2.576,2.576,0,0,1,28.6-6.581a2.418,2.418,0,0,1,1.971.8,3.248,3.248,0,0,1,.669,2.147v.782h-4l-.012.03a2.117,2.117,0,0,0,.418,1.29,1.426,1.426,0,0,0,1.188.5,3.27,3.27,0,0,0,1.024-.143,2.924,2.924,0,0,0,.8-.412l.472.95a3.075,3.075,0,0,1-.979.543A4.1,4.1,0,0,1,28.755.125ZM28.6-5.417a1.121,1.121,0,0,0-.908.409,2.027,2.027,0,0,0-.424,1.066l.012.03h2.526v-.113a1.631,1.631,0,0,0-.29-1.006A1.072,1.072,0,0,0,28.6-5.417Zm3.547,2.275a4.261,4.261,0,0,1,.663-2.493,2.144,2.144,0,0,1,1.863-.947,2.038,2.038,0,0,1,.941.212,2.129,2.129,0,0,1,.72.606V-9.316h1.451V0H36.608l-.173-.818a2.155,2.155,0,0,1-.752.7,2.093,2.093,0,0,1-1.021.242A2.2,2.2,0,0,1,32.81-.741a3.643,3.643,0,0,1-.663-2.275Zm1.451.125a2.6,2.6,0,0,0,.343,1.427,1.2,1.2,0,0,0,1.09.532,1.457,1.457,0,0,0,.779-.2,1.5,1.5,0,0,0,.523-.561V-4.634a1.528,1.528,0,0,0-.526-.558,1.421,1.421,0,0,0-.764-.2,1.17,1.17,0,0,0-1.093.624A3.293,3.293,0,0,0,33.6-3.141ZM40.89,0H39.439V-6.462H40.89Zm0-8.044H39.439V-9.316H40.89Zm2.95,1.583.078.842a2.19,2.19,0,0,1,.794-.711,2.343,2.343,0,0,1,1.1-.251,1.993,1.993,0,0,1,1.087.287,1.732,1.732,0,0,1,.681.86,2.264,2.264,0,0,1,.788-.842,2.126,2.126,0,0,1,1.147-.3,1.9,1.9,0,0,1,1.538.678,3.153,3.153,0,0,1,.564,2.051V0H50.17V-3.858a1.9,1.9,0,0,0-.284-1.191,1.04,1.04,0,0,0-.851-.343,1.245,1.245,0,0,0-.788.251,1.4,1.4,0,0,0-.466.675q0,.09.006.155t.006.125V0H46.342V-3.858a1.882,1.882,0,0,0-.29-1.176,1.03,1.03,0,0,0-.851-.358,1.528,1.528,0,0,0-.749.17,1.255,1.255,0,0,0-.487.481V0H42.514V-6.462ZM54.7,0H53.246V-6.462H54.7Zm0-8.044H53.246V-9.316H54.7ZM59.062.125A2.813,2.813,0,0,1,56.85-.767a3.344,3.344,0,0,1-.8-2.314V-3.32a3.457,3.457,0,0,1,.8-2.344,2.576,2.576,0,0,1,2.057-.917,2.418,2.418,0,0,1,1.971.8,3.248,3.248,0,0,1,.669,2.147v.782h-4l-.012.03a2.117,2.117,0,0,0,.418,1.29,1.426,1.426,0,0,0,1.188.5,3.27,3.27,0,0,0,1.024-.143,2.924,2.924,0,0,0,.8-.412l.472.95a3.075,3.075,0,0,1-.979.543A4.1,4.1,0,0,1,59.062.125Zm-.155-5.542A1.121,1.121,0,0,0,58-5.007a2.027,2.027,0,0,0-.424,1.066l.012.03h2.526v-.113a1.631,1.631,0,0,0-.29-1.006A1.072,1.072,0,0,0,58.907-5.417Zm5.13-1.045.084.932a2.311,2.311,0,0,1,.8-.773A2.127,2.127,0,0,1,66-6.581a2.018,2.018,0,0,1,1.574.621,2.822,2.822,0,0,1,.564,1.941V0H66.688V-4.007A1.561,1.561,0,0,0,66.4-5.076a1.147,1.147,0,0,0-.884-.317,1.733,1.733,0,0,0-.806.176,1.412,1.412,0,0,0-.543.487V0H62.711V-6.462Zm7.471-1.571v1.571h1.159v1.075H71.508v3.571a.779.779,0,0,0,.173.57.628.628,0,0,0,.46.17,1.283,1.283,0,0,0,.233-.021,1.416,1.416,0,0,0,.215-.057L72.744-.09a1.667,1.667,0,0,1-.439.158,2.416,2.416,0,0,1-.529.057,1.674,1.674,0,0,1-1.257-.469,2.044,2.044,0,0,1-.457-1.472V-5.387h-.985V-6.462h.985V-8.032Zm2.06,4.742a3.509,3.509,0,0,1,.791-2.368,2.7,2.7,0,0,1,2.165-.923,2.723,2.723,0,0,1,2.183.923A3.509,3.509,0,0,1,79.5-3.291v.125a3.5,3.5,0,0,1-.791,2.374,2.717,2.717,0,0,1-2.171.917,2.72,2.72,0,0,1-2.177-.92,3.506,3.506,0,0,1-.791-2.371Zm1.451.125a2.866,2.866,0,0,0,.37,1.541,1.257,1.257,0,0,0,1.147.591,1.26,1.26,0,0,0,1.138-.594,2.816,2.816,0,0,0,.379-1.538v-.125a2.81,2.81,0,0,0-.379-1.526,1.268,1.268,0,0,0-1.15-.6,1.243,1.243,0,0,0-1.132.6,2.845,2.845,0,0,0-.373,1.526Zm9.376,1.4a.669.669,0,0,0-.284-.552,2.934,2.934,0,0,0-1.072-.391A4.36,4.36,0,0,1,81.3-3.4a1.447,1.447,0,0,1-.6-1.218A1.755,1.755,0,0,1,81.379-6a2.721,2.721,0,0,1,1.809-.576,2.806,2.806,0,0,1,1.866.594,1.721,1.721,0,0,1,.678,1.43l-.012.036H84.33a.905.905,0,0,0-.311-.684,1.168,1.168,0,0,0-.83-.29,1.186,1.186,0,0,0-.8.239.747.747,0,0,0-.275.585.629.629,0,0,0,.257.526,2.815,2.815,0,0,0,1.057.352,4.378,4.378,0,0,1,1.792.7,1.482,1.482,0,0,1,.6,1.239A1.717,1.717,0,0,1,85.1-.427a3.031,3.031,0,0,1-1.9.552A2.894,2.894,0,0,1,81.218-.52,1.822,1.822,0,0,1,80.525-2l.012-.036h1.35a.968.968,0,0,0,.406.818,1.632,1.632,0,0,0,.932.257,1.46,1.46,0,0,0,.863-.221A.687.687,0,0,0,84.4-1.768Z" transform="translate(-6305.047 -12810.355)" fill="#0c1d30"/>
    <path id="Trazado_204637" data-name="Trazado 204637" d="M2.484,0H1.033V-8.7H2.484ZM5.6-6.462l.084.932a2.311,2.311,0,0,1,.8-.773A2.127,2.127,0,0,1,7.56-6.581a2.018,2.018,0,0,1,1.574.621A2.822,2.822,0,0,1,9.7-4.019V0H8.247V-4.007a1.561,1.561,0,0,0-.293-1.069,1.147,1.147,0,0,0-.884-.317,1.733,1.733,0,0,0-.806.176,1.412,1.412,0,0,0-.543.487V0H4.27V-6.462ZM14.84-1.768a.669.669,0,0,0-.284-.552,2.934,2.934,0,0,0-1.072-.391A4.36,4.36,0,0,1,11.741-3.4a1.447,1.447,0,0,1-.6-1.218A1.755,1.755,0,0,1,11.824-6a2.721,2.721,0,0,1,1.809-.576,2.806,2.806,0,0,1,1.866.594,1.721,1.721,0,0,1,.678,1.43l-.012.036H14.775a.905.905,0,0,0-.311-.684,1.168,1.168,0,0,0-.83-.29,1.186,1.186,0,0,0-.8.239.747.747,0,0,0-.275.585.629.629,0,0,0,.257.526,2.815,2.815,0,0,0,1.057.352,4.378,4.378,0,0,1,1.792.7,1.482,1.482,0,0,1,.6,1.239,1.717,1.717,0,0,1-.72,1.424,3.031,3.031,0,0,1-1.9.552A2.894,2.894,0,0,1,11.663-.52,1.822,1.822,0,0,1,10.97-2l.012-.036h1.35a.968.968,0,0,0,.406.818,1.632,1.632,0,0,0,.932.257,1.46,1.46,0,0,0,.863-.221A.687.687,0,0,0,14.84-1.768Zm4.586-6.265v1.571h1.159v1.075H19.427v3.571a.779.779,0,0,0,.173.57.628.628,0,0,0,.46.17,1.283,1.283,0,0,0,.233-.021,1.416,1.416,0,0,0,.215-.057L20.663-.09a1.667,1.667,0,0,1-.439.158A2.416,2.416,0,0,1,19.7.125a1.674,1.674,0,0,1-1.257-.469,2.044,2.044,0,0,1-.457-1.472V-5.387H17V-6.462h.985V-8.032Zm5.548,2.878-.621-.024A1.3,1.3,0,0,0,23.646-5a1.18,1.18,0,0,0-.439.508V0H21.756V-6.462h1.326l.1.938a2.072,2.072,0,0,1,.63-.776,1.467,1.467,0,0,1,.887-.281,1.352,1.352,0,0,1,.245.021,1.788,1.788,0,0,1,.209.051Zm5.106,4.2a2.168,2.168,0,0,1-.767.8,2.069,2.069,0,0,1-1.084.281A2.024,2.024,0,0,1,26.6-.558a3.215,3.215,0,0,1-.585-2.123v-3.78h1.445v3.792A2.159,2.159,0,0,0,27.734-1.4a1,1,0,0,0,.836.343,1.866,1.866,0,0,0,.881-.188,1.366,1.366,0,0,0,.558-.546v-4.67H31.46V0H30.212Zm5.53-.078a1.206,1.206,0,0,0,.839-.311,1.016,1.016,0,0,0,.343-.788h1.314l.012.036A1.948,1.948,0,0,1,37.4-.532a2.609,2.609,0,0,1-1.789.657A2.633,2.633,0,0,1,33.455-.8,3.542,3.542,0,0,1,32.7-3.123v-.209a3.545,3.545,0,0,1,.758-2.323,2.622,2.622,0,0,1,2.15-.926,2.534,2.534,0,0,1,1.833.678,2.213,2.213,0,0,1,.681,1.723l-.012.036H36.793a1.311,1.311,0,0,0-.328-.9,1.1,1.1,0,0,0-.86-.37,1.184,1.184,0,0,0-1.117.6,2.97,2.97,0,0,0-.34,1.484v.209a3,3,0,0,0,.337,1.5A1.191,1.191,0,0,0,35.611-1.033Zm5.584-7v1.571h1.159v1.075H41.194v3.571a.779.779,0,0,0,.173.57.628.628,0,0,0,.46.17A1.283,1.283,0,0,0,42.06-1.1a1.416,1.416,0,0,0,.215-.057L42.431-.09a1.667,1.667,0,0,1-.439.158,2.416,2.416,0,0,1-.529.057,1.674,1.674,0,0,1-1.257-.469,2.044,2.044,0,0,1-.457-1.472V-5.387h-.985V-6.462h.985V-8.032ZM45.07,0H43.619V-6.462H45.07Zm0-8.044H43.619V-9.316H45.07Zm3.87,5.858.107.526h.036l.113-.526,1.284-4.276h1.5L49.686,0h-1.26L46.121-6.462h1.5Zm3.6-1.1a3.509,3.509,0,0,1,.791-2.368,2.7,2.7,0,0,1,2.165-.923,2.723,2.723,0,0,1,2.183.923,3.509,3.509,0,0,1,.791,2.368v.125a3.5,3.5,0,0,1-.791,2.374A2.717,2.717,0,0,1,55.5.125a2.72,2.72,0,0,1-2.177-.92,3.506,3.506,0,0,1-.791-2.371Zm1.451.125a2.866,2.866,0,0,0,.37,1.541,1.257,1.257,0,0,0,1.147.591,1.26,1.26,0,0,0,1.138-.594,2.816,2.816,0,0,0,.379-1.538v-.125a2.81,2.81,0,0,0-.379-1.526,1.268,1.268,0,0,0-1.15-.6,1.243,1.243,0,0,0-1.132.6,2.845,2.845,0,0,0-.373,1.526Zm9.376,1.4a.669.669,0,0,0-.284-.552,2.934,2.934,0,0,0-1.072-.391A4.36,4.36,0,0,1,60.263-3.4a1.447,1.447,0,0,1-.6-1.218A1.755,1.755,0,0,1,60.346-6a2.721,2.721,0,0,1,1.809-.576,2.806,2.806,0,0,1,1.866.594,1.721,1.721,0,0,1,.678,1.43l-.012.036H63.3a.905.905,0,0,0-.311-.684,1.168,1.168,0,0,0-.83-.29,1.186,1.186,0,0,0-.8.239.747.747,0,0,0-.275.585.629.629,0,0,0,.257.526,2.815,2.815,0,0,0,1.057.352,4.378,4.378,0,0,1,1.792.7,1.482,1.482,0,0,1,.6,1.239,1.717,1.717,0,0,1-.72,1.424,3.031,3.031,0,0,1-1.9.552A2.894,2.894,0,0,1,60.185-.52,1.822,1.822,0,0,1,59.492-2l.012-.036h1.35a.968.968,0,0,0,.406.818,1.632,1.632,0,0,0,.932.257,1.46,1.46,0,0,0,.863-.221A.687.687,0,0,0,63.362-1.768Z" transform="translate(-6305.047 -12778.355)" fill="#0c1d30"/>
    <path id="Trazado_204638" data-name="Trazado 204638" d="M5.87-3.709H2.365V0H.914V-8.7H6.48v1.165H2.365v2.658H5.87ZM9.083,0H7.632V-6.462H9.083Zm0-8.044H7.632V-9.316H9.083Zm4.258,7.011a1.206,1.206,0,0,0,.839-.311,1.016,1.016,0,0,0,.343-.788h1.314l.012.036a1.948,1.948,0,0,1-.72,1.565,2.609,2.609,0,0,1-1.789.657A2.633,2.633,0,0,1,11.185-.8a3.542,3.542,0,0,1-.758-2.326v-.209a3.545,3.545,0,0,1,.758-2.323,2.622,2.622,0,0,1,2.15-.926,2.534,2.534,0,0,1,1.833.678,2.213,2.213,0,0,1,.681,1.723l-.012.036H14.524a1.311,1.311,0,0,0-.328-.9,1.1,1.1,0,0,0-.86-.37,1.184,1.184,0,0,0-1.117.6,2.97,2.97,0,0,0-.34,1.484v.209a3,3,0,0,0,.337,1.5A1.191,1.191,0,0,0,13.341-1.033ZM18.5-5.626a2.3,2.3,0,0,1,.785-.7,2.114,2.114,0,0,1,1.024-.251,2.035,2.035,0,0,1,1.6.648,2.941,2.941,0,0,1,.576,2V0H21.039V-3.947a1.673,1.673,0,0,0-.3-1.1,1.1,1.1,0,0,0-.881-.343,1.838,1.838,0,0,0-.806.164,1.468,1.468,0,0,0-.555.457V0H17.05V-9.316H18.5ZM27.889,0q-.078-.245-.128-.478a3.415,3.415,0,0,1-.069-.466,2.489,2.489,0,0,1-.782.761,2.013,2.013,0,0,1-1.093.308,2.148,2.148,0,0,1-1.55-.52,1.887,1.887,0,0,1-.54-1.427,1.686,1.686,0,0,1,.741-1.46A3.576,3.576,0,0,1,26.551-3.8H27.68v-.567a1.055,1.055,0,0,0-.3-.794,1.182,1.182,0,0,0-.857-.287,1.22,1.22,0,0,0-.788.236.75.75,0,0,0-.293.612l-1.4.006-.006-.036a1.6,1.6,0,0,1,.684-1.356,2.9,2.9,0,0,1,1.89-.591,2.764,2.764,0,0,1,1.821.573,2.018,2.018,0,0,1,.693,1.648v2.872a5.3,5.3,0,0,0,.054.767,4.075,4.075,0,0,0,.173.72ZM26.115-1.039a1.814,1.814,0,0,0,.982-.275,1.383,1.383,0,0,0,.582-.627V-2.9H26.527a1.455,1.455,0,0,0-.991.314.952.952,0,0,0-.358.738.752.752,0,0,0,.242.588A1,1,0,0,0,26.115-1.039Zm8.164-.729A.669.669,0,0,0,34-2.32a2.934,2.934,0,0,0-1.072-.391A4.36,4.36,0,0,1,31.179-3.4a1.447,1.447,0,0,1-.6-1.218A1.755,1.755,0,0,1,31.263-6a2.721,2.721,0,0,1,1.809-.576,2.806,2.806,0,0,1,1.866.594,1.721,1.721,0,0,1,.678,1.43l-.012.036H34.213A.905.905,0,0,0,33.9-5.2a1.168,1.168,0,0,0-.83-.29,1.186,1.186,0,0,0-.8.239A.747.747,0,0,0,32-4.67a.629.629,0,0,0,.257.526,2.815,2.815,0,0,0,1.057.352,4.378,4.378,0,0,1,1.792.7,1.482,1.482,0,0,1,.6,1.239,1.717,1.717,0,0,1-.72,1.424,3.031,3.031,0,0,1-1.9.552A2.894,2.894,0,0,1,31.1-.52,1.822,1.822,0,0,1,30.409-2l.012-.036h1.35a.968.968,0,0,0,.406.818,1.632,1.632,0,0,0,.932.257,1.46,1.46,0,0,0,.863-.221A.687.687,0,0,0,34.279-1.768Z" transform="translate(-6305.047 -12746.355)" fill="#0c1d30"/>
    <path id="Trazado_204639" data-name="Trazado 204639" d="M2.365-3.607V0H.914V-8.7H3.906a3.431,3.431,0,0,1,2.245.657,2.3,2.3,0,0,1,.794,1.875A1.939,1.939,0,0,1,6.6-5a2.4,2.4,0,0,1-1.018.779,1.837,1.837,0,0,1,1.06.758,2.429,2.429,0,0,1,.325,1.3v.723a2.93,2.93,0,0,0,.1.746,1.069,1.069,0,0,0,.317.555V0H5.882a.955.955,0,0,1-.3-.615,5.378,5.378,0,0,1-.066-.836v-.7a1.455,1.455,0,0,0-.385-1.063,1.4,1.4,0,0,0-1.048-.394Zm0-1.165H3.828A1.969,1.969,0,0,0,5.1-5.106a1.256,1.256,0,0,0,.4-1.021,1.351,1.351,0,0,0-.394-1.03,1.691,1.691,0,0,0-1.2-.373H2.365Zm8.922,4.9A2.813,2.813,0,0,1,9.074-.767a3.344,3.344,0,0,1-.8-2.314V-3.32a3.457,3.457,0,0,1,.8-2.344,2.576,2.576,0,0,1,2.057-.917,2.418,2.418,0,0,1,1.971.8,3.248,3.248,0,0,1,.669,2.147v.782h-4l-.012.03a2.117,2.117,0,0,0,.418,1.29,1.426,1.426,0,0,0,1.188.5,3.27,3.27,0,0,0,1.024-.143,2.924,2.924,0,0,0,.8-.412l.472.95A3.075,3.075,0,0,1,12.69-.1,4.1,4.1,0,0,1,11.287.125Zm-.155-5.542a1.121,1.121,0,0,0-.908.409A2.027,2.027,0,0,0,9.8-3.941l.012.03h2.526v-.113a1.631,1.631,0,0,0-.29-1.006A1.072,1.072,0,0,0,11.132-5.417Zm3.589,2.275a4.261,4.261,0,0,1,.663-2.493,2.144,2.144,0,0,1,1.863-.947,2.036,2.036,0,0,1,1.018.248,2.151,2.151,0,0,1,.744.714l.143-.842h1.206V0a2.439,2.439,0,0,1-.77,1.929A3.194,3.194,0,0,1,17.4,2.61a4.279,4.279,0,0,1-1.018-.134A4.73,4.73,0,0,1,15.4,2.12L15.629.979a3.677,3.677,0,0,0,.827.29,4.178,4.178,0,0,0,.935.1,1.658,1.658,0,0,0,1.153-.337A1.347,1.347,0,0,0,18.907,0V-.663a2.03,2.03,0,0,1-.72.588,2.168,2.168,0,0,1-.953.2,2.2,2.2,0,0,1-1.851-.866,3.643,3.643,0,0,1-.663-2.275Zm1.445.125a2.585,2.585,0,0,0,.346,1.427,1.21,1.21,0,0,0,1.093.532,1.487,1.487,0,0,0,.785-.194,1.433,1.433,0,0,0,.517-.558V-4.64a1.551,1.551,0,0,0-.523-.552,1.417,1.417,0,0,0-.767-.2,1.175,1.175,0,0,0-1.1.624,3.293,3.293,0,0,0-.352,1.627ZM23.422,0H21.971V-6.462h1.451Zm0-8.044H21.971V-9.316h1.451Zm5.255,6.276a.669.669,0,0,0-.284-.552,2.934,2.934,0,0,0-1.072-.391A4.36,4.36,0,0,1,25.578-3.4a1.447,1.447,0,0,1-.6-1.218A1.755,1.755,0,0,1,25.661-6a2.721,2.721,0,0,1,1.809-.576,2.806,2.806,0,0,1,1.866.594,1.721,1.721,0,0,1,.678,1.43L30-4.521H28.611A.905.905,0,0,0,28.3-5.2a1.168,1.168,0,0,0-.83-.29,1.186,1.186,0,0,0-.8.239.747.747,0,0,0-.275.585.629.629,0,0,0,.257.526,2.815,2.815,0,0,0,1.057.352,4.378,4.378,0,0,1,1.792.7,1.482,1.482,0,0,1,.6,1.239,1.717,1.717,0,0,1-.72,1.424,3.031,3.031,0,0,1-1.9.552A2.894,2.894,0,0,1,25.5-.52,1.822,1.822,0,0,1,24.807-2l.012-.036h1.35a.968.968,0,0,0,.406.818,1.632,1.632,0,0,0,.932.257,1.46,1.46,0,0,0,.863-.221A.687.687,0,0,0,28.677-1.768Zm4.586-6.265v1.571h1.159v1.075H33.264v3.571a.779.779,0,0,0,.173.57.628.628,0,0,0,.46.17A1.283,1.283,0,0,0,34.13-1.1a1.416,1.416,0,0,0,.215-.057L34.5-.09a1.667,1.667,0,0,1-.439.158,2.416,2.416,0,0,1-.529.057,1.674,1.674,0,0,1-1.257-.469,2.044,2.044,0,0,1-.457-1.472V-5.387h-.985V-6.462h.985V-8.032Zm5.548,2.878-.621-.024A1.3,1.3,0,0,0,37.483-5a1.18,1.18,0,0,0-.439.508V0H35.593V-6.462h1.326l.1.938a2.072,2.072,0,0,1,.63-.776,1.467,1.467,0,0,1,.887-.281,1.352,1.352,0,0,1,.245.021,1.788,1.788,0,0,1,.209.051ZM39.5-3.291a3.509,3.509,0,0,1,.791-2.368,2.7,2.7,0,0,1,2.165-.923,2.723,2.723,0,0,1,2.183.923,3.509,3.509,0,0,1,.791,2.368v.125a3.5,3.5,0,0,1-.791,2.374,2.717,2.717,0,0,1-2.171.917,2.72,2.72,0,0,1-2.177-.92A3.506,3.506,0,0,1,39.5-3.165Zm1.451.125a2.866,2.866,0,0,0,.37,1.541,1.257,1.257,0,0,0,1.147.591A1.26,1.26,0,0,0,43.6-1.627a2.816,2.816,0,0,0,.379-1.538v-.125A2.81,2.81,0,0,0,43.6-4.816a1.268,1.268,0,0,0-1.15-.6,1.243,1.243,0,0,0-1.132.6,2.845,2.845,0,0,0-.373,1.526Zm9.376,1.4a.669.669,0,0,0-.284-.552,2.934,2.934,0,0,0-1.072-.391A4.36,4.36,0,0,1,47.226-3.4a1.447,1.447,0,0,1-.6-1.218A1.755,1.755,0,0,1,47.31-6a2.721,2.721,0,0,1,1.809-.576,2.806,2.806,0,0,1,1.866.594,1.721,1.721,0,0,1,.678,1.43l-.012.036H50.26a.905.905,0,0,0-.311-.684,1.168,1.168,0,0,0-.83-.29,1.186,1.186,0,0,0-.8.239.747.747,0,0,0-.275.585.629.629,0,0,0,.257.526,2.815,2.815,0,0,0,1.057.352,4.378,4.378,0,0,1,1.792.7,1.482,1.482,0,0,1,.6,1.239,1.717,1.717,0,0,1-.72,1.424,3.031,3.031,0,0,1-1.9.552A2.894,2.894,0,0,1,47.148-.52,1.822,1.822,0,0,1,46.456-2l.012-.036h1.35a.968.968,0,0,0,.406.818,1.632,1.632,0,0,0,.932.257,1.46,1.46,0,0,0,.863-.221A.687.687,0,0,0,50.325-1.768Z" transform="translate(-6305.047 -12714.355)" fill="#0c1d30"/>
  </g>
</svg>
