<svg xmlns="http://www.w3.org/2000/svg" xmlns:xlink="http://www.w3.org/1999/xlink" width="715.244" height="191.539" viewBox="0 0 715.244 191.539">
  <defs>
    <clipPath id="clip-path">
      <rect id="Rectángulo_42207" data-name="Rectángulo 42207" width="713.244" height="189.539" fill="rgba(0,0,0,0)"/>
    </clipPath>
  </defs>
  <g id="Grupo_144014" data-name="Grupo 144014" transform="translate(3441.803 5325.128)">
    <g id="Grupo_143279" data-name="Grupo 143279" transform="translate(-3440.803 -5324.128)" clip-path="url(#clip-path)">
      <g id="Grupo_143278" data-name="Grupo 143278">
        <g id="Grupo_143277" data-name="Grupo 143277" clip-path="url(#clip-path)">
          <rect id="Rectángulo_42197" data-name="Rectángulo 42197" width="310.129" height="58.552" transform="translate(403.116 72.427)" fill="#fff"/>
          <rect id="Rectángulo_42198" data-name="Rectángulo 42198" width="310.129" height="58.56" transform="translate(403.116 130.979)" fill="#fff"/>
          <rect id="Rectángulo_42199" data-name="Rectángulo 42199" width="247.454" height="58.56" transform="translate(155.661 130.979)" fill="#fff"/>
          <rect id="Rectángulo_42200" data-name="Rectángulo 42200" width="247.454" height="58.552" transform="translate(155.661 72.427)" fill="#fff"/>
          <rect id="Rectángulo_42201" data-name="Rectángulo 42201" width="247.454" height="29.285" transform="translate(155.661 43.142)" fill="#fff"/>
          <rect id="Rectángulo_42202" data-name="Rectángulo 42202" width="310.129" height="29.285" transform="translate(403.116 43.142)" fill="#fff"/>
          <rect id="Rectángulo_42203" data-name="Rectángulo 42203" width="310.129" height="43.142" transform="translate(403.116)" fill="#e3e3e3"/>
          <path id="Trazado_203234" data-name="Trazado 203234" d="M427.054,1V44.142H179.6V1Z" transform="translate(-23.939 -1)" fill="#e3e3e3"/>
          <path id="Trazado_203235" data-name="Trazado 203235" d="M156.661,138.336V196.9H1V50.5H156.661v87.836Z" transform="translate(-1 -7.358)" fill="#e3e3e3"/>
          <rect id="Rectángulo_42204" data-name="Rectángulo 42204" width="155.661" height="0.471" transform="translate(0 42.672)" fill="#e3e3e3"/>
          <rect id="Rectángulo_42205" data-name="Rectángulo 42205" width="155.661" height="42.672" fill="#e3e3e3"/>
        </g>
      </g>
    </g>
    <path id="Trazado_203236" data-name="Trazado 203236" d="M737.183,84.1h0Z" transform="translate(-3464.742 -5335.801)" fill="rgba(0,0,0,0)" stroke="#000" stroke-width="2"/>
    <path id="Trazado_203237" data-name="Trazado 203237" d="M737.183,151.28h0Z" transform="translate(-3464.742 -5344.43)" fill="rgba(0,0,0,0)" stroke="#000" stroke-width="2"/>
    <path id="Trazado_203238" data-name="Trazado 203238" d="M1,218.47H714.244" transform="translate(-3441.803 -5353.06)" fill="rgba(0,0,0,0)" stroke="#dc1f27" stroke-width="2"/>
    <path id="Trazado_203239" data-name="Trazado 203239" d="M714.244,50.5h0Z" transform="translate(-3441.803 -5331.486)" fill="rgba(0,0,0,0)" stroke="#000" stroke-width="2"/>
    <path id="Trazado_203240" data-name="Trazado 203240" d="M714.244,190.539V1H1V190.539Z" transform="translate(-3441.803 -5325.128)" fill="rgba(0,0,0,0)" stroke="#000" stroke-width="2"/>
    <path id="Trazado_203241" data-name="Trazado 203241" d="M179.6,190.539V1" transform="translate(-3464.742 -5325.128)" fill="rgba(0,0,0,0)" stroke="#000" stroke-width="2"/>
    <path id="Trazado_203242" data-name="Trazado 203242" d="M463.52,190.539V1" transform="translate(-3501.208 -5325.128)" fill="rgba(0,0,0,0)" stroke="#000" stroke-width="2"/>
    <path id="Trazado_204640" data-name="Trazado 204640" d="M0,0H714.987V191.282H0Z" transform="translate(-3441.675 -5325)" fill="rgba(0,0,0,0)"/>
    <path id="Trazado_204647" data-name="Trazado 204647" d="M8.319-3.254l.014.041a3.069,3.069,0,0,1-.978,2.43A3.848,3.848,0,0,1,4.642.144,3.652,3.652,0,0,1,1.825-1.029a4.251,4.251,0,0,1-1.08-3V-5.92a4.3,4.3,0,0,1,1.066-3A3.575,3.575,0,0,1,4.594-10.1a4.017,4.017,0,0,1,2.765.9A3.038,3.038,0,0,1,8.34-6.747l-.014.041H6.72a2.045,2.045,0,0,0-.54-1.528,2.175,2.175,0,0,0-1.586-.53,1.887,1.887,0,0,0-1.6.8A3.328,3.328,0,0,0,2.4-5.934v1.907A3.311,3.311,0,0,0,3-1.986a1.94,1.94,0,0,0,1.641.8A2.09,2.09,0,0,0,6.19-1.716a2.09,2.09,0,0,0,.53-1.538Zm1.135-.513a4.016,4.016,0,0,1,.906-2.71,3.093,3.093,0,0,1,2.478-1.056,3.117,3.117,0,0,1,2.5,1.056,4.016,4.016,0,0,1,.906,2.71v.144a4.01,4.01,0,0,1-.906,2.717A3.11,3.11,0,0,1,12.852.144,3.114,3.114,0,0,1,10.36-.909a4.013,4.013,0,0,1-.906-2.714Zm1.661.144a3.281,3.281,0,0,0,.424,1.764,1.439,1.439,0,0,0,1.313.677,1.442,1.442,0,0,0,1.3-.68,3.223,3.223,0,0,0,.434-1.76v-.144a3.217,3.217,0,0,0-.434-1.747A1.451,1.451,0,0,0,12.838-6.2a1.423,1.423,0,0,0-1.3.687,3.257,3.257,0,0,0-.427,1.747ZM19.2-7.4l.1,1.066a2.646,2.646,0,0,1,.913-.885,2.435,2.435,0,0,1,1.241-.318,2.31,2.31,0,0,1,1.8.711A3.23,3.23,0,0,1,23.892-4.6V0H22.23V-4.587A1.786,1.786,0,0,0,21.9-5.811a1.312,1.312,0,0,0-1.012-.362,1.983,1.983,0,0,0-.923.2,1.616,1.616,0,0,0-.622.557V0H17.678V-7.4Zm8.552-1.8v1.8h1.326v1.23H27.747v4.088a.891.891,0,0,0,.2.653.718.718,0,0,0,.526.195,1.469,1.469,0,0,0,.267-.024,1.621,1.621,0,0,0,.246-.065L29.162-.1a1.909,1.909,0,0,1-.5.181,2.766,2.766,0,0,1-.6.065,1.916,1.916,0,0,1-1.439-.537,2.34,2.34,0,0,1-.523-1.685V-6.166H24.965V-7.4h1.128v-1.8ZM34.87,0q-.089-.28-.147-.547a3.909,3.909,0,0,1-.079-.533,2.849,2.849,0,0,1-.9.872A2.3,2.3,0,0,1,32.5.144a2.459,2.459,0,0,1-1.774-.595,2.16,2.16,0,0,1-.619-1.634,1.93,1.93,0,0,1,.848-1.671,4.093,4.093,0,0,1,2.386-.6h1.292V-5a1.208,1.208,0,0,0-.338-.909,1.354,1.354,0,0,0-.981-.328,1.4,1.4,0,0,0-.9.27.858.858,0,0,0-.335.7l-1.6.007L30.468-5.3a1.832,1.832,0,0,1,.783-1.552,3.317,3.317,0,0,1,2.164-.677,3.164,3.164,0,0,1,2.085.656,2.31,2.31,0,0,1,.793,1.887V-1.7a6.064,6.064,0,0,0,.062.878,4.665,4.665,0,0,0,.2.824ZM32.84-1.189A2.076,2.076,0,0,0,33.964-1.5a1.583,1.583,0,0,0,.667-.718V-3.315H33.312a1.666,1.666,0,0,0-1.135.359,1.09,1.09,0,0,0-.41.844.861.861,0,0,0,.277.673A1.151,1.151,0,0,0,32.84-1.189ZM39.546-7.4l.089.964a2.507,2.507,0,0,1,.909-.813,2.681,2.681,0,0,1,1.265-.287,2.282,2.282,0,0,1,1.244.328,1.983,1.983,0,0,1,.779.984,2.591,2.591,0,0,1,.9-.964,2.434,2.434,0,0,1,1.313-.349,2.169,2.169,0,0,1,1.76.776,3.609,3.609,0,0,1,.646,2.348V0H46.792V-4.416a2.179,2.179,0,0,0-.325-1.364,1.19,1.19,0,0,0-.974-.393,1.425,1.425,0,0,0-.9.287,1.6,1.6,0,0,0-.533.772q0,.1.007.178t.007.144V0H42.41V-4.416a2.154,2.154,0,0,0-.332-1.347,1.179,1.179,0,0,0-.974-.41,1.749,1.749,0,0,0-.858.195,1.436,1.436,0,0,0-.557.55V0H38.028V-7.4ZM51.974,0H50.313V-7.4h1.661Zm0-9.208H50.313v-1.456h1.661ZM55.337-7.4l.1,1.066a2.646,2.646,0,0,1,.913-.885,2.435,2.435,0,0,1,1.241-.318,2.31,2.31,0,0,1,1.8.711A3.23,3.23,0,0,1,60.033-4.6V0H58.372V-4.587a1.786,1.786,0,0,0-.335-1.224,1.312,1.312,0,0,0-1.012-.362,1.983,1.983,0,0,0-.923.2,1.616,1.616,0,0,0-.622.557V0H53.819V-7.4ZM66.22,0q-.089-.28-.147-.547a3.91,3.91,0,0,1-.079-.533,2.849,2.849,0,0,1-.9.872,2.3,2.3,0,0,1-1.251.352,2.459,2.459,0,0,1-1.774-.595,2.16,2.16,0,0,1-.619-1.634A1.93,1.93,0,0,1,62.3-3.756a4.093,4.093,0,0,1,2.386-.6H65.98V-5a1.208,1.208,0,0,0-.338-.909,1.354,1.354,0,0,0-.981-.328,1.4,1.4,0,0,0-.9.27.858.858,0,0,0-.335.7l-1.6.007L61.817-5.3A1.832,1.832,0,0,1,62.6-6.856a3.317,3.317,0,0,1,2.164-.677,3.164,3.164,0,0,1,2.085.656,2.31,2.31,0,0,1,.793,1.887V-1.7a6.064,6.064,0,0,0,.062.878A4.664,4.664,0,0,0,67.9,0Zm-2.03-1.189A2.076,2.076,0,0,0,65.314-1.5a1.583,1.583,0,0,0,.667-.718V-3.315H64.661a1.666,1.666,0,0,0-1.135.359,1.09,1.09,0,0,0-.41.844.861.861,0,0,0,.277.673A1.151,1.151,0,0,0,64.189-1.189Zm8.2.007a1.38,1.38,0,0,0,.96-.355,1.163,1.163,0,0,0,.393-.9h1.5l.014.041A2.23,2.23,0,0,1,74.44-.608a2.986,2.986,0,0,1-2.047.752A3.014,3.014,0,0,1,69.925-.913a4.054,4.054,0,0,1-.868-2.663v-.239a4.058,4.058,0,0,1,.868-2.659,3,3,0,0,1,2.461-1.06,2.9,2.9,0,0,1,2.1.776,2.533,2.533,0,0,1,.779,1.972l-.014.041h-1.5a1.5,1.5,0,0,0-.376-1.032,1.253,1.253,0,0,0-.984-.424,1.355,1.355,0,0,0-1.278.687,3.4,3.4,0,0,0-.39,1.7v.239A3.431,3.431,0,0,0,71.1-1.863,1.363,1.363,0,0,0,72.393-1.183ZM78.429,0H76.768V-7.4h1.661Zm0-9.208H76.768v-1.456h1.661ZM79.98-3.767a4.016,4.016,0,0,1,.906-2.71,3.093,3.093,0,0,1,2.478-1.056,3.117,3.117,0,0,1,2.5,1.056,4.016,4.016,0,0,1,.906,2.71v.144a4.01,4.01,0,0,1-.906,2.717A3.11,3.11,0,0,1,83.378.144,3.114,3.114,0,0,1,80.886-.909a4.013,4.013,0,0,1-.906-2.714Zm1.661.144a3.281,3.281,0,0,0,.424,1.764,1.439,1.439,0,0,0,1.313.677,1.442,1.442,0,0,0,1.3-.68,3.223,3.223,0,0,0,.434-1.76v-.144a3.217,3.217,0,0,0-.434-1.747A1.451,1.451,0,0,0,83.364-6.2a1.423,1.423,0,0,0-1.3.687,3.257,3.257,0,0,0-.427,1.747ZM83.9-10.548h1.88l.014.041L83.925-8.729H82.592ZM89.722-7.4l.1,1.066a2.646,2.646,0,0,1,.913-.885,2.435,2.435,0,0,1,1.241-.318,2.31,2.31,0,0,1,1.8.711A3.23,3.23,0,0,1,94.418-4.6V0H92.757V-4.587a1.786,1.786,0,0,0-.335-1.224,1.312,1.312,0,0,0-1.012-.362,1.983,1.983,0,0,0-.923.2,1.616,1.616,0,0,0-.622.557V0H88.2V-7.4ZM104.091,0q-.089-.28-.147-.547a3.91,3.91,0,0,1-.079-.533,2.849,2.849,0,0,1-.9.872,2.3,2.3,0,0,1-1.251.352,2.459,2.459,0,0,1-1.774-.595,2.16,2.16,0,0,1-.619-1.634,1.93,1.93,0,0,1,.848-1.671,4.093,4.093,0,0,1,2.386-.6h1.292V-5a1.208,1.208,0,0,0-.338-.909,1.354,1.354,0,0,0-.981-.328,1.4,1.4,0,0,0-.9.27.858.858,0,0,0-.335.7l-1.6.007L99.688-5.3a1.832,1.832,0,0,1,.783-1.552,3.317,3.317,0,0,1,2.164-.677,3.164,3.164,0,0,1,2.085.656,2.31,2.31,0,0,1,.793,1.887V-1.7a6.064,6.064,0,0,0,.062.878,4.664,4.664,0,0,0,.2.824Zm-2.03-1.189a2.076,2.076,0,0,0,1.125-.314,1.583,1.583,0,0,0,.667-.718V-3.315h-1.319a1.666,1.666,0,0,0-1.135.359,1.09,1.09,0,0,0-.41.844.861.861,0,0,0,.277.673A1.151,1.151,0,0,0,102.061-1.189Zm9.8.1a2.481,2.481,0,0,1-.878.916,2.368,2.368,0,0,1-1.241.321,2.316,2.316,0,0,1-1.859-.783,3.68,3.68,0,0,1-.67-2.43V-7.4h1.654v4.341a2.472,2.472,0,0,0,.308,1.453,1.14,1.14,0,0,0,.957.393,2.136,2.136,0,0,0,1.008-.215,1.564,1.564,0,0,0,.639-.625V-7.4h1.661V0h-1.429Zm3.008-2.5a4.878,4.878,0,0,1,.759-2.854,2.454,2.454,0,0,1,2.133-1.083,2.333,2.333,0,0,1,1.077.243,2.437,2.437,0,0,1,.824.694v-4.067h1.661V0h-1.347l-.2-.937a2.467,2.467,0,0,1-.861.8,2.4,2.4,0,0,1-1.169.277,2.517,2.517,0,0,1-2.119-.991,4.17,4.17,0,0,1-.759-2.6Zm1.661.144a2.979,2.979,0,0,0,.393,1.634,1.376,1.376,0,0,0,1.248.608,1.668,1.668,0,0,0,.892-.226,1.717,1.717,0,0,0,.6-.643V-5.3a1.749,1.749,0,0,0-.6-.639,1.626,1.626,0,0,0-.875-.229,1.339,1.339,0,0,0-1.251.714,3.769,3.769,0,0,0-.4,1.863ZM124.879,0h-1.661V-7.4h1.661Zm0-9.208h-1.661v-1.456h1.661Zm3.985.014v1.8h1.326v1.23h-1.326v4.088a.891.891,0,0,0,.2.653.718.718,0,0,0,.526.195,1.469,1.469,0,0,0,.267-.024,1.62,1.62,0,0,0,.246-.065L130.279-.1a1.909,1.909,0,0,1-.5.181,2.766,2.766,0,0,1-.6.065,1.916,1.916,0,0,1-1.439-.537,2.34,2.34,0,0,1-.523-1.685V-6.166h-1.128V-7.4h1.128v-1.8ZM133.3,0H131.64V-7.4H133.3Zm0-9.208H131.64v-1.456H133.3ZM137.73-2.5l.123.6h.041l.13-.6,1.47-4.895h1.716L138.585,0h-1.442L134.5-7.4h1.716ZM146.54,0q-.089-.28-.147-.547a3.909,3.909,0,0,1-.079-.533,2.849,2.849,0,0,1-.9.872,2.3,2.3,0,0,1-1.251.352,2.459,2.459,0,0,1-1.774-.595,2.16,2.16,0,0,1-.619-1.634,1.93,1.93,0,0,1,.848-1.671,4.093,4.093,0,0,1,2.386-.6H146.3V-5a1.208,1.208,0,0,0-.338-.909,1.354,1.354,0,0,0-.981-.328,1.4,1.4,0,0,0-.9.27.858.858,0,0,0-.335.7l-1.6.007-.007-.041a1.832,1.832,0,0,1,.783-1.552,3.317,3.317,0,0,1,2.164-.677,3.164,3.164,0,0,1,2.085.656,2.31,2.31,0,0,1,.793,1.887V-1.7a6.064,6.064,0,0,0,.062.878,4.665,4.665,0,0,0,.2.824Zm-2.03-1.189a2.076,2.076,0,0,0,1.125-.314,1.583,1.583,0,0,0,.667-.718V-3.315h-1.319a1.665,1.665,0,0,0-1.135.359,1.09,1.09,0,0,0-.41.844.861.861,0,0,0,.277.673A1.151,1.151,0,0,0,144.51-1.189Zm12.831-.834a.766.766,0,0,0-.325-.632,3.359,3.359,0,0,0-1.227-.448,4.991,4.991,0,0,1-2-.786,1.656,1.656,0,0,1-.69-1.395,2.008,2.008,0,0,1,.786-1.589,3.115,3.115,0,0,1,2.071-.66,3.212,3.212,0,0,1,2.136.68,1.971,1.971,0,0,1,.776,1.637l-.014.041h-1.593a1.036,1.036,0,0,0-.355-.783,1.337,1.337,0,0,0-.95-.332,1.358,1.358,0,0,0-.916.273.855.855,0,0,0-.314.67.72.72,0,0,0,.294.6,3.222,3.222,0,0,0,1.21.4,5.011,5.011,0,0,1,2.051.8,1.7,1.7,0,0,1,.69,1.418,1.966,1.966,0,0,1-.824,1.63,3.469,3.469,0,0,1-2.17.632A3.313,3.313,0,0,1,153.7-.595a2.085,2.085,0,0,1-.793-1.7l.014-.041h1.545a1.108,1.108,0,0,0,.465.937A1.868,1.868,0,0,0,156-1.1a1.671,1.671,0,0,0,.988-.253A.787.787,0,0,0,157.341-2.023Zm2.816-1.743a4.016,4.016,0,0,1,.906-2.71,3.093,3.093,0,0,1,2.478-1.056,3.117,3.117,0,0,1,2.5,1.056,4.016,4.016,0,0,1,.906,2.71v.144a4.01,4.01,0,0,1-.906,2.717A3.11,3.11,0,0,1,163.555.144a3.114,3.114,0,0,1-2.492-1.053,4.013,4.013,0,0,1-.906-2.714Zm1.661.144a3.281,3.281,0,0,0,.424,1.764,1.439,1.439,0,0,0,1.313.677,1.442,1.442,0,0,0,1.3-.68,3.224,3.224,0,0,0,.434-1.76v-.144a3.217,3.217,0,0,0-.434-1.747,1.451,1.451,0,0,0-1.316-.687,1.423,1.423,0,0,0-1.3.687,3.257,3.257,0,0,0-.427,1.747Zm13.07.171a4.181,4.181,0,0,1-.755,2.608A2.525,2.525,0,0,1,172,.144a2.437,2.437,0,0,1-1.21-.287,2.372,2.372,0,0,1-.854-.834l-.2.978h-1.347V-10.664h1.661v4.108a2.385,2.385,0,0,1,.82-.725,2.35,2.35,0,0,1,1.114-.253,2.461,2.461,0,0,1,2.143,1.08,4.891,4.891,0,0,1,.755,2.857ZM173.228-3.6a3.819,3.819,0,0,0-.4-1.866,1.337,1.337,0,0,0-1.258-.711,1.645,1.645,0,0,0-.926.246,1.72,1.72,0,0,0-.591.684v3.1a1.629,1.629,0,0,0,.588.687,1.707,1.707,0,0,0,.943.243,1.377,1.377,0,0,0,1.251-.6,3,3,0,0,0,.39-1.637Zm6.781-2.3-.711-.027a1.49,1.49,0,0,0-.81.205,1.351,1.351,0,0,0-.5.581V0h-1.661V-7.4h1.518l.109,1.073a2.372,2.372,0,0,1,.721-.889,1.679,1.679,0,0,1,1.015-.321,1.548,1.548,0,0,1,.28.024,2.047,2.047,0,0,1,.239.058ZM184.247.144a3.221,3.221,0,0,1-2.533-1.022,3.827,3.827,0,0,1-.913-2.649V-3.8a3.957,3.957,0,0,1,.913-2.683,2.949,2.949,0,0,1,2.355-1.049,2.768,2.768,0,0,1,2.256.919,3.718,3.718,0,0,1,.766,2.458v.9h-4.573l-.014.034a2.423,2.423,0,0,0,.479,1.477,1.633,1.633,0,0,0,1.36.567,3.743,3.743,0,0,0,1.172-.164,3.347,3.347,0,0,0,.919-.472l.54,1.087a3.52,3.52,0,0,1-1.121.622A4.7,4.7,0,0,1,184.247.144ZM184.07-6.2a1.283,1.283,0,0,0-1.039.468,2.321,2.321,0,0,0-.485,1.22l.014.034h2.892v-.13a1.867,1.867,0,0,0-.332-1.152A1.227,1.227,0,0,0,184.07-6.2ZM195.062.144a3.221,3.221,0,0,1-2.533-1.022,3.827,3.827,0,0,1-.913-2.649V-3.8a3.957,3.957,0,0,1,.913-2.683,2.949,2.949,0,0,1,2.355-1.049,2.768,2.768,0,0,1,2.256.919,3.718,3.718,0,0,1,.766,2.458v.9h-4.573l-.014.034A2.423,2.423,0,0,0,193.8-1.75a1.633,1.633,0,0,0,1.36.567,3.743,3.743,0,0,0,1.172-.164,3.347,3.347,0,0,0,.919-.472l.54,1.087a3.52,3.52,0,0,1-1.121.622A4.7,4.7,0,0,1,195.062.144ZM194.884-6.2a1.283,1.283,0,0,0-1.039.468,2.321,2.321,0,0,0-.485,1.22l.014.034h2.892v-.13a1.867,1.867,0,0,0-.332-1.152A1.227,1.227,0,0,0,194.884-6.2ZM201.023,0h-1.661V-10.664h1.661Zm8.36-1.183a1.38,1.38,0,0,0,.96-.355,1.163,1.163,0,0,0,.393-.9h1.5l.014.041a2.23,2.23,0,0,1-.824,1.791,2.986,2.986,0,0,1-2.047.752,3.014,3.014,0,0,1-2.468-1.056,4.054,4.054,0,0,1-.868-2.663v-.239a4.058,4.058,0,0,1,.868-2.659,3,3,0,0,1,2.461-1.06,2.9,2.9,0,0,1,2.1.776,2.533,2.533,0,0,1,.779,1.972l-.014.041h-1.5a1.5,1.5,0,0,0-.376-1.032,1.253,1.253,0,0,0-.984-.424,1.355,1.355,0,0,0-1.278.687,3.4,3.4,0,0,0-.39,1.7v.239a3.431,3.431,0,0,0,.386,1.712A1.363,1.363,0,0,0,209.383-1.183Zm3.958-2.584a4.016,4.016,0,0,1,.906-2.71,3.093,3.093,0,0,1,2.478-1.056,3.117,3.117,0,0,1,2.5,1.056,4.016,4.016,0,0,1,.906,2.71v.144a4.01,4.01,0,0,1-.906,2.717A3.11,3.11,0,0,1,216.739.144a3.114,3.114,0,0,1-2.492-1.053,4.013,4.013,0,0,1-.906-2.714ZM215-3.623a3.281,3.281,0,0,0,.424,1.764,1.439,1.439,0,0,0,1.313.677,1.442,1.442,0,0,0,1.3-.68,3.224,3.224,0,0,0,.434-1.76v-.144a3.217,3.217,0,0,0-.434-1.747,1.451,1.451,0,0,0-1.316-.687,1.423,1.423,0,0,0-1.3.687A3.257,3.257,0,0,0,215-3.767ZM223.1-7.4l.089.964a2.507,2.507,0,0,1,.909-.813,2.681,2.681,0,0,1,1.265-.287,2.282,2.282,0,0,1,1.244.328,1.983,1.983,0,0,1,.779.984,2.591,2.591,0,0,1,.9-.964,2.434,2.434,0,0,1,1.313-.349,2.169,2.169,0,0,1,1.76.776A3.609,3.609,0,0,1,232-4.409V0h-1.661V-4.416a2.179,2.179,0,0,0-.325-1.364,1.19,1.19,0,0,0-.974-.393,1.425,1.425,0,0,0-.9.287,1.6,1.6,0,0,0-.533.772q0,.1.007.178t.007.144V0H225.96V-4.416a2.155,2.155,0,0,0-.332-1.347,1.179,1.179,0,0,0-.974-.41,1.749,1.749,0,0,0-.858.195,1.436,1.436,0,0,0-.557.55V0h-1.661V-7.4Zm17.138,3.944a4.17,4.17,0,0,1-.759,2.6,2.51,2.51,0,0,1-2.112.991,2.616,2.616,0,0,1-1.114-.226,2.293,2.293,0,0,1-.834-.663V2.844h-1.661V-7.4h1.4l.164.93a2.467,2.467,0,0,1,.858-.793,2.4,2.4,0,0,1,1.166-.273,2.456,2.456,0,0,1,2.129,1.083,4.861,4.861,0,0,1,.762,2.854ZM238.579-3.6a3.6,3.6,0,0,0-.427-1.856,1.389,1.389,0,0,0-1.275-.721,1.656,1.656,0,0,0-.882.222,1.636,1.636,0,0,0-.581.619v3.343a1.545,1.545,0,0,0,.581.6,1.771,1.771,0,0,0,.9.208,1.425,1.425,0,0,0,1.268-.625,2.9,2.9,0,0,0,.42-1.644Zm2.8-.171a4.016,4.016,0,0,1,.906-2.71,3.093,3.093,0,0,1,2.478-1.056,3.117,3.117,0,0,1,2.5,1.056,4.016,4.016,0,0,1,.906,2.71v.144a4.01,4.01,0,0,1-.906,2.717A3.11,3.11,0,0,1,244.773.144a3.114,3.114,0,0,1-2.492-1.053,4.013,4.013,0,0,1-.906-2.714Zm1.661.144a3.281,3.281,0,0,0,.424,1.764,1.439,1.439,0,0,0,1.313.677,1.442,1.442,0,0,0,1.3-.68,3.224,3.224,0,0,0,.434-1.76v-.144a3.217,3.217,0,0,0-.434-1.747,1.451,1.451,0,0,0-1.316-.687,1.423,1.423,0,0,0-1.3.687,3.257,3.257,0,0,0-.427,1.747Zm8.08-3.773.1,1.066a2.645,2.645,0,0,1,.913-.885,2.435,2.435,0,0,1,1.241-.318,2.31,2.31,0,0,1,1.8.711,3.23,3.23,0,0,1,.646,2.222V0h-1.661V-4.587a1.786,1.786,0,0,0-.335-1.224,1.312,1.312,0,0,0-1.012-.362,1.983,1.983,0,0,0-.923.2,1.616,1.616,0,0,0-.622.557V0H249.6V-7.4ZM260.68.144a3.221,3.221,0,0,1-2.533-1.022,3.827,3.827,0,0,1-.913-2.649V-3.8a3.957,3.957,0,0,1,.913-2.683A2.949,2.949,0,0,1,260.5-7.533a2.768,2.768,0,0,1,2.256.919,3.718,3.718,0,0,1,.766,2.458v.9h-4.573l-.014.034a2.423,2.423,0,0,0,.479,1.477,1.633,1.633,0,0,0,1.36.567,3.743,3.743,0,0,0,1.172-.164,3.347,3.347,0,0,0,.919-.472l.54,1.087a3.52,3.52,0,0,1-1.121.622A4.7,4.7,0,0,1,260.68.144ZM260.5-6.2a1.283,1.283,0,0,0-1.039.468,2.321,2.321,0,0,0-.485,1.22l.014.034h2.892v-.13a1.867,1.867,0,0,0-.332-1.152A1.227,1.227,0,0,0,260.5-6.2Zm5.872-1.2.1,1.066a2.646,2.646,0,0,1,.913-.885,2.435,2.435,0,0,1,1.241-.318,2.31,2.31,0,0,1,1.8.711,3.23,3.23,0,0,1,.646,2.222V0h-1.661V-4.587a1.786,1.786,0,0,0-.335-1.224,1.312,1.312,0,0,0-1.012-.362,1.983,1.983,0,0,0-.923.2,1.616,1.616,0,0,0-.622.557V0h-1.661V-7.4Zm8.552-1.8v1.8h1.326v1.23h-1.326v4.088a.891.891,0,0,0,.2.653.718.718,0,0,0,.526.195,1.469,1.469,0,0,0,.267-.024,1.621,1.621,0,0,0,.246-.065L276.341-.1a1.908,1.908,0,0,1-.5.181,2.766,2.766,0,0,1-.6.065,1.916,1.916,0,0,1-1.439-.537,2.34,2.34,0,0,1-.523-1.685V-6.166h-1.128V-7.4h1.128v-1.8Zm5.8,9.338A3.221,3.221,0,0,1,278.2-.878a3.827,3.827,0,0,1-.913-2.649V-3.8a3.957,3.957,0,0,1,.913-2.683,2.949,2.949,0,0,1,2.355-1.049,2.768,2.768,0,0,1,2.256.919,3.718,3.718,0,0,1,.766,2.458v.9H279l-.014.034a2.423,2.423,0,0,0,.479,1.477,1.633,1.633,0,0,0,1.36.567A3.743,3.743,0,0,0,282-1.347a3.347,3.347,0,0,0,.919-.472l.54,1.087a3.52,3.52,0,0,1-1.121.622A4.7,4.7,0,0,1,280.73.144ZM280.552-6.2a1.283,1.283,0,0,0-1.039.468,2.321,2.321,0,0,0-.485,1.22l.014.034h2.892v-.13a1.867,1.867,0,0,0-.332-1.152A1.227,1.227,0,0,0,280.552-6.2Z" transform="translate(-3024.67 -5228.24)" fill="#0c1d30"/>
    <path id="Trazado_204648" data-name="Trazado 204648" d="M2.516-6.439a2.637,2.637,0,0,1,.9-.807,2.42,2.42,0,0,1,1.172-.287,2.329,2.329,0,0,1,1.835.742A3.366,3.366,0,0,1,7.082-4.5V0H5.421V-4.519A1.915,1.915,0,0,0,5.083-5.78a1.258,1.258,0,0,0-1.008-.393,2.1,2.1,0,0,0-.923.188,1.681,1.681,0,0,0-.636.523V0H.854V-10.664H2.516Zm10.9,5.346a2.481,2.481,0,0,1-.878.916A2.368,2.368,0,0,1,11.3.144,2.316,2.316,0,0,1,9.44-.639a3.68,3.68,0,0,1-.67-2.43V-7.4h1.654v4.341A2.472,2.472,0,0,0,10.732-1.6a1.14,1.14,0,0,0,.957.393A2.136,2.136,0,0,0,12.7-1.425a1.564,1.564,0,0,0,.639-.625V-7.4H15V0H13.569Zm4.833-6.3.089.964a2.507,2.507,0,0,1,.909-.813,2.681,2.681,0,0,1,1.265-.287,2.282,2.282,0,0,1,1.244.328,1.983,1.983,0,0,1,.779.984,2.591,2.591,0,0,1,.9-.964,2.434,2.434,0,0,1,1.313-.349,2.169,2.169,0,0,1,1.76.776,3.609,3.609,0,0,1,.646,2.348V0H25.5V-4.416a2.179,2.179,0,0,0-.325-1.364,1.19,1.19,0,0,0-.974-.393,1.425,1.425,0,0,0-.9.287,1.6,1.6,0,0,0-.533.772q0,.1.007.178t.007.144V0H21.116V-4.416a2.154,2.154,0,0,0-.332-1.347,1.179,1.179,0,0,0-.974-.41,1.749,1.749,0,0,0-.858.195,1.436,1.436,0,0,0-.557.55V0H16.734V-7.4ZM33.366,0q-.089-.28-.147-.547a3.909,3.909,0,0,1-.079-.533,2.849,2.849,0,0,1-.9.872,2.3,2.3,0,0,1-1.251.352A2.459,2.459,0,0,1,29.22-.451,2.16,2.16,0,0,1,28.6-2.085a1.93,1.93,0,0,1,.848-1.671,4.093,4.093,0,0,1,2.386-.6h1.292V-5a1.208,1.208,0,0,0-.338-.909,1.354,1.354,0,0,0-.981-.328,1.4,1.4,0,0,0-.9.27.858.858,0,0,0-.335.7l-1.6.007L28.964-5.3a1.832,1.832,0,0,1,.783-1.552,3.317,3.317,0,0,1,2.164-.677A3.164,3.164,0,0,1,34-6.877a2.31,2.31,0,0,1,.793,1.887V-1.7a6.064,6.064,0,0,0,.062.878,4.665,4.665,0,0,0,.2.824Zm-2.03-1.189A2.076,2.076,0,0,0,32.46-1.5a1.583,1.583,0,0,0,.667-.718V-3.315H31.808a1.666,1.666,0,0,0-1.135.359,1.09,1.09,0,0,0-.41.844.861.861,0,0,0,.277.673A1.151,1.151,0,0,0,31.336-1.189ZM38.028-7.4l.1,1.066a2.646,2.646,0,0,1,.913-.885,2.435,2.435,0,0,1,1.241-.318,2.31,2.31,0,0,1,1.8.711A3.23,3.23,0,0,1,42.725-4.6V0H41.063V-4.587a1.786,1.786,0,0,0-.335-1.224,1.312,1.312,0,0,0-1.012-.362,1.983,1.983,0,0,0-.923.2,1.616,1.616,0,0,0-.622.557V0H36.511V-7.4Zm6.118,3.63a4.016,4.016,0,0,1,.906-2.71A3.093,3.093,0,0,1,47.53-7.533a3.117,3.117,0,0,1,2.5,1.056,4.016,4.016,0,0,1,.906,2.71v.144a4.01,4.01,0,0,1-.906,2.717A3.11,3.11,0,0,1,47.544.144,3.114,3.114,0,0,1,45.052-.909a4.013,4.013,0,0,1-.906-2.714Zm1.661.144a3.281,3.281,0,0,0,.424,1.764,1.439,1.439,0,0,0,1.313.677,1.442,1.442,0,0,0,1.3-.68,3.223,3.223,0,0,0,.434-1.76v-.144a3.217,3.217,0,0,0-.434-1.747A1.451,1.451,0,0,0,47.53-6.2a1.423,1.423,0,0,0-1.3.687,3.257,3.257,0,0,0-.427,1.747Zm12.517.656.164.738h.041L60.149-7.4h1.818L58.905,1.121a3.8,3.8,0,0,1-.827,1.319,2.014,2.014,0,0,1-1.511.547,2.582,2.582,0,0,1-.441-.041q-.236-.041-.455-.1l.185-1.285.253.021q.164.014.246.014a.912.912,0,0,0,.721-.308,2.614,2.614,0,0,0,.441-.711l.273-.67L55.1-7.4h1.812ZM66.992,0V-6.166H65.864V-7.4h1.128v-.861a2.545,2.545,0,0,1,.667-1.887,2.535,2.535,0,0,1,1.87-.663,3.211,3.211,0,0,1,.485.038q.246.038.554.106L70.4-9.379q-.137-.027-.3-.048a2.958,2.958,0,0,0-.359-.021,1.021,1.021,0,0,0-.81.308,1.3,1.3,0,0,0-.27.882V-7.4h1.374v1.23H68.653V0Zm8.654,0q-.089-.28-.147-.547a3.91,3.91,0,0,1-.079-.533,2.849,2.849,0,0,1-.9.872,2.3,2.3,0,0,1-1.251.352A2.459,2.459,0,0,1,71.5-.451a2.16,2.16,0,0,1-.619-1.634,1.93,1.93,0,0,1,.848-1.671,4.093,4.093,0,0,1,2.386-.6h1.292V-5a1.208,1.208,0,0,0-.338-.909,1.354,1.354,0,0,0-.981-.328,1.4,1.4,0,0,0-.9.27.858.858,0,0,0-.335.7l-1.6.007L71.244-5.3a1.832,1.832,0,0,1,.783-1.552,3.317,3.317,0,0,1,2.164-.677,3.164,3.164,0,0,1,2.085.656,2.31,2.31,0,0,1,.793,1.887V-1.7a6.064,6.064,0,0,0,.062.878,4.664,4.664,0,0,0,.2.824Zm-2.03-1.189A2.076,2.076,0,0,0,74.741-1.5a1.583,1.583,0,0,0,.667-.718V-3.315H74.088a1.666,1.666,0,0,0-1.135.359,1.09,1.09,0,0,0-.41.844.861.861,0,0,0,.277.673A1.151,1.151,0,0,0,73.616-1.189Zm9.8.1a2.481,2.481,0,0,1-.878.916A2.368,2.368,0,0,1,81.3.144,2.316,2.316,0,0,1,79.44-.639a3.68,3.68,0,0,1-.67-2.43V-7.4h1.654v4.341A2.472,2.472,0,0,0,80.732-1.6a1.14,1.14,0,0,0,.957.393A2.136,2.136,0,0,0,82.7-1.425a1.564,1.564,0,0,0,.639-.625V-7.4H85V0H83.569Zm4.819-6.3.1,1.066a2.646,2.646,0,0,1,.913-.885,2.435,2.435,0,0,1,1.241-.318,2.31,2.31,0,0,1,1.8.711A3.23,3.23,0,0,1,92.935-4.6V0H91.273V-4.587a1.786,1.786,0,0,0-.335-1.224,1.312,1.312,0,0,0-1.012-.362,1.983,1.983,0,0,0-.923.2,1.616,1.616,0,0,0-.622.557V0H86.721V-7.4ZM99.121,0q-.089-.28-.147-.547A3.91,3.91,0,0,1,98.9-1.08a2.849,2.849,0,0,1-.9.872,2.3,2.3,0,0,1-1.251.352,2.459,2.459,0,0,1-1.774-.595,2.16,2.16,0,0,1-.619-1.634A1.93,1.93,0,0,1,95.2-3.756a4.093,4.093,0,0,1,2.386-.6h1.292V-5a1.208,1.208,0,0,0-.338-.909,1.354,1.354,0,0,0-.981-.328,1.4,1.4,0,0,0-.9.27.858.858,0,0,0-.335.7l-1.6.007L94.719-5.3A1.832,1.832,0,0,1,95.5-6.856a3.317,3.317,0,0,1,2.164-.677,3.164,3.164,0,0,1,2.085.656,2.31,2.31,0,0,1,.793,1.887V-1.7a6.064,6.064,0,0,0,.062.878,4.664,4.664,0,0,0,.2.824Zm-2.03-1.189A2.076,2.076,0,0,0,98.215-1.5a1.583,1.583,0,0,0,.667-.718V-3.315H97.563a1.666,1.666,0,0,0-1.135.359,1.09,1.09,0,0,0-.41.844.861.861,0,0,0,.277.673A1.151,1.151,0,0,0,97.091-1.189ZM105.458-3.6a4.878,4.878,0,0,1,.759-2.854,2.454,2.454,0,0,1,2.133-1.083,2.333,2.333,0,0,1,1.077.243,2.437,2.437,0,0,1,.824.694v-4.067h1.661V0h-1.347l-.2-.937a2.467,2.467,0,0,1-.861.8,2.4,2.4,0,0,1-1.169.277,2.517,2.517,0,0,1-2.119-.991,4.17,4.17,0,0,1-.759-2.6Zm1.661.144a2.979,2.979,0,0,0,.393,1.634,1.376,1.376,0,0,0,1.248.608,1.668,1.668,0,0,0,.892-.226,1.717,1.717,0,0,0,.6-.643V-5.3a1.749,1.749,0,0,0-.6-.639,1.626,1.626,0,0,0-.875-.229,1.339,1.339,0,0,0-1.251.714,3.769,3.769,0,0,0-.4,1.863Zm9.714,3.6A3.221,3.221,0,0,1,114.3-.878a3.827,3.827,0,0,1-.913-2.649V-3.8a3.957,3.957,0,0,1,.913-2.683,2.949,2.949,0,0,1,2.355-1.049,2.768,2.768,0,0,1,2.256.919,3.718,3.718,0,0,1,.766,2.458v.9H115.1l-.014.034a2.423,2.423,0,0,0,.479,1.477,1.633,1.633,0,0,0,1.36.567,3.743,3.743,0,0,0,1.172-.164,3.347,3.347,0,0,0,.919-.472l.54,1.087a3.52,3.52,0,0,1-1.121.622A4.7,4.7,0,0,1,116.833.144ZM116.655-6.2a1.283,1.283,0,0,0-1.039.468,2.321,2.321,0,0,0-.485,1.22l.014.034h2.892v-.13a1.867,1.867,0,0,0-.332-1.152A1.227,1.227,0,0,0,116.655-6.2ZM122.794,0h-1.661V-10.664h1.661Zm8.483.144a3.221,3.221,0,0,1-2.533-1.022,3.827,3.827,0,0,1-.913-2.649V-3.8a3.957,3.957,0,0,1,.913-2.683A2.949,2.949,0,0,1,131.1-7.533a2.768,2.768,0,0,1,2.256.919,3.718,3.718,0,0,1,.766,2.458v.9h-4.573l-.014.034a2.423,2.423,0,0,0,.479,1.477,1.633,1.633,0,0,0,1.36.567,3.743,3.743,0,0,0,1.172-.164,3.347,3.347,0,0,0,.919-.472L134-.731a3.52,3.52,0,0,1-1.121.622A4.7,4.7,0,0,1,131.277.144ZM131.1-6.2a1.283,1.283,0,0,0-1.039.468,2.321,2.321,0,0,0-.485,1.22l.014.034h2.892v-.13a1.867,1.867,0,0,0-.332-1.152A1.227,1.227,0,0,0,131.1-6.2Zm5.872-1.2.1,1.066a2.645,2.645,0,0,1,.913-.885,2.435,2.435,0,0,1,1.241-.318,2.31,2.31,0,0,1,1.8.711,3.23,3.23,0,0,1,.646,2.222V0h-1.661V-4.587a1.786,1.786,0,0,0-.335-1.224,1.312,1.312,0,0,0-1.012-.362,1.983,1.983,0,0,0-.923.2,1.616,1.616,0,0,0-.622.557V0h-1.661V-7.4Zm8.552-1.8v1.8h1.326v1.23h-1.326v4.088a.891.891,0,0,0,.2.653.718.718,0,0,0,.526.195,1.469,1.469,0,0,0,.267-.024,1.62,1.62,0,0,0,.246-.065L146.938-.1a1.909,1.909,0,0,1-.5.181,2.766,2.766,0,0,1-.6.065,1.916,1.916,0,0,1-1.439-.537,2.34,2.34,0,0,1-.523-1.685V-6.166h-1.128V-7.4h1.128v-1.8ZM147.7-3.767a4.016,4.016,0,0,1,.906-2.71,3.093,3.093,0,0,1,2.478-1.056,3.117,3.117,0,0,1,2.5,1.056,4.016,4.016,0,0,1,.906,2.71v.144a4.01,4.01,0,0,1-.906,2.717A3.11,3.11,0,0,1,151.1.144a3.114,3.114,0,0,1-2.492-1.053,4.013,4.013,0,0,1-.906-2.714Zm1.661.144a3.281,3.281,0,0,0,.424,1.764,1.439,1.439,0,0,0,1.313.677,1.442,1.442,0,0,0,1.3-.68,3.224,3.224,0,0,0,.434-1.76v-.144a3.217,3.217,0,0,0-.434-1.747,1.451,1.451,0,0,0-1.316-.687,1.423,1.423,0,0,0-1.3.687,3.257,3.257,0,0,0-.427,1.747ZM159.622-5.9l-.711-.027a1.49,1.49,0,0,0-.81.205,1.351,1.351,0,0,0-.5.581V0h-1.661V-7.4h1.518l.109,1.073a2.372,2.372,0,0,1,.721-.889,1.679,1.679,0,0,1,1.015-.321,1.548,1.548,0,0,1,.28.024,2.047,2.047,0,0,1,.239.058Zm2.734-1.5.1,1.066a2.645,2.645,0,0,1,.913-.885,2.435,2.435,0,0,1,1.241-.318,2.31,2.31,0,0,1,1.8.711,3.23,3.23,0,0,1,.646,2.222V0h-1.661V-4.587a1.786,1.786,0,0,0-.335-1.224,1.312,1.312,0,0,0-1.012-.362,1.983,1.983,0,0,0-.923.2,1.616,1.616,0,0,0-.622.557V0h-1.661V-7.4Zm6.118,3.63a4.016,4.016,0,0,1,.906-2.71,3.093,3.093,0,0,1,2.478-1.056,3.117,3.117,0,0,1,2.5,1.056,4.016,4.016,0,0,1,.906,2.71v.144a4.01,4.01,0,0,1-.906,2.717A3.11,3.11,0,0,1,171.872.144,3.114,3.114,0,0,1,169.38-.909a4.013,4.013,0,0,1-.906-2.714Zm1.661.144a3.281,3.281,0,0,0,.424,1.764,1.439,1.439,0,0,0,1.313.677,1.442,1.442,0,0,0,1.3-.68,3.224,3.224,0,0,0,.434-1.76v-.144a3.217,3.217,0,0,0-.434-1.747,1.451,1.451,0,0,0-1.316-.687,1.423,1.423,0,0,0-1.3.687,3.257,3.257,0,0,0-.427,1.747ZM178.537,0h-1.654V-1.593h1.654Z" transform="translate(-3024.67 -5211.505)" fill="#0c1d30"/>
    <path id="Trazado_204649" data-name="Trazado 204649" d="M8.319-3.254l.014.041a3.069,3.069,0,0,1-.978,2.43A3.848,3.848,0,0,1,4.642.144,3.652,3.652,0,0,1,1.825-1.029a4.251,4.251,0,0,1-1.08-3V-5.92a4.3,4.3,0,0,1,1.066-3A3.575,3.575,0,0,1,4.594-10.1a4.017,4.017,0,0,1,2.765.9A3.038,3.038,0,0,1,8.34-6.747l-.014.041H6.72a2.045,2.045,0,0,0-.54-1.528,2.175,2.175,0,0,0-1.586-.53,1.887,1.887,0,0,0-1.6.8A3.328,3.328,0,0,0,2.4-5.934v1.907A3.311,3.311,0,0,0,3-1.986a1.94,1.94,0,0,0,1.641.8A2.09,2.09,0,0,0,6.19-1.716a2.09,2.09,0,0,0,.53-1.538Zm1.135-.513a4.016,4.016,0,0,1,.906-2.71,3.093,3.093,0,0,1,2.478-1.056,3.117,3.117,0,0,1,2.5,1.056,4.016,4.016,0,0,1,.906,2.71v.144a4.01,4.01,0,0,1-.906,2.717A3.11,3.11,0,0,1,12.852.144,3.114,3.114,0,0,1,10.36-.909a4.013,4.013,0,0,1-.906-2.714Zm1.661.144a3.281,3.281,0,0,0,.424,1.764,1.439,1.439,0,0,0,1.313.677,1.442,1.442,0,0,0,1.3-.68,3.223,3.223,0,0,0,.434-1.76v-.144a3.217,3.217,0,0,0-.434-1.747A1.451,1.451,0,0,0,12.838-6.2a1.423,1.423,0,0,0-1.3.687,3.257,3.257,0,0,0-.427,1.747ZM19.2-7.4l.1,1.066a2.646,2.646,0,0,1,.913-.885,2.435,2.435,0,0,1,1.241-.318,2.31,2.31,0,0,1,1.8.711A3.23,3.23,0,0,1,23.892-4.6V0H22.23V-4.587A1.786,1.786,0,0,0,21.9-5.811a1.312,1.312,0,0,0-1.012-.362,1.983,1.983,0,0,0-.923.2,1.616,1.616,0,0,0-.622.557V0H17.678V-7.4Zm8.552-1.8v1.8h1.326v1.23H27.747v4.088a.891.891,0,0,0,.2.653.718.718,0,0,0,.526.195,1.469,1.469,0,0,0,.267-.024,1.621,1.621,0,0,0,.246-.065L29.162-.1a1.909,1.909,0,0,1-.5.181,2.766,2.766,0,0,1-.6.065,1.916,1.916,0,0,1-1.439-.537,2.34,2.34,0,0,1-.523-1.685V-6.166H24.965V-7.4h1.128v-1.8ZM34.87,0q-.089-.28-.147-.547a3.909,3.909,0,0,1-.079-.533,2.849,2.849,0,0,1-.9.872A2.3,2.3,0,0,1,32.5.144a2.459,2.459,0,0,1-1.774-.595,2.16,2.16,0,0,1-.619-1.634,1.93,1.93,0,0,1,.848-1.671,4.093,4.093,0,0,1,2.386-.6h1.292V-5a1.208,1.208,0,0,0-.338-.909,1.354,1.354,0,0,0-.981-.328,1.4,1.4,0,0,0-.9.27.858.858,0,0,0-.335.7l-1.6.007L30.468-5.3a1.832,1.832,0,0,1,.783-1.552,3.317,3.317,0,0,1,2.164-.677,3.164,3.164,0,0,1,2.085.656,2.31,2.31,0,0,1,.793,1.887V-1.7a6.064,6.064,0,0,0,.062.878,4.665,4.665,0,0,0,.2.824ZM32.84-1.189A2.076,2.076,0,0,0,33.964-1.5a1.583,1.583,0,0,0,.667-.718V-3.315H33.312a1.666,1.666,0,0,0-1.135.359,1.09,1.09,0,0,0-.41.844.861.861,0,0,0,.277.673A1.151,1.151,0,0,0,32.84-1.189ZM39.546-7.4l.089.964a2.507,2.507,0,0,1,.909-.813,2.681,2.681,0,0,1,1.265-.287,2.282,2.282,0,0,1,1.244.328,1.983,1.983,0,0,1,.779.984,2.591,2.591,0,0,1,.9-.964,2.434,2.434,0,0,1,1.313-.349,2.169,2.169,0,0,1,1.76.776,3.609,3.609,0,0,1,.646,2.348V0H46.792V-4.416a2.179,2.179,0,0,0-.325-1.364,1.19,1.19,0,0,0-.974-.393,1.425,1.425,0,0,0-.9.287,1.6,1.6,0,0,0-.533.772q0,.1.007.178t.007.144V0H42.41V-4.416a2.154,2.154,0,0,0-.332-1.347,1.179,1.179,0,0,0-.974-.41,1.749,1.749,0,0,0-.858.195,1.436,1.436,0,0,0-.557.55V0H38.028V-7.4ZM51.974,0H50.313V-7.4h1.661Zm0-9.208H50.313v-1.456h1.661ZM55.337-7.4l.1,1.066a2.646,2.646,0,0,1,.913-.885,2.435,2.435,0,0,1,1.241-.318,2.31,2.31,0,0,1,1.8.711A3.23,3.23,0,0,1,60.033-4.6V0H58.372V-4.587a1.786,1.786,0,0,0-.335-1.224,1.312,1.312,0,0,0-1.012-.362,1.983,1.983,0,0,0-.923.2,1.616,1.616,0,0,0-.622.557V0H53.819V-7.4ZM66.22,0q-.089-.28-.147-.547a3.91,3.91,0,0,1-.079-.533,2.849,2.849,0,0,1-.9.872,2.3,2.3,0,0,1-1.251.352,2.459,2.459,0,0,1-1.774-.595,2.16,2.16,0,0,1-.619-1.634A1.93,1.93,0,0,1,62.3-3.756a4.093,4.093,0,0,1,2.386-.6H65.98V-5a1.208,1.208,0,0,0-.338-.909,1.354,1.354,0,0,0-.981-.328,1.4,1.4,0,0,0-.9.27.858.858,0,0,0-.335.7l-1.6.007L61.817-5.3A1.832,1.832,0,0,1,62.6-6.856a3.317,3.317,0,0,1,2.164-.677,3.164,3.164,0,0,1,2.085.656,2.31,2.31,0,0,1,.793,1.887V-1.7a6.064,6.064,0,0,0,.062.878A4.664,4.664,0,0,0,67.9,0Zm-2.03-1.189A2.076,2.076,0,0,0,65.314-1.5a1.583,1.583,0,0,0,.667-.718V-3.315H64.661a1.666,1.666,0,0,0-1.135.359,1.09,1.09,0,0,0-.41.844.861.861,0,0,0,.277.673A1.151,1.151,0,0,0,64.189-1.189Zm8.2.007a1.38,1.38,0,0,0,.96-.355,1.163,1.163,0,0,0,.393-.9h1.5l.014.041A2.23,2.23,0,0,1,74.44-.608a2.986,2.986,0,0,1-2.047.752A3.014,3.014,0,0,1,69.925-.913a4.054,4.054,0,0,1-.868-2.663v-.239a4.058,4.058,0,0,1,.868-2.659,3,3,0,0,1,2.461-1.06,2.9,2.9,0,0,1,2.1.776,2.533,2.533,0,0,1,.779,1.972l-.014.041h-1.5a1.5,1.5,0,0,0-.376-1.032,1.253,1.253,0,0,0-.984-.424,1.355,1.355,0,0,0-1.278.687,3.4,3.4,0,0,0-.39,1.7v.239A3.431,3.431,0,0,0,71.1-1.863,1.363,1.363,0,0,0,72.393-1.183ZM78.429,0H76.768V-7.4h1.661Zm0-9.208H76.768v-1.456h1.661ZM79.98-3.767a4.016,4.016,0,0,1,.906-2.71,3.093,3.093,0,0,1,2.478-1.056,3.117,3.117,0,0,1,2.5,1.056,4.016,4.016,0,0,1,.906,2.71v.144a4.01,4.01,0,0,1-.906,2.717A3.11,3.11,0,0,1,83.378.144,3.114,3.114,0,0,1,80.886-.909a4.013,4.013,0,0,1-.906-2.714Zm1.661.144a3.281,3.281,0,0,0,.424,1.764,1.439,1.439,0,0,0,1.313.677,1.442,1.442,0,0,0,1.3-.68,3.223,3.223,0,0,0,.434-1.76v-.144a3.217,3.217,0,0,0-.434-1.747A1.451,1.451,0,0,0,83.364-6.2a1.423,1.423,0,0,0-1.3.687,3.257,3.257,0,0,0-.427,1.747ZM83.9-10.548h1.88l.014.041L83.925-8.729H82.592ZM89.722-7.4l.1,1.066a2.646,2.646,0,0,1,.913-.885,2.435,2.435,0,0,1,1.241-.318,2.31,2.31,0,0,1,1.8.711A3.23,3.23,0,0,1,94.418-4.6V0H92.757V-4.587a1.786,1.786,0,0,0-.335-1.224,1.312,1.312,0,0,0-1.012-.362,1.983,1.983,0,0,0-.923.2,1.616,1.616,0,0,0-.622.557V0H88.2V-7.4Zm16.393,3.944a4.17,4.17,0,0,1-.759,2.6,2.51,2.51,0,0,1-2.112.991,2.616,2.616,0,0,1-1.114-.226,2.293,2.293,0,0,1-.834-.663V2.844H99.634V-7.4h1.4l.164.93a2.467,2.467,0,0,1,.858-.793,2.4,2.4,0,0,1,1.166-.273,2.456,2.456,0,0,1,2.129,1.083,4.861,4.861,0,0,1,.762,2.854ZM104.46-3.6a3.6,3.6,0,0,0-.427-1.856,1.389,1.389,0,0,0-1.275-.721,1.656,1.656,0,0,0-.882.222,1.636,1.636,0,0,0-.581.619v3.343a1.545,1.545,0,0,0,.581.6,1.771,1.771,0,0,0,.9.208,1.425,1.425,0,0,0,1.268-.625,2.9,2.9,0,0,0,.42-1.644Zm2.8-.171a4.016,4.016,0,0,1,.906-2.71,3.093,3.093,0,0,1,2.478-1.056,3.117,3.117,0,0,1,2.5,1.056,4.016,4.016,0,0,1,.906,2.71v.144a4.01,4.01,0,0,1-.906,2.717A3.11,3.11,0,0,1,110.653.144a3.114,3.114,0,0,1-2.492-1.053,4.013,4.013,0,0,1-.906-2.714Zm1.661.144a3.281,3.281,0,0,0,.424,1.764,1.439,1.439,0,0,0,1.313.677,1.442,1.442,0,0,0,1.3-.68,3.223,3.223,0,0,0,.434-1.76v-.144a3.217,3.217,0,0,0-.434-1.747A1.451,1.451,0,0,0,110.64-6.2a1.423,1.423,0,0,0-1.3.687,3.257,3.257,0,0,0-.427,1.747ZM119.178-5.9l-.711-.027a1.49,1.49,0,0,0-.81.205,1.351,1.351,0,0,0-.5.581V0h-1.661V-7.4h1.518l.109,1.073a2.372,2.372,0,0,1,.721-.889,1.679,1.679,0,0,1,1.015-.321,1.548,1.548,0,0,1,.28.024,2.047,2.047,0,0,1,.239.058ZM125.665,0H124V-10.664h1.661Zm1.552-3.767a4.016,4.016,0,0,1,.906-2.71A3.093,3.093,0,0,1,130.6-7.533a3.117,3.117,0,0,1,2.5,1.056A4.016,4.016,0,0,1,134-3.767v.144A4.01,4.01,0,0,1,133.1-.906,3.11,3.11,0,0,1,130.614.144a3.114,3.114,0,0,1-2.492-1.053,4.013,4.013,0,0,1-.906-2.714Zm1.661.144a3.281,3.281,0,0,0,.424,1.764,1.439,1.439,0,0,0,1.313.677,1.442,1.442,0,0,0,1.3-.68,3.224,3.224,0,0,0,.434-1.76v-.144a3.217,3.217,0,0,0-.434-1.747A1.451,1.451,0,0,0,130.6-6.2a1.423,1.423,0,0,0-1.3.687,3.257,3.257,0,0,0-.427,1.747Zm10.732,1.6a.766.766,0,0,0-.325-.632,3.359,3.359,0,0,0-1.227-.448,4.991,4.991,0,0,1-2-.786,1.656,1.656,0,0,1-.69-1.395,2.008,2.008,0,0,1,.786-1.589,3.115,3.115,0,0,1,2.071-.66,3.212,3.212,0,0,1,2.136.68,1.971,1.971,0,0,1,.776,1.637l-.014.041h-1.593a1.036,1.036,0,0,0-.355-.783,1.337,1.337,0,0,0-.95-.332,1.358,1.358,0,0,0-.916.273.855.855,0,0,0-.314.67.72.72,0,0,0,.294.6,3.222,3.222,0,0,0,1.21.4,5.011,5.011,0,0,1,2.051.8,1.7,1.7,0,0,1,.69,1.418,1.966,1.966,0,0,1-.824,1.63,3.469,3.469,0,0,1-2.17.632,3.313,3.313,0,0,1-2.276-.738,2.085,2.085,0,0,1-.793-1.7l.014-.041h1.545a1.108,1.108,0,0,0,.465.937,1.868,1.868,0,0,0,1.066.294,1.671,1.671,0,0,0,.988-.253A.787.787,0,0,0,139.61-2.023ZM149.905-5.9l-.711-.027a1.49,1.49,0,0,0-.81.205,1.351,1.351,0,0,0-.5.581V0h-1.661V-7.4h1.518l.109,1.073a2.372,2.372,0,0,1,.721-.889,1.679,1.679,0,0,1,1.015-.321,1.548,1.548,0,0,1,.28.024,2.047,2.047,0,0,1,.239.058ZM154.144.144a3.221,3.221,0,0,1-2.533-1.022,3.827,3.827,0,0,1-.913-2.649V-3.8a3.957,3.957,0,0,1,.913-2.683,2.949,2.949,0,0,1,2.355-1.049,2.768,2.768,0,0,1,2.256.919,3.718,3.718,0,0,1,.766,2.458v.9h-4.573l-.014.034a2.423,2.423,0,0,0,.479,1.477,1.633,1.633,0,0,0,1.36.567,3.743,3.743,0,0,0,1.172-.164,3.347,3.347,0,0,0,.919-.472l.54,1.087a3.52,3.52,0,0,1-1.121.622A4.7,4.7,0,0,1,154.144.144ZM153.966-6.2a1.283,1.283,0,0,0-1.039.468,2.321,2.321,0,0,0-.485,1.22l.014.034h2.892v-.13a1.867,1.867,0,0,0-.332-1.152A1.227,1.227,0,0,0,153.966-6.2Zm8.524,4.177a.766.766,0,0,0-.325-.632,3.359,3.359,0,0,0-1.227-.448,4.991,4.991,0,0,1-2-.786,1.656,1.656,0,0,1-.69-1.395,2.008,2.008,0,0,1,.786-1.589,3.115,3.115,0,0,1,2.071-.66,3.212,3.212,0,0,1,2.136.68,1.971,1.971,0,0,1,.776,1.637l-.014.041h-1.593a1.036,1.036,0,0,0-.355-.783,1.337,1.337,0,0,0-.95-.332,1.358,1.358,0,0,0-.916.273.855.855,0,0,0-.314.67.72.72,0,0,0,.294.6,3.222,3.222,0,0,0,1.21.4,5.011,5.011,0,0,1,2.051.8,1.7,1.7,0,0,1,.69,1.418,1.966,1.966,0,0,1-.824,1.63,3.469,3.469,0,0,1-2.17.632,3.313,3.313,0,0,1-2.276-.738,2.085,2.085,0,0,1-.793-1.7l.014-.041h1.545a1.108,1.108,0,0,0,.465.937,1.868,1.868,0,0,0,1.066.294,1.671,1.671,0,0,0,.988-.253A.787.787,0,0,0,162.49-2.023ZM167.385,0h-1.661V-7.4h1.661Zm0-9.208h-1.661v-1.456h1.661ZM168.937-3.6A4.878,4.878,0,0,1,169.7-6.45a2.454,2.454,0,0,1,2.133-1.083,2.333,2.333,0,0,1,1.077.243,2.437,2.437,0,0,1,.824.694v-4.067h1.661V0h-1.347l-.2-.937a2.467,2.467,0,0,1-.861.8,2.4,2.4,0,0,1-1.169.277A2.517,2.517,0,0,1,169.7-.848a4.17,4.17,0,0,1-.759-2.6Zm1.661.144a2.979,2.979,0,0,0,.393,1.634,1.376,1.376,0,0,0,1.248.608,1.668,1.668,0,0,0,.892-.226,1.717,1.717,0,0,0,.6-.643V-5.3a1.749,1.749,0,0,0-.6-.639,1.626,1.626,0,0,0-.875-.229A1.339,1.339,0,0,0,171-5.458a3.769,3.769,0,0,0-.4,1.863Zm11.19,2.358a2.481,2.481,0,0,1-.878.916,2.368,2.368,0,0,1-1.241.321,2.316,2.316,0,0,1-1.859-.783,3.68,3.68,0,0,1-.67-2.43V-7.4h1.654v4.341A2.472,2.472,0,0,0,179.1-1.6a1.14,1.14,0,0,0,.957.393,2.136,2.136,0,0,0,1.008-.215,1.564,1.564,0,0,0,.639-.625V-7.4h1.661V0h-1.429ZM184.8-3.767a4.016,4.016,0,0,1,.906-2.71,3.093,3.093,0,0,1,2.478-1.056,3.117,3.117,0,0,1,2.5,1.056,4.016,4.016,0,0,1,.906,2.71v.144a4.01,4.01,0,0,1-.906,2.717A3.11,3.11,0,0,1,188.193.144,3.114,3.114,0,0,1,185.7-.909a4.013,4.013,0,0,1-.906-2.714Zm1.661.144a3.281,3.281,0,0,0,.424,1.764,1.439,1.439,0,0,0,1.313.677,1.442,1.442,0,0,0,1.3-.68,3.224,3.224,0,0,0,.434-1.76v-.144a3.217,3.217,0,0,0-.434-1.747A1.451,1.451,0,0,0,188.18-6.2a1.423,1.423,0,0,0-1.3.687,3.257,3.257,0,0,0-.427,1.747Zm10.732,1.6a.766.766,0,0,0-.325-.632,3.359,3.359,0,0,0-1.227-.448,4.991,4.991,0,0,1-2-.786,1.656,1.656,0,0,1-.69-1.395,2.008,2.008,0,0,1,.786-1.589,3.115,3.115,0,0,1,2.071-.66,3.212,3.212,0,0,1,2.136.68,1.971,1.971,0,0,1,.776,1.637l-.014.041h-1.593a1.036,1.036,0,0,0-.355-.783,1.337,1.337,0,0,0-.95-.332,1.358,1.358,0,0,0-.916.273.855.855,0,0,0-.314.67.72.72,0,0,0,.294.6,3.222,3.222,0,0,0,1.21.4,5.011,5.011,0,0,1,2.051.8,1.7,1.7,0,0,1,.69,1.418A1.966,1.966,0,0,1,198-.489a3.469,3.469,0,0,1-2.17.632,3.313,3.313,0,0,1-2.276-.738,2.085,2.085,0,0,1-.793-1.7l.014-.041h1.545a1.108,1.108,0,0,0,.465.937,1.868,1.868,0,0,0,1.066.294,1.671,1.671,0,0,0,.988-.253A.787.787,0,0,0,197.189-2.023ZM203.54-3.6A4.878,4.878,0,0,1,204.3-6.45a2.454,2.454,0,0,1,2.133-1.083,2.33,2.33,0,0,1,1.166.284,2.463,2.463,0,0,1,.851.817l.164-.964h1.381V0a2.791,2.791,0,0,1-.882,2.208,3.657,3.657,0,0,1-2.5.779,4.9,4.9,0,0,1-1.166-.154,5.414,5.414,0,0,1-1.131-.407l.267-1.306a4.209,4.209,0,0,0,.947.332,4.782,4.782,0,0,0,1.07.12,1.9,1.9,0,0,0,1.319-.386A1.542,1.542,0,0,0,208.332,0V-.759a2.324,2.324,0,0,1-.824.673,2.482,2.482,0,0,1-1.09.229A2.517,2.517,0,0,1,204.3-.848a4.17,4.17,0,0,1-.759-2.6Zm1.654.144a2.958,2.958,0,0,0,.4,1.634,1.385,1.385,0,0,0,1.251.608,1.7,1.7,0,0,0,.9-.222,1.64,1.64,0,0,0,.591-.639v-3.24a1.775,1.775,0,0,0-.6-.632,1.622,1.622,0,0,0-.878-.229,1.345,1.345,0,0,0-1.258.714,3.769,3.769,0,0,0-.4,1.863Zm9.673,3.6a3.221,3.221,0,0,1-2.533-1.022,3.827,3.827,0,0,1-.913-2.649V-3.8a3.957,3.957,0,0,1,.913-2.683,2.949,2.949,0,0,1,2.355-1.049,2.768,2.768,0,0,1,2.256.919,3.718,3.718,0,0,1,.766,2.458v.9h-4.573l-.014.034A2.423,2.423,0,0,0,213.6-1.75a1.633,1.633,0,0,0,1.36.567,3.743,3.743,0,0,0,1.172-.164,3.347,3.347,0,0,0,.919-.472l.54,1.087a3.52,3.52,0,0,1-1.121.622A4.7,4.7,0,0,1,214.867.144ZM214.689-6.2a1.283,1.283,0,0,0-1.039.468,2.321,2.321,0,0,0-.485,1.22l.014.034h2.892v-.13a1.867,1.867,0,0,0-.332-1.152A1.227,1.227,0,0,0,214.689-6.2Zm5.872-1.2.1,1.066a2.645,2.645,0,0,1,.913-.885,2.435,2.435,0,0,1,1.241-.318,2.31,2.31,0,0,1,1.8.711,3.23,3.23,0,0,1,.646,2.222V0H223.6V-4.587a1.786,1.786,0,0,0-.335-1.224,1.312,1.312,0,0,0-1.012-.362,1.983,1.983,0,0,0-.923.2,1.616,1.616,0,0,0-.622.557V0h-1.661V-7.4Zm9.563,7.54a3.221,3.221,0,0,1-2.533-1.022,3.827,3.827,0,0,1-.913-2.649V-3.8a3.957,3.957,0,0,1,.913-2.683,2.949,2.949,0,0,1,2.355-1.049,2.768,2.768,0,0,1,2.256.919,3.718,3.718,0,0,1,.766,2.458v.9H228.4l-.014.034a2.423,2.423,0,0,0,.479,1.477,1.633,1.633,0,0,0,1.36.567,3.743,3.743,0,0,0,1.172-.164,3.347,3.347,0,0,0,.919-.472l.54,1.087a3.52,3.52,0,0,1-1.121.622A4.7,4.7,0,0,1,230.125.144ZM229.947-6.2a1.283,1.283,0,0,0-1.039.468,2.321,2.321,0,0,0-.485,1.22l.014.034h2.892v-.13A1.867,1.867,0,0,0,231-5.759,1.227,1.227,0,0,0,229.947-6.2ZM238-5.9l-.711-.027a1.49,1.49,0,0,0-.81.205,1.351,1.351,0,0,0-.5.581V0h-1.661V-7.4h1.518l.109,1.073a2.372,2.372,0,0,1,.721-.889,1.679,1.679,0,0,1,1.015-.321,1.548,1.548,0,0,1,.28.024,2.047,2.047,0,0,1,.239.058ZM243.52,0q-.089-.28-.147-.547a3.909,3.909,0,0,1-.079-.533,2.849,2.849,0,0,1-.9.872,2.3,2.3,0,0,1-1.251.352,2.459,2.459,0,0,1-1.774-.595,2.16,2.16,0,0,1-.619-1.634,1.93,1.93,0,0,1,.848-1.671,4.093,4.093,0,0,1,2.386-.6h1.292V-5a1.208,1.208,0,0,0-.338-.909,1.354,1.354,0,0,0-.981-.328,1.4,1.4,0,0,0-.9.27.858.858,0,0,0-.335.7l-1.6.007-.007-.041a1.832,1.832,0,0,1,.783-1.552,3.317,3.317,0,0,1,2.164-.677,3.164,3.164,0,0,1,2.085.656,2.31,2.31,0,0,1,.793,1.887V-1.7A6.064,6.064,0,0,0,245-.824a4.665,4.665,0,0,0,.2.824Zm-2.03-1.189a2.076,2.076,0,0,0,1.125-.314,1.583,1.583,0,0,0,.667-.718V-3.315h-1.319a1.665,1.665,0,0,0-1.135.359,1.09,1.09,0,0,0-.41.844.861.861,0,0,0,.277.673A1.151,1.151,0,0,0,241.489-1.189ZM246.37-3.6a4.878,4.878,0,0,1,.759-2.854,2.454,2.454,0,0,1,2.133-1.083,2.333,2.333,0,0,1,1.077.243,2.437,2.437,0,0,1,.824.694v-4.067h1.661V0h-1.347l-.2-.937a2.467,2.467,0,0,1-.861.8,2.4,2.4,0,0,1-1.169.277,2.517,2.517,0,0,1-2.119-.991,4.17,4.17,0,0,1-.759-2.6Zm1.661.144a2.979,2.979,0,0,0,.393,1.634,1.376,1.376,0,0,0,1.248.608,1.668,1.668,0,0,0,.892-.226,1.717,1.717,0,0,0,.6-.643V-5.3a1.749,1.749,0,0,0-.6-.639,1.626,1.626,0,0,0-.875-.229,1.339,1.339,0,0,0-1.251.714,3.769,3.769,0,0,0-.4,1.863Zm6.269-.314a4.016,4.016,0,0,1,.906-2.71,3.093,3.093,0,0,1,2.478-1.056,3.117,3.117,0,0,1,2.5,1.056,4.016,4.016,0,0,1,.906,2.71v.144a4.01,4.01,0,0,1-.906,2.717A3.11,3.11,0,0,1,257.7.144a3.114,3.114,0,0,1-2.492-1.053,4.013,4.013,0,0,1-.906-2.714Zm1.661.144a3.281,3.281,0,0,0,.424,1.764,1.439,1.439,0,0,0,1.313.677,1.442,1.442,0,0,0,1.3-.68,3.223,3.223,0,0,0,.434-1.76v-.144A3.217,3.217,0,0,0,259-5.513a1.451,1.451,0,0,0-1.316-.687,1.423,1.423,0,0,0-1.3.687,3.257,3.257,0,0,0-.427,1.747Zm10.732,1.6a.766.766,0,0,0-.325-.632,3.359,3.359,0,0,0-1.227-.448,4.991,4.991,0,0,1-2-.786,1.656,1.656,0,0,1-.69-1.395,2.008,2.008,0,0,1,.786-1.589,3.115,3.115,0,0,1,2.071-.66,3.212,3.212,0,0,1,2.136.68,1.971,1.971,0,0,1,.776,1.637l-.014.041h-1.593a1.037,1.037,0,0,0-.355-.783,1.337,1.337,0,0,0-.95-.332,1.358,1.358,0,0,0-.916.273.855.855,0,0,0-.314.67.72.72,0,0,0,.294.6,3.222,3.222,0,0,0,1.21.4,5.011,5.011,0,0,1,2.051.8,1.7,1.7,0,0,1,.69,1.418,1.966,1.966,0,0,1-.824,1.63,3.469,3.469,0,0,1-2.17.632,3.313,3.313,0,0,1-2.276-.738,2.085,2.085,0,0,1-.793-1.7l.014-.041h1.545a1.108,1.108,0,0,0,.465.937,1.868,1.868,0,0,0,1.066.294,1.671,1.671,0,0,0,.988-.253A.787.787,0,0,0,266.693-2.023Z" transform="translate(-3024.67 -5168.597)" fill="#0c1d30"/>
    <path id="Trazado_204650" data-name="Trazado 204650" d="M4.013.144A3.221,3.221,0,0,1,1.48-.878,3.827,3.827,0,0,1,.567-3.527V-3.8A3.957,3.957,0,0,1,1.48-6.484,2.949,2.949,0,0,1,3.835-7.533a2.768,2.768,0,0,1,2.256.919,3.718,3.718,0,0,1,.766,2.458v.9H2.283l-.014.034A2.423,2.423,0,0,0,2.748-1.75a1.633,1.633,0,0,0,1.36.567,3.743,3.743,0,0,0,1.172-.164A3.347,3.347,0,0,0,6.2-1.818L6.74-.731a3.52,3.52,0,0,1-1.121.622A4.7,4.7,0,0,1,4.013.144ZM3.835-6.2A1.283,1.283,0,0,0,2.8-5.732a2.321,2.321,0,0,0-.485,1.22l.014.034H5.216v-.13a1.867,1.867,0,0,0-.332-1.152A1.227,1.227,0,0,0,3.835-6.2ZM9.707-7.4,9.8-6.33a2.646,2.646,0,0,1,.913-.885,2.435,2.435,0,0,1,1.241-.318,2.31,2.31,0,0,1,1.8.711A3.23,3.23,0,0,1,14.4-4.6V0H12.742V-4.587a1.786,1.786,0,0,0-.335-1.224A1.312,1.312,0,0,0,11.4-6.173a1.983,1.983,0,0,0-.923.2,1.616,1.616,0,0,0-.622.557V0H8.189V-7.4ZM21.39,0H19.729V-10.664H21.39Zm6.316,0q-.089-.28-.147-.547a3.909,3.909,0,0,1-.079-.533,2.849,2.849,0,0,1-.9.872,2.3,2.3,0,0,1-1.251.352A2.459,2.459,0,0,1,23.56-.451a2.16,2.16,0,0,1-.619-1.634,1.93,1.93,0,0,1,.848-1.671,4.093,4.093,0,0,1,2.386-.6h1.292V-5a1.208,1.208,0,0,0-.338-.909,1.354,1.354,0,0,0-.981-.328,1.4,1.4,0,0,0-.9.27.858.858,0,0,0-.335.7l-1.6.007L23.3-5.3a1.832,1.832,0,0,1,.783-1.552,3.317,3.317,0,0,1,2.164-.677,3.164,3.164,0,0,1,2.085.656,2.31,2.31,0,0,1,.793,1.887V-1.7a6.064,6.064,0,0,0,.062.878,4.664,4.664,0,0,0,.2.824Zm-2.03-1.189A2.076,2.076,0,0,0,26.8-1.5a1.583,1.583,0,0,0,.667-.718V-3.315H26.147a1.666,1.666,0,0,0-1.135.359,1.09,1.09,0,0,0-.41.844.861.861,0,0,0,.277.673A1.151,1.151,0,0,0,25.676-1.189ZM35.868-7.4l.089.964a2.507,2.507,0,0,1,.909-.813,2.681,2.681,0,0,1,1.265-.287,2.282,2.282,0,0,1,1.244.328,1.983,1.983,0,0,1,.779.984,2.591,2.591,0,0,1,.9-.964,2.434,2.434,0,0,1,1.313-.349,2.169,2.169,0,0,1,1.76.776,3.609,3.609,0,0,1,.646,2.348V0H43.114V-4.416A2.179,2.179,0,0,0,42.79-5.78a1.19,1.19,0,0,0-.974-.393,1.425,1.425,0,0,0-.9.287,1.6,1.6,0,0,0-.533.772q0,.1.007.178t.007.144V0H38.732V-4.416A2.154,2.154,0,0,0,38.4-5.763a1.179,1.179,0,0,0-.974-.41,1.749,1.749,0,0,0-.858.195,1.436,1.436,0,0,0-.557.55V0H34.351V-7.4Zm10.35,3.63a4.016,4.016,0,0,1,.906-2.71A3.093,3.093,0,0,1,49.6-7.533a3.117,3.117,0,0,1,2.5,1.056,4.016,4.016,0,0,1,.906,2.71v.144A4.01,4.01,0,0,1,52.1-.906,3.11,3.11,0,0,1,49.615.144,3.114,3.114,0,0,1,47.124-.909a4.013,4.013,0,0,1-.906-2.714Zm1.661.144A3.281,3.281,0,0,0,48.3-1.859a1.439,1.439,0,0,0,1.313.677,1.442,1.442,0,0,0,1.3-.68,3.223,3.223,0,0,0,.434-1.76v-.144a3.217,3.217,0,0,0-.434-1.747A1.451,1.451,0,0,0,49.6-6.2a1.423,1.423,0,0,0-1.3.687,3.257,3.257,0,0,0-.427,1.747ZM56.226,0H54.564V-10.664h1.661Zm3.63,0H58.194V-7.4h1.661Zm0-9.208H58.194v-1.456h1.661Zm5,9.352A3.221,3.221,0,0,1,62.32-.878a3.827,3.827,0,0,1-.913-2.649V-3.8a3.957,3.957,0,0,1,.913-2.683,2.949,2.949,0,0,1,2.355-1.049,2.768,2.768,0,0,1,2.256.919A3.718,3.718,0,0,1,67.7-4.156v.9H63.123l-.014.034a2.423,2.423,0,0,0,.479,1.477,1.633,1.633,0,0,0,1.36.567,3.743,3.743,0,0,0,1.172-.164,3.347,3.347,0,0,0,.919-.472l.54,1.087a3.52,3.52,0,0,1-1.121.622A4.7,4.7,0,0,1,64.853.144ZM64.675-6.2a1.283,1.283,0,0,0-1.039.468,2.321,2.321,0,0,0-.485,1.22l.014.034h2.892v-.13a1.867,1.867,0,0,0-.332-1.152A1.227,1.227,0,0,0,64.675-6.2Zm5.872-1.2.1,1.066a2.646,2.646,0,0,1,.913-.885A2.435,2.435,0,0,1,72.8-7.533a2.31,2.31,0,0,1,1.8.711A3.23,3.23,0,0,1,75.243-4.6V0H73.582V-4.587a1.786,1.786,0,0,0-.335-1.224,1.312,1.312,0,0,0-1.012-.362,1.983,1.983,0,0,0-.923.2,1.616,1.616,0,0,0-.622.557V0H69.029V-7.4Zm6.118,3.8a4.878,4.878,0,0,1,.759-2.854,2.454,2.454,0,0,1,2.133-1.083,2.333,2.333,0,0,1,1.077.243,2.437,2.437,0,0,1,.824.694v-4.067h1.661V0H81.771l-.2-.937a2.467,2.467,0,0,1-.861.8,2.4,2.4,0,0,1-1.169.277,2.517,2.517,0,0,1-2.119-.991,4.17,4.17,0,0,1-.759-2.6Zm1.661.144a2.979,2.979,0,0,0,.393,1.634,1.376,1.376,0,0,0,1.248.608,1.668,1.668,0,0,0,.892-.226,1.717,1.717,0,0,0,.6-.643V-5.3a1.749,1.749,0,0,0-.6-.639,1.626,1.626,0,0,0-.875-.229,1.339,1.339,0,0,0-1.251.714,3.769,3.769,0,0,0-.4,1.863ZM89.359,0q-.089-.28-.147-.547a3.91,3.91,0,0,1-.079-.533,2.849,2.849,0,0,1-.9.872,2.3,2.3,0,0,1-1.251.352,2.459,2.459,0,0,1-1.774-.595,2.16,2.16,0,0,1-.619-1.634,1.93,1.93,0,0,1,.848-1.671,4.093,4.093,0,0,1,2.386-.6H89.12V-5a1.208,1.208,0,0,0-.338-.909,1.354,1.354,0,0,0-.981-.328,1.4,1.4,0,0,0-.9.27.858.858,0,0,0-.335.7l-1.6.007L84.957-5.3a1.832,1.832,0,0,1,.783-1.552A3.317,3.317,0,0,1,87.9-7.533a3.164,3.164,0,0,1,2.085.656,2.31,2.31,0,0,1,.793,1.887V-1.7a6.064,6.064,0,0,0,.062.878,4.664,4.664,0,0,0,.2.824Zm-2.03-1.189A2.076,2.076,0,0,0,88.454-1.5a1.583,1.583,0,0,0,.667-.718V-3.315H87.8a1.666,1.666,0,0,0-1.135.359,1.09,1.09,0,0,0-.41.844.861.861,0,0,0,.277.673A1.151,1.151,0,0,0,87.329-1.189ZM94.343,0H92.688V-1.593h1.654Zm0-5.988H92.688V-7.581h1.654Zm11.908,2.536A4.181,4.181,0,0,1,105.5-.844a2.525,2.525,0,0,1-2.129.988,2.437,2.437,0,0,1-1.21-.287,2.372,2.372,0,0,1-.854-.834L101.1,0H99.757V-10.664h1.661v4.108a2.385,2.385,0,0,1,.82-.725,2.35,2.35,0,0,1,1.114-.253,2.461,2.461,0,0,1,2.143,1.08,4.891,4.891,0,0,1,.755,2.857ZM104.59-3.6a3.819,3.819,0,0,0-.4-1.866,1.337,1.337,0,0,0-1.258-.711,1.645,1.645,0,0,0-.926.246,1.72,1.72,0,0,0-.591.684v3.1a1.629,1.629,0,0,0,.588.687,1.707,1.707,0,0,0,.943.243,1.377,1.377,0,0,0,1.251-.6,3,3,0,0,0,.39-1.637ZM112.144,0q-.089-.28-.147-.547a3.91,3.91,0,0,1-.079-.533,2.849,2.849,0,0,1-.9.872,2.3,2.3,0,0,1-1.251.352A2.459,2.459,0,0,1,108-.451a2.16,2.16,0,0,1-.619-1.634,1.93,1.93,0,0,1,.848-1.671,4.093,4.093,0,0,1,2.386-.6H111.9V-5a1.208,1.208,0,0,0-.338-.909,1.354,1.354,0,0,0-.981-.328,1.4,1.4,0,0,0-.9.27.858.858,0,0,0-.335.7l-1.6.007-.007-.041a1.832,1.832,0,0,1,.783-1.552,3.317,3.317,0,0,1,2.164-.677,3.164,3.164,0,0,1,2.085.656,2.31,2.31,0,0,1,.793,1.887V-1.7a6.064,6.064,0,0,0,.062.878,4.664,4.664,0,0,0,.2.824Zm-2.03-1.189a2.076,2.076,0,0,0,1.125-.314,1.583,1.583,0,0,0,.667-.718V-3.315h-1.319a1.666,1.666,0,0,0-1.135.359,1.09,1.09,0,0,0-.41.844.861.861,0,0,0,.277.673A1.151,1.151,0,0,0,110.113-1.189ZM115.042-3.6A4.878,4.878,0,0,1,115.8-6.45a2.454,2.454,0,0,1,2.133-1.083,2.33,2.33,0,0,1,1.166.284,2.463,2.463,0,0,1,.851.817l.164-.964H121.5V0a2.791,2.791,0,0,1-.882,2.208,3.657,3.657,0,0,1-2.5.779,4.9,4.9,0,0,1-1.166-.154,5.414,5.414,0,0,1-1.131-.407l.267-1.306a4.209,4.209,0,0,0,.947.332,4.782,4.782,0,0,0,1.07.12,1.9,1.9,0,0,0,1.319-.386A1.542,1.542,0,0,0,119.834,0V-.759a2.324,2.324,0,0,1-.824.673,2.482,2.482,0,0,1-1.09.229A2.517,2.517,0,0,1,115.8-.848a4.17,4.17,0,0,1-.759-2.6Zm1.654.144a2.958,2.958,0,0,0,.4,1.634,1.385,1.385,0,0,0,1.251.608,1.7,1.7,0,0,0,.9-.222,1.64,1.64,0,0,0,.591-.639v-3.24a1.775,1.775,0,0,0-.6-.632,1.622,1.622,0,0,0-.878-.229,1.345,1.345,0,0,0-1.258.714,3.769,3.769,0,0,0-.4,1.863ZM127.688,0q-.089-.28-.147-.547a3.91,3.91,0,0,1-.079-.533,2.849,2.849,0,0,1-.9.872,2.3,2.3,0,0,1-1.251.352,2.459,2.459,0,0,1-1.774-.595,2.16,2.16,0,0,1-.619-1.634,1.93,1.93,0,0,1,.848-1.671,4.093,4.093,0,0,1,2.386-.6h1.292V-5a1.208,1.208,0,0,0-.338-.909,1.354,1.354,0,0,0-.981-.328,1.4,1.4,0,0,0-.9.27.858.858,0,0,0-.335.7l-1.6.007-.007-.041a1.832,1.832,0,0,1,.783-1.552,3.317,3.317,0,0,1,2.164-.677,3.164,3.164,0,0,1,2.085.656,2.31,2.31,0,0,1,.793,1.887V-1.7a6.064,6.064,0,0,0,.062.878,4.665,4.665,0,0,0,.2.824Zm-2.03-1.189a2.076,2.076,0,0,0,1.125-.314,1.583,1.583,0,0,0,.667-.718V-3.315H126.13A1.666,1.666,0,0,0,125-2.957a1.09,1.09,0,0,0-.41.844.861.861,0,0,0,.277.673A1.151,1.151,0,0,0,125.658-1.189Zm6.952-.137h3.951V0h-6.009V-1.087l3.732-4.97h-3.657V-7.4h5.756v1.053Zm4.831-2.44a4.016,4.016,0,0,1,.906-2.71,3.093,3.093,0,0,1,2.478-1.056,3.117,3.117,0,0,1,2.5,1.056,4.016,4.016,0,0,1,.906,2.71v.144a4.01,4.01,0,0,1-.906,2.717A3.11,3.11,0,0,1,140.839.144a3.114,3.114,0,0,1-2.492-1.053,4.013,4.013,0,0,1-.906-2.714Zm1.661.144a3.281,3.281,0,0,0,.424,1.764,1.439,1.439,0,0,0,1.313.677,1.442,1.442,0,0,0,1.3-.68,3.224,3.224,0,0,0,.434-1.76v-.144a3.217,3.217,0,0,0-.434-1.747,1.451,1.451,0,0,0-1.316-.687,1.423,1.423,0,0,0-1.3.687,3.257,3.257,0,0,0-.427,1.747Zm11.7-2.816a2.637,2.637,0,0,1,.9-.807,2.42,2.42,0,0,1,1.172-.287,2.329,2.329,0,0,1,1.835.742,3.366,3.366,0,0,1,.66,2.287V0h-1.661V-4.519a1.915,1.915,0,0,0-.338-1.261,1.258,1.258,0,0,0-1.008-.393,2.1,2.1,0,0,0-.923.188,1.681,1.681,0,0,0-.636.523V0h-1.661V-10.664h1.661Zm10.9,5.346a2.481,2.481,0,0,1-.878.916,2.368,2.368,0,0,1-1.241.321,2.316,2.316,0,0,1-1.859-.783,3.68,3.68,0,0,1-.67-2.43V-7.4h1.654v4.341a2.472,2.472,0,0,0,.308,1.453,1.14,1.14,0,0,0,.957.393,2.136,2.136,0,0,0,1.008-.215,1.564,1.564,0,0,0,.639-.625V-7.4h1.661V0h-1.429ZM160.7-10.4h1.88l.014.041-1.866,1.777h-1.333ZM166.542-7.4l.089.964a2.507,2.507,0,0,1,.909-.813,2.681,2.681,0,0,1,1.265-.287,2.282,2.282,0,0,1,1.244.328,1.983,1.983,0,0,1,.779.984,2.591,2.591,0,0,1,.9-.964,2.434,2.434,0,0,1,1.313-.349,2.169,2.169,0,0,1,1.76.776,3.609,3.609,0,0,1,.646,2.348V0h-1.661V-4.416a2.179,2.179,0,0,0-.325-1.364,1.19,1.19,0,0,0-.974-.393,1.425,1.425,0,0,0-.9.287,1.6,1.6,0,0,0-.533.772q0,.1.007.178t.007.144V0h-1.661V-4.416a2.155,2.155,0,0,0-.332-1.347,1.179,1.179,0,0,0-.974-.41,1.749,1.749,0,0,0-.858.195,1.436,1.436,0,0,0-.557.55V0h-1.661V-7.4ZM180.337.144A3.221,3.221,0,0,1,177.8-.878a3.827,3.827,0,0,1-.913-2.649V-3.8a3.957,3.957,0,0,1,.913-2.683,2.949,2.949,0,0,1,2.355-1.049,2.768,2.768,0,0,1,2.256.919,3.718,3.718,0,0,1,.766,2.458v.9h-4.573l-.014.034a2.423,2.423,0,0,0,.479,1.477,1.633,1.633,0,0,0,1.36.567,3.743,3.743,0,0,0,1.172-.164,3.347,3.347,0,0,0,.919-.472l.54,1.087a3.52,3.52,0,0,1-1.121.622A4.7,4.7,0,0,1,180.337.144ZM180.159-6.2a1.283,1.283,0,0,0-1.039.468,2.321,2.321,0,0,0-.485,1.22l.014.034h2.892v-.13a1.867,1.867,0,0,0-.332-1.152A1.227,1.227,0,0,0,180.159-6.2Zm4.061,2.6a4.878,4.878,0,0,1,.759-2.854,2.454,2.454,0,0,1,2.133-1.083,2.333,2.333,0,0,1,1.077.243,2.437,2.437,0,0,1,.824.694v-4.067h1.661V0h-1.347l-.2-.937a2.467,2.467,0,0,1-.861.8A2.4,2.4,0,0,1,187.1.144a2.517,2.517,0,0,1-2.119-.991,4.17,4.17,0,0,1-.759-2.6Zm1.661.144a2.979,2.979,0,0,0,.393,1.634,1.376,1.376,0,0,0,1.248.608,1.668,1.668,0,0,0,.892-.226,1.717,1.717,0,0,0,.6-.643V-5.3a1.749,1.749,0,0,0-.6-.639,1.626,1.626,0,0,0-.875-.229,1.339,1.339,0,0,0-1.251.714,3.769,3.769,0,0,0-.4,1.863Zm6.269-.314a4.016,4.016,0,0,1,.906-2.71,3.093,3.093,0,0,1,2.478-1.056,3.117,3.117,0,0,1,2.5,1.056,4.016,4.016,0,0,1,.906,2.71v.144a4.01,4.01,0,0,1-.906,2.717A3.11,3.11,0,0,1,195.547.144a3.114,3.114,0,0,1-2.492-1.053,4.013,4.013,0,0,1-.906-2.714Zm1.661.144a3.281,3.281,0,0,0,.424,1.764,1.439,1.439,0,0,0,1.313.677,1.442,1.442,0,0,0,1.3-.68,3.224,3.224,0,0,0,.434-1.76v-.144a3.217,3.217,0,0,0-.434-1.747,1.451,1.451,0,0,0-1.316-.687,1.423,1.423,0,0,0-1.3.687,3.257,3.257,0,0,0-.427,1.747ZM202.212,0h-1.654V-1.593h1.654Z" transform="translate(-3024.67 -5151.863)" fill="#0c1d30"/>
    <path id="Trazado_204641" data-name="Trazado 204641" d="M6.953-2.625H7l3.289-8.75h2.422V0h-1.9V-8.172l-.047-.008L7.633,0h-1.3L3.141-8.336l-.047.016V0H1.2V-11.375H3.688ZM14.563-4.3A4.59,4.59,0,0,1,15.6-7.4,3.535,3.535,0,0,1,18.43-8.609,3.562,3.562,0,0,1,21.285-7.4,4.59,4.59,0,0,1,22.32-4.3v.164a4.583,4.583,0,0,1-1.035,3.105,3.555,3.555,0,0,1-2.84,1.2,3.558,3.558,0,0,1-2.848-1.2,4.587,4.587,0,0,1-1.035-3.1Zm1.9.164a3.75,3.75,0,0,0,.484,2.016,1.645,1.645,0,0,0,1.5.773,1.648,1.648,0,0,0,1.488-.777,3.684,3.684,0,0,0,.5-2.012V-4.3a3.676,3.676,0,0,0-.5-2,1.658,1.658,0,0,0-1.5-.785,1.626,1.626,0,0,0-1.48.785,3.722,3.722,0,0,0-.488,2ZM26,0H24.1V-12.187H26Zm4.148,0h-1.9V-8.453h1.9Zm0-10.523h-1.9v-1.664h1.9ZM35.859.164A3.681,3.681,0,0,1,32.965-1a4.374,4.374,0,0,1-1.043-3.027v-.312A4.522,4.522,0,0,1,32.965-7.41a3.37,3.37,0,0,1,2.691-1.2,3.163,3.163,0,0,1,2.578,1.051,4.249,4.249,0,0,1,.875,2.809v1.023H33.883l-.016.039A2.77,2.77,0,0,0,34.414-2a1.866,1.866,0,0,0,1.555.648,4.277,4.277,0,0,0,1.34-.187,3.825,3.825,0,0,0,1.051-.539l.617,1.242A4.023,4.023,0,0,1,37.7-.125,5.37,5.37,0,0,1,35.859.164Zm-.2-7.25a1.467,1.467,0,0,0-1.187.535,2.652,2.652,0,0,0-.555,1.395l.016.039h3.3v-.148a2.134,2.134,0,0,0-.379-1.316A1.4,1.4,0,0,0,35.656-7.086Zm6.711-1.367.109,1.219A3.024,3.024,0,0,1,43.52-8.246a2.783,2.783,0,0,1,1.418-.363A2.64,2.64,0,0,1,47-7.8a3.692,3.692,0,0,1,.738,2.539V0h-1.9V-5.242a2.042,2.042,0,0,0-.383-1.4A1.5,1.5,0,0,0,44.3-7.055a2.267,2.267,0,0,0-1.055.23,1.847,1.847,0,0,0-.711.637V0h-1.9V-8.453Zm6.992,4.344a5.574,5.574,0,0,1,.867-3.262,2.8,2.8,0,0,1,2.438-1.238,2.666,2.666,0,0,1,1.23.277,2.785,2.785,0,0,1,.941.793v-4.648h1.9V0H55.2l-.227-1.07a2.82,2.82,0,0,1-.984.918,2.738,2.738,0,0,1-1.336.316A2.876,2.876,0,0,1,50.227-.969a4.766,4.766,0,0,1-.867-2.977Zm1.9.164a3.4,3.4,0,0,0,.449,1.867,1.573,1.573,0,0,0,1.426.7,1.906,1.906,0,0,0,1.02-.258,1.963,1.963,0,0,0,.684-.734V-6.062a2,2,0,0,0-.687-.73,1.859,1.859,0,0,0-1-.262,1.531,1.531,0,0,0-1.43.816,4.308,4.308,0,0,0-.461,2.129ZM63.867,0q-.1-.32-.168-.625a4.468,4.468,0,0,1-.09-.609,3.256,3.256,0,0,1-1.023,1,2.633,2.633,0,0,1-1.43.4,2.81,2.81,0,0,1-2.027-.68,2.468,2.468,0,0,1-.707-1.867,2.206,2.206,0,0,1,.969-1.91,4.678,4.678,0,0,1,2.727-.684h1.477v-.742a1.38,1.38,0,0,0-.387-1.039,1.547,1.547,0,0,0-1.121-.375,1.6,1.6,0,0,0-1.031.309.981.981,0,0,0-.383.8l-1.828.008-.008-.047a2.094,2.094,0,0,1,.895-1.773A3.79,3.79,0,0,1,62.2-8.609a3.617,3.617,0,0,1,2.383.75A2.64,2.64,0,0,1,65.492-5.7v3.758a6.93,6.93,0,0,0,.07,1A5.331,5.331,0,0,0,65.789,0Zm-2.32-1.359a2.373,2.373,0,0,0,1.285-.359,1.81,1.81,0,0,0,.762-.82v-1.25H62.086a1.9,1.9,0,0,0-1.3.41,1.246,1.246,0,0,0-.469.965.984.984,0,0,0,.316.77A1.315,1.315,0,0,0,61.547-1.359Z" transform="translate(-3419.384 -5204.756)" fill="#0c1d30"/>
    <path id="Trazado_204642" data-name="Trazado 204642" d="M7.117-2.656H3.086L2.211,0H.25L4.219-11.375h1.8L9.945,0H7.984ZM3.609-4.242H6.6L5.141-8.727H5.094ZM14.6-1.352a1.577,1.577,0,0,0,1.1-.406,1.33,1.33,0,0,0,.449-1.031h1.719l.016.047A2.549,2.549,0,0,1,16.941-.7,3.413,3.413,0,0,1,14.6.164a3.444,3.444,0,0,1-2.82-1.207,4.633,4.633,0,0,1-.992-3.043v-.273A4.637,4.637,0,0,1,11.781-7.4a3.43,3.43,0,0,1,2.813-1.211,3.316,3.316,0,0,1,2.4.887,2.894,2.894,0,0,1,.891,2.254l-.016.047H16.148a1.715,1.715,0,0,0-.43-1.18,1.432,1.432,0,0,0-1.125-.484,1.549,1.549,0,0,0-1.461.785,3.885,3.885,0,0,0-.445,1.941v.273a3.921,3.921,0,0,0,.441,1.957A1.558,1.558,0,0,0,14.6-1.352Zm7.3-9.156v2.055h1.516v1.406H21.906v4.672a1.019,1.019,0,0,0,.227.746.821.821,0,0,0,.6.223,1.679,1.679,0,0,0,.3-.027,1.852,1.852,0,0,0,.281-.074l.2,1.391a2.181,2.181,0,0,1-.574.207,3.161,3.161,0,0,1-.691.074,2.19,2.19,0,0,1-1.645-.613,2.674,2.674,0,0,1-.6-1.926V-7.047H18.727V-8.453h1.289v-2.055ZM26.977,0h-1.9V-8.453h1.9Zm0-10.523h-1.9v-1.664h1.9Zm5.063,7.664.141.688h.047l.148-.687,1.68-5.594h1.961L33.016,0H31.367L28.352-8.453h1.961ZM39.234,0h-1.9V-8.453h1.9Zm0-10.523h-1.9v-1.664h1.9Zm1.773,6.414a5.574,5.574,0,0,1,.867-3.262,2.8,2.8,0,0,1,2.438-1.238,2.666,2.666,0,0,1,1.23.277,2.785,2.785,0,0,1,.941.793v-4.648h1.9V0H46.844l-.227-1.07a2.82,2.82,0,0,1-.984.918A2.738,2.738,0,0,1,44.3.164,2.876,2.876,0,0,1,41.875-.969a4.766,4.766,0,0,1-.867-2.977Zm1.9.164a3.4,3.4,0,0,0,.449,1.867,1.573,1.573,0,0,0,1.426.7,1.906,1.906,0,0,0,1.02-.258,1.963,1.963,0,0,0,.684-.734V-6.062a2,2,0,0,0-.687-.73,1.859,1.859,0,0,0-1-.262,1.531,1.531,0,0,0-1.43.816,4.308,4.308,0,0,0-.461,2.129ZM55.516,0q-.1-.32-.168-.625a4.468,4.468,0,0,1-.09-.609,3.256,3.256,0,0,1-1.023,1,2.633,2.633,0,0,1-1.43.4,2.81,2.81,0,0,1-2.027-.68,2.468,2.468,0,0,1-.707-1.867,2.206,2.206,0,0,1,.969-1.91,4.678,4.678,0,0,1,2.727-.684h1.477v-.742a1.38,1.38,0,0,0-.387-1.039,1.547,1.547,0,0,0-1.121-.375,1.6,1.6,0,0,0-1.031.309.981.981,0,0,0-.383.8l-1.828.008-.008-.047a2.094,2.094,0,0,1,.895-1.773,3.79,3.79,0,0,1,2.473-.773,3.617,3.617,0,0,1,2.383.75A2.64,2.64,0,0,1,57.141-5.7v3.758a6.93,6.93,0,0,0,.07,1A5.331,5.331,0,0,0,57.438,0ZM53.2-1.359a2.373,2.373,0,0,0,1.285-.359,1.81,1.81,0,0,0,.762-.82v-1.25H53.734a1.9,1.9,0,0,0-1.3.41,1.246,1.246,0,0,0-.469.965.984.984,0,0,0,.316.77A1.315,1.315,0,0,0,53.2-1.359Zm5.578-2.75a5.574,5.574,0,0,1,.867-3.262,2.8,2.8,0,0,1,2.438-1.238,2.666,2.666,0,0,1,1.23.277,2.785,2.785,0,0,1,.941.793v-4.648h1.9V0H64.609l-.227-1.07a2.82,2.82,0,0,1-.984.918,2.738,2.738,0,0,1-1.336.316A2.876,2.876,0,0,1,59.641-.969a4.766,4.766,0,0,1-.867-2.977Zm1.9.164a3.4,3.4,0,0,0,.449,1.867,1.573,1.573,0,0,0,1.426.7,1.906,1.906,0,0,0,1.02-.258,1.963,1.963,0,0,0,.684-.734V-6.062a2,2,0,0,0-.687-.73,1.859,1.859,0,0,0-1-.262,1.531,1.531,0,0,0-1.43.816,4.308,4.308,0,0,0-.461,2.129Z" transform="translate(-3392.233 -5299.764)" fill="#0c1d30"/>
    <path id="Trazado_204646" data-name="Trazado 204646" d="M7.117-2.656H3.086L2.211,0H.25L4.219-11.375h1.8L9.945,0H7.984ZM3.609-4.242H6.6L5.141-8.727H5.094Zm12.3,1.93a.875.875,0,0,0-.371-.723,3.838,3.838,0,0,0-1.4-.512,5.7,5.7,0,0,1-2.281-.9,1.893,1.893,0,0,1-.789-1.594,2.3,2.3,0,0,1,.9-1.816,3.56,3.56,0,0,1,2.367-.754,3.671,3.671,0,0,1,2.441.777,2.252,2.252,0,0,1,.887,1.871l-.016.047H15.82a1.185,1.185,0,0,0-.406-.895,1.528,1.528,0,0,0-1.086-.379,1.552,1.552,0,0,0-1.047.313.977.977,0,0,0-.359.766.823.823,0,0,0,.336.688,3.682,3.682,0,0,0,1.383.461,5.727,5.727,0,0,1,2.344.918,1.939,1.939,0,0,1,.789,1.621,2.246,2.246,0,0,1-.941,1.863,3.965,3.965,0,0,1-2.48.723,3.786,3.786,0,0,1-2.6-.844,2.383,2.383,0,0,1-.906-1.937l.016-.047h1.766a1.266,1.266,0,0,0,.531,1.07,2.135,2.135,0,0,0,1.219.336A1.909,1.909,0,0,0,15.5-1.547.9.9,0,0,0,15.906-2.312ZM26.883-3.945a4.766,4.766,0,0,1-.867,2.977A2.868,2.868,0,0,1,23.6.164a2.99,2.99,0,0,1-1.273-.258,2.62,2.62,0,0,1-.953-.758v4.1h-1.9v-11.7h1.6l.188,1.063a2.819,2.819,0,0,1,.98-.906,2.743,2.743,0,0,1,1.332-.312,2.807,2.807,0,0,1,2.434,1.238,5.556,5.556,0,0,1,.871,3.262Zm-1.891-.164A4.118,4.118,0,0,0,24.5-6.23a1.588,1.588,0,0,0-1.457-.824,1.893,1.893,0,0,0-1.008.254,1.869,1.869,0,0,0-.664.707v3.82a1.766,1.766,0,0,0,.664.684,2.024,2.024,0,0,0,1.023.238,1.629,1.629,0,0,0,1.449-.715,3.312,3.312,0,0,0,.48-1.879ZM32.125.164A3.681,3.681,0,0,1,29.23-1a4.374,4.374,0,0,1-1.043-3.027v-.312A4.522,4.522,0,0,1,29.23-7.41a3.37,3.37,0,0,1,2.691-1.2A3.163,3.163,0,0,1,34.5-7.559a4.249,4.249,0,0,1,.875,2.809v1.023H30.148l-.016.039A2.77,2.77,0,0,0,30.68-2a1.866,1.866,0,0,0,1.555.648,4.277,4.277,0,0,0,1.34-.187,3.825,3.825,0,0,0,1.051-.539l.617,1.242a4.023,4.023,0,0,1-1.281.711A5.37,5.37,0,0,1,32.125.164Zm-.2-7.25a1.467,1.467,0,0,0-1.187.535,2.652,2.652,0,0,0-.555,1.395l.016.039h3.3v-.148a2.134,2.134,0,0,0-.379-1.316A1.4,1.4,0,0,0,31.922-7.086Zm8.438,5.734a1.577,1.577,0,0,0,1.1-.406,1.33,1.33,0,0,0,.449-1.031h1.719l.016.047A2.549,2.549,0,0,1,42.7-.7a3.413,3.413,0,0,1-2.34.859,3.444,3.444,0,0,1-2.82-1.207,4.633,4.633,0,0,1-.992-3.043v-.273A4.637,4.637,0,0,1,37.539-7.4a3.43,3.43,0,0,1,2.813-1.211,3.316,3.316,0,0,1,2.4.887,2.894,2.894,0,0,1,.891,2.254l-.016.047H41.906a1.715,1.715,0,0,0-.43-1.18,1.432,1.432,0,0,0-1.125-.484,1.549,1.549,0,0,0-1.461.785,3.885,3.885,0,0,0-.445,1.941v.273a3.921,3.921,0,0,0,.441,1.957A1.558,1.558,0,0,0,40.359-1.352Zm7.3-9.156v2.055H49.18v1.406H47.664v4.672a1.019,1.019,0,0,0,.227.746.821.821,0,0,0,.6.223,1.678,1.678,0,0,0,.3-.027,1.852,1.852,0,0,0,.281-.074l.2,1.391a2.181,2.181,0,0,1-.574.207,3.161,3.161,0,0,1-.691.074,2.19,2.19,0,0,1-1.645-.613,2.674,2.674,0,0,1-.6-1.926V-7.047H44.484V-8.453h1.289v-2.055Zm2.471,6.2a4.59,4.59,0,0,1,1.035-3.1A3.535,3.535,0,0,1,54-8.609,3.562,3.562,0,0,1,56.858-7.4a4.59,4.59,0,0,1,1.035,3.1v.164a4.583,4.583,0,0,1-1.035,3.105,3.555,3.555,0,0,1-2.84,1.2,3.558,3.558,0,0,1-2.848-1.2,4.587,4.587,0,0,1-1.035-3.1Zm1.9.164a3.75,3.75,0,0,0,.484,2.016,1.645,1.645,0,0,0,1.5.773,1.648,1.648,0,0,0,1.488-.777A3.684,3.684,0,0,0,56-4.141V-4.3a3.676,3.676,0,0,0-.5-2A1.658,1.658,0,0,0,54-7.086a1.626,1.626,0,0,0-1.48.785,3.722,3.722,0,0,0-.488,2Z" transform="translate(-3187.157 -5299.764)" fill="#0c1d30"/>
    <path id="Trazado_204643" data-name="Trazado 204643" d="M6.6-4.478h-3.9v3.151H7.3V0H1.046V-9.953H7.253V-8.62H2.707v2.81H6.6ZM10.145-7.4l.089.964a2.507,2.507,0,0,1,.909-.813,2.681,2.681,0,0,1,1.265-.287,2.282,2.282,0,0,1,1.244.328,1.983,1.983,0,0,1,.779.984,2.591,2.591,0,0,1,.9-.964,2.434,2.434,0,0,1,1.313-.349,2.169,2.169,0,0,1,1.76.776,3.609,3.609,0,0,1,.646,2.348V0H17.391V-4.416a2.179,2.179,0,0,0-.325-1.364,1.19,1.19,0,0,0-.974-.393,1.425,1.425,0,0,0-.9.287,1.6,1.6,0,0,0-.533.772q0,.1.007.178t.007.144V0H13.009V-4.416a2.154,2.154,0,0,0-.332-1.347,1.179,1.179,0,0,0-.974-.41,1.749,1.749,0,0,0-.858.195,1.436,1.436,0,0,0-.557.55V0H8.627V-7.4ZM22.572,0H20.911V-7.4h1.661Zm0-9.208H20.911v-1.456h1.661Zm6.016,7.185a.766.766,0,0,0-.325-.632A3.359,3.359,0,0,0,27.036-3.1a4.991,4.991,0,0,1-2-.786,1.656,1.656,0,0,1-.69-1.395,2.008,2.008,0,0,1,.786-1.589,3.115,3.115,0,0,1,2.071-.66,3.212,3.212,0,0,1,2.136.68,1.971,1.971,0,0,1,.776,1.637l-.014.041H28.513a1.036,1.036,0,0,0-.355-.783,1.337,1.337,0,0,0-.95-.332,1.358,1.358,0,0,0-.916.273.855.855,0,0,0-.314.67.72.72,0,0,0,.294.6,3.222,3.222,0,0,0,1.21.4,5.011,5.011,0,0,1,2.051.8,1.7,1.7,0,0,1,.69,1.418A1.966,1.966,0,0,1,29.4-.489a3.469,3.469,0,0,1-2.17.632,3.313,3.313,0,0,1-2.276-.738,2.085,2.085,0,0,1-.793-1.7l.014-.041h1.545a1.108,1.108,0,0,0,.465.937,1.868,1.868,0,0,0,1.066.294,1.671,1.671,0,0,0,.988-.253A.787.787,0,0,0,28.588-2.023ZM33.482,0H31.821V-7.4h1.661Zm0-9.208H31.821v-1.456h1.661Zm1.552,5.441a4.016,4.016,0,0,1,.906-2.71,3.093,3.093,0,0,1,2.478-1.056,3.117,3.117,0,0,1,2.5,1.056,4.016,4.016,0,0,1,.906,2.71v.144a4.01,4.01,0,0,1-.906,2.717A3.11,3.11,0,0,1,38.432.144,3.114,3.114,0,0,1,35.94-.909a4.013,4.013,0,0,1-.906-2.714Zm1.661.144a3.281,3.281,0,0,0,.424,1.764,1.439,1.439,0,0,0,1.313.677,1.442,1.442,0,0,0,1.3-.68,3.223,3.223,0,0,0,.434-1.76v-.144a3.217,3.217,0,0,0-.434-1.747A1.451,1.451,0,0,0,38.418-6.2a1.423,1.423,0,0,0-1.3.687A3.257,3.257,0,0,0,36.7-3.767ZM44.775-7.4l.1,1.066a2.646,2.646,0,0,1,.913-.885,2.435,2.435,0,0,1,1.241-.318,2.31,2.31,0,0,1,1.8.711A3.23,3.23,0,0,1,49.472-4.6V0H47.811V-4.587a1.786,1.786,0,0,0-.335-1.224,1.312,1.312,0,0,0-1.012-.362,1.983,1.983,0,0,0-.923.2,1.616,1.616,0,0,0-.622.557V0H43.258V-7.4ZM54.339.144A3.221,3.221,0,0,1,51.806-.878a3.827,3.827,0,0,1-.913-2.649V-3.8a3.957,3.957,0,0,1,.913-2.683,2.949,2.949,0,0,1,2.355-1.049,2.768,2.768,0,0,1,2.256.919,3.718,3.718,0,0,1,.766,2.458v.9H52.609l-.014.034a2.423,2.423,0,0,0,.479,1.477,1.633,1.633,0,0,0,1.36.567,3.743,3.743,0,0,0,1.172-.164,3.347,3.347,0,0,0,.919-.472l.54,1.087a3.52,3.52,0,0,1-1.121.622A4.7,4.7,0,0,1,54.339.144ZM54.161-6.2a1.283,1.283,0,0,0-1.039.468,2.321,2.321,0,0,0-.485,1.22l.014.034h2.892v-.13a1.867,1.867,0,0,0-.332-1.152A1.227,1.227,0,0,0,54.161-6.2Zm8.524,4.177a.766.766,0,0,0-.325-.632A3.359,3.359,0,0,0,61.134-3.1a4.991,4.991,0,0,1-2-.786,1.656,1.656,0,0,1-.69-1.395,2.008,2.008,0,0,1,.786-1.589,3.115,3.115,0,0,1,2.071-.66,3.212,3.212,0,0,1,2.136.68,1.971,1.971,0,0,1,.776,1.637l-.014.041H62.61a1.036,1.036,0,0,0-.355-.783,1.337,1.337,0,0,0-.95-.332,1.358,1.358,0,0,0-.916.273.855.855,0,0,0-.314.67.72.72,0,0,0,.294.6,3.222,3.222,0,0,0,1.21.4,5.011,5.011,0,0,1,2.051.8,1.7,1.7,0,0,1,.69,1.418A1.966,1.966,0,0,1,63.5-.489a3.469,3.469,0,0,1-2.17.632,3.313,3.313,0,0,1-2.276-.738,2.085,2.085,0,0,1-.793-1.7l.014-.041h1.545a1.108,1.108,0,0,0,.465.937,1.868,1.868,0,0,0,1.066.294,1.671,1.671,0,0,0,.988-.253A.787.787,0,0,0,62.686-2.023ZM73.753,0q-.089-.28-.147-.547a3.91,3.91,0,0,1-.079-.533,2.849,2.849,0,0,1-.9.872,2.3,2.3,0,0,1-1.251.352,2.459,2.459,0,0,1-1.774-.595,2.16,2.16,0,0,1-.619-1.634,1.93,1.93,0,0,1,.848-1.671,4.093,4.093,0,0,1,2.386-.6h1.292V-5a1.208,1.208,0,0,0-.338-.909,1.354,1.354,0,0,0-.981-.328,1.4,1.4,0,0,0-.9.27.858.858,0,0,0-.335.7l-1.6.007L69.351-5.3a1.832,1.832,0,0,1,.783-1.552A3.317,3.317,0,0,1,72.3-7.533a3.164,3.164,0,0,1,2.085.656,2.31,2.31,0,0,1,.793,1.887V-1.7a6.064,6.064,0,0,0,.062.878,4.664,4.664,0,0,0,.2.824Zm-2.03-1.189A2.076,2.076,0,0,0,72.847-1.5a1.583,1.583,0,0,0,.667-.718V-3.315H72.194a1.666,1.666,0,0,0-1.135.359,1.09,1.09,0,0,0-.41.844.861.861,0,0,0,.277.673A1.151,1.151,0,0,0,71.723-1.189Zm7.314-8v1.8h1.326v1.23H79.037v4.088a.891.891,0,0,0,.2.653.718.718,0,0,0,.526.195,1.469,1.469,0,0,0,.267-.024,1.621,1.621,0,0,0,.246-.065L80.452-.1a1.908,1.908,0,0,1-.5.181,2.766,2.766,0,0,1-.6.065,1.916,1.916,0,0,1-1.439-.537,2.34,2.34,0,0,1-.523-1.685V-6.166H76.255V-7.4h1.128v-1.8Zm4.184,1.8.089.964a2.507,2.507,0,0,1,.909-.813,2.681,2.681,0,0,1,1.265-.287,2.282,2.282,0,0,1,1.244.328,1.983,1.983,0,0,1,.779.984,2.591,2.591,0,0,1,.9-.964,2.434,2.434,0,0,1,1.313-.349,2.169,2.169,0,0,1,1.76.776,3.609,3.609,0,0,1,.646,2.348V0H90.467V-4.416a2.179,2.179,0,0,0-.325-1.364,1.19,1.19,0,0,0-.974-.393,1.425,1.425,0,0,0-.9.287,1.6,1.6,0,0,0-.533.772q0,.1.007.178t.007.144V0H86.085V-4.416a2.154,2.154,0,0,0-.332-1.347,1.179,1.179,0,0,0-.974-.41,1.749,1.749,0,0,0-.858.195,1.436,1.436,0,0,0-.557.55V0H81.7V-7.4Zm10.35,3.63a4.016,4.016,0,0,1,.906-2.71,3.093,3.093,0,0,1,2.478-1.056,3.117,3.117,0,0,1,2.5,1.056,4.016,4.016,0,0,1,.906,2.71v.144a4.01,4.01,0,0,1-.906,2.717A3.11,3.11,0,0,1,96.968.144,3.114,3.114,0,0,1,94.476-.909a4.013,4.013,0,0,1-.906-2.714Zm1.661.144a3.281,3.281,0,0,0,.424,1.764,1.439,1.439,0,0,0,1.313.677,1.442,1.442,0,0,0,1.3-.68,3.223,3.223,0,0,0,.434-1.76v-.144a3.217,3.217,0,0,0-.434-1.747A1.451,1.451,0,0,0,96.954-6.2a1.423,1.423,0,0,0-1.3.687,3.257,3.257,0,0,0-.427,1.747Zm10.732,1.6a.766.766,0,0,0-.325-.632,3.359,3.359,0,0,0-1.227-.448,4.991,4.991,0,0,1-2-.786,1.656,1.656,0,0,1-.69-1.395,2.008,2.008,0,0,1,.786-1.589,3.115,3.115,0,0,1,2.071-.66,3.212,3.212,0,0,1,2.136.68,1.971,1.971,0,0,1,.776,1.637l-.014.041h-1.593a1.037,1.037,0,0,0-.355-.783,1.337,1.337,0,0,0-.95-.332,1.358,1.358,0,0,0-.916.273.855.855,0,0,0-.314.67.72.72,0,0,0,.294.6,3.222,3.222,0,0,0,1.21.4,5.011,5.011,0,0,1,2.051.8,1.7,1.7,0,0,1,.69,1.418,1.966,1.966,0,0,1-.824,1.63,3.469,3.469,0,0,1-2.17.632,3.313,3.313,0,0,1-2.276-.738,2.085,2.085,0,0,1-.793-1.7l.014-.041h1.545a1.108,1.108,0,0,0,.465.937,1.868,1.868,0,0,0,1.066.294,1.671,1.671,0,0,0,.988-.253A.787.787,0,0,0,105.964-2.023ZM109.628,0V-6.166H108.5V-7.4h1.128v-.861a2.545,2.545,0,0,1,.667-1.887,2.535,2.535,0,0,1,1.87-.663,3.211,3.211,0,0,1,.485.038q.246.038.554.106l-.171,1.285q-.137-.027-.3-.048a2.958,2.958,0,0,0-.359-.021,1.021,1.021,0,0,0-.81.308,1.3,1.3,0,0,0-.27.882V-7.4h1.374v1.23h-1.374V0ZM116.8.144a3.221,3.221,0,0,1-2.533-1.022,3.827,3.827,0,0,1-.913-2.649V-3.8a3.957,3.957,0,0,1,.913-2.683,2.949,2.949,0,0,1,2.355-1.049,2.768,2.768,0,0,1,2.256.919,3.718,3.718,0,0,1,.766,2.458v.9h-4.573l-.014.034a2.423,2.423,0,0,0,.479,1.477,1.633,1.633,0,0,0,1.36.567,3.743,3.743,0,0,0,1.172-.164,3.347,3.347,0,0,0,.919-.472l.54,1.087a3.52,3.52,0,0,1-1.121.622A4.7,4.7,0,0,1,116.8.144ZM116.621-6.2a1.283,1.283,0,0,0-1.039.468,2.321,2.321,0,0,0-.485,1.22l.014.034H118v-.13a1.867,1.867,0,0,0-.332-1.152A1.227,1.227,0,0,0,116.621-6.2ZM117-10.555h1.88l.014.041-1.866,1.777h-1.333ZM124.674-5.9l-.711-.027a1.49,1.49,0,0,0-.81.205,1.351,1.351,0,0,0-.5.581V0h-1.661V-7.4h1.518l.109,1.073a2.372,2.372,0,0,1,.721-.889,1.679,1.679,0,0,1,1.015-.321,1.548,1.548,0,0,1,.28.024,2.047,2.047,0,0,1,.239.058Zm3,5.9h-1.661V-7.4h1.661Zm0-9.208h-1.661v-1.456h1.661Zm4.874,8.025a1.38,1.38,0,0,0,.96-.355,1.163,1.163,0,0,0,.393-.9h1.5l.014.041A2.23,2.23,0,0,1,134.6-.608a2.986,2.986,0,0,1-2.047.752,3.014,3.014,0,0,1-2.468-1.056,4.054,4.054,0,0,1-.868-2.663v-.239a4.058,4.058,0,0,1,.868-2.659,3,3,0,0,1,2.461-1.06,2.9,2.9,0,0,1,2.1.776,2.533,2.533,0,0,1,.779,1.972l-.014.041h-1.5a1.5,1.5,0,0,0-.376-1.032,1.253,1.253,0,0,0-.984-.424,1.355,1.355,0,0,0-1.278.687,3.4,3.4,0,0,0-.39,1.7v.239a3.431,3.431,0,0,0,.386,1.712A1.363,1.363,0,0,0,132.549-1.183ZM141.271,0q-.089-.28-.147-.547a3.909,3.909,0,0,1-.079-.533,2.849,2.849,0,0,1-.9.872A2.3,2.3,0,0,1,138.9.144a2.459,2.459,0,0,1-1.774-.595,2.16,2.16,0,0,1-.619-1.634,1.93,1.93,0,0,1,.848-1.671,4.093,4.093,0,0,1,2.386-.6h1.292V-5a1.208,1.208,0,0,0-.338-.909,1.354,1.354,0,0,0-.981-.328,1.4,1.4,0,0,0-.9.27.858.858,0,0,0-.335.7l-1.6.007-.007-.041a1.832,1.832,0,0,1,.783-1.552,3.317,3.317,0,0,1,2.164-.677,3.164,3.164,0,0,1,2.085.656,2.31,2.31,0,0,1,.793,1.887V-1.7a6.064,6.064,0,0,0,.062.878,4.665,4.665,0,0,0,.2.824Zm-2.03-1.189a2.076,2.076,0,0,0,1.125-.314,1.583,1.583,0,0,0,.667-.718V-3.315h-1.319a1.665,1.665,0,0,0-1.135.359,1.09,1.09,0,0,0-.41.844.861.861,0,0,0,.277.673A1.151,1.151,0,0,0,139.241-1.189Zm9.345-.834a.766.766,0,0,0-.325-.632,3.359,3.359,0,0,0-1.227-.448,4.991,4.991,0,0,1-2-.786,1.656,1.656,0,0,1-.69-1.395,2.008,2.008,0,0,1,.786-1.589,3.115,3.115,0,0,1,2.071-.66,3.212,3.212,0,0,1,2.136.68,1.971,1.971,0,0,1,.776,1.637l-.014.041h-1.593a1.036,1.036,0,0,0-.355-.783,1.337,1.337,0,0,0-.95-.332,1.358,1.358,0,0,0-.916.273.855.855,0,0,0-.314.67.72.72,0,0,0,.294.6,3.222,3.222,0,0,0,1.21.4,5.011,5.011,0,0,1,2.051.8,1.7,1.7,0,0,1,.69,1.418,1.966,1.966,0,0,1-.824,1.63,3.469,3.469,0,0,1-2.17.632,3.313,3.313,0,0,1-2.276-.738,2.085,2.085,0,0,1-.793-1.7l.014-.041h1.545a1.108,1.108,0,0,0,.465.937,1.868,1.868,0,0,0,1.066.294,1.671,1.671,0,0,0,.988-.253A.787.787,0,0,0,148.586-2.023Z" transform="translate(-3248.99 -5262.293)" fill="#0c1d30"/>
    <path id="Trazado_204644" data-name="Trazado 204644" d="M8.422-1.347A3.484,3.484,0,0,1,7.113-.311,5.144,5.144,0,0,1,4.792.144,3.93,3.93,0,0,1,1.89-.995,3.982,3.982,0,0,1,.752-3.937V-6.016a4.057,4.057,0,0,1,1.1-2.943A3.764,3.764,0,0,1,4.683-10.1a3.9,3.9,0,0,1,2.707.875,2.849,2.849,0,0,1,.943,2.283L8.313-6.9H6.733A1.81,1.81,0,0,0,6.21-8.251a2.055,2.055,0,0,0-1.5-.513,2.046,2.046,0,0,0-1.665.772,3,3,0,0,0-.632,1.962v2.092a2.949,2.949,0,0,0,.66,1.979,2.149,2.149,0,0,0,1.719.776,3.576,3.576,0,0,0,1.265-.181,1.86,1.86,0,0,0,.7-.441V-3.862H4.676V-5.106H8.422Zm5,1.49A3.221,3.221,0,0,1,10.886-.878a3.827,3.827,0,0,1-.913-2.649V-3.8a3.957,3.957,0,0,1,.913-2.683,2.949,2.949,0,0,1,2.355-1.049,2.768,2.768,0,0,1,2.256.919,3.718,3.718,0,0,1,.766,2.458v.9H11.689l-.014.034a2.423,2.423,0,0,0,.479,1.477,1.633,1.633,0,0,0,1.36.567,3.743,3.743,0,0,0,1.172-.164,3.347,3.347,0,0,0,.919-.472l.54,1.087a3.52,3.52,0,0,1-1.121.622A4.7,4.7,0,0,1,13.419.144ZM13.241-6.2a1.283,1.283,0,0,0-1.039.468,2.321,2.321,0,0,0-.485,1.22l.014.034h2.892v-.13a1.867,1.867,0,0,0-.332-1.152A1.227,1.227,0,0,0,13.241-6.2Zm5.872-1.2.1,1.066a2.646,2.646,0,0,1,.913-.885,2.435,2.435,0,0,1,1.241-.318,2.31,2.31,0,0,1,1.8.711A3.23,3.23,0,0,1,23.81-4.6V0H22.148V-4.587a1.786,1.786,0,0,0-.335-1.224A1.312,1.312,0,0,0,20.8-6.173a1.983,1.983,0,0,0-.923.2,1.616,1.616,0,0,0-.622.557V0H17.6V-7.4ZM28.677.144A3.221,3.221,0,0,1,26.144-.878a3.827,3.827,0,0,1-.913-2.649V-3.8a3.957,3.957,0,0,1,.913-2.683A2.949,2.949,0,0,1,28.5-7.533a2.768,2.768,0,0,1,2.256.919,3.718,3.718,0,0,1,.766,2.458v.9H26.947l-.014.034a2.423,2.423,0,0,0,.479,1.477,1.633,1.633,0,0,0,1.36.567,3.743,3.743,0,0,0,1.172-.164,3.347,3.347,0,0,0,.919-.472L31.4-.731a3.52,3.52,0,0,1-1.121.622A4.7,4.7,0,0,1,28.677.144ZM28.5-6.2a1.283,1.283,0,0,0-1.039.468,2.321,2.321,0,0,0-.485,1.22l.014.034H29.88v-.13a1.867,1.867,0,0,0-.332-1.152A1.227,1.227,0,0,0,28.5-6.2Zm8.053.3-.711-.027a1.49,1.49,0,0,0-.81.205,1.351,1.351,0,0,0-.5.581V0H32.867V-7.4h1.518l.109,1.073a2.372,2.372,0,0,1,.721-.889,1.679,1.679,0,0,1,1.015-.321,1.548,1.548,0,0,1,.28.024,2.047,2.047,0,0,1,.239.058ZM42.029,0q-.089-.28-.147-.547A3.909,3.909,0,0,1,41.8-1.08a2.849,2.849,0,0,1-.9.872,2.3,2.3,0,0,1-1.251.352,2.459,2.459,0,0,1-1.774-.595,2.16,2.16,0,0,1-.619-1.634,1.93,1.93,0,0,1,.848-1.671,4.093,4.093,0,0,1,2.386-.6H41.79V-5a1.208,1.208,0,0,0-.338-.909,1.354,1.354,0,0,0-.981-.328,1.4,1.4,0,0,0-.9.27.858.858,0,0,0-.335.7l-1.6.007L37.627-5.3a1.832,1.832,0,0,1,.783-1.552,3.317,3.317,0,0,1,2.164-.677,3.164,3.164,0,0,1,2.085.656,2.31,2.31,0,0,1,.793,1.887V-1.7a6.064,6.064,0,0,0,.062.878,4.665,4.665,0,0,0,.2.824ZM40-1.189A2.076,2.076,0,0,0,41.123-1.5a1.583,1.583,0,0,0,.667-.718V-3.315H40.471a1.666,1.666,0,0,0-1.135.359,1.09,1.09,0,0,0-.41.844.861.861,0,0,0,.277.673A1.151,1.151,0,0,0,40-1.189Zm8.2.007a1.38,1.38,0,0,0,.96-.355,1.163,1.163,0,0,0,.393-.9h1.5l.014.041a2.23,2.23,0,0,1-.824,1.791A2.986,2.986,0,0,1,48.2.144,3.014,3.014,0,0,1,45.734-.913a4.054,4.054,0,0,1-.868-2.663v-.239a4.058,4.058,0,0,1,.868-2.659A3,3,0,0,1,48.2-7.533a2.9,2.9,0,0,1,2.1.776,2.533,2.533,0,0,1,.779,1.972l-.014.041h-1.5a1.5,1.5,0,0,0-.376-1.032A1.253,1.253,0,0,0,48.2-6.2a1.355,1.355,0,0,0-1.278.687,3.4,3.4,0,0,0-.39,1.7v.239a3.431,3.431,0,0,0,.386,1.712A1.363,1.363,0,0,0,48.2-1.183ZM54.238,0H52.577V-7.4h1.661Zm0-9.208H52.577v-1.456h1.661ZM55.79-3.767a4.016,4.016,0,0,1,.906-2.71,3.093,3.093,0,0,1,2.478-1.056,3.117,3.117,0,0,1,2.5,1.056,4.016,4.016,0,0,1,.906,2.71v.144a4.01,4.01,0,0,1-.906,2.717A3.11,3.11,0,0,1,59.187.144,3.114,3.114,0,0,1,56.7-.909a4.013,4.013,0,0,1-.906-2.714Zm1.661.144a3.281,3.281,0,0,0,.424,1.764,1.439,1.439,0,0,0,1.313.677,1.442,1.442,0,0,0,1.3-.68,3.223,3.223,0,0,0,.434-1.76v-.144a3.217,3.217,0,0,0-.434-1.747A1.451,1.451,0,0,0,59.174-6.2a1.423,1.423,0,0,0-1.3.687,3.257,3.257,0,0,0-.427,1.747Zm2.256-6.925h1.88l.014.041L59.734-8.729H58.4ZM65.531-7.4l.1,1.066a2.646,2.646,0,0,1,.913-.885,2.435,2.435,0,0,1,1.241-.318,2.31,2.31,0,0,1,1.8.711A3.23,3.23,0,0,1,70.228-4.6V0H68.566V-4.587a1.786,1.786,0,0,0-.335-1.224,1.312,1.312,0,0,0-1.012-.362,1.983,1.983,0,0,0-.923.2,1.616,1.616,0,0,0-.622.557V0H64.014V-7.4Zm9.6,3.8a4.878,4.878,0,0,1,.759-2.854,2.454,2.454,0,0,1,2.133-1.083,2.333,2.333,0,0,1,1.077.243,2.437,2.437,0,0,1,.824.694v-4.067h1.661V0H80.242l-.2-.937a2.467,2.467,0,0,1-.861.8,2.4,2.4,0,0,1-1.169.277,2.517,2.517,0,0,1-2.119-.991,4.17,4.17,0,0,1-.759-2.6Zm1.661.144a2.979,2.979,0,0,0,.393,1.634,1.376,1.376,0,0,0,1.248.608,1.668,1.668,0,0,0,.892-.226,1.717,1.717,0,0,0,.6-.643V-5.3a1.749,1.749,0,0,0-.6-.639,1.626,1.626,0,0,0-.875-.229,1.339,1.339,0,0,0-1.251.714A3.769,3.769,0,0,0,76.8-3.6Zm9.714,3.6A3.221,3.221,0,0,1,83.978-.878a3.827,3.827,0,0,1-.913-2.649V-3.8a3.957,3.957,0,0,1,.913-2.683,2.949,2.949,0,0,1,2.355-1.049,2.768,2.768,0,0,1,2.256.919,3.718,3.718,0,0,1,.766,2.458v.9H84.781l-.014.034a2.423,2.423,0,0,0,.479,1.477,1.633,1.633,0,0,0,1.36.567,3.743,3.743,0,0,0,1.172-.164,3.347,3.347,0,0,0,.919-.472l.54,1.087a3.52,3.52,0,0,1-1.121.622A4.7,4.7,0,0,1,86.511.144ZM86.333-6.2a1.283,1.283,0,0,0-1.039.468,2.321,2.321,0,0,0-.485,1.22l.014.034h2.892v-.13a1.867,1.867,0,0,0-.332-1.152A1.227,1.227,0,0,0,86.333-6.2ZM92.472,0H90.811V-10.664h1.661Zm9.03-5.9-.711-.027a1.49,1.49,0,0,0-.81.205,1.351,1.351,0,0,0-.5.581V0H97.817V-7.4h1.518l.109,1.073a2.372,2.372,0,0,1,.721-.889,1.679,1.679,0,0,1,1.015-.321,1.548,1.548,0,0,1,.28.024,2.047,2.047,0,0,1,.239.058Zm5.845,4.806a2.481,2.481,0,0,1-.878.916,2.368,2.368,0,0,1-1.241.321,2.316,2.316,0,0,1-1.859-.783,3.68,3.68,0,0,1-.67-2.43V-7.4h1.654v4.341A2.472,2.472,0,0,0,104.66-1.6a1.14,1.14,0,0,0,.957.393,2.136,2.136,0,0,0,1.008-.215,1.564,1.564,0,0,0,.639-.625V-7.4h1.661V0H107.5ZM112.433,0h-1.661V-7.4h1.661Zm0-9.208h-1.661v-1.456h1.661ZM113.984-3.6a4.878,4.878,0,0,1,.759-2.854,2.454,2.454,0,0,1,2.133-1.083,2.333,2.333,0,0,1,1.077.243,2.437,2.437,0,0,1,.824.694v-4.067h1.661V0h-1.347l-.2-.937a2.467,2.467,0,0,1-.861.8,2.4,2.4,0,0,1-1.169.277,2.517,2.517,0,0,1-2.119-.991,4.17,4.17,0,0,1-.759-2.6Zm1.661.144a2.979,2.979,0,0,0,.393,1.634,1.376,1.376,0,0,0,1.248.608,1.668,1.668,0,0,0,.892-.226,1.717,1.717,0,0,0,.6-.643V-5.3a1.749,1.749,0,0,0-.6-.639,1.626,1.626,0,0,0-.875-.229,1.339,1.339,0,0,0-1.251.714,3.769,3.769,0,0,0-.4,1.863Zm6.269-.314a4.016,4.016,0,0,1,.906-2.71A3.093,3.093,0,0,1,125.3-7.533a3.117,3.117,0,0,1,2.5,1.056,4.017,4.017,0,0,1,.906,2.71v.144A4.01,4.01,0,0,1,127.8-.906,3.11,3.11,0,0,1,125.311.144,3.114,3.114,0,0,1,122.82-.909a4.013,4.013,0,0,1-.906-2.714Zm1.661.144A3.281,3.281,0,0,0,124-1.859a1.439,1.439,0,0,0,1.313.677,1.442,1.442,0,0,0,1.3-.68,3.223,3.223,0,0,0,.434-1.76v-.144a3.217,3.217,0,0,0-.434-1.747A1.451,1.451,0,0,0,125.3-6.2a1.423,1.423,0,0,0-1.3.687,3.257,3.257,0,0,0-.427,1.747Z" transform="translate(-3248.99 -5217.195)" fill="#0c1d30"/>
    <path id="Trazado_204645" data-name="Trazado 204645" d="M8.422-1.347A3.484,3.484,0,0,1,7.113-.311,5.144,5.144,0,0,1,4.792.144,3.93,3.93,0,0,1,1.89-.995,3.982,3.982,0,0,1,.752-3.937V-6.016a4.057,4.057,0,0,1,1.1-2.943A3.764,3.764,0,0,1,4.683-10.1a3.9,3.9,0,0,1,2.707.875,2.849,2.849,0,0,1,.943,2.283L8.313-6.9H6.733A1.81,1.81,0,0,0,6.21-8.251a2.055,2.055,0,0,0-1.5-.513,2.046,2.046,0,0,0-1.665.772,3,3,0,0,0-.632,1.962v2.092a2.949,2.949,0,0,0,.66,1.979,2.149,2.149,0,0,0,1.719.776,3.576,3.576,0,0,0,1.265-.181,1.86,1.86,0,0,0,.7-.441V-3.862H4.676V-5.106H8.422Zm5,1.49A3.221,3.221,0,0,1,10.886-.878a3.827,3.827,0,0,1-.913-2.649V-3.8a3.957,3.957,0,0,1,.913-2.683,2.949,2.949,0,0,1,2.355-1.049,2.768,2.768,0,0,1,2.256.919,3.718,3.718,0,0,1,.766,2.458v.9H11.689l-.014.034a2.423,2.423,0,0,0,.479,1.477,1.633,1.633,0,0,0,1.36.567,3.743,3.743,0,0,0,1.172-.164,3.347,3.347,0,0,0,.919-.472l.54,1.087a3.52,3.52,0,0,1-1.121.622A4.7,4.7,0,0,1,13.419.144ZM13.241-6.2a1.283,1.283,0,0,0-1.039.468,2.321,2.321,0,0,0-.485,1.22l.014.034h2.892v-.13a1.867,1.867,0,0,0-.332-1.152A1.227,1.227,0,0,0,13.241-6.2Zm5.872-1.2.1,1.066a2.646,2.646,0,0,1,.913-.885,2.435,2.435,0,0,1,1.241-.318,2.31,2.31,0,0,1,1.8.711A3.23,3.23,0,0,1,23.81-4.6V0H22.148V-4.587a1.786,1.786,0,0,0-.335-1.224A1.312,1.312,0,0,0,20.8-6.173a1.983,1.983,0,0,0-.923.2,1.616,1.616,0,0,0-.622.557V0H17.6V-7.4ZM28.677.144A3.221,3.221,0,0,1,26.144-.878a3.827,3.827,0,0,1-.913-2.649V-3.8a3.957,3.957,0,0,1,.913-2.683A2.949,2.949,0,0,1,28.5-7.533a2.768,2.768,0,0,1,2.256.919,3.718,3.718,0,0,1,.766,2.458v.9H26.947l-.014.034a2.423,2.423,0,0,0,.479,1.477,1.633,1.633,0,0,0,1.36.567,3.743,3.743,0,0,0,1.172-.164,3.347,3.347,0,0,0,.919-.472L31.4-.731a3.52,3.52,0,0,1-1.121.622A4.7,4.7,0,0,1,28.677.144ZM28.5-6.2a1.283,1.283,0,0,0-1.039.468,2.321,2.321,0,0,0-.485,1.22l.014.034H29.88v-.13a1.867,1.867,0,0,0-.332-1.152A1.227,1.227,0,0,0,28.5-6.2Zm8.053.3-.711-.027a1.49,1.49,0,0,0-.81.205,1.351,1.351,0,0,0-.5.581V0H32.867V-7.4h1.518l.109,1.073a2.372,2.372,0,0,1,.721-.889,1.679,1.679,0,0,1,1.015-.321,1.548,1.548,0,0,1,.28.024,2.047,2.047,0,0,1,.239.058ZM42.029,0q-.089-.28-.147-.547A3.909,3.909,0,0,1,41.8-1.08a2.849,2.849,0,0,1-.9.872,2.3,2.3,0,0,1-1.251.352,2.459,2.459,0,0,1-1.774-.595,2.16,2.16,0,0,1-.619-1.634,1.93,1.93,0,0,1,.848-1.671,4.093,4.093,0,0,1,2.386-.6H41.79V-5a1.208,1.208,0,0,0-.338-.909,1.354,1.354,0,0,0-.981-.328,1.4,1.4,0,0,0-.9.27.858.858,0,0,0-.335.7l-1.6.007L37.627-5.3a1.832,1.832,0,0,1,.783-1.552,3.317,3.317,0,0,1,2.164-.677,3.164,3.164,0,0,1,2.085.656,2.31,2.31,0,0,1,.793,1.887V-1.7a6.064,6.064,0,0,0,.062.878,4.665,4.665,0,0,0,.2.824ZM40-1.189A2.076,2.076,0,0,0,41.123-1.5a1.583,1.583,0,0,0,.667-.718V-3.315H40.471a1.666,1.666,0,0,0-1.135.359,1.09,1.09,0,0,0-.41.844.861.861,0,0,0,.277.673A1.151,1.151,0,0,0,40-1.189Zm8.2.007a1.38,1.38,0,0,0,.96-.355,1.163,1.163,0,0,0,.393-.9h1.5l.014.041a2.23,2.23,0,0,1-.824,1.791A2.986,2.986,0,0,1,48.2.144,3.014,3.014,0,0,1,45.734-.913a4.054,4.054,0,0,1-.868-2.663v-.239a4.058,4.058,0,0,1,.868-2.659A3,3,0,0,1,48.2-7.533a2.9,2.9,0,0,1,2.1.776,2.533,2.533,0,0,1,.779,1.972l-.014.041h-1.5a1.5,1.5,0,0,0-.376-1.032A1.253,1.253,0,0,0,48.2-6.2a1.355,1.355,0,0,0-1.278.687,3.4,3.4,0,0,0-.39,1.7v.239a3.431,3.431,0,0,0,.386,1.712A1.363,1.363,0,0,0,48.2-1.183ZM54.238,0H52.577V-7.4h1.661Zm0-9.208H52.577v-1.456h1.661ZM55.79-3.767a4.016,4.016,0,0,1,.906-2.71,3.093,3.093,0,0,1,2.478-1.056,3.117,3.117,0,0,1,2.5,1.056,4.016,4.016,0,0,1,.906,2.71v.144a4.01,4.01,0,0,1-.906,2.717A3.11,3.11,0,0,1,59.187.144,3.114,3.114,0,0,1,56.7-.909a4.013,4.013,0,0,1-.906-2.714Zm1.661.144a3.281,3.281,0,0,0,.424,1.764,1.439,1.439,0,0,0,1.313.677,1.442,1.442,0,0,0,1.3-.68,3.223,3.223,0,0,0,.434-1.76v-.144a3.217,3.217,0,0,0-.434-1.747A1.451,1.451,0,0,0,59.174-6.2a1.423,1.423,0,0,0-1.3.687,3.257,3.257,0,0,0-.427,1.747Zm2.256-6.925h1.88l.014.041L59.734-8.729H58.4ZM65.531-7.4l.1,1.066a2.646,2.646,0,0,1,.913-.885,2.435,2.435,0,0,1,1.241-.318,2.31,2.31,0,0,1,1.8.711A3.23,3.23,0,0,1,70.228-4.6V0H68.566V-4.587a1.786,1.786,0,0,0-.335-1.224,1.312,1.312,0,0,0-1.012-.362,1.983,1.983,0,0,0-.923.2,1.616,1.616,0,0,0-.622.557V0H64.014V-7.4Zm9.6,3.8a4.878,4.878,0,0,1,.759-2.854,2.454,2.454,0,0,1,2.133-1.083,2.333,2.333,0,0,1,1.077.243,2.437,2.437,0,0,1,.824.694v-4.067h1.661V0H80.242l-.2-.937a2.467,2.467,0,0,1-.861.8,2.4,2.4,0,0,1-1.169.277,2.517,2.517,0,0,1-2.119-.991,4.17,4.17,0,0,1-.759-2.6Zm1.661.144a2.979,2.979,0,0,0,.393,1.634,1.376,1.376,0,0,0,1.248.608,1.668,1.668,0,0,0,.892-.226,1.717,1.717,0,0,0,.6-.643V-5.3a1.749,1.749,0,0,0-.6-.639,1.626,1.626,0,0,0-.875-.229,1.339,1.339,0,0,0-1.251.714A3.769,3.769,0,0,0,76.8-3.6Zm9.714,3.6A3.221,3.221,0,0,1,83.978-.878a3.827,3.827,0,0,1-.913-2.649V-3.8a3.957,3.957,0,0,1,.913-2.683,2.949,2.949,0,0,1,2.355-1.049,2.768,2.768,0,0,1,2.256.919,3.718,3.718,0,0,1,.766,2.458v.9H84.781l-.014.034a2.423,2.423,0,0,0,.479,1.477,1.633,1.633,0,0,0,1.36.567,3.743,3.743,0,0,0,1.172-.164,3.347,3.347,0,0,0,.919-.472l.54,1.087a3.52,3.52,0,0,1-1.121.622A4.7,4.7,0,0,1,86.511.144ZM86.333-6.2a1.283,1.283,0,0,0-1.039.468,2.321,2.321,0,0,0-.485,1.22l.014.034h2.892v-.13a1.867,1.867,0,0,0-.332-1.152A1.227,1.227,0,0,0,86.333-6.2Zm11.539.3-.711-.027a1.49,1.49,0,0,0-.81.205,1.351,1.351,0,0,0-.5.581V0H94.187V-7.4h1.518l.109,1.073a2.372,2.372,0,0,1,.721-.889,1.679,1.679,0,0,1,1.015-.321,1.548,1.548,0,0,1,.28.024,2.047,2.047,0,0,1,.239.058ZM102.11.144A3.221,3.221,0,0,1,99.578-.878a3.827,3.827,0,0,1-.913-2.649V-3.8a3.957,3.957,0,0,1,.913-2.683,2.949,2.949,0,0,1,2.355-1.049,2.768,2.768,0,0,1,2.256.919,3.718,3.718,0,0,1,.766,2.458v.9h-4.573l-.014.034a2.423,2.423,0,0,0,.479,1.477,1.633,1.633,0,0,0,1.36.567,3.743,3.743,0,0,0,1.172-.164,3.347,3.347,0,0,0,.919-.472l.54,1.087a3.52,3.52,0,0,1-1.121.622A4.7,4.7,0,0,1,102.11.144ZM101.933-6.2a1.283,1.283,0,0,0-1.039.468,2.321,2.321,0,0,0-.485,1.22l.014.034h2.892v-.13a1.867,1.867,0,0,0-.332-1.152A1.227,1.227,0,0,0,101.933-6.2Zm8.524,4.177a.766.766,0,0,0-.325-.632,3.359,3.359,0,0,0-1.227-.448,4.991,4.991,0,0,1-2-.786,1.656,1.656,0,0,1-.69-1.395A2.008,2.008,0,0,1,107-6.874a3.115,3.115,0,0,1,2.071-.66,3.212,3.212,0,0,1,2.136.68,1.971,1.971,0,0,1,.776,1.637l-.014.041h-1.593a1.037,1.037,0,0,0-.355-.783,1.337,1.337,0,0,0-.95-.332,1.358,1.358,0,0,0-.916.273.855.855,0,0,0-.314.67.72.72,0,0,0,.294.6,3.222,3.222,0,0,0,1.21.4,5.011,5.011,0,0,1,2.051.8,1.7,1.7,0,0,1,.69,1.418,1.966,1.966,0,0,1-.824,1.63,3.469,3.469,0,0,1-2.17.632,3.313,3.313,0,0,1-2.276-.738,2.085,2.085,0,0,1-.793-1.7l.014-.041h1.545a1.108,1.108,0,0,0,.465.937,1.868,1.868,0,0,0,1.066.294,1.671,1.671,0,0,0,.988-.253A.787.787,0,0,0,110.457-2.023ZM115.352,0H113.69V-7.4h1.661Zm0-9.208H113.69v-1.456h1.661ZM116.9-3.6a4.878,4.878,0,0,1,.759-2.854,2.454,2.454,0,0,1,2.133-1.083,2.333,2.333,0,0,1,1.077.243,2.437,2.437,0,0,1,.824.694v-4.067h1.661V0H122.01l-.2-.937a2.467,2.467,0,0,1-.861.8,2.4,2.4,0,0,1-1.169.277,2.517,2.517,0,0,1-2.119-.991,4.17,4.17,0,0,1-.759-2.6Zm1.661.144a2.979,2.979,0,0,0,.393,1.634,1.376,1.376,0,0,0,1.248.608,1.668,1.668,0,0,0,.892-.226,1.717,1.717,0,0,0,.6-.643V-5.3a1.749,1.749,0,0,0-.6-.639,1.626,1.626,0,0,0-.875-.229,1.339,1.339,0,0,0-1.251.714,3.769,3.769,0,0,0-.4,1.863Zm11.19,2.358a2.481,2.481,0,0,1-.878.916,2.368,2.368,0,0,1-1.241.321,2.316,2.316,0,0,1-1.859-.783,3.68,3.68,0,0,1-.67-2.43V-7.4h1.654v4.341a2.472,2.472,0,0,0,.308,1.453,1.14,1.14,0,0,0,.957.393,2.137,2.137,0,0,0,1.008-.215,1.564,1.564,0,0,0,.639-.625V-7.4h1.661V0h-1.429Zm3.008-2.673a4.016,4.016,0,0,1,.906-2.71,3.093,3.093,0,0,1,2.478-1.056,3.117,3.117,0,0,1,2.5,1.056,4.016,4.016,0,0,1,.906,2.71v.144a4.01,4.01,0,0,1-.906,2.717A3.11,3.11,0,0,1,136.16.144a3.114,3.114,0,0,1-2.492-1.053,4.013,4.013,0,0,1-.906-2.714Zm1.661.144a3.281,3.281,0,0,0,.424,1.764,1.439,1.439,0,0,0,1.313.677,1.442,1.442,0,0,0,1.3-.68,3.224,3.224,0,0,0,.434-1.76v-.144a3.217,3.217,0,0,0-.434-1.747,1.451,1.451,0,0,0-1.316-.687,1.423,1.423,0,0,0-1.3.687,3.257,3.257,0,0,0-.427,1.747Zm10.732,1.6a.766.766,0,0,0-.325-.632A3.359,3.359,0,0,0,143.6-3.1a4.991,4.991,0,0,1-2-.786,1.656,1.656,0,0,1-.69-1.395,2.008,2.008,0,0,1,.786-1.589,3.115,3.115,0,0,1,2.071-.66,3.212,3.212,0,0,1,2.136.68,1.971,1.971,0,0,1,.776,1.637l-.014.041h-1.593a1.036,1.036,0,0,0-.355-.783,1.337,1.337,0,0,0-.95-.332,1.358,1.358,0,0,0-.916.273.855.855,0,0,0-.314.67.72.72,0,0,0,.294.6,3.222,3.222,0,0,0,1.21.4,5.011,5.011,0,0,1,2.051.8,1.7,1.7,0,0,1,.69,1.418,1.966,1.966,0,0,1-.824,1.63,3.469,3.469,0,0,1-2.17.632,3.313,3.313,0,0,1-2.276-.738,2.085,2.085,0,0,1-.793-1.7l.014-.041h1.545a1.108,1.108,0,0,0,.465.937,1.868,1.868,0,0,0,1.066.294,1.671,1.671,0,0,0,.988-.253A.787.787,0,0,0,145.156-2.023Z" transform="translate(-3248.99 -5160.076)" fill="#0c1d30"/>
    <path id="Trazado_204651" data-name="Trazado 204651" d="M8.319-3.254l.014.041a3.069,3.069,0,0,1-.978,2.43A3.848,3.848,0,0,1,4.642.144,3.652,3.652,0,0,1,1.825-1.029a4.251,4.251,0,0,1-1.08-3V-5.92a4.3,4.3,0,0,1,1.066-3A3.575,3.575,0,0,1,4.594-10.1a4.017,4.017,0,0,1,2.765.9A3.038,3.038,0,0,1,8.34-6.747l-.014.041H6.72a2.045,2.045,0,0,0-.54-1.528,2.175,2.175,0,0,0-1.586-.53,1.887,1.887,0,0,0-1.6.8A3.328,3.328,0,0,0,2.4-5.934v1.907A3.311,3.311,0,0,0,3-1.986a1.94,1.94,0,0,0,1.641.8A2.09,2.09,0,0,0,6.19-1.716a2.09,2.09,0,0,0,.53-1.538Zm1.135-.513a4.016,4.016,0,0,1,.906-2.71,3.093,3.093,0,0,1,2.478-1.056,3.117,3.117,0,0,1,2.5,1.056,4.016,4.016,0,0,1,.906,2.71v.144a4.01,4.01,0,0,1-.906,2.717A3.11,3.11,0,0,1,12.852.144,3.114,3.114,0,0,1,10.36-.909a4.013,4.013,0,0,1-.906-2.714Zm1.661.144a3.281,3.281,0,0,0,.424,1.764,1.439,1.439,0,0,0,1.313.677,1.442,1.442,0,0,0,1.3-.68,3.223,3.223,0,0,0,.434-1.76v-.144a3.217,3.217,0,0,0-.434-1.747A1.451,1.451,0,0,0,12.838-6.2a1.423,1.423,0,0,0-1.3.687,3.257,3.257,0,0,0-.427,1.747ZM19.2-7.4l.1,1.066a2.646,2.646,0,0,1,.913-.885,2.435,2.435,0,0,1,1.241-.318,2.31,2.31,0,0,1,1.8.711A3.23,3.23,0,0,1,23.892-4.6V0H22.23V-4.587A1.786,1.786,0,0,0,21.9-5.811a1.312,1.312,0,0,0-1.012-.362,1.983,1.983,0,0,0-.923.2,1.616,1.616,0,0,0-.622.557V0H17.678V-7.4Zm8.552-1.8v1.8h1.326v1.23H27.747v4.088a.891.891,0,0,0,.2.653.718.718,0,0,0,.526.195,1.469,1.469,0,0,0,.267-.024,1.621,1.621,0,0,0,.246-.065L29.162-.1a1.909,1.909,0,0,1-.5.181,2.766,2.766,0,0,1-.6.065,1.916,1.916,0,0,1-1.439-.537,2.34,2.34,0,0,1-.523-1.685V-6.166H24.965V-7.4h1.128v-1.8ZM34.87,0q-.089-.28-.147-.547a3.909,3.909,0,0,1-.079-.533,2.849,2.849,0,0,1-.9.872A2.3,2.3,0,0,1,32.5.144a2.459,2.459,0,0,1-1.774-.595,2.16,2.16,0,0,1-.619-1.634,1.93,1.93,0,0,1,.848-1.671,4.093,4.093,0,0,1,2.386-.6h1.292V-5a1.208,1.208,0,0,0-.338-.909,1.354,1.354,0,0,0-.981-.328,1.4,1.4,0,0,0-.9.27.858.858,0,0,0-.335.7l-1.6.007L30.468-5.3a1.832,1.832,0,0,1,.783-1.552,3.317,3.317,0,0,1,2.164-.677,3.164,3.164,0,0,1,2.085.656,2.31,2.31,0,0,1,.793,1.887V-1.7a6.064,6.064,0,0,0,.062.878,4.665,4.665,0,0,0,.2.824ZM32.84-1.189A2.076,2.076,0,0,0,33.964-1.5a1.583,1.583,0,0,0,.667-.718V-3.315H33.312a1.666,1.666,0,0,0-1.135.359,1.09,1.09,0,0,0-.41.844.861.861,0,0,0,.277.673A1.151,1.151,0,0,0,32.84-1.189ZM39.546-7.4l.089.964a2.507,2.507,0,0,1,.909-.813,2.681,2.681,0,0,1,1.265-.287,2.282,2.282,0,0,1,1.244.328,1.983,1.983,0,0,1,.779.984,2.591,2.591,0,0,1,.9-.964,2.434,2.434,0,0,1,1.313-.349,2.169,2.169,0,0,1,1.76.776,3.609,3.609,0,0,1,.646,2.348V0H46.792V-4.416a2.179,2.179,0,0,0-.325-1.364,1.19,1.19,0,0,0-.974-.393,1.425,1.425,0,0,0-.9.287,1.6,1.6,0,0,0-.533.772q0,.1.007.178t.007.144V0H42.41V-4.416a2.154,2.154,0,0,0-.332-1.347,1.179,1.179,0,0,0-.974-.41,1.749,1.749,0,0,0-.858.195,1.436,1.436,0,0,0-.557.55V0H38.028V-7.4ZM51.974,0H50.313V-7.4h1.661Zm0-9.208H50.313v-1.456h1.661ZM55.337-7.4l.1,1.066a2.646,2.646,0,0,1,.913-.885,2.435,2.435,0,0,1,1.241-.318,2.31,2.31,0,0,1,1.8.711A3.23,3.23,0,0,1,60.033-4.6V0H58.372V-4.587a1.786,1.786,0,0,0-.335-1.224,1.312,1.312,0,0,0-1.012-.362,1.983,1.983,0,0,0-.923.2,1.616,1.616,0,0,0-.622.557V0H53.819V-7.4ZM66.22,0q-.089-.28-.147-.547a3.91,3.91,0,0,1-.079-.533,2.849,2.849,0,0,1-.9.872,2.3,2.3,0,0,1-1.251.352,2.459,2.459,0,0,1-1.774-.595,2.16,2.16,0,0,1-.619-1.634A1.93,1.93,0,0,1,62.3-3.756a4.093,4.093,0,0,1,2.386-.6H65.98V-5a1.208,1.208,0,0,0-.338-.909,1.354,1.354,0,0,0-.981-.328,1.4,1.4,0,0,0-.9.27.858.858,0,0,0-.335.7l-1.6.007L61.817-5.3A1.832,1.832,0,0,1,62.6-6.856a3.317,3.317,0,0,1,2.164-.677,3.164,3.164,0,0,1,2.085.656,2.31,2.31,0,0,1,.793,1.887V-1.7a6.064,6.064,0,0,0,.062.878A4.664,4.664,0,0,0,67.9,0Zm-2.03-1.189A2.076,2.076,0,0,0,65.314-1.5a1.583,1.583,0,0,0,.667-.718V-3.315H64.661a1.666,1.666,0,0,0-1.135.359,1.09,1.09,0,0,0-.41.844.861.861,0,0,0,.277.673A1.151,1.151,0,0,0,64.189-1.189Zm8.2.007a1.38,1.38,0,0,0,.96-.355,1.163,1.163,0,0,0,.393-.9h1.5l.014.041A2.23,2.23,0,0,1,74.44-.608a2.986,2.986,0,0,1-2.047.752A3.014,3.014,0,0,1,69.925-.913a4.054,4.054,0,0,1-.868-2.663v-.239a4.058,4.058,0,0,1,.868-2.659,3,3,0,0,1,2.461-1.06,2.9,2.9,0,0,1,2.1.776,2.533,2.533,0,0,1,.779,1.972l-.014.041h-1.5a1.5,1.5,0,0,0-.376-1.032,1.253,1.253,0,0,0-.984-.424,1.355,1.355,0,0,0-1.278.687,3.4,3.4,0,0,0-.39,1.7v.239A3.431,3.431,0,0,0,71.1-1.863,1.363,1.363,0,0,0,72.393-1.183ZM78.429,0H76.768V-7.4h1.661Zm0-9.208H76.768v-1.456h1.661ZM79.98-3.767a4.016,4.016,0,0,1,.906-2.71,3.093,3.093,0,0,1,2.478-1.056,3.117,3.117,0,0,1,2.5,1.056,4.016,4.016,0,0,1,.906,2.71v.144a4.01,4.01,0,0,1-.906,2.717A3.11,3.11,0,0,1,83.378.144,3.114,3.114,0,0,1,80.886-.909a4.013,4.013,0,0,1-.906-2.714Zm1.661.144a3.281,3.281,0,0,0,.424,1.764,1.439,1.439,0,0,0,1.313.677,1.442,1.442,0,0,0,1.3-.68,3.223,3.223,0,0,0,.434-1.76v-.144a3.217,3.217,0,0,0-.434-1.747A1.451,1.451,0,0,0,83.364-6.2a1.423,1.423,0,0,0-1.3.687,3.257,3.257,0,0,0-.427,1.747ZM83.9-10.548h1.88l.014.041L83.925-8.729H82.592ZM89.722-7.4l.1,1.066a2.646,2.646,0,0,1,.913-.885,2.435,2.435,0,0,1,1.241-.318,2.31,2.31,0,0,1,1.8.711A3.23,3.23,0,0,1,94.418-4.6V0H92.757V-4.587a1.786,1.786,0,0,0-.335-1.224,1.312,1.312,0,0,0-1.012-.362,1.983,1.983,0,0,0-.923.2,1.616,1.616,0,0,0-.622.557V0H88.2V-7.4Zm9.6,3.8a4.878,4.878,0,0,1,.759-2.854,2.454,2.454,0,0,1,2.133-1.083,2.333,2.333,0,0,1,1.077.243,2.437,2.437,0,0,1,.824.694v-4.067h1.661V0h-1.347l-.2-.937a2.467,2.467,0,0,1-.861.8A2.4,2.4,0,0,1,102.2.144a2.517,2.517,0,0,1-2.119-.991,4.17,4.17,0,0,1-.759-2.6Zm1.661.144a2.979,2.979,0,0,0,.393,1.634,1.376,1.376,0,0,0,1.248.608,1.668,1.668,0,0,0,.892-.226,1.717,1.717,0,0,0,.6-.643V-5.3a1.749,1.749,0,0,0-.6-.639,1.626,1.626,0,0,0-.875-.229,1.339,1.339,0,0,0-1.251.714,3.769,3.769,0,0,0-.4,1.863ZM110.7.144a3.221,3.221,0,0,1-2.533-1.022,3.827,3.827,0,0,1-.913-2.649V-3.8a3.957,3.957,0,0,1,.913-2.683,2.949,2.949,0,0,1,2.355-1.049,2.768,2.768,0,0,1,2.256.919,3.718,3.718,0,0,1,.766,2.458v.9h-4.573l-.014.034a2.423,2.423,0,0,0,.479,1.477,1.633,1.633,0,0,0,1.36.567,3.743,3.743,0,0,0,1.172-.164,3.347,3.347,0,0,0,.919-.472l.54,1.087a3.52,3.52,0,0,1-1.121.622A4.7,4.7,0,0,1,110.7.144ZM110.523-6.2a1.283,1.283,0,0,0-1.039.468A2.321,2.321,0,0,0,109-4.512l.014.034H111.9v-.13a1.867,1.867,0,0,0-.332-1.152A1.227,1.227,0,0,0,110.523-6.2ZM116.662,0H115V-10.664h1.661Zm9.8,0q-.089-.28-.147-.547a3.91,3.91,0,0,1-.079-.533,2.849,2.849,0,0,1-.9.872,2.3,2.3,0,0,1-1.251.352,2.459,2.459,0,0,1-1.774-.595,2.16,2.16,0,0,1-.619-1.634,1.93,1.93,0,0,1,.848-1.671,4.093,4.093,0,0,1,2.386-.6h1.292V-5a1.208,1.208,0,0,0-.338-.909,1.354,1.354,0,0,0-.981-.328,1.4,1.4,0,0,0-.9.27.858.858,0,0,0-.335.7l-1.6.007-.007-.041a1.832,1.832,0,0,1,.783-1.552,3.317,3.317,0,0,1,2.164-.677,3.164,3.164,0,0,1,2.085.656,2.31,2.31,0,0,1,.793,1.887V-1.7a6.064,6.064,0,0,0,.062.878,4.665,4.665,0,0,0,.2.824Zm-2.03-1.189a2.076,2.076,0,0,0,1.125-.314,1.583,1.583,0,0,0,.667-.718V-3.315h-1.319a1.666,1.666,0,0,0-1.135.359,1.09,1.09,0,0,0-.41.844.861.861,0,0,0,.277.673A1.151,1.151,0,0,0,124.435-1.189ZM131.394,0h-1.661V-7.4h1.661Zm0-9.208h-1.661v-1.456h1.661ZM136.938-5.9l-.711-.027a1.49,1.49,0,0,0-.81.205,1.351,1.351,0,0,0-.5.581V0h-1.661V-7.4h1.518l.109,1.073a2.372,2.372,0,0,1,.721-.889,1.679,1.679,0,0,1,1.015-.321,1.548,1.548,0,0,1,.28.024,2.047,2.047,0,0,1,.239.058ZM141.176.144a3.221,3.221,0,0,1-2.533-1.022,3.827,3.827,0,0,1-.913-2.649V-3.8a3.957,3.957,0,0,1,.913-2.683A2.949,2.949,0,0,1,141-7.533a2.768,2.768,0,0,1,2.256.919,3.718,3.718,0,0,1,.766,2.458v.9h-4.573l-.014.034a2.423,2.423,0,0,0,.479,1.477,1.633,1.633,0,0,0,1.36.567,3.743,3.743,0,0,0,1.172-.164,3.347,3.347,0,0,0,.919-.472l.54,1.087a3.52,3.52,0,0,1-1.121.622A4.7,4.7,0,0,1,141.176.144ZM141-6.2a1.283,1.283,0,0,0-1.039.468,2.321,2.321,0,0,0-.485,1.22l.014.034h2.892v-.13a1.867,1.867,0,0,0-.332-1.152A1.227,1.227,0,0,0,141-6.2ZM147.191,0h-1.654V-1.593h1.654Z" transform="translate(-3024.67 -5262.307)" fill="#0c1d30"/>
    <path id="Trazado_204652" data-name="Trazado 204652" d="M3.25,0h-1.9V-11.375h1.9ZM7.336-8.453l.1,1.1a2.865,2.865,0,0,1,1.039-.93,3.065,3.065,0,0,1,1.445-.328,2.608,2.608,0,0,1,1.422.375,2.266,2.266,0,0,1,.891,1.125,2.962,2.962,0,0,1,1.031-1.1,2.781,2.781,0,0,1,1.5-.4,2.479,2.479,0,0,1,2.012.887,4.125,4.125,0,0,1,.738,2.684V0h-1.9V-5.047a2.49,2.49,0,0,0-.371-1.559,1.361,1.361,0,0,0-1.113-.449,1.629,1.629,0,0,0-1.031.328,1.828,1.828,0,0,0-.609.883q0,.117.008.2t.008.164V0h-1.9V-5.047a2.462,2.462,0,0,0-.379-1.539,1.347,1.347,0,0,0-1.113-.469,2,2,0,0,0-.98.223A1.642,1.642,0,0,0,7.5-6.2V0H5.6V-8.453ZM26.922-3.945a4.766,4.766,0,0,1-.867,2.977A2.868,2.868,0,0,1,23.641.164a2.99,2.99,0,0,1-1.273-.258,2.62,2.62,0,0,1-.953-.758v4.1h-1.9v-11.7h1.6L21.3-7.391a2.819,2.819,0,0,1,.98-.906,2.743,2.743,0,0,1,1.332-.312,2.807,2.807,0,0,1,2.434,1.238,5.556,5.556,0,0,1,.871,3.262Zm-1.891-.164a4.118,4.118,0,0,0-.488-2.121,1.588,1.588,0,0,0-1.457-.824,1.893,1.893,0,0,0-1.008.254,1.869,1.869,0,0,0-.664.707v3.82a1.766,1.766,0,0,0,.664.684,2.024,2.024,0,0,0,1.023.238,1.629,1.629,0,0,0,1.449-.715,3.312,3.312,0,0,0,.48-1.879ZM33.672,0q-.1-.32-.168-.625a4.468,4.468,0,0,1-.09-.609,3.256,3.256,0,0,1-1.023,1,2.633,2.633,0,0,1-1.43.4,2.81,2.81,0,0,1-2.027-.68,2.468,2.468,0,0,1-.707-1.867,2.206,2.206,0,0,1,.969-1.91,4.678,4.678,0,0,1,2.727-.684H33.4v-.742a1.38,1.38,0,0,0-.387-1.039,1.547,1.547,0,0,0-1.121-.375,1.6,1.6,0,0,0-1.031.309.981.981,0,0,0-.383.8l-1.828.008-.008-.047a2.094,2.094,0,0,1,.895-1.773,3.79,3.79,0,0,1,2.473-.773,3.617,3.617,0,0,1,2.383.75A2.64,2.64,0,0,1,35.3-5.7v3.758a6.93,6.93,0,0,0,.07,1A5.331,5.331,0,0,0,35.594,0Zm-2.32-1.359a2.373,2.373,0,0,0,1.285-.359,1.81,1.81,0,0,0,.762-.82v-1.25H31.891a1.9,1.9,0,0,0-1.3.41,1.246,1.246,0,0,0-.469.965.984.984,0,0,0,.316.77A1.315,1.315,0,0,0,31.352-1.359Zm9.375.008a1.577,1.577,0,0,0,1.1-.406,1.33,1.33,0,0,0,.449-1.031h1.719l.016.047A2.549,2.549,0,0,1,43.066-.7a3.413,3.413,0,0,1-2.34.859,3.444,3.444,0,0,1-2.82-1.207,4.633,4.633,0,0,1-.992-3.043v-.273A4.637,4.637,0,0,1,37.906-7.4a3.43,3.43,0,0,1,2.813-1.211,3.316,3.316,0,0,1,2.4.887,2.894,2.894,0,0,1,.891,2.254l-.016.047H42.273a1.715,1.715,0,0,0-.43-1.18,1.432,1.432,0,0,0-1.125-.484,1.549,1.549,0,0,0-1.461.785,3.885,3.885,0,0,0-.445,1.941v.273a3.921,3.921,0,0,0,.441,1.957A1.558,1.558,0,0,0,40.727-1.352Zm7.3-9.156v2.055h1.516v1.406H48.031v4.672a1.019,1.019,0,0,0,.227.746.821.821,0,0,0,.6.223,1.678,1.678,0,0,0,.3-.027,1.852,1.852,0,0,0,.281-.074l.2,1.391a2.181,2.181,0,0,1-.574.207,3.161,3.161,0,0,1-.691.074,2.19,2.19,0,0,1-1.645-.613,2.674,2.674,0,0,1-.6-1.926V-7.047H44.852V-8.453h1.289v-2.055Zm2.487,6.2a4.59,4.59,0,0,1,1.035-3.1,3.535,3.535,0,0,1,2.832-1.207A3.562,3.562,0,0,1,57.241-7.4a4.59,4.59,0,0,1,1.035,3.1v.164a4.583,4.583,0,0,1-1.035,3.105A3.555,3.555,0,0,1,54.4.164a3.558,3.558,0,0,1-2.848-1.2,4.587,4.587,0,0,1-1.035-3.1Zm1.9.164A3.75,3.75,0,0,0,52.9-2.125a1.645,1.645,0,0,0,1.5.773,1.648,1.648,0,0,0,1.488-.777,3.684,3.684,0,0,0,.5-2.012V-4.3a3.676,3.676,0,0,0-.5-2,1.658,1.658,0,0,0-1.5-.785,1.626,1.626,0,0,0-1.48.785,3.722,3.722,0,0,0-.488,2Z" transform="translate(-2908.55 -5299.777)" fill="#0c1d30"/>
  </g>
</svg>
