<svg id="Grupo_143404" data-name="Grupo 143404" xmlns="http://www.w3.org/2000/svg" xmlns:xlink="http://www.w3.org/1999/xlink" width="264.399" height="308.667" viewBox="0 0 264.399 308.667">
  <defs>
    <clipPath id="clip-path">
      <rect id="Rect치ngulo_42288" data-name="Rect치ngulo 42288" width="264.399" height="308.667" fill="none"/>
    </clipPath>
    <clipPath id="clip-path-3">
      <rect id="Rect치ngulo_42286" data-name="Rect치ngulo 42286" width="19.81" height="17.693" fill="none"/>
    </clipPath>
  </defs>
  <g id="Grupo_143403" data-name="Grupo 143403" clip-path="url(#clip-path)">
    <g id="Grupo_143402" data-name="Grupo 143402">
      <g id="Grupo_143401" data-name="Grupo 143401" clip-path="url(#clip-path)">
        <path id="Trazado_203375" data-name="Trazado 203375" d="M149.2,320.806l7.307,2.453a126.275,126.275,0,0,0-1.527,20.568l-6.4-1.7c2.689-4.718.623-21.322.623-21.322" transform="translate(-21.265 -45.915)" fill="#d9b17e"/>
        <path id="Trazado_203376" data-name="Trazado 203376" d="M123.809,357.85h31.819s-1.555-12.076-7.734-13.964-3.374,7.548-16.666,8.869c-4.126.41-7.481,3.774-7.419,5.095" transform="translate(-17.72 -49.183)" fill="#f4d5aa"/>
        <path id="Trazado_203377" data-name="Trazado 203377" d="M207.293,320.806l-17.275,3.216s4.263,14.347,3.609,26.962l15.137-2.227c-6.355-6.183-1.471-27.951-1.471-27.951" transform="translate(-27.196 -45.915)" fill="#141008"/>
        <path id="Trazado_203378" data-name="Trazado 203378" d="M224.3,357.85H193.458s1.507-12.076,7.5-13.964,3.27,7.548,16.153,8.869c4,.41,7.251,3.774,7.19,5.095" transform="translate(-27.689 -49.183)" fill="#16130d"/>
        <path id="Trazado_203379" data-name="Trazado 203379" d="M87.238,129.786c-6.125-11.256,4.254-19.612,8.743-26.938s9.924-21.739,12.287-24.81,18.9,40.169,19.613,44.9-10.633,8.743-14.886,13.941c-3.362,4.11-17.013,8.979-25.756-7.089" transform="translate(-12.216 -11.147)" fill="#dd701b"/>
        <path id="Trazado_203380" data-name="Trazado 203380" d="M116.371,84.962c-2.331-4.811-4.2-7.812-4.888-6.924a47.819,47.819,0,0,0-3.671,7.114,30.439,30.439,0,0,0,8.559-.19" transform="translate(-15.431 -11.147)" fill="#ed7e36"/>
        <path id="Trazado_203381" data-name="Trazado 203381" d="M108.415,78.038a9.837,9.837,0,0,0-.583.885c3.986,5.344,6.49,12.911,6.49,21.326,0,16.183-9.2,29.3-20.557,29.3a15.249,15.249,0,0,1-7.389-1.983,16.738,16.738,0,0,0,1.009,2.218c8.743,16.068,22.393,11.2,25.755,7.089,4.254-5.2,15.6-9.215,14.886-13.941s-17.249-47.968-19.612-44.9" transform="translate(-12.363 -11.147)" fill="#9f5414"/>
        <path id="Trazado_203382" data-name="Trazado 203382" d="M191.529,119.017c-12.051-34.38-16.3-58.483-17.367-66.635-.689-5.278-11.538-17.958-21.975-20.025-4.254,3.19-10.368,5.371-15.241,7.62-13.823,6.38-26.228,33.672-26.228,33.672s19.317,33.849,22.329,75.141c1.14,15.618,2.835,140.358,2.835,140.358l20.912,3.19,6.38-104.56,13.114,104.56,19.849-4.254s7.444-134.687-4.607-169.067" transform="translate(-15.846 -4.631)" fill="#282d7f"/>
        <path id="Trazado_203383" data-name="Trazado 203383" d="M134.817,66.33c-1.056-4.576-6.465-7.463-13.287-7.682a131.478,131.478,0,0,0-10.813,18.764s1,1.761,2.577,4.941a29.123,29.123,0,0,0,6.012-.743c9.983-2.3,16.927-9.145,15.511-15.28" transform="translate(-15.846 -8.394)" fill="#295f89"/>
        <path id="Trazado_203384" data-name="Trazado 203384" d="M194.988,119.017c-12.051-34.38-16.3-58.483-17.367-66.635-.689-5.278-11.538-17.958-21.975-20.025-4.254,3.19-10.368,5.371-15.241,7.62a24.925,24.925,0,0,0-5.517,3.639c4.214-1.821,8.831-3.732,12.251-6.3,8.684,43.95,27.292,52.28,39.343,86.66,10.955,31.255,5.8,145.4,4.772,165.893l8.342-1.787s7.444-134.687-4.607-169.067" transform="translate(-19.306 -4.631)" fill="#295f89"/>
        <path id="Trazado_203385" data-name="Trazado 203385" d="M166.441,178.3l-1.713,3.072-9.723,130.612,8.127,1.239,6.38-103.378Z" transform="translate(-22.185 -25.52)" fill="#295f89"/>
        <path id="Trazado_203386" data-name="Trazado 203386" d="M166.01,181.849l11.3-11.492-12.077,6.72-12.077-1.266Z" transform="translate(-21.92 -24.382)" fill="#295f89"/>
        <path id="Trazado_203387" data-name="Trazado 203387" d="M194.228,105.7A304.138,304.138,0,0,1,182.27,52.352c-.638-4.889-9.517-9.485-19.031-11.953,1.015,23.985,19.125,63.968,30.989,65.3" transform="translate(-23.364 -5.782)" fill="#ed7e36"/>
        <path id="Trazado_203388" data-name="Trazado 203388" d="M156.355,29.595c3.618-6.578,23.439-29.32,27.952-29.33,4.484-.009,15.826,5.865,17.654,9.4s.319,16.885-2.176,18.532c-7.678,5.074-15.482,40.363-14.832,40.856,0,0-25.292-19-28.6-39.461" transform="translate(-22.378 -0.038)" fill="#dd701b"/>
        <path id="Trazado_203389" data-name="Trazado 203389" d="M113.838,68.914a54.416,54.416,0,0,0,17.883,26.623l28.355-15.123L146.371,36.7C133.04,40.022,120.032,51,113.838,68.914" transform="translate(-16.293 -5.253)" fill="#dd701b"/>
        <path id="Trazado_203390" data-name="Trazado 203390" d="M142.14,63.917a42.491,42.491,0,0,0,7.8-15.826L146.371,36.7C133.04,40.022,120.032,51,113.839,68.913A51.958,51.958,0,0,0,118,78.924c8.481-1.192,17.453-6.428,24.143-15.007" transform="translate(-16.293 -5.253)" fill="#db6f42"/>
        <path id="Trazado_203391" data-name="Trazado 203391" d="M110.43,48.945c-5.944-4.2-12.856-4.652-15.436-1.012s.147,10,6.092,14.2,12.855,4.652,15.436,1.011-.147-10-6.092-14.195" transform="translate(-13.457 -6.508)" fill="#554048"/>
        <path id="Trazado_203392" data-name="Trazado 203392" d="M111.533,46.876c-5.945-4.2-12.856-4.652-15.437-1.012s.147,10,6.092,14.195,12.856,4.653,15.437,1.012-.147-10-6.092-14.195" transform="translate(-13.615 -6.212)" fill="#302528"/>
        <path id="Trazado_203393" data-name="Trazado 203393" d="M127.643,30.909,116.3,52.175l13.882,14.06c5.1-8.825,7.1-16.485,5.966-25.756Z" transform="translate(-16.646 -4.424)" fill="#d45938"/>
        <path id="Trazado_203394" data-name="Trazado 203394" d="M135.729,40.285l2.245.591s3.662,17.367-.709,29.654l-5.435-2.481L128.4,73.012l-3.9-12.288,6.025,4.727c4.092-6.3,5.032-15.39,5.2-25.166" transform="translate(-17.82 -5.766)" fill="#e0d5c5"/>
        <path id="Trazado_203395" data-name="Trazado 203395" d="M125.955,18.462l-2.145.9q-.024-1.626-.05-3.249a3.122,3.122,0,0,0-1.873.376,2.512,2.512,0,0,1,.076-2.1,2.917,2.917,0,0,0,.208-2.112c-.295-.662-1.449-.864-1.679-.175a8.7,8.7,0,0,1,.76-4.645,9.573,9.573,0,0,0-4.694,2.18c-2.107,2.125-6.193,1.5-4.517-1.954a1.22,1.22,0,0,0-.255-1.937,1.985,1.985,0,0,0-2.157.346A5.816,5.816,0,0,0,108.3,7.983q-.506-1.947-1.014-3.893a1.065,1.065,0,0,0-.345-.647c-.325-.225-.768-.031-1.094.193a7.2,7.2,0,0,0-2.617,3.272,3.384,3.384,0,0,1-.834-2.049,6.994,6.994,0,0,0-3.03,5.6A2.8,2.8,0,0,1,97.8,7.4a3.884,3.884,0,0,0-2.544,3.607,6.792,6.792,0,0,1-2.113-2.729,5.623,5.623,0,0,0-2.645,3.86q-.931-.621-1.862-1.239a12.169,12.169,0,0,0-.865,5.88q-1.063-.531-2.127-1.06a9.613,9.613,0,0,0,1.6,5.741c.583.868,1.176,2.3.214,2.71-.595.252-1.56-.1-1.753.514a.933.933,0,0,0,.258.787,13.368,13.368,0,0,0,5.624,4.361l35.623-.769a23.239,23.239,0,0,1-1.258-10.606" transform="translate(-12.256 -0.479)" fill="#9a1b1b"/>
        <path id="Trazado_203396" data-name="Trazado 203396" d="M106.655,8.486a35.09,35.09,0,0,0-.372-5.058,1.968,1.968,0,0,0-.432.219,7.2,7.2,0,0,0-2.617,3.272,3.38,3.38,0,0,1-.834-2.048,6.994,6.994,0,0,0-3.03,5.6A2.8,2.8,0,0,1,97.8,7.417a3.884,3.884,0,0,0-2.544,3.607A6.781,6.781,0,0,1,93.143,8.3,5.625,5.625,0,0,0,90.5,12.156l-1.862-1.241a12.173,12.173,0,0,0-.865,5.88l-2.127-1.06a9.616,9.616,0,0,0,1.6,5.742c.583.869,1.176,2.3.214,2.709-.595.254-1.56-.1-1.753.515a.933.933,0,0,0,.258.787,13.376,13.376,0,0,0,5.624,4.362l6.093-.132c5.295-3.738,8.971-11.827,8.971-21.233" transform="translate(-12.256 -0.491)" fill="#dc1f27"/>
        <path id="Trazado_203397" data-name="Trazado 203397" d="M119.462,55.809c-3.231,4.154-10.706,1.937-14.532-.709-5.553-3.84-21.138-23.182-9.216-36.507,3.013-3.368,18.431,6.557,22.684,12.76s4.785,19.671,1.063,24.456" transform="translate(-13.072 -2.564)" fill="#443538"/>
        <path id="Trazado_203398" data-name="Trazado 203398" d="M259.319,297.381c-6.935-1.156-12.462-5-16.427-11.431-20.188-32.733,5.592-120.923,10.965-138.27,10.876-35.119,2.931-94.528-23.25-115.628-11.085-8.932-23.849-9.421-37.945-1.456l-2.093-3.7c15.541-8.784,30.309-8.145,42.708,1.847,27.427,22.1,35.906,83.829,24.643,120.2-14.58,47.067-26.315,110.607-11.408,134.778,3.339,5.413,7.757,8.51,13.507,9.468Z" transform="translate(-27.275 -2.969)" fill="#443538"/>
        <path id="Trazado_203399" data-name="Trazado 203399" d="M223.317,27.531q.756-2.024,1.543-3.951c-10.449-4.632-22.13-3.555-34.291,3.318l2.093,3.7c11.1-6.275,21.374-7.28,30.655-3.069" transform="translate(-27.275 -2.972)" fill="#33272a"/>
        <path id="Trazado_203400" data-name="Trazado 203400" d="M253.981,320.975c-4.925-7.986-6.929-20.287-6.9-34.854a49.138,49.138,0,0,1-4.237-5.059c-.544,16.837,1.319,32.1,7.512,42.146,3.966,6.429,9.492,10.275,16.428,11.431l.7-4.194c-5.75-.959-10.169-4.056-13.507-9.469" transform="translate(-34.745 -40.227)" fill="#33272a"/>
        <path id="Trazado_203401" data-name="Trazado 203401" d="M205.723,19.5c3.541-8.722.022-17.293-7.859-19.143S180.723,4.077,177.182,12.8s-.022,17.293,7.859,19.143S202.183,28.22,205.723,19.5" transform="translate(-25.162 0)" fill="#f4d5aa"/>
        <path id="Trazado_203402" data-name="Trazado 203402" d="M199.32,22.409c4.252-7.791,3.313-16.153-2.1-18.676s-13.244,1.745-17.5,9.536-3.314,16.153,2.1,18.676,13.244-1.745,17.5-9.536" transform="translate(-25.342 -0.43)" fill="#f39168"/>
        <path id="Trazado_203403" data-name="Trazado 203403" d="M110.492,117.307c2.134-2.948,10.258-7,11.155-7.75s3.835-.033,5.023,1.966l-13.061,11.791s-5.251-3.058-3.116-6.006" transform="translate(-15.741 -15.639)" fill="#ccafb0"/>
        <path id="Trazado_203404" data-name="Trazado 203404" d="M175.361,31.387c-2.039,2.392-3.721,9.747-4.165,10.633s.8,3.013,2.747,3.456l7.178-13.114s-3.722-3.367-5.76-.974" transform="translate(-24.49 -4.369)" fill="#ccafb0"/>
        <path id="Trazado_203405" data-name="Trazado 203405" d="M180.923,2.23,41.565,193.269l2.835,1.418L168.635,26.568l14.737-.177a9.165,9.165,0,0,0,7.551-4.135,12.948,12.948,0,0,0-10-20.025" transform="translate(-5.949 -0.319)" fill="#443538"/>
        <path id="Trazado_203406" data-name="Trazado 203406" d="M97.351,138.035c-4-9,8.506-25.519,13-23.866s10.4,7.8,11.342,12.051S113.655,143,109.874,143.234s-11.578-3.072-12.523-5.2" transform="translate(-13.822 -16.324)" fill="#f4d5aa"/>
        <path id="Trazado_203407" data-name="Trazado 203407" d="M112.591,138a68.361,68.361,0,0,1-5.493-5.848l7.8,3.633Z" transform="translate(-15.328 -18.914)" fill="#ccafb0"/>
        <path id="Trazado_203408" data-name="Trazado 203408" d="M119,131.171a68.5,68.5,0,0,1-5.494-5.848l7.8,3.633Z" transform="translate(-16.246 -17.937)" fill="#ccafb0"/>
        <path id="Trazado_203409" data-name="Trazado 203409" d="M121.847,126.99c-.512-2.305-2.485-5.16-4.9-7.56-1.082,5.47-5.636,11.66-12.547,16.187a36.094,36.094,0,0,1-6.726,3.462c1.434,2.124,8.731,5.151,12.354,4.924,3.781-.236,12.76-12.76,11.815-17.013" transform="translate(-13.98 -17.093)" fill="#ccafb0"/>
        <path id="Trazado_203410" data-name="Trazado 203410" d="M174.367,35.355c-1.88-8.18,10.075-21.174,13.625-19.089,3.65,2.144,7.9,8.852,8.014,13.022.109,4.13-9.63,13.437-12.714,12.838-3-.583-8.482-4.842-8.925-6.77" transform="translate(-24.928 -2.296)" fill="#f4d5aa"/>
        <path id="Trazado_203411" data-name="Trazado 203411" d="M190.885,18.736c.554,4.306-1.213,9.546-5.116,13.845a20.111,20.111,0,0,1-8.969,5.838c1.983,1.819,4.936,3.717,6.867,4.092,3.085.6,12.824-8.708,12.714-12.838-.085-3.225-2.651-7.961-5.5-10.937" transform="translate(-25.305 -2.682)" fill="#ccafb0"/>
        <path id="Trazado_203412" data-name="Trazado 203412" d="M114.763,9.193l-7.355,11.253,3.9,1.772,7.444-11.076Z" transform="translate(-15.373 -1.316)" fill="#443538"/>
        <path id="Trazado_203413" data-name="Trazado 203413" d="M117.979,54.761c-2.927,3.763-9.7,1.755-13.164-.643-5.031-3.478-19.149-21-8.349-33.072,2.729-3.05,16.7,5.941,20.55,11.559s4.335,17.82.963,22.155" transform="translate(-13.239 -2.924)" fill="#73a8cf"/>
        <path id="Trazado_203414" data-name="Trazado 203414" d="M117.778,32.607c-3.629-5.292-16.223-13.567-19.957-11.963a36.435,36.435,0,0,1,10.54,13c4.64,9.095,5.575,18.3,2.755,22.877,2.9.664,5.918.44,7.625-1.756,3.372-4.335,2.89-16.536-.963-22.155" transform="translate(-14.001 -2.926)" fill="#4484a4"/>
        <g id="Grupo_143400" data-name="Grupo 143400" transform="translate(86.316 17.693)" opacity="0.34">
          <g id="Grupo_143399" data-name="Grupo 143399">
            <g id="Grupo_143398" data-name="Grupo 143398" clip-path="url(#clip-path-3)">
              <path id="Trazado_203415" data-name="Trazado 203415" d="M120.544,38.282a17.69,17.69,0,0,0-2.349-5.644c-3.033-4.423-12.31-10.907-17.461-11.989.226.307.446.613.678.92,7.822,10.361,16.067,17.5,19.131,16.713" transform="translate(-100.734 -20.648)" fill="#73a8cf"/>
            </g>
          </g>
        </g>
        <path id="Trazado_203416" data-name="Trazado 203416" d="M134.014,35.362c-3.141-6.874-8.98-10.949-13.042-9.1s-4.808,8.919-1.667,15.793,8.98,10.949,13.042,9.1,4.808-8.918,1.667-15.793" transform="translate(-16.797 -3.695)" fill="#443538"/>
        <path id="Trazado_203417" data-name="Trazado 203417" d="M134.8,35.278c-2.894-6.331-8.271-10.085-12.013-8.383s-4.429,8.216-1.536,14.547,8.271,10.085,12.013,8.383,4.428-8.215,1.536-14.547" transform="translate(-17.098 -3.791)" fill="#554048"/>
        <path id="Trazado_203418" data-name="Trazado 203418" d="M127.166,39.351c2.43-1.106,3.214-4.8,2.128-8.856-1.9-1.571-3.965-2.183-5.624-1.428-2.431,1.105-3.214,4.8-2.128,8.855,1.9,1.571,3.965,2.183,5.625,1.428" transform="translate(-17.327 -4.114)" fill="#68535b"/>
        <path id="Trazado_203419" data-name="Trazado 203419" d="M211.347,15.524a4.608,4.608,0,1,0-4.607,4.607,4.608,4.608,0,0,0,4.607-4.607" transform="translate(-28.93 -1.562)" fill="#33272a"/>
        <path id="Trazado_203420" data-name="Trazado 203420" d="M209.822,15.83a2.776,2.776,0,1,0-2.776,2.776,2.776,2.776,0,0,0,2.776-2.776" transform="translate(-29.236 -1.868)" fill="#443538"/>
        <path id="Trazado_203421" data-name="Trazado 203421" d="M95.05,29.8C92.292,35.564,96,42.386,99.3,46.314a14.286,14.286,0,0,0,.834-6.557c-.452-2.675-2.769-7.105-5.08-9.961" transform="translate(-13.466 -4.265)" fill="#a4d2eb"/>
        <path id="Trazado_203422" data-name="Trazado 203422" d="M103.1,47.743c-2.227,2.456-.03,5.08,2.037,6.545a4.156,4.156,0,0,0,.937-2.7c-.166-1.069-1.53-2.777-2.974-3.846" transform="translate(-14.622 -6.833)" fill="#a4d2eb"/>
        <path id="Trazado_203423" data-name="Trazado 203423" d="M182.128,61.731c-.541,2.056-2.522,5.324-2.747,7.266a21.346,21.346,0,0,0,8.869,4.962c-.607-.46,6.144-31.188,13.285-39.434-8.617,5.106-16.292,15.362-19.406,27.206" transform="translate(-25.674 -4.941)" fill="#9f5414"/>
        <path id="Trazado_203424" data-name="Trazado 203424" d="M124.709,336.7H20.158A20.159,20.159,0,0,0,0,356.857H144.868A20.159,20.159,0,0,0,124.709,336.7" transform="translate(0 -48.19)" fill="#443538"/>
        <path id="Trazado_203425" data-name="Trazado 203425" d="M142,222.817H7.377V331.91a2.5,2.5,0,0,0,2.5,2.5H139.5a2.5,2.5,0,0,0,2.5-2.5Z" transform="translate(-1.056 -31.891)" fill="#d6e5ed"/>
        <path id="Trazado_203426" data-name="Trazado 203426" d="M100.183,310.541c-38.707,0-70.086-31.665-70.086-70.726a71.485,71.485,0,0,1,2.051-17H7.377V329.949a4.459,4.459,0,0,0,4.459,4.459h125.7A4.459,4.459,0,0,0,142,329.949V296.578a69.355,69.355,0,0,1-41.812,13.964" transform="translate(-1.056 -31.891)" fill="#8e979d"/>
        <path id="Trazado_203427" data-name="Trazado 203427" d="M74.649,332.38c-1.7,0-3.075-.909-3.075-2.03V228.834c0-1.121,1.377-2.03,3.075-2.03s3.075.909,3.075,2.03V330.35c0,1.121-1.377,2.03-3.075,2.03" transform="translate(-10.244 -32.461)" fill="#d6e5ed"/>
        <path id="Trazado_203428" data-name="Trazado 203428" d="M7.377,325.052a4.9,4.9,0,0,0,3.5,1.889c8.209,0,14.862-30,14.862-67.01a259.147,259.147,0,0,0-2.488-37.114H7.377Z" transform="translate(-1.056 -31.891)" fill="#b0bdc4"/>
        <path id="Trazado_203429" data-name="Trazado 203429" d="M142.589,222.731H5.978a1.411,1.411,0,0,0-1.41,1.411v1.424a1.411,1.411,0,0,0,1.41,1.411H142.589a1.411,1.411,0,0,0,1.41-1.411v-1.424a1.411,1.411,0,0,0-1.41-1.411" transform="translate(-0.654 -31.878)" fill="#8e979d"/>
        <path id="Trazado_203430" data-name="Trazado 203430" d="M74.82,331.014a2.028,2.028,0,0,1-2.05-2v-100.2a2.051,2.051,0,0,1,4.1,0v100.2a2.027,2.027,0,0,1-2.05,2" transform="translate(-10.415 -32.461)" fill="#8e979d"/>
        <path id="Trazado_203431" data-name="Trazado 203431" d="M74.772,325.834a9.567,9.567,0,0,1-2.343-.145v-7.221a9.644,9.644,0,0,1,2.343-.144,9.644,9.644,0,0,1,2.343.144v7.221a9.567,9.567,0,0,1-2.343.145" transform="translate(-10.366 -45.56)" fill="#b0bdc4"/>
        <path id="Trazado_203432" data-name="Trazado 203432" d="M74.772,305.3a9.565,9.565,0,0,1-2.343-.145v-7.221a9.646,9.646,0,0,1,2.343-.144,9.646,9.646,0,0,1,2.343.144v7.221a9.565,9.565,0,0,1-2.343.145" transform="translate(-10.366 -42.621)" fill="#b0bdc4"/>
        <path id="Trazado_203433" data-name="Trazado 203433" d="M74.772,284.763a9.568,9.568,0,0,1-2.343-.145V277.4a9.646,9.646,0,0,1,2.343-.144,9.646,9.646,0,0,1,2.343.144v7.221a9.568,9.568,0,0,1-2.343.145" transform="translate(-10.366 -39.682)" fill="#b0bdc4"/>
        <path id="Trazado_203434" data-name="Trazado 203434" d="M74.772,264.227a9.62,9.62,0,0,1-2.343-.145v-7.221a9.617,9.617,0,0,1,2.343-.145,9.617,9.617,0,0,1,2.343.145v7.221a9.62,9.62,0,0,1-2.343.145" transform="translate(-10.366 -36.743)" fill="#b0bdc4"/>
        <path id="Trazado_203435" data-name="Trazado 203435" d="M64,224.295a10.25,10.25,0,1,0,10.25-10.25A10.25,10.25,0,0,0,64,224.295" transform="translate(-9.16 -30.635)" fill="#b0bdc4"/>
        <path id="Trazado_203436" data-name="Trazado 203436" d="M65.593,224.523a8.884,8.884,0,1,0,8.883-8.883,8.883,8.883,0,0,0-8.883,8.883" transform="translate(-9.388 -30.863)" fill="#d6e5ed"/>
        <path id="Trazado_203437" data-name="Trazado 203437" d="M67.387,224.78a7.346,7.346,0,1,0,7.346-7.346,7.346,7.346,0,0,0-7.346,7.346" transform="translate(-9.645 -31.12)" fill="#dd701b"/>
        <path id="Trazado_203438" data-name="Trazado 203438" d="M116.708,240.769c0,24.675,13.657,44.678,30.5,44.678a21.38,21.38,0,0,0,6.608-1.063V231.765H117.328a65.132,65.132,0,0,0-.62,9" transform="translate(-16.704 -33.171)" fill="#b0bdc4"/>
        <path id="Trazado_203439" data-name="Trazado 203439" d="M99.29,236.7c0,6.7,3.707,12.126,8.279,12.126a5.808,5.808,0,0,0,1.793-.289V234.252h-9.9a17.764,17.764,0,0,0-.168,2.444" transform="translate(-14.211 -33.527)" fill="#b0bdc4"/>
        <path id="Trazado_203440" data-name="Trazado 203440" d="M74.819,219.911a7.347,7.347,0,0,1,7.189,5.837,7.343,7.343,0,1,0-14.464.541,7.343,7.343,0,0,1,7.275-6.378" transform="translate(-9.645 -31.12)" fill="#e2b782"/>
        <path id="Trazado_203441" data-name="Trazado 203441" d="M73.954,225.72A1.719,1.719,0,1,0,75.673,224a1.719,1.719,0,0,0-1.719,1.719" transform="translate(-10.585 -32.06)" fill="#443538"/>
        <path id="Trazado_203442" data-name="Trazado 203442" d="M80.734,220.537l-3.811,2.434,1.377,1.377Z" transform="translate(-11.01 -31.564)" fill="#443538"/>
        <path id="Trazado_203443" data-name="Trazado 203443" d="M298.369,228.457c-1.194,8.8-13.462,22.583-47.95,29.474l-.49-2.545c44.253-14.324,42.136-37.17,42.136-37.17Z" transform="translate(-35.771 -31.232)" fill="#33272a"/>
        <path id="Trazado_203444" data-name="Trazado 203444" d="M298.95,337.055c-1.811-9.592-8.436-17.368-14.8-17.368s-10.051,7.776-8.241,17.368,8.436,17.367,14.8,17.367,10.051-7.775,8.241-17.367" transform="translate(-39.424 -45.755)" fill="#33272a"/>
        <path id="Trazado_203445" data-name="Trazado 203445" d="M262.861,239.8h-28.61c-15.359,0-15.359,103.19,0,103.19h50.33v-81.47a21.72,21.72,0,0,0-21.72-21.72" transform="translate(-31.878 -34.321)" fill="#554048"/>
        <path id="Trazado_203446" data-name="Trazado 203446" d="M262.876,239.8H244.848c.224,4.032.347,8.218.347,12.523,0,31.386-6.295,56.829-14.06,56.829-3.1,0-5.972-4.074-8.3-10.96.616,23.343,4.425,44.8,11.428,44.8H284.6v-81.47a21.72,21.72,0,0,0-21.72-21.72" transform="translate(-31.894 -34.321)" fill="#443538"/>
        <path id="Trazado_203447" data-name="Trazado 203447" d="M229.35,337.831V350.8c1.608,3.912,3.555,6.223,5.848,6.223h50.33l2.658-19.188Z" transform="translate(-32.826 -48.352)" fill="#33272a"/>
        <path id="Trazado_203448" data-name="Trazado 203448" d="M241.867,337.055c-1.811-9.592-8.436-17.368-14.8-17.368s-10.052,7.776-8.241,17.368,8.436,17.367,14.8,17.367,10.051-7.775,8.241-17.367" transform="translate(-31.254 -45.755)" fill="#33272a"/>
        <path id="Trazado_203449" data-name="Trazado 203449" d="M288.129,244.555h-38.1v84.057a2.249,2.249,0,0,0,2.248,2.249h45.656a2.249,2.249,0,0,0,2.248-2.249v-72a12.056,12.056,0,0,0-12.056-12.056" transform="translate(-35.786 -35.002)" fill="#dd701b"/>
        <path id="Trazado_203450" data-name="Trazado 203450" d="M263.028,319.755a5.552,5.552,0,0,1-5.553-5.553V244.555h-7.444v80.753a5.554,5.554,0,0,0,5.553,5.553h39.047a5.554,5.554,0,0,0,5.553-5.553v-5.553Z" transform="translate(-35.786 -35.002)" fill="#b65f17"/>
        <path id="Trazado_203451" data-name="Trazado 203451" d="M303.569,273.954a21.328,21.328,0,0,0-13.138-19.691v38.659a3.977,3.977,0,0,0,3.978,3.977h9.16Z" transform="translate(-41.568 -36.391)" fill="#ffd368"/>
        <path id="Trazado_203452" data-name="Trazado 203452" d="M292.047,310.148v2.78c0,3.79,2.749,6.862,6.139,6.862h3.033a2.745,2.745,0,0,0,2.58-2.884v-6.757a2.745,2.745,0,0,0-2.58-2.884h-6.591a2.745,2.745,0,0,0-2.581,2.884" transform="translate(-41.799 -43.977)" fill="#ffd368"/>
        <path id="Trazado_203453" data-name="Trazado 203453" d="M246.364,250.157c0-3.289-2-5.955-4.466-5.955s-4.467,2.667-4.467,5.955,2,5.955,4.467,5.955,4.466-2.667,4.466-5.955" transform="translate(-33.982 -34.951)" fill="#33272a"/>
        <path id="Trazado_203454" data-name="Trazado 203454" d="M289.958,216.005c-8.474-2.977-26.568,1.6-48.784,29.087l2.061,1.6c33.44-32.751,53.009-20.391,53.009-20.391Z" transform="translate(-34.518 -30.803)" fill="#443538"/>
        <path id="Trazado_203455" data-name="Trazado 203455" d="M240.377,337.817c-1.542-8.163-7.179-14.78-12.593-14.78s-8.554,6.617-7.014,14.78,7.18,14.78,12.593,14.78,8.554-6.618,7.014-14.78" transform="translate(-31.542 -46.235)" fill="#554048"/>
        <path id="Trazado_203456" data-name="Trazado 203456" d="M299.618,268.475H262.5a6,6,0,0,0-6,6V296.69a1.418,1.418,0,1,0,2.835,0V274.474a3.167,3.167,0,0,1,3.163-3.164h37.893q-.32-1.446-.775-2.835" transform="translate(-36.712 -38.425)" fill="#33272a"/>
        <path id="Trazado_203457" data-name="Trazado 203457" d="M244.562,250.639c0-1.7-1.031-3.07-2.3-3.07s-2.3,1.374-2.3,3.07,1.032,3.07,2.3,3.07,2.3-1.374,2.3-3.07" transform="translate(-34.344 -35.433)" fill="#443538"/>
        <path id="Trazado_203458" data-name="Trazado 203458" d="M228.286,324.829a6.11,6.11,0,0,0-4.392,1.846c2.417,5.81,6.852,9.993,11.154,9.993a6.107,6.107,0,0,0,4.392-1.846c-2.417-5.81-6.852-9.993-11.154-9.993" transform="translate(-32.045 -46.491)" fill="#735b65"/>
        <path id="Trazado_203459" data-name="Trazado 203459" d="M242.366,303.774h-9.688a1.536,1.536,0,1,0,0,3.073h9.688a1.536,1.536,0,0,0,0-3.073" transform="translate(-33.082 -43.478)" fill="#33272a"/>
        <path id="Trazado_203460" data-name="Trazado 203460" d="M242.366,298.4h-9.688a1.536,1.536,0,1,0,0,3.072h9.688a1.536,1.536,0,0,0,0-3.072" transform="translate(-33.082 -42.708)" fill="#33272a"/>
        <path id="Trazado_203461" data-name="Trazado 203461" d="M242.366,293.02h-9.688a1.536,1.536,0,1,0,0,3.072h9.688a1.536,1.536,0,0,0,0-3.072" transform="translate(-33.082 -41.938)" fill="#33272a"/>
        <path id="Trazado_203462" data-name="Trazado 203462" d="M242.366,287.643h-9.688a1.536,1.536,0,1,0,0,3.072h9.688a1.536,1.536,0,0,0,0-3.072" transform="translate(-33.082 -41.169)" fill="#33272a"/>
        <path id="Trazado_203463" data-name="Trazado 203463" d="M59.376,226.1l.208-1.852.543-1.481a2.972,2.972,0,0,0-.751,3.332" transform="translate(-8.462 -31.883)" fill="#bababa"/>
        <path id="Trazado_203464" data-name="Trazado 203464" d="M62.738,209.12a3.193,3.193,0,0,0-2.664-5.61c-1.649.344-3.405,1.925-4.737.892a2.179,2.179,0,0,1-.006-3.014,8,8,0,0,1,2.831-1.772,19.89,19.89,0,0,0,2.739-1.593,2.806,2.806,0,0,0,.961-.956,2.077,2.077,0,0,0-1.167-2.609,6.031,6.031,0,0,0-3.139-.277,9.455,9.455,0,0,0-2.47-16.512c-1.258-.446-3.21-.14-3.164,1.194-.692-1.925-1.688-4.128-3.69-4.549a4.706,4.706,0,0,0-2.808.448,8.508,8.508,0,0,0-5.206,6.6c-.3,2.922,1.657,6.06,4.541,6.623a15.1,15.1,0,0,0-3.738,3.514,5.122,5.122,0,0,0-.649,4.888,6.751,6.751,0,0,0,2.983,2.737,2,2,0,0,0,1,.343c1.2-.033,1.339-1.719,1.835-2.807a3.621,3.621,0,0,1,2.926-1.927,7.261,7.261,0,0,1,3.562.676,1.56,1.56,0,0,1,.644.414,1.275,1.275,0,0,1,.23.787c.034,2.231-2.368,3.549-4.007,5.063a6.882,6.882,0,0,0-2.272,6.55c.616,2.349,3.29,4.122,5.572,3.293,1.1-.4,1.95-1.289,3.015-1.768s2.624-.32,3.01.781a2.817,2.817,0,0,1-.23,1.859l-1.257,3.427.013-.015a13.718,13.718,0,0,1,3.07-2,15.911,15.911,0,0,0,2.53-1.826,2.576,2.576,0,0,0,1.109-1.938,1.091,1.091,0,0,0-1.376-.919" transform="translate(-5.726 -24.939)" fill="#cecece"/>
        <path id="Trazado_203465" data-name="Trazado 203465" d="M62.76,209.947a3.31,3.31,0,0,0,.947-3.706,2.968,2.968,0,0,0-.366-.62l-.006.006c-3.481,3.134-7.973,3.822-10.033,1.534s-.907-6.683,2.574-9.818a11.884,11.884,0,0,1,3.841-2.348,9.108,9.108,0,0,0-2.138.014,9.658,9.658,0,0,0,3.726-9l-.005-.026a8.061,8.061,0,0,1-2.393,2.619c-4.722,3.243-12.057.769-16.383-5.527a18.164,18.164,0,0,1-1.682-3.054,7,7,0,0,0-.6,2.17c-.3,2.922,1.657,6.06,4.541,6.623l-.121.093c1.607.772,2.655,2.008,2.655,3.405,0,2.342-2.925,4.24-6.534,4.24-.211,0-.419-.008-.625-.021a3.847,3.847,0,0,0,.238.686,6.751,6.751,0,0,0,2.983,2.737,2,2,0,0,0,1,.343c1.2-.033,1.339-1.719,1.835-2.807a3.621,3.621,0,0,1,2.926-1.927,7.261,7.261,0,0,1,3.562.676,1.56,1.56,0,0,1,.644.414,1.275,1.275,0,0,1,.23.787c.034,2.231-2.368,3.549-4.007,5.063a6.883,6.883,0,0,0-2.272,6.55c.616,2.349,3.29,4.122,5.572,3.292,1.1-.4,1.95-1.287,3.015-1.767s2.624-.32,3.01.781a2.817,2.817,0,0,1-.23,1.859l-1.257,3.427.013-.015a13.718,13.718,0,0,1,3.07-2,15.911,15.911,0,0,0,2.53-1.826,2.576,2.576,0,0,0,1.109-1.938,1.091,1.091,0,0,0-1.376-.919" transform="translate(-5.748 -25.766)" fill="#bababa"/>
        <path id="Trazado_203466" data-name="Trazado 203466" d="M129.158,152.729l-.558-.353c-6.356.091-10.52-.111-11.3,10.923,1.582-3.326,3.325-6.834,6.468-8.753a7.829,7.829,0,0,1,6.055-.8,2.728,2.728,0,0,1-.661-1.021" transform="translate(-16.788 -21.809)" fill="#bababa"/>
        <path id="Trazado_203467" data-name="Trazado 203467" d="M133.711,154.836a5.9,5.9,0,0,0-1.8-.856,3.226,3.226,0,0,0,1.8.856" transform="translate(-18.88 -22.038)" fill="#bababa"/>
        <path id="Trazado_203468" data-name="Trazado 203468" d="M194.368,149.889c-6.487-1.489-10.609-7.645-9.208-13.75a11.133,11.133,0,0,1,6.981-7.855,51.155,51.155,0,0,0,3.121-12.784c.446-4.076.367-8.354-1.374-12.067-2.08-4.439-27.969-3.7-18,12.88,3.241,5.386-5.157,10.9-9.617,13.042a10.76,10.76,0,0,1-6.578,2.076c-3.555-.029-6.967-1.295-10.451-2a7.944,7.944,0,0,0-3.526-.117c-2.946.751-4.313,4.153-4.7,7.169s-.3,6.291-2.061,8.77a5.362,5.362,0,0,1-4.949,2.022,4.608,4.608,0,0,1,1.619,2.038c.408,1.012.756,2.413,1.847,2.45a2.233,2.233,0,0,0,1.566-.951l4.194-4.611a7.059,7.059,0,0,0,1.56-2.242,15.469,15.469,0,0,0,.392-3.272,6.479,6.479,0,0,1,11.735-2.854,2.13,2.13,0,0,1,.45,1.1c.051,1.229-1.473,1.772-2.443,2.529a3.779,3.779,0,0,0,.4,5.94c2.97,1.737,6.463-1.323,8.18-4.3s3.673-6.667,7.109-6.81c3.578-.148,5.849,3.674,7.3,6.951-2.8,1.982-7.64,1.41-8.811,4.638a5.717,5.717,0,0,0-.1,2.808c.745,4.9,3.381,9.882,7.954,11.8,3.234,1.356,6.945.992,10.321.045,6.37-1.786,12.3-11.435,7.086-12.633" transform="translate(-19.18 -14.472)" fill="#cecece"/>
        <path id="Trazado_203469" data-name="Trazado 203469" d="M172.281,111.959c.2-1.446.254-3.111-.9-3.318a7.02,7.02,0,0,0-1.293.067,1.55,1.55,0,0,1-1.639-1.153,1.085,1.085,0,0,1,.092-.823,1.522,1.522,0,0,1,1.182-.721c.4-.019.727.119,1.132.093a3.277,3.277,0,0,0,2.165-1.528,3.5,3.5,0,0,1-.665-.475c-1.574-1.432-1.446-3.966.2-5.733a5.183,5.183,0,0,1,4.476-1.644c-.06-.49-.811-.462-1.437-.316a9.845,9.845,0,0,0-3.8,1.6c-1.207.9-2.253,2.484-1.985,3.442.155.555.713.913.445,1.662a2.551,2.551,0,0,1-1.838,1.414,15.018,15.018,0,0,1-1.794-.058c-1.517.081-3.571,1.77-4.378,3.588a4.409,4.409,0,0,0-.138,3.545,6.66,6.66,0,0,0,1.955,2.287,1.042,1.042,0,0,0,.694.268A4.542,4.542,0,0,0,168.979,116a3.106,3.106,0,0,0,1.807-.643,5.124,5.124,0,0,0,1.5-3.4" transform="translate(-23.157 -13.785)" fill="#cecece"/>
        <path id="Trazado_203470" data-name="Trazado 203470" d="M192.141,128.6a51.193,51.193,0,0,0,3.121-12.784c.446-4.076.366-8.354-1.374-12.067a1.864,1.864,0,0,0-.319-.452,23.65,23.65,0,0,1,.585,5.231c0,10.13-6.268,18.342-14,18.342a11.413,11.413,0,0,1-6.559-2.141,25.03,25.03,0,0,1-3.835,2.982,5.284,5.284,0,0,1-.122,1.574c-1.129,4.661-8.481,6.883-16.425,4.962a21.9,21.9,0,0,1-8.665-4.126c-2.14,1.243-3.2,4.092-3.528,6.672-.384,3.014-.3,6.291-2.061,8.77a5.362,5.362,0,0,1-4.948,2.022,4.6,4.6,0,0,1,1.618,2.038c.408,1.012.757,2.413,1.847,2.45a2.23,2.23,0,0,0,1.566-.951l4.2-4.611a7.072,7.072,0,0,0,1.56-2.242,15.581,15.581,0,0,0,.392-3.272,6.479,6.479,0,0,1,11.734-2.854,2.122,2.122,0,0,1,.45,1.1c.051,1.229-1.473,1.772-2.443,2.529a3.78,3.78,0,0,0,.4,5.941c2.97,1.736,6.463-1.324,8.181-4.3s3.672-6.667,7.109-6.81c3.578-.148,5.85,3.674,7.3,6.951-2.8,1.983-7.64,1.41-8.81,4.638a5.727,5.727,0,0,0-.1,2.808c.745,4.9,3.381,9.882,7.954,11.8,3.235,1.356,6.945.992,10.321.045a13.9,13.9,0,0,0,6.505-4.58,18.767,18.767,0,0,1-7.253,1.4c-7.34,0-13.29-3.848-13.29-8.6,0-4.528,5.416-8.229,12.287-8.563a10.781,10.781,0,0,1-.371-6.044,11.132,11.132,0,0,1,6.982-7.855" transform="translate(-19.18 -14.784)" fill="#bababa"/>
      </g>
    </g>
  </g>
</svg>
