<svg xmlns="http://www.w3.org/2000/svg" width="715.987" height="251.313" viewBox="0 0 715.987 251.313">
  <g id="Grupo_144006" data-name="Grupo 144006" transform="translate(-202.5 5195.5)">
    <path id="Trazado_203243" data-name="Trazado 203243" d="M427.054,219.01H737.183v58.56H179.6V219.01Z" transform="translate(179.933 -5223.129)" fill="#fff"/>
    <rect id="Rectángulo_42210" data-name="Rectángulo 42210" width="247.454" height="58.552" transform="translate(359.533 -5062.67)" fill="#fff"/>
    <rect id="Rectángulo_42211" data-name="Rectángulo 42211" width="310.128" height="58.552" transform="translate(606.987 -5062.67)" fill="#fff"/>
    <rect id="Rectángulo_42212" data-name="Rectángulo 42212" width="310.128" height="58.56" transform="translate(606.987 -5121.231)" fill="#fff"/>
    <rect id="Rectángulo_42213" data-name="Rectángulo 42213" width="247.454" height="58.56" transform="translate(359.533 -5121.231)" fill="#fff"/>
    <rect id="Rectángulo_42214" data-name="Rectángulo 42214" width="247.454" height="29.755" transform="translate(359.533 -5150.986)" fill="#fff"/>
    <rect id="Rectángulo_42215" data-name="Rectángulo 42215" width="310.128" height="29.755" transform="translate(606.987 -5150.986)" fill="#fff"/>
    <path id="Trazado_203244" data-name="Trazado 203244" d="M714.244,1v.471H1V1Z" transform="translate(202.872 -5195.128)" fill="#e3e3e3"/>
    <path id="Trazado_203245" data-name="Trazado 203245" d="M179.6,1.54H737.183V44.212H179.6Z" transform="translate(179.933 -5195.198)" fill="#e3e3e3"/>
    <path id="Trazado_203246" data-name="Trazado 203246" d="M156.661,197.367v58.56H1V50.5H156.661V197.367Z" transform="translate(202.872 -5201.486)" fill="#e3e3e3"/>
    <rect id="Rectángulo_42216" data-name="Rectángulo 42216" width="155.661" height="42.672" transform="translate(203.872 -5193.658)" fill="#e3e3e3"/>
    <rect id="Rectángulo_42217" data-name="Rectángulo 42217" width="713.244" height="248.57" transform="translate(203.872 -5194.128)" fill="none"/>
    <rect id="Rectángulo_42218" data-name="Rectángulo 42218" width="713.244" height="248.57" transform="translate(203.872 -5194.128)" fill="none"/>
    <path id="Trazado_203247" data-name="Trazado 203247" d="M156.661,219.01v58.56H1v-.959" transform="translate(202.872 -5223.129)" fill="none" stroke="#000" stroke-width="2"/>
    <path id="Trazado_203248" data-name="Trazado 203248" d="M179.6,84.64H737.183" transform="translate(179.933 -5205.871)" fill="none" stroke="#000" stroke-width="2"/>
    <path id="Trazado_203249" data-name="Trazado 203249" d="M179.6,151.83H737.183" transform="translate(179.933 -5214.5)" fill="none" stroke="#000" stroke-width="2"/>
    <path id="Trazado_203250" data-name="Trazado 203250" d="M179.6,219.01H737.183" transform="translate(179.933 -5223.129)" fill="none" stroke="#000" stroke-width="2"/>
    <line id="Línea_331" data-name="Línea 331" x2="557.583" transform="translate(359.533 -4945.559)" fill="none" stroke="#000" stroke-width="2"/>
    <path id="Trazado_203251" data-name="Trazado 203251" d="M714.244,1.471V1H1v.471" transform="translate(202.872 -5195.128)" fill="none" stroke="#000" stroke-width="2"/>
    <path id="Trazado_203252" data-name="Trazado 203252" d="M1,50.5H714.244" transform="translate(202.872 -5201.486)" fill="none" stroke="#000" stroke-width="2"/>
    <path id="Trazado_203253" data-name="Trazado 203253" d="M1,248.681V1.54H714.244v248.1" transform="translate(202.872 -5195.198)" fill="none" stroke="#000" stroke-width="2"/>
    <path id="Trazado_203254" data-name="Trazado 203254" d="M179.6,191.079V1.54" transform="translate(179.933 -5195.198)" fill="none" stroke="#000" stroke-width="2"/>
    <path id="Trazado_203255" data-name="Trazado 203255" d="M463.52,248.682V1.55" transform="translate(143.467 -5195.199)" fill="none" stroke="#100809" stroke-width="2"/>
    <rect id="Rectángulo_42219" data-name="Rectángulo 42219" width="714.987" height="250.313" transform="translate(203 -5195)" fill="none" stroke="#000" stroke-width="1"/>
    <text id="Contaminación_del_suelo_y_cuerpos_de_agua_por_la_" data-name="Contaminación del suelo y cuerpos de agua por la " transform="translate(620.005 -5098.33)" fill="#0c1d30" font-size="12" font-family="Roboto-Bold, Roboto" font-weight="700"><tspan x="0" y="0">Contaminación del suelo y cuerpos de agua por la </tspan></text>
    <text id="inadecuada_disposición_de_los_residuos." data-name="inadecuada disposición de los residuos." transform="translate(620.005 -5083.688)" fill="#0c1d30" font-size="14" font-family="Roboto-Bold, Roboto" font-weight="700"><tspan x="0" y="0">inadecuada disposición de los residuos.</tspan></text>
    <text id="Pre-limpieza" transform="translate(225.287 -5045.012)" fill="#0c1d30" font-size="16" font-family="Roboto-Medium, Roboto" font-weight="500"><tspan x="0" y="0">Pre-limpieza</tspan></text>
    <text id="Actividad" transform="translate(252.438 -5169.289)" fill="#0c1d30" font-size="16" font-family="Roboto-Medium, Roboto" font-weight="500"><tspan x="0" y="0">Actividad</tspan></text>
    <text id="Aspecto" transform="translate(457.514 -5169.289)" fill="#0c1d30" font-size="16" font-family="Roboto-Medium, Roboto" font-weight="500"><tspan x="0" y="0">Aspec</tspan><tspan y="0" letter-spacing="-0.014em">t</tspan><tspan y="0">o</tspan></text>
    <text id="Emisiones_atmosféricas" data-name="Emisiones atmosféricas" transform="translate(387.211 -5131.086)" fill="#0c1d30" font-size="14" font-family="Roboto-Bold, Roboto" font-weight="700"><tspan x="0" y="0">Emisiones atmosféricas</tspan></text>
    <text id="Generación_de_residuos_sólidos" data-name="Generación de residuos sólidos" transform="translate(387.211 -5085.988)" fill="#0c1d30" font-size="14" font-family="Roboto-Bold, Roboto" font-weight="700"><tspan x="0" y="0">Gene</tspan><tspan y="0" letter-spacing="-0.015em">r</tspan><tspan y="0">ación de residuos sólidos</tspan></text>
    <text id="Aguas_residuales" data-name="Aguas residuales" transform="translate(387.211 -5028.859)" fill="#0c1d30" font-size="14" font-family="Roboto-Bold, Roboto" font-weight="700"><tspan x="0" y="0">Aguas residuales</tspan></text>
    <text id="Contaminación_de_fuentes_hídricas." data-name="Contaminación de fuentes hídricas." transform="translate(620.011 -5028.859)" fill="#0c1d30" font-size="14" font-family="Roboto-Bold, Roboto" font-weight="700"><tspan x="0" y="0">Contaminación de fuentes hídricas.</tspan></text>
    <text id="Desperdicio_del_recurso_hídrico" data-name="Desperdicio del recurso hídrico" transform="translate(387.211 -4970.961)" fill="#0c1d30" font-size="14" font-family="Roboto-Bold, Roboto" font-weight="700"><tspan x="0" y="0">Desperdicio del recurso hídrico</tspan></text>
    <text id="Deterioro_del_recurso." data-name="Deterioro del recurso." transform="translate(620.011 -4970.961)" fill="#0c1d30" font-size="14" font-family="Roboto-Bold, Roboto" font-weight="700"><tspan x="0" y="0">Deterio</tspan><tspan y="0" letter-spacing="-0.018em">r</tspan><tspan y="0">o del recurso.</tspan></text>
    <text id="Contaminación_del_aire." data-name="Contaminación del aire." transform="translate(620.011 -5131.086)" fill="#0c1d30" font-size="14" font-family="Roboto-Bold, Roboto" font-weight="700"><tspan x="0" y="0">Contaminación del aire.</tspan></text>
    <text id="Impacto" transform="translate(736.13 -5169.295)" fill="#0c1d30" font-size="16" font-family="Roboto-Medium, Roboto" font-weight="500"><tspan x="0" y="0">Impac</tspan><tspan y="0" letter-spacing="-0.013em">t</tspan><tspan y="0">o</tspan></text>
  </g>
</svg>
