<svg xmlns="http://www.w3.org/2000/svg" xmlns:xlink="http://www.w3.org/1999/xlink" width="716.35" height="118.72" viewBox="0 0 716.35 118.72">
  <defs>
    <clipPath id="clip-path">
      <rect id="Rectángulo_42522" data-name="Rectángulo 42522" width="713.606" height="115.72" fill="none" stroke="#000" stroke-width="1"/>
    </clipPath>
  </defs>
  <g id="Grupo_144017" data-name="Grupo 144017" transform="translate(771.175 4849.5)">
    <g id="Grupo_143833" data-name="Grupo 143833" transform="translate(-769.803 -4848)" clip-path="url(#clip-path)">
      <path id="Trazado_204135" data-name="Trazado 204135" d="M427.18,50.5H737.466v66.22H179.6V50.5Z" transform="translate(-23.86 -1)" fill="#fff" stroke="#000" stroke-width="1"/>
      <path id="Trazado_204136" data-name="Trazado 204136" d="M714.606,1v.54H1V1Z" transform="translate(-1 -1)" fill="#e3e3e3" stroke="#000" stroke-width="1"/>
      <path id="Trazado_204137" data-name="Trazado 204137" d="M179.6,1.54H737.466V50.5H179.6Z" transform="translate(-23.86 -1)" fill="#e3e3e3" stroke="#000" stroke-width="1"/>
      <rect id="Rectángulo_42520" data-name="Rectángulo 42520" width="155.74" height="66.22" transform="translate(0 49.5)" fill="#e3e3e3" stroke="#000" stroke-width="1"/>
      <rect id="Rectángulo_42521" data-name="Rectángulo 42521" width="155.74" height="48.96" transform="translate(0 0.54)" fill="#e3e3e3" stroke="#000" stroke-width="1"/>
    </g>
    <path id="Trazado_204685" data-name="Trazado 204685" d="M0,0H713.606V115.72H0Z" transform="translate(-769.803 -4848)" fill="none" stroke="#000" stroke-width="1"/>
    <path id="Trazado_204138" data-name="Trazado 204138" d="M714.606,1.54V1H1v.54" transform="translate(-770.803 -4849)" fill="none" stroke="#000" stroke-width="2"/>
    <path id="Trazado_204139" data-name="Trazado 204139" d="M1,50.5H714.606" transform="translate(-770.803 -4849)" fill="none" stroke="#000" stroke-width="2"/>
    <path id="Trazado_204140" data-name="Trazado 204140" d="M156.74,116.72H1V1.54H714.606V116.72Z" transform="translate(-770.803 -4849)" fill="none" stroke="#000" stroke-width="2"/>
    <path id="Trazado_204141" data-name="Trazado 204141" d="M179.6,117.27V1.54" transform="translate(-793.663 -4849)" fill="none" stroke="#000" stroke-width="2"/>
    <path id="Trazado_204142" data-name="Trazado 204142" d="M463.52,116.17V1.55" transform="translate(-830.003 -4849)" fill="none" stroke="#000" stroke-width="2"/>
    <path id="Trazado_204686" data-name="Trazado 204686" d="M0,0H715.35V117.72H0Z" transform="translate(-770.675 -4849)" fill="none" stroke="#000" stroke-width="1"/>
    <path id="Trazado_204687" data-name="Trazado 204687" d="M2.912-3.609V0h-2V-9.953H4.724a3.92,3.92,0,0,1,2.7.875,2.934,2.934,0,0,1,.984,2.3,2.913,2.913,0,0,1-.984,2.3,3.94,3.94,0,0,1-2.7.868Zm0-1.538H4.724A1.661,1.661,0,0,0,5.988-5.6a1.617,1.617,0,0,0,.431-1.159,1.692,1.692,0,0,0-.427-1.186,1.631,1.631,0,0,0-1.268-.468H2.912ZM14.219-1.094a2.511,2.511,0,0,1-.868.916,2.3,2.3,0,0,1-1.224.321A2.249,2.249,0,0,1,10.3-.649a3.8,3.8,0,0,1-.66-2.461V-7.4h1.989v4.3a2.388,2.388,0,0,0,.263,1.33.946.946,0,0,0,.817.359,1.989,1.989,0,0,0,.82-.154,1.383,1.383,0,0,0,.561-.455V-7.4h2V0H14.431Zm5.2-6.3.089,1.06a2.705,2.705,0,0,1,.909-.882,2.36,2.36,0,0,1,1.21-.314,2.2,2.2,0,0,1,1.75.721A3.419,3.419,0,0,1,24-4.532V0H22V-4.525a1.771,1.771,0,0,0-.277-1.125,1.02,1.02,0,0,0-.831-.332,1.743,1.743,0,0,0-.783.167,1.528,1.528,0,0,0-.557.461V0h-2V-7.4Zm8.47-1.812V-7.4h1.251V-6H27.884v3.767a.859.859,0,0,0,.181.615.636.636,0,0,0,.475.185,1.906,1.906,0,0,0,.273-.017A2.3,2.3,0,0,0,29.08-1.5l.164,1.442a4.041,4.041,0,0,1-.584.154,3.484,3.484,0,0,1-.619.051,2.127,2.127,0,0,1-1.589-.567,2.488,2.488,0,0,1-.557-1.8V-6h-1.08V-7.4h1.08V-9.208ZM33.571.144A3.328,3.328,0,0,1,30.987-.872a3.721,3.721,0,0,1-.93-2.615V-3.76a4.05,4.05,0,0,1,.9-2.721,3.068,3.068,0,0,1,2.481-1.053,2.872,2.872,0,0,1,2.287.913,3.607,3.607,0,0,1,.8,2.458v1.032H32.115l-.021.041a2,2,0,0,0,.461,1.23,1.545,1.545,0,0,0,1.227.472,4.106,4.106,0,0,0,1.138-.137,4.644,4.644,0,0,0,.967-.417l.54,1.23a3.7,3.7,0,0,1-1.2.608A5.336,5.336,0,0,1,33.571.144ZM33.441-6a1.109,1.109,0,0,0-.926.414,2.075,2.075,0,0,0-.393,1.1l.014.034h2.434V-4.6A1.728,1.728,0,0,0,34.3-5.623.986.986,0,0,0,33.441-6Zm3.938,2.229a3.969,3.969,0,0,1,.923-2.71,3.217,3.217,0,0,1,2.557-1.056,3.251,3.251,0,0,1,2.57,1.053,3.948,3.948,0,0,1,.93,2.714v.144a3.954,3.954,0,0,1-.926,2.717A3.237,3.237,0,0,1,40.872.144,3.246,3.246,0,0,1,38.305-.906a3.954,3.954,0,0,1-.926-2.717Zm1.989.144A3.218,3.218,0,0,0,39.724-2a1.227,1.227,0,0,0,1.148.612A1.215,1.215,0,0,0,42-2a3.2,3.2,0,0,0,.359-1.62v-.144A3.164,3.164,0,0,0,42-5.373,1.226,1.226,0,0,0,40.858-6a1.211,1.211,0,0,0-1.131.625,3.192,3.192,0,0,0-.359,1.6Zm9.4-.144a3.969,3.969,0,0,1,.923-2.71,3.217,3.217,0,0,1,2.557-1.056,3.251,3.251,0,0,1,2.57,1.053,3.948,3.948,0,0,1,.93,2.714v.144a3.954,3.954,0,0,1-.926,2.717A3.237,3.237,0,0,1,52.261.144,3.246,3.246,0,0,1,49.694-.906a3.954,3.954,0,0,1-.926-2.717Zm1.989.144A3.218,3.218,0,0,0,51.112-2a1.227,1.227,0,0,0,1.148.612A1.215,1.215,0,0,0,53.392-2a3.2,3.2,0,0,0,.359-1.62v-.144a3.164,3.164,0,0,0-.362-1.606A1.226,1.226,0,0,0,52.247-6a1.211,1.211,0,0,0-1.131.625,3.192,3.192,0,0,0-.359,1.6Zm16.379.13A4.327,4.327,0,0,1,66.4-.848a2.5,2.5,0,0,1-2.133.991A2.254,2.254,0,0,1,63.133-.13a2.338,2.338,0,0,1-.817-.8L62.152,0H60.464V-10.664h1.989V-6.61a2.26,2.26,0,0,1,.769-.684,2.149,2.149,0,0,1,1.029-.239A2.45,2.45,0,0,1,66.4-6.47a4.88,4.88,0,0,1,.738,2.833Zm-1.989-.144a3.851,3.851,0,0,0-.318-1.712,1.115,1.115,0,0,0-1.083-.632,1.49,1.49,0,0,0-.786.195,1.35,1.35,0,0,0-.506.557V-2.1a1.268,1.268,0,0,0,.509.513,1.639,1.639,0,0,0,.8.178,1.135,1.135,0,0,0,1.08-.543,3.165,3.165,0,0,0,.308-1.542ZM72.728,0a4.2,4.2,0,0,1-.188-.533,3.71,3.71,0,0,1-.113-.574,2.736,2.736,0,0,1-.813.9,2.039,2.039,0,0,1-1.2.355,2.5,2.5,0,0,1-1.791-.6,2.143,2.143,0,0,1-.629-1.63,1.95,1.95,0,0,1,.837-1.685,4.182,4.182,0,0,1,2.444-.6h1.121v-.588a1.151,1.151,0,0,0-.28-.827,1.1,1.1,0,0,0-.834-.294,1.084,1.084,0,0,0-.749.236.823.823,0,0,0-.263.646H68.346l-.014-.041a1.876,1.876,0,0,1,.817-1.617,3.548,3.548,0,0,1,2.259-.68,3.311,3.311,0,0,1,2.157.67,2.333,2.333,0,0,1,.824,1.921v3.056a5.78,5.78,0,0,0,.079.978,4.905,4.905,0,0,0,.25.909ZM70.9-1.333a1.7,1.7,0,0,0,.93-.26,1.4,1.4,0,0,0,.561-.6V-3.24H71.271a1.329,1.329,0,0,0-.96.314,1.033,1.033,0,0,0-.325.772.771.771,0,0,0,.243.6A.96.96,0,0,0,70.9-1.333Zm7.376-7.875V-7.4h1.251V-6H78.278v3.767a.859.859,0,0,0,.181.615.636.636,0,0,0,.475.185,1.906,1.906,0,0,0,.273-.017,2.3,2.3,0,0,0,.267-.058l.164,1.442a4.041,4.041,0,0,1-.584.154,3.484,3.484,0,0,1-.619.051,2.127,2.127,0,0,1-1.589-.567,2.488,2.488,0,0,1-.557-1.8V-6h-1.08V-7.4h1.08V-9.208ZM82.858,0h-2V-7.4h2Zm0-9.167h-2v-1.5h2Zm1.333,5.53a4.806,4.806,0,0,1,.755-2.823,2.453,2.453,0,0,1,2.129-1.073,2.071,2.071,0,0,1,1,.239,2.4,2.4,0,0,1,.779.684v-4.054h2V0h-1.7l-.171-.909a2.473,2.473,0,0,1-.827.783,2.187,2.187,0,0,1-1.094.27,2.5,2.5,0,0,1-2.116-1,4.262,4.262,0,0,1-.755-2.639Zm1.989.144a3.013,3.013,0,0,0,.328,1.528,1.142,1.142,0,0,0,1.066.557,1.553,1.553,0,0,0,.752-.174,1.391,1.391,0,0,0,.526-.509V-5.243a1.536,1.536,0,0,0-.523-.543,1.391,1.391,0,0,0-.742-.195,1.127,1.127,0,0,0-1.07.649,3.67,3.67,0,0,0-.338,1.7Zm5.913-.273a3.969,3.969,0,0,1,.923-2.71,3.217,3.217,0,0,1,2.557-1.056,3.251,3.251,0,0,1,2.57,1.053,3.948,3.948,0,0,1,.93,2.714v.144a3.954,3.954,0,0,1-.926,2.717A3.237,3.237,0,0,1,95.587.144,3.246,3.246,0,0,1,93.02-.906a3.954,3.954,0,0,1-.926-2.717Zm1.989.144A3.218,3.218,0,0,0,94.438-2a1.227,1.227,0,0,0,1.148.612A1.215,1.215,0,0,0,96.718-2a3.2,3.2,0,0,0,.359-1.62v-.144a3.164,3.164,0,0,0-.362-1.606A1.226,1.226,0,0,0,95.573-6a1.211,1.211,0,0,0-1.131.625,3.192,3.192,0,0,0-.359,1.6Z" transform="translate(-745.106 -4758.941)" fill="#0c1d30"/>
    <path id="Trazado_204688" data-name="Trazado 204688" d="M7.117-2.656H3.086L2.211,0H.25L4.219-11.375h1.8L9.945,0H7.984ZM3.609-4.242H6.6L5.141-8.727H5.094ZM14.6-1.352a1.577,1.577,0,0,0,1.1-.406,1.33,1.33,0,0,0,.449-1.031h1.719l.016.047A2.549,2.549,0,0,1,16.941-.7,3.413,3.413,0,0,1,14.6.164a3.444,3.444,0,0,1-2.82-1.207,4.633,4.633,0,0,1-.992-3.043v-.273A4.637,4.637,0,0,1,11.781-7.4a3.43,3.43,0,0,1,2.813-1.211,3.316,3.316,0,0,1,2.4.887,2.894,2.894,0,0,1,.891,2.254l-.016.047H16.148a1.715,1.715,0,0,0-.43-1.18,1.432,1.432,0,0,0-1.125-.484,1.549,1.549,0,0,0-1.461.785,3.885,3.885,0,0,0-.445,1.941v.273a3.921,3.921,0,0,0,.441,1.957A1.558,1.558,0,0,0,14.6-1.352Zm7.3-9.156v2.055h1.516v1.406H21.906v4.672a1.019,1.019,0,0,0,.227.746.821.821,0,0,0,.6.223,1.679,1.679,0,0,0,.3-.027,1.852,1.852,0,0,0,.281-.074l.2,1.391a2.181,2.181,0,0,1-.574.207,3.161,3.161,0,0,1-.691.074,2.19,2.19,0,0,1-1.645-.613,2.674,2.674,0,0,1-.6-1.926V-7.047H18.727V-8.453h1.289v-2.055ZM26.977,0h-1.9V-8.453h1.9Zm0-10.523h-1.9v-1.664h1.9Zm5.063,7.664.141.688h.047l.148-.687,1.68-5.594h1.961L33.016,0H31.367L28.352-8.453h1.961ZM39.234,0h-1.9V-8.453h1.9Zm0-10.523h-1.9v-1.664h1.9Zm1.773,6.414a5.574,5.574,0,0,1,.867-3.262,2.8,2.8,0,0,1,2.438-1.238,2.666,2.666,0,0,1,1.23.277,2.785,2.785,0,0,1,.941.793v-4.648h1.9V0H46.844l-.227-1.07a2.82,2.82,0,0,1-.984.918A2.738,2.738,0,0,1,44.3.164,2.876,2.876,0,0,1,41.875-.969a4.766,4.766,0,0,1-.867-2.977Zm1.9.164a3.4,3.4,0,0,0,.449,1.867,1.573,1.573,0,0,0,1.426.7,1.906,1.906,0,0,0,1.02-.258,1.963,1.963,0,0,0,.684-.734V-6.062a2,2,0,0,0-.687-.73,1.859,1.859,0,0,0-1-.262,1.531,1.531,0,0,0-1.43.816,4.308,4.308,0,0,0-.461,2.129ZM55.516,0q-.1-.32-.168-.625a4.468,4.468,0,0,1-.09-.609,3.256,3.256,0,0,1-1.023,1,2.633,2.633,0,0,1-1.43.4,2.81,2.81,0,0,1-2.027-.68,2.468,2.468,0,0,1-.707-1.867,2.206,2.206,0,0,1,.969-1.91,4.678,4.678,0,0,1,2.727-.684h1.477v-.742a1.38,1.38,0,0,0-.387-1.039,1.547,1.547,0,0,0-1.121-.375,1.6,1.6,0,0,0-1.031.309.981.981,0,0,0-.383.8l-1.828.008-.008-.047a2.094,2.094,0,0,1,.895-1.773,3.79,3.79,0,0,1,2.473-.773,3.617,3.617,0,0,1,2.383.75A2.64,2.64,0,0,1,57.141-5.7v3.758a6.93,6.93,0,0,0,.07,1A5.331,5.331,0,0,0,57.438,0ZM53.2-1.359a2.373,2.373,0,0,0,1.285-.359,1.81,1.81,0,0,0,.762-.82v-1.25H53.734a1.9,1.9,0,0,0-1.3.41,1.246,1.246,0,0,0-.469.965.984.984,0,0,0,.316.77A1.315,1.315,0,0,0,53.2-1.359Zm5.578-2.75a5.574,5.574,0,0,1,.867-3.262,2.8,2.8,0,0,1,2.438-1.238,2.666,2.666,0,0,1,1.23.277,2.785,2.785,0,0,1,.941.793v-4.648h1.9V0H64.609l-.227-1.07a2.82,2.82,0,0,1-.984.918,2.738,2.738,0,0,1-1.336.316A2.876,2.876,0,0,1,59.641-.969a4.766,4.766,0,0,1-.867-2.977Zm1.9.164a3.4,3.4,0,0,0,.449,1.867,1.573,1.573,0,0,0,1.426.7,1.906,1.906,0,0,0,1.02-.258,1.963,1.963,0,0,0,.684-.734V-6.062a2,2,0,0,0-.687-.73,1.859,1.859,0,0,0-1-.262,1.531,1.531,0,0,0-1.43.816,4.308,4.308,0,0,0-.461,2.129Z" transform="translate(-713.948 -4818.569)" fill="#0c1d30"/>
    <path id="Trazado_204689" data-name="Trazado 204689" d="M7.117-2.656H3.086L2.211,0H.25L4.219-11.375h1.8L9.945,0H7.984ZM3.609-4.242H6.6L5.141-8.727H5.094Zm12.3,1.93a.875.875,0,0,0-.371-.723,3.838,3.838,0,0,0-1.4-.512,5.7,5.7,0,0,1-2.281-.9,1.893,1.893,0,0,1-.789-1.594,2.3,2.3,0,0,1,.9-1.816,3.56,3.56,0,0,1,2.367-.754,3.671,3.671,0,0,1,2.441.777,2.252,2.252,0,0,1,.887,1.871l-.016.047H15.82a1.185,1.185,0,0,0-.406-.895,1.528,1.528,0,0,0-1.086-.379,1.552,1.552,0,0,0-1.047.313.977.977,0,0,0-.359.766.823.823,0,0,0,.336.688,3.682,3.682,0,0,0,1.383.461,5.727,5.727,0,0,1,2.344.918,1.939,1.939,0,0,1,.789,1.621,2.246,2.246,0,0,1-.941,1.863,3.965,3.965,0,0,1-2.48.723,3.786,3.786,0,0,1-2.6-.844,2.383,2.383,0,0,1-.906-1.937l.016-.047h1.766a1.266,1.266,0,0,0,.531,1.07,2.135,2.135,0,0,0,1.219.336A1.909,1.909,0,0,0,15.5-1.547.9.9,0,0,0,15.906-2.312ZM26.883-3.945a4.766,4.766,0,0,1-.867,2.977A2.868,2.868,0,0,1,23.6.164a2.99,2.99,0,0,1-1.273-.258,2.62,2.62,0,0,1-.953-.758v4.1h-1.9v-11.7h1.6l.188,1.063a2.819,2.819,0,0,1,.98-.906,2.743,2.743,0,0,1,1.332-.312,2.807,2.807,0,0,1,2.434,1.238,5.556,5.556,0,0,1,.871,3.262Zm-1.891-.164A4.118,4.118,0,0,0,24.5-6.23a1.588,1.588,0,0,0-1.457-.824,1.893,1.893,0,0,0-1.008.254,1.869,1.869,0,0,0-.664.707v3.82a1.766,1.766,0,0,0,.664.684,2.024,2.024,0,0,0,1.023.238,1.629,1.629,0,0,0,1.449-.715,3.312,3.312,0,0,0,.48-1.879ZM32.125.164A3.681,3.681,0,0,1,29.23-1a4.374,4.374,0,0,1-1.043-3.027v-.312A4.522,4.522,0,0,1,29.23-7.41a3.37,3.37,0,0,1,2.691-1.2A3.163,3.163,0,0,1,34.5-7.559a4.249,4.249,0,0,1,.875,2.809v1.023H30.148l-.016.039A2.77,2.77,0,0,0,30.68-2a1.866,1.866,0,0,0,1.555.648,4.277,4.277,0,0,0,1.34-.187,3.825,3.825,0,0,0,1.051-.539l.617,1.242a4.023,4.023,0,0,1-1.281.711A5.37,5.37,0,0,1,32.125.164Zm-.2-7.25a1.467,1.467,0,0,0-1.187.535,2.652,2.652,0,0,0-.555,1.395l.016.039h3.3v-.148a2.134,2.134,0,0,0-.379-1.316A1.4,1.4,0,0,0,31.922-7.086Zm8.438,5.734a1.577,1.577,0,0,0,1.1-.406,1.33,1.33,0,0,0,.449-1.031h1.719l.016.047A2.549,2.549,0,0,1,42.7-.7a3.413,3.413,0,0,1-2.34.859,3.444,3.444,0,0,1-2.82-1.207,4.633,4.633,0,0,1-.992-3.043v-.273A4.637,4.637,0,0,1,37.539-7.4a3.43,3.43,0,0,1,2.813-1.211,3.316,3.316,0,0,1,2.4.887,2.894,2.894,0,0,1,.891,2.254l-.016.047H41.906a1.715,1.715,0,0,0-.43-1.18,1.432,1.432,0,0,0-1.125-.484,1.549,1.549,0,0,0-1.461.785,3.885,3.885,0,0,0-.445,1.941v.273a3.921,3.921,0,0,0,.441,1.957A1.558,1.558,0,0,0,40.359-1.352Zm7.3-9.156v2.055H49.18v1.406H47.664v4.672a1.019,1.019,0,0,0,.227.746.821.821,0,0,0,.6.223,1.678,1.678,0,0,0,.3-.027,1.852,1.852,0,0,0,.281-.074l.2,1.391a2.181,2.181,0,0,1-.574.207,3.161,3.161,0,0,1-.691.074,2.19,2.19,0,0,1-1.645-.613,2.674,2.674,0,0,1-.6-1.926V-7.047H44.484V-8.453h1.289v-2.055Zm2.471,6.2a4.59,4.59,0,0,1,1.035-3.1A3.535,3.535,0,0,1,54-8.609,3.562,3.562,0,0,1,56.858-7.4a4.59,4.59,0,0,1,1.035,3.1v.164a4.583,4.583,0,0,1-1.035,3.105,3.555,3.555,0,0,1-2.84,1.2,3.558,3.558,0,0,1-2.848-1.2,4.587,4.587,0,0,1-1.035-3.1Zm1.9.164a3.75,3.75,0,0,0,.484,2.016,1.645,1.645,0,0,0,1.5.773,1.648,1.648,0,0,0,1.488-.777A3.684,3.684,0,0,0,56-4.141V-4.3a3.676,3.676,0,0,0-.5-2A1.658,1.658,0,0,0,54-7.086a1.626,1.626,0,0,0-1.48.785,3.722,3.722,0,0,0-.488,2Z" transform="translate(-518.925 -4818.569)" fill="#0c1d30"/>
    <path id="Trazado_204690" data-name="Trazado 204690" d="M8.381-3.295l.014.041a3.116,3.116,0,0,1-.971,2.5,3.958,3.958,0,0,1-2.755.9A3.816,3.816,0,0,1,1.777-1.008a4.132,4.132,0,0,1-1.1-2.977V-5.961A4.208,4.208,0,0,1,1.75-8.938,3.659,3.659,0,0,1,4.566-10.1a4.2,4.2,0,0,1,2.844.889,3.06,3.06,0,0,1,1,2.5l-.014.041H6.453A1.957,1.957,0,0,0,5.992-8.09a1.925,1.925,0,0,0-1.425-.468,1.609,1.609,0,0,0-1.4.721,3.189,3.189,0,0,0-.5,1.863v1.989A3.1,3.1,0,0,0,3.2-2.112a1.722,1.722,0,0,0,1.473.725,1.752,1.752,0,0,0,1.336-.468,2.037,2.037,0,0,0,.441-1.439Zm.984-.472a3.969,3.969,0,0,1,.923-2.71,3.217,3.217,0,0,1,2.557-1.056,3.251,3.251,0,0,1,2.57,1.053,3.948,3.948,0,0,1,.93,2.714v.144a3.954,3.954,0,0,1-.926,2.717A3.237,3.237,0,0,1,12.858.144,3.246,3.246,0,0,1,10.292-.906a3.954,3.954,0,0,1-.926-2.717Zm1.989.144A3.218,3.218,0,0,0,11.71-2a1.227,1.227,0,0,0,1.148.612A1.215,1.215,0,0,0,13.99-2a3.2,3.2,0,0,0,.359-1.62v-.144a3.164,3.164,0,0,0-.362-1.606A1.226,1.226,0,0,0,12.845-6a1.211,1.211,0,0,0-1.131.625,3.192,3.192,0,0,0-.359,1.6ZM19.4-7.4l.089,1.06a2.705,2.705,0,0,1,.909-.882,2.36,2.36,0,0,1,1.21-.314,2.2,2.2,0,0,1,1.75.721,3.419,3.419,0,0,1,.629,2.28V0h-2V-4.525a1.771,1.771,0,0,0-.277-1.125,1.02,1.02,0,0,0-.831-.332,1.743,1.743,0,0,0-.783.167,1.528,1.528,0,0,0-.557.461V0h-2V-7.4Zm8.47-1.812V-7.4h1.251V-6H27.87v3.767a.859.859,0,0,0,.181.615.636.636,0,0,0,.475.185,1.906,1.906,0,0,0,.273-.017,2.3,2.3,0,0,0,.267-.058L29.23-.062a4.041,4.041,0,0,1-.584.154,3.484,3.484,0,0,1-.619.051,2.127,2.127,0,0,1-1.589-.567,2.488,2.488,0,0,1-.557-1.8V-6H24.8V-7.4h1.08V-9.208ZM34.713,0a4.2,4.2,0,0,1-.188-.533,3.709,3.709,0,0,1-.113-.574,2.736,2.736,0,0,1-.813.9,2.039,2.039,0,0,1-1.2.355,2.5,2.5,0,0,1-1.791-.6,2.143,2.143,0,0,1-.629-1.63,1.95,1.95,0,0,1,.837-1.685,4.182,4.182,0,0,1,2.444-.6h1.121v-.588a1.151,1.151,0,0,0-.28-.827,1.1,1.1,0,0,0-.834-.294,1.084,1.084,0,0,0-.749.236.823.823,0,0,0-.263.646H30.331l-.014-.041a1.876,1.876,0,0,1,.817-1.617,3.548,3.548,0,0,1,2.259-.68,3.311,3.311,0,0,1,2.157.67,2.333,2.333,0,0,1,.824,1.921v3.056a5.779,5.779,0,0,0,.079.978A4.905,4.905,0,0,0,36.7,0ZM32.888-1.333a1.7,1.7,0,0,0,.93-.26,1.4,1.4,0,0,0,.561-.6V-3.24H33.257a1.329,1.329,0,0,0-.96.314,1.033,1.033,0,0,0-.325.772.771.771,0,0,0,.243.6A.96.96,0,0,0,32.888-1.333ZM39.724-7.4l.082.978a2.485,2.485,0,0,1,.892-.824,2.565,2.565,0,0,1,1.241-.291,2.259,2.259,0,0,1,1.217.314,1.94,1.94,0,0,1,.766.95,2.564,2.564,0,0,1,.889-.93,2.411,2.411,0,0,1,1.285-.335,2.107,2.107,0,0,1,1.726.776,3.7,3.7,0,0,1,.632,2.369V0h-2V-4.4a2.073,2.073,0,0,0-.273-1.237.971.971,0,0,0-.813-.349,1.393,1.393,0,0,0-.735.188,1.369,1.369,0,0,0-.5.523q0,.13.007.222t.007.188V0H42.164V-4.4a2.079,2.079,0,0,0-.273-1.227.966.966,0,0,0-.82-.359,1.548,1.548,0,0,0-.708.154,1.357,1.357,0,0,0-.5.434V0H37.871V-7.4ZM52.083,0h-2V-7.4h2Zm0-9.167h-2v-1.5h2ZM55.549-7.4l.089,1.06a2.705,2.705,0,0,1,.909-.882,2.36,2.36,0,0,1,1.21-.314,2.2,2.2,0,0,1,1.75.721,3.419,3.419,0,0,1,.629,2.28V0h-2V-4.525a1.771,1.771,0,0,0-.277-1.125,1.02,1.02,0,0,0-.831-.332,1.743,1.743,0,0,0-.783.167,1.528,1.528,0,0,0-.557.461V0h-2V-7.4ZM65.987,0A4.2,4.2,0,0,1,65.8-.533a3.71,3.71,0,0,1-.113-.574,2.736,2.736,0,0,1-.813.9,2.039,2.039,0,0,1-1.2.355,2.5,2.5,0,0,1-1.791-.6,2.143,2.143,0,0,1-.629-1.63,1.95,1.95,0,0,1,.837-1.685,4.182,4.182,0,0,1,2.444-.6h1.121v-.588a1.151,1.151,0,0,0-.28-.827,1.1,1.1,0,0,0-.834-.294,1.084,1.084,0,0,0-.749.236.823.823,0,0,0-.263.646H61.605l-.014-.041a1.876,1.876,0,0,1,.817-1.617,3.548,3.548,0,0,1,2.259-.68,3.311,3.311,0,0,1,2.157.67,2.333,2.333,0,0,1,.824,1.921v3.056a5.78,5.78,0,0,0,.079.978,4.905,4.905,0,0,0,.25.909ZM64.162-1.333a1.7,1.7,0,0,0,.93-.26,1.4,1.4,0,0,0,.561-.6V-3.24H64.531a1.329,1.329,0,0,0-.96.314,1.033,1.033,0,0,0-.325.772.771.771,0,0,0,.243.6A.96.96,0,0,0,64.162-1.333Zm8.073-.055a1.111,1.111,0,0,0,.827-.311,1.129,1.129,0,0,0,.308-.831h1.818l.014.041a2.315,2.315,0,0,1-.834,1.876,3.119,3.119,0,0,1-2.133.755A3.152,3.152,0,0,1,69.7-.906a3.988,3.988,0,0,1-.9-2.683v-.205A4.014,4.014,0,0,1,69.7-6.477a3.124,3.124,0,0,1,2.526-1.056,3.05,3.05,0,0,1,2.181.779A2.6,2.6,0,0,1,75.2-4.7l-.014.041H73.37a1.476,1.476,0,0,0-.3-.954A1.022,1.022,0,0,0,72.222-6a1.139,1.139,0,0,0-1.1.619A3.393,3.393,0,0,0,70.8-3.794v.205A3.38,3.38,0,0,0,71.125-2,1.155,1.155,0,0,0,72.235-1.388ZM78.463,0h-2V-7.4h2Zm0-9.167h-2v-1.5h2Zm1.333,5.4a3.969,3.969,0,0,1,.923-2.71,3.217,3.217,0,0,1,2.557-1.056,3.251,3.251,0,0,1,2.57,1.053,3.948,3.948,0,0,1,.93,2.714v.144a3.954,3.954,0,0,1-.926,2.717A3.237,3.237,0,0,1,83.289.144,3.246,3.246,0,0,1,80.722-.906,3.954,3.954,0,0,1,79.8-3.623Zm1.989.144A3.218,3.218,0,0,0,82.141-2a1.227,1.227,0,0,0,1.148.612A1.215,1.215,0,0,0,84.42-2a3.2,3.2,0,0,0,.359-1.62v-.144a3.164,3.164,0,0,0-.362-1.606A1.226,1.226,0,0,0,83.275-6a1.211,1.211,0,0,0-1.131.625,3.192,3.192,0,0,0-.359,1.6Zm1.894-6.932H85.9l.014.041L84.021-8.736h-1.7ZM89.831-7.4l.089,1.06a2.705,2.705,0,0,1,.909-.882,2.36,2.36,0,0,1,1.21-.314,2.2,2.2,0,0,1,1.75.721,3.419,3.419,0,0,1,.629,2.28V0h-2V-4.525a1.771,1.771,0,0,0-.277-1.125,1.02,1.02,0,0,0-.831-.332,1.743,1.743,0,0,0-.783.167,1.528,1.528,0,0,0-.557.461V0h-2V-7.4Zm12.653,6.009a1.111,1.111,0,0,0,.827-.311,1.129,1.129,0,0,0,.308-.831h1.818l.014.041a2.315,2.315,0,0,1-.834,1.876,3.119,3.119,0,0,1-2.133.755A3.152,3.152,0,0,1,99.948-.906a3.988,3.988,0,0,1-.9-2.683v-.205a4.014,4.014,0,0,1,.892-2.683,3.124,3.124,0,0,1,2.526-1.056,3.05,3.05,0,0,1,2.181.779,2.6,2.6,0,0,1,.8,2.051l-.014.041h-1.818a1.476,1.476,0,0,0-.3-.954A1.022,1.022,0,0,0,102.471-6a1.139,1.139,0,0,0-1.1.619,3.393,3.393,0,0,0-.325,1.583v.205A3.38,3.38,0,0,0,101.374-2,1.155,1.155,0,0,0,102.484-1.388ZM110.5-5.681l-.731-.021a1.329,1.329,0,0,0-.731.185A1.17,1.17,0,0,0,108.6-5V0h-1.989V-7.4h1.853l.089,1.094a2.333,2.333,0,0,1,.673-.906,1.5,1.5,0,0,1,.954-.325,1.492,1.492,0,0,1,.277.024q.126.024.256.058Zm5.571,4.587a2.511,2.511,0,0,1-.868.916,2.3,2.3,0,0,1-1.224.321,2.249,2.249,0,0,1-1.829-.793,3.8,3.8,0,0,1-.66-2.461V-7.4h1.989v4.3a2.388,2.388,0,0,0,.263,1.33.946.946,0,0,0,.817.359,1.989,1.989,0,0,0,.82-.154,1.383,1.383,0,0,0,.561-.455V-7.4h2V0h-1.654Zm5.6-.437h3.664V0h-6.146V-1.176l3.521-4.676H119.3V-7.4h5.92v1.142ZM130.956,0a4.2,4.2,0,0,1-.188-.533,3.708,3.708,0,0,1-.113-.574,2.736,2.736,0,0,1-.813.9,2.039,2.039,0,0,1-1.2.355,2.5,2.5,0,0,1-1.791-.6,2.143,2.143,0,0,1-.629-1.63,1.95,1.95,0,0,1,.837-1.685,4.182,4.182,0,0,1,2.444-.6h1.121v-.588a1.151,1.151,0,0,0-.28-.827,1.1,1.1,0,0,0-.834-.294,1.084,1.084,0,0,0-.749.236.823.823,0,0,0-.263.646h-1.921l-.014-.041a1.876,1.876,0,0,1,.817-1.617,3.548,3.548,0,0,1,2.259-.68,3.311,3.311,0,0,1,2.157.67,2.333,2.333,0,0,1,.824,1.921v3.056a5.779,5.779,0,0,0,.079.978,4.905,4.905,0,0,0,.25.909Zm-1.825-1.333a1.7,1.7,0,0,0,.93-.26,1.4,1.4,0,0,0,.561-.6V-3.24H129.5a1.329,1.329,0,0,0-.96.314,1.033,1.033,0,0,0-.325.772.771.771,0,0,0,.243.6A.96.96,0,0,0,129.131-1.333Zm4.676-2.3a4.806,4.806,0,0,1,.755-2.823,2.453,2.453,0,0,1,2.129-1.073,2.071,2.071,0,0,1,1,.239,2.4,2.4,0,0,1,.779.684v-4.054h2V0h-1.7L138.6-.909a2.473,2.473,0,0,1-.827.783,2.187,2.187,0,0,1-1.094.27,2.5,2.5,0,0,1-2.116-1,4.262,4.262,0,0,1-.755-2.639Zm1.989.144a3.013,3.013,0,0,0,.328,1.528,1.142,1.142,0,0,0,1.066.557,1.553,1.553,0,0,0,.752-.174,1.391,1.391,0,0,0,.526-.509V-5.243a1.536,1.536,0,0,0-.523-.543,1.391,1.391,0,0,0-.742-.195,1.127,1.127,0,0,0-1.07.649,3.67,3.67,0,0,0-.338,1.7ZM146.378,0a4.2,4.2,0,0,1-.188-.533,3.708,3.708,0,0,1-.113-.574,2.736,2.736,0,0,1-.813.9,2.039,2.039,0,0,1-1.2.355,2.5,2.5,0,0,1-1.791-.6,2.143,2.143,0,0,1-.629-1.63,1.95,1.95,0,0,1,.837-1.685,4.182,4.182,0,0,1,2.444-.6h1.121v-.588a1.151,1.151,0,0,0-.28-.827,1.1,1.1,0,0,0-.834-.294,1.084,1.084,0,0,0-.749.236.823.823,0,0,0-.263.646H142l-.014-.041a1.876,1.876,0,0,1,.817-1.617,3.548,3.548,0,0,1,2.259-.68,3.311,3.311,0,0,1,2.157.67,2.333,2.333,0,0,1,.824,1.921v3.056a5.779,5.779,0,0,0,.079.978,4.905,4.905,0,0,0,.25.909Zm-1.825-1.333a1.7,1.7,0,0,0,.93-.26,1.4,1.4,0,0,0,.561-.6V-3.24h-1.121a1.329,1.329,0,0,0-.96.314,1.033,1.033,0,0,0-.325.772.771.771,0,0,0,.243.6A.96.96,0,0,0,144.553-1.333Z" transform="translate(-592.375 -4758.943)" fill="#0c1d30"/>
    <path id="Trazado_204691" data-name="Trazado 204691" d="M3.25,0h-1.9V-11.375h1.9ZM7.336-8.453l.1,1.1a2.865,2.865,0,0,1,1.039-.93,3.065,3.065,0,0,1,1.445-.328,2.608,2.608,0,0,1,1.422.375,2.266,2.266,0,0,1,.891,1.125,2.962,2.962,0,0,1,1.031-1.1,2.781,2.781,0,0,1,1.5-.4,2.479,2.479,0,0,1,2.012.887,4.125,4.125,0,0,1,.738,2.684V0h-1.9V-5.047a2.49,2.49,0,0,0-.371-1.559,1.361,1.361,0,0,0-1.113-.449,1.629,1.629,0,0,0-1.031.328,1.828,1.828,0,0,0-.609.883q0,.117.008.2t.008.164V0h-1.9V-5.047a2.462,2.462,0,0,0-.379-1.539,1.347,1.347,0,0,0-1.113-.469,2,2,0,0,0-.98.223A1.642,1.642,0,0,0,7.5-6.2V0H5.6V-8.453ZM26.922-3.945a4.766,4.766,0,0,1-.867,2.977A2.868,2.868,0,0,1,23.641.164a2.99,2.99,0,0,1-1.273-.258,2.62,2.62,0,0,1-.953-.758v4.1h-1.9v-11.7h1.6L21.3-7.391a2.819,2.819,0,0,1,.98-.906,2.743,2.743,0,0,1,1.332-.312,2.807,2.807,0,0,1,2.434,1.238,5.556,5.556,0,0,1,.871,3.262Zm-1.891-.164a4.118,4.118,0,0,0-.488-2.121,1.588,1.588,0,0,0-1.457-.824,1.893,1.893,0,0,0-1.008.254,1.869,1.869,0,0,0-.664.707v3.82a1.766,1.766,0,0,0,.664.684,2.024,2.024,0,0,0,1.023.238,1.629,1.629,0,0,0,1.449-.715,3.312,3.312,0,0,0,.48-1.879ZM33.672,0q-.1-.32-.168-.625a4.468,4.468,0,0,1-.09-.609,3.256,3.256,0,0,1-1.023,1,2.633,2.633,0,0,1-1.43.4,2.81,2.81,0,0,1-2.027-.68,2.468,2.468,0,0,1-.707-1.867,2.206,2.206,0,0,1,.969-1.91,4.678,4.678,0,0,1,2.727-.684H33.4v-.742a1.38,1.38,0,0,0-.387-1.039,1.547,1.547,0,0,0-1.121-.375,1.6,1.6,0,0,0-1.031.309.981.981,0,0,0-.383.8l-1.828.008-.008-.047a2.094,2.094,0,0,1,.895-1.773,3.79,3.79,0,0,1,2.473-.773,3.617,3.617,0,0,1,2.383.75A2.64,2.64,0,0,1,35.3-5.7v3.758a6.93,6.93,0,0,0,.07,1A5.331,5.331,0,0,0,35.594,0Zm-2.32-1.359a2.373,2.373,0,0,0,1.285-.359,1.81,1.81,0,0,0,.762-.82v-1.25H31.891a1.9,1.9,0,0,0-1.3.41,1.246,1.246,0,0,0-.469.965.984.984,0,0,0,.316.77A1.315,1.315,0,0,0,31.352-1.359Zm9.375.008a1.577,1.577,0,0,0,1.1-.406,1.33,1.33,0,0,0,.449-1.031h1.719l.016.047A2.549,2.549,0,0,1,43.066-.7a3.413,3.413,0,0,1-2.34.859,3.444,3.444,0,0,1-2.82-1.207,4.633,4.633,0,0,1-.992-3.043v-.273A4.637,4.637,0,0,1,37.906-7.4a3.43,3.43,0,0,1,2.813-1.211,3.316,3.316,0,0,1,2.4.887,2.894,2.894,0,0,1,.891,2.254l-.016.047H42.273a1.715,1.715,0,0,0-.43-1.18,1.432,1.432,0,0,0-1.125-.484,1.549,1.549,0,0,0-1.461.785,3.885,3.885,0,0,0-.445,1.941v.273a3.921,3.921,0,0,0,.441,1.957A1.558,1.558,0,0,0,40.727-1.352Zm7.3-9.156v2.055h1.516v1.406H48.031v4.672a1.019,1.019,0,0,0,.227.746.821.821,0,0,0,.6.223,1.678,1.678,0,0,0,.3-.027,1.852,1.852,0,0,0,.281-.074l.2,1.391a2.181,2.181,0,0,1-.574.207,3.161,3.161,0,0,1-.691.074,2.19,2.19,0,0,1-1.645-.613,2.674,2.674,0,0,1-.6-1.926V-7.047H44.852V-8.453h1.289v-2.055Zm2.487,6.2a4.59,4.59,0,0,1,1.035-3.1,3.535,3.535,0,0,1,2.832-1.207A3.562,3.562,0,0,1,57.241-7.4a4.59,4.59,0,0,1,1.035,3.1v.164a4.583,4.583,0,0,1-1.035,3.105A3.555,3.555,0,0,1,54.4.164a3.558,3.558,0,0,1-2.848-1.2,4.587,4.587,0,0,1-1.035-3.1Zm1.9.164A3.75,3.75,0,0,0,52.9-2.125a1.645,1.645,0,0,0,1.5.773,1.648,1.648,0,0,0,1.488-.777,3.684,3.684,0,0,0,.5-2.012V-4.3a3.676,3.676,0,0,0-.5-2,1.658,1.658,0,0,0-1.5-.785,1.626,1.626,0,0,0-1.48.785,3.722,3.722,0,0,0-.488,2Z" transform="translate(-243.231 -4818.569)" fill="#0c1d30"/>
    <path id="Trazado_204692" data-name="Trazado 204692" d="M6.063,10.382H6.1L8.661,3.047h2.6V13h-2V6.205L9.229,6.2,6.768,13H5.414L2.953,6.185l-.041.007V13h-2V3.047H3.534ZM17.309,13a4.2,4.2,0,0,1-.188-.533,3.709,3.709,0,0,1-.113-.574,2.736,2.736,0,0,1-.813.9,2.039,2.039,0,0,1-1.2.355,2.5,2.5,0,0,1-1.791-.6,2.143,2.143,0,0,1-.629-1.63,1.95,1.95,0,0,1,.837-1.685,4.182,4.182,0,0,1,2.444-.6h1.121V8.044a1.151,1.151,0,0,0-.28-.827,1.1,1.1,0,0,0-.834-.294,1.084,1.084,0,0,0-.749.236.823.823,0,0,0-.263.646H12.927l-.014-.041a1.876,1.876,0,0,1,.817-1.617,3.548,3.548,0,0,1,2.259-.68,3.311,3.311,0,0,1,2.157.67,2.333,2.333,0,0,1,.824,1.921v3.056a5.779,5.779,0,0,0,.079.978A4.905,4.905,0,0,0,19.3,13Zm-1.825-1.333a1.7,1.7,0,0,0,.93-.26,1.4,1.4,0,0,0,.561-.6V9.76H15.853a1.329,1.329,0,0,0-.96.314,1.033,1.033,0,0,0-.325.772.771.771,0,0,0,.243.6A.96.96,0,0,0,15.483,11.667ZM22.565,13h-2V2.336h2Zm6,0a4.2,4.2,0,0,1-.188-.533,3.709,3.709,0,0,1-.113-.574,2.736,2.736,0,0,1-.813.9,2.039,2.039,0,0,1-1.2.355,2.5,2.5,0,0,1-1.791-.6,2.143,2.143,0,0,1-.629-1.63,1.95,1.95,0,0,1,.837-1.685,4.182,4.182,0,0,1,2.444-.6h1.121V8.044a1.151,1.151,0,0,0-.28-.827,1.1,1.1,0,0,0-.834-.294,1.084,1.084,0,0,0-.749.236.823.823,0,0,0-.263.646H24.186l-.014-.041a1.876,1.876,0,0,1,.817-1.617,3.548,3.548,0,0,1,2.259-.68,3.311,3.311,0,0,1,2.157.67,2.333,2.333,0,0,1,.824,1.921v3.056a5.779,5.779,0,0,0,.079.978,4.905,4.905,0,0,0,.25.909Zm-1.825-1.333a1.7,1.7,0,0,0,.93-.26,1.4,1.4,0,0,0,.561-.6V9.76H27.111a1.329,1.329,0,0,0-.96.314,1.033,1.033,0,0,0-.325.772.771.771,0,0,0,.243.6A.96.96,0,0,0,26.742,11.667Zm8.982-.718a.689.689,0,0,0-.318-.564,3.229,3.229,0,0,0-1.179-.414,4.7,4.7,0,0,1-1.972-.786,1.717,1.717,0,0,1-.673-1.429,2.038,2.038,0,0,1,.807-1.62,3.252,3.252,0,0,1,2.146-.67,3.51,3.51,0,0,1,2.246.67,1.957,1.957,0,0,1,.81,1.668l-.014.041H35.649a.968.968,0,0,0-.287-.725,1.342,1.342,0,0,0-1.586-.041.744.744,0,0,0-.28.588.664.664,0,0,0,.291.557,3.234,3.234,0,0,0,1.179.386,4.8,4.8,0,0,1,2.027.8,1.762,1.762,0,0,1,.667,1.459,1.952,1.952,0,0,1-.854,1.634,3.688,3.688,0,0,1-2.256.636,3.429,3.429,0,0,1-2.334-.749,2.093,2.093,0,0,1-.817-1.706l.014-.041h1.825a1.037,1.037,0,0,0,.39.861,1.609,1.609,0,0,0,.964.267,1.371,1.371,0,0,0,.844-.222A.721.721,0,0,0,35.725,10.949ZM49.1,9.507a4.248,4.248,0,0,1-.759,2.639,2.51,2.51,0,0,1-2.119,1,2.369,2.369,0,0,1-1.032-.215,2.12,2.12,0,0,1-.772-.632v3.548H42.431V5.6h1.8l.116.875a2.37,2.37,0,0,1,.79-.749,2.136,2.136,0,0,1,1.077-.263A2.462,2.462,0,0,1,48.344,6.54,4.79,4.79,0,0,1,49.1,9.363Zm-2-.144a3.578,3.578,0,0,0-.349-1.7,1.137,1.137,0,0,0-1.066-.649,1.507,1.507,0,0,0-.769.185,1.317,1.317,0,0,0-.5.526v3.24a1.224,1.224,0,0,0,.5.479,1.693,1.693,0,0,0,.783.164,1.148,1.148,0,0,0,1.063-.567,3,3,0,0,0,.338-1.538Zm7.116-2.044L53.491,7.3a1.329,1.329,0,0,0-.731.185,1.17,1.17,0,0,0-.437.52v5H50.333V5.6h1.853L52.274,6.7a2.333,2.333,0,0,1,.673-.906,1.573,1.573,0,0,1,1.23-.3q.126.024.256.058ZM59.623,13a4.2,4.2,0,0,1-.188-.533,3.709,3.709,0,0,1-.113-.574,2.736,2.736,0,0,1-.813.9,2.039,2.039,0,0,1-1.2.355,2.5,2.5,0,0,1-1.791-.6,2.143,2.143,0,0,1-.629-1.63,1.95,1.95,0,0,1,.837-1.685,4.182,4.182,0,0,1,2.444-.6h1.121V8.044a1.151,1.151,0,0,0-.28-.827,1.1,1.1,0,0,0-.834-.294,1.084,1.084,0,0,0-.749.236.823.823,0,0,0-.263.646H55.241l-.014-.041a1.876,1.876,0,0,1,.817-1.617,3.548,3.548,0,0,1,2.259-.68,3.311,3.311,0,0,1,2.157.67,2.333,2.333,0,0,1,.824,1.921v3.056a5.779,5.779,0,0,0,.079.978,4.905,4.905,0,0,0,.25.909ZM57.8,11.667a1.7,1.7,0,0,0,.93-.26,1.4,1.4,0,0,0,.561-.6V9.76H58.167a1.329,1.329,0,0,0-.96.314,1.033,1.033,0,0,0-.325.772.771.771,0,0,0,.243.6A.96.96,0,0,0,57.8,11.667Zm.827-9.222h2.222l.014.041L58.967,4.264h-1.7Zm7.246,9.167A1.111,1.111,0,0,0,66.7,11.3a1.129,1.129,0,0,0,.308-.831h1.818l.014.041A2.315,2.315,0,0,1,68,12.388a3.119,3.119,0,0,1-2.133.755,3.152,3.152,0,0,1-2.536-1.049,3.988,3.988,0,0,1-.9-2.683V9.206a4.014,4.014,0,0,1,.892-2.683,3.124,3.124,0,0,1,2.526-1.056,3.05,3.05,0,0,1,2.181.779,2.6,2.6,0,0,1,.8,2.051l-.014.041H67.006a1.476,1.476,0,0,0-.3-.954A1.022,1.022,0,0,0,65.857,7a1.139,1.139,0,0,0-1.1.619,3.393,3.393,0,0,0-.325,1.583v.205A3.38,3.38,0,0,0,64.76,11,1.155,1.155,0,0,0,65.871,11.612Zm6.521-7.82V5.6h1.251V7H72.393v3.767a.859.859,0,0,0,.181.615.636.636,0,0,0,.475.185,1.906,1.906,0,0,0,.273-.017,2.3,2.3,0,0,0,.267-.058l.164,1.442a4.041,4.041,0,0,1-.584.154,3.484,3.484,0,0,1-.619.051,2.127,2.127,0,0,1-1.589-.567,2.488,2.488,0,0,1-.557-1.8V7h-1.08V5.6H70.4V3.792ZM76.973,13h-2V5.6h2Zm0-9.167h-2v-1.5h2Zm4.73,7.779a1.111,1.111,0,0,0,.827-.311,1.129,1.129,0,0,0,.308-.831h1.818l.014.041a2.315,2.315,0,0,1-.834,1.876,3.119,3.119,0,0,1-2.133.755,3.152,3.152,0,0,1-2.536-1.049,3.988,3.988,0,0,1-.9-2.683V9.206a4.014,4.014,0,0,1,.892-2.683,3.124,3.124,0,0,1,2.526-1.056,3.05,3.05,0,0,1,2.181.779,2.6,2.6,0,0,1,.8,2.051l-.014.041H82.838a1.476,1.476,0,0,0-.3-.954A1.022,1.022,0,0,0,81.689,7a1.139,1.139,0,0,0-1.1.619,3.393,3.393,0,0,0-.325,1.583v.205A3.38,3.38,0,0,0,80.592,11,1.155,1.155,0,0,0,81.7,11.612ZM90.193,13a4.2,4.2,0,0,1-.188-.533,3.71,3.71,0,0,1-.113-.574,2.736,2.736,0,0,1-.813.9,2.039,2.039,0,0,1-1.2.355,2.5,2.5,0,0,1-1.791-.6,2.143,2.143,0,0,1-.629-1.63,1.95,1.95,0,0,1,.837-1.685,4.182,4.182,0,0,1,2.444-.6h1.121V8.044a1.151,1.151,0,0,0-.28-.827,1.1,1.1,0,0,0-.834-.294A1.084,1.084,0,0,0,88,7.159a.823.823,0,0,0-.263.646H85.812L85.8,7.764a1.876,1.876,0,0,1,.817-1.617,3.548,3.548,0,0,1,2.259-.68,3.311,3.311,0,0,1,2.157.67,2.333,2.333,0,0,1,.824,1.921v3.056a5.78,5.78,0,0,0,.079.978,4.905,4.905,0,0,0,.25.909Zm-1.825-1.333a1.7,1.7,0,0,0,.93-.26,1.4,1.4,0,0,0,.561-.6V9.76H88.737a1.329,1.329,0,0,0-.96.314,1.033,1.033,0,0,0-.325.772.771.771,0,0,0,.243.6A.96.96,0,0,0,88.368,11.667Zm8.982-.718a.689.689,0,0,0-.318-.564,3.229,3.229,0,0,0-1.179-.414,4.7,4.7,0,0,1-1.972-.786,1.717,1.717,0,0,1-.673-1.429,2.038,2.038,0,0,1,.807-1.62,3.252,3.252,0,0,1,2.146-.67,3.51,3.51,0,0,1,2.246.67,1.957,1.957,0,0,1,.81,1.668l-.014.041H97.275a.968.968,0,0,0-.287-.725A1.342,1.342,0,0,0,95.4,7.08a.744.744,0,0,0-.28.588.664.664,0,0,0,.291.557,3.234,3.234,0,0,0,1.179.386,4.8,4.8,0,0,1,2.027.8,1.762,1.762,0,0,1,.667,1.459,1.952,1.952,0,0,1-.854,1.634,3.688,3.688,0,0,1-2.256.636A3.429,3.429,0,0,1,93.84,12.4a2.093,2.093,0,0,1-.817-1.706l.014-.041h1.825a1.037,1.037,0,0,0,.39.861,1.609,1.609,0,0,0,.964.267,1.371,1.371,0,0,0,.844-.222A.721.721,0,0,0,97.351,10.949Zm6.4-1.586A4.806,4.806,0,0,1,104.5,6.54a2.453,2.453,0,0,1,2.129-1.073,2.071,2.071,0,0,1,1,.239,2.4,2.4,0,0,1,.779.684V2.336h2V13h-1.7l-.171-.909a2.473,2.473,0,0,1-.827.783,2.187,2.187,0,0,1-1.094.27,2.5,2.5,0,0,1-2.116-1,4.262,4.262,0,0,1-.755-2.639Zm1.989.144a3.013,3.013,0,0,0,.328,1.528,1.142,1.142,0,0,0,1.066.557,1.553,1.553,0,0,0,.752-.174,1.391,1.391,0,0,0,.526-.509V7.757a1.536,1.536,0,0,0-.523-.543,1.391,1.391,0,0,0-.742-.195,1.127,1.127,0,0,0-1.07.649,3.67,3.67,0,0,0-.338,1.7Zm9.427,3.637a3.328,3.328,0,0,1-2.584-1.015,3.721,3.721,0,0,1-.93-2.615V9.24a4.05,4.05,0,0,1,.9-2.721,3.068,3.068,0,0,1,2.481-1.053,2.872,2.872,0,0,1,2.287.913,3.607,3.607,0,0,1,.8,2.458V9.869h-4.409l-.021.041a2,2,0,0,0,.461,1.23,1.545,1.545,0,0,0,1.227.472,4.106,4.106,0,0,0,1.138-.137,4.644,4.644,0,0,0,.967-.417l.54,1.23a3.705,3.705,0,0,1-1.2.608A5.336,5.336,0,0,1,115.165,13.144ZM115.035,7a1.109,1.109,0,0,0-.926.414,2.075,2.075,0,0,0-.393,1.1l.014.034h2.434V8.4a1.728,1.728,0,0,0-.267-1.022A.986.986,0,0,0,115.035,7Zm9.584-1.4.082.978a2.485,2.485,0,0,1,.892-.824,2.565,2.565,0,0,1,1.241-.291,2.259,2.259,0,0,1,1.217.314,1.94,1.94,0,0,1,.766.95,2.564,2.564,0,0,1,.889-.93,2.411,2.411,0,0,1,1.285-.335,2.107,2.107,0,0,1,1.726.776,3.7,3.7,0,0,1,.632,2.369V13h-2V8.6a2.073,2.073,0,0,0-.273-1.237.971.971,0,0,0-.813-.349,1.393,1.393,0,0,0-.735.188,1.369,1.369,0,0,0-.5.523q0,.13.007.222t.007.188V13H127.06V8.6a2.079,2.079,0,0,0-.273-1.227.966.966,0,0,0-.82-.359,1.548,1.548,0,0,0-.708.154,1.357,1.357,0,0,0-.5.434V13h-1.989V5.6ZM139.241,13a4.2,4.2,0,0,1-.188-.533,3.708,3.708,0,0,1-.113-.574,2.736,2.736,0,0,1-.813.9,2.039,2.039,0,0,1-1.2.355,2.5,2.5,0,0,1-1.791-.6,2.143,2.143,0,0,1-.629-1.63,1.95,1.95,0,0,1,.837-1.685,4.182,4.182,0,0,1,2.444-.6h1.121V8.044a1.151,1.151,0,0,0-.28-.827,1.1,1.1,0,0,0-.834-.294,1.084,1.084,0,0,0-.749.236.823.823,0,0,0-.263.646h-1.921l-.014-.041a1.876,1.876,0,0,1,.817-1.617,3.548,3.548,0,0,1,2.259-.68,3.311,3.311,0,0,1,2.157.67,2.333,2.333,0,0,1,.824,1.921v3.056a5.779,5.779,0,0,0,.079.978,4.905,4.905,0,0,0,.25.909Zm-1.825-1.333a1.7,1.7,0,0,0,.93-.26,1.4,1.4,0,0,0,.561-.6V9.76h-1.121a1.329,1.329,0,0,0-.96.314,1.033,1.033,0,0,0-.325.772.771.771,0,0,0,.243.6A.96.96,0,0,0,137.416,11.667ZM144.225,5.6l.089,1.06a2.705,2.705,0,0,1,.909-.882,2.36,2.36,0,0,1,1.21-.314,2.2,2.2,0,0,1,1.75.721,3.419,3.419,0,0,1,.629,2.28V13h-2V8.475a1.771,1.771,0,0,0-.277-1.125,1.02,1.02,0,0,0-.831-.332,1.743,1.743,0,0,0-.783.167,1.528,1.528,0,0,0-.557.461V13h-2V5.6ZM152.4,13h-2V5.6h2Zm0-9.167h-2v-1.5h2Zm8.313,5.674a4.248,4.248,0,0,1-.759,2.639,2.51,2.51,0,0,1-2.119,1,2.369,2.369,0,0,1-1.032-.215,2.12,2.12,0,0,1-.772-.632v3.548h-1.989V5.6h1.8l.116.875a2.37,2.37,0,0,1,.79-.749,2.136,2.136,0,0,1,1.077-.263,2.462,2.462,0,0,1,2.133,1.073,4.79,4.79,0,0,1,.759,2.823Zm-2-.144a3.578,3.578,0,0,0-.349-1.7,1.137,1.137,0,0,0-1.066-.649,1.507,1.507,0,0,0-.769.185,1.317,1.317,0,0,0-.5.526v3.24a1.224,1.224,0,0,0,.5.479,1.693,1.693,0,0,0,.783.164,1.148,1.148,0,0,0,1.063-.567,3,3,0,0,0,.338-1.538Zm7.759,2.543a2.511,2.511,0,0,1-.868.916,2.3,2.3,0,0,1-1.224.321,2.249,2.249,0,0,1-1.829-.793,3.8,3.8,0,0,1-.66-2.461V5.6h1.989V9.9a2.388,2.388,0,0,0,.263,1.33.946.946,0,0,0,.817.359,1.989,1.989,0,0,0,.82-.154,1.383,1.383,0,0,0,.561-.455V5.6h2V13h-1.654ZM171.944,13h-2V2.336h2Zm6,0a4.2,4.2,0,0,1-.188-.533,3.708,3.708,0,0,1-.113-.574,2.736,2.736,0,0,1-.813.9,2.039,2.039,0,0,1-1.2.355,2.5,2.5,0,0,1-1.791-.6,2.143,2.143,0,0,1-.629-1.63,1.95,1.95,0,0,1,.837-1.685,4.182,4.182,0,0,1,2.444-.6h1.121V8.044a1.151,1.151,0,0,0-.28-.827,1.1,1.1,0,0,0-.834-.294,1.084,1.084,0,0,0-.749.236.823.823,0,0,0-.263.646h-1.921l-.014-.041a1.876,1.876,0,0,1,.817-1.617,3.548,3.548,0,0,1,2.259-.68,3.311,3.311,0,0,1,2.157.67,2.333,2.333,0,0,1,.824,1.921v3.056a5.779,5.779,0,0,0,.079.978,4.905,4.905,0,0,0,.25.909Zm-1.825-1.333a1.7,1.7,0,0,0,.93-.26,1.4,1.4,0,0,0,.561-.6V9.76H176.49a1.329,1.329,0,0,0-.96.314,1.033,1.033,0,0,0-.325.772.771.771,0,0,0,.243.6A.96.96,0,0,0,176.121,11.667Zm8.073-.055a1.111,1.111,0,0,0,.827-.311,1.129,1.129,0,0,0,.308-.831h1.818l.014.041a2.315,2.315,0,0,1-.834,1.876,3.119,3.119,0,0,1-2.133.755,3.152,3.152,0,0,1-2.536-1.049,3.988,3.988,0,0,1-.9-2.683V9.206a4.014,4.014,0,0,1,.892-2.683,3.124,3.124,0,0,1,2.526-1.056,3.05,3.05,0,0,1,2.181.779,2.6,2.6,0,0,1,.8,2.051l-.014.041h-1.818a1.476,1.476,0,0,0-.3-.954A1.022,1.022,0,0,0,184.181,7a1.139,1.139,0,0,0-1.1.619,3.393,3.393,0,0,0-.325,1.583v.205A3.38,3.38,0,0,0,183.083,11,1.155,1.155,0,0,0,184.194,11.612ZM190.422,13h-2V5.6h2Zm0-9.167h-2v-1.5h2Zm1.333,5.4a3.969,3.969,0,0,1,.923-2.71,3.217,3.217,0,0,1,2.557-1.056A3.251,3.251,0,0,1,197.8,6.52a3.948,3.948,0,0,1,.93,2.714v.144a3.954,3.954,0,0,1-.926,2.717,3.656,3.656,0,0,1-5.127,0,3.954,3.954,0,0,1-.926-2.717Zm1.989.144A3.218,3.218,0,0,0,194.1,11a1.366,1.366,0,0,0,2.28,0,3.2,3.2,0,0,0,.359-1.62V9.233a3.164,3.164,0,0,0-.362-1.606A1.226,1.226,0,0,0,195.234,7a1.211,1.211,0,0,0-1.131.625,3.192,3.192,0,0,0-.359,1.6Zm1.894-6.932h2.222l.014.041-1.894,1.777h-1.7ZM201.79,5.6l.089,1.06a2.705,2.705,0,0,1,.909-.882A2.36,2.36,0,0,1,204,5.467a2.2,2.2,0,0,1,1.75.721,3.419,3.419,0,0,1,.629,2.28V13h-2V8.475A1.771,1.771,0,0,0,204.1,7.35a1.02,1.02,0,0,0-.831-.332,1.743,1.743,0,0,0-.783.167,1.528,1.528,0,0,0-.557.461V13h-2V5.6Zm16.235,3.9a4.248,4.248,0,0,1-.759,2.639,2.51,2.51,0,0,1-2.119,1,2.369,2.369,0,0,1-1.032-.215,2.12,2.12,0,0,1-.772-.632v3.548h-1.989V5.6h1.8l.116.875a2.37,2.37,0,0,1,.79-.749,2.136,2.136,0,0,1,1.077-.263,2.462,2.462,0,0,1,2.133,1.073,4.79,4.79,0,0,1,.759,2.823Zm-2-.144a3.578,3.578,0,0,0-.349-1.7,1.137,1.137,0,0,0-1.066-.649,1.507,1.507,0,0,0-.769.185,1.317,1.317,0,0,0-.5.526v3.24a1.224,1.224,0,0,0,.5.479,1.693,1.693,0,0,0,.783.164,1.148,1.148,0,0,0,1.063-.567,3,3,0,0,0,.338-1.538Zm2.919-.13a3.969,3.969,0,0,1,.923-2.71,3.217,3.217,0,0,1,2.557-1.056A3.251,3.251,0,0,1,225,6.52a3.948,3.948,0,0,1,.93,2.714v.144A3.954,3.954,0,0,1,225,12.094a3.656,3.656,0,0,1-5.127,0,3.954,3.954,0,0,1-.926-2.717Zm1.989.144A3.218,3.218,0,0,0,221.293,11a1.366,1.366,0,0,0,2.28,0,3.2,3.2,0,0,0,.359-1.62V9.233a3.164,3.164,0,0,0-.362-1.606A1.226,1.226,0,0,0,222.428,7a1.211,1.211,0,0,0-1.131.625,3.192,3.192,0,0,0-.359,1.6Zm10.11-2.058-.731-.021a1.33,1.33,0,0,0-.731.185,1.17,1.17,0,0,0-.437.52v5h-1.989V5.6h1.853L229.1,6.7a2.333,2.333,0,0,1,.673-.906,1.573,1.573,0,0,1,1.23-.3q.126.024.256.058Zm9.058,4.587a2.511,2.511,0,0,1-.868.916,2.3,2.3,0,0,1-1.224.321,2.249,2.249,0,0,1-1.829-.793,3.8,3.8,0,0,1-.66-2.461V5.6h1.989V9.9a2.388,2.388,0,0,0,.263,1.33.946.946,0,0,0,.817.359,1.989,1.989,0,0,0,.82-.154,1.383,1.383,0,0,0,.561-.455V5.6h2V13h-1.654Zm7.369-.957a.689.689,0,0,0-.318-.564,3.229,3.229,0,0,0-1.179-.414,4.7,4.7,0,0,1-1.972-.786,1.717,1.717,0,0,1-.673-1.429,2.038,2.038,0,0,1,.807-1.62,3.252,3.252,0,0,1,2.146-.67,3.51,3.51,0,0,1,2.246.67,1.957,1.957,0,0,1,.81,1.668l-.014.041H247.4a.968.968,0,0,0-.287-.725,1.342,1.342,0,0,0-1.586-.041.744.744,0,0,0-.28.588.664.664,0,0,0,.291.557,3.234,3.234,0,0,0,1.179.386,4.8,4.8,0,0,1,2.027.8,1.762,1.762,0,0,1,.667,1.459,1.952,1.952,0,0,1-.854,1.634,3.688,3.688,0,0,1-2.256.636,3.429,3.429,0,0,1-2.334-.749,2.093,2.093,0,0,1-.817-1.706l.014-.041h1.825a1.037,1.037,0,0,0,.39.861,1.609,1.609,0,0,0,.964.267,1.371,1.371,0,0,0,.844-.222A.721.721,0,0,0,247.475,10.949Zm2.912-1.716a3.969,3.969,0,0,1,.923-2.71,3.217,3.217,0,0,1,2.557-1.056,3.251,3.251,0,0,1,2.57,1.053,3.948,3.948,0,0,1,.93,2.714v.144a3.954,3.954,0,0,1-.926,2.717,3.656,3.656,0,0,1-5.127,0,3.954,3.954,0,0,1-.926-2.717Zm1.989.144A3.218,3.218,0,0,0,252.731,11a1.366,1.366,0,0,0,2.28,0,3.2,3.2,0,0,0,.359-1.62V9.233a3.164,3.164,0,0,0-.362-1.606A1.226,1.226,0,0,0,253.866,7a1.211,1.211,0,0,0-1.131.625,3.192,3.192,0,0,0-.359,1.6Zm9.4-.014a4.806,4.806,0,0,1,.755-2.823,2.453,2.453,0,0,1,2.129-1.073,2.071,2.071,0,0,1,1,.239,2.4,2.4,0,0,1,.779.684V2.336h2V13h-1.7l-.171-.909a2.473,2.473,0,0,1-.827.783,2.187,2.187,0,0,1-1.094.27,2.5,2.5,0,0,1-2.116-1,4.262,4.262,0,0,1-.755-2.639Zm1.989.144a3.013,3.013,0,0,0,.328,1.528,1.142,1.142,0,0,0,1.066.557,1.553,1.553,0,0,0,.752-.174,1.391,1.391,0,0,0,.526-.509V7.757a1.536,1.536,0,0,0-.523-.543,1.391,1.391,0,0,0-.742-.195,1.127,1.127,0,0,0-1.07.649,3.67,3.67,0,0,0-.338,1.7Zm9.427,3.637a3.328,3.328,0,0,1-2.584-1.015,3.721,3.721,0,0,1-.93-2.615V9.24a4.05,4.05,0,0,1,.9-2.721,3.068,3.068,0,0,1,2.481-1.053,2.872,2.872,0,0,1,2.287.913,3.607,3.607,0,0,1,.8,2.458V9.869h-4.409l-.021.041a2,2,0,0,0,.461,1.23,1.545,1.545,0,0,0,1.227.472,4.106,4.106,0,0,0,1.138-.137,4.644,4.644,0,0,0,.967-.417l.54,1.23a3.705,3.705,0,0,1-1.2.608A5.336,5.336,0,0,1,273.191,13.144ZM273.062,7a1.109,1.109,0,0,0-.926.414,2.075,2.075,0,0,0-.393,1.1l.014.034h2.434V8.4a1.728,1.728,0,0,0-.267-1.022A.986.986,0,0,0,273.062,7ZM7.438,26.307a4.248,4.248,0,0,1-.759,2.639,2.51,2.51,0,0,1-2.119,1,2.369,2.369,0,0,1-1.032-.215,2.12,2.12,0,0,1-.772-.632v3.548H.766V22.4h1.8l.116.875a2.37,2.37,0,0,1,.79-.749,2.136,2.136,0,0,1,1.077-.263A2.462,2.462,0,0,1,6.679,23.34a4.79,4.79,0,0,1,.759,2.823Zm-2-.144a3.578,3.578,0,0,0-.349-1.7,1.137,1.137,0,0,0-1.066-.649A1.507,1.507,0,0,0,3.257,24a1.317,1.317,0,0,0-.5.526v3.24a1.224,1.224,0,0,0,.5.479,1.693,1.693,0,0,0,.783.164A1.148,1.148,0,0,0,5.1,27.845a3,3,0,0,0,.338-1.538ZM13.029,29.8a4.2,4.2,0,0,1-.188-.533,3.709,3.709,0,0,1-.113-.574,2.736,2.736,0,0,1-.813.9,2.039,2.039,0,0,1-1.2.355,2.5,2.5,0,0,1-1.791-.6,2.143,2.143,0,0,1-.629-1.63,1.95,1.95,0,0,1,.837-1.685,4.182,4.182,0,0,1,2.444-.6h1.121v-.588a1.151,1.151,0,0,0-.28-.827,1.1,1.1,0,0,0-.834-.294,1.084,1.084,0,0,0-.749.236.823.823,0,0,0-.263.646H8.647l-.014-.041a1.876,1.876,0,0,1,.817-1.617,3.548,3.548,0,0,1,2.259-.68,3.311,3.311,0,0,1,2.157.67,2.333,2.333,0,0,1,.824,1.921v3.056a5.779,5.779,0,0,0,.079.978,4.905,4.905,0,0,0,.25.909ZM11.2,28.467a1.7,1.7,0,0,0,.93-.26,1.4,1.4,0,0,0,.561-.6V26.56H11.573a1.329,1.329,0,0,0-.96.314,1.033,1.033,0,0,0-.325.772.771.771,0,0,0,.243.6A.96.96,0,0,0,11.2,28.467ZM18.286,29.8h-2V19.136h2Zm6,0a4.2,4.2,0,0,1-.188-.533,3.709,3.709,0,0,1-.113-.574,2.736,2.736,0,0,1-.813.9,2.039,2.039,0,0,1-1.2.355,2.5,2.5,0,0,1-1.791-.6,2.143,2.143,0,0,1-.629-1.63,1.95,1.95,0,0,1,.837-1.685,4.182,4.182,0,0,1,2.444-.6h1.121v-.588a1.151,1.151,0,0,0-.28-.827,1.1,1.1,0,0,0-.834-.294,1.084,1.084,0,0,0-.749.236.823.823,0,0,0-.263.646H19.906l-.014-.041a1.876,1.876,0,0,1,.817-1.617,3.548,3.548,0,0,1,2.259-.68,3.311,3.311,0,0,1,2.157.67,2.333,2.333,0,0,1,.824,1.921v3.056a5.779,5.779,0,0,0,.079.978,4.905,4.905,0,0,0,.25.909Zm-1.825-1.333a1.7,1.7,0,0,0,.93-.26,1.4,1.4,0,0,0,.561-.6V26.56H22.832a1.329,1.329,0,0,0-.96.314,1.033,1.033,0,0,0-.325.772.771.771,0,0,0,.243.6A.96.96,0,0,0,22.463,28.467Zm8.982-.718a.689.689,0,0,0-.318-.564,3.229,3.229,0,0,0-1.179-.414,4.7,4.7,0,0,1-1.972-.786,1.717,1.717,0,0,1-.673-1.429,2.038,2.038,0,0,1,.807-1.62,3.252,3.252,0,0,1,2.146-.67,3.51,3.51,0,0,1,2.246.67,1.957,1.957,0,0,1,.81,1.668l-.014.041H31.37a.968.968,0,0,0-.287-.725A1.342,1.342,0,0,0,29.5,23.88a.744.744,0,0,0-.28.588.664.664,0,0,0,.291.557,3.234,3.234,0,0,0,1.179.386,4.8,4.8,0,0,1,2.027.8,1.762,1.762,0,0,1,.667,1.459,1.952,1.952,0,0,1-.854,1.634,3.688,3.688,0,0,1-2.256.636,3.429,3.429,0,0,1-2.334-.749,2.093,2.093,0,0,1-.817-1.706l.014-.041h1.825a1.037,1.037,0,0,0,.39.861,1.609,1.609,0,0,0,.964.267,1.371,1.371,0,0,0,.844-.222A.721.721,0,0,0,31.445,27.749Zm13.378-1.442a4.248,4.248,0,0,1-.759,2.639,2.51,2.51,0,0,1-2.119,1,2.369,2.369,0,0,1-1.032-.215,2.12,2.12,0,0,1-.772-.632v3.548H38.151V22.4h1.8l.116.875a2.37,2.37,0,0,1,.79-.749,2.136,2.136,0,0,1,1.077-.263,2.462,2.462,0,0,1,2.133,1.073,4.79,4.79,0,0,1,.759,2.823Zm-2-.144a3.578,3.578,0,0,0-.349-1.7,1.137,1.137,0,0,0-1.066-.649,1.507,1.507,0,0,0-.769.185,1.317,1.317,0,0,0-.5.526v3.24a1.224,1.224,0,0,0,.5.479,1.693,1.693,0,0,0,.783.164,1.148,1.148,0,0,0,1.063-.567,3,3,0,0,0,.338-1.538ZM50.415,29.8a4.2,4.2,0,0,1-.188-.533,3.709,3.709,0,0,1-.113-.574,2.736,2.736,0,0,1-.813.9,2.039,2.039,0,0,1-1.2.355,2.5,2.5,0,0,1-1.791-.6,2.143,2.143,0,0,1-.629-1.63,1.95,1.95,0,0,1,.837-1.685,4.182,4.182,0,0,1,2.444-.6H50.08v-.588a1.151,1.151,0,0,0-.28-.827,1.1,1.1,0,0,0-.834-.294,1.084,1.084,0,0,0-.749.236.823.823,0,0,0-.263.646H46.033l-.014-.041a1.876,1.876,0,0,1,.817-1.617,3.548,3.548,0,0,1,2.259-.68,3.311,3.311,0,0,1,2.157.67,2.333,2.333,0,0,1,.824,1.921v3.056a5.779,5.779,0,0,0,.079.978,4.905,4.905,0,0,0,.25.909ZM48.59,28.467a1.7,1.7,0,0,0,.93-.26,1.4,1.4,0,0,0,.561-.6V26.56H48.959a1.329,1.329,0,0,0-.96.314,1.033,1.033,0,0,0-.325.772.771.771,0,0,0,.243.6A.96.96,0,0,0,48.59,28.467Zm8.873-4.348-.731-.021a1.33,1.33,0,0,0-.731.185,1.17,1.17,0,0,0-.437.52v5H53.573V22.4h1.853l.089,1.094a2.333,2.333,0,0,1,.673-.906,1.573,1.573,0,0,1,1.23-.3q.126.024.256.058Zm5.4,5.681a4.2,4.2,0,0,1-.188-.533,3.709,3.709,0,0,1-.113-.574,2.736,2.736,0,0,1-.813.9,2.039,2.039,0,0,1-1.2.355,2.5,2.5,0,0,1-1.791-.6,2.143,2.143,0,0,1-.629-1.63,1.95,1.95,0,0,1,.837-1.685,4.182,4.182,0,0,1,2.444-.6h1.121v-.588a1.151,1.151,0,0,0-.28-.827,1.1,1.1,0,0,0-.834-.294,1.084,1.084,0,0,0-.749.236.823.823,0,0,0-.263.646H58.481l-.014-.041a1.876,1.876,0,0,1,.817-1.617,3.548,3.548,0,0,1,2.259-.68,3.311,3.311,0,0,1,2.157.67,2.333,2.333,0,0,1,.824,1.921v3.056a5.78,5.78,0,0,0,.079.978,4.905,4.905,0,0,0,.25.909Zm-1.825-1.333a1.7,1.7,0,0,0,.93-.26,1.4,1.4,0,0,0,.561-.6V26.56H61.407a1.329,1.329,0,0,0-.96.314,1.033,1.033,0,0,0-.325.772.771.771,0,0,0,.243.6A.96.96,0,0,0,61.038,28.467Zm11.676,1.477a3.328,3.328,0,0,1-2.584-1.015,3.721,3.721,0,0,1-.93-2.615V26.04a4.05,4.05,0,0,1,.9-2.721,3.068,3.068,0,0,1,2.481-1.053,2.872,2.872,0,0,1,2.287.913,3.607,3.607,0,0,1,.8,2.458v1.032H71.258l-.021.041a2,2,0,0,0,.461,1.23,1.545,1.545,0,0,0,1.227.472,4.106,4.106,0,0,0,1.138-.137,4.644,4.644,0,0,0,.967-.417l.54,1.23a3.7,3.7,0,0,1-1.2.608A5.336,5.336,0,0,1,72.714,29.944Zm-.13-6.139a1.109,1.109,0,0,0-.926.414,2.075,2.075,0,0,0-.393,1.1l.014.034h2.434V25.2a1.728,1.728,0,0,0-.267-1.022A.986.986,0,0,0,72.584,23.8Zm6.07-1.4.089,1.06a2.705,2.705,0,0,1,.909-.882,2.36,2.36,0,0,1,1.21-.314,2.2,2.2,0,0,1,1.75.721,3.419,3.419,0,0,1,.629,2.28V29.8h-2V25.275a1.771,1.771,0,0,0-.277-1.125,1.02,1.02,0,0,0-.831-.332,1.743,1.743,0,0,0-.783.167,1.528,1.528,0,0,0-.557.461V29.8h-2V22.4Zm6.6,7.4v-6h-1.1V22.4h1.1v-.82a2.5,2.5,0,0,1,.718-1.917,2.834,2.834,0,0,1,2.017-.673,3.647,3.647,0,0,1,.516.038q.263.038.578.106l-.171,1.483q-.164-.027-.318-.048a2.751,2.751,0,0,0-.359-.021.958.958,0,0,0-.735.267,1.079,1.079,0,0,0-.25.766v.82h1.422v1.4H87.247v6ZM93.5,24.119l-.731-.021a1.33,1.33,0,0,0-.731.185,1.17,1.17,0,0,0-.437.52v5H89.612V22.4h1.853l.089,1.094a2.333,2.333,0,0,1,.673-.906,1.573,1.573,0,0,1,1.23-.3q.126.024.256.058ZM96.64,29.8h-2V22.4h2Zm0-9.167h-2v-1.5h2Zm6,9.167a4.2,4.2,0,0,1-.188-.533,3.71,3.71,0,0,1-.113-.574,2.736,2.736,0,0,1-.813.9,2.039,2.039,0,0,1-1.2.355,2.5,2.5,0,0,1-1.791-.6,2.143,2.143,0,0,1-.629-1.63,1.95,1.95,0,0,1,.837-1.685,4.182,4.182,0,0,1,2.444-.6h1.121v-.588a1.151,1.151,0,0,0-.28-.827,1.1,1.1,0,0,0-.834-.294,1.084,1.084,0,0,0-.749.236.823.823,0,0,0-.263.646H98.26l-.014-.041a1.876,1.876,0,0,1,.817-1.617,3.548,3.548,0,0,1,2.259-.68,3.311,3.311,0,0,1,2.157.67,2.333,2.333,0,0,1,.824,1.921v3.056a5.78,5.78,0,0,0,.079.978,4.905,4.905,0,0,0,.25.909Zm-1.825-1.333a1.7,1.7,0,0,0,.93-.26,1.4,1.4,0,0,0,.561-.6V26.56h-1.121a1.329,1.329,0,0,0-.96.314,1.033,1.033,0,0,0-.325.772.771.771,0,0,0,.243.6A.96.96,0,0,0,100.816,28.467Zm6.836-6.063.082.978a2.485,2.485,0,0,1,.892-.824,2.565,2.565,0,0,1,1.241-.291,2.259,2.259,0,0,1,1.217.314,1.94,1.94,0,0,1,.766.95,2.564,2.564,0,0,1,.889-.93,2.411,2.411,0,0,1,1.285-.335,2.107,2.107,0,0,1,1.726.776,3.7,3.7,0,0,1,.632,2.369V29.8h-2V25.4a2.073,2.073,0,0,0-.273-1.237.971.971,0,0,0-.813-.349,1.393,1.393,0,0,0-.735.188,1.369,1.369,0,0,0-.5.523q0,.13.007.222t.007.188V29.8h-1.989V25.4a2.079,2.079,0,0,0-.273-1.227.966.966,0,0,0-.82-.359,1.548,1.548,0,0,0-.708.154,1.357,1.357,0,0,0-.5.434V29.8H105.8V22.4Zm12.359,7.4h-2V22.4h2Zm0-9.167h-2v-1.5h2Zm4.847,9.311a3.328,3.328,0,0,1-2.584-1.015,3.721,3.721,0,0,1-.93-2.615V26.04a4.05,4.05,0,0,1,.9-2.721,3.068,3.068,0,0,1,2.481-1.053,2.872,2.872,0,0,1,2.287.913,3.607,3.607,0,0,1,.8,2.458v1.032H123.4l-.021.041a2,2,0,0,0,.461,1.23,1.545,1.545,0,0,0,1.227.472,4.106,4.106,0,0,0,1.138-.137,4.644,4.644,0,0,0,.967-.417l.54,1.23a3.7,3.7,0,0,1-1.2.608A5.336,5.336,0,0,1,124.858,29.944Zm-.13-6.139a1.109,1.109,0,0,0-.926.414,2.075,2.075,0,0,0-.393,1.1l.014.034h2.434V25.2a1.728,1.728,0,0,0-.267-1.022A.986.986,0,0,0,124.729,23.8Zm6.07-1.4.089,1.06a2.705,2.705,0,0,1,.909-.882,2.36,2.36,0,0,1,1.21-.314,2.2,2.2,0,0,1,1.75.721,3.419,3.419,0,0,1,.629,2.28V29.8h-2V25.275a1.771,1.771,0,0,0-.277-1.125,1.02,1.02,0,0,0-.831-.332,1.743,1.743,0,0,0-.783.167,1.528,1.528,0,0,0-.557.461V29.8h-2V22.4Zm8.47-1.812V22.4h1.251v1.4h-1.251v3.767a.859.859,0,0,0,.181.615.636.636,0,0,0,.475.185,1.906,1.906,0,0,0,.273-.017,2.3,2.3,0,0,0,.267-.058l.164,1.442a4.041,4.041,0,0,1-.584.154,3.484,3.484,0,0,1-.619.051,2.127,2.127,0,0,1-1.589-.567,2.488,2.488,0,0,1-.557-1.8V23.8H136.2V22.4h1.08V20.592Zm2.174,5.441a3.969,3.969,0,0,1,.923-2.71,3.217,3.217,0,0,1,2.557-1.056,3.251,3.251,0,0,1,2.57,1.053,3.948,3.948,0,0,1,.93,2.714v.144a3.954,3.954,0,0,1-.926,2.717,3.656,3.656,0,0,1-5.127,0,3.954,3.954,0,0,1-.926-2.717Zm1.989.144a3.218,3.218,0,0,0,.355,1.624,1.366,1.366,0,0,0,2.28,0,3.2,3.2,0,0,0,.359-1.62v-.144a3.164,3.164,0,0,0-.362-1.606,1.226,1.226,0,0,0-1.142-.622,1.211,1.211,0,0,0-1.131.625,3.192,3.192,0,0,0-.359,1.6Zm8.436,3.623h-2V28.05h2Z" transform="translate(-356.675 -4785)" fill="#0c1d30"/>
  </g>
</svg>
