<svg xmlns="http://www.w3.org/2000/svg" width="715.624" height="117.79" viewBox="0 0 715.624 117.79">
  <g id="Grupo_144024" data-name="Grupo 144024" transform="translate(2078.812 4308)">
    <g id="Grupo_144023" data-name="Grupo 144023">
      <g id="Grupo_144022" data-name="Grupo 144022">
        <g id="Grupo_144021" data-name="Grupo 144021">
          <g id="Grupo_144020" data-name="Grupo 144020">
            <g id="Grupo_144019" data-name="Grupo 144019">
              <g id="Grupo_144018" data-name="Grupo 144018">
                <path id="Trazado_204701" data-name="Trazado 204701" d="M0,0H310.233V66.22H0Z" transform="translate(-1674.491 -4257.5)" fill="#fff" stroke="#000" stroke-width="1"/>
                <path id="Trazado_204695" data-name="Trazado 204695" d="M0,0H247.529V66.22H0Z" transform="translate(-1922.02 -4257.5)" fill="#fff" stroke="#000" stroke-width="1"/>
                <path id="Trazado_204144" data-name="Trazado 204144" d="M404.321,50.5H1.07V1H714.554V50.5Z" transform="translate(-2078.812 -4308)" fill="#e3e3e3" stroke="#000" stroke-width="1"/>
                <path id="Trazado_204696" data-name="Trazado 204696" d="M0,0H155.722V66.22H0Z" transform="translate(-2077.742 -4257.5)" fill="#e3e3e3" stroke="#000" stroke-width="1"/>
                <path id="Trazado_204693" data-name="Trazado 204693" d="M0,0H713.484V115.72H0Z" transform="translate(-2077.742 -4307)" fill="none" stroke="#000" stroke-width="1"/>
                <path id="Trazado_204694" data-name="Trazado 204694" d="M0,0H713.484V115.72H0Z" transform="translate(-2077.742 -4307)" fill="none" stroke="#000" stroke-width="1"/>
                <path id="Trazado_204145" data-name="Trazado 204145" d="M1.07,50.5H714.554V1H1.07Z" transform="translate(-2078.812 -4308)" fill="none" stroke="#000" stroke-width="2"/>
                <path id="Trazado_204146" data-name="Trazado 204146" d="M714.554,50.5v66.22H1.07V50.5" transform="translate(-2078.812 -4308)" fill="none" stroke="#000" stroke-width="2.14"/>
                <path id="Trazado_204147" data-name="Trazado 204147" d="M179.68,117.734V1.54" transform="translate(-2101.7 -4308)" fill="none" stroke="#000" stroke-width="2.5"/>
                <path id="Trazado_204148" data-name="Trazado 204148" d="M463.59,116.5V1.54" transform="translate(-2138.081 -4308)" fill="none" stroke="#000" stroke-width="2.5"/>
                <path id="Trazado_204149" data-name="Trazado 204149" d="M714.554,116.72H1.07" transform="translate(-2078.812 -4308)" fill="none" stroke="#000" stroke-width="2"/>
                <path id="Trazado_204697" data-name="Trazado 204697" d="M6.063-2.618H6.1L8.661-9.953h2.6V0h-2V-6.795L9.229-6.8,6.768,0H5.414L2.953-6.815l-.041.007V0h-2V-9.953H3.534ZM12.64-3.767a3.969,3.969,0,0,1,.923-2.71,3.217,3.217,0,0,1,2.557-1.056,3.251,3.251,0,0,1,2.57,1.053,3.948,3.948,0,0,1,.93,2.714v.144a3.954,3.954,0,0,1-.926,2.717A3.237,3.237,0,0,1,16.133.144,3.246,3.246,0,0,1,13.566-.906a3.954,3.954,0,0,1-.926-2.717Zm1.989.144A3.218,3.218,0,0,0,14.984-2a1.227,1.227,0,0,0,1.148.612A1.215,1.215,0,0,0,17.264-2a3.2,3.2,0,0,0,.359-1.62v-.144a3.164,3.164,0,0,0-.362-1.606A1.226,1.226,0,0,0,16.119-6a1.211,1.211,0,0,0-1.131.625,3.192,3.192,0,0,0-.359,1.6ZM22.948,0h-2V-10.664h2Zm1.333-3.637a4.806,4.806,0,0,1,.755-2.823,2.453,2.453,0,0,1,2.129-1.073,2.071,2.071,0,0,1,1,.239,2.4,2.4,0,0,1,.779.684v-4.054h2V0h-1.7l-.171-.909a2.473,2.473,0,0,1-.827.783,2.187,2.187,0,0,1-1.094.27,2.5,2.5,0,0,1-2.116-1,4.262,4.262,0,0,1-.755-2.639Zm1.989.144A3.013,3.013,0,0,0,26.6-1.965a1.142,1.142,0,0,0,1.066.557,1.553,1.553,0,0,0,.752-.174,1.391,1.391,0,0,0,.526-.509V-5.243a1.536,1.536,0,0,0-.523-.543,1.391,1.391,0,0,0-.742-.195,1.127,1.127,0,0,0-1.07.649,3.67,3.67,0,0,0-.338,1.7ZM35.7.144A3.328,3.328,0,0,1,33.113-.872a3.721,3.721,0,0,1-.93-2.615V-3.76a4.05,4.05,0,0,1,.9-2.721,3.068,3.068,0,0,1,2.481-1.053,2.872,2.872,0,0,1,2.287.913,3.607,3.607,0,0,1,.8,2.458v1.032H34.241l-.021.041a2,2,0,0,0,.461,1.23,1.545,1.545,0,0,0,1.227.472,4.106,4.106,0,0,0,1.138-.137,4.644,4.644,0,0,0,.967-.417l.54,1.23a3.7,3.7,0,0,1-1.2.608A5.336,5.336,0,0,1,35.7.144ZM35.567-6a1.109,1.109,0,0,0-.926.414,2.075,2.075,0,0,0-.393,1.1l.014.034H36.7V-4.6a1.728,1.728,0,0,0-.267-1.022A.986.986,0,0,0,35.567-6ZM39.5-3.767a3.969,3.969,0,0,1,.923-2.71,3.217,3.217,0,0,1,2.557-1.056,3.251,3.251,0,0,1,2.57,1.053,3.948,3.948,0,0,1,.93,2.714v.144a3.954,3.954,0,0,1-.926,2.717A3.237,3.237,0,0,1,43,.144,3.246,3.246,0,0,1,40.431-.906,3.954,3.954,0,0,1,39.5-3.623Zm1.989.144A3.218,3.218,0,0,0,41.85-2,1.227,1.227,0,0,0,43-1.388,1.215,1.215,0,0,0,44.129-2a3.2,3.2,0,0,0,.359-1.62v-.144a3.164,3.164,0,0,0-.362-1.606A1.226,1.226,0,0,0,42.984-6a1.211,1.211,0,0,0-1.131.625,3.192,3.192,0,0,0-.359,1.6Zm12.373.52.082.41h.041l1.415-4.7h2.146l-3,8.5A3.915,3.915,0,0,1,53.7,2.444a2.192,2.192,0,0,1-1.62.543,2.505,2.505,0,0,1-.468-.041q-.215-.041-.523-.116l.232-1.456.191.027a1.41,1.41,0,0,0,.185.014,1.088,1.088,0,0,0,.759-.243,1.6,1.6,0,0,0,.41-.6l.232-.574L50.47-7.4h2.146ZM65.044.144A3.328,3.328,0,0,1,62.46-.872a3.721,3.721,0,0,1-.93-2.615V-3.76a4.05,4.05,0,0,1,.9-2.721,3.068,3.068,0,0,1,2.481-1.053,2.872,2.872,0,0,1,2.287.913A3.607,3.607,0,0,1,68-4.163v1.032H63.588l-.021.041a2,2,0,0,0,.461,1.23,1.545,1.545,0,0,0,1.227.472,4.106,4.106,0,0,0,1.138-.137,4.644,4.644,0,0,0,.967-.417l.54,1.23A3.705,3.705,0,0,1,66.7-.1,5.336,5.336,0,0,1,65.044.144ZM64.914-6a1.109,1.109,0,0,0-.926.414,2.075,2.075,0,0,0-.393,1.1l.014.034h2.434V-4.6a1.728,1.728,0,0,0-.267-1.022A.986.986,0,0,0,64.914-6Zm6.1-1.4.082.978a2.485,2.485,0,0,1,.892-.824,2.565,2.565,0,0,1,1.241-.291,2.259,2.259,0,0,1,1.217.314,1.94,1.94,0,0,1,.766.95A2.564,2.564,0,0,1,76.1-7.2a2.411,2.411,0,0,1,1.285-.335,2.107,2.107,0,0,1,1.726.776,3.7,3.7,0,0,1,.632,2.369V0h-2V-4.4a2.073,2.073,0,0,0-.273-1.237.971.971,0,0,0-.813-.349,1.393,1.393,0,0,0-.735.188,1.369,1.369,0,0,0-.5.523q0,.13.007.222t.007.188V0H73.452V-4.4a2.079,2.079,0,0,0-.273-1.227.966.966,0,0,0-.82-.359,1.548,1.548,0,0,0-.708.154,1.357,1.357,0,0,0-.5.434V0H69.159V-7.4Zm16.933,3.9a4.248,4.248,0,0,1-.759,2.639,2.51,2.51,0,0,1-2.119,1,2.369,2.369,0,0,1-1.032-.215A2.12,2.12,0,0,1,83.262-.7V2.844H81.272V-7.4h1.8l.116.875a2.37,2.37,0,0,1,.79-.749,2.136,2.136,0,0,1,1.077-.263A2.462,2.462,0,0,1,87.186-6.46a4.79,4.79,0,0,1,.759,2.823Zm-2-.144a3.578,3.578,0,0,0-.349-1.7,1.137,1.137,0,0,0-1.066-.649,1.507,1.507,0,0,0-.769.185,1.317,1.317,0,0,0-.5.526v3.24a1.224,1.224,0,0,0,.5.479,1.693,1.693,0,0,0,.783.164,1.148,1.148,0,0,0,1.063-.567,3,3,0,0,0,.338-1.538ZM93.536,0a4.2,4.2,0,0,1-.188-.533,3.71,3.71,0,0,1-.113-.574,2.736,2.736,0,0,1-.813.9,2.039,2.039,0,0,1-1.2.355,2.5,2.5,0,0,1-1.791-.6,2.143,2.143,0,0,1-.629-1.63,1.95,1.95,0,0,1,.837-1.685,4.182,4.182,0,0,1,2.444-.6H93.2v-.588a1.151,1.151,0,0,0-.28-.827,1.1,1.1,0,0,0-.834-.294,1.084,1.084,0,0,0-.749.236.823.823,0,0,0-.263.646H89.154l-.014-.041a1.876,1.876,0,0,1,.817-1.617,3.548,3.548,0,0,1,2.259-.68,3.311,3.311,0,0,1,2.157.67A2.333,2.333,0,0,1,95.2-4.942v3.056a5.78,5.78,0,0,0,.079.978,4.905,4.905,0,0,0,.25.909ZM91.711-1.333a1.7,1.7,0,0,0,.93-.26,1.4,1.4,0,0,0,.561-.6V-3.24H92.08a1.329,1.329,0,0,0-.96.314,1.033,1.033,0,0,0-.325.772.771.771,0,0,0,.243.6A.96.96,0,0,0,91.711-1.333Zm4.676-2.3a4.806,4.806,0,0,1,.755-2.823,2.453,2.453,0,0,1,2.129-1.073,2.111,2.111,0,0,1,1.08.27,2.421,2.421,0,0,1,.8.776l.185-.909h1.7V2.844h-2V-.69a2.2,2.2,0,0,1-.769.622,2.3,2.3,0,0,1-1.008.212,2.5,2.5,0,0,1-2.116-1,4.262,4.262,0,0,1-.755-2.639Zm1.989.144A3.072,3.072,0,0,0,98.7-1.955a1.137,1.137,0,0,0,1.066.567,1.606,1.606,0,0,0,.752-.164,1.323,1.323,0,0,0,.513-.479V-5.312a1.407,1.407,0,0,0-.509-.506A1.471,1.471,0,0,0,99.784-6a1.125,1.125,0,0,0-1.07.656,3.713,3.713,0,0,0-.338,1.7Zm10.753,2.4a2.511,2.511,0,0,1-.868.916,2.3,2.3,0,0,1-1.224.321,2.249,2.249,0,0,1-1.829-.793,3.8,3.8,0,0,1-.66-2.461V-7.4h1.989v4.3a2.388,2.388,0,0,0,.263,1.33.946.946,0,0,0,.817.359,1.989,1.989,0,0,0,.82-.154A1.383,1.383,0,0,0,109-2.017V-7.4h2V0h-1.654ZM115.705.144a3.328,3.328,0,0,1-2.584-1.015,3.721,3.721,0,0,1-.93-2.615V-3.76a4.05,4.05,0,0,1,.9-2.721,3.068,3.068,0,0,1,2.481-1.053,2.872,2.872,0,0,1,2.287.913,3.607,3.607,0,0,1,.8,2.458v1.032h-4.409l-.021.041a2,2,0,0,0,.461,1.23,1.545,1.545,0,0,0,1.227.472,4.106,4.106,0,0,0,1.138-.137,4.644,4.644,0,0,0,.967-.417l.54,1.23a3.705,3.705,0,0,1-1.2.608A5.336,5.336,0,0,1,115.705.144ZM115.575-6a1.109,1.109,0,0,0-.926.414,2.075,2.075,0,0,0-.393,1.1l.014.034H116.7V-4.6a1.728,1.728,0,0,0-.267-1.022A.986.986,0,0,0,115.575-6Z" transform="translate(-2068.032 -4217.942)" fill="#0c1d30"/>
                <path id="Trazado_204698" data-name="Trazado 204698" d="M7.117-2.656H3.086L2.211,0H.25L4.219-11.375h1.8L9.945,0H7.984ZM3.609-4.242H6.6L5.141-8.727H5.094ZM14.6-1.352a1.577,1.577,0,0,0,1.1-.406,1.33,1.33,0,0,0,.449-1.031h1.719l.016.047A2.549,2.549,0,0,1,16.941-.7,3.413,3.413,0,0,1,14.6.164a3.444,3.444,0,0,1-2.82-1.207,4.633,4.633,0,0,1-.992-3.043v-.273A4.637,4.637,0,0,1,11.781-7.4a3.43,3.43,0,0,1,2.813-1.211,3.316,3.316,0,0,1,2.4.887,2.894,2.894,0,0,1,.891,2.254l-.016.047H16.148a1.715,1.715,0,0,0-.43-1.18,1.432,1.432,0,0,0-1.125-.484,1.549,1.549,0,0,0-1.461.785,3.885,3.885,0,0,0-.445,1.941v.273a3.921,3.921,0,0,0,.441,1.957A1.558,1.558,0,0,0,14.6-1.352Zm7.3-9.156v2.055h1.516v1.406H21.906v4.672a1.019,1.019,0,0,0,.227.746.821.821,0,0,0,.6.223,1.679,1.679,0,0,0,.3-.027,1.852,1.852,0,0,0,.281-.074l.2,1.391a2.181,2.181,0,0,1-.574.207,3.161,3.161,0,0,1-.691.074,2.19,2.19,0,0,1-1.645-.613,2.674,2.674,0,0,1-.6-1.926V-7.047H18.727V-8.453h1.289v-2.055ZM26.977,0h-1.9V-8.453h1.9Zm0-10.523h-1.9v-1.664h1.9Zm5.063,7.664.141.688h.047l.148-.687,1.68-5.594h1.961L33.016,0H31.367L28.352-8.453h1.961ZM39.234,0h-1.9V-8.453h1.9Zm0-10.523h-1.9v-1.664h1.9Zm1.773,6.414a5.574,5.574,0,0,1,.867-3.262,2.8,2.8,0,0,1,2.438-1.238,2.666,2.666,0,0,1,1.23.277,2.785,2.785,0,0,1,.941.793v-4.648h1.9V0H46.844l-.227-1.07a2.82,2.82,0,0,1-.984.918A2.738,2.738,0,0,1,44.3.164,2.876,2.876,0,0,1,41.875-.969a4.766,4.766,0,0,1-.867-2.977Zm1.9.164a3.4,3.4,0,0,0,.449,1.867,1.573,1.573,0,0,0,1.426.7,1.906,1.906,0,0,0,1.02-.258,1.963,1.963,0,0,0,.684-.734V-6.062a2,2,0,0,0-.687-.73,1.859,1.859,0,0,0-1-.262,1.531,1.531,0,0,0-1.43.816,4.308,4.308,0,0,0-.461,2.129ZM55.516,0q-.1-.32-.168-.625a4.468,4.468,0,0,1-.09-.609,3.256,3.256,0,0,1-1.023,1,2.633,2.633,0,0,1-1.43.4,2.81,2.81,0,0,1-2.027-.68,2.468,2.468,0,0,1-.707-1.867,2.206,2.206,0,0,1,.969-1.91,4.678,4.678,0,0,1,2.727-.684h1.477v-.742a1.38,1.38,0,0,0-.387-1.039,1.547,1.547,0,0,0-1.121-.375,1.6,1.6,0,0,0-1.031.309.981.981,0,0,0-.383.8l-1.828.008-.008-.047a2.094,2.094,0,0,1,.895-1.773,3.79,3.79,0,0,1,2.473-.773,3.617,3.617,0,0,1,2.383.75A2.64,2.64,0,0,1,57.141-5.7v3.758a6.93,6.93,0,0,0,.07,1A5.331,5.331,0,0,0,57.438,0ZM53.2-1.359a2.373,2.373,0,0,0,1.285-.359,1.81,1.81,0,0,0,.762-.82v-1.25H53.734a1.9,1.9,0,0,0-1.3.41,1.246,1.246,0,0,0-.469.965.984.984,0,0,0,.316.77A1.315,1.315,0,0,0,53.2-1.359Zm5.578-2.75a5.574,5.574,0,0,1,.867-3.262,2.8,2.8,0,0,1,2.438-1.238,2.666,2.666,0,0,1,1.23.277,2.785,2.785,0,0,1,.941.793v-4.648h1.9V0H64.609l-.227-1.07a2.82,2.82,0,0,1-.984.918,2.738,2.738,0,0,1-1.336.316A2.876,2.876,0,0,1,59.641-.969a4.766,4.766,0,0,1-.867-2.977Zm1.9.164a3.4,3.4,0,0,0,.449,1.867,1.573,1.573,0,0,0,1.426.7,1.906,1.906,0,0,0,1.02-.258,1.963,1.963,0,0,0,.684-.734V-6.062a2,2,0,0,0-.687-.73,1.859,1.859,0,0,0-1-.262,1.531,1.531,0,0,0-1.43.816,4.308,4.308,0,0,0-.461,2.129Z" transform="translate(-2021.881 -4277.574)" fill="#0c1d30"/>
                <path id="Trazado_204699" data-name="Trazado 204699" d="M7.117-2.656H3.086L2.211,0H.25L4.219-11.375h1.8L9.945,0H7.984ZM3.609-4.242H6.6L5.141-8.727H5.094Zm12.3,1.93a.875.875,0,0,0-.371-.723,3.838,3.838,0,0,0-1.4-.512,5.7,5.7,0,0,1-2.281-.9,1.893,1.893,0,0,1-.789-1.594,2.3,2.3,0,0,1,.9-1.816,3.56,3.56,0,0,1,2.367-.754,3.671,3.671,0,0,1,2.441.777,2.252,2.252,0,0,1,.887,1.871l-.016.047H15.82a1.185,1.185,0,0,0-.406-.895,1.528,1.528,0,0,0-1.086-.379,1.552,1.552,0,0,0-1.047.313.977.977,0,0,0-.359.766.823.823,0,0,0,.336.688,3.682,3.682,0,0,0,1.383.461,5.727,5.727,0,0,1,2.344.918,1.939,1.939,0,0,1,.789,1.621,2.246,2.246,0,0,1-.941,1.863,3.965,3.965,0,0,1-2.48.723,3.786,3.786,0,0,1-2.6-.844,2.383,2.383,0,0,1-.906-1.937l.016-.047h1.766a1.266,1.266,0,0,0,.531,1.07,2.135,2.135,0,0,0,1.219.336A1.909,1.909,0,0,0,15.5-1.547.9.9,0,0,0,15.906-2.312ZM26.883-3.945a4.766,4.766,0,0,1-.867,2.977A2.868,2.868,0,0,1,23.6.164a2.99,2.99,0,0,1-1.273-.258,2.62,2.62,0,0,1-.953-.758v4.1h-1.9v-11.7h1.6l.188,1.063a2.819,2.819,0,0,1,.98-.906,2.743,2.743,0,0,1,1.332-.312,2.807,2.807,0,0,1,2.434,1.238,5.556,5.556,0,0,1,.871,3.262Zm-1.891-.164A4.118,4.118,0,0,0,24.5-6.23a1.588,1.588,0,0,0-1.457-.824,1.893,1.893,0,0,0-1.008.254,1.869,1.869,0,0,0-.664.707v3.82a1.766,1.766,0,0,0,.664.684,2.024,2.024,0,0,0,1.023.238,1.629,1.629,0,0,0,1.449-.715,3.312,3.312,0,0,0,.48-1.879ZM32.125.164A3.681,3.681,0,0,1,29.23-1a4.374,4.374,0,0,1-1.043-3.027v-.312A4.522,4.522,0,0,1,29.23-7.41a3.37,3.37,0,0,1,2.691-1.2A3.163,3.163,0,0,1,34.5-7.559a4.249,4.249,0,0,1,.875,2.809v1.023H30.148l-.016.039A2.77,2.77,0,0,0,30.68-2a1.866,1.866,0,0,0,1.555.648,4.277,4.277,0,0,0,1.34-.187,3.825,3.825,0,0,0,1.051-.539l.617,1.242a4.023,4.023,0,0,1-1.281.711A5.37,5.37,0,0,1,32.125.164Zm-.2-7.25a1.467,1.467,0,0,0-1.187.535,2.652,2.652,0,0,0-.555,1.395l.016.039h3.3v-.148a2.134,2.134,0,0,0-.379-1.316A1.4,1.4,0,0,0,31.922-7.086Zm8.438,5.734a1.577,1.577,0,0,0,1.1-.406,1.33,1.33,0,0,0,.449-1.031h1.719l.016.047A2.549,2.549,0,0,1,42.7-.7a3.413,3.413,0,0,1-2.34.859,3.444,3.444,0,0,1-2.82-1.207,4.633,4.633,0,0,1-.992-3.043v-.273A4.637,4.637,0,0,1,37.539-7.4a3.43,3.43,0,0,1,2.813-1.211,3.316,3.316,0,0,1,2.4.887,2.894,2.894,0,0,1,.891,2.254l-.016.047H41.906a1.715,1.715,0,0,0-.43-1.18,1.432,1.432,0,0,0-1.125-.484,1.549,1.549,0,0,0-1.461.785,3.885,3.885,0,0,0-.445,1.941v.273a3.921,3.921,0,0,0,.441,1.957A1.558,1.558,0,0,0,40.359-1.352Zm7.3-9.156v2.055H49.18v1.406H47.664v4.672a1.019,1.019,0,0,0,.227.746.821.821,0,0,0,.6.223,1.678,1.678,0,0,0,.3-.027,1.852,1.852,0,0,0,.281-.074l.2,1.391a2.181,2.181,0,0,1-.574.207,3.161,3.161,0,0,1-.691.074,2.19,2.19,0,0,1-1.645-.613,2.674,2.674,0,0,1-.6-1.926V-7.047H44.484V-8.453h1.289v-2.055Zm2.471,6.2a4.59,4.59,0,0,1,1.035-3.1A3.535,3.535,0,0,1,54-8.609,3.562,3.562,0,0,1,56.858-7.4a4.59,4.59,0,0,1,1.035,3.1v.164a4.583,4.583,0,0,1-1.035,3.105,3.555,3.555,0,0,1-2.84,1.2,3.558,3.558,0,0,1-2.848-1.2,4.587,4.587,0,0,1-1.035-3.1Zm1.9.164a3.75,3.75,0,0,0,.484,2.016,1.645,1.645,0,0,0,1.5.773,1.648,1.648,0,0,0,1.488-.777A3.684,3.684,0,0,0,56-4.141V-4.3a3.676,3.676,0,0,0-.5-2A1.658,1.658,0,0,0,54-7.086a1.626,1.626,0,0,0-1.48.785,3.722,3.722,0,0,0-.488,2Z" transform="translate(-1826.914 -4277.574)" fill="#0c1d30"/>
                <path id="Trazado_204700" data-name="Trazado 204700" d="M8.545-1.36A3.782,3.782,0,0,1,7.157-.3,5.462,5.462,0,0,1,4.778.144,4.023,4.023,0,0,1,1.825-.991,3.96,3.96,0,0,1,.677-3.937V-6.016A4.029,4.029,0,0,1,1.791-8.958,3.834,3.834,0,0,1,4.655-10.1a4.071,4.071,0,0,1,2.8.865,2.841,2.841,0,0,1,.937,2.307l-.014.041H6.494a1.632,1.632,0,0,0-.458-1.234A1.848,1.848,0,0,0,4.7-8.559a1.792,1.792,0,0,0-1.477.708,2.845,2.845,0,0,0-.561,1.822v2.092A2.835,2.835,0,0,0,3.24-2.1a1.876,1.876,0,0,0,1.538.711A3.539,3.539,0,0,0,5.9-1.531a1.714,1.714,0,0,0,.639-.362V-3.821H4.628V-5.2H8.545ZM13.3.144A3.328,3.328,0,0,1,10.712-.872a3.721,3.721,0,0,1-.93-2.615V-3.76a4.05,4.05,0,0,1,.9-2.721,3.068,3.068,0,0,1,2.481-1.053,2.872,2.872,0,0,1,2.287.913,3.607,3.607,0,0,1,.8,2.458v1.032H11.84l-.021.041a2,2,0,0,0,.461,1.23,1.545,1.545,0,0,0,1.227.472,4.106,4.106,0,0,0,1.138-.137,4.644,4.644,0,0,0,.967-.417l.54,1.23a3.7,3.7,0,0,1-1.2.608A5.336,5.336,0,0,1,13.3.144ZM13.166-6a1.109,1.109,0,0,0-.926.414,2.075,2.075,0,0,0-.393,1.1l.014.034h2.434V-4.6a1.728,1.728,0,0,0-.267-1.022A.986.986,0,0,0,13.166-6Zm6.07-1.4.089,1.06a2.705,2.705,0,0,1,.909-.882,2.36,2.36,0,0,1,1.21-.314,2.2,2.2,0,0,1,1.75.721,3.419,3.419,0,0,1,.629,2.28V0h-2V-4.525a1.771,1.771,0,0,0-.277-1.125,1.02,1.02,0,0,0-.831-.332,1.743,1.743,0,0,0-.783.167,1.528,1.528,0,0,0-.557.461V0h-2V-7.4ZM28.52.144A3.328,3.328,0,0,1,25.936-.872a3.721,3.721,0,0,1-.93-2.615V-3.76a4.05,4.05,0,0,1,.9-2.721A3.068,3.068,0,0,1,28.39-7.533a2.872,2.872,0,0,1,2.287.913,3.607,3.607,0,0,1,.8,2.458v1.032H27.063l-.021.041a2,2,0,0,0,.461,1.23,1.545,1.545,0,0,0,1.227.472,4.106,4.106,0,0,0,1.138-.137,4.644,4.644,0,0,0,.967-.417l.54,1.23a3.7,3.7,0,0,1-1.2.608A5.336,5.336,0,0,1,28.52.144ZM28.39-6a1.109,1.109,0,0,0-.926.414,2.075,2.075,0,0,0-.393,1.1l.014.034h2.434V-4.6a1.728,1.728,0,0,0-.267-1.022A.986.986,0,0,0,28.39-6Zm8.135.314L35.793-5.7a1.329,1.329,0,0,0-.731.185,1.17,1.17,0,0,0-.437.52V0H32.635V-7.4h1.853L34.576-6.3a2.333,2.333,0,0,1,.673-.906,1.5,1.5,0,0,1,.954-.325,1.492,1.492,0,0,1,.277.024q.126.024.256.058ZM41.715,0a4.2,4.2,0,0,1-.188-.533,3.709,3.709,0,0,1-.113-.574,2.736,2.736,0,0,1-.813.9,2.039,2.039,0,0,1-1.2.355,2.5,2.5,0,0,1-1.791-.6,2.143,2.143,0,0,1-.629-1.63,1.95,1.95,0,0,1,.837-1.685,4.182,4.182,0,0,1,2.444-.6H41.38v-.588a1.151,1.151,0,0,0-.28-.827,1.1,1.1,0,0,0-.834-.294,1.084,1.084,0,0,0-.749.236.823.823,0,0,0-.263.646H37.333l-.014-.041a1.876,1.876,0,0,1,.817-1.617,3.548,3.548,0,0,1,2.259-.68,3.311,3.311,0,0,1,2.157.67,2.333,2.333,0,0,1,.824,1.921v3.056a5.779,5.779,0,0,0,.079.978A4.905,4.905,0,0,0,43.7,0ZM39.89-1.333a1.7,1.7,0,0,0,.93-.26,1.4,1.4,0,0,0,.561-.6V-3.24H40.259a1.329,1.329,0,0,0-.96.314,1.033,1.033,0,0,0-.325.772.771.771,0,0,0,.243.6A.96.96,0,0,0,39.89-1.333Zm8.073-.055A1.111,1.111,0,0,0,48.79-1.7a1.129,1.129,0,0,0,.308-.831h1.818l.014.041A2.315,2.315,0,0,1,50.1-.612a3.119,3.119,0,0,1-2.133.755A3.152,3.152,0,0,1,45.427-.906a3.988,3.988,0,0,1-.9-2.683v-.205a4.014,4.014,0,0,1,.892-2.683,3.124,3.124,0,0,1,2.526-1.056,3.05,3.05,0,0,1,2.181.779,2.6,2.6,0,0,1,.8,2.051l-.014.041H49.1a1.476,1.476,0,0,0-.3-.954A1.022,1.022,0,0,0,47.949-6a1.139,1.139,0,0,0-1.1.619,3.393,3.393,0,0,0-.325,1.583v.205A3.38,3.38,0,0,0,46.852-2,1.155,1.155,0,0,0,47.963-1.388ZM54.19,0h-2V-7.4h2Zm0-9.167h-2v-1.5h2Zm1.333,5.4a3.969,3.969,0,0,1,.923-2.71A3.217,3.217,0,0,1,59-7.533a3.251,3.251,0,0,1,2.57,1.053,3.948,3.948,0,0,1,.93,2.714v.144a3.954,3.954,0,0,1-.926,2.717A3.237,3.237,0,0,1,59.017.144,3.246,3.246,0,0,1,56.45-.906a3.954,3.954,0,0,1-.926-2.717Zm1.989.144A3.218,3.218,0,0,0,57.868-2a1.227,1.227,0,0,0,1.148.612A1.215,1.215,0,0,0,60.148-2a3.2,3.2,0,0,0,.359-1.62v-.144a3.164,3.164,0,0,0-.362-1.606A1.226,1.226,0,0,0,59-6a1.211,1.211,0,0,0-1.131.625,3.192,3.192,0,0,0-.359,1.6Zm1.894-6.932h2.222l.014.041L59.748-8.736h-1.7ZM65.559-7.4l.089,1.06a2.705,2.705,0,0,1,.909-.882,2.36,2.36,0,0,1,1.21-.314,2.2,2.2,0,0,1,1.75.721,3.419,3.419,0,0,1,.629,2.28V0h-2V-4.525a1.771,1.771,0,0,0-.277-1.125,1.02,1.02,0,0,0-.831-.332,1.743,1.743,0,0,0-.783.167,1.528,1.528,0,0,0-.557.461V0h-2V-7.4Zm9.256,3.76A4.806,4.806,0,0,1,75.57-6.46,2.453,2.453,0,0,1,77.7-7.533a2.071,2.071,0,0,1,1,.239,2.4,2.4,0,0,1,.779.684v-4.054h2V0h-1.7l-.171-.909a2.473,2.473,0,0,1-.827.783,2.187,2.187,0,0,1-1.094.27,2.5,2.5,0,0,1-2.116-1,4.262,4.262,0,0,1-.755-2.639Zm1.989.144a3.013,3.013,0,0,0,.328,1.528,1.142,1.142,0,0,0,1.066.557,1.553,1.553,0,0,0,.752-.174,1.391,1.391,0,0,0,.526-.509V-5.243a1.536,1.536,0,0,0-.523-.543,1.391,1.391,0,0,0-.742-.195,1.127,1.127,0,0,0-1.07.649,3.67,3.67,0,0,0-.338,1.7ZM86.23.144A3.328,3.328,0,0,1,83.646-.872a3.721,3.721,0,0,1-.93-2.615V-3.76a4.05,4.05,0,0,1,.9-2.721A3.068,3.068,0,0,1,86.1-7.533a2.872,2.872,0,0,1,2.287.913,3.607,3.607,0,0,1,.8,2.458v1.032H84.774l-.021.041a2,2,0,0,0,.461,1.23,1.545,1.545,0,0,0,1.227.472,4.106,4.106,0,0,0,1.138-.137,4.644,4.644,0,0,0,.967-.417l.54,1.23a3.705,3.705,0,0,1-1.2.608A5.336,5.336,0,0,1,86.23.144ZM86.1-6a1.109,1.109,0,0,0-.926.414,2.075,2.075,0,0,0-.393,1.1l.014.034h2.434V-4.6a1.728,1.728,0,0,0-.267-1.022A.986.986,0,0,0,86.1-6Zm11.621.314L96.99-5.7a1.329,1.329,0,0,0-.731.185,1.17,1.17,0,0,0-.437.52V0H93.832V-7.4h1.853L95.773-6.3a2.333,2.333,0,0,1,.673-.906,1.5,1.5,0,0,1,.954-.325,1.492,1.492,0,0,1,.277.024q.126.024.256.058ZM101.837.144A3.328,3.328,0,0,1,99.253-.872a3.721,3.721,0,0,1-.93-2.615V-3.76a4.05,4.05,0,0,1,.9-2.721,3.068,3.068,0,0,1,2.481-1.053,2.872,2.872,0,0,1,2.287.913,3.607,3.607,0,0,1,.8,2.458v1.032h-4.409l-.021.041a2,2,0,0,0,.461,1.23,1.545,1.545,0,0,0,1.227.472,4.106,4.106,0,0,0,1.138-.137,4.644,4.644,0,0,0,.967-.417l.54,1.23a3.705,3.705,0,0,1-1.2.608A5.336,5.336,0,0,1,101.837.144ZM101.707-6a1.109,1.109,0,0,0-.926.414,2.075,2.075,0,0,0-.393,1.1l.014.034h2.434V-4.6a1.728,1.728,0,0,0-.267-1.022A.986.986,0,0,0,101.707-6Zm8.244,3.944a.689.689,0,0,0-.318-.564,3.229,3.229,0,0,0-1.179-.414,4.7,4.7,0,0,1-1.972-.786,1.717,1.717,0,0,1-.673-1.429,2.038,2.038,0,0,1,.807-1.62,3.252,3.252,0,0,1,2.146-.67,3.51,3.51,0,0,1,2.246.67,1.957,1.957,0,0,1,.81,1.668l-.014.041h-1.928a.968.968,0,0,0-.287-.725,1.136,1.136,0,0,0-.827-.28A1.13,1.13,0,0,0,108-5.92a.744.744,0,0,0-.28.588.664.664,0,0,0,.291.557,3.234,3.234,0,0,0,1.179.386,4.8,4.8,0,0,1,2.027.8,1.762,1.762,0,0,1,.667,1.459,1.952,1.952,0,0,1-.854,1.634,3.688,3.688,0,0,1-2.256.636A3.429,3.429,0,0,1,106.441-.6a2.093,2.093,0,0,1-.817-1.706l.014-.041h1.825a1.037,1.037,0,0,0,.39.861,1.609,1.609,0,0,0,.964.267,1.371,1.371,0,0,0,.844-.222A.721.721,0,0,0,109.951-2.051ZM115.269,0h-2V-7.4h2Zm0-9.167h-2v-1.5h2Zm1.333,5.53a4.806,4.806,0,0,1,.755-2.823,2.453,2.453,0,0,1,2.129-1.073,2.071,2.071,0,0,1,1,.239,2.4,2.4,0,0,1,.779.684v-4.054h2V0h-1.7l-.171-.909a2.473,2.473,0,0,1-.827.783,2.187,2.187,0,0,1-1.094.27,2.5,2.5,0,0,1-2.116-1,4.262,4.262,0,0,1-.755-2.639Zm1.989.144a3.013,3.013,0,0,0,.328,1.528,1.142,1.142,0,0,0,1.066.557,1.553,1.553,0,0,0,.752-.174,1.391,1.391,0,0,0,.526-.509V-5.243a1.536,1.536,0,0,0-.523-.543A1.391,1.391,0,0,0,120-5.981a1.127,1.127,0,0,0-1.07.649,3.67,3.67,0,0,0-.338,1.7Zm10.753,2.4a2.511,2.511,0,0,1-.868.916,2.3,2.3,0,0,1-1.224.321,2.249,2.249,0,0,1-1.829-.793,3.8,3.8,0,0,1-.66-2.461V-7.4h1.989v4.3a2.388,2.388,0,0,0,.263,1.33.946.946,0,0,0,.817.359,1.989,1.989,0,0,0,.82-.154,1.383,1.383,0,0,0,.561-.455V-7.4h2V0h-1.654Zm3.063-2.673a3.969,3.969,0,0,1,.923-2.71,3.217,3.217,0,0,1,2.557-1.056,3.251,3.251,0,0,1,2.57,1.053,3.948,3.948,0,0,1,.93,2.714v.144a3.954,3.954,0,0,1-.926,2.717A3.237,3.237,0,0,1,135.9.144a3.246,3.246,0,0,1-2.567-1.049,3.954,3.954,0,0,1-.926-2.717Zm1.989.144A3.218,3.218,0,0,0,134.752-2a1.227,1.227,0,0,0,1.148.612A1.215,1.215,0,0,0,137.032-2a3.2,3.2,0,0,0,.359-1.62v-.144a3.164,3.164,0,0,0-.362-1.606A1.226,1.226,0,0,0,135.887-6a1.211,1.211,0,0,0-1.131.625,3.192,3.192,0,0,0-.359,1.6Zm10.22,1.572a.689.689,0,0,0-.318-.564,3.229,3.229,0,0,0-1.179-.414,4.7,4.7,0,0,1-1.972-.786,1.717,1.717,0,0,1-.673-1.429,2.038,2.038,0,0,1,.807-1.62,3.252,3.252,0,0,1,2.146-.67,3.51,3.51,0,0,1,2.246.67,1.957,1.957,0,0,1,.81,1.668l-.014.041h-1.928a.968.968,0,0,0-.287-.725,1.136,1.136,0,0,0-.827-.28,1.13,1.13,0,0,0-.759.239.744.744,0,0,0-.28.588.664.664,0,0,0,.291.557,3.234,3.234,0,0,0,1.179.386,4.8,4.8,0,0,1,2.027.8,1.762,1.762,0,0,1,.667,1.459A1.952,1.952,0,0,1,145.7-.492a3.688,3.688,0,0,1-2.256.636A3.429,3.429,0,0,1,141.106-.6a2.093,2.093,0,0,1-.817-1.706l.014-.041h1.825a1.037,1.037,0,0,0,.39.861,1.609,1.609,0,0,0,.964.267,1.371,1.371,0,0,0,.844-.222A.721.721,0,0,0,144.616-2.051Zm10.705,0A.689.689,0,0,0,155-2.615a3.229,3.229,0,0,0-1.179-.414,4.7,4.7,0,0,1-1.972-.786,1.717,1.717,0,0,1-.673-1.429,2.038,2.038,0,0,1,.807-1.62,3.252,3.252,0,0,1,2.146-.67,3.51,3.51,0,0,1,2.246.67,1.957,1.957,0,0,1,.81,1.668l-.014.041h-1.928a.968.968,0,0,0-.287-.725,1.136,1.136,0,0,0-.827-.28,1.13,1.13,0,0,0-.759.239.744.744,0,0,0-.28.588.664.664,0,0,0,.291.557,3.234,3.234,0,0,0,1.179.386,4.8,4.8,0,0,1,2.027.8,1.762,1.762,0,0,1,.667,1.459A1.952,1.952,0,0,1,156.4-.492a3.688,3.688,0,0,1-2.256.636A3.429,3.429,0,0,1,151.811-.6a2.093,2.093,0,0,1-.817-1.706l.014-.041h1.825a1.037,1.037,0,0,0,.39.861,1.609,1.609,0,0,0,.964.267,1.371,1.371,0,0,0,.844-.222A.721.721,0,0,0,155.321-2.051Zm2.912-1.716a3.969,3.969,0,0,1,.923-2.71,3.217,3.217,0,0,1,2.557-1.056,3.251,3.251,0,0,1,2.57,1.053,3.948,3.948,0,0,1,.93,2.714v.144a3.954,3.954,0,0,1-.926,2.717,3.237,3.237,0,0,1-2.56,1.049A3.246,3.246,0,0,1,159.16-.906a3.954,3.954,0,0,1-.926-2.717Zm1.989.144A3.218,3.218,0,0,0,160.578-2a1.227,1.227,0,0,0,1.148.612A1.215,1.215,0,0,0,162.858-2a3.2,3.2,0,0,0,.359-1.62v-.144a3.164,3.164,0,0,0-.362-1.606A1.226,1.226,0,0,0,161.713-6a1.211,1.211,0,0,0-1.131.625,3.192,3.192,0,0,0-.359,1.6Zm1.894-6.932h2.222l.014.041-1.894,1.777h-1.7ZM168.542,0h-2V-10.664h2Zm3.739,0h-2V-7.4h2Zm0-9.167h-2v-1.5h2Zm1.333,5.53a4.806,4.806,0,0,1,.755-2.823A2.453,2.453,0,0,1,176.5-7.533a2.071,2.071,0,0,1,1,.239,2.4,2.4,0,0,1,.779.684v-4.054h2V0h-1.7l-.171-.909a2.473,2.473,0,0,1-.827.783,2.187,2.187,0,0,1-1.094.27,2.5,2.5,0,0,1-2.116-1,4.262,4.262,0,0,1-.755-2.639Zm1.989.144a3.013,3.013,0,0,0,.328,1.528A1.142,1.142,0,0,0,177-1.408a1.553,1.553,0,0,0,.752-.174,1.391,1.391,0,0,0,.526-.509V-5.243a1.536,1.536,0,0,0-.523-.543,1.391,1.391,0,0,0-.742-.195,1.127,1.127,0,0,0-1.07.649,3.67,3.67,0,0,0-.338,1.7Zm5.913-.273a3.969,3.969,0,0,1,.923-2.71A3.217,3.217,0,0,1,185-7.533a3.251,3.251,0,0,1,2.57,1.053,3.948,3.948,0,0,1,.93,2.714v.144a3.954,3.954,0,0,1-.926,2.717A3.237,3.237,0,0,1,185.01.144a3.246,3.246,0,0,1-2.567-1.049,3.954,3.954,0,0,1-.926-2.717Zm1.989.144A3.218,3.218,0,0,0,183.861-2a1.227,1.227,0,0,0,1.148.612A1.215,1.215,0,0,0,186.141-2a3.2,3.2,0,0,0,.359-1.62v-.144a3.164,3.164,0,0,0-.362-1.606A1.226,1.226,0,0,0,185-6a1.211,1.211,0,0,0-1.131.625,3.192,3.192,0,0,0-.359,1.6Zm10.22,1.572a.689.689,0,0,0-.318-.564,3.229,3.229,0,0,0-1.179-.414,4.7,4.7,0,0,1-1.972-.786,1.717,1.717,0,0,1-.673-1.429,2.038,2.038,0,0,1,.807-1.62,3.252,3.252,0,0,1,2.146-.67,3.51,3.51,0,0,1,2.246.67,1.957,1.957,0,0,1,.81,1.668l-.014.041H193.65a.968.968,0,0,0-.287-.725,1.136,1.136,0,0,0-.827-.28,1.13,1.13,0,0,0-.759.239.744.744,0,0,0-.28.588.664.664,0,0,0,.291.557,3.234,3.234,0,0,0,1.179.386,4.8,4.8,0,0,1,2.027.8,1.762,1.762,0,0,1,.667,1.459,1.952,1.952,0,0,1-.854,1.634,3.688,3.688,0,0,1-2.256.636A3.429,3.429,0,0,1,190.215-.6a2.093,2.093,0,0,1-.817-1.706l.014-.041h1.825a1.037,1.037,0,0,0,.39.861,1.609,1.609,0,0,0,.964.267,1.371,1.371,0,0,0,.844-.222A.721.721,0,0,0,193.726-2.051Z" transform="translate(-1902.899 -4217.943)" fill="#0c1d30"/>
                <path id="Trazado_204703" data-name="Trazado 204703" d="M3.25,0h-1.9V-11.375h1.9ZM7.336-8.453l.1,1.1a2.865,2.865,0,0,1,1.039-.93,3.065,3.065,0,0,1,1.445-.328,2.608,2.608,0,0,1,1.422.375,2.266,2.266,0,0,1,.891,1.125,2.962,2.962,0,0,1,1.031-1.1,2.781,2.781,0,0,1,1.5-.4,2.479,2.479,0,0,1,2.012.887,4.125,4.125,0,0,1,.738,2.684V0h-1.9V-5.047a2.49,2.49,0,0,0-.371-1.559,1.361,1.361,0,0,0-1.113-.449,1.629,1.629,0,0,0-1.031.328,1.828,1.828,0,0,0-.609.883q0,.117.008.2t.008.164V0h-1.9V-5.047a2.462,2.462,0,0,0-.379-1.539,1.347,1.347,0,0,0-1.113-.469,2,2,0,0,0-.98.223A1.642,1.642,0,0,0,7.5-6.2V0H5.6V-8.453ZM26.922-3.945a4.766,4.766,0,0,1-.867,2.977A2.868,2.868,0,0,1,23.641.164a2.99,2.99,0,0,1-1.273-.258,2.62,2.62,0,0,1-.953-.758v4.1h-1.9v-11.7h1.6L21.3-7.391a2.819,2.819,0,0,1,.98-.906,2.743,2.743,0,0,1,1.332-.312,2.807,2.807,0,0,1,2.434,1.238,5.556,5.556,0,0,1,.871,3.262Zm-1.891-.164a4.118,4.118,0,0,0-.488-2.121,1.588,1.588,0,0,0-1.457-.824,1.893,1.893,0,0,0-1.008.254,1.869,1.869,0,0,0-.664.707v3.82a1.766,1.766,0,0,0,.664.684,2.024,2.024,0,0,0,1.023.238,1.629,1.629,0,0,0,1.449-.715,3.312,3.312,0,0,0,.48-1.879ZM33.672,0q-.1-.32-.168-.625a4.468,4.468,0,0,1-.09-.609,3.256,3.256,0,0,1-1.023,1,2.633,2.633,0,0,1-1.43.4,2.81,2.81,0,0,1-2.027-.68,2.468,2.468,0,0,1-.707-1.867,2.206,2.206,0,0,1,.969-1.91,4.678,4.678,0,0,1,2.727-.684H33.4v-.742a1.38,1.38,0,0,0-.387-1.039,1.547,1.547,0,0,0-1.121-.375,1.6,1.6,0,0,0-1.031.309.981.981,0,0,0-.383.8l-1.828.008-.008-.047a2.094,2.094,0,0,1,.895-1.773,3.79,3.79,0,0,1,2.473-.773,3.617,3.617,0,0,1,2.383.75A2.64,2.64,0,0,1,35.3-5.7v3.758a6.93,6.93,0,0,0,.07,1A5.331,5.331,0,0,0,35.594,0Zm-2.32-1.359a2.373,2.373,0,0,0,1.285-.359,1.81,1.81,0,0,0,.762-.82v-1.25H31.891a1.9,1.9,0,0,0-1.3.41,1.246,1.246,0,0,0-.469.965.984.984,0,0,0,.316.77A1.315,1.315,0,0,0,31.352-1.359Zm9.375.008a1.577,1.577,0,0,0,1.1-.406,1.33,1.33,0,0,0,.449-1.031h1.719l.016.047A2.549,2.549,0,0,1,43.066-.7a3.413,3.413,0,0,1-2.34.859,3.444,3.444,0,0,1-2.82-1.207,4.633,4.633,0,0,1-.992-3.043v-.273A4.637,4.637,0,0,1,37.906-7.4a3.43,3.43,0,0,1,2.813-1.211,3.316,3.316,0,0,1,2.4.887,2.894,2.894,0,0,1,.891,2.254l-.016.047H42.273a1.715,1.715,0,0,0-.43-1.18,1.432,1.432,0,0,0-1.125-.484,1.549,1.549,0,0,0-1.461.785,3.885,3.885,0,0,0-.445,1.941v.273a3.921,3.921,0,0,0,.441,1.957A1.558,1.558,0,0,0,40.727-1.352Zm7.3-9.156v2.055h1.516v1.406H48.031v4.672a1.019,1.019,0,0,0,.227.746.821.821,0,0,0,.6.223,1.678,1.678,0,0,0,.3-.027,1.852,1.852,0,0,0,.281-.074l.2,1.391a2.181,2.181,0,0,1-.574.207,3.161,3.161,0,0,1-.691.074,2.19,2.19,0,0,1-1.645-.613,2.674,2.674,0,0,1-.6-1.926V-7.047H44.852V-8.453h1.289v-2.055Zm2.487,6.2a4.59,4.59,0,0,1,1.035-3.1,3.535,3.535,0,0,1,2.832-1.207A3.562,3.562,0,0,1,57.241-7.4a4.59,4.59,0,0,1,1.035,3.1v.164a4.583,4.583,0,0,1-1.035,3.105A3.555,3.555,0,0,1,54.4.164a3.558,3.558,0,0,1-2.848-1.2,4.587,4.587,0,0,1-1.035-3.1Zm1.9.164A3.75,3.75,0,0,0,52.9-2.125a1.645,1.645,0,0,0,1.5.773,1.648,1.648,0,0,0,1.488-.777,3.684,3.684,0,0,0,.5-2.012V-4.3a3.676,3.676,0,0,0-.5-2,1.658,1.658,0,0,0-1.5-.785,1.626,1.626,0,0,0-1.48.785,3.722,3.722,0,0,0-.488,2Z" transform="translate(-1551.265 -4277.57)" fill="#0c1d30"/>
                <path id="Trazado_204702" data-name="Trazado 204702" d="M8.381,9.705l.014.041a3.116,3.116,0,0,1-.971,2.5,3.958,3.958,0,0,1-2.755.9,3.816,3.816,0,0,1-2.892-1.152,4.132,4.132,0,0,1-1.1-2.977V7.039A4.208,4.208,0,0,1,1.75,4.062,3.659,3.659,0,0,1,4.566,2.9a4.2,4.2,0,0,1,2.844.889,3.06,3.06,0,0,1,1,2.5l-.014.041H6.453A1.957,1.957,0,0,0,5.992,4.91a1.925,1.925,0,0,0-1.425-.468,1.609,1.609,0,0,0-1.4.721,3.189,3.189,0,0,0-.5,1.863V9.015a3.1,3.1,0,0,0,.53,1.873,1.722,1.722,0,0,0,1.473.725,1.752,1.752,0,0,0,1.336-.468,2.037,2.037,0,0,0,.441-1.439Zm.984-.472a3.969,3.969,0,0,1,.923-2.71,3.217,3.217,0,0,1,2.557-1.056,3.251,3.251,0,0,1,2.57,1.053,3.948,3.948,0,0,1,.93,2.714v.144a3.954,3.954,0,0,1-.926,2.717,3.237,3.237,0,0,1-2.56,1.049,3.246,3.246,0,0,1-2.567-1.049,3.954,3.954,0,0,1-.926-2.717Zm1.989.144A3.218,3.218,0,0,0,11.71,11a1.227,1.227,0,0,0,1.148.612A1.215,1.215,0,0,0,13.99,11a3.2,3.2,0,0,0,.359-1.62V9.233a3.164,3.164,0,0,0-.362-1.606A1.226,1.226,0,0,0,12.845,7a1.211,1.211,0,0,0-1.131.625,3.192,3.192,0,0,0-.359,1.6ZM19.4,5.6l.089,1.06a2.705,2.705,0,0,1,.909-.882,2.36,2.36,0,0,1,1.21-.314,2.2,2.2,0,0,1,1.75.721,3.419,3.419,0,0,1,.629,2.28V13h-2V8.475a1.771,1.771,0,0,0-.277-1.125,1.02,1.02,0,0,0-.831-.332,1.743,1.743,0,0,0-.783.167,1.528,1.528,0,0,0-.557.461V13h-2V5.6Zm8.47-1.812V5.6h1.251V7H27.87v3.767a.859.859,0,0,0,.181.615.636.636,0,0,0,.475.185,1.906,1.906,0,0,0,.273-.017,2.3,2.3,0,0,0,.267-.058l.164,1.442a4.041,4.041,0,0,1-.584.154,3.484,3.484,0,0,1-.619.051,2.127,2.127,0,0,1-1.589-.567,2.488,2.488,0,0,1-.557-1.8V7H24.8V5.6h1.08V3.792ZM34.713,13a4.2,4.2,0,0,1-.188-.533,3.709,3.709,0,0,1-.113-.574,2.736,2.736,0,0,1-.813.9,2.039,2.039,0,0,1-1.2.355,2.5,2.5,0,0,1-1.791-.6,2.143,2.143,0,0,1-.629-1.63,1.95,1.95,0,0,1,.837-1.685,4.182,4.182,0,0,1,2.444-.6h1.121V8.044a1.151,1.151,0,0,0-.28-.827,1.1,1.1,0,0,0-.834-.294,1.084,1.084,0,0,0-.749.236.823.823,0,0,0-.263.646H30.331l-.014-.041a1.876,1.876,0,0,1,.817-1.617,3.548,3.548,0,0,1,2.259-.68,3.311,3.311,0,0,1,2.157.67,2.333,2.333,0,0,1,.824,1.921v3.056a5.779,5.779,0,0,0,.079.978A4.905,4.905,0,0,0,36.7,13Zm-1.825-1.333a1.7,1.7,0,0,0,.93-.26,1.4,1.4,0,0,0,.561-.6V9.76H33.257a1.329,1.329,0,0,0-.96.314,1.033,1.033,0,0,0-.325.772.771.771,0,0,0,.243.6A.96.96,0,0,0,32.888,11.667ZM39.724,5.6l.082.978a2.485,2.485,0,0,1,.892-.824,2.565,2.565,0,0,1,1.241-.291,2.259,2.259,0,0,1,1.217.314,1.94,1.94,0,0,1,.766.95,2.564,2.564,0,0,1,.889-.93,2.411,2.411,0,0,1,1.285-.335,2.107,2.107,0,0,1,1.726.776,3.7,3.7,0,0,1,.632,2.369V13h-2V8.6a2.073,2.073,0,0,0-.273-1.237.971.971,0,0,0-.813-.349,1.393,1.393,0,0,0-.735.188,1.369,1.369,0,0,0-.5.523q0,.13.007.222t.007.188V13H42.164V8.6a2.079,2.079,0,0,0-.273-1.227.966.966,0,0,0-.82-.359,1.548,1.548,0,0,0-.708.154,1.357,1.357,0,0,0-.5.434V13H37.871V5.6ZM52.083,13h-2V5.6h2Zm0-9.167h-2v-1.5h2ZM55.549,5.6l.089,1.06a2.705,2.705,0,0,1,.909-.882,2.36,2.36,0,0,1,1.21-.314,2.2,2.2,0,0,1,1.75.721,3.419,3.419,0,0,1,.629,2.28V13h-2V8.475a1.771,1.771,0,0,0-.277-1.125,1.02,1.02,0,0,0-.831-.332,1.743,1.743,0,0,0-.783.167,1.528,1.528,0,0,0-.557.461V13h-2V5.6ZM65.987,13a4.2,4.2,0,0,1-.188-.533,3.71,3.71,0,0,1-.113-.574,2.736,2.736,0,0,1-.813.9,2.039,2.039,0,0,1-1.2.355,2.5,2.5,0,0,1-1.791-.6,2.143,2.143,0,0,1-.629-1.63,1.95,1.95,0,0,1,.837-1.685,4.182,4.182,0,0,1,2.444-.6h1.121V8.044a1.151,1.151,0,0,0-.28-.827,1.1,1.1,0,0,0-.834-.294,1.084,1.084,0,0,0-.749.236.823.823,0,0,0-.263.646H61.605l-.014-.041a1.876,1.876,0,0,1,.817-1.617,3.548,3.548,0,0,1,2.259-.68,3.311,3.311,0,0,1,2.157.67,2.333,2.333,0,0,1,.824,1.921v3.056a5.78,5.78,0,0,0,.079.978,4.905,4.905,0,0,0,.25.909Zm-1.825-1.333a1.7,1.7,0,0,0,.93-.26,1.4,1.4,0,0,0,.561-.6V9.76H64.531a1.329,1.329,0,0,0-.96.314,1.033,1.033,0,0,0-.325.772.771.771,0,0,0,.243.6A.96.96,0,0,0,64.162,11.667Zm8.073-.055a1.111,1.111,0,0,0,.827-.311,1.129,1.129,0,0,0,.308-.831h1.818l.014.041a2.315,2.315,0,0,1-.834,1.876,3.119,3.119,0,0,1-2.133.755A3.152,3.152,0,0,1,69.7,12.094a3.988,3.988,0,0,1-.9-2.683V9.206A4.014,4.014,0,0,1,69.7,6.523a3.124,3.124,0,0,1,2.526-1.056,3.05,3.05,0,0,1,2.181.779A2.6,2.6,0,0,1,75.2,8.3l-.014.041H73.37a1.476,1.476,0,0,0-.3-.954A1.022,1.022,0,0,0,72.222,7a1.139,1.139,0,0,0-1.1.619A3.393,3.393,0,0,0,70.8,9.206v.205A3.38,3.38,0,0,0,71.125,11,1.155,1.155,0,0,0,72.235,11.612ZM78.463,13h-2V5.6h2Zm0-9.167h-2v-1.5h2Zm1.333,5.4a3.969,3.969,0,0,1,.923-2.71,3.217,3.217,0,0,1,2.557-1.056,3.251,3.251,0,0,1,2.57,1.053,3.948,3.948,0,0,1,.93,2.714v.144a3.954,3.954,0,0,1-.926,2.717,3.656,3.656,0,0,1-5.127,0A3.954,3.954,0,0,1,79.8,9.377Zm1.989.144A3.218,3.218,0,0,0,82.141,11a1.366,1.366,0,0,0,2.28,0,3.2,3.2,0,0,0,.359-1.62V9.233a3.164,3.164,0,0,0-.362-1.606A1.226,1.226,0,0,0,83.275,7a1.211,1.211,0,0,0-1.131.625,3.192,3.192,0,0,0-.359,1.6Zm1.894-6.932H85.9l.014.041L84.021,4.264h-1.7ZM89.831,5.6l.089,1.06a2.705,2.705,0,0,1,.909-.882,2.36,2.36,0,0,1,1.21-.314,2.2,2.2,0,0,1,1.75.721,3.419,3.419,0,0,1,.629,2.28V13h-2V8.475a1.771,1.771,0,0,0-.277-1.125,1.02,1.02,0,0,0-.831-.332,1.743,1.743,0,0,0-.783.167,1.528,1.528,0,0,0-.557.461V13h-2V5.6Zm9.256,3.76a4.806,4.806,0,0,1,.755-2.823,2.453,2.453,0,0,1,2.129-1.073,2.071,2.071,0,0,1,1,.239,2.4,2.4,0,0,1,.779.684V2.336h2V13h-1.7l-.171-.909a2.473,2.473,0,0,1-.827.783,2.187,2.187,0,0,1-1.094.27,2.5,2.5,0,0,1-2.116-1,4.262,4.262,0,0,1-.755-2.639Zm1.989.144a3.013,3.013,0,0,0,.328,1.528,1.142,1.142,0,0,0,1.066.557,1.553,1.553,0,0,0,.752-.174,1.391,1.391,0,0,0,.526-.509V7.757a1.536,1.536,0,0,0-.523-.543,1.391,1.391,0,0,0-.742-.195,1.127,1.127,0,0,0-1.07.649,3.67,3.67,0,0,0-.338,1.7Zm9.427,3.637a3.328,3.328,0,0,1-2.584-1.015,3.721,3.721,0,0,1-.93-2.615V9.24a4.05,4.05,0,0,1,.9-2.721,3.068,3.068,0,0,1,2.481-1.053,2.872,2.872,0,0,1,2.287.913,3.607,3.607,0,0,1,.8,2.458V9.869h-4.409l-.021.041a2,2,0,0,0,.461,1.23,1.545,1.545,0,0,0,1.227.472,4.106,4.106,0,0,0,1.138-.137,4.644,4.644,0,0,0,.967-.417l.54,1.23a3.705,3.705,0,0,1-1.2.608A5.336,5.336,0,0,1,110.5,13.144ZM110.373,7a1.109,1.109,0,0,0-.926.414,2.075,2.075,0,0,0-.393,1.1l.014.034H111.5V8.4a1.728,1.728,0,0,0-.267-1.022A.986.986,0,0,0,110.373,7Zm6.344,6h-2V2.336h2Zm9.126-2.051a.689.689,0,0,0-.318-.564,3.229,3.229,0,0,0-1.179-.414,4.7,4.7,0,0,1-1.972-.786,1.717,1.717,0,0,1-.673-1.429,2.038,2.038,0,0,1,.807-1.62,3.252,3.252,0,0,1,2.146-.67,3.51,3.51,0,0,1,2.246.67,1.957,1.957,0,0,1,.81,1.668l-.014.041h-1.928a.968.968,0,0,0-.287-.725,1.342,1.342,0,0,0-1.586-.041.744.744,0,0,0-.28.588.664.664,0,0,0,.291.557,3.234,3.234,0,0,0,1.179.386,4.8,4.8,0,0,1,2.027.8,1.762,1.762,0,0,1,.667,1.459,1.952,1.952,0,0,1-.854,1.634,3.688,3.688,0,0,1-2.256.636,3.429,3.429,0,0,1-2.334-.749,2.093,2.093,0,0,1-.817-1.706l.014-.041h1.825a1.037,1.037,0,0,0,.39.861,1.609,1.609,0,0,0,.964.267,1.371,1.371,0,0,0,.844-.222A.721.721,0,0,0,125.843,10.949Zm7.752.957a2.511,2.511,0,0,1-.868.916,2.3,2.3,0,0,1-1.224.321,2.249,2.249,0,0,1-1.829-.793,3.8,3.8,0,0,1-.66-2.461V5.6H131V9.9a2.388,2.388,0,0,0,.263,1.33.946.946,0,0,0,.817.359,1.989,1.989,0,0,0,.82-.154,1.383,1.383,0,0,0,.561-.455V5.6h2V13h-1.654Zm6.576,1.237a3.328,3.328,0,0,1-2.584-1.015,3.721,3.721,0,0,1-.93-2.615V9.24a4.05,4.05,0,0,1,.9-2.721,3.068,3.068,0,0,1,2.481-1.053,2.872,2.872,0,0,1,2.287.913,3.607,3.607,0,0,1,.8,2.458V9.869h-4.409l-.021.041a2,2,0,0,0,.461,1.23,1.545,1.545,0,0,0,1.227.472,4.106,4.106,0,0,0,1.138-.137,4.644,4.644,0,0,0,.967-.417l.54,1.23a3.7,3.7,0,0,1-1.2.608A5.336,5.336,0,0,1,140.171,13.144ZM140.041,7a1.109,1.109,0,0,0-.926.414,2.075,2.075,0,0,0-.393,1.1l.014.034h2.434V8.4a1.728,1.728,0,0,0-.267-1.022A.986.986,0,0,0,140.041,7Zm6.344,6h-2V2.336h2Zm1.333-3.767a3.969,3.969,0,0,1,.923-2.71A3.217,3.217,0,0,1,151.2,5.467a3.251,3.251,0,0,1,2.57,1.053,3.948,3.948,0,0,1,.93,2.714v.144a3.954,3.954,0,0,1-.926,2.717,3.656,3.656,0,0,1-5.127,0,3.954,3.954,0,0,1-.926-2.717Zm1.989.144A3.218,3.218,0,0,0,150.063,11a1.366,1.366,0,0,0,2.28,0,3.2,3.2,0,0,0,.359-1.62V9.233a3.164,3.164,0,0,0-.362-1.606A1.226,1.226,0,0,0,151.2,7a1.211,1.211,0,0,0-1.131.625,3.192,3.192,0,0,0-.359,1.6Zm8.306,3.534-1.087,2.153h-1.333l.479-2.215V11.291h1.941Zm5.53.089V7h-1.1V5.6h1.1v-.82a2.5,2.5,0,0,1,.718-1.917,2.834,2.834,0,0,1,2.017-.673,3.647,3.647,0,0,1,.516.038q.263.038.578.106L167.2,3.819q-.164-.027-.318-.048a2.751,2.751,0,0,0-.359-.021.958.958,0,0,0-.735.267,1.079,1.079,0,0,0-.25.766V5.6h1.422V7h-1.422v6Zm8.723,0a4.2,4.2,0,0,1-.188-.533,3.708,3.708,0,0,1-.113-.574,2.736,2.736,0,0,1-.813.9,2.039,2.039,0,0,1-1.2.355,2.5,2.5,0,0,1-1.791-.6,2.143,2.143,0,0,1-.629-1.63,1.95,1.95,0,0,1,.837-1.685,4.182,4.182,0,0,1,2.444-.6h1.121V8.044a1.151,1.151,0,0,0-.28-.827,1.1,1.1,0,0,0-.834-.294,1.084,1.084,0,0,0-.749.236.823.823,0,0,0-.263.646h-1.921l-.014-.041a1.876,1.876,0,0,1,.817-1.617,3.548,3.548,0,0,1,2.259-.68,3.311,3.311,0,0,1,2.157.67,2.333,2.333,0,0,1,.824,1.921v3.056a5.779,5.779,0,0,0,.079.978,4.905,4.905,0,0,0,.25.909Zm-1.825-1.333a1.7,1.7,0,0,0,.93-.26,1.4,1.4,0,0,0,.561-.6V9.76H170.81a1.329,1.329,0,0,0-.96.314,1.033,1.033,0,0,0-.325.772.771.771,0,0,0,.243.6A.96.96,0,0,0,170.44,11.667Zm9.516.239a2.511,2.511,0,0,1-.868.916,2.3,2.3,0,0,1-1.224.321,2.249,2.249,0,0,1-1.829-.793,3.8,3.8,0,0,1-.66-2.461V5.6h1.989V9.9a2.388,2.388,0,0,0,.263,1.33.946.946,0,0,0,.817.359,1.989,1.989,0,0,0,.82-.154,1.383,1.383,0,0,0,.561-.455V5.6h2V13h-1.654Zm5.2-6.3.089,1.06a2.705,2.705,0,0,1,.909-.882,2.36,2.36,0,0,1,1.21-.314,2.2,2.2,0,0,1,1.75.721,3.419,3.419,0,0,1,.629,2.28V13h-2V8.475a1.771,1.771,0,0,0-.277-1.125,1.02,1.02,0,0,0-.831-.332,1.743,1.743,0,0,0-.783.167,1.528,1.528,0,0,0-.557.461V13h-2V5.6ZM195.59,13a4.2,4.2,0,0,1-.188-.533,3.708,3.708,0,0,1-.113-.574,2.736,2.736,0,0,1-.813.9,2.039,2.039,0,0,1-1.2.355,2.5,2.5,0,0,1-1.791-.6,2.143,2.143,0,0,1-.629-1.63,1.95,1.95,0,0,1,.837-1.685,4.182,4.182,0,0,1,2.444-.6h1.121V8.044a1.151,1.151,0,0,0-.28-.827,1.1,1.1,0,0,0-.834-.294,1.084,1.084,0,0,0-.749.236.823.823,0,0,0-.263.646h-1.921l-.014-.041a1.876,1.876,0,0,1,.817-1.617,3.548,3.548,0,0,1,2.259-.68,3.311,3.311,0,0,1,2.157.67,2.333,2.333,0,0,1,.824,1.921v3.056a5.779,5.779,0,0,0,.079.978,4.905,4.905,0,0,0,.25.909Zm-1.825-1.333a1.7,1.7,0,0,0,.93-.26,1.4,1.4,0,0,0,.561-.6V9.76h-1.121a1.329,1.329,0,0,0-.96.314,1.033,1.033,0,0,0-.325.772.771.771,0,0,0,.243.6A.96.96,0,0,0,193.765,11.667ZM204.9,9.9l.082.41h.041l1.415-4.7h2.146l-3,8.5a3.915,3.915,0,0,1-.854,1.336,2.192,2.192,0,0,1-1.62.543,2.505,2.505,0,0,1-.468-.041q-.215-.041-.523-.116l.232-1.456.191.027a1.41,1.41,0,0,0,.185.014,1.088,1.088,0,0,0,.759-.243,1.6,1.6,0,0,0,.41-.6l.232-.574L201.5,5.6h2.146Zm8.49,3.1V7h-1.1V5.6h1.1v-.82a2.5,2.5,0,0,1,.718-1.917,2.834,2.834,0,0,1,2.017-.673,3.647,3.647,0,0,1,.516.038q.263.038.578.106l-.171,1.483q-.164-.027-.318-.048a2.751,2.751,0,0,0-.359-.021.958.958,0,0,0-.735.267,1.079,1.079,0,0,0-.25.766V5.6h1.422V7h-1.422v6Zm6.46,0h-2V2.336h2Zm1.333-3.767a3.969,3.969,0,0,1,.923-2.71,3.217,3.217,0,0,1,2.557-1.056,3.251,3.251,0,0,1,2.57,1.053,3.948,3.948,0,0,1,.93,2.714v.144a3.954,3.954,0,0,1-.926,2.717,3.656,3.656,0,0,1-5.127,0,3.954,3.954,0,0,1-.926-2.717Zm1.989.144A3.218,3.218,0,0,0,223.528,11a1.366,1.366,0,0,0,2.28,0,3.2,3.2,0,0,0,.359-1.62V9.233a3.164,3.164,0,0,0-.362-1.606A1.226,1.226,0,0,0,224.663,7a1.211,1.211,0,0,0-1.131.625,3.192,3.192,0,0,0-.359,1.6Zm10.11-2.058-.731-.021a1.33,1.33,0,0,0-.731.185,1.17,1.17,0,0,0-.437.52v5h-1.989V5.6h1.853l.089,1.094a2.333,2.333,0,0,1,.673-.906,1.573,1.573,0,0,1,1.23-.3q.126.024.256.058Zm5.4,5.681a4.2,4.2,0,0,1-.188-.533,3.708,3.708,0,0,1-.113-.574,2.736,2.736,0,0,1-.813.9,2.039,2.039,0,0,1-1.2.355,2.5,2.5,0,0,1-1.791-.6,2.143,2.143,0,0,1-.629-1.63,1.95,1.95,0,0,1,.837-1.685,4.182,4.182,0,0,1,2.444-.6h1.121V8.044a1.151,1.151,0,0,0-.28-.827,1.1,1.1,0,0,0-.834-.294,1.084,1.084,0,0,0-.749.236.823.823,0,0,0-.263.646H234.3l-.014-.041a1.876,1.876,0,0,1,.817-1.617,3.548,3.548,0,0,1,2.259-.68,3.311,3.311,0,0,1,2.157.67,2.333,2.333,0,0,1,.824,1.921v3.056a5.779,5.779,0,0,0,.079.978,4.905,4.905,0,0,0,.25.909Zm-1.825-1.333a1.7,1.7,0,0,0,.93-.26,1.4,1.4,0,0,0,.561-.6V9.76h-1.121a1.329,1.329,0,0,0-.96.314,1.033,1.033,0,0,0-.325.772.771.771,0,0,0,.243.6A.96.96,0,0,0,236.858,11.667ZM249.689,13a4.2,4.2,0,0,1-.188-.533,3.708,3.708,0,0,1-.113-.574,2.736,2.736,0,0,1-.813.9,2.039,2.039,0,0,1-1.2.355,2.5,2.5,0,0,1-1.791-.6,2.143,2.143,0,0,1-.629-1.63,1.95,1.95,0,0,1,.837-1.685,4.182,4.182,0,0,1,2.444-.6h1.121V8.044a1.151,1.151,0,0,0-.28-.827,1.1,1.1,0,0,0-.834-.294,1.084,1.084,0,0,0-.749.236.823.823,0,0,0-.263.646h-1.921l-.014-.041a1.876,1.876,0,0,1,.817-1.617,3.548,3.548,0,0,1,2.259-.68,3.311,3.311,0,0,1,2.157.67,2.333,2.333,0,0,1,.824,1.921v3.056a5.779,5.779,0,0,0,.079.978,4.905,4.905,0,0,0,.25.909Zm-1.825-1.333a1.7,1.7,0,0,0,.93-.26,1.4,1.4,0,0,0,.561-.6V9.76h-1.121a1.329,1.329,0,0,0-.96.314,1.033,1.033,0,0,0-.325.772.771.771,0,0,0,.243.6A.96.96,0,0,0,247.864,11.667Zm11.56-.055a1.111,1.111,0,0,0,.827-.311,1.129,1.129,0,0,0,.308-.831h1.818l.014.041a2.315,2.315,0,0,1-.834,1.876,3.119,3.119,0,0,1-2.133.755,3.152,3.152,0,0,1-2.536-1.049,3.988,3.988,0,0,1-.9-2.683V9.206a4.014,4.014,0,0,1,.892-2.683,3.124,3.124,0,0,1,2.526-1.056,3.05,3.05,0,0,1,2.181.779,2.6,2.6,0,0,1,.8,2.051l-.014.041h-1.818a1.476,1.476,0,0,0-.3-.954A1.022,1.022,0,0,0,259.41,7a1.139,1.139,0,0,0-1.1.619,3.393,3.393,0,0,0-.325,1.583v.205A3.38,3.38,0,0,0,258.313,11,1.155,1.155,0,0,0,259.424,11.612ZM267.914,13a4.2,4.2,0,0,1-.188-.533,3.711,3.711,0,0,1-.113-.574,2.736,2.736,0,0,1-.813.9,2.039,2.039,0,0,1-1.2.355,2.5,2.5,0,0,1-1.791-.6,2.143,2.143,0,0,1-.629-1.63,1.95,1.95,0,0,1,.837-1.685,4.182,4.182,0,0,1,2.444-.6h1.121V8.044a1.151,1.151,0,0,0-.28-.827,1.1,1.1,0,0,0-.834-.294,1.084,1.084,0,0,0-.749.236.823.823,0,0,0-.263.646h-1.921l-.014-.041a1.876,1.876,0,0,1,.817-1.617,3.548,3.548,0,0,1,2.259-.68,3.311,3.311,0,0,1,2.157.67,2.333,2.333,0,0,1,.824,1.921v3.056a5.78,5.78,0,0,0,.079.978,4.905,4.905,0,0,0,.25.909Zm-1.825-1.333a1.7,1.7,0,0,0,.93-.26,1.4,1.4,0,0,0,.561-.6V9.76h-1.121a1.329,1.329,0,0,0-.96.314,1.033,1.033,0,0,0-.325.772.771.771,0,0,0,.243.6A.96.96,0,0,0,266.089,11.667Zm9.516.239a2.511,2.511,0,0,1-.868.916,2.3,2.3,0,0,1-1.224.321,2.249,2.249,0,0,1-1.829-.793,3.8,3.8,0,0,1-.66-2.461V5.6h1.989V9.9a2.388,2.388,0,0,0,.263,1.33.946.946,0,0,0,.817.359,1.989,1.989,0,0,0,.82-.154,1.383,1.383,0,0,0,.561-.455V5.6h2V13h-1.654Zm7.369-.957a.689.689,0,0,0-.318-.564,3.229,3.229,0,0,0-1.179-.414,4.7,4.7,0,0,1-1.972-.786,1.717,1.717,0,0,1-.673-1.429,2.038,2.038,0,0,1,.807-1.62,3.252,3.252,0,0,1,2.146-.67,3.51,3.51,0,0,1,2.246.67,1.957,1.957,0,0,1,.81,1.668l-.014.041H282.9a.968.968,0,0,0-.287-.725,1.342,1.342,0,0,0-1.586-.041.744.744,0,0,0-.28.588.664.664,0,0,0,.291.557,3.234,3.234,0,0,0,1.179.386,4.8,4.8,0,0,1,2.027.8,1.762,1.762,0,0,1,.667,1.459,1.952,1.952,0,0,1-.854,1.634,3.688,3.688,0,0,1-2.256.636,3.429,3.429,0,0,1-2.334-.749,2.093,2.093,0,0,1-.817-1.706l.014-.041h1.825a1.037,1.037,0,0,0,.39.861,1.609,1.609,0,0,0,.964.267,1.371,1.371,0,0,0,.844-.222A.721.721,0,0,0,282.974,10.949ZM290.555,13a4.2,4.2,0,0,1-.188-.533,3.711,3.711,0,0,1-.113-.574,2.736,2.736,0,0,1-.813.9,2.039,2.039,0,0,1-1.2.355,2.5,2.5,0,0,1-1.791-.6,2.143,2.143,0,0,1-.629-1.63,1.95,1.95,0,0,1,.837-1.685,4.182,4.182,0,0,1,2.444-.6h1.121V8.044a1.151,1.151,0,0,0-.28-.827,1.1,1.1,0,0,0-.834-.294,1.084,1.084,0,0,0-.749.236.823.823,0,0,0-.263.646h-1.921l-.014-.041a1.876,1.876,0,0,1,.817-1.617,3.548,3.548,0,0,1,2.259-.68,3.311,3.311,0,0,1,2.157.67,2.333,2.333,0,0,1,.824,1.921v3.056a5.78,5.78,0,0,0,.079.978,4.905,4.905,0,0,0,.25.909Zm-1.825-1.333a1.7,1.7,0,0,0,.93-.26,1.4,1.4,0,0,0,.561-.6V9.76H289.1a1.329,1.329,0,0,0-.96.314,1.033,1.033,0,0,0-.325.772.771.771,0,0,0,.243.6A.96.96,0,0,0,288.729,11.667ZM.458,26.163a4.806,4.806,0,0,1,.755-2.823,2.453,2.453,0,0,1,2.129-1.073,2.071,2.071,0,0,1,1,.239,2.4,2.4,0,0,1,.779.684V19.136h2V29.8h-1.7l-.171-.909a2.473,2.473,0,0,1-.827.783,2.187,2.187,0,0,1-1.094.27,2.5,2.5,0,0,1-2.116-1,4.262,4.262,0,0,1-.755-2.639Zm1.989.144a3.013,3.013,0,0,0,.328,1.528,1.142,1.142,0,0,0,1.066.557,1.553,1.553,0,0,0,.752-.174,1.391,1.391,0,0,0,.526-.509V24.557a1.536,1.536,0,0,0-.523-.543,1.391,1.391,0,0,0-.742-.195,1.127,1.127,0,0,0-1.07.649,3.67,3.67,0,0,0-.338,1.7Zm9.427,3.637A3.328,3.328,0,0,1,9.29,28.928a3.721,3.721,0,0,1-.93-2.615V26.04a4.05,4.05,0,0,1,.9-2.721,3.068,3.068,0,0,1,2.481-1.053,2.872,2.872,0,0,1,2.287.913,3.607,3.607,0,0,1,.8,2.458v1.032H10.418l-.021.041a2,2,0,0,0,.461,1.23,1.545,1.545,0,0,0,1.227.472,4.106,4.106,0,0,0,1.138-.137,4.644,4.644,0,0,0,.967-.417l.54,1.23a3.7,3.7,0,0,1-1.2.608A5.336,5.336,0,0,1,11.874,29.944Zm-.13-6.139a1.109,1.109,0,0,0-.926.414,2.075,2.075,0,0,0-.393,1.1l.014.034h2.434V25.2a1.728,1.728,0,0,0-.267-1.022A.986.986,0,0,0,11.744,23.8Zm6.344,6h-2V19.136h2Zm7.226,0h-2V22.4h2Zm0-9.167h-2v-1.5h2ZM28.779,22.4l.089,1.06a2.705,2.705,0,0,1,.909-.882,2.36,2.36,0,0,1,1.21-.314,2.2,2.2,0,0,1,1.75.721,3.419,3.419,0,0,1,.629,2.28V29.8h-2V25.275a1.771,1.771,0,0,0-.277-1.125,1.02,1.02,0,0,0-.831-.332,1.743,1.743,0,0,0-.783.167,1.528,1.528,0,0,0-.557.461V29.8h-2V22.4Zm10.438,7.4a4.2,4.2,0,0,1-.188-.533,3.709,3.709,0,0,1-.113-.574,2.736,2.736,0,0,1-.813.9,2.039,2.039,0,0,1-1.2.355,2.5,2.5,0,0,1-1.791-.6,2.143,2.143,0,0,1-.629-1.63,1.95,1.95,0,0,1,.837-1.685,4.182,4.182,0,0,1,2.444-.6h1.121v-.588a1.151,1.151,0,0,0-.28-.827,1.1,1.1,0,0,0-.834-.294,1.084,1.084,0,0,0-.749.236.823.823,0,0,0-.263.646H34.836l-.014-.041a1.876,1.876,0,0,1,.817-1.617,3.548,3.548,0,0,1,2.259-.68,3.311,3.311,0,0,1,2.157.67,2.333,2.333,0,0,1,.824,1.921v3.056a5.779,5.779,0,0,0,.079.978,4.905,4.905,0,0,0,.25.909Zm-1.825-1.333a1.7,1.7,0,0,0,.93-.26,1.4,1.4,0,0,0,.561-.6V26.56H37.762a1.329,1.329,0,0,0-.96.314,1.033,1.033,0,0,0-.325.772.771.771,0,0,0,.243.6A.96.96,0,0,0,37.393,28.467Zm4.676-2.3a4.806,4.806,0,0,1,.755-2.823,2.453,2.453,0,0,1,2.129-1.073,2.071,2.071,0,0,1,1,.239,2.4,2.4,0,0,1,.779.684V19.136h2V29.8h-1.7l-.171-.909a2.473,2.473,0,0,1-.827.783,2.187,2.187,0,0,1-1.094.27,2.5,2.5,0,0,1-2.116-1,4.262,4.262,0,0,1-.755-2.639Zm1.989.144a3.013,3.013,0,0,0,.328,1.528,1.142,1.142,0,0,0,1.066.557,1.553,1.553,0,0,0,.752-.174,1.391,1.391,0,0,0,.526-.509V24.557a1.536,1.536,0,0,0-.523-.543,1.391,1.391,0,0,0-.742-.195,1.127,1.127,0,0,0-1.07.649,3.67,3.67,0,0,0-.338,1.7Zm9.427,3.637A3.328,3.328,0,0,1,50.9,28.928a3.721,3.721,0,0,1-.93-2.615V26.04a4.05,4.05,0,0,1,.9-2.721,3.068,3.068,0,0,1,2.481-1.053,2.872,2.872,0,0,1,2.287.913,3.607,3.607,0,0,1,.8,2.458v1.032H52.028l-.021.041a2,2,0,0,0,.461,1.23,1.545,1.545,0,0,0,1.227.472,4.106,4.106,0,0,0,1.138-.137,4.644,4.644,0,0,0,.967-.417l.54,1.23a3.7,3.7,0,0,1-1.2.608A5.336,5.336,0,0,1,53.484,29.944Zm-.13-6.139a1.109,1.109,0,0,0-.926.414,2.075,2.075,0,0,0-.393,1.1l.014.034h2.434V25.2a1.728,1.728,0,0,0-.267-1.022A.986.986,0,0,0,53.354,23.8Zm7.335,4.607a1.111,1.111,0,0,0,.827-.311,1.129,1.129,0,0,0,.308-.831h1.818l.014.041a2.315,2.315,0,0,1-.834,1.876,3.119,3.119,0,0,1-2.133.755,3.152,3.152,0,0,1-2.536-1.049,3.988,3.988,0,0,1-.9-2.683v-.205a4.014,4.014,0,0,1,.892-2.683,3.124,3.124,0,0,1,2.526-1.056,3.05,3.05,0,0,1,2.181.779,2.6,2.6,0,0,1,.8,2.051l-.014.041H61.824a1.476,1.476,0,0,0-.3-.954,1.022,1.022,0,0,0-.844-.379,1.139,1.139,0,0,0-1.1.619,3.393,3.393,0,0,0-.325,1.583v.205a3.38,3.38,0,0,0,.325,1.593A1.155,1.155,0,0,0,60.689,28.412Zm8.661.294a2.511,2.511,0,0,1-.868.916,2.3,2.3,0,0,1-1.224.321,2.249,2.249,0,0,1-1.829-.793,3.8,3.8,0,0,1-.66-2.461V22.4H66.76v4.3a2.388,2.388,0,0,0,.263,1.33.946.946,0,0,0,.817.359,1.989,1.989,0,0,0,.82-.154,1.383,1.383,0,0,0,.561-.455V22.4h2v7.4H69.563ZM77.082,29.8a4.2,4.2,0,0,1-.188-.533,3.71,3.71,0,0,1-.113-.574,2.736,2.736,0,0,1-.813.9,2.039,2.039,0,0,1-1.2.355,2.5,2.5,0,0,1-1.791-.6,2.143,2.143,0,0,1-.629-1.63,1.95,1.95,0,0,1,.837-1.685,4.182,4.182,0,0,1,2.444-.6h1.121v-.588a1.151,1.151,0,0,0-.28-.827,1.1,1.1,0,0,0-.834-.294,1.084,1.084,0,0,0-.749.236.823.823,0,0,0-.263.646H72.7l-.014-.041a1.876,1.876,0,0,1,.817-1.617,3.548,3.548,0,0,1,2.259-.68,3.311,3.311,0,0,1,2.157.67,2.333,2.333,0,0,1,.824,1.921v3.056a5.78,5.78,0,0,0,.079.978,4.905,4.905,0,0,0,.25.909Zm-1.825-1.333a1.7,1.7,0,0,0,.93-.26,1.4,1.4,0,0,0,.561-.6V26.56H75.626a1.329,1.329,0,0,0-.96.314,1.033,1.033,0,0,0-.325.772.771.771,0,0,0,.243.6A.96.96,0,0,0,75.257,28.467Zm4.676-2.3a4.806,4.806,0,0,1,.755-2.823,2.453,2.453,0,0,1,2.129-1.073,2.071,2.071,0,0,1,1,.239,2.4,2.4,0,0,1,.779.684V19.136h2V29.8H84.9l-.171-.909a2.473,2.473,0,0,1-.827.783,2.187,2.187,0,0,1-1.094.27,2.5,2.5,0,0,1-2.116-1,4.262,4.262,0,0,1-.755-2.639Zm1.989.144a3.013,3.013,0,0,0,.328,1.528,1.142,1.142,0,0,0,1.066.557,1.553,1.553,0,0,0,.752-.174,1.391,1.391,0,0,0,.526-.509V24.557a1.536,1.536,0,0,0-.523-.543,1.391,1.391,0,0,0-.742-.195,1.127,1.127,0,0,0-1.07.649,3.67,3.67,0,0,0-.338,1.7Zm5.913-.273a3.969,3.969,0,0,1,.923-2.71,3.217,3.217,0,0,1,2.557-1.056,3.251,3.251,0,0,1,2.57,1.053,3.948,3.948,0,0,1,.93,2.714v.144a3.954,3.954,0,0,1-.926,2.717,3.656,3.656,0,0,1-5.127,0,3.954,3.954,0,0,1-.926-2.717Zm1.989.144A3.218,3.218,0,0,0,90.18,27.8a1.366,1.366,0,0,0,2.28,0,3.2,3.2,0,0,0,.359-1.62v-.144a3.164,3.164,0,0,0-.362-1.606,1.226,1.226,0,0,0-1.142-.622,1.211,1.211,0,0,0-1.131.625,3.192,3.192,0,0,0-.359,1.6Zm11.56-3.773.082.978a2.485,2.485,0,0,1,.892-.824,2.565,2.565,0,0,1,1.241-.291,2.259,2.259,0,0,1,1.217.314,1.94,1.94,0,0,1,.766.95,2.564,2.564,0,0,1,.889-.93,2.411,2.411,0,0,1,1.285-.335,2.107,2.107,0,0,1,1.726.776,3.7,3.7,0,0,1,.632,2.369V29.8h-2V25.4a2.073,2.073,0,0,0-.273-1.237.971.971,0,0,0-.813-.349,1.393,1.393,0,0,0-.735.188,1.369,1.369,0,0,0-.5.523q0,.13.007.222t.007.188V29.8h-1.989V25.4a2.079,2.079,0,0,0-.273-1.227.966.966,0,0,0-.82-.359,1.548,1.548,0,0,0-.708.154,1.357,1.357,0,0,0-.5.434V29.8H99.531V22.4Zm14.622,7.4a4.2,4.2,0,0,1-.188-.533,3.71,3.71,0,0,1-.113-.574,2.736,2.736,0,0,1-.813.9,2.039,2.039,0,0,1-1.2.355,2.5,2.5,0,0,1-1.791-.6,2.143,2.143,0,0,1-.629-1.63,1.95,1.95,0,0,1,.837-1.685,4.182,4.182,0,0,1,2.444-.6h1.121v-.588a1.151,1.151,0,0,0-.28-.827,1.1,1.1,0,0,0-.834-.294,1.084,1.084,0,0,0-.749.236.823.823,0,0,0-.263.646h-1.921l-.014-.041a1.876,1.876,0,0,1,.817-1.617,3.548,3.548,0,0,1,2.259-.68,3.311,3.311,0,0,1,2.157.67,2.333,2.333,0,0,1,.824,1.921v3.056a5.78,5.78,0,0,0,.079.978,4.905,4.905,0,0,0,.25.909Zm-1.825-1.333a1.7,1.7,0,0,0,.93-.26,1.4,1.4,0,0,0,.561-.6V26.56H114.55a1.329,1.329,0,0,0-.96.314,1.033,1.033,0,0,0-.325.772.771.771,0,0,0,.243.6A.96.96,0,0,0,114.181,28.467Zm6.809-6.063.089,1.06a2.705,2.705,0,0,1,.909-.882,2.36,2.36,0,0,1,1.21-.314,2.2,2.2,0,0,1,1.75.721,3.419,3.419,0,0,1,.629,2.28V29.8h-2V25.275a1.771,1.771,0,0,0-.277-1.125,1.02,1.02,0,0,0-.831-.332,1.743,1.743,0,0,0-.783.167,1.528,1.528,0,0,0-.557.461V29.8h-2V22.4Zm9.283,7.54a3.328,3.328,0,0,1-2.584-1.015,3.721,3.721,0,0,1-.93-2.615V26.04a4.05,4.05,0,0,1,.9-2.721,3.068,3.068,0,0,1,2.481-1.053,2.872,2.872,0,0,1,2.287.913,3.607,3.607,0,0,1,.8,2.458v1.032h-4.409l-.021.041a2,2,0,0,0,.461,1.23,1.545,1.545,0,0,0,1.227.472,4.106,4.106,0,0,0,1.138-.137,4.644,4.644,0,0,0,.967-.417l.54,1.23a3.7,3.7,0,0,1-1.2.608A5.336,5.336,0,0,1,130.272,29.944Zm-.13-6.139a1.109,1.109,0,0,0-.926.414,2.075,2.075,0,0,0-.393,1.1l.014.034h2.434V25.2A1.728,1.728,0,0,0,131,24.177.986.986,0,0,0,130.143,23.8Zm6.4-1.4v7.67a2.754,2.754,0,0,1-.69,2.006,2.56,2.56,0,0,1-1.921.708,3.83,3.83,0,0,1-.978-.116l.1-1.524a2.553,2.553,0,0,0,.314.062,2.593,2.593,0,0,0,.335.021.739.739,0,0,0,.622-.284,1.422,1.422,0,0,0,.219-.872V22.4Zm-.041-1.784h-2V19.136h2Zm1.292,5.414a3.969,3.969,0,0,1,.923-2.71,3.217,3.217,0,0,1,2.557-1.056,3.251,3.251,0,0,1,2.57,1.053,3.948,3.948,0,0,1,.93,2.714v.144a3.954,3.954,0,0,1-.926,2.717,3.656,3.656,0,0,1-5.127,0,3.954,3.954,0,0,1-.926-2.717Zm1.989.144a3.218,3.218,0,0,0,.355,1.624,1.366,1.366,0,0,0,2.28,0,3.2,3.2,0,0,0,.359-1.62v-.144a3.164,3.164,0,0,0-.362-1.606,1.226,1.226,0,0,0-1.142-.622,1.211,1.211,0,0,0-1.131.625,3.192,3.192,0,0,0-.359,1.6Zm12.373.52.082.41h.041l1.415-4.7h2.146l-3,8.5a3.915,3.915,0,0,1-.854,1.336,2.192,2.192,0,0,1-1.62.543,2.505,2.505,0,0,1-.468-.041q-.215-.041-.523-.116l.232-1.456.191.027a1.41,1.41,0,0,0,.185.014,1.088,1.088,0,0,0,.759-.243,1.6,1.6,0,0,0,.41-.6l.232-.574-2.625-7.39H150.9Zm12.332,3.1a4.2,4.2,0,0,1-.188-.533,3.708,3.708,0,0,1-.113-.574,2.736,2.736,0,0,1-.813.9,2.039,2.039,0,0,1-1.2.355,2.5,2.5,0,0,1-1.791-.6,2.143,2.143,0,0,1-.629-1.63,1.95,1.95,0,0,1,.837-1.685,4.182,4.182,0,0,1,2.444-.6h1.121v-.588a1.151,1.151,0,0,0-.28-.827,1.1,1.1,0,0,0-.834-.294,1.084,1.084,0,0,0-.749.236.823.823,0,0,0-.263.646H160.1l-.014-.041a1.876,1.876,0,0,1,.817-1.617,3.548,3.548,0,0,1,2.259-.68,3.311,3.311,0,0,1,2.157.67,2.333,2.333,0,0,1,.824,1.921v3.056a5.779,5.779,0,0,0,.079.978,4.905,4.905,0,0,0,.25.909Zm-1.825-1.333a1.7,1.7,0,0,0,.93-.26,1.4,1.4,0,0,0,.561-.6V26.56H163.03a1.329,1.329,0,0,0-.96.314,1.033,1.033,0,0,0-.325.772.771.771,0,0,0,.243.6A.96.96,0,0,0,162.661,28.467Zm7.082,1.333h-2V19.136h2Zm3.493-7.4.082.978a2.485,2.485,0,0,1,.892-.824,2.565,2.565,0,0,1,1.241-.291,2.259,2.259,0,0,1,1.217.314,1.94,1.94,0,0,1,.766.95,2.564,2.564,0,0,1,.889-.93,2.411,2.411,0,0,1,1.285-.335,2.107,2.107,0,0,1,1.726.776,3.7,3.7,0,0,1,.632,2.369V29.8h-2V25.4a2.073,2.073,0,0,0-.273-1.237.971.971,0,0,0-.813-.349,1.393,1.393,0,0,0-.735.188,1.369,1.369,0,0,0-.5.523q0,.13.007.222t.007.188V29.8h-1.989V25.4a2.079,2.079,0,0,0-.273-1.227.966.966,0,0,0-.82-.359,1.548,1.548,0,0,0-.708.154,1.357,1.357,0,0,0-.5.434V29.8h-1.989V22.4Zm14.622,7.4a4.2,4.2,0,0,1-.188-.533,3.708,3.708,0,0,1-.113-.574,2.736,2.736,0,0,1-.813.9,2.039,2.039,0,0,1-1.2.355,2.5,2.5,0,0,1-1.791-.6,2.143,2.143,0,0,1-.629-1.63,1.95,1.95,0,0,1,.837-1.685,4.182,4.182,0,0,1,2.444-.6h1.121v-.588a1.151,1.151,0,0,0-.28-.827,1.1,1.1,0,0,0-.834-.294,1.084,1.084,0,0,0-.749.236.823.823,0,0,0-.263.646h-1.921l-.014-.041a1.876,1.876,0,0,1,.817-1.617,3.548,3.548,0,0,1,2.259-.68,3.311,3.311,0,0,1,2.157.67,2.333,2.333,0,0,1,.824,1.921v3.056a5.779,5.779,0,0,0,.079.978,4.905,4.905,0,0,0,.25.909Zm-1.825-1.333a1.7,1.7,0,0,0,.93-.26,1.4,1.4,0,0,0,.561-.6V26.56H186.4a1.329,1.329,0,0,0-.96.314,1.033,1.033,0,0,0-.325.772.771.771,0,0,0,.243.6A.96.96,0,0,0,186.033,28.467Zm8.073-.055a1.111,1.111,0,0,0,.827-.311,1.129,1.129,0,0,0,.308-.831h1.818l.014.041a2.315,2.315,0,0,1-.834,1.876,3.119,3.119,0,0,1-2.133.755,3.152,3.152,0,0,1-2.536-1.049,3.988,3.988,0,0,1-.9-2.683v-.205a4.014,4.014,0,0,1,.892-2.683,3.124,3.124,0,0,1,2.526-1.056,3.05,3.05,0,0,1,2.181.779,2.6,2.6,0,0,1,.8,2.051l-.014.041h-1.818a1.476,1.476,0,0,0-.3-.954,1.022,1.022,0,0,0-.844-.379,1.139,1.139,0,0,0-1.1.619,3.393,3.393,0,0,0-.325,1.583v.205A3.38,3.38,0,0,0,193,27.8,1.155,1.155,0,0,0,194.106,28.412Zm7.335,1.531a3.328,3.328,0,0,1-2.584-1.015,3.721,3.721,0,0,1-.93-2.615V26.04a4.05,4.05,0,0,1,.9-2.721,3.068,3.068,0,0,1,2.481-1.053,2.872,2.872,0,0,1,2.287.913,3.607,3.607,0,0,1,.8,2.458v1.032h-4.409l-.021.041a2,2,0,0,0,.461,1.23,1.545,1.545,0,0,0,1.227.472,4.106,4.106,0,0,0,1.138-.137,4.644,4.644,0,0,0,.967-.417l.54,1.23a3.7,3.7,0,0,1-1.2.608A5.336,5.336,0,0,1,201.441,29.944Zm-.13-6.139a1.109,1.109,0,0,0-.926.414,2.075,2.075,0,0,0-.393,1.1l.014.034h2.434V25.2a1.728,1.728,0,0,0-.267-1.022A.986.986,0,0,0,201.312,23.8Zm6.07-1.4.089,1.06a2.705,2.705,0,0,1,.909-.882,2.36,2.36,0,0,1,1.21-.314,2.2,2.2,0,0,1,1.75.721,3.419,3.419,0,0,1,.629,2.28V29.8h-2V25.275a1.771,1.771,0,0,0-.277-1.125,1.02,1.02,0,0,0-.831-.332,1.743,1.743,0,0,0-.783.167,1.528,1.528,0,0,0-.557.461V29.8h-2V22.4Zm10.438,7.4a4.2,4.2,0,0,1-.188-.533,3.708,3.708,0,0,1-.113-.574,2.736,2.736,0,0,1-.813.9,2.039,2.039,0,0,1-1.2.355,2.5,2.5,0,0,1-1.791-.6,2.143,2.143,0,0,1-.629-1.63,1.95,1.95,0,0,1,.837-1.685,4.182,4.182,0,0,1,2.444-.6h1.121v-.588a1.151,1.151,0,0,0-.28-.827,1.1,1.1,0,0,0-.834-.294,1.084,1.084,0,0,0-.749.236.823.823,0,0,0-.263.646h-1.921l-.014-.041a1.876,1.876,0,0,1,.817-1.617,3.548,3.548,0,0,1,2.259-.68,3.311,3.311,0,0,1,2.157.67,2.333,2.333,0,0,1,.824,1.921v3.056a5.779,5.779,0,0,0,.079.978,4.905,4.905,0,0,0,.25.909ZM216,28.467a1.7,1.7,0,0,0,.93-.26,1.4,1.4,0,0,0,.561-.6V26.56h-1.121a1.329,1.329,0,0,0-.96.314,1.033,1.033,0,0,0-.325.772.771.771,0,0,0,.243.6A.96.96,0,0,0,216,28.467Zm6.836-6.063.082.978a2.485,2.485,0,0,1,.892-.824,2.565,2.565,0,0,1,1.241-.291,2.259,2.259,0,0,1,1.217.314,1.94,1.94,0,0,1,.766.95,2.564,2.564,0,0,1,.889-.93,2.411,2.411,0,0,1,1.285-.335,2.107,2.107,0,0,1,1.726.776,3.7,3.7,0,0,1,.632,2.369V29.8h-2V25.4a2.073,2.073,0,0,0-.273-1.237.971.971,0,0,0-.813-.349,1.393,1.393,0,0,0-.735.188,1.369,1.369,0,0,0-.5.523q0,.13.007.222t.007.188V29.8h-1.989V25.4A2.079,2.079,0,0,0,225,24.177a.966.966,0,0,0-.82-.359,1.548,1.548,0,0,0-.708.154,1.357,1.357,0,0,0-.5.434V29.8h-1.989V22.4Zm12.359,7.4h-2V22.4h2Zm0-9.167h-2v-1.5h2Zm4.847,9.311a3.328,3.328,0,0,1-2.584-1.015,3.721,3.721,0,0,1-.93-2.615V26.04a4.05,4.05,0,0,1,.9-2.721,3.068,3.068,0,0,1,2.481-1.053,2.872,2.872,0,0,1,2.287.913,3.607,3.607,0,0,1,.8,2.458v1.032h-4.409l-.021.041a2,2,0,0,0,.461,1.23,1.545,1.545,0,0,0,1.227.472,4.106,4.106,0,0,0,1.138-.137,4.644,4.644,0,0,0,.967-.417l.54,1.23a3.7,3.7,0,0,1-1.2.608A5.336,5.336,0,0,1,240.037,29.944Zm-.13-6.139a1.109,1.109,0,0,0-.926.414,2.075,2.075,0,0,0-.393,1.1l.014.034h2.434V25.2a1.728,1.728,0,0,0-.267-1.022A.986.986,0,0,0,239.907,23.8Zm6.07-1.4.089,1.06a2.705,2.705,0,0,1,.909-.882,2.36,2.36,0,0,1,1.21-.314,2.2,2.2,0,0,1,1.75.721,3.419,3.419,0,0,1,.629,2.28V29.8h-2V25.275a1.771,1.771,0,0,0-.277-1.125,1.02,1.02,0,0,0-.831-.332,1.743,1.743,0,0,0-.783.167,1.528,1.528,0,0,0-.557.461V29.8h-2V22.4Zm8.47-1.812V22.4H255.7v1.4h-1.251v3.767a.859.859,0,0,0,.181.615.636.636,0,0,0,.475.185,1.906,1.906,0,0,0,.273-.017,2.3,2.3,0,0,0,.267-.058l.164,1.442a4.041,4.041,0,0,1-.584.154,3.484,3.484,0,0,1-.619.051,2.127,2.127,0,0,1-1.589-.567,2.488,2.488,0,0,1-.557-1.8V23.8h-1.08V22.4h1.08V20.592Zm2.174,5.441a3.969,3.969,0,0,1,.923-2.71,3.217,3.217,0,0,1,2.557-1.056,3.251,3.251,0,0,1,2.57,1.053,3.948,3.948,0,0,1,.93,2.714v.144a3.954,3.954,0,0,1-.926,2.717,3.656,3.656,0,0,1-5.127,0,3.954,3.954,0,0,1-.926-2.717Zm1.989.144a3.218,3.218,0,0,0,.355,1.624,1.366,1.366,0,0,0,2.28,0,3.2,3.2,0,0,0,.359-1.62v-.144a3.164,3.164,0,0,0-.362-1.606A1.226,1.226,0,0,0,260.1,23.8a1.211,1.211,0,0,0-1.131.625,3.192,3.192,0,0,0-.359,1.6Zm9.4-.014a4.806,4.806,0,0,1,.755-2.823,2.453,2.453,0,0,1,2.129-1.073,2.071,2.071,0,0,1,1,.239,2.4,2.4,0,0,1,.779.684V19.136h2V29.8h-1.7l-.171-.909a2.473,2.473,0,0,1-.827.783,2.187,2.187,0,0,1-1.094.27,2.5,2.5,0,0,1-2.116-1,4.262,4.262,0,0,1-.755-2.639Zm1.989.144a3.013,3.013,0,0,0,.328,1.528,1.142,1.142,0,0,0,1.066.557,1.553,1.553,0,0,0,.752-.174,1.391,1.391,0,0,0,.526-.509V24.557a1.536,1.536,0,0,0-.523-.543,1.391,1.391,0,0,0-.742-.195,1.127,1.127,0,0,0-1.07.649,3.67,3.67,0,0,0-.338,1.7Zm9.427,3.637a3.328,3.328,0,0,1-2.584-1.015,3.721,3.721,0,0,1-.93-2.615V26.04a4.05,4.05,0,0,1,.9-2.721,3.068,3.068,0,0,1,2.481-1.053,2.872,2.872,0,0,1,2.287.913,3.607,3.607,0,0,1,.8,2.458v1.032H277.97l-.021.041a2,2,0,0,0,.461,1.23,1.545,1.545,0,0,0,1.227.472,4.106,4.106,0,0,0,1.138-.137,4.644,4.644,0,0,0,.967-.417l.54,1.23a3.705,3.705,0,0,1-1.2.608A5.336,5.336,0,0,1,279.426,29.944ZM279.3,23.8a1.109,1.109,0,0,0-.926.414,2.075,2.075,0,0,0-.393,1.1l.014.034h2.434V25.2a1.728,1.728,0,0,0-.267-1.022A.986.986,0,0,0,279.3,23.8ZM4.655,40.919,3.924,40.9a1.329,1.329,0,0,0-.731.185,1.17,1.17,0,0,0-.437.52v5H.766V39.2H2.618L2.707,40.3a2.333,2.333,0,0,1,.673-.906,1.573,1.573,0,0,1,1.23-.3q.126.024.256.058Zm4.115,5.824a3.328,3.328,0,0,1-2.584-1.015,3.721,3.721,0,0,1-.93-2.615V42.84a4.05,4.05,0,0,1,.9-2.721,3.068,3.068,0,0,1,2.481-1.053,2.872,2.872,0,0,1,2.287.913,3.607,3.607,0,0,1,.8,2.458v1.032H7.314l-.021.041a2,2,0,0,0,.461,1.23,1.545,1.545,0,0,0,1.227.472,4.106,4.106,0,0,0,1.138-.137,4.644,4.644,0,0,0,.967-.417l.54,1.23a3.705,3.705,0,0,1-1.2.608A5.336,5.336,0,0,1,8.771,46.744ZM8.641,40.6a1.109,1.109,0,0,0-.926.414,2.075,2.075,0,0,0-.393,1.1l.014.034H9.769V42A1.728,1.728,0,0,0,9.5,40.977.986.986,0,0,0,8.641,40.6Zm8.244,3.944a.689.689,0,0,0-.318-.564,3.229,3.229,0,0,0-1.179-.414,4.7,4.7,0,0,1-1.972-.786,1.717,1.717,0,0,1-.673-1.429,2.038,2.038,0,0,1,.807-1.62,3.252,3.252,0,0,1,2.146-.67,3.51,3.51,0,0,1,2.246.67,1.957,1.957,0,0,1,.81,1.668l-.014.041H16.81a.968.968,0,0,0-.287-.725,1.342,1.342,0,0,0-1.586-.041.744.744,0,0,0-.28.588.664.664,0,0,0,.291.557,3.234,3.234,0,0,0,1.179.386,4.8,4.8,0,0,1,2.027.8,1.762,1.762,0,0,1,.667,1.459,1.952,1.952,0,0,1-.854,1.634,3.688,3.688,0,0,1-2.256.636A3.429,3.429,0,0,1,13.375,46a2.093,2.093,0,0,1-.817-1.706l.014-.041H14.4a1.037,1.037,0,0,0,.39.861,1.609,1.609,0,0,0,.964.267,1.371,1.371,0,0,0,.844-.222A.721.721,0,0,0,16.885,44.549ZM22.2,46.6h-2V39.2h2Zm0-9.167h-2v-1.5h2Zm1.333,5.53a4.806,4.806,0,0,1,.755-2.823,2.453,2.453,0,0,1,2.129-1.073,2.071,2.071,0,0,1,1,.239,2.4,2.4,0,0,1,.779.684V35.936h2V46.6H28.5l-.171-.909a2.473,2.473,0,0,1-.827.783,2.187,2.187,0,0,1-1.094.27,2.5,2.5,0,0,1-2.116-1,4.262,4.262,0,0,1-.755-2.639Zm1.989.144a3.013,3.013,0,0,0,.328,1.528,1.142,1.142,0,0,0,1.066.557,1.553,1.553,0,0,0,.752-.174,1.391,1.391,0,0,0,.526-.509V41.357a1.536,1.536,0,0,0-.523-.543,1.391,1.391,0,0,0-.742-.195,1.127,1.127,0,0,0-1.07.649,3.67,3.67,0,0,0-.338,1.7Zm10.753,2.4a2.511,2.511,0,0,1-.868.916,2.3,2.3,0,0,1-1.224.321,2.249,2.249,0,0,1-1.829-.793,3.8,3.8,0,0,1-.66-2.461V39.2h1.989v4.3a2.388,2.388,0,0,0,.263,1.33.946.946,0,0,0,.817.359,1.989,1.989,0,0,0,.82-.154,1.383,1.383,0,0,0,.561-.455V39.2h2v7.4H36.49Zm3.063-2.673a3.969,3.969,0,0,1,.923-2.71,3.217,3.217,0,0,1,2.557-1.056,3.251,3.251,0,0,1,2.57,1.053,3.948,3.948,0,0,1,.93,2.714v.144a3.954,3.954,0,0,1-.926,2.717,3.656,3.656,0,0,1-5.127,0,3.954,3.954,0,0,1-.926-2.717Zm1.989.144a3.218,3.218,0,0,0,.355,1.624,1.366,1.366,0,0,0,2.28,0,3.2,3.2,0,0,0,.359-1.62v-.144a3.164,3.164,0,0,0-.362-1.606A1.226,1.226,0,0,0,42.82,40.6a1.211,1.211,0,0,0-1.131.625,3.192,3.192,0,0,0-.359,1.6Zm10.22,1.572a.689.689,0,0,0-.318-.564,3.229,3.229,0,0,0-1.179-.414,4.7,4.7,0,0,1-1.972-.786,1.717,1.717,0,0,1-.673-1.429,2.038,2.038,0,0,1,.807-1.62,3.252,3.252,0,0,1,2.146-.67,3.51,3.51,0,0,1,2.246.67,1.957,1.957,0,0,1,.81,1.668l-.014.041H51.475a.968.968,0,0,0-.287-.725A1.342,1.342,0,0,0,49.6,40.68a.744.744,0,0,0-.28.588.664.664,0,0,0,.291.557,3.234,3.234,0,0,0,1.179.386,4.8,4.8,0,0,1,2.027.8,1.762,1.762,0,0,1,.667,1.459,1.952,1.952,0,0,1-.854,1.634,3.688,3.688,0,0,1-2.256.636A3.429,3.429,0,0,1,48.04,46a2.093,2.093,0,0,1-.817-1.706l.014-.041h1.825a1.037,1.037,0,0,0,.39.861,1.609,1.609,0,0,0,.964.267,1.371,1.371,0,0,0,.844-.222A.721.721,0,0,0,51.55,44.549Zm10.705,0a.689.689,0,0,0-.318-.564,3.229,3.229,0,0,0-1.179-.414,4.7,4.7,0,0,1-1.972-.786,1.717,1.717,0,0,1-.673-1.429,2.038,2.038,0,0,1,.807-1.62,3.252,3.252,0,0,1,2.146-.67,3.51,3.51,0,0,1,2.246.67,1.957,1.957,0,0,1,.81,1.668l-.014.041H62.18a.968.968,0,0,0-.287-.725,1.342,1.342,0,0,0-1.586-.041.744.744,0,0,0-.28.588.664.664,0,0,0,.291.557,3.234,3.234,0,0,0,1.179.386,4.8,4.8,0,0,1,2.027.8,1.762,1.762,0,0,1,.667,1.459,1.952,1.952,0,0,1-.854,1.634,3.688,3.688,0,0,1-2.256.636A3.429,3.429,0,0,1,58.745,46a2.093,2.093,0,0,1-.817-1.706l.014-.041h1.825a1.037,1.037,0,0,0,.39.861,1.609,1.609,0,0,0,.964.267,1.371,1.371,0,0,0,.844-.222A.721.721,0,0,0,62.255,44.549Zm2.912-1.716a3.969,3.969,0,0,1,.923-2.71,3.217,3.217,0,0,1,2.557-1.056,3.251,3.251,0,0,1,2.57,1.053,3.948,3.948,0,0,1,.93,2.714v.144a3.954,3.954,0,0,1-.926,2.717,3.656,3.656,0,0,1-5.127,0,3.954,3.954,0,0,1-.926-2.717Zm1.989.144a3.218,3.218,0,0,0,.355,1.624,1.366,1.366,0,0,0,2.28,0,3.2,3.2,0,0,0,.359-1.62v-.144a3.164,3.164,0,0,0-.362-1.606,1.226,1.226,0,0,0-1.142-.622,1.211,1.211,0,0,0-1.131.625,3.192,3.192,0,0,0-.359,1.6Zm1.894-6.932h2.222l.014.041-1.894,1.777h-1.7ZM75.476,46.6h-2V35.936h2Zm3.739,0h-2V39.2h2Zm0-9.167h-2v-1.5h2Zm1.333,5.53A4.806,4.806,0,0,1,81.3,40.14a2.453,2.453,0,0,1,2.129-1.073,2.071,2.071,0,0,1,1,.239,2.4,2.4,0,0,1,.779.684V35.936h2V46.6h-1.7l-.171-.909a2.473,2.473,0,0,1-.827.783,2.187,2.187,0,0,1-1.094.27,2.5,2.5,0,0,1-2.116-1,4.262,4.262,0,0,1-.755-2.639Zm1.989.144a3.013,3.013,0,0,0,.328,1.528,1.142,1.142,0,0,0,1.066.557,1.553,1.553,0,0,0,.752-.174,1.391,1.391,0,0,0,.526-.509V41.357a1.536,1.536,0,0,0-.523-.543,1.391,1.391,0,0,0-.742-.195,1.127,1.127,0,0,0-1.07.649,3.67,3.67,0,0,0-.338,1.7Zm5.913-.273a3.969,3.969,0,0,1,.923-2.71,3.217,3.217,0,0,1,2.557-1.056A3.251,3.251,0,0,1,94.5,40.12a3.948,3.948,0,0,1,.93,2.714v.144a3.954,3.954,0,0,1-.926,2.717,3.656,3.656,0,0,1-5.127,0,3.954,3.954,0,0,1-.926-2.717Zm1.989.144a3.218,3.218,0,0,0,.355,1.624,1.366,1.366,0,0,0,2.28,0,3.2,3.2,0,0,0,.359-1.62v-.144a3.164,3.164,0,0,0-.362-1.606A1.226,1.226,0,0,0,91.93,40.6a1.211,1.211,0,0,0-1.131.625,3.192,3.192,0,0,0-.359,1.6Zm10.22,1.572a.689.689,0,0,0-.318-.564,3.229,3.229,0,0,0-1.179-.414,4.7,4.7,0,0,1-1.972-.786,1.717,1.717,0,0,1-.673-1.429,2.038,2.038,0,0,1,.807-1.62,3.252,3.252,0,0,1,2.146-.67,3.51,3.51,0,0,1,2.246.67,1.957,1.957,0,0,1,.81,1.668l-.014.041h-1.928a.968.968,0,0,0-.287-.725,1.342,1.342,0,0,0-1.586-.041.744.744,0,0,0-.28.588.664.664,0,0,0,.291.557,3.234,3.234,0,0,0,1.179.386,4.8,4.8,0,0,1,2.027.8,1.762,1.762,0,0,1,.667,1.459,1.952,1.952,0,0,1-.854,1.634,3.688,3.688,0,0,1-2.256.636A3.429,3.429,0,0,1,97.149,46a2.093,2.093,0,0,1-.817-1.706l.014-.041h1.825a1.037,1.037,0,0,0,.39.861,1.609,1.609,0,0,0,.964.267,1.371,1.371,0,0,0,.844-.222A.721.721,0,0,0,100.659,44.549Zm6.4-1.586a4.806,4.806,0,0,1,.755-2.823,2.453,2.453,0,0,1,2.129-1.073,2.071,2.071,0,0,1,1,.239,2.4,2.4,0,0,1,.779.684V35.936h2V46.6h-1.7l-.171-.909a2.473,2.473,0,0,1-.827.783,2.187,2.187,0,0,1-1.094.27,2.5,2.5,0,0,1-2.116-1,4.262,4.262,0,0,1-.755-2.639Zm1.989.144a3.013,3.013,0,0,0,.328,1.528,1.142,1.142,0,0,0,1.066.557,1.553,1.553,0,0,0,.752-.174,1.391,1.391,0,0,0,.526-.509V41.357a1.536,1.536,0,0,0-.523-.543,1.391,1.391,0,0,0-.742-.195,1.127,1.127,0,0,0-1.07.649,3.67,3.67,0,0,0-.338,1.7Zm10.753,2.4a2.511,2.511,0,0,1-.868.916,2.3,2.3,0,0,1-1.224.321,2.249,2.249,0,0,1-1.829-.793,3.8,3.8,0,0,1-.66-2.461V39.2h1.989v4.3a2.388,2.388,0,0,0,.263,1.33.946.946,0,0,0,.817.359,1.989,1.989,0,0,0,.82-.154,1.383,1.383,0,0,0,.561-.455V39.2h2v7.4h-1.654Zm7.26-4.587-.731-.021a1.329,1.329,0,0,0-.731.185,1.17,1.17,0,0,0-.437.52v5H123.17V39.2h1.853l.089,1.094a2.333,2.333,0,0,1,.673-.906,1.573,1.573,0,0,1,1.23-.3q.126.024.256.058Zm5.4,5.681a4.2,4.2,0,0,1-.188-.533,3.708,3.708,0,0,1-.113-.574,2.736,2.736,0,0,1-.813.9,2.039,2.039,0,0,1-1.2.355,2.5,2.5,0,0,1-1.791-.6,2.143,2.143,0,0,1-.629-1.63,1.95,1.95,0,0,1,.837-1.685,4.182,4.182,0,0,1,2.444-.6h1.121v-.588a1.151,1.151,0,0,0-.28-.827,1.1,1.1,0,0,0-.834-.294,1.084,1.084,0,0,0-.749.236A.823.823,0,0,0,130,41.4h-1.921l-.014-.041a1.876,1.876,0,0,1,.817-1.617,3.548,3.548,0,0,1,2.259-.68,3.311,3.311,0,0,1,2.157.67,2.333,2.333,0,0,1,.824,1.921v3.056a5.779,5.779,0,0,0,.079.978,4.905,4.905,0,0,0,.25.909Zm-1.825-1.333a1.7,1.7,0,0,0,.93-.26,1.4,1.4,0,0,0,.561-.6V43.36H131a1.329,1.329,0,0,0-.96.314,1.033,1.033,0,0,0-.325.772.771.771,0,0,0,.243.6A.96.96,0,0,0,130.635,45.267Zm6.809-6.063.089,1.06a2.705,2.705,0,0,1,.909-.882,2.36,2.36,0,0,1,1.21-.314,2.2,2.2,0,0,1,1.75.721,3.419,3.419,0,0,1,.629,2.28V46.6h-2V42.075a1.771,1.771,0,0,0-.277-1.125,1.02,1.02,0,0,0-.831-.332,1.743,1.743,0,0,0-.783.167,1.528,1.528,0,0,0-.557.461V46.6h-2V39.2Zm8.47-1.812V39.2h1.251v1.4h-1.251v3.767a.859.859,0,0,0,.181.615.636.636,0,0,0,.475.185,1.905,1.905,0,0,0,.273-.017,2.3,2.3,0,0,0,.267-.058l.164,1.442a4.041,4.041,0,0,1-.584.154,3.484,3.484,0,0,1-.619.051,2.127,2.127,0,0,1-1.589-.567,2.488,2.488,0,0,1-.557-1.8V40.6h-1.08V39.2h1.08V37.392Zm5.688,9.352a3.328,3.328,0,0,1-2.584-1.015,3.721,3.721,0,0,1-.93-2.615V42.84a4.05,4.05,0,0,1,.9-2.721,3.068,3.068,0,0,1,2.481-1.053,2.872,2.872,0,0,1,2.287.913,3.607,3.607,0,0,1,.8,2.458v1.032h-4.409l-.021.041a2,2,0,0,0,.461,1.23,1.545,1.545,0,0,0,1.227.472,4.106,4.106,0,0,0,1.138-.137,4.644,4.644,0,0,0,.967-.417l.54,1.23a3.7,3.7,0,0,1-1.2.608A5.336,5.336,0,0,1,151.6,46.744Zm-.13-6.139a1.109,1.109,0,0,0-.926.414,2.075,2.075,0,0,0-.393,1.1l.014.034H152.6V42a1.728,1.728,0,0,0-.267-1.022A.986.986,0,0,0,151.471,40.6Zm10.938,6.139a3.328,3.328,0,0,1-2.584-1.015,3.721,3.721,0,0,1-.93-2.615V42.84a4.05,4.05,0,0,1,.9-2.721,3.068,3.068,0,0,1,2.481-1.053,2.872,2.872,0,0,1,2.287.913,3.607,3.607,0,0,1,.8,2.458v1.032h-4.409l-.021.041a2,2,0,0,0,.461,1.23,1.545,1.545,0,0,0,1.227.472,4.106,4.106,0,0,0,1.138-.137,4.644,4.644,0,0,0,.967-.417l.54,1.23a3.7,3.7,0,0,1-1.2.608A5.336,5.336,0,0,1,162.408,46.744Zm-.13-6.139a1.109,1.109,0,0,0-.926.414,2.075,2.075,0,0,0-.393,1.1l.014.034h2.434V42a1.728,1.728,0,0,0-.267-1.022A.986.986,0,0,0,162.278,40.6Zm6.344,6h-2V35.936h2Zm11.8-3.493a4.248,4.248,0,0,1-.759,2.639,2.51,2.51,0,0,1-2.119,1,2.369,2.369,0,0,1-1.032-.215,2.12,2.12,0,0,1-.772-.632v3.548h-1.989V39.2h1.8l.116.875a2.37,2.37,0,0,1,.79-.749,2.136,2.136,0,0,1,1.077-.263,2.462,2.462,0,0,1,2.133,1.073,4.79,4.79,0,0,1,.759,2.823Zm-2-.144a3.578,3.578,0,0,0-.349-1.7,1.137,1.137,0,0,0-1.066-.649,1.507,1.507,0,0,0-.769.185,1.317,1.317,0,0,0-.5.526v3.24a1.224,1.224,0,0,0,.5.479,1.693,1.693,0,0,0,.783.164,1.148,1.148,0,0,0,1.063-.567,3,3,0,0,0,.338-1.538Zm7.116-2.044-.731-.021a1.329,1.329,0,0,0-.731.185,1.17,1.17,0,0,0-.437.52v5h-1.989V39.2H183.5l.089,1.094a2.333,2.333,0,0,1,.673-.906,1.573,1.573,0,0,1,1.23-.3q.126.024.256.058Zm.595,1.914a3.969,3.969,0,0,1,.923-2.71,3.217,3.217,0,0,1,2.557-1.056,3.251,3.251,0,0,1,2.57,1.053,3.948,3.948,0,0,1,.93,2.714v.144a3.954,3.954,0,0,1-.926,2.717,3.656,3.656,0,0,1-5.127,0,3.954,3.954,0,0,1-.926-2.717Zm1.989.144a3.218,3.218,0,0,0,.355,1.624,1.366,1.366,0,0,0,2.28,0,3.2,3.2,0,0,0,.359-1.62v-.144a3.164,3.164,0,0,0-.362-1.606,1.226,1.226,0,0,0-1.142-.622,1.211,1.211,0,0,0-1.131.625,3.192,3.192,0,0,0-.359,1.6Zm9.311,2.235a1.111,1.111,0,0,0,.827-.311,1.129,1.129,0,0,0,.308-.831h1.818l.014.041a2.315,2.315,0,0,1-.834,1.876,3.119,3.119,0,0,1-2.133.755,3.152,3.152,0,0,1-2.536-1.049,3.988,3.988,0,0,1-.9-2.683v-.205a4.014,4.014,0,0,1,.892-2.683,3.124,3.124,0,0,1,2.526-1.056,3.05,3.05,0,0,1,2.181.779,2.6,2.6,0,0,1,.8,2.051l-.014.041H198.57a1.476,1.476,0,0,0-.3-.954,1.022,1.022,0,0,0-.844-.379,1.139,1.139,0,0,0-1.1.619A3.393,3.393,0,0,0,196,42.806v.205a3.38,3.38,0,0,0,.325,1.593A1.155,1.155,0,0,0,197.436,45.212Zm7.335,1.531a3.328,3.328,0,0,1-2.584-1.015,3.721,3.721,0,0,1-.93-2.615V42.84a4.05,4.05,0,0,1,.9-2.721,3.068,3.068,0,0,1,2.481-1.053,2.872,2.872,0,0,1,2.287.913,3.607,3.607,0,0,1,.8,2.458v1.032h-4.409l-.021.041a2,2,0,0,0,.461,1.23,1.545,1.545,0,0,0,1.227.472,4.106,4.106,0,0,0,1.138-.137,4.644,4.644,0,0,0,.967-.417l.54,1.23a3.7,3.7,0,0,1-1.2.608A5.336,5.336,0,0,1,204.771,46.744Zm-.13-6.139a1.109,1.109,0,0,0-.926.414,2.075,2.075,0,0,0-.393,1.1l.014.034h2.434V42a1.728,1.728,0,0,0-.267-1.022A.986.986,0,0,0,204.641,40.6Zm8.244,3.944a.689.689,0,0,0-.318-.564,3.229,3.229,0,0,0-1.179-.414,4.7,4.7,0,0,1-1.972-.786,1.717,1.717,0,0,1-.673-1.429,2.038,2.038,0,0,1,.807-1.62,3.252,3.252,0,0,1,2.146-.67,3.51,3.51,0,0,1,2.246.67,1.957,1.957,0,0,1,.81,1.668l-.014.041H212.81a.968.968,0,0,0-.287-.725,1.342,1.342,0,0,0-1.586-.041.744.744,0,0,0-.28.588.664.664,0,0,0,.291.557,3.234,3.234,0,0,0,1.179.386,4.8,4.8,0,0,1,2.027.8,1.762,1.762,0,0,1,.667,1.459,1.952,1.952,0,0,1-.854,1.634,3.688,3.688,0,0,1-2.256.636A3.429,3.429,0,0,1,209.375,46a2.093,2.093,0,0,1-.817-1.706l.014-.041H210.4a1.037,1.037,0,0,0,.39.861,1.609,1.609,0,0,0,.964.267,1.371,1.371,0,0,0,.844-.222A.721.721,0,0,0,212.885,44.549Zm2.912-1.716a3.969,3.969,0,0,1,.923-2.71,3.217,3.217,0,0,1,2.557-1.056,3.251,3.251,0,0,1,2.57,1.053,3.948,3.948,0,0,1,.93,2.714v.144a3.954,3.954,0,0,1-.926,2.717,3.656,3.656,0,0,1-5.127,0,3.954,3.954,0,0,1-.926-2.717Zm1.989.144a3.218,3.218,0,0,0,.355,1.624,1.366,1.366,0,0,0,2.28,0,3.2,3.2,0,0,0,.359-1.62v-.144a3.164,3.164,0,0,0-.362-1.606,1.226,1.226,0,0,0-1.142-.622,1.211,1.211,0,0,0-1.131.625,3.192,3.192,0,0,0-.359,1.6Zm8.436,3.623h-2V44.85h2Z" transform="translate(-1665.675 -4248)" fill="#0c1d30"/>
              </g>
            </g>
          </g>
        </g>
      </g>
    </g>
  </g>
</svg>
