<svg xmlns="http://www.w3.org/2000/svg" xmlns:xlink="http://www.w3.org/1999/xlink" width="716.747" height="329.485" viewBox="0 0 716.747 329.485">
  <defs>
    <clipPath id="clip-path">
      <rect id="Rectángulo_41636" data-name="Rectángulo 41636" width="716.747" height="329.485" fill="none" stroke="#000" stroke-width="1"/>
    </clipPath>
  </defs>
  <g id="Grupo_144008" data-name="Grupo 144008" transform="translate(6333.247 14262.855)">
    <path id="Trazado_204364" data-name="Trazado 204364" d="M0,0H715V154.78H0Z" transform="translate(-6332.373 -14175.512)" fill="#fff" stroke="#000" stroke-width="1"/>
    <g id="Grupo_142781" data-name="Grupo 142781" transform="translate(-6333.247 -14262.855)" clip-path="url(#clip-path)">
      <rect id="Rectángulo_41635" data-name="Rectángulo 41635" width="715" height="154.781" transform="translate(0.874 87.343)" fill="none" stroke="#000" stroke-width="1.747"/>
    </g>
    <path id="Trazado_204365" data-name="Trazado 204365" d="M0,0H238.306V86.488H0Z" transform="translate(-6332.289 -14261.981)" fill="#fff" stroke="#000" stroke-width="1"/>
    <g id="Grupo_142783" data-name="Grupo 142783" transform="translate(-6333.247 -14262.855)" clip-path="url(#clip-path)">
      <rect id="Rectángulo_41638" data-name="Rectángulo 41638" width="238.305" height="86.487" transform="translate(0.958 0.874)" fill="none" stroke="#000" stroke-width="1.747"/>
    </g>
    <path id="Trazado_204366" data-name="Trazado 204366" d="M0,0H238.3V86.487H0Z" transform="translate(-6093.984 -14261.981)" fill="#fff" stroke="#000" stroke-width="1"/>
    <g id="Grupo_142785" data-name="Grupo 142785" transform="translate(-6333.247 -14262.855)" clip-path="url(#clip-path)">
      <rect id="Rectángulo_41641" data-name="Rectángulo 41641" width="238.305" height="86.487" transform="translate(239.263 0.874)" fill="none" stroke="#000" stroke-width="1.747"/>
    </g>
    <path id="Trazado_204367" data-name="Trazado 204367" d="M0,0H238.3V86.487H0Z" transform="translate(-5855.679 -14261.981)" fill="#fff" stroke="#000" stroke-width="1"/>
    <g id="Grupo_142787" data-name="Grupo 142787" transform="translate(-6333.247 -14262.855)" clip-path="url(#clip-path)">
      <rect id="Rectángulo_41644" data-name="Rectángulo 41644" width="238.305" height="86.487" transform="translate(477.568 0.874)" fill="none" stroke="#000" stroke-width="1.747"/>
    </g>
    <path id="Trazado_204368" data-name="Trazado 204368" d="M2.907-3.6V0H.915V-9.937h3.8a3.914,3.914,0,0,1,2.7.874,2.929,2.929,0,0,1,.983,2.3A2.908,2.908,0,0,1,7.412-4.47a3.934,3.934,0,0,1-2.7.867Zm0-1.536H4.716a1.658,1.658,0,0,0,1.263-.454,1.614,1.614,0,0,0,.43-1.157,1.689,1.689,0,0,0-.427-1.184A1.629,1.629,0,0,0,4.716-8.4H2.907ZM11.766,0H9.774V-10.647h1.993Zm5.992,0a4.192,4.192,0,0,1-.188-.532,3.7,3.7,0,0,1-.113-.573,2.732,2.732,0,0,1-.812.894,2.036,2.036,0,0,1-1.2.355,2.494,2.494,0,0,1-1.788-.6,2.14,2.14,0,0,1-.628-1.628,1.947,1.947,0,0,1,.836-1.682,4.175,4.175,0,0,1,2.44-.6h1.119v-.587a1.149,1.149,0,0,0-.28-.826,1.1,1.1,0,0,0-.833-.293,1.083,1.083,0,0,0-.747.235.822.822,0,0,0-.263.645H13.384l-.014-.041a1.873,1.873,0,0,1,.816-1.614,3.543,3.543,0,0,1,2.256-.679,3.306,3.306,0,0,1,2.153.669,2.33,2.33,0,0,1,.822,1.918v3.051a5.77,5.77,0,0,0,.078.976A4.9,4.9,0,0,0,19.745,0ZM15.937-1.331a1.7,1.7,0,0,0,.928-.259,1.4,1.4,0,0,0,.56-.6V-3.235H16.305a1.327,1.327,0,0,0-.959.314,1.032,1.032,0,0,0-.324.771.77.77,0,0,0,.242.6A.959.959,0,0,0,15.937-1.331Zm6.8-6.054.089,1.058a2.7,2.7,0,0,1,.908-.88,2.356,2.356,0,0,1,1.208-.314,2.2,2.2,0,0,1,1.747.72,3.414,3.414,0,0,1,.628,2.276V0h-2V-4.518a1.768,1.768,0,0,0-.276-1.123,1.019,1.019,0,0,0-.829-.331,1.74,1.74,0,0,0-.781.167,1.526,1.526,0,0,0-.556.461V0H20.878V-7.385Zm8.456-1.809v1.809H32.44v1.4H31.191v3.761a.858.858,0,0,0,.181.614.635.635,0,0,0,.474.184,1.9,1.9,0,0,0,.273-.017,2.3,2.3,0,0,0,.266-.058l.164,1.44a4.034,4.034,0,0,1-.584.154,3.479,3.479,0,0,1-.618.051,2.124,2.124,0,0,1-1.587-.566,2.484,2.484,0,0,1-.556-1.8V-5.986H28.126v-1.4H29.2V-9.193ZM38.023,0a4.191,4.191,0,0,1-.188-.532,3.7,3.7,0,0,1-.113-.573,2.732,2.732,0,0,1-.812.894,2.036,2.036,0,0,1-1.2.355,2.494,2.494,0,0,1-1.788-.6,2.14,2.14,0,0,1-.628-1.628,1.947,1.947,0,0,1,.836-1.682,4.175,4.175,0,0,1,2.44-.6h1.119v-.587a1.149,1.149,0,0,0-.28-.826,1.1,1.1,0,0,0-.833-.293,1.083,1.083,0,0,0-.747.235.822.822,0,0,0-.263.645H33.648l-.014-.041a1.873,1.873,0,0,1,.816-1.614,3.543,3.543,0,0,1,2.256-.679,3.306,3.306,0,0,1,2.153.669,2.33,2.33,0,0,1,.822,1.918v3.051a5.77,5.77,0,0,0,.078.976A4.9,4.9,0,0,0,40.009,0ZM36.2-1.331a1.7,1.7,0,0,0,.928-.259,1.4,1.4,0,0,0,.56-.6V-3.235H36.569a1.327,1.327,0,0,0-.959.314,1.032,1.032,0,0,0-.324.771.77.77,0,0,0,.242.6A.959.959,0,0,0,36.2-1.331Zm8.149-2.3A4.8,4.8,0,0,1,45.1-6.45,2.449,2.449,0,0,1,47.23-7.521a2.068,2.068,0,0,1,1,.239A2.4,2.4,0,0,1,49-6.6v-4.047h2V0H49.3l-.171-.908a2.469,2.469,0,0,1-.826.781,2.183,2.183,0,0,1-1.092.27,2.5,2.5,0,0,1-2.112-1,4.255,4.255,0,0,1-.754-2.634Zm1.986.143a3.008,3.008,0,0,0,.328,1.525,1.141,1.141,0,0,0,1.065.556,1.551,1.551,0,0,0,.751-.174A1.388,1.388,0,0,0,49-2.088V-5.235a1.534,1.534,0,0,0-.522-.543,1.389,1.389,0,0,0-.741-.195,1.125,1.125,0,0,0-1.068.648,3.664,3.664,0,0,0-.338,1.693ZM55.747.143A3.323,3.323,0,0,1,53.168-.87a3.715,3.715,0,0,1-.928-2.611v-.273a4.043,4.043,0,0,1,.9-2.716,3.063,3.063,0,0,1,2.478-1.051A2.867,2.867,0,0,1,57.9-6.61a3.6,3.6,0,0,1,.8,2.454v1.031h-4.4l-.02.041a2,2,0,0,0,.461,1.229,1.543,1.543,0,0,0,1.225.471A4.1,4.1,0,0,0,57.1-1.522a4.637,4.637,0,0,0,.966-.416L58.6-.71A3.7,3.7,0,0,1,57.4-.1,5.327,5.327,0,0,1,55.747.143Zm-.13-6.129a1.107,1.107,0,0,0-.925.413,2.071,2.071,0,0,0-.392,1.1l.014.034h2.43v-.15a1.725,1.725,0,0,0-.266-1.02A.985.985,0,0,0,55.618-5.986ZM70-3.488a4.241,4.241,0,0,1-.758,2.634,2.506,2.506,0,0,1-2.116,1,2.365,2.365,0,0,1-1.031-.215A2.117,2.117,0,0,1,65.323-.7V2.839H63.337V-7.385h1.8l.116.874a2.366,2.366,0,0,1,.788-.747,2.132,2.132,0,0,1,1.075-.263A2.458,2.458,0,0,1,69.241-6.45,4.783,4.783,0,0,1,70-3.631Zm-1.993-.143a3.573,3.573,0,0,0-.348-1.693,1.135,1.135,0,0,0-1.065-.648,1.5,1.5,0,0,0-.768.184,1.315,1.315,0,0,0-.5.526v3.235a1.222,1.222,0,0,0,.5.478,1.69,1.69,0,0,0,.781.164,1.146,1.146,0,0,0,1.061-.566,2.99,2.99,0,0,0,.338-1.536Zm7.1-2.041-.73-.02a1.327,1.327,0,0,0-.73.184,1.168,1.168,0,0,0-.437.519V0H71.227V-7.385h1.85l.089,1.092a2.33,2.33,0,0,1,.672-.9,1.5,1.5,0,0,1,.952-.324,1.49,1.49,0,0,1,.276.024q.126.024.256.058Zm.356,1.911a3.963,3.963,0,0,1,.921-2.706A3.212,3.212,0,0,1,78.94-7.521,3.246,3.246,0,0,1,81.507-6.47a3.942,3.942,0,0,1,.928,2.71v.143A3.948,3.948,0,0,1,81.51-.9,3.232,3.232,0,0,1,78.954.143,3.241,3.241,0,0,1,76.391-.9a3.948,3.948,0,0,1-.925-2.713Zm1.986.143A3.213,3.213,0,0,0,77.807-2a1.225,1.225,0,0,0,1.147.611A1.213,1.213,0,0,0,80.084-2a3.191,3.191,0,0,0,.358-1.618v-.143a3.159,3.159,0,0,0-.362-1.6,1.224,1.224,0,0,0-1.14-.621,1.209,1.209,0,0,0-1.13.624,3.187,3.187,0,0,0-.358,1.6Zm5.9-.014A4.8,4.8,0,0,1,84.11-6.45a2.449,2.449,0,0,1,2.126-1.072,2.068,2.068,0,0,1,1,.239,2.4,2.4,0,0,1,.778.683v-4.047h2V0h-1.7l-.171-.908a2.469,2.469,0,0,1-.826.781,2.183,2.183,0,0,1-1.092.27,2.5,2.5,0,0,1-2.112-1,4.255,4.255,0,0,1-.754-2.634Zm1.986.143a3.008,3.008,0,0,0,.328,1.525,1.141,1.141,0,0,0,1.065.556,1.551,1.551,0,0,0,.751-.174,1.389,1.389,0,0,0,.526-.508V-5.235a1.534,1.534,0,0,0-.522-.543,1.388,1.388,0,0,0-.741-.195,1.125,1.125,0,0,0-1.068.648,3.664,3.664,0,0,0-.338,1.693Zm10.736,2.4a2.507,2.507,0,0,1-.867.915A2.3,2.3,0,0,1,93.99.143a2.245,2.245,0,0,1-1.826-.792,3.8,3.8,0,0,1-.659-2.457V-7.385h1.986v4.293a2.384,2.384,0,0,0,.263,1.327.944.944,0,0,0,.816.358,1.986,1.986,0,0,0,.819-.154,1.381,1.381,0,0,0,.56-.454V-7.385h1.993V0H96.29Zm6.45-.293a1.109,1.109,0,0,0,.826-.311,1.128,1.128,0,0,0,.307-.829h1.815l.014.041a2.311,2.311,0,0,1-.833,1.873,3.114,3.114,0,0,1-2.129.754A3.147,3.147,0,0,1,100-.9,3.982,3.982,0,0,1,99.1-3.583v-.2a4.008,4.008,0,0,1,.891-2.679,3.119,3.119,0,0,1,2.522-1.054,3.045,3.045,0,0,1,2.177.778,2.6,2.6,0,0,1,.8,2.048l-.014.041h-1.815a1.474,1.474,0,0,0-.3-.952,1.02,1.02,0,0,0-.843-.379,1.137,1.137,0,0,0-1.1.618,3.387,3.387,0,0,0-.324,1.58v.2a3.375,3.375,0,0,0,.324,1.59A1.153,1.153,0,0,0,102.528-1.385Zm7.207,0a1.109,1.109,0,0,0,.826-.311,1.128,1.128,0,0,0,.307-.829h1.815l.014.041a2.311,2.311,0,0,1-.833,1.873,3.114,3.114,0,0,1-2.129.754A3.147,3.147,0,0,1,107.2-.9a3.982,3.982,0,0,1-.894-2.679v-.2a4.008,4.008,0,0,1,.891-2.679,3.119,3.119,0,0,1,2.522-1.054,3.045,3.045,0,0,1,2.177.778,2.6,2.6,0,0,1,.8,2.048l-.014.041h-1.815a1.474,1.474,0,0,0-.3-.952,1.02,1.02,0,0,0-.843-.379,1.137,1.137,0,0,0-1.1.618,3.387,3.387,0,0,0-.324,1.58v.2a3.375,3.375,0,0,0,.324,1.59A1.153,1.153,0,0,0,109.735-1.385ZM115.953,0H113.96V-7.385h1.993Zm0-9.152H113.96v-1.495h1.993Zm1.331,5.392a3.963,3.963,0,0,1,.921-2.706,3.212,3.212,0,0,1,2.553-1.054,3.246,3.246,0,0,1,2.566,1.051,3.942,3.942,0,0,1,.928,2.71v.143A3.948,3.948,0,0,1,123.327-.9,3.232,3.232,0,0,1,120.771.143,3.241,3.241,0,0,1,118.209-.9a3.948,3.948,0,0,1-.925-2.713Zm1.986.143A3.213,3.213,0,0,0,119.625-2a1.225,1.225,0,0,0,1.147.611A1.213,1.213,0,0,0,121.9-2a3.191,3.191,0,0,0,.358-1.618v-.143a3.159,3.159,0,0,0-.362-1.6,1.224,1.224,0,0,0-1.14-.621,1.209,1.209,0,0,0-1.13.624,3.187,3.187,0,0,0-.358,1.6Zm1.891-6.921h2.218l.014.041L121.5-8.722h-1.7ZM127.3-7.385l.089,1.058a2.7,2.7,0,0,1,.908-.88,2.356,2.356,0,0,1,1.208-.314,2.2,2.2,0,0,1,1.747.72,3.414,3.414,0,0,1,.628,2.276V0h-2V-4.518a1.768,1.768,0,0,0-.276-1.123,1.019,1.019,0,0,0-.829-.331A1.74,1.74,0,0,0,128-5.8a1.526,1.526,0,0,0-.556.461V0h-1.993V-7.385Zm9.241,3.754A4.8,4.8,0,0,1,137.3-6.45a2.449,2.449,0,0,1,2.126-1.072,2.068,2.068,0,0,1,1,.239,2.4,2.4,0,0,1,.778.683v-4.047h2V0h-1.7l-.171-.908a2.469,2.469,0,0,1-.826.781,2.183,2.183,0,0,1-1.092.27,2.5,2.5,0,0,1-2.112-1,4.255,4.255,0,0,1-.754-2.634Zm1.986.143a3.008,3.008,0,0,0,.328,1.525,1.141,1.141,0,0,0,1.065.556,1.551,1.551,0,0,0,.751-.174,1.388,1.388,0,0,0,.526-.508V-5.235a1.534,1.534,0,0,0-.522-.543,1.389,1.389,0,0,0-.741-.195,1.125,1.125,0,0,0-1.068.648,3.664,3.664,0,0,0-.338,1.693ZM147.942.143a3.323,3.323,0,0,1-2.58-1.014,3.715,3.715,0,0,1-.928-2.611v-.273a4.043,4.043,0,0,1,.9-2.716,3.063,3.063,0,0,1,2.478-1.051,2.867,2.867,0,0,1,2.283.911,3.6,3.6,0,0,1,.8,2.454v1.031h-4.4l-.02.041a2,2,0,0,0,.461,1.229,1.543,1.543,0,0,0,1.225.471,4.1,4.1,0,0,0,1.136-.137,4.637,4.637,0,0,0,.966-.416l.539,1.229a3.7,3.7,0,0,1-1.2.607A5.327,5.327,0,0,1,147.942.143Zm-.13-6.129a1.107,1.107,0,0,0-.925.413,2.071,2.071,0,0,0-.392,1.1l.014.034h2.43v-.15a1.725,1.725,0,0,0-.266-1.02A.984.984,0,0,0,147.812-5.986Z" transform="translate(-6311.92 -14222.332)"/>
    <path id="Trazado_204369" data-name="Trazado 204369" d="M7.426-3.488A4.241,4.241,0,0,1,6.668-.853a2.506,2.506,0,0,1-2.116,1A2.365,2.365,0,0,1,3.522-.072,2.117,2.117,0,0,1,2.751-.7V2.839H.764V-7.385h1.8l.116.874a2.366,2.366,0,0,1,.788-.747,2.132,2.132,0,0,1,1.075-.263A2.458,2.458,0,0,1,6.668-6.45a4.783,4.783,0,0,1,.758,2.819ZM5.433-3.631a3.573,3.573,0,0,0-.348-1.693A1.135,1.135,0,0,0,4.02-5.972a1.5,1.5,0,0,0-.768.184,1.315,1.315,0,0,0-.5.526v3.235a1.222,1.222,0,0,0,.5.478,1.69,1.69,0,0,0,.781.164,1.146,1.146,0,0,0,1.061-.566,2.99,2.99,0,0,0,.338-1.536ZM13.009,0a4.192,4.192,0,0,1-.188-.532,3.7,3.7,0,0,1-.113-.573,2.732,2.732,0,0,1-.812.894,2.036,2.036,0,0,1-1.2.355,2.494,2.494,0,0,1-1.788-.6,2.14,2.14,0,0,1-.628-1.628,1.947,1.947,0,0,1,.836-1.682,4.175,4.175,0,0,1,2.44-.6h1.119v-.587a1.149,1.149,0,0,0-.28-.826,1.1,1.1,0,0,0-.833-.293,1.083,1.083,0,0,0-.747.235.822.822,0,0,0-.263.645H8.634L8.62-5.228a1.873,1.873,0,0,1,.816-1.614,3.543,3.543,0,0,1,2.256-.679,3.306,3.306,0,0,1,2.153.669,2.33,2.33,0,0,1,.822,1.918v3.051a5.77,5.77,0,0,0,.078.976A4.9,4.9,0,0,0,14.995,0ZM11.186-1.331a1.7,1.7,0,0,0,.928-.259,1.4,1.4,0,0,0,.56-.6V-3.235H11.555a1.327,1.327,0,0,0-.959.314,1.032,1.032,0,0,0-.324.771.77.77,0,0,0,.242.6A.959.959,0,0,0,11.186-1.331Zm6.8-6.054.089,1.058a2.7,2.7,0,0,1,.908-.88,2.356,2.356,0,0,1,1.208-.314,2.2,2.2,0,0,1,1.747.72,3.414,3.414,0,0,1,.628,2.276V0h-2V-4.518a1.768,1.768,0,0,0-.276-1.123,1.019,1.019,0,0,0-.829-.331,1.74,1.74,0,0,0-.781.167,1.526,1.526,0,0,0-.556.461V0H16.128V-7.385ZM27.253.143A3.323,3.323,0,0,1,24.673-.87a3.715,3.715,0,0,1-.928-2.611v-.273a4.043,4.043,0,0,1,.9-2.716,3.063,3.063,0,0,1,2.478-1.051,2.867,2.867,0,0,1,2.283.911,3.6,3.6,0,0,1,.8,2.454v1.031H25.8l-.02.041a2,2,0,0,0,.461,1.229,1.543,1.543,0,0,0,1.225.471A4.1,4.1,0,0,0,28.6-1.522a4.637,4.637,0,0,0,.966-.416L30.106-.71A3.7,3.7,0,0,1,28.9-.1,5.327,5.327,0,0,1,27.253.143Zm-.13-6.129a1.107,1.107,0,0,0-.925.413,2.071,2.071,0,0,0-.392,1.1l.014.034h2.43v-.15a1.725,1.725,0,0,0-.266-1.02A.985.985,0,0,0,27.123-5.986ZM33.457,0H31.464V-10.647h1.993Zm5.992,0a4.191,4.191,0,0,1-.188-.532,3.7,3.7,0,0,1-.113-.573,2.732,2.732,0,0,1-.812.894,2.036,2.036,0,0,1-1.2.355,2.494,2.494,0,0,1-1.788-.6,2.14,2.14,0,0,1-.628-1.628,1.947,1.947,0,0,1,.836-1.682,4.175,4.175,0,0,1,2.44-.6h1.119v-.587a1.149,1.149,0,0,0-.28-.826A1.1,1.1,0,0,0,38-6.068a1.083,1.083,0,0,0-.747.235.822.822,0,0,0-.263.645H35.074l-.014-.041a1.873,1.873,0,0,1,.816-1.614,3.543,3.543,0,0,1,2.256-.679,3.306,3.306,0,0,1,2.153.669,2.33,2.33,0,0,1,.822,1.918v3.051a5.77,5.77,0,0,0,.078.976A4.9,4.9,0,0,0,41.435,0ZM37.627-1.331a1.7,1.7,0,0,0,.928-.259,1.4,1.4,0,0,0,.56-.6V-3.235H38a1.327,1.327,0,0,0-.959.314,1.032,1.032,0,0,0-.324.771.77.77,0,0,0,.242.6A.959.959,0,0,0,37.627-1.331Zm8.538-2.71A9.227,9.227,0,0,1,47.2-8.583,5.194,5.194,0,0,1,49.55-11h.041l.362,1a4.954,4.954,0,0,0-1.5,2.157,10.132,10.132,0,0,0-.607,3.795v.177a10.126,10.126,0,0,0,.607,3.8,5.118,5.118,0,0,0,1.5,2.174l-.362.976H49.55A5.2,5.2,0,0,1,47.2.655,9.222,9.222,0,0,1,46.165-3.89Zm6.593-3.344.089,1.058a2.7,2.7,0,0,1,.908-.88,2.356,2.356,0,0,1,1.208-.314,2.2,2.2,0,0,1,1.747.72,3.414,3.414,0,0,1,.628,2.276V0h-2V-4.518a1.768,1.768,0,0,0-.276-1.123,1.019,1.019,0,0,0-.829-.331,1.74,1.74,0,0,0-.781.167,1.526,1.526,0,0,0-.556.461V0H50.9V-7.385Zm5.76,3.624a3.963,3.963,0,0,1,.921-2.706,3.212,3.212,0,0,1,2.553-1.054A3.246,3.246,0,0,1,64.559-6.47a3.942,3.942,0,0,1,.928,2.71v.143A3.948,3.948,0,0,1,64.562-.9,3.232,3.232,0,0,1,62.006.143,3.241,3.241,0,0,1,59.443-.9a3.948,3.948,0,0,1-.925-2.713Zm1.986.143A3.213,3.213,0,0,0,60.859-2a1.225,1.225,0,0,0,1.147.611A1.213,1.213,0,0,0,63.136-2a3.191,3.191,0,0,0,.358-1.618v-.143a3.159,3.159,0,0,0-.362-1.6,1.224,1.224,0,0,0-1.14-.621,1.209,1.209,0,0,0-1.13.624,3.187,3.187,0,0,0-.358,1.6Zm8.06-3.767.082.976a2.481,2.481,0,0,1,.891-.822,2.561,2.561,0,0,1,1.239-.29,2.256,2.256,0,0,1,1.215.314,1.937,1.937,0,0,1,.764.949,2.56,2.56,0,0,1,.887-.928,2.408,2.408,0,0,1,1.283-.334,2.1,2.1,0,0,1,1.723.775,3.7,3.7,0,0,1,.631,2.365V0H75.288V-4.389a2.07,2.07,0,0,0-.273-1.235.969.969,0,0,0-.812-.348,1.391,1.391,0,0,0-.734.188,1.367,1.367,0,0,0-.495.522q0,.13.007.222t.007.188V0H71V-4.389a2.076,2.076,0,0,0-.273-1.225.965.965,0,0,0-.819-.358,1.546,1.546,0,0,0-.706.154,1.355,1.355,0,0,0-.5.433V0H66.715V-7.385Zm16.906,3.9a4.32,4.32,0,0,1-.737,2.641A2.493,2.493,0,0,1,82.6.143a2.251,2.251,0,0,1-1.13-.273,2.334,2.334,0,0,1-.816-.8L80.5,0H78.809V-10.647H80.8V-6.6a2.256,2.256,0,0,1,.768-.683,2.146,2.146,0,0,1,1.027-.239A2.446,2.446,0,0,1,84.734-6.46a4.872,4.872,0,0,1,.737,2.829Zm-1.986-.143a3.845,3.845,0,0,0-.317-1.71,1.114,1.114,0,0,0-1.082-.631,1.488,1.488,0,0,0-.785.195,1.348,1.348,0,0,0-.505.556V-2.1a1.266,1.266,0,0,0,.508.512,1.637,1.637,0,0,0,.8.177,1.133,1.133,0,0,0,1.078-.543,3.16,3.16,0,0,0,.307-1.539Zm7.1-2.041-.73-.02a1.327,1.327,0,0,0-.73.184,1.168,1.168,0,0,0-.437.519V0H86.7V-7.385h1.85l.089,1.092a2.33,2.33,0,0,1,.672-.9,1.5,1.5,0,0,1,.952-.324,1.49,1.49,0,0,1,.276.024q.126.024.256.058ZM94.691.143A3.323,3.323,0,0,1,92.112-.87a3.715,3.715,0,0,1-.928-2.611v-.273a4.043,4.043,0,0,1,.9-2.716,3.063,3.063,0,0,1,2.478-1.051,2.867,2.867,0,0,1,2.283.911,3.6,3.6,0,0,1,.8,2.454v1.031h-4.4l-.02.041a2,2,0,0,0,.461,1.229,1.543,1.543,0,0,0,1.225.471,4.1,4.1,0,0,0,1.136-.137,4.637,4.637,0,0,0,.966-.416L97.544-.71a3.7,3.7,0,0,1-1.2.607A5.327,5.327,0,0,1,94.691.143Zm-.13-6.129a1.107,1.107,0,0,0-.925.413,2.071,2.071,0,0,0-.392,1.1l.014.034h2.43v-.15a1.725,1.725,0,0,0-.266-1.02A.985.985,0,0,0,94.562-5.986Zm7.583,2.1A8.98,8.98,0,0,1,101.063.624a5.318,5.318,0,0,1-2.406,2.447h-.041L98.247,2.1A5.06,5.06,0,0,0,99.742-.068a10.106,10.106,0,0,0,.614-3.808v-.177a10.022,10.022,0,0,0-.621-3.8,5.228,5.228,0,0,0-1.488-2.181L98.616-11h.041a5.317,5.317,0,0,1,2.406,2.45,8.984,8.984,0,0,1,1.082,4.511Z" transform="translate(-6311.92 -14205.559)"/>
    <path id="Trazado_204370" data-name="Trazado 204370" d="M2.907-3.6V0H.915V-9.937h3.8a3.914,3.914,0,0,1,2.7.874,2.929,2.929,0,0,1,.983,2.3A2.908,2.908,0,0,1,7.412-4.47a3.934,3.934,0,0,1-2.7.867Zm0-1.536H4.716a1.658,1.658,0,0,0,1.263-.454,1.614,1.614,0,0,0,.43-1.157,1.689,1.689,0,0,0-.427-1.184A1.629,1.629,0,0,0,4.716-8.4H2.907Zm10.647-.532-.73-.02a1.327,1.327,0,0,0-.73.184,1.168,1.168,0,0,0-.437.519V0H9.671V-7.385h1.85l.089,1.092a2.33,2.33,0,0,1,.672-.9,1.5,1.5,0,0,1,.952-.324,1.49,1.49,0,0,1,.276.024q.126.024.256.058Zm.356,1.911a3.963,3.963,0,0,1,.921-2.706,3.212,3.212,0,0,1,2.553-1.054A3.246,3.246,0,0,1,19.951-6.47a3.942,3.942,0,0,1,.928,2.71v.143A3.948,3.948,0,0,1,19.954-.9,3.232,3.232,0,0,1,17.4.143,3.241,3.241,0,0,1,14.836-.9a3.948,3.948,0,0,1-.925-2.713Zm1.986.143A3.213,3.213,0,0,0,16.252-2a1.225,1.225,0,0,0,1.147.611A1.213,1.213,0,0,0,18.528-2a3.191,3.191,0,0,0,.358-1.618v-.143a3.159,3.159,0,0,0-.362-1.6,1.224,1.224,0,0,0-1.14-.621,1.209,1.209,0,0,0-1.13.624,3.187,3.187,0,0,0-.358,1.6Zm9.3,2.232a1.109,1.109,0,0,0,.826-.311,1.128,1.128,0,0,0,.307-.829h1.815l.014.041a2.311,2.311,0,0,1-.833,1.873,3.114,3.114,0,0,1-2.129.754A3.147,3.147,0,0,1,22.661-.9a3.982,3.982,0,0,1-.894-2.679v-.2a4.008,4.008,0,0,1,.891-2.679,3.119,3.119,0,0,1,2.522-1.054,3.045,3.045,0,0,1,2.177.778,2.6,2.6,0,0,1,.8,2.048l-.014.041H26.326a1.474,1.474,0,0,0-.3-.952,1.02,1.02,0,0,0-.843-.379,1.137,1.137,0,0,0-1.1.618,3.387,3.387,0,0,0-.324,1.58v.2a3.375,3.375,0,0,0,.324,1.59A1.153,1.153,0,0,0,25.193-1.385ZM32.516.143A3.323,3.323,0,0,1,29.936-.87a3.715,3.715,0,0,1-.928-2.611v-.273a4.043,4.043,0,0,1,.9-2.716,3.063,3.063,0,0,1,2.478-1.051,2.867,2.867,0,0,1,2.283.911,3.6,3.6,0,0,1,.8,2.454v1.031h-4.4l-.02.041A2,2,0,0,0,31.5-1.856a1.543,1.543,0,0,0,1.225.471,4.1,4.1,0,0,0,1.136-.137,4.637,4.637,0,0,0,.966-.416L35.369-.71a3.7,3.7,0,0,1-1.2.607A5.327,5.327,0,0,1,32.516.143Zm-.13-6.129a1.107,1.107,0,0,0-.925.413,2.071,2.071,0,0,0-.392,1.1l.014.034h2.43v-.15a1.725,1.725,0,0,0-.266-1.02A.985.985,0,0,0,32.386-5.986Zm3.931,2.355a4.8,4.8,0,0,1,.754-2.819A2.449,2.449,0,0,1,39.2-7.521a2.068,2.068,0,0,1,1,.239,2.4,2.4,0,0,1,.778.683v-4.047h2V0h-1.7L41.1-.908a2.469,2.469,0,0,1-.826.781,2.183,2.183,0,0,1-1.092.27,2.5,2.5,0,0,1-2.112-1,4.255,4.255,0,0,1-.754-2.634Zm1.986.143a3.008,3.008,0,0,0,.328,1.525,1.141,1.141,0,0,0,1.065.556,1.551,1.551,0,0,0,.751-.174,1.388,1.388,0,0,0,.526-.508V-5.235a1.534,1.534,0,0,0-.522-.543,1.389,1.389,0,0,0-.741-.195,1.125,1.125,0,0,0-1.068.648A3.664,3.664,0,0,0,38.3-3.631ZM46.61,0H44.617V-7.385H46.61Zm0-9.152H44.617v-1.495H46.61ZM50.1-7.385l.082.976a2.481,2.481,0,0,1,.891-.822,2.561,2.561,0,0,1,1.239-.29,2.256,2.256,0,0,1,1.215.314,1.937,1.937,0,0,1,.764.949,2.56,2.56,0,0,1,.887-.928,2.408,2.408,0,0,1,1.283-.334,2.1,2.1,0,0,1,1.723.775,3.7,3.7,0,0,1,.631,2.365V0H56.82V-4.389a2.07,2.07,0,0,0-.273-1.235.969.969,0,0,0-.812-.348A1.391,1.391,0,0,0,55-5.784a1.367,1.367,0,0,0-.495.522q0,.13.007.222t.007.188V0H52.534V-4.389a2.076,2.076,0,0,0-.273-1.225.965.965,0,0,0-.819-.358,1.546,1.546,0,0,0-.706.154,1.355,1.355,0,0,0-.5.433V0H48.248V-7.385ZM62.437,0H60.444V-7.385h1.993Zm0-9.152H60.444v-1.495h1.993Zm4.839,9.3A3.323,3.323,0,0,1,64.7-.87a3.715,3.715,0,0,1-.928-2.611v-.273a4.043,4.043,0,0,1,.9-2.716,3.063,3.063,0,0,1,2.478-1.051,2.867,2.867,0,0,1,2.283.911,3.6,3.6,0,0,1,.8,2.454v1.031h-4.4l-.02.041a2,2,0,0,0,.461,1.229,1.543,1.543,0,0,0,1.225.471,4.1,4.1,0,0,0,1.136-.137,4.637,4.637,0,0,0,.966-.416L70.129-.71a3.7,3.7,0,0,1-1.2.607A5.327,5.327,0,0,1,67.276.143Zm-.13-6.129a1.107,1.107,0,0,0-.925.413,2.071,2.071,0,0,0-.392,1.1l.014.034h2.43v-.15a1.725,1.725,0,0,0-.266-1.02A.985.985,0,0,0,67.147-5.986Zm6.061-1.4L73.3-6.327a2.7,2.7,0,0,1,.908-.88,2.356,2.356,0,0,1,1.208-.314,2.2,2.2,0,0,1,1.747.72,3.414,3.414,0,0,1,.628,2.276V0h-2V-4.518a1.768,1.768,0,0,0-.276-1.123,1.019,1.019,0,0,0-.829-.331A1.74,1.74,0,0,0,73.9-5.8a1.526,1.526,0,0,0-.556.461V0H71.351V-7.385Zm8.456-1.809v1.809h1.249v1.4H81.664v3.761a.858.858,0,0,0,.181.614.635.635,0,0,0,.474.184,1.9,1.9,0,0,0,.273-.017,2.3,2.3,0,0,0,.266-.058l.164,1.44a4.035,4.035,0,0,1-.584.154,3.479,3.479,0,0,1-.618.051,2.124,2.124,0,0,1-1.587-.566,2.484,2.484,0,0,1-.556-1.8V-5.986H78.6v-1.4h1.078V-9.193Zm1.975,5.433a3.963,3.963,0,0,1,.921-2.706,3.212,3.212,0,0,1,2.553-1.054A3.246,3.246,0,0,1,89.678-6.47a3.942,3.942,0,0,1,.928,2.71v.143A3.948,3.948,0,0,1,89.682-.9,3.232,3.232,0,0,1,87.126.143,3.241,3.241,0,0,1,84.563-.9a3.948,3.948,0,0,1-.925-2.713Zm1.986.143A3.213,3.213,0,0,0,85.979-2a1.225,1.225,0,0,0,1.147.611A1.213,1.213,0,0,0,88.255-2a3.191,3.191,0,0,0,.358-1.618v-.143a3.159,3.159,0,0,0-.362-1.6,1.224,1.224,0,0,0-1.14-.621,1.209,1.209,0,0,0-1.13.624,3.187,3.187,0,0,0-.358,1.6ZM95.4-4.04a9.227,9.227,0,0,1,1.037-4.542A5.194,5.194,0,0,1,98.783-11h.041l.362,1a4.954,4.954,0,0,0-1.5,2.157,10.132,10.132,0,0,0-.607,3.795v.177a10.126,10.126,0,0,0,.607,3.8,5.118,5.118,0,0,0,1.5,2.174l-.362.976h-.041A5.2,5.2,0,0,1,96.435.655,9.222,9.222,0,0,1,95.4-3.89Zm7.16-5.153v1.809h1.249v1.4h-1.249v3.761a.858.858,0,0,0,.181.614.635.635,0,0,0,.474.184,1.9,1.9,0,0,0,.273-.017,2.3,2.3,0,0,0,.266-.058l.164,1.44a4.035,4.035,0,0,1-.584.154,3.479,3.479,0,0,1-.618.051,2.124,2.124,0,0,1-1.587-.566,2.484,2.484,0,0,1-.556-1.8V-5.986H99.493v-1.4h1.078V-9.193ZM107.171,0h-1.993V-7.385h1.993Zm-.594-10.395H108.8l.014.041-1.891,1.775h-1.7Zm4.682,1.2v1.809h1.249v1.4h-1.249v3.761a.858.858,0,0,0,.181.614.635.635,0,0,0,.474.184,1.9,1.9,0,0,0,.273-.017,2.3,2.3,0,0,0,.266-.058l.164,1.44a4.035,4.035,0,0,1-.584.154,3.479,3.479,0,0,1-.618.051,2.124,2.124,0,0,1-1.587-.566,2.484,2.484,0,0,1-.556-1.8V-5.986h-1.078v-1.4h1.078V-9.193Zm7,8.1a2.507,2.507,0,0,1-.867.915,2.3,2.3,0,0,1-1.222.321,2.245,2.245,0,0,1-1.826-.792,3.8,3.8,0,0,1-.659-2.457V-7.385h1.986v4.293a2.384,2.384,0,0,0,.263,1.327.944.944,0,0,0,.816.358,1.986,1.986,0,0,0,.819-.154,1.381,1.381,0,0,0,.56-.454V-7.385h1.993V0h-1.652ZM123.722,0h-1.993V-10.647h1.993Zm1.331-3.761a3.963,3.963,0,0,1,.921-2.706,3.212,3.212,0,0,1,2.553-1.054,3.246,3.246,0,0,1,2.566,1.051,3.942,3.942,0,0,1,.928,2.71v.143A3.948,3.948,0,0,1,131.1-.9,3.232,3.232,0,0,1,128.541.143,3.241,3.241,0,0,1,125.978-.9a3.948,3.948,0,0,1-.925-2.713Zm1.986.143A3.213,3.213,0,0,0,127.394-2a1.225,1.225,0,0,0,1.147.611A1.213,1.213,0,0,0,129.67-2a3.191,3.191,0,0,0,.358-1.618v-.143a3.159,3.159,0,0,0-.362-1.6,1.224,1.224,0,0,0-1.14-.621,1.209,1.209,0,0,0-1.13.624,3.187,3.187,0,0,0-.358,1.6Zm9.555-.273A8.98,8.98,0,0,1,135.512.624a5.318,5.318,0,0,1-2.406,2.447h-.041L132.7,2.1a5.06,5.06,0,0,0,1.495-2.164,10.106,10.106,0,0,0,.614-3.808v-.177a10.022,10.022,0,0,0-.621-3.8,5.228,5.228,0,0,0-1.488-2.181l.369-.969h.041a5.316,5.316,0,0,1,2.406,2.45,8.984,8.984,0,0,1,1.082,4.511Z" transform="translate(-6075.024 -14213.945)"/>
    <path id="Trazado_204371" data-name="Trazado 204371" d="M8.368-3.29l.014.041A3.111,3.111,0,0,1,7.412-.758a3.952,3.952,0,0,1-2.751.9,3.81,3.81,0,0,1-2.887-1.15,4.125,4.125,0,0,1-1.1-2.972V-5.951A4.2,4.2,0,0,1,1.747-8.924a3.653,3.653,0,0,1,2.812-1.157A4.194,4.194,0,0,1,7.4-9.193a3.055,3.055,0,0,1,1,2.5l-.014.041H6.443a1.954,1.954,0,0,0-.461-1.423,1.921,1.921,0,0,0-1.423-.468,1.607,1.607,0,0,0-1.4.72,3.184,3.184,0,0,0-.5,1.86v1.986a3.091,3.091,0,0,0,.529,1.87,1.719,1.719,0,0,0,1.471.723A1.75,1.75,0,0,0,6-1.853a2.034,2.034,0,0,0,.44-1.437Zm.983-.471a3.963,3.963,0,0,1,.921-2.706,3.212,3.212,0,0,1,2.553-1.054A3.246,3.246,0,0,1,15.391-6.47a3.942,3.942,0,0,1,.928,2.71v.143A3.948,3.948,0,0,1,15.394-.9,3.232,3.232,0,0,1,12.838.143,3.241,3.241,0,0,1,10.275-.9,3.948,3.948,0,0,1,9.35-3.617Zm1.986.143A3.213,3.213,0,0,0,11.691-2a1.225,1.225,0,0,0,1.147.611A1.213,1.213,0,0,0,13.968-2a3.191,3.191,0,0,0,.358-1.618v-.143a3.159,3.159,0,0,0-.362-1.6,1.224,1.224,0,0,0-1.14-.621,1.209,1.209,0,0,0-1.13.624,3.187,3.187,0,0,0-.358,1.6Zm1.891-6.921h2.218l.014.041L13.568-8.722h-1.7ZM17.24-3.631a4.8,4.8,0,0,1,.754-2.819A2.449,2.449,0,0,1,20.12-7.521a2.068,2.068,0,0,1,1,.239,2.4,2.4,0,0,1,.778.683v-4.047h2V0H22.2l-.171-.908a2.469,2.469,0,0,1-.826.781,2.183,2.183,0,0,1-1.092.27,2.5,2.5,0,0,1-2.112-1,4.255,4.255,0,0,1-.754-2.634Zm1.986.143a3.008,3.008,0,0,0,.328,1.525,1.141,1.141,0,0,0,1.065.556,1.551,1.551,0,0,0,.751-.174,1.388,1.388,0,0,0,.526-.508V-5.235a1.534,1.534,0,0,0-.522-.543,1.389,1.389,0,0,0-.741-.195,1.125,1.125,0,0,0-1.068.648,3.664,3.664,0,0,0-.338,1.693ZM27.532,0H25.54V-7.385h1.993Zm0-9.152H25.54v-1.495h1.993Zm1.345,5.522a4.783,4.783,0,0,1,.758-2.819,2.458,2.458,0,0,1,2.129-1.072,2.1,2.1,0,0,1,1.092.28,2.451,2.451,0,0,1,.805.8l.157-.942h1.713V-.034a2.745,2.745,0,0,1-.942,2.228,3.977,3.977,0,0,1-2.628.788,5.006,5.006,0,0,1-1.188-.154,5.515,5.515,0,0,1-1.16-.42L29.949.921a4.574,4.574,0,0,0,.945.331,4.684,4.684,0,0,0,1.054.113,1.784,1.784,0,0,0,1.2-.341,1.351,1.351,0,0,0,.386-1.065V-.71a2.229,2.229,0,0,1-.771.635A2.274,2.274,0,0,1,31.75.143a2.506,2.506,0,0,1-2.116-1,4.241,4.241,0,0,1-.758-2.634Zm1.993.143a3.034,3.034,0,0,0,.324,1.525,1.133,1.133,0,0,0,1.061.556,1.645,1.645,0,0,0,.775-.167,1.277,1.277,0,0,0,.508-.488v-3.2a1.362,1.362,0,0,0-.508-.526,1.49,1.49,0,0,0-.761-.184,1.118,1.118,0,0,0-1.065.648,3.7,3.7,0,0,0-.334,1.693Zm5.883-.273a3.963,3.963,0,0,1,.921-2.706,3.212,3.212,0,0,1,2.553-1.054A3.246,3.246,0,0,1,42.793-6.47a3.942,3.942,0,0,1,.928,2.71v.143A3.948,3.948,0,0,1,42.8-.9,3.232,3.232,0,0,1,40.241.143,3.241,3.241,0,0,1,37.678-.9a3.948,3.948,0,0,1-.925-2.713Zm1.986.143A3.213,3.213,0,0,0,39.094-2a1.225,1.225,0,0,0,1.147.611A1.213,1.213,0,0,0,41.37-2a3.191,3.191,0,0,0,.358-1.618v-.143a3.159,3.159,0,0,0-.362-1.6,1.224,1.224,0,0,0-1.14-.621,1.209,1.209,0,0,0-1.13.624,3.187,3.187,0,0,0-.358,1.6ZM47.161,0H45.168V-1.747h1.993Zm0-5.979H45.168V-7.726h1.993Z" transform="translate(-5835.585 -14238.225)"/>
    <path id="Trazado_204372" data-name="Trazado 204372" d="M2.907-3.972V0H.915V-9.937h3.44a4.12,4.12,0,0,1,2.658.775A2.622,2.622,0,0,1,7.972-7a2.179,2.179,0,0,1-.406,1.321,2.828,2.828,0,0,1-1.184.9,2.139,2.139,0,0,1,1.266.867,2.748,2.748,0,0,1,.386,1.5v.73a3.613,3.613,0,0,0,.113.87,1.2,1.2,0,0,0,.386.672V0H6.477a1.1,1.1,0,0,1-.351-.723A6.356,6.356,0,0,1,6.047-1.7v-.7a1.579,1.579,0,0,0-.406-1.157,1.54,1.54,0,0,0-1.15-.413Zm0-1.536H4.32a1.869,1.869,0,0,0,1.249-.355,1.315,1.315,0,0,0,.41-1.051A1.446,1.446,0,0,0,5.566-8a1.668,1.668,0,0,0-1.211-.4H2.907ZM12.872.143A3.323,3.323,0,0,1,10.292-.87a3.715,3.715,0,0,1-.928-2.611v-.273a4.043,4.043,0,0,1,.9-2.716,3.063,3.063,0,0,1,2.478-1.051,2.867,2.867,0,0,1,2.283.911,3.6,3.6,0,0,1,.8,2.454v1.031h-4.4l-.02.041a2,2,0,0,0,.461,1.229,1.543,1.543,0,0,0,1.225.471,4.1,4.1,0,0,0,1.136-.137,4.637,4.637,0,0,0,.966-.416L15.725-.71a3.7,3.7,0,0,1-1.2.607A5.327,5.327,0,0,1,12.872.143Zm-.13-6.129a1.107,1.107,0,0,0-.925.413,2.071,2.071,0,0,0-.392,1.1l.014.034h2.43v-.15a1.725,1.725,0,0,0-.266-1.02A.985.985,0,0,0,12.742-5.986Zm6.734,3.235.13.683h.041l.137-.683L21-7.385h2.082L20.569,0h-1.9L16.153-7.385h2.082ZM26.043,0H24.05V-7.385h1.993Zm0-9.152H24.05v-1.495h1.993Zm5.631,7.1a.688.688,0,0,0-.317-.563,3.224,3.224,0,0,0-1.177-.413,4.7,4.7,0,0,1-1.969-.785,1.714,1.714,0,0,1-.672-1.426,2.035,2.035,0,0,1,.805-1.618,3.247,3.247,0,0,1,2.143-.669,3.5,3.5,0,0,1,2.242.669,1.954,1.954,0,0,1,.809,1.665l-.014.041H31.6a.966.966,0,0,0-.287-.723,1.134,1.134,0,0,0-.826-.28,1.128,1.128,0,0,0-.758.239.743.743,0,0,0-.28.587.663.663,0,0,0,.29.556,3.229,3.229,0,0,0,1.177.386,4.791,4.791,0,0,1,2.024.8A1.759,1.759,0,0,1,33.6-2.123a1.949,1.949,0,0,1-.853,1.631A3.682,3.682,0,0,1,30.5.143,3.423,3.423,0,0,1,28.169-.6a2.089,2.089,0,0,1-.816-1.7l.014-.041h1.822a1.036,1.036,0,0,0,.389.86,1.606,1.606,0,0,0,.962.266,1.369,1.369,0,0,0,.843-.222A.72.72,0,0,0,31.673-2.048ZM36.983,0H34.99V-7.385h1.993Zm0-9.152H34.99v-1.495h1.993Zm1.331,5.392a3.963,3.963,0,0,1,.921-2.706,3.212,3.212,0,0,1,2.553-1.054A3.246,3.246,0,0,1,44.354-6.47a3.942,3.942,0,0,1,.928,2.71v.143A3.948,3.948,0,0,1,44.358-.9,3.232,3.232,0,0,1,41.8.143,3.241,3.241,0,0,1,39.239-.9a3.948,3.948,0,0,1-.925-2.713Zm1.986.143A3.213,3.213,0,0,0,40.655-2a1.225,1.225,0,0,0,1.147.611A1.213,1.213,0,0,0,42.931-2a3.191,3.191,0,0,0,.358-1.618v-.143a3.159,3.159,0,0,0-.362-1.6,1.224,1.224,0,0,0-1.14-.621,1.209,1.209,0,0,0-1.13.624,3.187,3.187,0,0,0-.358,1.6Zm1.891-6.921h2.218l.014.041L42.532-8.722h-1.7Zm6.143,3.153.089,1.058a2.7,2.7,0,0,1,.908-.88,2.356,2.356,0,0,1,1.208-.314,2.2,2.2,0,0,1,1.747.72,3.414,3.414,0,0,1,.628,2.276V0h-2V-4.518a1.768,1.768,0,0,0-.276-1.123,1.019,1.019,0,0,0-.829-.331,1.74,1.74,0,0,0-.781.167,1.526,1.526,0,0,0-.556.461V0H46.477V-7.385ZM56.612,0H54.619V-1.747h1.993Zm0-5.979H54.619V-7.726h1.993Z" transform="translate(-5835.585 -14212.716)"/>
    <path id="Trazado_204373" data-name="Trazado 204373" d="M6.723-4.129H2.907V0H.915V-9.937h6.5V-8.4H2.907v2.737H6.723ZM11.6.143A3.323,3.323,0,0,1,9.016-.87a3.715,3.715,0,0,1-.928-2.611v-.273a4.043,4.043,0,0,1,.9-2.716,3.063,3.063,0,0,1,2.478-1.051,2.867,2.867,0,0,1,2.283.911,3.6,3.6,0,0,1,.8,2.454v1.031h-4.4l-.02.041a2,2,0,0,0,.461,1.229,1.543,1.543,0,0,0,1.225.471,4.1,4.1,0,0,0,1.136-.137,4.637,4.637,0,0,0,.966-.416L14.449-.71a3.7,3.7,0,0,1-1.2.607A5.327,5.327,0,0,1,11.6.143Zm-.13-6.129a1.107,1.107,0,0,0-.925.413,2.071,2.071,0,0,0-.392,1.1l.014.034h2.43v-.15a1.725,1.725,0,0,0-.266-1.02A.985.985,0,0,0,11.466-5.986Zm7.323,4.6a1.109,1.109,0,0,0,.826-.311,1.128,1.128,0,0,0,.307-.829h1.815l.014.041a2.311,2.311,0,0,1-.833,1.873,3.114,3.114,0,0,1-2.129.754A3.147,3.147,0,0,1,16.257-.9a3.982,3.982,0,0,1-.894-2.679v-.2a4.008,4.008,0,0,1,.891-2.679,3.119,3.119,0,0,1,2.522-1.054,3.045,3.045,0,0,1,2.177.778,2.6,2.6,0,0,1,.8,2.048l-.014.041H19.922a1.474,1.474,0,0,0-.3-.952,1.02,1.02,0,0,0-.843-.379,1.137,1.137,0,0,0-1.1.618,3.387,3.387,0,0,0-.324,1.58v.2a3.375,3.375,0,0,0,.324,1.59A1.153,1.153,0,0,0,18.789-1.385ZM24.857-6.45a2.537,2.537,0,0,1,.853-.788,2.249,2.249,0,0,1,1.119-.283,2.261,2.261,0,0,1,1.812.768A3.583,3.583,0,0,1,29.3-4.382V0H27.307V-4.4a2.041,2.041,0,0,0-.276-1.218.982.982,0,0,0-.829-.358,1.984,1.984,0,0,0-.8.147,1.372,1.372,0,0,0-.549.42V0H22.864V-10.647h1.993ZM35.156,0a4.192,4.192,0,0,1-.188-.532,3.7,3.7,0,0,1-.113-.573,2.732,2.732,0,0,1-.812.894,2.036,2.036,0,0,1-1.2.355,2.494,2.494,0,0,1-1.788-.6,2.14,2.14,0,0,1-.628-1.628,1.947,1.947,0,0,1,.836-1.682,4.175,4.175,0,0,1,2.44-.6h1.119v-.587a1.149,1.149,0,0,0-.28-.826,1.1,1.1,0,0,0-.833-.293,1.083,1.083,0,0,0-.747.235.822.822,0,0,0-.263.645H30.781l-.014-.041a1.873,1.873,0,0,1,.816-1.614,3.543,3.543,0,0,1,2.256-.679,3.306,3.306,0,0,1,2.153.669,2.33,2.33,0,0,1,.822,1.918v3.051a5.77,5.77,0,0,0,.078.976A4.9,4.9,0,0,0,37.142,0ZM33.334-1.331a1.7,1.7,0,0,0,.928-.259,1.4,1.4,0,0,0,.56-.6V-3.235H33.7a1.327,1.327,0,0,0-.959.314,1.032,1.032,0,0,0-.324.771.77.77,0,0,0,.242.6A.959.959,0,0,0,33.334-1.331ZM40.521,0H38.528V-1.747h1.993Zm0-5.979H38.528V-7.726h1.993Z" transform="translate(-5835.585 -14187.206)"/>
    <path id="Trazado_204374" data-name="Trazado 204374" d="M4.485,0H3.034V-7.357H1.188V-8.51l3.3-.311ZM9.31,0H7.865V-1.391H9.31ZM21.159-3.565a3.675,3.675,0,0,1-1,2.643,3.433,3.433,0,0,1-2.6,1.048A3.316,3.316,0,0,1,15.019-.923a3.719,3.719,0,0,1-.979-2.643V-5.13a3.728,3.728,0,0,1,.976-2.64,3.309,3.309,0,0,1,2.541-1.051,3.43,3.43,0,0,1,2.6,1.051,3.671,3.671,0,0,1,1,2.64ZM19.707-5.142a2.7,2.7,0,0,0-.579-1.786,1.933,1.933,0,0,0-1.571-.7,1.825,1.825,0,0,0-1.514.7,2.791,2.791,0,0,0-.552,1.786v1.577a2.813,2.813,0,0,0,.555,1.8,1.824,1.824,0,0,0,1.511.7,1.931,1.931,0,0,0,1.574-.7,2.741,2.741,0,0,0,.576-1.8Zm8.516,2.126a3.652,3.652,0,0,1-.66,2.278A2.206,2.206,0,0,1,25.7.125a2.129,2.129,0,0,1-1.057-.251A2.072,2.072,0,0,1,23.9-.854L23.726,0H22.55V-9.316H24v3.589a2.083,2.083,0,0,1,.717-.633,2.053,2.053,0,0,1,.973-.221,2.15,2.15,0,0,1,1.872.944,4.273,4.273,0,0,1,.66,2.5Zm-1.451-.125a3.336,3.336,0,0,0-.346-1.63,1.168,1.168,0,0,0-1.1-.621,1.437,1.437,0,0,0-.809.215,1.5,1.5,0,0,0-.517.6v2.711a1.423,1.423,0,0,0,.514.6,1.491,1.491,0,0,0,.824.212,1.2,1.2,0,0,0,1.093-.529,2.617,2.617,0,0,0,.34-1.43Zm4.318-3.32V.376a2.3,2.3,0,0,1-.555,1.651,2.036,2.036,0,0,1-1.547.582,2.859,2.859,0,0,1-.388-.024,2.724,2.724,0,0,1-.364-.078l.084-1.159a1.782,1.782,0,0,0,.251.051,1.992,1.992,0,0,0,.275.021.718.718,0,0,0,.582-.254,1.221,1.221,0,0,0,.212-.791V-6.462Zm-.036-1.6H29.6V-9.316h1.451ZM35.425.125a2.813,2.813,0,0,1-2.213-.893,3.344,3.344,0,0,1-.8-2.314V-3.32a3.457,3.457,0,0,1,.8-2.344,2.576,2.576,0,0,1,2.057-.917,2.418,2.418,0,0,1,1.971.8,3.248,3.248,0,0,1,.669,2.147v.782h-4l-.012.03a2.117,2.117,0,0,0,.418,1.29,1.426,1.426,0,0,0,1.188.5,3.27,3.27,0,0,0,1.024-.143,2.924,2.924,0,0,0,.8-.412l.472.95a3.075,3.075,0,0,1-.979.543A4.1,4.1,0,0,1,35.425.125ZM35.27-5.417a1.121,1.121,0,0,0-.908.409,2.027,2.027,0,0,0-.424,1.066l.012.03h2.526v-.113a1.631,1.631,0,0,0-.29-1.006A1.072,1.072,0,0,0,35.27-5.417Zm5.673-2.616v1.571H42.1v1.075H40.944v3.571a.779.779,0,0,0,.173.57.628.628,0,0,0,.46.17,1.283,1.283,0,0,0,.233-.021,1.416,1.416,0,0,0,.215-.057L42.18-.09a1.667,1.667,0,0,1-.439.158,2.416,2.416,0,0,1-.529.057,1.674,1.674,0,0,1-1.257-.469A2.044,2.044,0,0,1,39.5-1.815V-5.387h-.985V-6.462H39.5V-8.032ZM44.819,0H43.368V-6.462h1.451Zm0-8.044H43.368V-9.316h1.451Zm3.87,5.858.107.526h.036l.113-.526L50.23-6.462h1.5L49.436,0h-1.26L45.87-6.462h1.5Zm3.509-1.1a3.509,3.509,0,0,1,.791-2.368,2.7,2.7,0,0,1,2.165-.923,2.723,2.723,0,0,1,2.183.923,3.509,3.509,0,0,1,.791,2.368v.125a3.5,3.5,0,0,1-.791,2.374,2.717,2.717,0,0,1-2.171.917,2.72,2.72,0,0,1-2.177-.92A3.506,3.506,0,0,1,52.2-3.165Zm1.451.125a2.866,2.866,0,0,0,.37,1.541,1.257,1.257,0,0,0,1.147.591A1.26,1.26,0,0,0,56.3-1.627a2.816,2.816,0,0,0,.379-1.538v-.125A2.81,2.81,0,0,0,56.3-4.816a1.268,1.268,0,0,0-1.15-.6,1.243,1.243,0,0,0-1.132.6,2.845,2.845,0,0,0-.373,1.526Z" transform="translate(-6311.92 -14149.454)" fill="#0c1d30"/>
    <path id="Trazado_204375" data-name="Trazado 204375" d="M6.408,0H.8V-1L3.517-4.139a7.2,7.2,0,0,0,.92-1.29A2.156,2.156,0,0,0,4.694-6.4a1.311,1.311,0,0,0-.311-.9,1.128,1.128,0,0,0-.89-.349A1.261,1.261,0,0,0,2.46-7.22a1.673,1.673,0,0,0-.358,1.1H.7L.687-6.157a2.481,2.481,0,0,1,.738-1.89,2.784,2.784,0,0,1,2.069-.773,2.711,2.711,0,0,1,1.95.669,2.314,2.314,0,0,1,.7,1.756,2.615,2.615,0,0,1-.391,1.38A15.751,15.751,0,0,1,4.467-3.291l-1.833,2.1.012.03H6.408Zm2.9,0H7.865V-1.391H9.31Zm6.468-1.159h4.073V0H14.327V-8.7h1.451Zm9.028.2a2.168,2.168,0,0,1-.767.8,2.069,2.069,0,0,1-1.084.281A2.024,2.024,0,0,1,21.33-.558a3.215,3.215,0,0,1-.585-2.123v-3.78H22.19v3.792A2.159,2.159,0,0,0,22.459-1.4a1,1,0,0,0,.836.343,1.866,1.866,0,0,0,.881-.188,1.366,1.366,0,0,0,.558-.546v-4.67h1.451V0H24.937Zm2.669-2.186a4.261,4.261,0,0,1,.663-2.493A2.144,2.144,0,0,1,30-6.581a2.036,2.036,0,0,1,1.018.248,2.152,2.152,0,0,1,.744.714l.143-.842h1.206V0a2.439,2.439,0,0,1-.77,1.929,3.194,3.194,0,0,1-2.186.681,4.279,4.279,0,0,1-1.018-.134,4.73,4.73,0,0,1-.988-.355L28.383.979a3.677,3.677,0,0,0,.827.29,4.178,4.178,0,0,0,.935.1A1.658,1.658,0,0,0,31.3,1.036,1.347,1.347,0,0,0,31.661,0V-.663a2.03,2.03,0,0,1-.72.588,2.168,2.168,0,0,1-.953.2,2.2,2.2,0,0,1-1.851-.866,3.643,3.643,0,0,1-.663-2.275Zm1.445.125a2.585,2.585,0,0,0,.346,1.427,1.21,1.21,0,0,0,1.093.532,1.487,1.487,0,0,0,.785-.194,1.433,1.433,0,0,0,.517-.558V-4.64a1.551,1.551,0,0,0-.523-.552,1.417,1.417,0,0,0-.767-.2,1.175,1.175,0,0,0-1.1.624,3.293,3.293,0,0,0-.352,1.627ZM38.523,0q-.078-.245-.128-.478a3.415,3.415,0,0,1-.069-.466,2.489,2.489,0,0,1-.782.761,2.013,2.013,0,0,1-1.093.308,2.148,2.148,0,0,1-1.55-.52,1.887,1.887,0,0,1-.54-1.427,1.686,1.686,0,0,1,.741-1.46A3.576,3.576,0,0,1,37.185-3.8h1.129v-.567a1.055,1.055,0,0,0-.3-.794,1.182,1.182,0,0,0-.857-.287,1.22,1.22,0,0,0-.788.236.75.75,0,0,0-.293.612l-1.4.006-.006-.036a1.6,1.6,0,0,1,.684-1.356,2.9,2.9,0,0,1,1.89-.591,2.764,2.764,0,0,1,1.821.573,2.018,2.018,0,0,1,.693,1.648v2.872a5.3,5.3,0,0,0,.054.767,4.075,4.075,0,0,0,.173.72ZM36.749-1.039a1.814,1.814,0,0,0,.982-.275,1.383,1.383,0,0,0,.582-.627V-2.9H37.162a1.455,1.455,0,0,0-.991.314.952.952,0,0,0-.358.738.752.752,0,0,0,.242.588A1,1,0,0,0,36.749-1.039ZM44.5-5.154l-.621-.024A1.3,1.3,0,0,0,43.172-5a1.18,1.18,0,0,0-.439.508V0H41.282V-6.462h1.326l.1.938a2.072,2.072,0,0,1,.63-.776,1.467,1.467,0,0,1,.887-.281,1.352,1.352,0,0,1,.245.021,1.788,1.788,0,0,1,.209.051Zm3.852,2.013a4.261,4.261,0,0,1,.663-2.493,2.144,2.144,0,0,1,1.863-.947,2.038,2.038,0,0,1,.941.212,2.129,2.129,0,0,1,.72.606V-9.316H53.99V0H52.814l-.173-.818a2.155,2.155,0,0,1-.752.7,2.093,2.093,0,0,1-1.021.242,2.2,2.2,0,0,1-1.851-.866,3.643,3.643,0,0,1-.663-2.275Zm1.451.125a2.6,2.6,0,0,0,.343,1.427,1.2,1.2,0,0,0,1.09.532,1.457,1.457,0,0,0,.779-.2,1.5,1.5,0,0,0,.523-.561V-4.634a1.528,1.528,0,0,0-.526-.558,1.421,1.421,0,0,0-.764-.2,1.17,1.17,0,0,0-1.093.624A3.293,3.293,0,0,0,49.8-3.141ZM58.29.125a2.813,2.813,0,0,1-2.213-.893,3.344,3.344,0,0,1-.8-2.314V-3.32a3.457,3.457,0,0,1,.8-2.344,2.576,2.576,0,0,1,2.057-.917,2.418,2.418,0,0,1,1.971.8,3.248,3.248,0,0,1,.669,2.147v.782h-4l-.012.03a2.117,2.117,0,0,0,.418,1.29,1.426,1.426,0,0,0,1.188.5A3.27,3.27,0,0,0,59.4-1.176a2.924,2.924,0,0,0,.8-.412l.472.95a3.075,3.075,0,0,1-.979.543A4.1,4.1,0,0,1,58.29.125Zm-.155-5.542a1.121,1.121,0,0,0-.908.409A2.027,2.027,0,0,0,56.8-3.941l.012.03h2.526v-.113a1.631,1.631,0,0,0-.29-1.006A1.072,1.072,0,0,0,58.135-5.417ZM68.89,0q-.078-.245-.128-.478a3.415,3.415,0,0,1-.069-.466,2.489,2.489,0,0,1-.782.761,2.013,2.013,0,0,1-1.093.308,2.148,2.148,0,0,1-1.55-.52,1.887,1.887,0,0,1-.54-1.427,1.686,1.686,0,0,1,.741-1.46A3.576,3.576,0,0,1,67.553-3.8h1.129v-.567a1.055,1.055,0,0,0-.3-.794,1.182,1.182,0,0,0-.857-.287,1.22,1.22,0,0,0-.788.236.75.75,0,0,0-.293.612l-1.4.006-.006-.036a1.6,1.6,0,0,1,.684-1.356,2.9,2.9,0,0,1,1.89-.591,2.764,2.764,0,0,1,1.821.573,2.018,2.018,0,0,1,.693,1.648v2.872a5.3,5.3,0,0,0,.054.767,4.075,4.075,0,0,0,.173.72ZM67.117-1.039a1.814,1.814,0,0,0,.982-.275,1.383,1.383,0,0,0,.582-.627V-2.9H67.529a1.455,1.455,0,0,0-.991.314.952.952,0,0,0-.358.738.752.752,0,0,0,.242.588A1,1,0,0,0,67.117-1.039ZM77.311-3.016a3.643,3.643,0,0,1-.663,2.275A2.192,2.192,0,0,1,74.8.125a2.285,2.285,0,0,1-.973-.2A2,2,0,0,1,73.1-.651V2.484H71.649V-6.462h1.224l.143.812a2.155,2.155,0,0,1,.749-.693,2.1,2.1,0,0,1,1.018-.239,2.146,2.146,0,0,1,1.86.947,4.247,4.247,0,0,1,.666,2.493Zm-1.445-.125a3.148,3.148,0,0,0-.373-1.621,1.214,1.214,0,0,0-1.114-.63,1.447,1.447,0,0,0-.77.194,1.429,1.429,0,0,0-.508.54v2.92a1.35,1.35,0,0,0,.508.523,1.547,1.547,0,0,0,.782.182A1.245,1.245,0,0,0,75.5-1.58a2.532,2.532,0,0,0,.367-1.436ZM80.124,0H78.672V-9.316h1.451Zm3.171,0H81.843V-6.462h1.451Zm0-8.044H81.843V-9.316h1.451Zm4.258,7.011a1.206,1.206,0,0,0,.839-.311,1.016,1.016,0,0,0,.343-.788h1.314l.012.036a1.948,1.948,0,0,1-.72,1.565,2.609,2.609,0,0,1-1.789.657A2.633,2.633,0,0,1,85.4-.8a3.542,3.542,0,0,1-.758-2.326v-.209A3.545,3.545,0,0,1,85.4-5.655a2.622,2.622,0,0,1,2.15-.926A2.534,2.534,0,0,1,89.38-5.9a2.213,2.213,0,0,1,.681,1.723l-.012.036H88.735a1.311,1.311,0,0,0-.328-.9,1.1,1.1,0,0,0-.86-.37,1.184,1.184,0,0,0-1.117.6,2.97,2.97,0,0,0-.34,1.484v.209a3,3,0,0,0,.337,1.5A1.191,1.191,0,0,0,87.553-1.033ZM95.173,0q-.078-.245-.128-.478a3.415,3.415,0,0,1-.069-.466,2.489,2.489,0,0,1-.782.761A2.013,2.013,0,0,1,93.1.125a2.148,2.148,0,0,1-1.55-.52,1.887,1.887,0,0,1-.54-1.427,1.686,1.686,0,0,1,.741-1.46A3.576,3.576,0,0,1,93.835-3.8h1.129v-.567a1.055,1.055,0,0,0-.3-.794,1.182,1.182,0,0,0-.857-.287,1.22,1.22,0,0,0-.788.236.75.75,0,0,0-.293.612l-1.4.006-.006-.036a1.6,1.6,0,0,1,.684-1.356,2.9,2.9,0,0,1,1.89-.591,2.764,2.764,0,0,1,1.821.573,2.018,2.018,0,0,1,.693,1.648v2.872a5.3,5.3,0,0,0,.054.767,4.074,4.074,0,0,0,.173.72ZM93.4-1.039a1.814,1.814,0,0,0,.982-.275,1.383,1.383,0,0,0,.582-.627V-2.9H93.811a1.455,1.455,0,0,0-.991.314.952.952,0,0,0-.358.738.752.752,0,0,0,.242.588A1,1,0,0,0,93.4-1.039Zm7.166.006a1.206,1.206,0,0,0,.839-.311,1.016,1.016,0,0,0,.343-.788h1.314l.012.036a1.948,1.948,0,0,1-.72,1.565,2.609,2.609,0,0,1-1.789.657A2.633,2.633,0,0,1,98.41-.8a3.542,3.542,0,0,1-.758-2.326v-.209a3.545,3.545,0,0,1,.758-2.323,2.622,2.622,0,0,1,2.15-.926,2.534,2.534,0,0,1,1.833.678,2.213,2.213,0,0,1,.681,1.723l-.012.036h-1.314a1.311,1.311,0,0,0-.328-.9,1.1,1.1,0,0,0-.86-.37,1.184,1.184,0,0,0-1.117.6,2.97,2.97,0,0,0-.34,1.484v.209a3,3,0,0,0,.337,1.5A1.191,1.191,0,0,0,100.565-1.033ZM105.839,0h-1.451V-6.462h1.451Zm0-8.044h-1.451V-9.316h1.451Zm1.356,4.754a3.509,3.509,0,0,1,.791-2.368,2.7,2.7,0,0,1,2.165-.923,2.723,2.723,0,0,1,2.183.923,3.509,3.509,0,0,1,.791,2.368v.125a3.5,3.5,0,0,1-.791,2.374,2.717,2.717,0,0,1-2.171.917,2.72,2.72,0,0,1-2.177-.92,3.506,3.506,0,0,1-.791-2.371Zm1.451.125a2.866,2.866,0,0,0,.37,1.541,1.257,1.257,0,0,0,1.147.591,1.26,1.26,0,0,0,1.138-.594,2.816,2.816,0,0,0,.379-1.538v-.125a2.81,2.81,0,0,0-.379-1.526,1.268,1.268,0,0,0-1.15-.6,1.243,1.243,0,0,0-1.132.6,2.845,2.845,0,0,0-.373,1.526Zm1.971-6.05h1.642l.012.036-1.63,1.553h-1.165ZM115.7-6.462l.084.932a2.311,2.311,0,0,1,.8-.773,2.127,2.127,0,0,1,1.084-.278,2.018,2.018,0,0,1,1.574.621,2.822,2.822,0,0,1,.564,1.941V0h-1.451V-4.007a1.561,1.561,0,0,0-.293-1.069,1.147,1.147,0,0,0-.884-.317,1.733,1.733,0,0,0-.806.176,1.412,1.412,0,0,0-.543.487V0h-1.451V-6.462Zm8.659,2.926a8.012,8.012,0,0,1,.935-4A4.939,4.939,0,0,1,127.32-9.7l.036.006.269.8a4.7,4.7,0,0,0-1.371,1.953,8.729,8.729,0,0,0-.57,3.392v.119a8.77,8.77,0,0,0,.567,3.392,5.008,5.008,0,0,0,1.374,1.995l-.269.764h-.036A4.953,4.953,0,0,1,125.3.561a8.015,8.015,0,0,1-.932-4Zm9.812.52a3.643,3.643,0,0,1-.663,2.275,2.192,2.192,0,0,1-1.845.866,2.285,2.285,0,0,1-.973-.2,2,2,0,0,1-.729-.579V2.484h-1.451V-6.462h1.224l.143.812a2.155,2.155,0,0,1,.749-.693,2.1,2.1,0,0,1,1.018-.239,2.146,2.146,0,0,1,1.86.947,4.247,4.247,0,0,1,.666,2.493Zm-1.445-.125a3.148,3.148,0,0,0-.373-1.621,1.214,1.214,0,0,0-1.114-.63,1.447,1.447,0,0,0-.77.194,1.429,1.429,0,0,0-.508.54v2.92a1.35,1.35,0,0,0,.508.523,1.547,1.547,0,0,0,.782.182,1.245,1.245,0,0,0,1.108-.546,2.532,2.532,0,0,0,.367-1.436Zm5.93-2.013-.621-.024a1.3,1.3,0,0,0-.708.179,1.18,1.18,0,0,0-.439.508V0h-1.451V-6.462h1.326l.1.938a2.072,2.072,0,0,1,.63-.776,1.467,1.467,0,0,1,.887-.281,1.353,1.353,0,0,1,.245.021,1.789,1.789,0,0,1,.209.051Zm3.7,5.279a2.814,2.814,0,0,1-2.213-.893,3.343,3.343,0,0,1-.8-2.314V-3.32a3.457,3.457,0,0,1,.8-2.344,2.576,2.576,0,0,1,2.057-.917,2.418,2.418,0,0,1,1.971.8,3.248,3.248,0,0,1,.669,2.147v.782h-4l-.012.03a2.117,2.117,0,0,0,.418,1.29,1.426,1.426,0,0,0,1.188.5,3.27,3.27,0,0,0,1.024-.143,2.924,2.924,0,0,0,.8-.412l.472.95a3.075,3.075,0,0,1-.979.543A4.1,4.1,0,0,1,142.363.125Zm-.155-5.542a1.121,1.121,0,0,0-.908.409,2.027,2.027,0,0,0-.424,1.066l.012.03h2.526v-.113a1.631,1.631,0,0,0-.29-1.006A1.072,1.072,0,0,0,142.208-5.417Zm6.45,4.383a1.206,1.206,0,0,0,.839-.311,1.016,1.016,0,0,0,.343-.788h1.314l.012.036a1.948,1.948,0,0,1-.72,1.565,2.609,2.609,0,0,1-1.789.657A2.633,2.633,0,0,1,146.5-.8a3.542,3.542,0,0,1-.758-2.326v-.209a3.545,3.545,0,0,1,.758-2.323,2.622,2.622,0,0,1,2.15-.926,2.534,2.534,0,0,1,1.833.678,2.213,2.213,0,0,1,.681,1.723l-.012.036H149.84a1.311,1.311,0,0,0-.328-.9,1.1,1.1,0,0,0-.86-.37,1.184,1.184,0,0,0-1.117.6,2.97,2.97,0,0,0-.34,1.484v.209a3,3,0,0,0,.337,1.5A1.191,1.191,0,0,0,148.657-1.033ZM153.931,0h-1.451V-6.462h1.451Zm0-8.044h-1.451V-9.316h1.451Zm5.255,6.276a.669.669,0,0,0-.284-.552,2.934,2.934,0,0,0-1.072-.391,4.36,4.36,0,0,1-1.744-.687,1.447,1.447,0,0,1-.6-1.218A1.755,1.755,0,0,1,156.17-6a2.721,2.721,0,0,1,1.809-.576,2.806,2.806,0,0,1,1.866.594,1.721,1.721,0,0,1,.678,1.43l-.012.036H159.12a.905.905,0,0,0-.311-.684,1.168,1.168,0,0,0-.83-.29,1.186,1.186,0,0,0-.8.239.747.747,0,0,0-.275.585.629.629,0,0,0,.257.526,2.815,2.815,0,0,0,1.057.352,4.378,4.378,0,0,1,1.792.7,1.482,1.482,0,0,1,.6,1.239,1.717,1.717,0,0,1-.72,1.424,3.031,3.031,0,0,1-1.9.552,2.894,2.894,0,0,1-1.989-.645A1.822,1.822,0,0,1,155.316-2l.012-.036h1.35a.968.968,0,0,0,.406.818,1.632,1.632,0,0,0,.932.257,1.46,1.46,0,0,0,.863-.221A.687.687,0,0,0,159.186-1.768ZM165.809,0q-.078-.245-.128-.478a3.415,3.415,0,0,1-.069-.466,2.489,2.489,0,0,1-.782.761,2.013,2.013,0,0,1-1.093.308,2.148,2.148,0,0,1-1.55-.52,1.887,1.887,0,0,1-.54-1.427,1.686,1.686,0,0,1,.741-1.46,3.576,3.576,0,0,1,2.084-.523H165.6v-.567a1.055,1.055,0,0,0-.3-.794,1.182,1.182,0,0,0-.857-.287,1.22,1.22,0,0,0-.788.236.75.75,0,0,0-.293.612l-1.4.006-.006-.036a1.6,1.6,0,0,1,.684-1.356,2.9,2.9,0,0,1,1.89-.591,2.765,2.765,0,0,1,1.821.573,2.018,2.018,0,0,1,.693,1.648v2.872a5.3,5.3,0,0,0,.054.767,4.074,4.074,0,0,0,.173.72Zm-1.774-1.039a1.814,1.814,0,0,0,.982-.275,1.383,1.383,0,0,0,.582-.627V-2.9h-1.153a1.455,1.455,0,0,0-.991.314.952.952,0,0,0-.358.738.752.752,0,0,0,.242.588A1,1,0,0,0,164.035-1.039Zm7.752-4.115-.621-.024a1.3,1.3,0,0,0-.708.179,1.18,1.18,0,0,0-.439.508V0h-1.451V-6.462h1.326l.1.938a2.072,2.072,0,0,1,.63-.776,1.467,1.467,0,0,1,.887-.281,1.353,1.353,0,0,1,.245.021,1.789,1.789,0,0,1,.209.051ZM178.648.125a2.814,2.814,0,0,1-2.213-.893,3.343,3.343,0,0,1-.8-2.314V-3.32a3.457,3.457,0,0,1,.8-2.344,2.576,2.576,0,0,1,2.057-.917,2.418,2.418,0,0,1,1.971.8,3.248,3.248,0,0,1,.669,2.147v.782h-4l-.012.03a2.117,2.117,0,0,0,.418,1.29,1.426,1.426,0,0,0,1.188.5,3.27,3.27,0,0,0,1.024-.143,2.924,2.924,0,0,0,.8-.412l.472.95a3.075,3.075,0,0,1-.979.543A4.1,4.1,0,0,1,178.648.125Zm-.155-5.542a1.121,1.121,0,0,0-.908.409,2.027,2.027,0,0,0-.424,1.066l.012.03H179.7v-.113a1.631,1.631,0,0,0-.29-1.006A1.072,1.072,0,0,0,178.493-5.417ZM183.856,0H182.4V-9.316h1.451Zm6.217,0h-1.451V-9.316h1.451Zm5.655-.956a2.168,2.168,0,0,1-.767.8,2.069,2.069,0,0,1-1.084.281,2.024,2.024,0,0,1-1.624-.684,3.215,3.215,0,0,1-.585-2.123v-3.78h1.445v3.792a2.159,2.159,0,0,0,.269,1.269,1,1,0,0,0,.836.343,1.866,1.866,0,0,0,.881-.188,1.366,1.366,0,0,0,.558-.546v-4.67h1.451V0h-1.248ZM198.4-3.141a4.261,4.261,0,0,1,.663-2.493,2.144,2.144,0,0,1,1.863-.947,2.036,2.036,0,0,1,1.018.248,2.151,2.151,0,0,1,.744.714l.143-.842h1.206V0a2.438,2.438,0,0,1-.77,1.929,3.194,3.194,0,0,1-2.186.681,4.279,4.279,0,0,1-1.018-.134,4.73,4.73,0,0,1-.988-.355l.233-1.141a3.677,3.677,0,0,0,.827.29,4.178,4.178,0,0,0,.935.1,1.658,1.658,0,0,0,1.153-.337A1.347,1.347,0,0,0,202.584,0V-.663a2.03,2.03,0,0,1-.72.588,2.168,2.168,0,0,1-.953.2,2.2,2.2,0,0,1-1.851-.866,3.643,3.643,0,0,1-.663-2.275Zm1.445.125a2.585,2.585,0,0,0,.346,1.427,1.21,1.21,0,0,0,1.093.532,1.487,1.487,0,0,0,.785-.194,1.433,1.433,0,0,0,.517-.558V-4.64a1.551,1.551,0,0,0-.523-.552,1.417,1.417,0,0,0-.767-.2,1.175,1.175,0,0,0-1.1.624,3.293,3.293,0,0,0-.352,1.627ZM209.446,0q-.078-.245-.128-.478a3.415,3.415,0,0,1-.069-.466,2.489,2.489,0,0,1-.782.761,2.013,2.013,0,0,1-1.093.308,2.148,2.148,0,0,1-1.55-.52,1.887,1.887,0,0,1-.54-1.427,1.686,1.686,0,0,1,.741-1.46,3.576,3.576,0,0,1,2.084-.523h1.129v-.567a1.055,1.055,0,0,0-.3-.794,1.182,1.182,0,0,0-.857-.287,1.22,1.22,0,0,0-.788.236A.75.75,0,0,0,207-4.6l-1.4.006-.006-.036a1.6,1.6,0,0,1,.684-1.356,2.9,2.9,0,0,1,1.89-.591A2.765,2.765,0,0,1,210-6.008a2.018,2.018,0,0,1,.693,1.648v2.872a5.3,5.3,0,0,0,.054.767,4.074,4.074,0,0,0,.173.72Zm-1.774-1.039a1.814,1.814,0,0,0,.982-.275,1.383,1.383,0,0,0,.582-.627V-2.9h-1.153a1.455,1.455,0,0,0-.991.314.952.952,0,0,0-.358.738.752.752,0,0,0,.242.588A1,1,0,0,0,207.672-1.039Zm7.752-4.115-.621-.024a1.3,1.3,0,0,0-.708.179,1.18,1.18,0,0,0-.439.508V0H212.2V-6.462h1.326l.1.938a2.072,2.072,0,0,1,.63-.776,1.467,1.467,0,0,1,.887-.281,1.353,1.353,0,0,1,.245.021,1.789,1.789,0,0,1,.209.051ZM222.285.125a2.814,2.814,0,0,1-2.213-.893,3.343,3.343,0,0,1-.8-2.314V-3.32a3.457,3.457,0,0,1,.8-2.344,2.576,2.576,0,0,1,2.057-.917,2.418,2.418,0,0,1,1.971.8,3.248,3.248,0,0,1,.669,2.147v.782h-4l-.012.03a2.117,2.117,0,0,0,.418,1.29,1.426,1.426,0,0,0,1.188.5,3.27,3.27,0,0,0,1.024-.143,2.924,2.924,0,0,0,.8-.412l.472.95a3.075,3.075,0,0,1-.979.543A4.1,4.1,0,0,1,222.285.125Zm-.155-5.542a1.121,1.121,0,0,0-.908.409,2.027,2.027,0,0,0-.424,1.066l.012.03h2.526v-.113a1.631,1.631,0,0,0-.29-1.006A1.072,1.072,0,0,0,222.13-5.417Zm7.447,3.649a.669.669,0,0,0-.284-.552,2.934,2.934,0,0,0-1.072-.391,4.36,4.36,0,0,1-1.744-.687,1.447,1.447,0,0,1-.6-1.218A1.755,1.755,0,0,1,226.561-6a2.721,2.721,0,0,1,1.809-.576,2.806,2.806,0,0,1,1.866.594,1.721,1.721,0,0,1,.678,1.43l-.012.036h-1.391A.905.905,0,0,0,229.2-5.2a1.168,1.168,0,0,0-.83-.29,1.186,1.186,0,0,0-.8.239.747.747,0,0,0-.275.585.629.629,0,0,0,.257.526,2.815,2.815,0,0,0,1.057.352,4.378,4.378,0,0,1,1.792.7,1.482,1.482,0,0,1,.6,1.239,1.717,1.717,0,0,1-.72,1.424,3.031,3.031,0,0,1-1.9.552A2.894,2.894,0,0,1,226.4-.52,1.822,1.822,0,0,1,225.707-2l.012-.036h1.35a.968.968,0,0,0,.406.818,1.632,1.632,0,0,0,.932.257,1.46,1.46,0,0,0,.863-.221A.687.687,0,0,0,229.577-1.768Zm8.391-1.248A3.643,3.643,0,0,1,237.3-.741a2.192,2.192,0,0,1-1.845.866,2.285,2.285,0,0,1-.973-.2,2,2,0,0,1-.729-.579V2.484h-1.451V-6.462h1.224l.143.812a2.155,2.155,0,0,1,.749-.693,2.1,2.1,0,0,1,1.018-.239,2.146,2.146,0,0,1,1.86.947,4.247,4.247,0,0,1,.666,2.493Zm-1.445-.125a3.148,3.148,0,0,0-.373-1.621,1.214,1.214,0,0,0-1.114-.63,1.447,1.447,0,0,0-.77.194,1.429,1.429,0,0,0-.508.54v2.92a1.35,1.35,0,0,0,.508.523,1.547,1.547,0,0,0,.782.182,1.245,1.245,0,0,0,1.108-.546,2.532,2.532,0,0,0,.367-1.436ZM241.975.125a2.814,2.814,0,0,1-2.213-.893,3.343,3.343,0,0,1-.8-2.314V-3.32a3.457,3.457,0,0,1,.8-2.344,2.576,2.576,0,0,1,2.057-.917,2.418,2.418,0,0,1,1.971.8,3.248,3.248,0,0,1,.669,2.147v.782h-4l-.012.03a2.117,2.117,0,0,0,.418,1.29,1.426,1.426,0,0,0,1.188.5,3.27,3.27,0,0,0,1.024-.143,2.924,2.924,0,0,0,.8-.412l.472.95a3.075,3.075,0,0,1-.979.543A4.1,4.1,0,0,1,241.975.125Zm-.155-5.542a1.121,1.121,0,0,0-.908.409,2.027,2.027,0,0,0-.424,1.066l.012.03h2.526v-.113a1.631,1.631,0,0,0-.29-1.006A1.072,1.072,0,0,0,241.819-5.417Zm6.45,4.383a1.206,1.206,0,0,0,.839-.311,1.016,1.016,0,0,0,.343-.788h1.314l.012.036a1.948,1.948,0,0,1-.72,1.565,2.609,2.609,0,0,1-1.789.657A2.633,2.633,0,0,1,246.113-.8a3.542,3.542,0,0,1-.758-2.326v-.209a3.545,3.545,0,0,1,.758-2.323,2.622,2.622,0,0,1,2.15-.926A2.534,2.534,0,0,1,250.1-5.9a2.213,2.213,0,0,1,.681,1.723l-.012.036h-1.314a1.311,1.311,0,0,0-.328-.9,1.1,1.1,0,0,0-.86-.37,1.184,1.184,0,0,0-1.117.6,2.97,2.97,0,0,0-.34,1.484v.209a3,3,0,0,0,.337,1.5A1.191,1.191,0,0,0,248.269-1.033ZM253.536,0h-1.451V-6.462h1.451Zm-.263-9.089h1.642l.012.036L253.3-7.5h-1.165ZM255.573,0V-5.387h-.985V-6.462h.985v-.549a2.323,2.323,0,0,1,.687-1.8,2.732,2.732,0,0,1,1.923-.633,3.993,3.993,0,0,1,.854.093q.424.093.973.266l-.221,1.2a7.194,7.194,0,0,0-.729-.206,3.534,3.534,0,0,0-.776-.081,1.348,1.348,0,0,0-.956.29,1.145,1.145,0,0,0-.3.869v.549H258.3v1.075h-1.272V0ZM260.7,0h-1.451V-6.462H260.7Zm4.264-1.033a1.206,1.206,0,0,0,.839-.311,1.016,1.016,0,0,0,.343-.788h1.314l.012.036a1.948,1.948,0,0,1-.72,1.565,2.609,2.609,0,0,1-1.789.657A2.633,2.633,0,0,1,262.8-.8a3.542,3.542,0,0,1-.758-2.326v-.209a3.545,3.545,0,0,1,.758-2.323,2.622,2.622,0,0,1,2.15-.926,2.534,2.534,0,0,1,1.833.678,2.213,2.213,0,0,1,.681,1.723l-.012.036h-1.314a1.311,1.311,0,0,0-.328-.9,1.1,1.1,0,0,0-.86-.37,1.184,1.184,0,0,0-1.117.6,2.97,2.97,0,0,0-.34,1.484v.209a3,3,0,0,0,.337,1.5A1.191,1.191,0,0,0,264.961-1.033Zm3.458-2.257a3.509,3.509,0,0,1,.791-2.368,2.7,2.7,0,0,1,2.165-.923,2.723,2.723,0,0,1,2.183.923,3.509,3.509,0,0,1,.791,2.368v.125a3.5,3.5,0,0,1-.791,2.374,2.717,2.717,0,0,1-2.171.917,2.72,2.72,0,0,1-2.177-.92,3.506,3.506,0,0,1-.791-2.371Zm1.451.125a2.866,2.866,0,0,0,.37,1.541,1.257,1.257,0,0,0,1.147.591,1.26,1.26,0,0,0,1.138-.594,2.816,2.816,0,0,0,.379-1.538v-.125a2.81,2.81,0,0,0-.379-1.526,1.268,1.268,0,0,0-1.15-.6,1.243,1.243,0,0,0-1.132.6,2.845,2.845,0,0,0-.373,1.526Zm8.391-.275a7.91,7.91,0,0,1-.953,3.989,5.008,5.008,0,0,1-2.045,2.174h-.036l-.275-.764a4.741,4.741,0,0,0,1.368-1.971,8.843,8.843,0,0,0,.573-3.416v-.119a8.6,8.6,0,0,0-.588-3.4,5.129,5.129,0,0,0-1.353-1.986l.275-.77h.036A4.992,4.992,0,0,1,277.3-7.525a7.911,7.911,0,0,1,.956,3.989Z" transform="translate(-6311.92 -14121.679)" fill="#0c1d30"/>
    <path id="Trazado_204376" data-name="Trazado 204376" d="M3.464-5.04a1.291,1.291,0,0,0,1.015-.352,1.441,1.441,0,0,0,.311-.985A1.292,1.292,0,0,0,4.455-7.3a1.265,1.265,0,0,0-.967-.355,1.4,1.4,0,0,0-.973.349,1.128,1.128,0,0,0-.388.875H.735L.723-6.468a2.012,2.012,0,0,1,.761-1.675,2.985,2.985,0,0,1,2-.678A3.012,3.012,0,0,1,5.5-8.2a2.249,2.249,0,0,1,.738,1.818,1.964,1.964,0,0,1-.325,1.1A2.2,2.2,0,0,1,5-4.5a2.116,2.116,0,0,1,1.015.791,2.246,2.246,0,0,1,.352,1.275A2.33,2.33,0,0,1,5.566-.555,3.11,3.11,0,0,1,3.488.125,3.267,3.267,0,0,1,1.475-.523,2.019,2.019,0,0,1,.639-2.293l.012-.036h1.4a1.207,1.207,0,0,0,.4.923,1.465,1.465,0,0,0,1.036.373,1.406,1.406,0,0,0,1.045-.391,1.368,1.368,0,0,0,.388-1.006,1.51,1.51,0,0,0-.361-1.1,1.483,1.483,0,0,0-1.1-.364H2.5V-5.04ZM9.31,0H7.865V-1.391H9.31Zm6.468-3.607V0H14.327V-8.7h2.992a3.431,3.431,0,0,1,2.245.657,2.3,2.3,0,0,1,.794,1.875A1.939,1.939,0,0,1,20.009-5a2.4,2.4,0,0,1-1.018.779,1.837,1.837,0,0,1,1.06.758,2.429,2.429,0,0,1,.325,1.3v.723a2.93,2.93,0,0,0,.1.746,1.069,1.069,0,0,0,.317.555V0H19.3a.955.955,0,0,1-.3-.615,5.378,5.378,0,0,1-.066-.836v-.7a1.455,1.455,0,0,0-.385-1.063,1.4,1.4,0,0,0-1.048-.394Zm0-1.165h1.463a1.969,1.969,0,0,0,1.272-.334,1.256,1.256,0,0,0,.4-1.021,1.351,1.351,0,0,0-.394-1.03,1.691,1.691,0,0,0-1.2-.373H15.778ZM24.7.125a2.813,2.813,0,0,1-2.213-.893,3.344,3.344,0,0,1-.8-2.314V-3.32a3.457,3.457,0,0,1,.8-2.344,2.576,2.576,0,0,1,2.057-.917,2.418,2.418,0,0,1,1.971.8,3.248,3.248,0,0,1,.669,2.147v.782h-4l-.012.03a2.117,2.117,0,0,0,.418,1.29,1.426,1.426,0,0,0,1.188.5,3.27,3.27,0,0,0,1.024-.143,2.924,2.924,0,0,0,.8-.412l.472.95A3.075,3.075,0,0,1,26.1-.1,4.1,4.1,0,0,1,24.7.125Zm-.155-5.542a1.121,1.121,0,0,0-.908.409,2.027,2.027,0,0,0-.424,1.066l.012.03h2.526v-.113a1.631,1.631,0,0,0-.29-1.006A1.072,1.072,0,0,0,24.545-5.417Zm7.447,3.649a.669.669,0,0,0-.284-.552,2.934,2.934,0,0,0-1.072-.391A4.36,4.36,0,0,1,28.892-3.4a1.447,1.447,0,0,1-.6-1.218A1.755,1.755,0,0,1,28.976-6a2.721,2.721,0,0,1,1.809-.576,2.806,2.806,0,0,1,1.866.594,1.721,1.721,0,0,1,.678,1.43l-.012.036H31.926a.905.905,0,0,0-.311-.684,1.168,1.168,0,0,0-.83-.29,1.186,1.186,0,0,0-.8.239.747.747,0,0,0-.275.585.629.629,0,0,0,.257.526,2.815,2.815,0,0,0,1.057.352,4.378,4.378,0,0,1,1.792.7,1.482,1.482,0,0,1,.6,1.239A1.717,1.717,0,0,1,32.7-.427a3.031,3.031,0,0,1-1.9.552A2.894,2.894,0,0,1,28.815-.52,1.822,1.822,0,0,1,28.122-2l.012-.036h1.35a.968.968,0,0,0,.406.818,1.632,1.632,0,0,0,.932.257,1.46,1.46,0,0,0,.863-.221A.687.687,0,0,0,31.992-1.768Zm8.391-1.248a3.643,3.643,0,0,1-.663,2.275,2.192,2.192,0,0,1-1.845.866,2.285,2.285,0,0,1-.973-.2,2,2,0,0,1-.729-.579V2.484H34.721V-6.462h1.224l.143.812a2.155,2.155,0,0,1,.749-.693,2.1,2.1,0,0,1,1.018-.239,2.146,2.146,0,0,1,1.86.947,4.247,4.247,0,0,1,.666,2.493Zm-1.445-.125a3.148,3.148,0,0,0-.373-1.621,1.214,1.214,0,0,0-1.114-.63,1.447,1.447,0,0,0-.77.194,1.429,1.429,0,0,0-.508.54v2.92a1.35,1.35,0,0,0,.508.523,1.547,1.547,0,0,0,.782.182A1.245,1.245,0,0,0,38.57-1.58a2.532,2.532,0,0,0,.367-1.436Zm2.443-.149a3.509,3.509,0,0,1,.791-2.368,2.7,2.7,0,0,1,2.165-.923,2.723,2.723,0,0,1,2.183.923,3.509,3.509,0,0,1,.791,2.368v.125a3.5,3.5,0,0,1-.791,2.374,2.717,2.717,0,0,1-2.171.917,2.72,2.72,0,0,1-2.177-.92,3.506,3.506,0,0,1-.791-2.371Zm1.451.125a2.866,2.866,0,0,0,.37,1.541,1.257,1.257,0,0,0,1.147.591,1.26,1.26,0,0,0,1.138-.594,2.816,2.816,0,0,0,.379-1.538v-.125a2.81,2.81,0,0,0-.379-1.526,1.268,1.268,0,0,0-1.15-.6,1.243,1.243,0,0,0-1.132.6,2.845,2.845,0,0,0-.373,1.526Zm7.059-3.3.084.932a2.311,2.311,0,0,1,.8-.773,2.127,2.127,0,0,1,1.084-.278,2.018,2.018,0,0,1,1.574.621,2.822,2.822,0,0,1,.564,1.941V0H52.541V-4.007a1.561,1.561,0,0,0-.293-1.069,1.147,1.147,0,0,0-.884-.317,1.733,1.733,0,0,0-.806.176,1.412,1.412,0,0,0-.543.487V0H48.564V-6.462Zm9.245,4.694a.669.669,0,0,0-.284-.552,2.934,2.934,0,0,0-1.072-.391A4.36,4.36,0,0,1,56.035-3.4a1.447,1.447,0,0,1-.6-1.218A1.755,1.755,0,0,1,56.118-6a2.721,2.721,0,0,1,1.809-.576,2.806,2.806,0,0,1,1.866.594,1.721,1.721,0,0,1,.678,1.43l-.012.036H59.068a.905.905,0,0,0-.311-.684,1.168,1.168,0,0,0-.83-.29,1.186,1.186,0,0,0-.8.239.747.747,0,0,0-.275.585.629.629,0,0,0,.257.526,2.815,2.815,0,0,0,1.057.352,4.378,4.378,0,0,1,1.792.7,1.482,1.482,0,0,1,.6,1.239,1.717,1.717,0,0,1-.72,1.424,3.031,3.031,0,0,1-1.9.552A2.894,2.894,0,0,1,55.957-.52,1.822,1.822,0,0,1,55.264-2l.012-.036h1.35a.968.968,0,0,0,.406.818,1.632,1.632,0,0,0,.932.257,1.46,1.46,0,0,0,.863-.221A.687.687,0,0,0,59.134-1.768ZM65.757,0q-.078-.245-.128-.478a3.414,3.414,0,0,1-.069-.466,2.489,2.489,0,0,1-.782.761,2.013,2.013,0,0,1-1.093.308,2.148,2.148,0,0,1-1.55-.52,1.887,1.887,0,0,1-.54-1.427,1.686,1.686,0,0,1,.741-1.46A3.576,3.576,0,0,1,64.419-3.8h1.129v-.567a1.055,1.055,0,0,0-.3-.794,1.182,1.182,0,0,0-.857-.287,1.22,1.22,0,0,0-.788.236.75.75,0,0,0-.293.612l-1.4.006-.006-.036a1.6,1.6,0,0,1,.684-1.356,2.9,2.9,0,0,1,1.89-.591,2.764,2.764,0,0,1,1.821.573A2.018,2.018,0,0,1,67-4.36v2.872a5.3,5.3,0,0,0,.054.767,4.075,4.075,0,0,0,.173.72ZM63.983-1.039a1.814,1.814,0,0,0,.982-.275,1.383,1.383,0,0,0,.582-.627V-2.9H64.4a1.455,1.455,0,0,0-.991.314.952.952,0,0,0-.358.738.752.752,0,0,0,.242.588A1,1,0,0,0,63.983-1.039ZM74.189-3.016a3.652,3.652,0,0,1-.66,2.278,2.206,2.206,0,0,1-1.86.863,2.129,2.129,0,0,1-1.057-.251,2.072,2.072,0,0,1-.746-.729L69.692,0H68.516V-9.316h1.451v3.589a2.084,2.084,0,0,1,.717-.633,2.053,2.053,0,0,1,.973-.221,2.15,2.15,0,0,1,1.872.944,4.273,4.273,0,0,1,.66,2.5Zm-1.451-.125a3.336,3.336,0,0,0-.346-1.63,1.168,1.168,0,0,0-1.1-.621,1.437,1.437,0,0,0-.809.215,1.5,1.5,0,0,0-.517.6v2.711a1.423,1.423,0,0,0,.514.6,1.491,1.491,0,0,0,.824.212A1.2,1.2,0,0,0,72.4-1.586a2.617,2.617,0,0,0,.34-1.43ZM76.99,0H75.539V-6.462H76.99Zm0-8.044H75.539V-9.316H76.99ZM80.161,0H78.71V-9.316h1.451Zm3.171,0H81.881V-6.462h1.451Zm0-8.044H81.881V-9.316h1.451Zm1.356,4.9a4.261,4.261,0,0,1,.663-2.493,2.144,2.144,0,0,1,1.863-.947,2.038,2.038,0,0,1,.941.212,2.129,2.129,0,0,1,.72.606V-9.316h1.451V0H89.149l-.173-.818a2.155,2.155,0,0,1-.752.7A2.093,2.093,0,0,1,87.2.125a2.2,2.2,0,0,1-1.851-.866,3.643,3.643,0,0,1-.663-2.275Zm1.451.125a2.6,2.6,0,0,0,.343,1.427,1.2,1.2,0,0,0,1.09.532,1.457,1.457,0,0,0,.779-.2,1.5,1.5,0,0,0,.523-.561V-4.634a1.528,1.528,0,0,0-.526-.558,1.421,1.421,0,0,0-.764-.2,1.17,1.17,0,0,0-1.093.624,3.293,3.293,0,0,0-.352,1.627ZM95.778,0q-.078-.245-.128-.478a3.415,3.415,0,0,1-.069-.466,2.489,2.489,0,0,1-.782.761,2.013,2.013,0,0,1-1.093.308,2.148,2.148,0,0,1-1.55-.52,1.887,1.887,0,0,1-.54-1.427,1.686,1.686,0,0,1,.741-1.46A3.576,3.576,0,0,1,94.44-3.8h1.129v-.567a1.055,1.055,0,0,0-.3-.794,1.182,1.182,0,0,0-.857-.287,1.22,1.22,0,0,0-.788.236.75.75,0,0,0-.293.612l-1.4.006-.006-.036a1.6,1.6,0,0,1,.684-1.356,2.9,2.9,0,0,1,1.89-.591,2.764,2.764,0,0,1,1.821.573A2.018,2.018,0,0,1,97.02-4.36v2.872a5.3,5.3,0,0,0,.054.767,4.075,4.075,0,0,0,.173.72ZM94-1.039a1.814,1.814,0,0,0,.982-.275,1.383,1.383,0,0,0,.582-.627V-2.9H94.416a1.455,1.455,0,0,0-.991.314.952.952,0,0,0-.358.738.752.752,0,0,0,.242.588A1,1,0,0,0,94-1.039Zm4.264-2.1a4.261,4.261,0,0,1,.663-2.493,2.144,2.144,0,0,1,1.863-.947,2.038,2.038,0,0,1,.941.212,2.129,2.129,0,0,1,.72.606V-9.316h1.451V0h-1.176l-.173-.818a2.155,2.155,0,0,1-.752.7,2.093,2.093,0,0,1-1.021.242,2.2,2.2,0,0,1-1.851-.866,3.643,3.643,0,0,1-.663-2.275Zm1.451.125a2.6,2.6,0,0,0,.343,1.427,1.2,1.2,0,0,0,1.09.532,1.457,1.457,0,0,0,.779-.2,1.5,1.5,0,0,0,.523-.561V-4.634a1.528,1.528,0,0,0-.526-.558,1.421,1.421,0,0,0-.764-.2,1.17,1.17,0,0,0-1.093.624,3.293,3.293,0,0,0-.352,1.627ZM108.205.125a2.813,2.813,0,0,1-2.213-.893,3.344,3.344,0,0,1-.8-2.314V-3.32a3.457,3.457,0,0,1,.8-2.344,2.576,2.576,0,0,1,2.057-.917,2.418,2.418,0,0,1,1.971.8,3.248,3.248,0,0,1,.669,2.147v.782h-4l-.012.03a2.117,2.117,0,0,0,.418,1.29,1.426,1.426,0,0,0,1.188.5,3.27,3.27,0,0,0,1.024-.143,2.924,2.924,0,0,0,.8-.412l.472.95a3.075,3.075,0,0,1-.979.543A4.1,4.1,0,0,1,108.205.125Zm-.155-5.542a1.121,1.121,0,0,0-.908.409,2.027,2.027,0,0,0-.424,1.066l.012.03h2.526v-.113a1.631,1.631,0,0,0-.29-1.006A1.072,1.072,0,0,0,108.05-5.417ZM115.5-1.768a.669.669,0,0,0-.284-.552,2.934,2.934,0,0,0-1.072-.391A4.36,4.36,0,0,1,112.4-3.4a1.447,1.447,0,0,1-.6-1.218A1.755,1.755,0,0,1,112.481-6a2.721,2.721,0,0,1,1.809-.576,2.806,2.806,0,0,1,1.866.594,1.721,1.721,0,0,1,.678,1.43l-.012.036h-1.391a.905.905,0,0,0-.311-.684,1.168,1.168,0,0,0-.83-.29,1.186,1.186,0,0,0-.8.239.747.747,0,0,0-.275.585.629.629,0,0,0,.257.526,2.815,2.815,0,0,0,1.057.352,4.378,4.378,0,0,1,1.792.7,1.482,1.482,0,0,1,.6,1.239,1.717,1.717,0,0,1-.72,1.424,3.031,3.031,0,0,1-1.9.552A2.894,2.894,0,0,1,112.32-.52,1.822,1.822,0,0,1,111.627-2l.012-.036h1.35a.968.968,0,0,0,.406.818,1.632,1.632,0,0,0,.932.257,1.46,1.46,0,0,0,.863-.221A.687.687,0,0,0,115.5-1.768Z" transform="translate(-6311.92 -14093.903)" fill="#0c1d30"/>
    <path id="Trazado_204377" data-name="Trazado 204377" d="M5.506-3.1H6.6v1.17h-1.1V0H4.061V-1.929H.424l-.036-.89L4.019-8.7H5.506Zm-3.7,0H4.061V-6.647l-.036-.006-.137.334ZM9.31,0H7.865V-1.391H9.31ZM15.9,0H14.446V-8.7H15.9Zm3.111-6.462.084.932a2.311,2.311,0,0,1,.8-.773,2.127,2.127,0,0,1,1.084-.278,2.018,2.018,0,0,1,1.574.621,2.822,2.822,0,0,1,.564,1.941V0H21.66V-4.007a1.561,1.561,0,0,0-.293-1.069,1.147,1.147,0,0,0-.884-.317,1.733,1.733,0,0,0-.806.176,1.412,1.412,0,0,0-.543.487V0H17.683V-6.462Zm9.245,4.694a.669.669,0,0,0-.284-.552A2.934,2.934,0,0,0,26.9-2.711,4.36,4.36,0,0,1,25.154-3.4a1.447,1.447,0,0,1-.6-1.218A1.755,1.755,0,0,1,25.237-6a2.721,2.721,0,0,1,1.809-.576,2.806,2.806,0,0,1,1.866.594,1.721,1.721,0,0,1,.678,1.43l-.012.036H28.187a.905.905,0,0,0-.311-.684,1.168,1.168,0,0,0-.83-.29,1.186,1.186,0,0,0-.8.239.747.747,0,0,0-.275.585.629.629,0,0,0,.257.526,2.815,2.815,0,0,0,1.057.352,4.378,4.378,0,0,1,1.792.7,1.482,1.482,0,0,1,.6,1.239,1.717,1.717,0,0,1-.72,1.424,3.031,3.031,0,0,1-1.9.552A2.894,2.894,0,0,1,25.076-.52,1.822,1.822,0,0,1,24.383-2l.012-.036h1.35a.968.968,0,0,0,.406.818,1.632,1.632,0,0,0,.932.257,1.46,1.46,0,0,0,.863-.221A.687.687,0,0,0,28.253-1.768ZM32.84-8.032v1.571H34v1.075H32.84v3.571a.779.779,0,0,0,.173.57.628.628,0,0,0,.46.17,1.283,1.283,0,0,0,.233-.021,1.416,1.416,0,0,0,.215-.057L34.076-.09a1.667,1.667,0,0,1-.439.158,2.416,2.416,0,0,1-.529.057,1.674,1.674,0,0,1-1.257-.469,2.044,2.044,0,0,1-.457-1.472V-5.387h-.985V-6.462h.985V-8.032Zm5.548,2.878-.621-.024A1.3,1.3,0,0,0,37.059-5a1.18,1.18,0,0,0-.439.508V0H35.169V-6.462h1.326l.1.938a2.072,2.072,0,0,1,.63-.776,1.467,1.467,0,0,1,.887-.281,1.352,1.352,0,0,1,.245.021,1.788,1.788,0,0,1,.209.051Zm5.106,4.2a2.168,2.168,0,0,1-.767.8,2.069,2.069,0,0,1-1.084.281,2.024,2.024,0,0,1-1.624-.684,3.215,3.215,0,0,1-.585-2.123v-3.78h1.445v3.792A2.159,2.159,0,0,0,41.147-1.4a1,1,0,0,0,.836.343,1.866,1.866,0,0,0,.881-.188,1.366,1.366,0,0,0,.558-.546v-4.67h1.451V0H43.625Zm5.53-.078a1.206,1.206,0,0,0,.839-.311,1.016,1.016,0,0,0,.343-.788H51.52l.012.036a1.948,1.948,0,0,1-.72,1.565,2.609,2.609,0,0,1-1.789.657A2.633,2.633,0,0,1,46.868-.8a3.542,3.542,0,0,1-.758-2.326v-.209a3.545,3.545,0,0,1,.758-2.323,2.622,2.622,0,0,1,2.15-.926,2.534,2.534,0,0,1,1.833.678,2.213,2.213,0,0,1,.681,1.723l-.012.036H50.206a1.311,1.311,0,0,0-.328-.9,1.1,1.1,0,0,0-.86-.37,1.184,1.184,0,0,0-1.117.6,2.97,2.97,0,0,0-.34,1.484v.209a3,3,0,0,0,.337,1.5A1.191,1.191,0,0,0,49.024-1.033Zm6.36,0a1.206,1.206,0,0,0,.839-.311,1.016,1.016,0,0,0,.343-.788H57.88l.012.036a1.948,1.948,0,0,1-.72,1.565,2.609,2.609,0,0,1-1.789.657A2.633,2.633,0,0,1,53.228-.8a3.542,3.542,0,0,1-.758-2.326v-.209a3.545,3.545,0,0,1,.758-2.323,2.622,2.622,0,0,1,2.15-.926,2.534,2.534,0,0,1,1.833.678,2.213,2.213,0,0,1,.681,1.723l-.012.036H56.566a1.311,1.311,0,0,0-.328-.9,1.1,1.1,0,0,0-.86-.37,1.184,1.184,0,0,0-1.117.6,2.97,2.97,0,0,0-.34,1.484v.209a3,3,0,0,0,.337,1.5A1.191,1.191,0,0,0,55.384-1.033ZM60.657,0H59.206V-6.462h1.451Zm0-8.044H59.206V-9.316h1.451Zm1.356,4.754A3.509,3.509,0,0,1,62.8-5.658a2.7,2.7,0,0,1,2.165-.923,2.723,2.723,0,0,1,2.183.923,3.509,3.509,0,0,1,.791,2.368v.125a3.5,3.5,0,0,1-.791,2.374,2.717,2.717,0,0,1-2.171.917A2.72,2.72,0,0,1,62.8-.794a3.506,3.506,0,0,1-.791-2.371Zm1.451.125a2.866,2.866,0,0,0,.37,1.541,1.257,1.257,0,0,0,1.147.591,1.26,1.26,0,0,0,1.138-.594A2.816,2.816,0,0,0,66.5-3.165v-.125a2.81,2.81,0,0,0-.379-1.526,1.268,1.268,0,0,0-1.15-.6,1.243,1.243,0,0,0-1.132.6,2.845,2.845,0,0,0-.373,1.526Zm1.971-6.05h1.642l.012.036-1.63,1.553H64.294Zm5.088,2.753.084.932a2.311,2.311,0,0,1,.8-.773,2.127,2.127,0,0,1,1.084-.278,2.018,2.018,0,0,1,1.574.621,2.822,2.822,0,0,1,.564,1.941V0H73.174V-4.007a1.561,1.561,0,0,0-.293-1.069A1.147,1.147,0,0,0,72-5.393a1.733,1.733,0,0,0-.806.176,1.412,1.412,0,0,0-.543.487V0H69.2V-6.462Zm8.659,2.926a8.012,8.012,0,0,1,.935-4A4.939,4.939,0,0,1,82.138-9.7l.036.006.269.8a4.7,4.7,0,0,0-1.371,1.953,8.729,8.729,0,0,0-.57,3.392v.119a8.77,8.77,0,0,0,.567,3.392,5.008,5.008,0,0,0,1.374,1.995l-.269.764h-.036A4.953,4.953,0,0,1,80.113.561a8.015,8.015,0,0,1-.932-4Zm9.812.52a3.643,3.643,0,0,1-.663,2.275,2.192,2.192,0,0,1-1.845.866,2.285,2.285,0,0,1-.973-.2,2,2,0,0,1-.729-.579V2.484H83.332V-6.462h1.224l.143.812a2.155,2.155,0,0,1,.749-.693,2.1,2.1,0,0,1,1.018-.239,2.146,2.146,0,0,1,1.86.947,4.247,4.247,0,0,1,.666,2.493Zm-1.445-.125a3.148,3.148,0,0,0-.373-1.621,1.214,1.214,0,0,0-1.114-.63,1.447,1.447,0,0,0-.77.194,1.429,1.429,0,0,0-.508.54v2.92a1.35,1.35,0,0,0,.508.523,1.547,1.547,0,0,0,.782.182,1.245,1.245,0,0,0,1.108-.546,2.532,2.532,0,0,0,.367-1.436ZM94.153,0q-.078-.245-.128-.478a3.415,3.415,0,0,1-.069-.466,2.489,2.489,0,0,1-.782.761,2.013,2.013,0,0,1-1.093.308,2.148,2.148,0,0,1-1.55-.52,1.887,1.887,0,0,1-.54-1.427,1.686,1.686,0,0,1,.741-1.46A3.576,3.576,0,0,1,92.816-3.8h1.129v-.567a1.055,1.055,0,0,0-.3-.794,1.182,1.182,0,0,0-.857-.287A1.22,1.22,0,0,0,92-5.216a.75.75,0,0,0-.293.612l-1.4.006-.006-.036a1.6,1.6,0,0,1,.684-1.356,2.9,2.9,0,0,1,1.89-.591,2.764,2.764,0,0,1,1.821.573A2.018,2.018,0,0,1,95.4-4.36v2.872a5.3,5.3,0,0,0,.054.767,4.074,4.074,0,0,0,.173.72ZM92.38-1.039a1.814,1.814,0,0,0,.982-.275,1.383,1.383,0,0,0,.582-.627V-2.9H92.792a1.455,1.455,0,0,0-.991.314.952.952,0,0,0-.358.738.752.752,0,0,0,.242.588A1,1,0,0,0,92.38-1.039Zm8.164-.729a.669.669,0,0,0-.284-.552,2.934,2.934,0,0,0-1.072-.391A4.36,4.36,0,0,1,97.444-3.4a1.447,1.447,0,0,1-.6-1.218A1.755,1.755,0,0,1,97.527-6a2.721,2.721,0,0,1,1.809-.576,2.806,2.806,0,0,1,1.866.594,1.721,1.721,0,0,1,.678,1.43l-.012.036h-1.391a.905.905,0,0,0-.311-.684,1.168,1.168,0,0,0-.83-.29,1.186,1.186,0,0,0-.8.239.747.747,0,0,0-.275.585.629.629,0,0,0,.257.526,2.815,2.815,0,0,0,1.057.352,4.378,4.378,0,0,1,1.792.7,1.482,1.482,0,0,1,.6,1.239,1.717,1.717,0,0,1-.72,1.424,3.031,3.031,0,0,1-1.9.552A2.894,2.894,0,0,1,97.366-.52,1.822,1.822,0,0,1,96.674-2l.012-.036h1.35a.968.968,0,0,0,.406.818,1.632,1.632,0,0,0,.932.257,1.46,1.46,0,0,0,.863-.221A.687.687,0,0,0,100.543-1.768ZM103-3.291a3.509,3.509,0,0,1,.791-2.368,2.7,2.7,0,0,1,2.165-.923,2.723,2.723,0,0,1,2.183.923,3.509,3.509,0,0,1,.791,2.368v.125a3.5,3.5,0,0,1-.791,2.374,2.717,2.717,0,0,1-2.171.917,2.72,2.72,0,0,1-2.177-.92A3.506,3.506,0,0,1,103-3.165Zm1.451.125a2.866,2.866,0,0,0,.37,1.541,1.257,1.257,0,0,0,1.147.591,1.26,1.26,0,0,0,1.138-.594,2.816,2.816,0,0,0,.379-1.538v-.125a2.81,2.81,0,0,0-.379-1.526,1.268,1.268,0,0,0-1.15-.6,1.243,1.243,0,0,0-1.132.6,2.845,2.845,0,0,0-.373,1.526Zm9.376,1.4a.669.669,0,0,0-.284-.552,2.934,2.934,0,0,0-1.072-.391,4.36,4.36,0,0,1-1.744-.687,1.447,1.447,0,0,1-.6-1.218A1.755,1.755,0,0,1,110.815-6a2.721,2.721,0,0,1,1.809-.576,2.806,2.806,0,0,1,1.866.594,1.721,1.721,0,0,1,.678,1.43l-.012.036h-1.391a.905.905,0,0,0-.311-.684,1.168,1.168,0,0,0-.83-.29,1.186,1.186,0,0,0-.8.239.747.747,0,0,0-.275.585.629.629,0,0,0,.257.526,2.815,2.815,0,0,0,1.057.352,4.378,4.378,0,0,1,1.792.7,1.482,1.482,0,0,1,.6,1.239,1.717,1.717,0,0,1-.72,1.424,3.031,3.031,0,0,1-1.9.552,2.894,2.894,0,0,1-1.989-.645A1.822,1.822,0,0,1,109.961-2l.012-.036h1.35a.968.968,0,0,0,.406.818,1.632,1.632,0,0,0,.932.257,1.46,1.46,0,0,0,.863-.221A.687.687,0,0,0,113.831-1.768ZM123.5,0q-.078-.245-.128-.478a3.415,3.415,0,0,1-.069-.466,2.489,2.489,0,0,1-.782.761,2.013,2.013,0,0,1-1.093.308,2.148,2.148,0,0,1-1.55-.52,1.887,1.887,0,0,1-.54-1.427,1.686,1.686,0,0,1,.741-1.46,3.576,3.576,0,0,1,2.084-.523h1.129v-.567a1.055,1.055,0,0,0-.3-.794,1.182,1.182,0,0,0-.857-.287,1.22,1.22,0,0,0-.788.236.75.75,0,0,0-.293.612l-1.4.006-.006-.036a1.6,1.6,0,0,1,.684-1.356,2.9,2.9,0,0,1,1.89-.591,2.764,2.764,0,0,1,1.821.573,2.018,2.018,0,0,1,.693,1.648v2.872a5.3,5.3,0,0,0,.054.767,4.074,4.074,0,0,0,.173.72Zm-1.774-1.039a1.814,1.814,0,0,0,.982-.275,1.383,1.383,0,0,0,.582-.627V-2.9h-1.153a1.455,1.455,0,0,0-.991.314.952.952,0,0,0-.358.738.752.752,0,0,0,.242.588A1,1,0,0,0,121.726-1.039Zm11.209-.729a.669.669,0,0,0-.284-.552,2.934,2.934,0,0,0-1.072-.391,4.36,4.36,0,0,1-1.744-.687,1.447,1.447,0,0,1-.6-1.218A1.755,1.755,0,0,1,129.919-6a2.721,2.721,0,0,1,1.809-.576,2.806,2.806,0,0,1,1.866.594,1.721,1.721,0,0,1,.678,1.43l-.012.036h-1.391a.905.905,0,0,0-.311-.684,1.168,1.168,0,0,0-.83-.29,1.186,1.186,0,0,0-.8.239.747.747,0,0,0-.275.585.629.629,0,0,0,.257.526,2.815,2.815,0,0,0,1.057.352,4.378,4.378,0,0,1,1.792.7,1.482,1.482,0,0,1,.6,1.239,1.717,1.717,0,0,1-.72,1.424,3.031,3.031,0,0,1-1.9.552,2.894,2.894,0,0,1-1.989-.645A1.822,1.822,0,0,1,129.065-2l.012-.036h1.35a.968.968,0,0,0,.406.818,1.632,1.632,0,0,0,.932.257,1.46,1.46,0,0,0,.863-.221A.687.687,0,0,0,132.935-1.768Zm5.47,1.893a2.814,2.814,0,0,1-2.213-.893,3.343,3.343,0,0,1-.8-2.314V-3.32a3.457,3.457,0,0,1,.8-2.344,2.576,2.576,0,0,1,2.057-.917,2.418,2.418,0,0,1,1.971.8,3.248,3.248,0,0,1,.669,2.147v.782h-4l-.012.03a2.117,2.117,0,0,0,.418,1.29,1.426,1.426,0,0,0,1.188.5,3.27,3.27,0,0,0,1.024-.143,2.924,2.924,0,0,0,.8-.412l.472.95a3.075,3.075,0,0,1-.979.543A4.1,4.1,0,0,1,138.405.125Zm-.155-5.542a1.121,1.121,0,0,0-.908.409,2.027,2.027,0,0,0-.424,1.066l.012.03h2.526v-.113a1.631,1.631,0,0,0-.29-1.006A1.072,1.072,0,0,0,138.25-5.417Zm3.589,2.275a4.261,4.261,0,0,1,.663-2.493,2.144,2.144,0,0,1,1.863-.947,2.036,2.036,0,0,1,1.018.248,2.152,2.152,0,0,1,.743.714l.143-.842h1.206V0a2.438,2.438,0,0,1-.77,1.929,3.194,3.194,0,0,1-2.186.681,4.279,4.279,0,0,1-1.018-.134,4.73,4.73,0,0,1-.988-.355l.233-1.141a3.677,3.677,0,0,0,.827.29,4.178,4.178,0,0,0,.935.1,1.658,1.658,0,0,0,1.153-.337A1.347,1.347,0,0,0,146.025,0V-.663a2.03,2.03,0,0,1-.72.588,2.168,2.168,0,0,1-.953.2A2.2,2.2,0,0,1,142.5-.741a3.643,3.643,0,0,1-.663-2.275Zm1.445.125a2.585,2.585,0,0,0,.346,1.427,1.21,1.21,0,0,0,1.093.532,1.487,1.487,0,0,0,.785-.194,1.433,1.433,0,0,0,.517-.558V-4.64a1.551,1.551,0,0,0-.523-.552,1.417,1.417,0,0,0-.767-.2,1.175,1.175,0,0,0-1.1.624,3.293,3.293,0,0,0-.352,1.627Zm9.74,2.06a2.168,2.168,0,0,1-.767.8,2.069,2.069,0,0,1-1.084.281,2.024,2.024,0,0,1-1.624-.684,3.215,3.215,0,0,1-.585-2.123v-3.78h1.445v3.792a2.159,2.159,0,0,0,.269,1.269,1,1,0,0,0,.836.343,1.866,1.866,0,0,0,.881-.188,1.366,1.366,0,0,0,.558-.546v-4.67H154.4V0h-1.248ZM157.468,0h-1.451V-6.462h1.451Zm0-8.044h-1.451V-9.316h1.451Zm4.843,2.89-.621-.024a1.3,1.3,0,0,0-.708.179,1.18,1.18,0,0,0-.439.508V0h-1.451V-6.462h1.326l.1.938a2.072,2.072,0,0,1,.63-.776,1.467,1.467,0,0,1,.887-.281,1.353,1.353,0,0,1,.245.021,1.789,1.789,0,0,1,.209.051Zm3.721,1.714a7.91,7.91,0,0,1-.953,3.989,5.008,5.008,0,0,1-2.045,2.174H163l-.275-.764a4.741,4.741,0,0,0,1.368-1.971,8.843,8.843,0,0,0,.573-3.416v-.119a8.594,8.594,0,0,0-.588-3.4,5.129,5.129,0,0,0-1.353-1.986L163-9.7h.036a4.993,4.993,0,0,1,2.042,2.174,7.911,7.911,0,0,1,.956,3.989Z" transform="translate(-6311.92 -14066.128)" fill="#0c1d30"/>
    <path id="Trazado_204378" data-name="Trazado 204378" d="M.944-3.846l.5-4.849H6.032v1.254H2.652L2.389-5.225A2.415,2.415,0,0,1,3-5.536a2.45,2.45,0,0,1,.785-.131,2.343,2.343,0,0,1,1.887.758,3.127,3.127,0,0,1,.675,2.132,3.053,3.053,0,0,1-.711,2.1A2.685,2.685,0,0,1,3.511.125,3.052,3.052,0,0,1,1.574-.493,2.035,2.035,0,0,1,.812-2.257l.012-.03,1.362-.042a1.24,1.24,0,0,0,.367.953,1.347,1.347,0,0,0,.958.343,1.222,1.222,0,0,0,1.033-.46A2.047,2.047,0,0,0,4.9-2.765a2.011,2.011,0,0,0-.364-1.257A1.232,1.232,0,0,0,3.494-4.5a1.635,1.635,0,0,0-.887.191,1.08,1.08,0,0,0-.421.561ZM9.31,0H7.865V-1.391H9.31Zm6.468-3.607V0H14.327V-8.7h2.992a3.431,3.431,0,0,1,2.245.657,2.3,2.3,0,0,1,.794,1.875A1.939,1.939,0,0,1,20.009-5a2.4,2.4,0,0,1-1.018.779,1.837,1.837,0,0,1,1.06.758,2.429,2.429,0,0,1,.325,1.3v.723a2.93,2.93,0,0,0,.1.746,1.069,1.069,0,0,0,.317.555V0H19.3a.955.955,0,0,1-.3-.615,5.378,5.378,0,0,1-.066-.836v-.7a1.455,1.455,0,0,0-.385-1.063,1.4,1.4,0,0,0-1.048-.394Zm0-1.165h1.463a1.969,1.969,0,0,0,1.272-.334,1.256,1.256,0,0,0,.4-1.021,1.351,1.351,0,0,0-.394-1.03,1.691,1.691,0,0,0-1.2-.373H15.778ZM24.7.125a2.813,2.813,0,0,1-2.213-.893,3.344,3.344,0,0,1-.8-2.314V-3.32a3.457,3.457,0,0,1,.8-2.344,2.576,2.576,0,0,1,2.057-.917,2.418,2.418,0,0,1,1.971.8,3.248,3.248,0,0,1,.669,2.147v.782h-4l-.012.03a2.117,2.117,0,0,0,.418,1.29,1.426,1.426,0,0,0,1.188.5,3.27,3.27,0,0,0,1.024-.143,2.924,2.924,0,0,0,.8-.412l.472.95A3.075,3.075,0,0,1,26.1-.1,4.1,4.1,0,0,1,24.7.125Zm-.155-5.542a1.121,1.121,0,0,0-.908.409,2.027,2.027,0,0,0-.424,1.066l.012.03h2.526v-.113a1.631,1.631,0,0,0-.29-1.006A1.072,1.072,0,0,0,24.545-5.417Zm3.589,2.275A4.261,4.261,0,0,1,28.8-5.635a2.144,2.144,0,0,1,1.863-.947,2.036,2.036,0,0,1,1.018.248,2.151,2.151,0,0,1,.744.714l.143-.842h1.206V0A2.439,2.439,0,0,1,33,1.929a3.194,3.194,0,0,1-2.186.681A4.279,4.279,0,0,1,29.8,2.475a4.73,4.73,0,0,1-.988-.355L29.041.979a3.677,3.677,0,0,0,.827.29,4.178,4.178,0,0,0,.935.1,1.658,1.658,0,0,0,1.153-.337A1.347,1.347,0,0,0,32.32,0V-.663a2.03,2.03,0,0,1-.72.588,2.168,2.168,0,0,1-.953.2A2.2,2.2,0,0,1,28.8-.741a3.643,3.643,0,0,1-.663-2.275Zm1.445.125a2.585,2.585,0,0,0,.346,1.427,1.21,1.21,0,0,0,1.093.532,1.487,1.487,0,0,0,.785-.194,1.433,1.433,0,0,0,.517-.558V-4.64a1.551,1.551,0,0,0-.523-.552,1.417,1.417,0,0,0-.767-.2,1.175,1.175,0,0,0-1.1.624,3.293,3.293,0,0,0-.352,1.627ZM36.835,0H35.384V-6.462h1.451Zm0-8.044H35.384V-9.316h1.451ZM42.09-1.768a.669.669,0,0,0-.284-.552,2.934,2.934,0,0,0-1.072-.391A4.36,4.36,0,0,1,38.991-3.4a1.447,1.447,0,0,1-.6-1.218A1.755,1.755,0,0,1,39.074-6a2.721,2.721,0,0,1,1.809-.576,2.806,2.806,0,0,1,1.866.594,1.721,1.721,0,0,1,.678,1.43l-.012.036H42.024a.905.905,0,0,0-.311-.684,1.168,1.168,0,0,0-.83-.29,1.186,1.186,0,0,0-.8.239.747.747,0,0,0-.275.585.629.629,0,0,0,.257.526,2.815,2.815,0,0,0,1.057.352,4.378,4.378,0,0,1,1.792.7,1.482,1.482,0,0,1,.6,1.239A1.717,1.717,0,0,1,42.8-.427a3.031,3.031,0,0,1-1.9.552A2.894,2.894,0,0,1,38.913-.52,1.822,1.822,0,0,1,38.22-2l.012-.036h1.35a.968.968,0,0,0,.406.818,1.632,1.632,0,0,0,.932.257,1.46,1.46,0,0,0,.863-.221A.687.687,0,0,0,42.09-1.768Zm4.586-6.265v1.571h1.159v1.075H46.677v3.571a.779.779,0,0,0,.173.57.628.628,0,0,0,.46.17,1.283,1.283,0,0,0,.233-.021,1.416,1.416,0,0,0,.215-.057L47.913-.09a1.667,1.667,0,0,1-.439.158,2.416,2.416,0,0,1-.529.057,1.674,1.674,0,0,1-1.257-.469,2.044,2.044,0,0,1-.457-1.472V-5.387h-.985V-6.462h.985V-8.032Zm5.548,2.878L51.6-5.178A1.3,1.3,0,0,0,50.9-5a1.18,1.18,0,0,0-.439.508V0H49.006V-6.462h1.326l.1.938a2.072,2.072,0,0,1,.63-.776,1.467,1.467,0,0,1,.887-.281,1.352,1.352,0,0,1,.245.021,1.788,1.788,0,0,1,.209.051ZM52.7-3.291a3.509,3.509,0,0,1,.791-2.368,2.7,2.7,0,0,1,2.165-.923,2.723,2.723,0,0,1,2.183.923,3.509,3.509,0,0,1,.791,2.368v.125a3.5,3.5,0,0,1-.791,2.374,2.717,2.717,0,0,1-2.171.917,2.72,2.72,0,0,1-2.177-.92A3.506,3.506,0,0,1,52.7-3.165Zm1.451.125a2.866,2.866,0,0,0,.37,1.541,1.257,1.257,0,0,0,1.147.591,1.26,1.26,0,0,0,1.138-.594,2.816,2.816,0,0,0,.379-1.538v-.125a2.81,2.81,0,0,0-.379-1.526,1.268,1.268,0,0,0-1.15-.6,1.243,1.243,0,0,0-1.132.6,2.845,2.845,0,0,0-.373,1.526Zm9.376,1.4a.669.669,0,0,0-.284-.552,2.934,2.934,0,0,0-1.072-.391A4.36,4.36,0,0,1,60.431-3.4a1.447,1.447,0,0,1-.6-1.218A1.755,1.755,0,0,1,60.515-6a2.721,2.721,0,0,1,1.809-.576,2.806,2.806,0,0,1,1.866.594,1.721,1.721,0,0,1,.678,1.43l-.012.036H63.465a.905.905,0,0,0-.311-.684,1.168,1.168,0,0,0-.83-.29,1.186,1.186,0,0,0-.8.239.747.747,0,0,0-.275.585.629.629,0,0,0,.257.526,2.815,2.815,0,0,0,1.057.352,4.378,4.378,0,0,1,1.792.7,1.482,1.482,0,0,1,.6,1.239,1.717,1.717,0,0,1-.72,1.424,3.031,3.031,0,0,1-1.9.552A2.894,2.894,0,0,1,60.353-.52,1.822,1.822,0,0,1,59.661-2l.012-.036h1.35a.968.968,0,0,0,.406.818,1.632,1.632,0,0,0,.932.257,1.46,1.46,0,0,0,.863-.221A.687.687,0,0,0,63.53-1.768Z" transform="translate(-6311.92 -14038.353)" fill="#0c1d30"/>
    <path id="Trazado_204379" data-name="Trazado 204379" d="M0,0H238.333V86.487H0Z" transform="translate(-6332.373 -14020.731)" fill="#fff" stroke="#000" stroke-width="1"/>
    <g id="Grupo_142789" data-name="Grupo 142789" transform="translate(-6333.247 -14262.855)" clip-path="url(#clip-path)">
      <rect id="Rectángulo_41647" data-name="Rectángulo 41647" width="238.333" height="86.487" transform="translate(0.874 242.124)" fill="none" stroke="#000" stroke-width="1.747"/>
    </g>
    <path id="Trazado_204380" data-name="Trazado 204380" d="M0,0H238.334V86.487H0Z" transform="translate(-6094.041 -14020.731)" fill="#fff" stroke="#000" stroke-width="1"/>
    <g id="Grupo_142791" data-name="Grupo 142791" transform="translate(-6333.247 -14262.855)" clip-path="url(#clip-path)">
      <rect id="Rectángulo_41650" data-name="Rectángulo 41650" width="238.333" height="86.487" transform="translate(239.207 242.124)" fill="none" stroke="#000" stroke-width="1.747"/>
    </g>
    <path id="Trazado_204381" data-name="Trazado 204381" d="M0,0H238.333V86.487H0Z" transform="translate(-5855.707 -14020.731)" fill="#fff" stroke="#000" stroke-width="1"/>
    <g id="Grupo_142793" data-name="Grupo 142793" transform="translate(-6333.247 -14262.855)" clip-path="url(#clip-path)">
      <rect id="Rectángulo_41653" data-name="Rectángulo 41653" width="238.333" height="86.487" transform="translate(477.54 242.124)" fill="none" stroke="#000" stroke-width="1.747"/>
    </g>
    <path id="Trazado_204382" data-name="Trazado 204382" d="M2.365-3.607V0H.914V-8.7H3.906a3.431,3.431,0,0,1,2.245.657,2.3,2.3,0,0,1,.794,1.875A1.939,1.939,0,0,1,6.6-5a2.4,2.4,0,0,1-1.018.779,1.837,1.837,0,0,1,1.06.758,2.429,2.429,0,0,1,.325,1.3v.723a2.93,2.93,0,0,0,.1.746,1.069,1.069,0,0,0,.317.555V0H5.882a.955.955,0,0,1-.3-.615,5.378,5.378,0,0,1-.066-.836v-.7a1.455,1.455,0,0,0-.385-1.063,1.4,1.4,0,0,0-1.048-.394Zm0-1.165H3.828A1.969,1.969,0,0,0,5.1-5.106a1.256,1.256,0,0,0,.4-1.021,1.351,1.351,0,0,0-.394-1.03,1.691,1.691,0,0,0-1.2-.373H2.365Zm8.922,4.9A2.813,2.813,0,0,1,9.074-.767a3.344,3.344,0,0,1-.8-2.314V-3.32a3.457,3.457,0,0,1,.8-2.344,2.576,2.576,0,0,1,2.057-.917,2.418,2.418,0,0,1,1.971.8,3.248,3.248,0,0,1,.669,2.147v.782h-4l-.012.03a2.117,2.117,0,0,0,.418,1.29,1.426,1.426,0,0,0,1.188.5,3.27,3.27,0,0,0,1.024-.143,2.924,2.924,0,0,0,.8-.412l.472.95A3.075,3.075,0,0,1,12.69-.1,4.1,4.1,0,0,1,11.287.125Zm-.155-5.542a1.121,1.121,0,0,0-.908.409A2.027,2.027,0,0,0,9.8-3.941l.012.03h2.526v-.113a1.631,1.631,0,0,0-.29-1.006A1.072,1.072,0,0,0,11.132-5.417Zm5.91,3.231.107.526h.036l.113-.526,1.284-4.276h1.5L17.789,0h-1.26L14.223-6.462h1.5ZM22.542,0H21.091V-6.462h1.451Zm0-8.044H21.091V-9.316h1.451ZM27.8-1.768a.669.669,0,0,0-.284-.552,2.934,2.934,0,0,0-1.072-.391A4.36,4.36,0,0,1,24.7-3.4a1.447,1.447,0,0,1-.6-1.218A1.755,1.755,0,0,1,24.782-6a2.721,2.721,0,0,1,1.809-.576,2.806,2.806,0,0,1,1.866.594,1.721,1.721,0,0,1,.678,1.43l-.012.036H27.732a.905.905,0,0,0-.311-.684,1.168,1.168,0,0,0-.83-.29,1.186,1.186,0,0,0-.8.239.747.747,0,0,0-.275.585.629.629,0,0,0,.257.526,2.815,2.815,0,0,0,1.057.352,4.378,4.378,0,0,1,1.792.7,1.482,1.482,0,0,1,.6,1.239,1.717,1.717,0,0,1-.72,1.424,3.031,3.031,0,0,1-1.9.552A2.894,2.894,0,0,1,24.621-.52,1.822,1.822,0,0,1,23.928-2l.012-.036h1.35a.968.968,0,0,0,.406.818,1.632,1.632,0,0,0,.932.257,1.46,1.46,0,0,0,.863-.221A.687.687,0,0,0,27.8-1.768ZM34.42,0q-.078-.245-.128-.478a3.415,3.415,0,0,1-.069-.466,2.489,2.489,0,0,1-.782.761,2.013,2.013,0,0,1-1.093.308,2.148,2.148,0,0,1-1.55-.52,1.887,1.887,0,0,1-.54-1.427A1.686,1.686,0,0,1,31-3.282,3.576,3.576,0,0,1,33.083-3.8h1.129v-.567a1.055,1.055,0,0,0-.3-.794,1.182,1.182,0,0,0-.857-.287,1.22,1.22,0,0,0-.788.236.75.75,0,0,0-.293.612l-1.4.006-.006-.036a1.6,1.6,0,0,1,.684-1.356,2.9,2.9,0,0,1,1.89-.591,2.764,2.764,0,0,1,1.821.573,2.018,2.018,0,0,1,.693,1.648v2.872a5.3,5.3,0,0,0,.054.767A4.075,4.075,0,0,0,35.89,0ZM32.647-1.039a1.814,1.814,0,0,0,.982-.275,1.383,1.383,0,0,0,.582-.627V-2.9H33.059a1.455,1.455,0,0,0-.991.314.952.952,0,0,0-.358.738.752.752,0,0,0,.242.588A1,1,0,0,0,32.647-1.039Zm4.264-2.1a4.261,4.261,0,0,1,.663-2.493,2.144,2.144,0,0,1,1.863-.947,2.038,2.038,0,0,1,.941.212,2.129,2.129,0,0,1,.72.606V-9.316h1.451V0H41.372L41.2-.818a2.155,2.155,0,0,1-.752.7,2.093,2.093,0,0,1-1.021.242,2.2,2.2,0,0,1-1.851-.866,3.643,3.643,0,0,1-.663-2.275Zm1.451.125a2.6,2.6,0,0,0,.343,1.427,1.2,1.2,0,0,0,1.09.532,1.457,1.457,0,0,0,.779-.2,1.5,1.5,0,0,0,.523-.561V-4.634a1.528,1.528,0,0,0-.526-.558,1.421,1.421,0,0,0-.764-.2,1.17,1.17,0,0,0-1.093.624,3.293,3.293,0,0,0-.352,1.627Zm5.476-.275a3.509,3.509,0,0,1,.791-2.368,2.7,2.7,0,0,1,2.165-.923,2.723,2.723,0,0,1,2.183.923,3.509,3.509,0,0,1,.791,2.368v.125a3.5,3.5,0,0,1-.791,2.374,2.717,2.717,0,0,1-2.171.917,2.72,2.72,0,0,1-2.177-.92,3.506,3.506,0,0,1-.791-2.371Zm1.451.125a2.866,2.866,0,0,0,.37,1.541,1.257,1.257,0,0,0,1.147.591,1.26,1.26,0,0,0,1.138-.594,2.816,2.816,0,0,0,.379-1.538v-.125a2.81,2.81,0,0,0-.379-1.526,1.268,1.268,0,0,0-1.15-.6,1.243,1.243,0,0,0-1.132.6,2.845,2.845,0,0,0-.373,1.526Zm14.452.149a3.643,3.643,0,0,1-.663,2.275,2.192,2.192,0,0,1-1.845.866,2.285,2.285,0,0,1-.973-.2,2,2,0,0,1-.729-.579V2.484H54.08V-6.462H55.3l.143.812a2.155,2.155,0,0,1,.749-.693,2.1,2.1,0,0,1,1.018-.239,2.146,2.146,0,0,1,1.86.947,4.247,4.247,0,0,1,.666,2.493ZM58.3-3.141a3.148,3.148,0,0,0-.373-1.621,1.214,1.214,0,0,0-1.114-.63,1.447,1.447,0,0,0-.77.194,1.429,1.429,0,0,0-.508.54v2.92a1.35,1.35,0,0,0,.508.523,1.547,1.547,0,0,0,.782.182,1.245,1.245,0,0,0,1.108-.546A2.532,2.532,0,0,0,58.3-3.016Zm2.443-.149a3.509,3.509,0,0,1,.791-2.368,2.7,2.7,0,0,1,2.165-.923,2.723,2.723,0,0,1,2.183.923,3.509,3.509,0,0,1,.791,2.368v.125a3.5,3.5,0,0,1-.791,2.374,2.717,2.717,0,0,1-2.171.917,2.72,2.72,0,0,1-2.177-.92,3.506,3.506,0,0,1-.791-2.371Zm1.451.125a2.866,2.866,0,0,0,.37,1.541,1.257,1.257,0,0,0,1.147.591,1.26,1.26,0,0,0,1.138-.594,2.816,2.816,0,0,0,.379-1.538v-.125a2.81,2.81,0,0,0-.379-1.526,1.268,1.268,0,0,0-1.15-.6,1.243,1.243,0,0,0-1.132.6,2.845,2.845,0,0,0-.373,1.526Zm8.964-1.989-.621-.024A1.3,1.3,0,0,0,69.825-5a1.18,1.18,0,0,0-.439.508V0H67.935V-6.462h1.326l.1.938a2.072,2.072,0,0,1,.63-.776,1.467,1.467,0,0,1,.887-.281,1.352,1.352,0,0,1,.245.021,1.788,1.788,0,0,1,.209.051ZM72.79,0H71.345V-1.391H72.79Zm0-5.231H71.345V-6.623H72.79Z" transform="translate(-6075.027 -13973.403)" fill="#0c1d30"/>
    <path id="Trazado_204383" data-name="Trazado 204383" d="M5.44-2.03H2.359L1.69,0H.191L3.225-8.7H4.6L7.6,0H6.1ZM2.759-3.243H5.046L3.93-6.671H3.894ZM13.9-3.016A3.643,3.643,0,0,1,13.24-.741a2.192,2.192,0,0,1-1.845.866,2.285,2.285,0,0,1-.973-.2,2,2,0,0,1-.729-.579V2.484H8.241V-6.462H9.465l.143.812a2.155,2.155,0,0,1,.749-.693,2.1,2.1,0,0,1,1.018-.239,2.146,2.146,0,0,1,1.86.947A4.247,4.247,0,0,1,13.9-3.141Zm-1.445-.125a3.148,3.148,0,0,0-.373-1.621,1.214,1.214,0,0,0-1.114-.63,1.447,1.447,0,0,0-.77.194,1.429,1.429,0,0,0-.508.54v2.92a1.35,1.35,0,0,0,.508.523,1.547,1.547,0,0,0,.782.182A1.245,1.245,0,0,0,12.09-1.58a2.532,2.532,0,0,0,.367-1.436Zm5.93-2.013-.621-.024A1.3,1.3,0,0,0,17.059-5a1.18,1.18,0,0,0-.439.508V0H15.169V-6.462h1.326l.1.938a2.072,2.072,0,0,1,.63-.776,1.467,1.467,0,0,1,.887-.281,1.352,1.352,0,0,1,.245.021,1.788,1.788,0,0,1,.209.051Zm.479,1.863a3.509,3.509,0,0,1,.791-2.368,2.7,2.7,0,0,1,2.165-.923,2.723,2.723,0,0,1,2.183.923A3.509,3.509,0,0,1,24.8-3.291v.125a3.5,3.5,0,0,1-.791,2.374,2.717,2.717,0,0,1-2.171.917,2.72,2.72,0,0,1-2.177-.92,3.506,3.506,0,0,1-.791-2.371Zm1.451.125a2.866,2.866,0,0,0,.37,1.541,1.257,1.257,0,0,0,1.147.591,1.26,1.26,0,0,0,1.138-.594,2.816,2.816,0,0,0,.379-1.538v-.125a2.81,2.81,0,0,0-.379-1.526,1.268,1.268,0,0,0-1.15-.6,1.243,1.243,0,0,0-1.132.6,2.845,2.845,0,0,0-.373,1.526Zm11.418.149a3.652,3.652,0,0,1-.66,2.278,2.206,2.206,0,0,1-1.86.863,2.129,2.129,0,0,1-1.057-.251,2.072,2.072,0,0,1-.746-.729L27.239,0H26.063V-9.316h1.451v3.589a2.083,2.083,0,0,1,.717-.633,2.053,2.053,0,0,1,.973-.221,2.15,2.15,0,0,1,1.872.944,4.273,4.273,0,0,1,.66,2.5Zm-1.451-.125a3.336,3.336,0,0,0-.346-1.63,1.168,1.168,0,0,0-1.1-.621,1.437,1.437,0,0,0-.809.215,1.5,1.5,0,0,0-.517.6v2.711a1.423,1.423,0,0,0,.514.6,1.491,1.491,0,0,0,.824.212,1.2,1.2,0,0,0,1.093-.529,2.617,2.617,0,0,0,.34-1.43ZM36.884,0q-.078-.245-.128-.478a3.415,3.415,0,0,1-.069-.466,2.489,2.489,0,0,1-.782.761,2.013,2.013,0,0,1-1.093.308,2.148,2.148,0,0,1-1.55-.52,1.887,1.887,0,0,1-.54-1.427,1.686,1.686,0,0,1,.741-1.46A3.576,3.576,0,0,1,35.546-3.8h1.129v-.567a1.055,1.055,0,0,0-.3-.794,1.182,1.182,0,0,0-.857-.287,1.22,1.22,0,0,0-.788.236.75.75,0,0,0-.293.612l-1.4.006-.006-.036a1.6,1.6,0,0,1,.684-1.356,2.9,2.9,0,0,1,1.89-.591,2.764,2.764,0,0,1,1.821.573,2.018,2.018,0,0,1,.693,1.648v2.872a5.3,5.3,0,0,0,.054.767,4.075,4.075,0,0,0,.173.72ZM35.11-1.039a1.814,1.814,0,0,0,.982-.275,1.383,1.383,0,0,0,.582-.627V-2.9H35.522a1.455,1.455,0,0,0-.991.314.952.952,0,0,0-.358.738.752.752,0,0,0,.242.588A1,1,0,0,0,35.11-1.039Zm4.264-2.1a4.261,4.261,0,0,1,.663-2.493A2.144,2.144,0,0,1,41.9-6.581a2.038,2.038,0,0,1,.941.212,2.129,2.129,0,0,1,.72.606V-9.316h1.451V0H43.835l-.173-.818a2.155,2.155,0,0,1-.752.7,2.093,2.093,0,0,1-1.021.242,2.2,2.2,0,0,1-1.851-.866,3.643,3.643,0,0,1-.663-2.275Zm1.451.125a2.6,2.6,0,0,0,.343,1.427,1.2,1.2,0,0,0,1.09.532,1.457,1.457,0,0,0,.779-.2,1.5,1.5,0,0,0,.523-.561V-4.634a1.528,1.528,0,0,0-.526-.558,1.421,1.421,0,0,0-.764-.2,1.17,1.17,0,0,0-1.093.624,3.293,3.293,0,0,0-.352,1.627ZM46.3-3.291a3.509,3.509,0,0,1,.791-2.368,2.7,2.7,0,0,1,2.165-.923,2.723,2.723,0,0,1,2.183.923,3.509,3.509,0,0,1,.791,2.368v.125A3.5,3.5,0,0,1,51.44-.791a2.717,2.717,0,0,1-2.171.917,2.72,2.72,0,0,1-2.177-.92A3.506,3.506,0,0,1,46.3-3.165Zm1.451.125a2.866,2.866,0,0,0,.37,1.541,1.257,1.257,0,0,0,1.147.591,1.26,1.26,0,0,0,1.138-.594,2.816,2.816,0,0,0,.379-1.538v-.125a2.81,2.81,0,0,0-.379-1.526,1.268,1.268,0,0,0-1.15-.6,1.243,1.243,0,0,0-1.132.6,2.845,2.845,0,0,0-.373,1.526ZM62.2-3.016a3.643,3.643,0,0,1-.663,2.275A2.192,2.192,0,0,1,59.7.125a2.285,2.285,0,0,1-.973-.2,2,2,0,0,1-.729-.579V2.484H56.543V-6.462h1.224l.143.812a2.155,2.155,0,0,1,.749-.693,2.1,2.1,0,0,1,1.018-.239,2.146,2.146,0,0,1,1.86.947A4.247,4.247,0,0,1,62.2-3.141Zm-1.445-.125a3.148,3.148,0,0,0-.373-1.621,1.214,1.214,0,0,0-1.114-.63,1.447,1.447,0,0,0-.77.194,1.429,1.429,0,0,0-.508.54v2.92a1.35,1.35,0,0,0,.508.523,1.547,1.547,0,0,0,.782.182,1.245,1.245,0,0,0,1.108-.546,2.532,2.532,0,0,0,.367-1.436ZM63.2-3.291a3.509,3.509,0,0,1,.791-2.368,2.7,2.7,0,0,1,2.165-.923,2.723,2.723,0,0,1,2.183.923,3.509,3.509,0,0,1,.791,2.368v.125a3.5,3.5,0,0,1-.791,2.374A2.717,2.717,0,0,1,66.17.125a2.72,2.72,0,0,1-2.177-.92A3.506,3.506,0,0,1,63.2-3.165Zm1.451.125a2.866,2.866,0,0,0,.37,1.541,1.257,1.257,0,0,0,1.147.591,1.26,1.26,0,0,0,1.138-.594,2.816,2.816,0,0,0,.379-1.538v-.125a2.81,2.81,0,0,0-.379-1.526,1.268,1.268,0,0,0-1.15-.6,1.243,1.243,0,0,0-1.132.6,2.845,2.845,0,0,0-.373,1.526Zm8.964-1.989L73-5.178A1.3,1.3,0,0,0,72.288-5a1.18,1.18,0,0,0-.439.508V0H70.4V-6.462h1.326l.1.938a2.072,2.072,0,0,1,.63-.776,1.467,1.467,0,0,1,.887-.281,1.352,1.352,0,0,1,.245.021,1.788,1.788,0,0,1,.209.051ZM75.253,0H73.808V-1.391h1.445Zm0-5.231H73.808V-6.623h1.445Z" transform="translate(-5835.579 -13973.403)" fill="#0c1d30"/>
    <path id="Trazado_204384" data-name="Trazado 204384" d="M5.769-3.912h-3.4v2.753H6.378V0H.914V-8.7H6.336v1.165H2.365v2.454h3.4ZM9.083,0H7.632V-9.316H9.083ZM14.6,0q-.078-.245-.128-.478A3.415,3.415,0,0,1,14.4-.944a2.489,2.489,0,0,1-.782.761,2.013,2.013,0,0,1-1.093.308,2.148,2.148,0,0,1-1.55-.52,1.887,1.887,0,0,1-.54-1.427,1.686,1.686,0,0,1,.741-1.46A3.576,3.576,0,0,1,13.264-3.8h1.129v-.567a1.055,1.055,0,0,0-.3-.794,1.182,1.182,0,0,0-.857-.287,1.22,1.22,0,0,0-.788.236.75.75,0,0,0-.293.612l-1.4.006-.006-.036a1.6,1.6,0,0,1,.684-1.356,2.9,2.9,0,0,1,1.89-.591,2.764,2.764,0,0,1,1.821.573,2.018,2.018,0,0,1,.693,1.648v2.872A5.3,5.3,0,0,0,15.9-.72,4.075,4.075,0,0,0,16.07,0ZM12.828-1.039a1.814,1.814,0,0,0,.982-.275,1.383,1.383,0,0,0,.582-.627V-2.9H13.24a1.455,1.455,0,0,0-.991.314.952.952,0,0,0-.358.738.752.752,0,0,0,.242.588A1,1,0,0,0,12.828-1.039ZM23.034-3.016a3.652,3.652,0,0,1-.66,2.278,2.206,2.206,0,0,1-1.86.863,2.129,2.129,0,0,1-1.057-.251,2.072,2.072,0,0,1-.746-.729L18.537,0H17.36V-9.316h1.451v3.589a2.083,2.083,0,0,1,.717-.633,2.053,2.053,0,0,1,.973-.221,2.15,2.15,0,0,1,1.872.944,4.273,4.273,0,0,1,.66,2.5Zm-1.451-.125a3.336,3.336,0,0,0-.346-1.63,1.168,1.168,0,0,0-1.1-.621,1.437,1.437,0,0,0-.809.215,1.5,1.5,0,0,0-.517.6v2.711a1.423,1.423,0,0,0,.514.6,1.491,1.491,0,0,0,.824.212,1.2,1.2,0,0,0,1.093-.529,2.617,2.617,0,0,0,.34-1.43Zm2.437-.149a3.509,3.509,0,0,1,.791-2.368,2.7,2.7,0,0,1,2.165-.923,2.723,2.723,0,0,1,2.183.923,3.509,3.509,0,0,1,.791,2.368v.125a3.5,3.5,0,0,1-.791,2.374,2.717,2.717,0,0,1-2.171.917,2.72,2.72,0,0,1-2.177-.92,3.506,3.506,0,0,1-.791-2.371Zm1.451.125a2.866,2.866,0,0,0,.37,1.541,1.257,1.257,0,0,0,1.147.591,1.26,1.26,0,0,0,1.138-.594A2.816,2.816,0,0,0,28.5-3.165v-.125a2.81,2.81,0,0,0-.379-1.526,1.268,1.268,0,0,0-1.15-.6,1.243,1.243,0,0,0-1.132.6,2.845,2.845,0,0,0-.373,1.526Zm8.964-1.989-.621-.024A1.3,1.3,0,0,0,33.105-5a1.18,1.18,0,0,0-.439.508V0H31.215V-6.462h1.326l.1.938a2.072,2.072,0,0,1,.63-.776,1.467,1.467,0,0,1,.887-.281,1.352,1.352,0,0,1,.245.021,1.788,1.788,0,0,1,.209.051ZM39.232,0q-.078-.245-.128-.478a3.415,3.415,0,0,1-.069-.466,2.489,2.489,0,0,1-.782.761,2.013,2.013,0,0,1-1.093.308,2.148,2.148,0,0,1-1.55-.52,1.887,1.887,0,0,1-.54-1.427,1.686,1.686,0,0,1,.741-1.46A3.576,3.576,0,0,1,37.894-3.8h1.129v-.567a1.055,1.055,0,0,0-.3-.794,1.182,1.182,0,0,0-.857-.287,1.22,1.22,0,0,0-.788.236.75.75,0,0,0-.293.612l-1.4.006-.006-.036a1.6,1.6,0,0,1,.684-1.356,2.9,2.9,0,0,1,1.89-.591,2.764,2.764,0,0,1,1.821.573,2.018,2.018,0,0,1,.693,1.648v2.872a5.3,5.3,0,0,0,.054.767A4.075,4.075,0,0,0,40.7,0ZM37.458-1.039a1.814,1.814,0,0,0,.982-.275,1.383,1.383,0,0,0,.582-.627V-2.9H37.87a1.455,1.455,0,0,0-.991.314.952.952,0,0,0-.358.738.752.752,0,0,0,.242.588A1,1,0,0,0,37.458-1.039Zm4.264-2.1a4.261,4.261,0,0,1,.663-2.493,2.144,2.144,0,0,1,1.863-.947,2.038,2.038,0,0,1,.941.212,2.129,2.129,0,0,1,.72.606V-9.316h1.451V0H46.183L46.01-.818a2.155,2.155,0,0,1-.752.7,2.093,2.093,0,0,1-1.021.242,2.2,2.2,0,0,1-1.851-.866,3.643,3.643,0,0,1-.663-2.275Zm1.451.125a2.6,2.6,0,0,0,.343,1.427,1.2,1.2,0,0,0,1.09.532,1.457,1.457,0,0,0,.779-.2,1.5,1.5,0,0,0,.523-.561V-4.634a1.528,1.528,0,0,0-.526-.558,1.421,1.421,0,0,0-.764-.2,1.17,1.17,0,0,0-1.093.624,3.293,3.293,0,0,0-.352,1.627Zm5.476-.275a3.509,3.509,0,0,1,.791-2.368,2.7,2.7,0,0,1,2.165-.923,2.723,2.723,0,0,1,2.183.923,3.509,3.509,0,0,1,.791,2.368v.125a3.5,3.5,0,0,1-.791,2.374,2.717,2.717,0,0,1-2.171.917,2.72,2.72,0,0,1-2.177-.92,3.506,3.506,0,0,1-.791-2.371Zm1.451.125a2.866,2.866,0,0,0,.37,1.541,1.257,1.257,0,0,0,1.147.591,1.26,1.26,0,0,0,1.138-.594,2.816,2.816,0,0,0,.379-1.538v-.125a2.81,2.81,0,0,0-.379-1.526,1.268,1.268,0,0,0-1.15-.6,1.243,1.243,0,0,0-1.132.6A2.845,2.845,0,0,0,50.1-3.291Zm14.452.149A3.643,3.643,0,0,1,63.89-.741a2.192,2.192,0,0,1-1.845.866,2.285,2.285,0,0,1-.973-.2,2,2,0,0,1-.729-.579V2.484H58.891V-6.462h1.224l.143.812a2.155,2.155,0,0,1,.749-.693,2.1,2.1,0,0,1,1.018-.239,2.146,2.146,0,0,1,1.86.947,4.247,4.247,0,0,1,.666,2.493Zm-1.445-.125a3.148,3.148,0,0,0-.373-1.621,1.214,1.214,0,0,0-1.114-.63,1.447,1.447,0,0,0-.77.194,1.429,1.429,0,0,0-.508.54v2.92a1.35,1.35,0,0,0,.508.523,1.547,1.547,0,0,0,.782.182A1.245,1.245,0,0,0,62.74-1.58a2.532,2.532,0,0,0,.367-1.436Zm2.443-.149a3.509,3.509,0,0,1,.791-2.368,2.7,2.7,0,0,1,2.165-.923,2.723,2.723,0,0,1,2.183.923,3.509,3.509,0,0,1,.791,2.368v.125a3.5,3.5,0,0,1-.791,2.374,2.717,2.717,0,0,1-2.171.917,2.72,2.72,0,0,1-2.177-.92,3.506,3.506,0,0,1-.791-2.371ZM67-3.165a2.866,2.866,0,0,0,.37,1.541,1.257,1.257,0,0,0,1.147.591,1.26,1.26,0,0,0,1.138-.594,2.816,2.816,0,0,0,.379-1.538v-.125a2.81,2.81,0,0,0-.379-1.526,1.268,1.268,0,0,0-1.15-.6,1.243,1.243,0,0,0-1.132.6A2.845,2.845,0,0,0,67-3.291Zm8.964-1.989-.621-.024A1.3,1.3,0,0,0,74.636-5a1.18,1.18,0,0,0-.439.508V0H72.746V-6.462h1.326l.1.938A2.072,2.072,0,0,1,74.8-6.3a1.467,1.467,0,0,1,.887-.281,1.352,1.352,0,0,1,.245.021,1.788,1.788,0,0,1,.209.051ZM77.6,0H76.156V-1.391H77.6Zm0-5.231H76.156V-6.623H77.6Z" transform="translate(-6311.92 -13973.403)" fill="#0c1d30"/>
    <path id="Trazado_204385" data-name="Trazado 204385" d="M0,0H146.023" transform="translate(-5783.272 -14238.23)" fill="none" stroke="#000" stroke-width="1.747"/>
    <path id="Trazado_204386" data-name="Trazado 204386" d="M0,0H137.4" transform="translate(-5774.647 -14212.581)" fill="none" stroke="#000" stroke-width="1.747"/>
    <path id="Trazado_204387" data-name="Trazado 204387" d="M0,0H151.679" transform="translate(-5788.928 -14186.932)" fill="none" stroke="#000" stroke-width="1.747"/>
  </g>
</svg>
