<svg xmlns="http://www.w3.org/2000/svg" xmlns:xlink="http://www.w3.org/1999/xlink" width="360.899" height="189.407" viewBox="0 0 360.899 189.407">
  <defs>
    <clipPath id="clip-path">
      <rect id="Rectángulo_41970" data-name="Rectángulo 41970" width="359.022" height="187.53" fill="none" stroke="#000" stroke-width="1"/>
    </clipPath>
  </defs>
  <g id="Grupo_144010" data-name="Grupo 144010" transform="translate(5109.949 14069.355)">
    <g id="Grupo_142884" data-name="Grupo 142884" transform="translate(-5109.011 -14068.417)">
      <g id="Grupo_142883" data-name="Grupo 142883" clip-path="url(#clip-path)">
        <g id="Grupo_142882" data-name="Grupo 142882">
          <g id="Grupo_142881" data-name="Grupo 142881" clip-path="url(#clip-path)">
            <rect id="Rectángulo_41885" data-name="Rectángulo 41885" width="34.27" height="14.737" transform="translate(63.776 99.894)" fill="#fff" stroke="#000" stroke-width="1"/>
            <rect id="Rectángulo_41886" data-name="Rectángulo 41886" width="21.747" height="14.737" transform="translate(293.746 114.631)" fill="#fff" stroke="#000" stroke-width="1"/>
            <rect id="Rectángulo_41887" data-name="Rectángulo 41887" width="21.742" height="14.737" transform="translate(272.004 99.894)" fill="#fff" stroke="#000" stroke-width="1"/>
            <rect id="Rectángulo_41888" data-name="Rectángulo 41888" width="21.742" height="14.737" transform="translate(315.493 85.156)" fill="#fff" stroke="#000" stroke-width="1"/>
            <rect id="Rectángulo_41889" data-name="Rectángulo 41889" width="21.742" height="14.737" transform="translate(272.004 114.631)" fill="#fff" stroke="#000" stroke-width="1"/>
            <path id="Trazado_202958" data-name="Trazado 202958" d="M358.886,287.853v43.429H239.214V287.853H358.886Z" transform="translate(-119.536 -143.752)" fill="#fff" stroke="#000" stroke-width="1"/>
            <rect id="Rectángulo_41890" data-name="Rectángulo 41890" width="21.742" height="14.737" transform="translate(272.004 85.156)" fill="#fff" stroke="#000" stroke-width="1"/>
            <rect id="Rectángulo_41891" data-name="Rectángulo 41891" width="21.742" height="14.737" transform="translate(272.004 70.419)" fill="#fff" stroke="#000" stroke-width="1"/>
            <rect id="Rectángulo_41892" data-name="Rectángulo 41892" width="21.742" height="14.737" transform="translate(228.514 70.419)" fill="#fff" stroke="#000" stroke-width="1"/>
            <rect id="Rectángulo_41893" data-name="Rectángulo 41893" width="21.747" height="14.737" transform="translate(250.256 70.419)" fill="#fff" stroke="#000" stroke-width="1"/>
            <rect id="Rectángulo_41894" data-name="Rectángulo 41894" width="21.742" height="14.737" transform="translate(315.493 70.419)" fill="#fff" stroke="#000" stroke-width="1"/>
            <rect id="Rectángulo_41895" data-name="Rectángulo 41895" width="21.747" height="14.732" transform="translate(293.746 129.369)" fill="#fff" stroke="#000" stroke-width="1"/>
            <rect id="Rectángulo_41896" data-name="Rectángulo 41896" width="21.747" height="14.732" transform="translate(250.256 129.369)" fill="#fff" stroke="#000" stroke-width="1"/>
            <rect id="Rectángulo_41897" data-name="Rectángulo 41897" width="21.747" height="14.732" transform="translate(206.767 129.369)" fill="#fff" stroke="#000" stroke-width="1"/>
            <rect id="Rectángulo_41898" data-name="Rectángulo 41898" width="21.747" height="14.737" transform="translate(293.746 99.894)" fill="#fff" stroke="#000" stroke-width="1"/>
            <rect id="Rectángulo_41899" data-name="Rectángulo 41899" width="21.747" height="14.737" transform="translate(293.746 70.419)" fill="#fff" stroke="#000" stroke-width="1"/>
            <rect id="Rectángulo_41900" data-name="Rectángulo 41900" width="21.742" height="14.732" transform="translate(272.004 129.369)" fill="#fff" stroke="#000" stroke-width="1"/>
            <path id="Trazado_202959" data-name="Trazado 202959" d="M597.216,287.853v43.429H477.544V287.853H597.216Z" transform="translate(-238.194 -143.752)" fill="#fff" stroke="#000" stroke-width="1"/>
            <rect id="Rectángulo_41901" data-name="Rectángulo 41901" width="21.747" height="14.737" transform="translate(250.256 85.156)" fill="#fff" stroke="#000" stroke-width="1"/>
            <rect id="Rectángulo_41902" data-name="Rectángulo 41902" width="21.742" height="14.737" transform="translate(228.514 114.631)" fill="#fff" stroke="#000" stroke-width="1"/>
            <rect id="Rectángulo_41903" data-name="Rectángulo 41903" width="21.747" height="14.737" transform="translate(293.746 85.156)" fill="#fff" stroke="#000" stroke-width="1"/>
            <rect id="Rectángulo_41904" data-name="Rectángulo 41904" width="21.742" height="14.737" transform="translate(315.493 99.894)" fill="#fff" stroke="#000" stroke-width="1"/>
            <path id="Trazado_202960" data-name="Trazado 202960" d="M477.706,258.513v14.732H455.964V258.513Z" transform="translate(-227.45 -129.145)" fill="#fff" stroke="#000" stroke-width="1"/>
            <rect id="Rectángulo_41905" data-name="Rectángulo 41905" width="21.747" height="14.737" transform="translate(250.256 114.631)" fill="#fff" stroke="#000" stroke-width="1"/>
            <rect id="Rectángulo_41906" data-name="Rectángulo 41906" width="21.742" height="14.737" transform="translate(228.514 85.156)" fill="#fff" stroke="#000" stroke-width="1"/>
            <rect id="Rectángulo_41907" data-name="Rectángulo 41907" width="21.747" height="14.732" transform="translate(337.235 129.369)" fill="#fff" stroke="#000" stroke-width="1"/>
            <rect id="Rectángulo_41908" data-name="Rectángulo 41908" width="21.747" height="14.737" transform="translate(337.235 114.631)" fill="#fff" stroke="#000" stroke-width="1"/>
            <rect id="Rectángulo_41909" data-name="Rectángulo 41909" width="21.742" height="14.737" transform="translate(228.514 99.894)" fill="#fff" stroke="#000" stroke-width="1"/>
            <rect id="Rectángulo_41910" data-name="Rectángulo 41910" width="21.742" height="14.737" transform="translate(315.493 114.631)" fill="#fff" stroke="#000" stroke-width="1"/>
            <rect id="Rectángulo_41911" data-name="Rectángulo 41911" width="21.747" height="14.737" transform="translate(337.235 70.419)" fill="#fff" stroke="#000" stroke-width="1"/>
            <rect id="Rectángulo_41912" data-name="Rectángulo 41912" width="21.742" height="14.732" transform="translate(315.493 129.369)" fill="#fff" stroke="#000" stroke-width="1"/>
            <rect id="Rectángulo_41913" data-name="Rectángulo 41913" width="21.747" height="14.737" transform="translate(337.235 99.894)" fill="#fff" stroke="#000" stroke-width="1"/>
            <rect id="Rectángulo_41914" data-name="Rectángulo 41914" width="21.747" height="14.737" transform="translate(337.235 85.156)" fill="#fff" stroke="#000" stroke-width="1"/>
            <rect id="Rectángulo_41915" data-name="Rectángulo 41915" width="21.747" height="14.737" transform="translate(250.256 99.894)" fill="#fff" stroke="#000" stroke-width="1"/>
            <rect id="Rectángulo_41916" data-name="Rectángulo 41916" width="21.742" height="14.737" transform="translate(98.046 85.156)" fill="#fff" stroke="#000" stroke-width="1"/>
            <rect id="Rectángulo_41917" data-name="Rectángulo 41917" width="21.747" height="14.737" transform="translate(163.277 85.156)" fill="#fff" stroke="#000" stroke-width="1"/>
            <rect id="Rectángulo_41918" data-name="Rectángulo 41918" width="34.27" height="14.732" transform="translate(63.776 129.369)" fill="#fff" stroke="#000" stroke-width="1"/>
            <rect id="Rectángulo_41919" data-name="Rectángulo 41919" width="63.775" height="14.737" transform="translate(0 70.419)" fill="#fff" stroke="#000" stroke-width="1"/>
            <path id="Trazado_202961" data-name="Trazado 202961" d="M217.876,258.513v14.732H196.134V258.513Z" transform="translate(-98.088 -129.145)" fill="#fff" stroke="#000" stroke-width="1"/>
            <rect id="Rectángulo_41920" data-name="Rectángulo 41920" width="21.747" height="14.737" transform="translate(163.277 114.631)" fill="#fff" stroke="#000" stroke-width="1"/>
            <rect id="Rectángulo_41921" data-name="Rectángulo 41921" width="21.747" height="14.737" transform="translate(206.767 114.631)" fill="#fff" stroke="#000" stroke-width="1"/>
            <rect id="Rectángulo_41922" data-name="Rectángulo 41922" width="63.775" height="14.732" transform="translate(0 129.369)" fill="#fff" stroke="#000" stroke-width="1"/>
            <rect id="Rectángulo_41923" data-name="Rectángulo 41923" width="21.747" height="14.737" transform="translate(206.767 99.894)" fill="#fff" stroke="#000" stroke-width="1"/>
            <rect id="Rectángulo_41924" data-name="Rectángulo 41924" width="21.742" height="14.737" transform="translate(141.535 99.894)" fill="#fff" stroke="#000" stroke-width="1"/>
            <path id="Trazado_202962" data-name="Trazado 202962" d="M120.551,287.853v43.429H.874V287.853H120.551Z" transform="translate(-0.874 -143.752)" fill="#fff" stroke="#000" stroke-width="1"/>
            <rect id="Rectángulo_41925" data-name="Rectángulo 41925" width="21.747" height="14.737" transform="translate(206.767 85.156)" fill="#fff" stroke="#000" stroke-width="1"/>
            <rect id="Rectángulo_41926" data-name="Rectángulo 41926" width="21.747" height="14.737" transform="translate(206.767 70.419)" fill="#fff" stroke="#000" stroke-width="1"/>
            <rect id="Rectángulo_41927" data-name="Rectángulo 41927" width="21.747" height="14.737" transform="translate(119.788 114.631)" fill="#fff" stroke="#000" stroke-width="1"/>
            <rect id="Rectángulo_41928" data-name="Rectángulo 41928" width="34.27" height="14.737" transform="translate(63.776 70.419)" fill="#fff" stroke="#000" stroke-width="1"/>
            <rect id="Rectángulo_41929" data-name="Rectángulo 41929" width="21.742" height="14.732" transform="translate(185.025 129.369)" fill="#fff" stroke="#000" stroke-width="1"/>
            <rect id="Rectángulo_41930" data-name="Rectángulo 41930" width="21.742" height="14.737" transform="translate(185.025 85.156)" fill="#fff" stroke="#000" stroke-width="1"/>
            <rect id="Rectángulo_41931" data-name="Rectángulo 41931" width="21.747" height="14.732" transform="translate(119.788 129.369)" fill="#fff" stroke="#000" stroke-width="1"/>
            <rect id="Rectángulo_41932" data-name="Rectángulo 41932" width="34.27" height="14.737" transform="translate(63.776 85.156)" fill="#fff" stroke="#000" stroke-width="1"/>
            <rect id="Rectángulo_41933" data-name="Rectángulo 41933" width="21.742" height="14.737" transform="translate(185.025 70.419)" fill="#fff" stroke="#000" stroke-width="1"/>
            <rect id="Rectángulo_41934" data-name="Rectángulo 41934" width="63.775" height="14.737" transform="translate(0 114.631)" fill="#fff" stroke="#000" stroke-width="1"/>
            <rect id="Rectángulo_41935" data-name="Rectángulo 41935" width="21.742" height="14.737" transform="translate(141.535 85.156)" fill="#fff" stroke="#000" stroke-width="1"/>
            <rect id="Rectángulo_41936" data-name="Rectángulo 41936" width="21.742" height="14.737" transform="translate(141.535 70.419)" fill="#fff" stroke="#000" stroke-width="1"/>
            <rect id="Rectángulo_41937" data-name="Rectángulo 41937" width="21.747" height="14.737" transform="translate(119.788 99.894)" fill="#fff" stroke="#000" stroke-width="1"/>
            <rect id="Rectángulo_41938" data-name="Rectángulo 41938" width="63.775" height="14.737" transform="translate(0 99.894)" fill="#fff" stroke="#000" stroke-width="1"/>
            <rect id="Rectángulo_41939" data-name="Rectángulo 41939" width="21.742" height="14.732" transform="translate(141.535 129.369)" fill="#fff" stroke="#000" stroke-width="1"/>
            <rect id="Rectángulo_41940" data-name="Rectángulo 41940" width="21.742" height="14.737" transform="translate(185.025 114.631)" fill="#fff" stroke="#000" stroke-width="1"/>
            <rect id="Rectángulo_41941" data-name="Rectángulo 41941" width="21.742" height="14.737" transform="translate(185.025 99.894)" fill="#fff" stroke="#000" stroke-width="1"/>
            <rect id="Rectángulo_41942" data-name="Rectángulo 41942" width="21.747" height="14.737" transform="translate(119.788 85.156)" fill="#fff" stroke="#000" stroke-width="1"/>
            <rect id="Rectángulo_41943" data-name="Rectángulo 41943" width="21.747" height="14.737" transform="translate(119.788 70.419)" fill="#fff" stroke="#000" stroke-width="1"/>
            <rect id="Rectángulo_41944" data-name="Rectángulo 41944" width="21.742" height="14.737" transform="translate(141.535 114.631)" fill="#fff" stroke="#000" stroke-width="1"/>
            <rect id="Rectángulo_41945" data-name="Rectángulo 41945" width="21.747" height="14.732" transform="translate(163.277 129.369)" fill="#fff" stroke="#000" stroke-width="1"/>
            <rect id="Rectángulo_41946" data-name="Rectángulo 41946" width="21.747" height="14.737" transform="translate(163.277 99.894)" fill="#fff" stroke="#000" stroke-width="1"/>
            <rect id="Rectángulo_41947" data-name="Rectángulo 41947" width="21.742" height="14.737" transform="translate(98.046 70.419)" fill="#fff" stroke="#000" stroke-width="1"/>
            <rect id="Rectángulo_41948" data-name="Rectángulo 41948" width="21.742" height="14.737" transform="translate(98.046 114.631)" fill="#fff" stroke="#000" stroke-width="1"/>
            <rect id="Rectángulo_41949" data-name="Rectángulo 41949" width="34.27" height="14.737" transform="translate(63.776 114.631)" fill="#fff" stroke="#000" stroke-width="1"/>
            <rect id="Rectángulo_41950" data-name="Rectángulo 41950" width="63.775" height="14.737" transform="translate(0 85.156)" fill="#fff" stroke="#000" stroke-width="1"/>
            <rect id="Rectángulo_41951" data-name="Rectángulo 41951" width="21.747" height="14.737" transform="translate(163.277 70.419)" fill="#fff" stroke="#000" stroke-width="1"/>
            <rect id="Rectángulo_41952" data-name="Rectángulo 41952" width="21.742" height="14.737" transform="translate(98.046 99.894)" fill="#fff" stroke="#000" stroke-width="1"/>
            <rect id="Rectángulo_41953" data-name="Rectángulo 41953" width="241.183" height="26.994" transform="translate(0 0)" fill="#fff" stroke="#000" stroke-width="1"/>
            <rect id="Rectángulo_41954" data-name="Rectángulo 41954" width="117.799" height="26.994" transform="translate(241.183 0)" fill="#fff" stroke="#000" stroke-width="1"/>
            <path id="Trazado_202963" data-name="Trazado 202963" d="M242.056,54.633h117.8V76.345H.874V54.633Z" transform="translate(-0.874 -27.639)" fill="#fff" stroke="#000" stroke-width="1"/>
            <rect id="Rectángulo_41955" data-name="Rectángulo 41955" width="21.747" height="21.712" transform="translate(337.235 48.707)" fill="#e3e3e3" stroke="#000" stroke-width="1"/>
            <rect id="Rectángulo_41956" data-name="Rectángulo 41956" width="21.742" height="21.712" transform="translate(315.493 48.707)" fill="#e3e3e3" stroke="#000" stroke-width="1"/>
            <rect id="Rectángulo_41957" data-name="Rectángulo 41957" width="21.747" height="21.712" transform="translate(293.746 48.707)" fill="#e3e3e3" stroke="#000" stroke-width="1"/>
            <rect id="Rectángulo_41958" data-name="Rectángulo 41958" width="21.742" height="21.712" transform="translate(272.004 48.707)" fill="#e3e3e3" stroke="#000" stroke-width="1"/>
            <rect id="Rectángulo_41959" data-name="Rectángulo 41959" width="21.747" height="21.712" transform="translate(250.256 48.707)" fill="#e3e3e3" stroke="#000" stroke-width="1"/>
            <rect id="Rectángulo_41960" data-name="Rectángulo 41960" width="21.742" height="21.712" transform="translate(228.514 48.707)" fill="#e3e3e3" stroke="#000" stroke-width="1"/>
            <rect id="Rectángulo_41961" data-name="Rectángulo 41961" width="21.747" height="21.712" transform="translate(206.767 48.707)" fill="#e3e3e3" stroke="#000" stroke-width="1"/>
            <rect id="Rectángulo_41962" data-name="Rectángulo 41962" width="21.742" height="21.712" transform="translate(185.025 48.707)" fill="#e3e3e3" stroke="#000" stroke-width="1"/>
            <rect id="Rectángulo_41963" data-name="Rectángulo 41963" width="21.747" height="21.712" transform="translate(163.277 48.707)" fill="#e3e3e3" stroke="#000" stroke-width="1"/>
            <rect id="Rectángulo_41964" data-name="Rectángulo 41964" width="21.742" height="21.712" transform="translate(141.535 48.707)" fill="#e3e3e3" stroke="#000" stroke-width="1"/>
            <rect id="Rectángulo_41965" data-name="Rectángulo 41965" width="21.747" height="21.712" transform="translate(119.788 48.707)" fill="#e3e3e3" stroke="#000" stroke-width="1"/>
            <rect id="Rectángulo_41966" data-name="Rectángulo 41966" width="21.742" height="21.712" transform="translate(98.046 48.707)" fill="#e3e3e3" stroke="#000" stroke-width="1"/>
            <rect id="Rectángulo_41967" data-name="Rectángulo 41967" width="34.27" height="21.712" transform="translate(63.776 48.707)" fill="#e3e3e3" stroke="#000" stroke-width="1"/>
            <rect id="Rectángulo_41968" data-name="Rectángulo 41968" width="63.775" height="21.712" transform="translate(0 48.707)" fill="#e3e3e3" stroke="#000" stroke-width="1"/>
          </g>
        </g>
      </g>
    </g>
    <path id="Trazado_202964" data-name="Trazado 202964" d="M120.551,287.853H.874v43.429H120.551" transform="translate(-5109.884 -14212.169)" fill="none" stroke="#000" stroke-width="1.747"/>
    <path id="Trazado_202965" data-name="Trazado 202965" d="M358.886,287.853H239.214v43.429H358.886" transform="translate(-5228.547 -14212.169)" fill="none" stroke="#000" stroke-width="1.747"/>
    <path id="Trazado_202966" data-name="Trazado 202966" d="M477.544,331.283H597.216V287.853H477.544Z" transform="translate(-5347.204 -14212.169)" fill="none" stroke="#000" stroke-width="1.747"/>
    <path id="Trazado_202967" data-name="Trazado 202967" d="M.874,144.974V.873H359.856v144.1" transform="translate(-5109.884 -14069.29)" fill="none" stroke="#000" stroke-width="1.747"/>
    <path id="Trazado_202968" data-name="Trazado 202968" d="M.874,54.633H359.856" transform="translate(-5109.884 -14096.056)" fill="none" stroke="#000" stroke-width="1.747"/>
    <path id="Trazado_202969" data-name="Trazado 202969" d="M.874,97.873H359.856" transform="translate(-5109.884 -14117.584)" fill="none" stroke="#000" stroke-width="1.747"/>
    <path id="Trazado_202970" data-name="Trazado 202970" d="M.874,170.463H359.856" transform="translate(-5109.884 -14153.725)" fill="none" stroke="#000" stroke-width="1.747"/>
    <path id="Trazado_202971" data-name="Trazado 202971" d="M.874,141.113H359.856" transform="translate(-5109.884 -14139.111)" fill="none" stroke="#000" stroke-width="1.747"/>
    <path id="Trazado_202972" data-name="Trazado 202972" d="M.874,199.813H359.856" transform="translate(-5109.884 -14168.337)" fill="none" stroke="#000" stroke-width="1.747"/>
    <path id="Trazado_202973" data-name="Trazado 202973" d="M.874,258.513H359.856" transform="translate(-5109.884 -14197.562)" fill="none" stroke="#000" stroke-width="1.747"/>
    <path id="Trazado_202974" data-name="Trazado 202974" d="M.874,229.163H359.856" transform="translate(-5109.884 -14182.949)" fill="none" stroke="#000" stroke-width="1.747"/>
    <path id="Trazado_204446" data-name="Trazado 204446" d="M0,0H359.9V188.407H0Z" transform="translate(-5109.449 -14068.855)" fill="none" stroke="#000" stroke-width="1"/>
    <path id="Trazado_202975" data-name="Trazado 202975" d="M127.884,193.268V97.873" transform="translate(-5173.119 -14117.584)" fill="none" stroke="#000" stroke-width="1.747"/>
    <path id="Trazado_202976" data-name="Trazado 202976" d="M196.134,193.268V97.873" transform="translate(-5207.099 -14117.584)" fill="none" stroke="#000" stroke-width="1.747"/>
    <path id="Trazado_202977" data-name="Trazado 202977" d="M239.434,193.268V97.873" transform="translate(-5228.656 -14117.584)" fill="none" stroke="#000" stroke-width="1.747"/>
    <path id="Trazado_202978" data-name="Trazado 202978" d="M282.744,193.268V97.873" transform="translate(-5250.219 -14117.584)" fill="none" stroke="#000" stroke-width="1.747"/>
    <path id="Trazado_202979" data-name="Trazado 202979" d="M326.044,193.268V97.873" transform="translate(-5271.777 -14117.584)" fill="none" stroke="#000" stroke-width="1.747"/>
    <path id="Trazado_202980" data-name="Trazado 202980" d="M369.354,193.268V97.873" transform="translate(-5293.34 -14117.584)" fill="none" stroke="#000" stroke-width="1.747"/>
    <path id="Trazado_202981" data-name="Trazado 202981" d="M412.654,193.268V97.873" transform="translate(-5314.897 -14117.584)" fill="none" stroke="#000" stroke-width="1.747"/>
    <path id="Trazado_202982" data-name="Trazado 202982" d="M455.964,193.268V97.873" transform="translate(-5336.46 -14117.584)" fill="none" stroke="#000" stroke-width="1.747"/>
    <path id="Trazado_202983" data-name="Trazado 202983" d="M499.264,193.268V97.873" transform="translate(-5358.018 -14117.584)" fill="none" stroke="#000" stroke-width="1.747"/>
    <path id="Trazado_202984" data-name="Trazado 202984" d="M542.574,193.268V97.873" transform="translate(-5379.581 -14117.584)" fill="none" stroke="#000" stroke-width="1.747"/>
    <path id="Trazado_202985" data-name="Trazado 202985" d="M585.874,193.268V97.873" transform="translate(-5401.139 -14117.584)" fill="none" stroke="#000" stroke-width="1.747"/>
    <path id="Trazado_202986" data-name="Trazado 202986" d="M629.184,193.268V97.873" transform="translate(-5422.702 -14117.584)" fill="none" stroke="#000" stroke-width="1.747"/>
    <path id="Trazado_202987" data-name="Trazado 202987" d="M672.484,193.268V97.873" transform="translate(-5444.259 -14117.584)" fill="none" stroke="#000" stroke-width="1.747"/>
    <path id="Trazado_202988" data-name="Trazado 202988" d="M481.194,27.958V.873" transform="translate(-5349.021 -14069.29)" fill="none" stroke="#000" stroke-width="1.747"/>
    <path id="Trazado_204447" data-name="Trazado 204447" d="M0,0H359.9V188.407H0Z" transform="translate(-5109.449 -14068.855)" fill="none" stroke="#000" stroke-width="1"/>
    <path id="Trazado_204448" data-name="Trazado 204448" d="M1.248-1.705V0H.393V-4.266H1.869a1.769,1.769,0,0,1,1.141.333,1.125,1.125,0,0,1,.412.927.935.935,0,0,1-.174.567,1.214,1.214,0,0,1-.508.385.918.918,0,0,1,.543.372,1.18,1.18,0,0,1,.166.645v.313A1.551,1.551,0,0,0,3.5-.35a.514.514,0,0,0,.166.289V0H2.78a.474.474,0,0,1-.151-.311A2.728,2.728,0,0,1,2.6-.729v-.3a.678.678,0,0,0-.174-.5.661.661,0,0,0-.494-.177Zm0-.659h.606a.8.8,0,0,0,.536-.152.565.565,0,0,0,.176-.451.621.621,0,0,0-.177-.466.716.716,0,0,0-.52-.173H1.248ZM5.525.062A1.426,1.426,0,0,1,4.418-.374a1.6,1.6,0,0,1-.4-1.121v-.117a1.736,1.736,0,0,1,.387-1.166A1.315,1.315,0,0,1,5.47-3.229a1.231,1.231,0,0,1,.98.391,1.546,1.546,0,0,1,.341,1.053v.442H4.9l-.009.018a.856.856,0,0,0,.2.527.662.662,0,0,0,.526.2A1.76,1.76,0,0,0,6.1-.653a1.99,1.99,0,0,0,.415-.179L6.75-.3a1.588,1.588,0,0,1-.516.261A2.287,2.287,0,0,1,5.525.062ZM5.47-2.569a.475.475,0,0,0-.4.177.889.889,0,0,0-.168.47l.006.015H5.953v-.064a.74.74,0,0,0-.114-.438A.423.423,0,0,0,5.47-2.569ZM8.36-1.181l.056.293h.018l.059-.293L9.014-3.17h.894L8.829,0H8.012L6.934-3.17h.894ZM11.179,0h-.855V-3.17h.855Zm0-3.929h-.855V-4.57h.855ZM13.6-.879a.3.3,0,0,0-.136-.242,1.384,1.384,0,0,0-.505-.177,2.016,2.016,0,0,1-.845-.337.736.736,0,0,1-.289-.612.873.873,0,0,1,.346-.694,1.394,1.394,0,0,1,.92-.287,1.5,1.5,0,0,1,.962.287.839.839,0,0,1,.347.715l-.006.018h-.826a.415.415,0,0,0-.123-.311.487.487,0,0,0-.354-.12.484.484,0,0,0-.325.1.319.319,0,0,0-.12.252.285.285,0,0,0,.125.239,1.386,1.386,0,0,0,.505.166,2.057,2.057,0,0,1,.869.344.755.755,0,0,1,.286.625.837.837,0,0,1-.366.7,1.581,1.581,0,0,1-.967.272,1.469,1.469,0,0,1-1-.321.9.9,0,0,1-.35-.731l.006-.018h.782a.445.445,0,0,0,.167.369.689.689,0,0,0,.413.114.587.587,0,0,0,.362-.1A.309.309,0,0,0,13.6-.879ZM16.845,0a1.8,1.8,0,0,1-.081-.229,1.59,1.59,0,0,1-.048-.246,1.173,1.173,0,0,1-.349.384.874.874,0,0,1-.516.152,1.07,1.07,0,0,1-.768-.256.918.918,0,0,1-.27-.7.836.836,0,0,1,.359-.722,1.792,1.792,0,0,1,1.047-.256h.48v-.252a.493.493,0,0,0-.12-.354.471.471,0,0,0-.357-.126.465.465,0,0,0-.321.1.353.353,0,0,0-.113.277h-.823l-.006-.018a.8.8,0,0,1,.35-.693,1.521,1.521,0,0,1,.968-.292,1.419,1.419,0,0,1,.924.287,1,1,0,0,1,.353.823v1.31a2.476,2.476,0,0,0,.034.419A2.1,2.1,0,0,0,17.7,0Zm-.782-.571a.729.729,0,0,0,.4-.111A.6.6,0,0,0,16.7-.94v-.448h-.48a.569.569,0,0,0-.412.135.443.443,0,0,0-.139.331.331.331,0,0,0,.1.256A.411.411,0,0,0,16.063-.571Zm2-.987a2.06,2.06,0,0,1,.324-1.21,1.051,1.051,0,0,1,.913-.46.888.888,0,0,1,.428.1,1.029,1.029,0,0,1,.334.293V-4.57h.858V0h-.729L20.12-.39a1.06,1.06,0,0,1-.354.335A.937.937,0,0,1,19.3.062a1.072,1.072,0,0,1-.907-.428A1.826,1.826,0,0,1,18.067-1.5Zm.853.062a1.291,1.291,0,0,0,.141.655.49.49,0,0,0,.457.239.666.666,0,0,0,.322-.075A.6.6,0,0,0,20.065-.9V-2.247a.658.658,0,0,0-.224-.233.6.6,0,0,0-.318-.083.483.483,0,0,0-.458.278,1.573,1.573,0,0,0-.145.727Zm2.534-.117a1.7,1.7,0,0,1,.4-1.162,1.379,1.379,0,0,1,1.1-.453,1.393,1.393,0,0,1,1.1.451,1.692,1.692,0,0,1,.4,1.163v.062a1.7,1.7,0,0,1-.4,1.165,1.387,1.387,0,0,1-1.1.45,1.391,1.391,0,0,1-1.1-.45,1.7,1.7,0,0,1-.4-1.165Zm.853.062a1.379,1.379,0,0,0,.152.7.526.526,0,0,0,.492.262.521.521,0,0,0,.485-.264,1.37,1.37,0,0,0,.154-.694v-.062a1.356,1.356,0,0,0-.155-.688.525.525,0,0,0-.489-.267.519.519,0,0,0-.485.268,1.368,1.368,0,0,0-.154.687Zm7.02.056A1.821,1.821,0,0,1,29-.366a1.076,1.076,0,0,1-.908.428,1.015,1.015,0,0,1-.442-.092A.909.909,0,0,1,27.318-.3V1.219h-.853V-3.17h.771l.05.375a1.016,1.016,0,0,1,.338-.321.915.915,0,0,1,.461-.113,1.055,1.055,0,0,1,.914.46,2.053,2.053,0,0,1,.325,1.21Zm-.855-.062a1.534,1.534,0,0,0-.149-.727.487.487,0,0,0-.457-.278.646.646,0,0,0-.33.079.564.564,0,0,0-.215.226V-.87a.524.524,0,0,0,.215.205.725.725,0,0,0,.335.07.492.492,0,0,0,.456-.243A1.284,1.284,0,0,0,28.47-1.5Zm1.251-.056a1.7,1.7,0,0,1,.4-1.162,1.379,1.379,0,0,1,1.1-.453,1.393,1.393,0,0,1,1.1.451,1.692,1.692,0,0,1,.4,1.163v.062a1.7,1.7,0,0,1-.4,1.165,1.387,1.387,0,0,1-1.1.45,1.391,1.391,0,0,1-1.1-.45,1.7,1.7,0,0,1-.4-1.165Zm.853.062a1.379,1.379,0,0,0,.152.7.526.526,0,0,0,.492.262A.521.521,0,0,0,31.7-.858a1.37,1.37,0,0,0,.154-.694v-.062A1.356,1.356,0,0,0,31.7-2.3a.525.525,0,0,0-.489-.267.519.519,0,0,0-.485.268,1.368,1.368,0,0,0-.154.687Zm4.333-.882-.313-.009a.57.57,0,0,0-.313.079.5.5,0,0,0-.187.223V0h-.853V-3.17h.794l.038.469a1,1,0,0,1,.289-.388.643.643,0,0,1,.409-.139.639.639,0,0,1,.119.01q.054.01.11.025ZM35.794,0h-.855V-.75h.855Zm0-2.566h-.855v-.75h.855Z" transform="translate(-4979.788 -13901.275)" fill="#0c1d30"/>
    <path id="Trazado_204449" data-name="Trazado 204449" d="M2.616-.92H1.233L.946,0H.053L1.491-4.266h.876L3.8,0H2.906ZM1.444-1.591h.964l-.472-1.5H1.919Zm5.42.094A1.821,1.821,0,0,1,6.539-.366a1.076,1.076,0,0,1-.908.428,1.015,1.015,0,0,1-.442-.092A.909.909,0,0,1,4.857-.3V1.219H4V-3.17h.771l.05.375a1.016,1.016,0,0,1,.338-.321.915.915,0,0,1,.461-.113,1.055,1.055,0,0,1,.914.46,2.053,2.053,0,0,1,.325,1.21Zm-.855-.062a1.534,1.534,0,0,0-.149-.727A.487.487,0,0,0,5.4-2.563a.646.646,0,0,0-.33.079.564.564,0,0,0-.215.226V-.87a.524.524,0,0,0,.215.205.725.725,0,0,0,.335.07.492.492,0,0,0,.456-.243A1.284,1.284,0,0,0,6.009-1.5Zm3.05-.876-.313-.009a.57.57,0,0,0-.313.079.5.5,0,0,0-.187.223V0H7.392V-3.17h.794l.038.469a1,1,0,0,1,.289-.388.643.643,0,0,1,.409-.139.639.639,0,0,1,.119.01q.054.01.11.025Zm.153.82a1.7,1.7,0,0,1,.4-1.162,1.379,1.379,0,0,1,1.1-.453,1.393,1.393,0,0,1,1.1.451,1.692,1.692,0,0,1,.4,1.163v.062a1.7,1.7,0,0,1-.4,1.165,1.387,1.387,0,0,1-1.1.45,1.391,1.391,0,0,1-1.1-.45,1.7,1.7,0,0,1-.4-1.165Zm.853.062a1.379,1.379,0,0,0,.152.7.526.526,0,0,0,.492.262.521.521,0,0,0,.485-.264,1.37,1.37,0,0,0,.154-.694v-.062a1.356,1.356,0,0,0-.155-.688.525.525,0,0,0-.489-.267.519.519,0,0,0-.485.268,1.368,1.368,0,0,0-.154.687Zm5.525.056a1.854,1.854,0,0,1-.316,1.134,1.07,1.07,0,0,1-.914.425.966.966,0,0,1-.485-.117,1,1,0,0,1-.35-.343l-.07.4H12.73V-4.57h.853v1.737a.968.968,0,0,1,.33-.293.921.921,0,0,1,.441-.1,1.05,1.05,0,0,1,.92.456,2.091,2.091,0,0,1,.316,1.214Zm-.853-.062a1.65,1.65,0,0,0-.136-.734.478.478,0,0,0-.464-.271.639.639,0,0,0-.337.083.579.579,0,0,0-.217.239V-.9a.544.544,0,0,0,.218.22.7.7,0,0,0,.341.076.486.486,0,0,0,.463-.233,1.357,1.357,0,0,0,.132-.661ZM17.986,0a1.8,1.8,0,0,1-.081-.229,1.59,1.59,0,0,1-.048-.246,1.173,1.173,0,0,1-.349.384.874.874,0,0,1-.516.152,1.07,1.07,0,0,1-.768-.256.918.918,0,0,1-.27-.7.836.836,0,0,1,.359-.722,1.792,1.792,0,0,1,1.047-.256h.48v-.252a.493.493,0,0,0-.12-.354.471.471,0,0,0-.357-.126.465.465,0,0,0-.321.1.353.353,0,0,0-.113.277h-.823L16.1-2.244a.8.8,0,0,1,.35-.693,1.521,1.521,0,0,1,.968-.292,1.419,1.419,0,0,1,.924.287,1,1,0,0,1,.353.823v1.31a2.477,2.477,0,0,0,.034.419,2.1,2.1,0,0,0,.107.39ZM17.2-.571a.729.729,0,0,0,.4-.111.6.6,0,0,0,.24-.258v-.448h-.48a.569.569,0,0,0-.412.135.443.443,0,0,0-.139.331.331.331,0,0,0,.1.256A.411.411,0,0,0,17.2-.571Zm2-.987a2.06,2.06,0,0,1,.324-1.21,1.051,1.051,0,0,1,.913-.46.888.888,0,0,1,.428.1,1.029,1.029,0,0,1,.334.293V-4.57h.858V0h-.729l-.073-.39a1.06,1.06,0,0,1-.354.335.937.937,0,0,1-.469.116,1.072,1.072,0,0,1-.907-.428A1.826,1.826,0,0,1,19.208-1.5Zm.853.062a1.291,1.291,0,0,0,.141.655.49.49,0,0,0,.457.239.666.666,0,0,0,.322-.075A.6.6,0,0,0,21.206-.9V-2.247a.658.658,0,0,0-.224-.233.6.6,0,0,0-.318-.083.483.483,0,0,0-.458.278,1.573,1.573,0,0,0-.145.727Zm2.534-.117a1.7,1.7,0,0,1,.4-1.162,1.379,1.379,0,0,1,1.1-.453,1.393,1.393,0,0,1,1.1.451,1.692,1.692,0,0,1,.4,1.163v.062a1.7,1.7,0,0,1-.4,1.165,1.387,1.387,0,0,1-1.1.45,1.391,1.391,0,0,1-1.1-.45,1.7,1.7,0,0,1-.4-1.165Zm.853.062a1.379,1.379,0,0,0,.152.7.526.526,0,0,0,.492.262.521.521,0,0,0,.485-.264,1.37,1.37,0,0,0,.154-.694v-.062a1.356,1.356,0,0,0-.155-.688.525.525,0,0,0-.489-.267A.519.519,0,0,0,23.6-2.3a1.368,1.368,0,0,0-.154.687Zm7.02.056a1.821,1.821,0,0,1-.325,1.131,1.076,1.076,0,0,1-.908.428,1.015,1.015,0,0,1-.442-.092A.909.909,0,0,1,28.46-.3V1.219h-.853V-3.17h.771l.05.375a1.016,1.016,0,0,1,.338-.321.915.915,0,0,1,.461-.113,1.055,1.055,0,0,1,.914.46,2.053,2.053,0,0,1,.325,1.21Zm-.855-.062a1.534,1.534,0,0,0-.149-.727A.487.487,0,0,0,29-2.563a.646.646,0,0,0-.33.079.564.564,0,0,0-.215.226V-.87a.524.524,0,0,0,.215.205.725.725,0,0,0,.335.07.492.492,0,0,0,.456-.243,1.284,1.284,0,0,0,.145-.659Zm1.251-.056a1.7,1.7,0,0,1,.4-1.162,1.379,1.379,0,0,1,1.1-.453,1.393,1.393,0,0,1,1.1.451,1.692,1.692,0,0,1,.4,1.163v.062a1.7,1.7,0,0,1-.4,1.165,1.387,1.387,0,0,1-1.1.45,1.391,1.391,0,0,1-1.1-.45,1.7,1.7,0,0,1-.4-1.165Zm.853.062a1.379,1.379,0,0,0,.152.7.526.526,0,0,0,.492.262.521.521,0,0,0,.485-.264A1.37,1.37,0,0,0,33-1.553v-.062a1.356,1.356,0,0,0-.155-.688.525.525,0,0,0-.489-.267.519.519,0,0,0-.485.268,1.368,1.368,0,0,0-.154.687Zm4.333-.882-.313-.009a.57.57,0,0,0-.313.079.5.5,0,0,0-.187.223V0H34.38V-3.17h.794l.038.469a1,1,0,0,1,.289-.388.643.643,0,0,1,.409-.139.639.639,0,0,1,.119.01q.054.01.11.025ZM36.935,0H36.08V-.75h.855Zm0-2.566H36.08v-.75h.855Z" transform="translate(-4859.557 -13901.275)" fill="#0c1d30"/>
    <path id="Trazado_204450" data-name="Trazado 204450" d="M2.83-1.875H1.248V-.656H3.129V0H.393V-4.266h2.73v.659H1.248v1.072H2.83ZM4.564,0H3.709V-4.57h.855ZM7.137,0a1.8,1.8,0,0,1-.081-.229,1.59,1.59,0,0,1-.048-.246,1.173,1.173,0,0,1-.349.384.874.874,0,0,1-.516.152,1.07,1.07,0,0,1-.768-.256.918.918,0,0,1-.27-.7.836.836,0,0,1,.359-.722,1.792,1.792,0,0,1,1.047-.256h.48v-.252a.493.493,0,0,0-.12-.354A.471.471,0,0,0,6.516-2.6a.465.465,0,0,0-.321.1.353.353,0,0,0-.113.277H5.259l-.006-.018a.8.8,0,0,1,.35-.693,1.521,1.521,0,0,1,.968-.292,1.419,1.419,0,0,1,.924.287,1,1,0,0,1,.353.823v1.31a2.477,2.477,0,0,0,.034.419A2.1,2.1,0,0,0,7.989,0ZM6.354-.571a.729.729,0,0,0,.4-.111.6.6,0,0,0,.24-.258v-.448h-.48a.569.569,0,0,0-.412.135.443.443,0,0,0-.139.331.331.331,0,0,0,.1.256A.411.411,0,0,0,6.354-.571Zm5-.926a1.854,1.854,0,0,1-.316,1.134,1.07,1.07,0,0,1-.914.425.966.966,0,0,1-.485-.117A1,1,0,0,1,9.284-.4l-.07.4H8.49V-4.57h.853v1.737a.968.968,0,0,1,.33-.293.921.921,0,0,1,.441-.1,1.05,1.05,0,0,1,.92.456,2.091,2.091,0,0,1,.316,1.214ZM10.5-1.559a1.65,1.65,0,0,0-.136-.734A.478.478,0,0,0,9.9-2.563a.639.639,0,0,0-.337.083.579.579,0,0,0-.217.239V-.9a.544.544,0,0,0,.218.22A.7.7,0,0,0,9.9-.6a.486.486,0,0,0,.463-.233A1.357,1.357,0,0,0,10.5-1.5Zm1.248-.056a1.7,1.7,0,0,1,.4-1.162,1.379,1.379,0,0,1,1.1-.453,1.393,1.393,0,0,1,1.1.451,1.692,1.692,0,0,1,.4,1.163v.062a1.7,1.7,0,0,1-.4,1.165,1.387,1.387,0,0,1-1.1.45,1.391,1.391,0,0,1-1.1-.45,1.7,1.7,0,0,1-.4-1.165Zm.853.062a1.379,1.379,0,0,0,.152.7.526.526,0,0,0,.492.262.521.521,0,0,0,.485-.264,1.37,1.37,0,0,0,.154-.694v-.062a1.356,1.356,0,0,0-.155-.688.525.525,0,0,0-.489-.267.519.519,0,0,0-.485.268,1.368,1.368,0,0,0-.154.687Zm4.333-.882-.313-.009a.57.57,0,0,0-.313.079.5.5,0,0,0-.187.223V0h-.853V-3.17h.794L16.1-2.7a1,1,0,0,1,.289-.388.643.643,0,0,1,.409-.139.639.639,0,0,1,.119.01q.054.01.11.025ZM19.161,0a1.8,1.8,0,0,1-.081-.229,1.59,1.59,0,0,1-.048-.246,1.173,1.173,0,0,1-.349.384.874.874,0,0,1-.516.152A1.07,1.07,0,0,1,17.4-.195a.918.918,0,0,1-.27-.7.836.836,0,0,1,.359-.722,1.792,1.792,0,0,1,1.047-.256h.48v-.252a.493.493,0,0,0-.12-.354A.471.471,0,0,0,18.54-2.6a.465.465,0,0,0-.321.1.353.353,0,0,0-.113.277h-.823l-.006-.018a.8.8,0,0,1,.35-.693,1.521,1.521,0,0,1,.968-.292,1.419,1.419,0,0,1,.924.287,1,1,0,0,1,.353.823v1.31a2.477,2.477,0,0,0,.034.419,2.1,2.1,0,0,0,.107.39Zm-.782-.571a.729.729,0,0,0,.4-.111.6.6,0,0,0,.24-.258v-.448h-.48a.569.569,0,0,0-.412.135.443.443,0,0,0-.139.331.331.331,0,0,0,.1.256A.411.411,0,0,0,18.379-.571Zm2-.987a2.06,2.06,0,0,1,.324-1.21,1.051,1.051,0,0,1,.913-.46.888.888,0,0,1,.428.1,1.029,1.029,0,0,1,.334.293V-4.57h.858V0H22.51l-.073-.39a1.06,1.06,0,0,1-.354.335.937.937,0,0,1-.469.116,1.072,1.072,0,0,1-.907-.428A1.826,1.826,0,0,1,20.383-1.5Zm.853.062a1.291,1.291,0,0,0,.141.655.49.49,0,0,0,.457.239.666.666,0,0,0,.322-.075A.6.6,0,0,0,22.381-.9V-2.247a.658.658,0,0,0-.224-.233.6.6,0,0,0-.318-.083.483.483,0,0,0-.458.278,1.573,1.573,0,0,0-.145.727Zm2.534-.117a1.7,1.7,0,0,1,.4-1.162,1.379,1.379,0,0,1,1.1-.453,1.393,1.393,0,0,1,1.1.451,1.692,1.692,0,0,1,.4,1.163v.062a1.7,1.7,0,0,1-.4,1.165,1.387,1.387,0,0,1-1.1.45,1.391,1.391,0,0,1-1.1-.45,1.7,1.7,0,0,1-.4-1.165Zm.853.062a1.379,1.379,0,0,0,.152.7.526.526,0,0,0,.492.262.521.521,0,0,0,.485-.264,1.37,1.37,0,0,0,.154-.694v-.062A1.356,1.356,0,0,0,25.75-2.3a.525.525,0,0,0-.489-.267.519.519,0,0,0-.485.268,1.368,1.368,0,0,0-.154.687Zm7.02.056a1.821,1.821,0,0,1-.325,1.131,1.076,1.076,0,0,1-.908.428,1.015,1.015,0,0,1-.442-.092A.909.909,0,0,1,29.635-.3V1.219h-.853V-3.17h.771l.05.375a1.016,1.016,0,0,1,.338-.321.915.915,0,0,1,.461-.113,1.055,1.055,0,0,1,.914.46,2.053,2.053,0,0,1,.325,1.21Zm-.855-.062a1.534,1.534,0,0,0-.149-.727.487.487,0,0,0-.457-.278.646.646,0,0,0-.33.079.564.564,0,0,0-.215.226V-.87a.524.524,0,0,0,.215.205.725.725,0,0,0,.335.07.492.492,0,0,0,.456-.243,1.284,1.284,0,0,0,.145-.659Zm1.251-.056a1.7,1.7,0,0,1,.4-1.162,1.379,1.379,0,0,1,1.1-.453,1.393,1.393,0,0,1,1.1.451,1.692,1.692,0,0,1,.4,1.163v.062a1.7,1.7,0,0,1-.4,1.165,1.387,1.387,0,0,1-1.1.45,1.391,1.391,0,0,1-1.1-.45,1.7,1.7,0,0,1-.4-1.165Zm.853.062a1.379,1.379,0,0,0,.152.7.526.526,0,0,0,.492.262.521.521,0,0,0,.485-.264,1.37,1.37,0,0,0,.154-.694v-.062a1.356,1.356,0,0,0-.155-.688.525.525,0,0,0-.489-.267.519.519,0,0,0-.485.268,1.368,1.368,0,0,0-.154.687Zm4.333-.882-.313-.009a.57.57,0,0,0-.313.079.5.5,0,0,0-.187.223V0h-.853V-3.17h.794l.038.469a1,1,0,0,1,.289-.388.643.643,0,0,1,.409-.139.639.639,0,0,1,.119.01q.054.01.11.025ZM38.11,0h-.855V-.75h.855Zm0-2.566h-.855v-.75h.855Z" transform="translate(-5098.739 -13901.275)" fill="#0c1d30"/>
    <path id="Trazado_204451" data-name="Trazado 204451" d="M1.1-.568H3.261V0h-3V-.445L2.341-3.694H.275v-.571H3.185v.428Zm2.53-1.046a1.721,1.721,0,0,1,.388-1.162,1.326,1.326,0,0,1,1.062-.453,1.336,1.336,0,0,1,1.071.453,1.721,1.721,0,0,1,.388,1.162v.062A1.719,1.719,0,0,1,6.147-.388a1.333,1.333,0,0,1-1.065.45A1.334,1.334,0,0,1,4.014-.39a1.72,1.72,0,0,1-.388-1.163Zm.712.062A1.406,1.406,0,0,0,4.519-.8a.617.617,0,0,0,.563.29A.618.618,0,0,0,5.64-.8a1.381,1.381,0,0,0,.186-.754v-.062a1.379,1.379,0,0,0-.186-.749.622.622,0,0,0-.564-.294.61.61,0,0,0-.555.294,1.4,1.4,0,0,0-.183.749ZM7.8-3.17l.041.457a1.134,1.134,0,0,1,.391-.379,1.044,1.044,0,0,1,.532-.136.99.99,0,0,1,.772.3,1.384,1.384,0,0,1,.277.952V0H9.1V-1.966a.766.766,0,0,0-.144-.524.562.562,0,0,0-.434-.155.85.85,0,0,0-.4.086.693.693,0,0,0-.267.239V0H7.15V-3.17ZM12.464,0q-.038-.12-.063-.234a1.675,1.675,0,0,1-.034-.229,1.221,1.221,0,0,1-.384.374.987.987,0,0,1-.536.151,1.054,1.054,0,0,1-.76-.255.926.926,0,0,1-.265-.7.827.827,0,0,1,.363-.716,1.754,1.754,0,0,1,1.022-.256h.554v-.278a.518.518,0,0,0-.145-.39.58.58,0,0,0-.42-.141.6.6,0,0,0-.387.116.368.368,0,0,0-.144.3l-.686,0,0-.018a.785.785,0,0,1,.335-.665,1.421,1.421,0,0,1,.927-.29,1.356,1.356,0,0,1,.894.281.99.99,0,0,1,.34.809V-.729a2.6,2.6,0,0,0,.026.376A2,2,0,0,0,13.185,0Zm-.87-.51a.89.89,0,0,0,.482-.135.679.679,0,0,0,.286-.308v-.469H11.8a.714.714,0,0,0-.486.154.467.467,0,0,0-.176.362.369.369,0,0,0,.119.289A.493.493,0,0,0,11.594-.51ZM14.1.366h-.653l1.679-4.632h.653Zm2.959-.935h2V0h-2.71V-4.266h.712Zm4.429.1a1.063,1.063,0,0,1-.376.393,1.015,1.015,0,0,1-.532.138.993.993,0,0,1-.8-.335A1.577,1.577,0,0,1,19.5-1.315V-3.17h.709v1.86a1.059,1.059,0,0,0,.132.623.489.489,0,0,0,.41.168.916.916,0,0,0,.432-.092.67.67,0,0,0,.274-.268V-3.17h.712V0h-.612ZM22.8-1.541a2.09,2.09,0,0,1,.325-1.223,1.052,1.052,0,0,1,.914-.464,1,1,0,0,1,.5.122,1.055,1.055,0,0,1,.365.35l.07-.413h.592V0a1.2,1.2,0,0,1-.378.946,1.567,1.567,0,0,1-1.072.334,2.1,2.1,0,0,1-.5-.066,2.32,2.32,0,0,1-.485-.174l.114-.56a1.8,1.8,0,0,0,.406.142,2.049,2.049,0,0,0,.458.051.813.813,0,0,0,.565-.166A.661.661,0,0,0,24.853,0V-.325a1,1,0,0,1-.353.289,1.064,1.064,0,0,1-.467.1,1.079,1.079,0,0,1-.908-.425A1.787,1.787,0,0,1,22.8-1.479Zm.709.062a1.268,1.268,0,0,0,.17.7.594.594,0,0,0,.536.261.729.729,0,0,0,.385-.1.7.7,0,0,0,.253-.274V-2.276a.761.761,0,0,0-.256-.271.7.7,0,0,0-.376-.1.576.576,0,0,0-.539.306,1.615,1.615,0,0,0-.173.8ZM28.219,0q-.038-.12-.063-.234a1.675,1.675,0,0,1-.034-.229,1.221,1.221,0,0,1-.384.374A.987.987,0,0,1,27.2.062a1.054,1.054,0,0,1-.76-.255.926.926,0,0,1-.265-.7.827.827,0,0,1,.363-.716,1.754,1.754,0,0,1,1.022-.256h.554v-.278a.518.518,0,0,0-.145-.39.58.58,0,0,0-.42-.141.6.6,0,0,0-.387.116.368.368,0,0,0-.144.3l-.686,0,0-.018a.785.785,0,0,1,.335-.665,1.421,1.421,0,0,1,.927-.29,1.356,1.356,0,0,1,.894.281.99.99,0,0,1,.34.809V-.729a2.6,2.6,0,0,0,.026.376A2,2,0,0,0,28.94,0Zm-.87-.51a.89.89,0,0,0,.482-.135.679.679,0,0,0,.286-.308v-.469h-.565a.714.714,0,0,0-.486.154.467.467,0,0,0-.176.362.369.369,0,0,0,.119.289A.493.493,0,0,0,27.349-.51Zm3.8-2.019-.3-.012a.638.638,0,0,0-.347.088.579.579,0,0,0-.215.249V0h-.712V-3.17h.65l.047.46a1.017,1.017,0,0,1,.309-.381.719.719,0,0,1,.435-.138.663.663,0,0,1,.12.01.877.877,0,0,1,.1.025Z" transform="translate(-5097.41 -14008.445)" fill="#0c1d30"/>
    <path id="Trazado_204452" data-name="Trazado 204452" d="M3.565-1.395l.006.018A1.315,1.315,0,0,1,3.152-.335a1.649,1.649,0,0,1-1.163.4,1.565,1.565,0,0,1-1.207-.5A1.822,1.822,0,0,1,.319-1.726v-.812A1.842,1.842,0,0,1,.776-3.822a1.532,1.532,0,0,1,1.192-.505,1.721,1.721,0,0,1,1.185.384,1.3,1.3,0,0,1,.42,1.052l-.006.018H2.88a.876.876,0,0,0-.231-.655.932.932,0,0,0-.68-.227.809.809,0,0,0-.687.344,1.426,1.426,0,0,0-.253.869v.817a1.419,1.419,0,0,0,.258.875.831.831,0,0,0,.7.344.9.9,0,0,0,.664-.229.9.9,0,0,0,.227-.659Zm.486-.22A1.721,1.721,0,0,1,4.44-2.776,1.326,1.326,0,0,1,5.5-3.229a1.336,1.336,0,0,1,1.071.453,1.721,1.721,0,0,1,.388,1.162v.062A1.719,1.719,0,0,1,6.573-.388a1.333,1.333,0,0,1-1.065.45A1.334,1.334,0,0,1,4.44-.39a1.72,1.72,0,0,1-.388-1.163Zm.712.062A1.406,1.406,0,0,0,4.945-.8a.617.617,0,0,0,.563.29A.618.618,0,0,0,6.066-.8a1.381,1.381,0,0,0,.186-.754v-.062a1.379,1.379,0,0,0-.186-.749A.622.622,0,0,0,5.5-2.657a.61.61,0,0,0-.555.294,1.4,1.4,0,0,0-.183.749ZM5.73-4.521h.806l.006.018-.8.762H5.171ZM7.45-1.541a2.09,2.09,0,0,1,.325-1.223,1.052,1.052,0,0,1,.914-.464,1,1,0,0,1,.461.1,1.044,1.044,0,0,1,.353.3V-4.57h.712V0H9.639L9.554-.4a1.057,1.057,0,0,1-.369.344,1.027,1.027,0,0,1-.5.119,1.079,1.079,0,0,1-.908-.425A1.787,1.787,0,0,1,7.45-1.479Zm.712.062a1.277,1.277,0,0,0,.168.7.59.59,0,0,0,.535.261.715.715,0,0,0,.382-.1A.736.736,0,0,0,9.5-.891V-2.273a.75.75,0,0,0-.258-.274.7.7,0,0,0-.375-.1.574.574,0,0,0-.536.306,1.615,1.615,0,0,0-.173.8ZM11.739,0h-.712V-3.17h.712Zm0-3.946h-.712V-4.57h.712Zm.686,2.405a2.09,2.09,0,0,1,.325-1.223,1.052,1.052,0,0,1,.914-.464,1,1,0,0,1,.5.122,1.055,1.055,0,0,1,.365.35l.07-.413h.592V0a1.2,1.2,0,0,1-.378.946,1.567,1.567,0,0,1-1.072.334,2.1,2.1,0,0,1-.5-.066,2.32,2.32,0,0,1-.485-.174L12.87.48a1.8,1.8,0,0,0,.406.142,2.049,2.049,0,0,0,.458.051A.813.813,0,0,0,14.3.508.661.661,0,0,0,14.479,0V-.325a1,1,0,0,1-.353.289,1.064,1.064,0,0,1-.467.1,1.079,1.079,0,0,1-.908-.425,1.787,1.787,0,0,1-.325-1.116Zm.709.062a1.268,1.268,0,0,0,.17.7.594.594,0,0,0,.536.261.729.729,0,0,0,.385-.1.7.7,0,0,0,.253-.274V-2.276a.761.761,0,0,0-.256-.271.7.7,0,0,0-.376-.1.576.576,0,0,0-.539.306,1.615,1.615,0,0,0-.173.8ZM15.8-1.614a1.721,1.721,0,0,1,.388-1.162,1.326,1.326,0,0,1,1.062-.453,1.336,1.336,0,0,1,1.071.453,1.721,1.721,0,0,1,.388,1.162v.062a1.719,1.719,0,0,1-.388,1.165,1.333,1.333,0,0,1-1.065.45A1.334,1.334,0,0,1,16.191-.39,1.72,1.72,0,0,1,15.8-1.553Zm.712.062A1.406,1.406,0,0,0,16.7-.8a.617.617,0,0,0,.563.29A.618.618,0,0,0,17.817-.8,1.381,1.381,0,0,0,18-1.553v-.062a1.379,1.379,0,0,0-.186-.749.622.622,0,0,0-.564-.294.61.61,0,0,0-.555.294,1.4,1.4,0,0,0-.183.749Z" transform="translate(-5039.772 -14008.445)" fill="#0c1d30"/>
    <path id="Trazado_204453" data-name="Trazado 204453" d="M2.83-1.919H1.16V-.568H3.129V0H.448V-4.266h2.66v.571H1.16v1.2H2.83ZM4.342-3.17l.041.457a1.134,1.134,0,0,1,.391-.379,1.044,1.044,0,0,1,.532-.136.99.99,0,0,1,.772.3,1.384,1.384,0,0,1,.277.952V0H5.643V-1.966A.766.766,0,0,0,5.5-2.49a.562.562,0,0,0-.434-.155.85.85,0,0,0-.4.086A.693.693,0,0,0,4.4-2.32V0H3.691V-3.17ZM8.44.062A1.38,1.38,0,0,1,7.355-.376a1.64,1.64,0,0,1-.391-1.135v-.117a1.7,1.7,0,0,1,.391-1.15,1.264,1.264,0,0,1,1.009-.45,1.186,1.186,0,0,1,.967.394,1.593,1.593,0,0,1,.328,1.053V-1.4H7.7l-.006.015A1.039,1.039,0,0,0,7.9-.75a.7.7,0,0,0,.583.243,1.6,1.6,0,0,0,.5-.07,1.434,1.434,0,0,0,.394-.2l.231.466a1.509,1.509,0,0,1-.48.267A2.014,2.014,0,0,1,8.44.062ZM8.364-2.657a.55.55,0,0,0-.445.2,1,1,0,0,0-.208.523l.006.015H8.956v-.056a.8.8,0,0,0-.142-.494A.526.526,0,0,0,8.364-2.657Z" transform="translate(-5006.367 -14008.445)" fill="#0c1d30"/>
    <path id="Trazado_204454" data-name="Trazado 204454" d="M2.88-1.819H1.16V0H.448V-4.266h2.73v.571H1.16v1.3H2.88ZM4.98.062A1.38,1.38,0,0,1,3.9-.376,1.64,1.64,0,0,1,3.5-1.512v-.117A1.7,1.7,0,0,1,3.9-2.779,1.264,1.264,0,0,1,4.9-3.229a1.186,1.186,0,0,1,.967.394A1.593,1.593,0,0,1,6.2-1.781V-1.4H4.239l-.006.015a1.039,1.039,0,0,0,.205.633.7.7,0,0,0,.583.243,1.6,1.6,0,0,0,.5-.07,1.434,1.434,0,0,0,.394-.2l.231.466a1.509,1.509,0,0,1-.48.267A2.014,2.014,0,0,1,4.98.062ZM4.9-2.657a.55.55,0,0,0-.445.2,1,1,0,0,0-.208.523l.006.015H5.5v-.056a.8.8,0,0,0-.142-.494A.526.526,0,0,0,4.9-2.657ZM9.56-1.479A1.792,1.792,0,0,1,9.236-.362a1.082,1.082,0,0,1-.913.423A1.044,1.044,0,0,1,7.8-.062a1.017,1.017,0,0,1-.366-.357L7.354,0H6.776V-4.57h.712V-2.81A1.022,1.022,0,0,1,7.84-3.12a1.007,1.007,0,0,1,.478-.108,1.055,1.055,0,0,1,.918.463A2.1,2.1,0,0,1,9.56-1.541Zm-.712-.062a1.637,1.637,0,0,0-.17-.8.573.573,0,0,0-.539-.3.705.705,0,0,0-.4.105.737.737,0,0,0-.253.293v1.33a.7.7,0,0,0,.252.294.731.731,0,0,0,.4.1.59.59,0,0,0,.536-.259,1.284,1.284,0,0,0,.167-.7Z" transform="translate(-4985.327 -14008.445)" fill="#0c1d30"/>
    <path id="Trazado_204455" data-name="Trazado 204455" d="M2.607-.984h.018L3.858-4.266h.908V0H4.055V-3.064l-.018,0L2.862,0H2.373l-1.2-3.126L1.16-3.12V0H.448V-4.266h.935ZM7.5,0Q7.465-.12,7.44-.234a1.675,1.675,0,0,1-.034-.229,1.221,1.221,0,0,1-.384.374.987.987,0,0,1-.536.151,1.054,1.054,0,0,1-.76-.255.926.926,0,0,1-.265-.7.827.827,0,0,1,.363-.716,1.754,1.754,0,0,1,1.022-.256H7.4v-.278a.518.518,0,0,0-.145-.39.58.58,0,0,0-.42-.141.6.6,0,0,0-.387.116.368.368,0,0,0-.144.3l-.686,0,0-.018a.785.785,0,0,1,.335-.665,1.421,1.421,0,0,1,.927-.29,1.356,1.356,0,0,1,.894.281.99.99,0,0,1,.34.809V-.729a2.6,2.6,0,0,0,.026.376A2,2,0,0,0,8.224,0Zm-.87-.51a.89.89,0,0,0,.482-.135A.679.679,0,0,0,7.4-.952v-.469H6.835a.714.714,0,0,0-.486.154.467.467,0,0,0-.176.362.369.369,0,0,0,.119.289A.493.493,0,0,0,6.633-.51Zm3.8-2.019-.3-.012a.638.638,0,0,0-.347.088.579.579,0,0,0-.215.249V0H8.856V-3.17h.65l.047.46a1.017,1.017,0,0,1,.309-.381.719.719,0,0,1,.435-.138.663.663,0,0,1,.12.01.877.877,0,0,1,.1.025Z" transform="translate(-4963.788 -14008.445)" fill="#0c1d30"/>
    <path id="Trazado_204456" data-name="Trazado 204456" d="M2.669-1H1.157L.829,0H.094L1.582-4.266h.677L3.729,0H2.994ZM1.354-1.591H2.476L1.928-3.272H1.91Zm5.613.111A1.792,1.792,0,0,1,6.643-.362,1.082,1.082,0,0,1,5.73.062a1.044,1.044,0,0,1-.519-.123,1.017,1.017,0,0,1-.366-.357L4.761,0H4.184V-4.57H4.9V-2.81a1.022,1.022,0,0,1,.352-.311,1.007,1.007,0,0,1,.478-.108,1.055,1.055,0,0,1,.918.463,2.1,2.1,0,0,1,.324,1.225Zm-.712-.062a1.637,1.637,0,0,0-.17-.8.573.573,0,0,0-.539-.3.705.705,0,0,0-.4.105.737.737,0,0,0-.253.293v1.33a.7.7,0,0,0,.252.294.731.731,0,0,0,.4.1.59.59,0,0,0,.536-.259,1.284,1.284,0,0,0,.167-.7Zm2.906-.987-.3-.012a.638.638,0,0,0-.347.088.579.579,0,0,0-.215.249V0H7.582V-3.17h.65l.047.46a1.017,1.017,0,0,1,.309-.381.719.719,0,0,1,.435-.138.663.663,0,0,1,.12.01.877.877,0,0,1,.1.025Z" transform="translate(-4941.166 -14008.445)" fill="#0c1d30"/>
    <path id="Trazado_204457" data-name="Trazado 204457" d="M2.607-.984h.018L3.858-4.266h.908V0H4.055V-3.064l-.018,0L2.862,0H2.373l-1.2-3.126L1.16-3.12V0H.448V-4.266h.935ZM7.5,0Q7.465-.12,7.44-.234a1.675,1.675,0,0,1-.034-.229,1.221,1.221,0,0,1-.384.374.987.987,0,0,1-.536.151,1.054,1.054,0,0,1-.76-.255.926.926,0,0,1-.265-.7.827.827,0,0,1,.363-.716,1.754,1.754,0,0,1,1.022-.256H7.4v-.278a.518.518,0,0,0-.145-.39.58.58,0,0,0-.42-.141.6.6,0,0,0-.387.116.368.368,0,0,0-.144.3l-.686,0,0-.018a.785.785,0,0,1,.335-.665,1.421,1.421,0,0,1,.927-.29,1.356,1.356,0,0,1,.894.281.99.99,0,0,1,.34.809V-.729a2.6,2.6,0,0,0,.026.376A2,2,0,0,0,8.224,0Zm-.87-.51a.89.89,0,0,0,.482-.135A.679.679,0,0,0,7.4-.952v-.469H6.835a.714.714,0,0,0-.486.154.467.467,0,0,0-.176.362.369.369,0,0,0,.119.289A.493.493,0,0,0,6.633-.51Zm3.231-.762.07.316h.018l.694-2.215h.779L10.113.48a1.628,1.628,0,0,1-.354.565.863.863,0,0,1-.647.234,1.106,1.106,0,0,1-.189-.018q-.1-.018-.195-.041L8.807.671,8.915.68q.07.006.105.006A.391.391,0,0,0,9.33.554a1.12,1.12,0,0,0,.189-.3l.117-.287L8.484-3.17h.776Z" transform="translate(-4920.343 -14008.445)" fill="#0c1d30"/>
    <path id="Trazado_204458" data-name="Trazado 204458" d="M2.159-4.266h.709V-1.28A1.3,1.3,0,0,1,2.495-.3a1.33,1.33,0,0,1-.968.363,1.466,1.466,0,0,1-1-.322A1.143,1.143,0,0,1,.173-1.2l.006-.018H.867a.732.732,0,0,0,.174.538.655.655,0,0,0,.485.174.568.568,0,0,0,.456-.211.846.846,0,0,0,.177-.562Zm3.5,3.8a1.063,1.063,0,0,1-.376.393,1.015,1.015,0,0,1-.532.138.993.993,0,0,1-.8-.335,1.577,1.577,0,0,1-.287-1.042V-3.17H4.38v1.86a1.059,1.059,0,0,0,.132.623.489.489,0,0,0,.41.168.916.916,0,0,0,.432-.092.67.67,0,0,0,.274-.268V-3.17H6.34V0H5.728Zm2.065-2.7.041.457a1.134,1.134,0,0,1,.391-.379,1.044,1.044,0,0,1,.532-.136.99.99,0,0,1,.772.3,1.384,1.384,0,0,1,.277.952V0H9.029V-1.966a.766.766,0,0,0-.144-.524.562.562,0,0,0-.434-.155.85.85,0,0,0-.4.086.693.693,0,0,0-.267.239V0H7.078V-3.17Z" transform="translate(-4897.553 -14008.445)" fill="#0c1d30"/>
    <path id="Trazado_204459" data-name="Trazado 204459" d="M2.159-4.266h.709V-1.28A1.3,1.3,0,0,1,2.495-.3a1.33,1.33,0,0,1-.968.363,1.466,1.466,0,0,1-1-.322A1.143,1.143,0,0,1,.173-1.2l.006-.018H.867a.732.732,0,0,0,.174.538.655.655,0,0,0,.485.174.568.568,0,0,0,.456-.211.846.846,0,0,0,.177-.562Zm3.5,3.8a1.063,1.063,0,0,1-.376.393,1.015,1.015,0,0,1-.532.138.993.993,0,0,1-.8-.335,1.577,1.577,0,0,1-.287-1.042V-3.17H4.38v1.86a1.059,1.059,0,0,0,.132.623.489.489,0,0,0,.41.168.916.916,0,0,0,.432-.092.67.67,0,0,0,.274-.268V-3.17H6.34V0H5.728ZM7.843,0H7.131V-4.57h.712Z" transform="translate(-4874.537 -14008.445)" fill="#0c1d30"/>
    <path id="Trazado_204460" data-name="Trazado 204460" d="M2.669-1H1.157L.829,0H.094L1.582-4.266h.677L3.729,0H2.994ZM1.354-1.591H2.476L1.928-3.272H1.91Zm2.719.05A2.09,2.09,0,0,1,4.4-2.764a1.052,1.052,0,0,1,.914-.464,1,1,0,0,1,.5.122,1.055,1.055,0,0,1,.365.35l.07-.413h.592V0A1.2,1.2,0,0,1,6.46.946a1.567,1.567,0,0,1-1.072.334,2.1,2.1,0,0,1-.5-.066A2.32,2.32,0,0,1,4.4,1.04L4.518.48a1.8,1.8,0,0,0,.406.142,2.049,2.049,0,0,0,.458.051A.813.813,0,0,0,5.947.508.661.661,0,0,0,6.126,0V-.325a1,1,0,0,1-.353.289,1.064,1.064,0,0,1-.467.1A1.079,1.079,0,0,1,4.4-.363a1.787,1.787,0,0,1-.325-1.116Zm.709.062a1.268,1.268,0,0,0,.17.7.594.594,0,0,0,.536.261.729.729,0,0,0,.385-.1.7.7,0,0,0,.253-.274V-2.276a.761.761,0,0,0-.256-.271.7.7,0,0,0-.376-.1.576.576,0,0,0-.539.306,1.615,1.615,0,0,0-.173.8ZM7.45-1.614a1.721,1.721,0,0,1,.388-1.162A1.326,1.326,0,0,1,8.9-3.229a1.336,1.336,0,0,1,1.071.453,1.721,1.721,0,0,1,.388,1.162v.062A1.719,1.719,0,0,1,9.971-.388a1.333,1.333,0,0,1-1.065.45A1.334,1.334,0,0,1,7.838-.39,1.72,1.72,0,0,1,7.45-1.553Zm.712.062A1.406,1.406,0,0,0,8.344-.8a.617.617,0,0,0,.563.29A.618.618,0,0,0,9.464-.8a1.381,1.381,0,0,0,.186-.754v-.062a1.379,1.379,0,0,0-.186-.749A.622.622,0,0,0,8.9-2.657a.61.61,0,0,0-.555.294,1.4,1.4,0,0,0-.183.749Z" transform="translate(-4854.109 -14008.445)" fill="#0c1d30"/>
    <path id="Trazado_204461" data-name="Trazado 204461" d="M2.7-1.1a.56.56,0,0,0-.189-.437,1.74,1.74,0,0,0-.669-.3,2.855,2.855,0,0,1-1.062-.5A1,1,0,0,1,.4-3.144a1.049,1.049,0,0,1,.41-.85,1.617,1.617,0,0,1,1.055-.334,1.6,1.6,0,0,1,1.106.371,1.136,1.136,0,0,1,.4.916l-.006.018H2.681a.681.681,0,0,0-.224-.536.864.864,0,0,0-.6-.2.819.819,0,0,0-.555.17.556.556,0,0,0-.195.439.487.487,0,0,0,.214.406,2.324,2.324,0,0,0,.709.3,2.479,2.479,0,0,1,1.022.511,1.075,1.075,0,0,1,.352.828,1.01,1.01,0,0,1-.416.847A1.758,1.758,0,0,1,1.9.062,1.9,1.9,0,0,1,.765-.284,1.1,1.1,0,0,1,.3-1.26L.3-1.277H.987A.672.672,0,0,0,1.252-.7,1.061,1.061,0,0,0,1.9-.5a.951.951,0,0,0,.587-.16A.515.515,0,0,0,2.7-1.1ZM5.408.062A1.38,1.38,0,0,1,4.323-.376a1.64,1.64,0,0,1-.391-1.135v-.117a1.7,1.7,0,0,1,.391-1.15,1.264,1.264,0,0,1,1.009-.45,1.186,1.186,0,0,1,.967.394,1.593,1.593,0,0,1,.328,1.053V-1.4H4.667l-.006.015a1.039,1.039,0,0,0,.205.633.7.7,0,0,0,.583.243,1.6,1.6,0,0,0,.5-.07,1.434,1.434,0,0,0,.394-.2l.231.466a1.509,1.509,0,0,1-.48.267A2.014,2.014,0,0,1,5.408.062ZM5.332-2.657a.55.55,0,0,0-.445.2,1,1,0,0,0-.208.523l.006.015H5.924v-.056a.8.8,0,0,0-.142-.494A.526.526,0,0,0,5.332-2.657ZM9.981-1.479A1.787,1.787,0,0,1,9.656-.363a1.076,1.076,0,0,1-.905.425,1.121,1.121,0,0,1-.478-.1.983.983,0,0,1-.357-.284V1.219H7.2V-3.17h.6l.07.4a1.057,1.057,0,0,1,.368-.34,1.029,1.029,0,0,1,.5-.117,1.053,1.053,0,0,1,.913.464,2.083,2.083,0,0,1,.327,1.223Zm-.709-.062a1.544,1.544,0,0,0-.183-.8.6.6,0,0,0-.546-.309.71.71,0,0,0-.378.1.7.7,0,0,0-.249.265V-.853A.662.662,0,0,0,8.165-.6a.759.759,0,0,0,.384.089.611.611,0,0,0,.543-.268,1.242,1.242,0,0,0,.18-.7Z" transform="translate(-4831.803 -14008.445)" fill="#0c1d30"/>
    <path id="Trazado_204462" data-name="Trazado 204462" d="M3.8-1.749a1.8,1.8,0,0,1-.491,1.3A1.684,1.684,0,0,1,2.033.062,1.627,1.627,0,0,1,.788-.453a1.824,1.824,0,0,1-.48-1.3v-.768A1.829,1.829,0,0,1,.787-3.812a1.623,1.623,0,0,1,1.247-.516,1.683,1.683,0,0,1,1.274.516A1.8,1.8,0,0,1,3.8-2.517Zm-.712-.773A1.327,1.327,0,0,0,2.8-3.4a.948.948,0,0,0-.771-.343.9.9,0,0,0-.743.343,1.369,1.369,0,0,0-.271.876v.773a1.38,1.38,0,0,0,.272.883.9.9,0,0,0,.741.344.947.947,0,0,0,.772-.343,1.345,1.345,0,0,0,.283-.885ZM5.774-.507a.592.592,0,0,0,.412-.152.5.5,0,0,0,.168-.387H7L7-1.028a.956.956,0,0,1-.353.768,1.28,1.28,0,0,1-.877.322A1.292,1.292,0,0,1,4.717-.391a1.738,1.738,0,0,1-.372-1.141v-.1a1.739,1.739,0,0,1,.372-1.14,1.286,1.286,0,0,1,1.055-.454,1.243,1.243,0,0,1,.9.333A1.085,1.085,0,0,1,7-2.051L7-2.033H6.354a.643.643,0,0,0-.161-.442.537.537,0,0,0-.422-.182.581.581,0,0,0-.548.294,1.457,1.457,0,0,0-.167.728v.1A1.47,1.47,0,0,0,5.222-.8.584.584,0,0,0,5.774-.507ZM8.514-3.94v.771h.568v.527H8.514V-.891a.382.382,0,0,0,.085.28.308.308,0,0,0,.226.083.629.629,0,0,0,.114-.01.694.694,0,0,0,.105-.028l.076.521A.818.818,0,0,1,8.9.034a1.185,1.185,0,0,1-.259.028.821.821,0,0,1-.617-.23A1,1,0,0,1,7.8-.891V-2.643H7.321V-3.17H7.8V-3.94Z" transform="translate(-4809.294 -14008.445)" fill="#0c1d30"/>
    <path id="Trazado_204463" data-name="Trazado 204463" d="M3.779,0H3.067L1.178-3.073l-.018.006V0H.448V-4.266H1.16L3.05-1.192,3.067-1.2V-4.266h.712Zm.691-1.614a1.721,1.721,0,0,1,.388-1.162,1.326,1.326,0,0,1,1.062-.453,1.336,1.336,0,0,1,1.071.453A1.721,1.721,0,0,1,7.38-1.614v.062A1.719,1.719,0,0,1,6.992-.388a1.333,1.333,0,0,1-1.065.45A1.334,1.334,0,0,1,4.859-.39a1.72,1.72,0,0,1-.388-1.163Zm.712.062A1.406,1.406,0,0,0,5.364-.8a.617.617,0,0,0,.563.29A.618.618,0,0,0,6.485-.8a1.381,1.381,0,0,0,.186-.754v-.062a1.379,1.379,0,0,0-.186-.749.622.622,0,0,0-.564-.294.61.61,0,0,0-.555.294,1.4,1.4,0,0,0-.183.749Zm3.834.48.053.258h.018l.056-.258.63-2.1h.735L9.383,0H8.765L7.634-3.17h.735Z" transform="translate(-4788.106 -14008.445)" fill="#0c1d30"/>
    <path id="Trazado_204464" data-name="Trazado 204464" d="M.374,0V-3.555H1.548a1.49,1.49,0,0,1,1.1.422,1.468,1.468,0,0,1,.424,1.086v.54A1.463,1.463,0,0,1,2.648-.42a1.5,1.5,0,0,1-1.1.42ZM.967-3.079v2.6h.581a.853.853,0,0,0,.679-.289,1.092,1.092,0,0,0,.251-.743v-.544a1.085,1.085,0,0,0-.251-.739.853.853,0,0,0-.679-.289ZM4.294,0H3.7V-2.642h.593Zm0-3.289H3.7v-.52h.593ZM6.035-.422a.493.493,0,0,0,.343-.127.415.415,0,0,0,.14-.322h.537l0,.015a.8.8,0,0,1-.294.64,1.066,1.066,0,0,1-.731.269,1.076,1.076,0,0,1-.881-.377,1.448,1.448,0,0,1-.31-.951v-.085a1.449,1.449,0,0,1,.31-.95,1.072,1.072,0,0,1,.879-.378,1.036,1.036,0,0,1,.75.277.9.9,0,0,1,.278.7l0,.015H6.519a.536.536,0,0,0-.134-.369.448.448,0,0,0-.352-.151.484.484,0,0,0-.457.245,1.214,1.214,0,0,0-.139.607v.085a1.225,1.225,0,0,0,.138.612A.487.487,0,0,0,6.035-.422Z" transform="translate(-4765.94 -14009.445)" fill="#0c1d30"/>
    <path id="Trazado_204465" data-name="Trazado 204465" d="M1.248-1.547V0H.393V-4.266H2.024a1.68,1.68,0,0,1,1.157.375A1.257,1.257,0,0,1,3.6-2.9a1.248,1.248,0,0,1-.422.984,1.689,1.689,0,0,1-1.157.372Zm0-.659h.776A.712.712,0,0,0,2.566-2.4a.693.693,0,0,0,.185-.5.725.725,0,0,0-.183-.508.7.7,0,0,0-.543-.2H1.248Zm4.57-.229L5.5-2.443a.57.57,0,0,0-.313.079A.5.5,0,0,0,5-2.142V0H4.151V-3.17h.794l.038.469a1,1,0,0,1,.289-.388.643.643,0,0,1,.409-.139.639.639,0,0,1,.119.01q.054.01.11.025Zm.153.82a1.7,1.7,0,0,1,.4-1.162,1.379,1.379,0,0,1,1.1-.453,1.393,1.393,0,0,1,1.1.451,1.692,1.692,0,0,1,.4,1.163v.062a1.7,1.7,0,0,1-.4,1.165,1.387,1.387,0,0,1-1.1.45,1.391,1.391,0,0,1-1.1-.45,1.7,1.7,0,0,1-.4-1.165Zm.853.062a1.379,1.379,0,0,0,.152.7.526.526,0,0,0,.492.262.521.521,0,0,0,.485-.264,1.37,1.37,0,0,0,.154-.694v-.062A1.356,1.356,0,0,0,7.952-2.3a.525.525,0,0,0-.489-.267.519.519,0,0,0-.485.268,1.368,1.368,0,0,0-.154.687Zm2.54-.006a2.053,2.053,0,0,1,.325-1.21,1.055,1.055,0,0,1,.914-.46.9.9,0,0,1,.469.12,1.052,1.052,0,0,1,.346.343l.067-.4h.735V-.015a1.178,1.178,0,0,1-.4.957,1.707,1.707,0,0,1-1.128.338,2.149,2.149,0,0,1-.51-.066,2.367,2.367,0,0,1-.5-.18L9.824.4a1.963,1.963,0,0,0,.406.142,2.011,2.011,0,0,0,.453.048A.766.766,0,0,0,11.2.439a.58.58,0,0,0,.166-.457V-.3a.957.957,0,0,1-.331.272A.976.976,0,0,1,10.6.062a1.076,1.076,0,0,1-.908-.428A1.821,1.821,0,0,1,9.364-1.5Zm.855.062a1.3,1.3,0,0,0,.139.655.486.486,0,0,0,.456.239.706.706,0,0,0,.333-.072.548.548,0,0,0,.218-.209V-2.259a.585.585,0,0,0-.218-.226.64.64,0,0,0-.327-.079.48.48,0,0,0-.457.278,1.586,1.586,0,0,0-.144.727Zm4.324-.937-.313-.009a.57.57,0,0,0-.313.079.5.5,0,0,0-.187.223V0h-.853V-3.17h.794l.038.469A1,1,0,0,1,14-3.089a.643.643,0,0,1,.409-.139.639.639,0,0,1,.119.01q.054.01.11.025ZM16.774,0a1.8,1.8,0,0,1-.081-.229,1.59,1.59,0,0,1-.048-.246,1.173,1.173,0,0,1-.349.384.874.874,0,0,1-.516.152,1.07,1.07,0,0,1-.768-.256.918.918,0,0,1-.27-.7.836.836,0,0,1,.359-.722,1.792,1.792,0,0,1,1.047-.256h.48v-.252a.493.493,0,0,0-.12-.354.471.471,0,0,0-.357-.126.465.465,0,0,0-.321.1.353.353,0,0,0-.113.277H14.9l-.006-.018a.8.8,0,0,1,.35-.693,1.521,1.521,0,0,1,.968-.292,1.419,1.419,0,0,1,.924.287,1,1,0,0,1,.353.823v1.31a2.477,2.477,0,0,0,.034.419,2.1,2.1,0,0,0,.107.39Zm-.782-.571a.729.729,0,0,0,.4-.111.6.6,0,0,0,.24-.258v-.448h-.48a.569.569,0,0,0-.412.135.443.443,0,0,0-.139.331.331.331,0,0,0,.1.256A.411.411,0,0,0,15.992-.571Zm2.93-2.6.035.419a1.065,1.065,0,0,1,.382-.353,1.1,1.1,0,0,1,.532-.125.968.968,0,0,1,.521.135.831.831,0,0,1,.328.407,1.1,1.1,0,0,1,.381-.4,1.033,1.033,0,0,1,.551-.144.9.9,0,0,1,.74.333,1.587,1.587,0,0,1,.271,1.015V0h-.855V-1.884a.888.888,0,0,0-.117-.53.416.416,0,0,0-.349-.149.6.6,0,0,0-.315.081.587.587,0,0,0-.212.224q0,.056,0,.1t0,.081V0h-.853V-1.884a.891.891,0,0,0-.117-.526.414.414,0,0,0-.352-.154.664.664,0,0,0-.3.066.582.582,0,0,0-.215.186V0h-.853V-3.17ZM25.188,0a1.8,1.8,0,0,1-.081-.229,1.59,1.59,0,0,1-.048-.246,1.173,1.173,0,0,1-.349.384.874.874,0,0,1-.516.152,1.07,1.07,0,0,1-.768-.256.918.918,0,0,1-.27-.7.836.836,0,0,1,.359-.722,1.792,1.792,0,0,1,1.047-.256h.48v-.252a.493.493,0,0,0-.12-.354.471.471,0,0,0-.357-.126.465.465,0,0,0-.321.1.353.353,0,0,0-.113.277H23.31L23.3-2.244a.8.8,0,0,1,.35-.693,1.521,1.521,0,0,1,.968-.292,1.419,1.419,0,0,1,.924.287,1,1,0,0,1,.353.823v1.31a2.477,2.477,0,0,0,.034.419,2.1,2.1,0,0,0,.107.39Zm-.782-.571a.729.729,0,0,0,.4-.111.6.6,0,0,0,.24-.258v-.448h-.48a.569.569,0,0,0-.412.135.443.443,0,0,0-.139.331.331.331,0,0,0,.1.256A.411.411,0,0,0,24.406-.571Zm3.5-.987a2.06,2.06,0,0,1,.324-1.21,1.051,1.051,0,0,1,.913-.46.888.888,0,0,1,.428.1,1.029,1.029,0,0,1,.334.293V-4.57h.858V0h-.729l-.073-.39a1.06,1.06,0,0,1-.354.335.937.937,0,0,1-.469.116,1.072,1.072,0,0,1-.907-.428A1.826,1.826,0,0,1,27.9-1.5Zm.853.062a1.291,1.291,0,0,0,.141.655.49.49,0,0,0,.457.239.666.666,0,0,0,.322-.075A.6.6,0,0,0,29.9-.9V-2.247a.658.658,0,0,0-.224-.233.6.6,0,0,0-.318-.083.483.483,0,0,0-.458.278,1.573,1.573,0,0,0-.145.727ZM32.8.062a1.426,1.426,0,0,1-1.107-.435,1.6,1.6,0,0,1-.4-1.121v-.117a1.736,1.736,0,0,1,.387-1.166,1.315,1.315,0,0,1,1.063-.451,1.231,1.231,0,0,1,.98.391,1.546,1.546,0,0,1,.341,1.053v.442h-1.89l-.009.018a.856.856,0,0,0,.2.527.662.662,0,0,0,.526.2,1.76,1.76,0,0,0,.488-.059,1.99,1.99,0,0,0,.415-.179l.231.527a1.588,1.588,0,0,1-.516.261A2.287,2.287,0,0,1,32.8.062Zm-.056-2.631a.475.475,0,0,0-.4.177.889.889,0,0,0-.168.47l.006.015h1.043v-.064a.74.74,0,0,0-.114-.438A.423.423,0,0,0,32.741-2.569Zm3.182,1.011a2.06,2.06,0,0,1,.324-1.21,1.051,1.051,0,0,1,.913-.46.888.888,0,0,1,.428.1,1.029,1.029,0,0,1,.334.293V-4.57h.858V0h-.729l-.073-.39a1.06,1.06,0,0,1-.354.335.937.937,0,0,1-.469.116,1.072,1.072,0,0,1-.907-.428A1.826,1.826,0,0,1,35.922-1.5Zm.853.062a1.291,1.291,0,0,0,.141.655.49.49,0,0,0,.457.239.666.666,0,0,0,.322-.075A.6.6,0,0,0,37.92-.9V-2.247A.658.658,0,0,0,37.7-2.48a.6.6,0,0,0-.318-.083.483.483,0,0,0-.458.278,1.573,1.573,0,0,0-.145.727ZM40.815.062a1.426,1.426,0,0,1-1.107-.435,1.6,1.6,0,0,1-.4-1.121v-.117A1.736,1.736,0,0,1,39.7-2.777a1.315,1.315,0,0,1,1.063-.451,1.231,1.231,0,0,1,.98.391,1.546,1.546,0,0,1,.341,1.053v.442h-1.89l-.009.018a.856.856,0,0,0,.2.527.662.662,0,0,0,.526.2,1.76,1.76,0,0,0,.488-.059,1.99,1.99,0,0,0,.415-.179L42.04-.3a1.588,1.588,0,0,1-.516.261A2.287,2.287,0,0,1,40.815.062Zm-.056-2.631a.475.475,0,0,0-.4.177.889.889,0,0,0-.168.47l.006.015h1.043v-.064a.74.74,0,0,0-.114-.438A.423.423,0,0,0,40.759-2.569Zm3.533,1.69a.3.3,0,0,0-.136-.242,1.384,1.384,0,0,0-.505-.177,2.016,2.016,0,0,1-.845-.337.736.736,0,0,1-.289-.612.873.873,0,0,1,.346-.694,1.394,1.394,0,0,1,.92-.287,1.5,1.5,0,0,1,.962.287.839.839,0,0,1,.347.715l-.006.018H44.26a.415.415,0,0,0-.123-.311.487.487,0,0,0-.354-.12.484.484,0,0,0-.325.1.319.319,0,0,0-.12.252.285.285,0,0,0,.125.239,1.386,1.386,0,0,0,.505.166,2.057,2.057,0,0,1,.869.344.755.755,0,0,1,.286.625.837.837,0,0,1-.366.7,1.581,1.581,0,0,1-.967.272,1.469,1.469,0,0,1-1-.321.9.9,0,0,1-.35-.731l.006-.018h.782a.445.445,0,0,0,.167.369.689.689,0,0,0,.413.114.587.587,0,0,0,.362-.1A.309.309,0,0,0,44.293-.879ZM46.572,0h-.855V-3.17h.855Zm0-3.929h-.855V-4.57h.855Zm1.485.759.038.454a1.159,1.159,0,0,1,.39-.378A1.011,1.011,0,0,1,49-3.229a.943.943,0,0,1,.75.309,1.465,1.465,0,0,1,.27.977V0h-.858V-1.939a.759.759,0,0,0-.119-.482.437.437,0,0,0-.356-.142.747.747,0,0,0-.335.072.655.655,0,0,0-.239.2V0H47.26V-3.17ZM50.884,0V-2.569h-.472v-.6h.472v-.352a1.072,1.072,0,0,1,.308-.822,1.215,1.215,0,0,1,.864-.289,1.563,1.563,0,0,1,.221.016q.113.016.248.045l-.073.636-.136-.021a1.179,1.179,0,0,0-.154-.009.411.411,0,0,0-.315.114.463.463,0,0,0-.107.328v.352h.609v.6H51.74V0Zm3.173.062A1.426,1.426,0,0,1,52.95-.374a1.6,1.6,0,0,1-.4-1.121v-.117a1.736,1.736,0,0,1,.387-1.166A1.315,1.315,0,0,1,54-3.229a1.231,1.231,0,0,1,.98.391,1.546,1.546,0,0,1,.341,1.053v.442h-1.89l-.009.018a.856.856,0,0,0,.2.527.662.662,0,0,0,.526.2,1.76,1.76,0,0,0,.488-.059,1.99,1.99,0,0,0,.415-.179l.231.527a1.588,1.588,0,0,1-.516.261A2.287,2.287,0,0,1,54.057.062ZM54-2.569a.475.475,0,0,0-.4.177.889.889,0,0,0-.168.47l.006.015h1.043v-.064a.74.74,0,0,0-.114-.438A.423.423,0,0,0,54-2.569ZM57.145-.595A.476.476,0,0,0,57.5-.728a.484.484,0,0,0,.132-.356h.779l.006.018a.992.992,0,0,1-.357.8,1.337,1.337,0,0,1-.914.324,1.351,1.351,0,0,1-1.087-.45,1.709,1.709,0,0,1-.384-1.15v-.088a1.72,1.72,0,0,1,.382-1.15,1.339,1.339,0,0,1,1.083-.453,1.307,1.307,0,0,1,.935.334,1.116,1.116,0,0,1,.343.879L58.411-2h-.779a.633.633,0,0,0-.13-.409.438.438,0,0,0-.362-.163.488.488,0,0,0-.47.265,1.454,1.454,0,0,0-.139.678v.088a1.449,1.449,0,0,0,.139.683A.5.5,0,0,0,57.145-.595ZM59.94-3.946v.776h.536v.6H59.94V-.955a.368.368,0,0,0,.078.264.273.273,0,0,0,.2.079.817.817,0,0,0,.117-.007.987.987,0,0,0,.114-.025l.07.618a1.732,1.732,0,0,1-.25.066,1.493,1.493,0,0,1-.265.022.912.912,0,0,1-.681-.243,1.066,1.066,0,0,1-.239-.771V-2.569h-.463v-.6h.463v-.776ZM62.873,0a1.8,1.8,0,0,1-.081-.229,1.59,1.59,0,0,1-.048-.246,1.173,1.173,0,0,1-.349.384.874.874,0,0,1-.516.152,1.07,1.07,0,0,1-.768-.256.918.918,0,0,1-.27-.7.836.836,0,0,1,.359-.722,1.792,1.792,0,0,1,1.047-.256h.48v-.252a.493.493,0,0,0-.12-.354.471.471,0,0,0-.357-.126.465.465,0,0,0-.321.1.353.353,0,0,0-.113.277h-.823l-.006-.018a.8.8,0,0,1,.35-.693,1.521,1.521,0,0,1,.968-.292,1.419,1.419,0,0,1,.924.287,1,1,0,0,1,.353.823v1.31a2.477,2.477,0,0,0,.034.419,2.1,2.1,0,0,0,.107.39ZM62.09-.571a.729.729,0,0,0,.4-.111.6.6,0,0,0,.24-.258v-.448h-.48a.569.569,0,0,0-.412.135.443.443,0,0,0-.139.331.331.331,0,0,0,.1.256A.411.411,0,0,0,62.09-.571Zm2.918-2.6.038.454a1.159,1.159,0,0,1,.39-.378,1.011,1.011,0,0,1,.519-.135.943.943,0,0,1,.75.309,1.465,1.465,0,0,1,.27.977V0h-.858V-1.939A.759.759,0,0,0,66-2.421a.437.437,0,0,0-.356-.142.747.747,0,0,0-.335.072.655.655,0,0,0-.239.2V0h-.855V-3.17Zm3.63-.776v.776h.536v.6h-.536V-.955a.368.368,0,0,0,.078.264.273.273,0,0,0,.2.079.817.817,0,0,0,.117-.007.987.987,0,0,0,.114-.025l.07.618a1.732,1.732,0,0,1-.25.066,1.493,1.493,0,0,1-.265.022.912.912,0,0,1-.681-.243,1.066,1.066,0,0,1-.239-.771V-2.569h-.463v-.6h.463v-.776ZM71.076.062a1.426,1.426,0,0,1-1.107-.435,1.6,1.6,0,0,1-.4-1.121v-.117a1.736,1.736,0,0,1,.387-1.166,1.315,1.315,0,0,1,1.063-.451,1.231,1.231,0,0,1,.98.391,1.546,1.546,0,0,1,.341,1.053v.442h-1.89l-.009.018a.856.856,0,0,0,.2.527.662.662,0,0,0,.526.2,1.76,1.76,0,0,0,.488-.059,1.99,1.99,0,0,0,.415-.179L72.3-.3a1.588,1.588,0,0,1-.516.261A2.287,2.287,0,0,1,71.076.062ZM71.02-2.569a.475.475,0,0,0-.4.177.889.889,0,0,0-.168.47l.006.015H71.5v-.064a.74.74,0,0,0-.114-.438A.423.423,0,0,0,71.02-2.569ZM73.789,0h-.855V-.75h.855Zm0-2.566h-.855v-.75h.855Z" transform="translate(-5097.396 -14028.923)" fill="#060606"/>
    <path id="Trazado_204466" data-name="Trazado 204466" d="M1.248-1.547V0H.393V-4.266H2.024a1.68,1.68,0,0,1,1.157.375A1.257,1.257,0,0,1,3.6-2.9a1.248,1.248,0,0,1-.422.984,1.689,1.689,0,0,1-1.157.372Zm0-.659h.776A.712.712,0,0,0,2.566-2.4a.693.693,0,0,0,.185-.5.725.725,0,0,0-.183-.508.7.7,0,0,0-.543-.2H1.248ZM5.051,0H4.2V-4.57h.855ZM7.623,0a1.8,1.8,0,0,1-.081-.229,1.59,1.59,0,0,1-.048-.246,1.173,1.173,0,0,1-.349.384A.874.874,0,0,1,6.63.062a1.07,1.07,0,0,1-.768-.256.918.918,0,0,1-.27-.7.836.836,0,0,1,.359-.722A1.792,1.792,0,0,1,7-1.872h.48v-.252a.493.493,0,0,0-.12-.354A.471.471,0,0,0,7-2.6a.465.465,0,0,0-.321.1.353.353,0,0,0-.113.277H5.745l-.006-.018a.8.8,0,0,1,.35-.693,1.521,1.521,0,0,1,.968-.292,1.419,1.419,0,0,1,.924.287,1,1,0,0,1,.353.823v1.31a2.477,2.477,0,0,0,.034.419A2.1,2.1,0,0,0,8.476,0ZM6.841-.571a.729.729,0,0,0,.4-.111.6.6,0,0,0,.24-.258v-.448H7a.569.569,0,0,0-.412.135.443.443,0,0,0-.139.331.331.331,0,0,0,.1.256A.411.411,0,0,0,6.841-.571Zm2.918-2.6.038.454a1.159,1.159,0,0,1,.39-.378,1.011,1.011,0,0,1,.519-.135.943.943,0,0,1,.75.309,1.465,1.465,0,0,1,.27.977V0h-.858V-1.939a.759.759,0,0,0-.119-.482.437.437,0,0,0-.356-.142.747.747,0,0,0-.335.072.655.655,0,0,0-.239.2V0H8.962V-3.17Zm3.63-.776v.776h.536v.6h-.536V-.955a.368.368,0,0,0,.078.264.273.273,0,0,0,.2.079.817.817,0,0,0,.117-.007A.987.987,0,0,0,13.9-.645l.07.618a1.732,1.732,0,0,1-.25.066,1.493,1.493,0,0,1-.265.022.912.912,0,0,1-.681-.243,1.066,1.066,0,0,1-.239-.771V-2.569h-.463v-.6h.463v-.776ZM16.321,0a1.8,1.8,0,0,1-.081-.229,1.59,1.59,0,0,1-.048-.246,1.173,1.173,0,0,1-.349.384.874.874,0,0,1-.516.152,1.07,1.07,0,0,1-.768-.256.918.918,0,0,1-.27-.7.836.836,0,0,1,.359-.722A1.792,1.792,0,0,1,15.7-1.872h.48v-.252a.493.493,0,0,0-.12-.354A.471.471,0,0,0,15.7-2.6a.465.465,0,0,0-.321.1.353.353,0,0,0-.113.277h-.823l-.006-.018a.8.8,0,0,1,.35-.693,1.521,1.521,0,0,1,.968-.292,1.419,1.419,0,0,1,.924.287,1,1,0,0,1,.353.823v1.31a2.477,2.477,0,0,0,.034.419,2.1,2.1,0,0,0,.107.39Zm-.782-.571a.729.729,0,0,0,.4-.111.6.6,0,0,0,.24-.258v-.448H15.7a.569.569,0,0,0-.412.135.443.443,0,0,0-.139.331.331.331,0,0,0,.1.256A.411.411,0,0,0,15.539-.571Zm3.5-.987a2.06,2.06,0,0,1,.324-1.21,1.051,1.051,0,0,1,.913-.46.888.888,0,0,1,.428.1,1.029,1.029,0,0,1,.334.293V-4.57h.858V0h-.729l-.073-.39a1.06,1.06,0,0,1-.354.335.937.937,0,0,1-.469.116,1.072,1.072,0,0,1-.907-.428A1.826,1.826,0,0,1,19.037-1.5Zm.853.062a1.291,1.291,0,0,0,.141.655.49.49,0,0,0,.457.239.666.666,0,0,0,.322-.075A.6.6,0,0,0,21.035-.9V-2.247a.658.658,0,0,0-.224-.233.6.6,0,0,0-.318-.083.483.483,0,0,0-.458.278,1.573,1.573,0,0,0-.145.727ZM23.93.062a1.426,1.426,0,0,1-1.107-.435,1.6,1.6,0,0,1-.4-1.121v-.117a1.736,1.736,0,0,1,.387-1.166,1.315,1.315,0,0,1,1.063-.451,1.231,1.231,0,0,1,.98.391A1.546,1.546,0,0,1,25.2-1.784v.442h-1.89l-.009.018a.856.856,0,0,0,.2.527.662.662,0,0,0,.526.2,1.76,1.76,0,0,0,.488-.059,1.99,1.99,0,0,0,.415-.179l.231.527a1.588,1.588,0,0,1-.516.261A2.287,2.287,0,0,1,23.93.062Zm-.056-2.631a.475.475,0,0,0-.4.177.889.889,0,0,0-.168.47l.006.015h1.043v-.064a.74.74,0,0,0-.114-.438A.423.423,0,0,0,23.874-2.569ZM30.047-1.5a1.821,1.821,0,0,1-.325,1.131,1.076,1.076,0,0,1-.908.428,1.015,1.015,0,0,1-.442-.092A.909.909,0,0,1,28.04-.3V1.219h-.853V-3.17h.771l.05.375a1.016,1.016,0,0,1,.338-.321.915.915,0,0,1,.461-.113,1.055,1.055,0,0,1,.914.46,2.053,2.053,0,0,1,.325,1.21Zm-.855-.062a1.534,1.534,0,0,0-.149-.727.487.487,0,0,0-.457-.278.646.646,0,0,0-.33.079.564.564,0,0,0-.215.226V-.87a.524.524,0,0,0,.215.205.725.725,0,0,0,.335.07.492.492,0,0,0,.456-.243,1.284,1.284,0,0,0,.145-.659Zm3.05-.876-.313-.009a.57.57,0,0,0-.313.079.5.5,0,0,0-.187.223V0h-.853V-3.17h.794l.038.469a1,1,0,0,1,.289-.388.643.643,0,0,1,.409-.139.639.639,0,0,1,.119.01q.054.01.11.025Zm.153.82a1.7,1.7,0,0,1,.4-1.162,1.379,1.379,0,0,1,1.1-.453,1.393,1.393,0,0,1,1.1.451,1.692,1.692,0,0,1,.4,1.163v.062a1.7,1.7,0,0,1-.4,1.165,1.387,1.387,0,0,1-1.1.45,1.391,1.391,0,0,1-1.1-.45,1.7,1.7,0,0,1-.4-1.165Zm.853.062a1.379,1.379,0,0,0,.152.7.526.526,0,0,0,.492.262.521.521,0,0,0,.485-.264,1.37,1.37,0,0,0,.154-.694v-.062a1.356,1.356,0,0,0-.155-.688.525.525,0,0,0-.489-.267A.519.519,0,0,0,33.4-2.3a1.368,1.368,0,0,0-.154.687Zm2.534-.006a2.06,2.06,0,0,1,.324-1.21,1.051,1.051,0,0,1,.913-.46.888.888,0,0,1,.428.1,1.029,1.029,0,0,1,.334.293V-4.57h.858V0h-.729l-.073-.39a1.06,1.06,0,0,1-.354.335.937.937,0,0,1-.469.116A1.072,1.072,0,0,1,36.1-.366,1.826,1.826,0,0,1,35.781-1.5Zm.853.062a1.291,1.291,0,0,0,.141.655.49.49,0,0,0,.457.239.666.666,0,0,0,.322-.075A.6.6,0,0,0,37.779-.9V-2.247a.658.658,0,0,0-.224-.233.6.6,0,0,0-.318-.083.483.483,0,0,0-.458.278,1.573,1.573,0,0,0-.145.727ZM41.242-.469a1.076,1.076,0,0,1-.372.393.986.986,0,0,1-.524.138.964.964,0,0,1-.784-.34,1.63,1.63,0,0,1-.283-1.055V-3.17h.853v1.843a1.023,1.023,0,0,0,.113.57.405.405,0,0,0,.35.154.852.852,0,0,0,.352-.066.593.593,0,0,0,.24-.195V-3.17h.855V0h-.709ZM44.01-.595a.476.476,0,0,0,.354-.133.484.484,0,0,0,.132-.356h.779l.006.018a.992.992,0,0,1-.357.8,1.337,1.337,0,0,1-.914.324,1.351,1.351,0,0,1-1.087-.45,1.709,1.709,0,0,1-.384-1.15v-.088a1.72,1.72,0,0,1,.382-1.15A1.339,1.339,0,0,1,44-3.229a1.307,1.307,0,0,1,.935.334,1.116,1.116,0,0,1,.343.879L45.276-2H44.5a.633.633,0,0,0-.13-.409A.438.438,0,0,0,44-2.569a.488.488,0,0,0-.47.265,1.454,1.454,0,0,0-.139.678v.088a1.449,1.449,0,0,0,.139.683A.5.5,0,0,0,44.01-.595Zm3.094,0a.476.476,0,0,0,.354-.133.484.484,0,0,0,.132-.356h.779l.006.018a.992.992,0,0,1-.357.8A1.337,1.337,0,0,1,47.1.062a1.351,1.351,0,0,1-1.087-.45,1.709,1.709,0,0,1-.384-1.15v-.088a1.72,1.72,0,0,1,.382-1.15A1.339,1.339,0,0,1,47.1-3.229a1.307,1.307,0,0,1,.935.334,1.116,1.116,0,0,1,.343.879L48.37-2H47.59a.633.633,0,0,0-.13-.409.438.438,0,0,0-.362-.163.488.488,0,0,0-.47.265,1.454,1.454,0,0,0-.139.678v.088a1.449,1.449,0,0,0,.139.683A.5.5,0,0,0,47.1-.595ZM49.773,0h-.855V-3.17h.855Zm0-3.929h-.855V-4.57h.855Zm.571,2.314a1.7,1.7,0,0,1,.4-1.162,1.379,1.379,0,0,1,1.1-.453,1.393,1.393,0,0,1,1.1.451,1.692,1.692,0,0,1,.4,1.163v.062a1.7,1.7,0,0,1-.4,1.165,1.387,1.387,0,0,1-1.1.45,1.391,1.391,0,0,1-1.1-.45,1.7,1.7,0,0,1-.4-1.165Zm.853.062a1.379,1.379,0,0,0,.152.7.526.526,0,0,0,.492.262.521.521,0,0,0,.485-.264,1.37,1.37,0,0,0,.154-.694v-.062a1.356,1.356,0,0,0-.155-.688.525.525,0,0,0-.489-.267.519.519,0,0,0-.485.268,1.368,1.368,0,0,0-.154.687Zm.812-2.971h.952l.006.018-.812.762h-.729ZM54.645-3.17l.038.454a1.159,1.159,0,0,1,.39-.378,1.011,1.011,0,0,1,.519-.135.943.943,0,0,1,.75.309,1.465,1.465,0,0,1,.27.977V0h-.858V-1.939a.759.759,0,0,0-.119-.482.437.437,0,0,0-.356-.142.747.747,0,0,0-.335.072.655.655,0,0,0-.239.2V0h-.855V-3.17Zm3.967,1.611a2.06,2.06,0,0,1,.324-1.21,1.051,1.051,0,0,1,.913-.46.888.888,0,0,1,.428.1,1.029,1.029,0,0,1,.334.293V-4.57h.858V0h-.729l-.073-.39a1.06,1.06,0,0,1-.354.335.937.937,0,0,1-.469.116,1.072,1.072,0,0,1-.907-.428A1.826,1.826,0,0,1,58.612-1.5Zm.853.062a1.291,1.291,0,0,0,.141.655.49.49,0,0,0,.457.239.666.666,0,0,0,.322-.075A.6.6,0,0,0,60.61-.9V-2.247a.658.658,0,0,0-.224-.233.6.6,0,0,0-.318-.083.483.483,0,0,0-.458.278,1.573,1.573,0,0,0-.145.727ZM63.5.062A1.426,1.426,0,0,1,62.4-.374,1.6,1.6,0,0,1,62-1.494v-.117a1.736,1.736,0,0,1,.387-1.166,1.315,1.315,0,0,1,1.063-.451,1.231,1.231,0,0,1,.98.391,1.546,1.546,0,0,1,.341,1.053v.442H62.88l-.009.018a.856.856,0,0,0,.2.527.662.662,0,0,0,.526.2,1.76,1.76,0,0,0,.488-.059A1.99,1.99,0,0,0,64.5-.832l.231.527a1.588,1.588,0,0,1-.516.261A2.287,2.287,0,0,1,63.5.062Zm-.056-2.631a.475.475,0,0,0-.4.177.889.889,0,0,0-.168.47l.006.015h1.043v-.064a.74.74,0,0,0-.114-.438A.423.423,0,0,0,63.449-2.569ZM69.622-1.5A1.821,1.821,0,0,1,69.3-.366a1.076,1.076,0,0,1-.908.428,1.015,1.015,0,0,1-.442-.092A.909.909,0,0,1,67.615-.3V1.219h-.853V-3.17h.771l.05.375a1.016,1.016,0,0,1,.338-.321.915.915,0,0,1,.461-.113,1.055,1.055,0,0,1,.914.46,2.053,2.053,0,0,1,.325,1.21Zm-.855-.062a1.534,1.534,0,0,0-.149-.727.487.487,0,0,0-.457-.278.646.646,0,0,0-.33.079.564.564,0,0,0-.215.226V-.87a.524.524,0,0,0,.215.205.725.725,0,0,0,.335.07.492.492,0,0,0,.456-.243,1.284,1.284,0,0,0,.145-.659ZM72.018,0a1.8,1.8,0,0,1-.081-.229,1.59,1.59,0,0,1-.048-.246,1.173,1.173,0,0,1-.349.384.874.874,0,0,1-.516.152,1.07,1.07,0,0,1-.768-.256.918.918,0,0,1-.27-.7.836.836,0,0,1,.359-.722,1.792,1.792,0,0,1,1.047-.256h.48v-.252a.493.493,0,0,0-.12-.354A.471.471,0,0,0,71.4-2.6a.465.465,0,0,0-.321.1.353.353,0,0,0-.113.277H70.14l-.006-.018a.8.8,0,0,1,.35-.693,1.521,1.521,0,0,1,.968-.292,1.419,1.419,0,0,1,.924.287,1,1,0,0,1,.353.823v1.31a2.477,2.477,0,0,0,.034.419,2.1,2.1,0,0,0,.107.39Zm-.782-.571a.729.729,0,0,0,.4-.111.6.6,0,0,0,.24-.258v-.448h-.48a.569.569,0,0,0-.412.135.443.443,0,0,0-.139.331.331.331,0,0,0,.1.256A.411.411,0,0,0,71.236-.571Zm2.918-2.6.038.454a1.159,1.159,0,0,1,.39-.378,1.011,1.011,0,0,1,.519-.135.943.943,0,0,1,.75.309,1.465,1.465,0,0,1,.27.977V0h-.858V-1.939a.759.759,0,0,0-.119-.482.437.437,0,0,0-.356-.142.747.747,0,0,0-.335.072.655.655,0,0,0-.239.2V0h-.855V-3.17ZM78.132.062a1.426,1.426,0,0,1-1.107-.435,1.6,1.6,0,0,1-.4-1.121v-.117a1.736,1.736,0,0,1,.387-1.166,1.315,1.315,0,0,1,1.063-.451,1.231,1.231,0,0,1,.98.391A1.546,1.546,0,0,1,79.4-1.784v.442h-1.89l-.009.018a.856.856,0,0,0,.2.527.662.662,0,0,0,.526.2,1.76,1.76,0,0,0,.488-.059,1.99,1.99,0,0,0,.415-.179l.231.527a1.588,1.588,0,0,1-.516.261A2.287,2.287,0,0,1,78.132.062Zm-.056-2.631a.475.475,0,0,0-.4.177.889.889,0,0,0-.168.47l.006.015H78.56v-.064a.74.74,0,0,0-.114-.438A.423.423,0,0,0,78.077-2.569ZM80.8,0H79.94V-4.57H80.8Zm2.572,0a1.8,1.8,0,0,1-.081-.229,1.59,1.59,0,0,1-.048-.246,1.173,1.173,0,0,1-.349.384.874.874,0,0,1-.516.152,1.07,1.07,0,0,1-.768-.256.918.918,0,0,1-.27-.7.836.836,0,0,1,.359-.722,1.792,1.792,0,0,1,1.047-.256h.48v-.252a.493.493,0,0,0-.12-.354.471.471,0,0,0-.357-.126.465.465,0,0,0-.321.1.353.353,0,0,0-.113.277H81.49l-.006-.018a.8.8,0,0,1,.35-.693,1.521,1.521,0,0,1,.968-.292,1.419,1.419,0,0,1,.924.287,1,1,0,0,1,.353.823v1.31a2.477,2.477,0,0,0,.034.419A2.1,2.1,0,0,0,84.22,0Zm-.782-.571a.729.729,0,0,0,.4-.111.6.6,0,0,0,.24-.258v-.448h-.48a.569.569,0,0,0-.412.135.443.443,0,0,0-.139.331.331.331,0,0,0,.1.256A.411.411,0,0,0,82.585-.571ZM85.67,0h-.855V-.75h.855Zm0-2.566h-.855v-.75h.855Z" transform="translate(-5097.396 -14051.664)"/>
    <path id="Trazado_204467" data-name="Trazado 204467" d="M2.616-.92H1.233L.946,0H.053L1.491-4.266h.876L3.8,0H2.906ZM1.444-1.591h.964l-.472-1.5H1.919ZM4.787-3.17l.038.454a1.159,1.159,0,0,1,.39-.378,1.011,1.011,0,0,1,.519-.135.943.943,0,0,1,.75.309,1.465,1.465,0,0,1,.27.977V0H5.895V-1.939a.759.759,0,0,0-.119-.482.437.437,0,0,0-.356-.142.747.747,0,0,0-.335.072.655.655,0,0,0-.239.2V0H3.99V-3.17ZM6.463-4.494a.7.7,0,0,1-.174.479.562.562,0,0,1-.441.2,1.073,1.073,0,0,1-.464-.127,1.015,1.015,0,0,0-.412-.127.211.211,0,0,0-.176.1.372.372,0,0,0-.07.227l-.457-.123a.713.713,0,0,1,.174-.479.552.552,0,0,1,.438-.2,1.17,1.17,0,0,1,.445.127A1.163,1.163,0,0,0,5.76-4.3a.223.223,0,0,0,.176-.094.355.355,0,0,0,.076-.231Zm.8,2.88a1.7,1.7,0,0,1,.4-1.162,1.379,1.379,0,0,1,1.1-.453,1.393,1.393,0,0,1,1.1.451,1.692,1.692,0,0,1,.4,1.163v.062a1.7,1.7,0,0,1-.4,1.165,1.387,1.387,0,0,1-1.1.45,1.391,1.391,0,0,1-1.1-.45,1.7,1.7,0,0,1-.4-1.165Zm.853.062a1.379,1.379,0,0,0,.152.7.526.526,0,0,0,.492.262.521.521,0,0,0,.485-.264A1.37,1.37,0,0,0,9.4-1.553v-.062A1.356,1.356,0,0,0,9.24-2.3a.525.525,0,0,0-.489-.267.519.519,0,0,0-.485.268,1.368,1.368,0,0,0-.154.687Z" transform="translate(-4858.214 -14051.664)"/>
    <path id="Trazado_204468" data-name="Trazado 204468" d="M2.83-1.919H1.16V-.568H3.129V0H.448V-4.266h2.66v.571H1.16v1.2H2.83Zm2.684.393H3.785V-2.1H5.514Zm3.577,0A1.683,1.683,0,0,1,8.711-.363,1.294,1.294,0,0,1,7.7.062a1.305,1.305,0,0,1-1.02-.426,1.672,1.672,0,0,1-.384-1.162v-1.21A1.686,1.686,0,0,1,6.674-3.9,1.294,1.294,0,0,1,7.69-4.327,1.3,1.3,0,0,1,8.708-3.9a1.682,1.682,0,0,1,.382,1.163ZM8.379-2.845A1.093,1.093,0,0,0,8.2-3.514a.6.6,0,0,0-.507-.242.593.593,0,0,0-.507.242A1.106,1.106,0,0,0,7-2.845v1.421a1.1,1.1,0,0,0,.182.675.6.6,0,0,0,.51.242A.59.59,0,0,0,8.2-.747a1.123,1.123,0,0,0,.177-.677ZM12.5-1.526a1.683,1.683,0,0,1-.379,1.163,1.294,1.294,0,0,1-1.015.425,1.305,1.305,0,0,1-1.02-.426A1.672,1.672,0,0,1,9.7-1.526v-1.21A1.686,1.686,0,0,1,10.084-3.9,1.294,1.294,0,0,1,11.1-4.327a1.3,1.3,0,0,1,1.018.428A1.682,1.682,0,0,1,12.5-2.736Zm-.712-1.318a1.093,1.093,0,0,0-.182-.669.6.6,0,0,0-.507-.242.593.593,0,0,0-.507.242,1.106,1.106,0,0,0-.179.669v1.421a1.1,1.1,0,0,0,.182.675.6.6,0,0,0,.51.242.59.59,0,0,0,.505-.24,1.123,1.123,0,0,0,.177-.677ZM15.009,0H14.3V-3.609h-.905v-.565l1.617-.152Z" transform="translate(-5039.772 -13988.938)" fill="#0c1d30"/>
    <path id="Trazado_204469" data-name="Trazado 204469" d="M2.83-1.919H1.16V-.568H3.129V0H.448V-4.266h2.66v.571H1.16v1.2H2.83Zm2.684.393H3.785V-2.1H5.514Zm3.577,0A1.683,1.683,0,0,1,8.711-.363,1.294,1.294,0,0,1,7.7.062a1.305,1.305,0,0,1-1.02-.426,1.672,1.672,0,0,1-.384-1.162v-1.21A1.686,1.686,0,0,1,6.674-3.9,1.294,1.294,0,0,1,7.69-4.327,1.3,1.3,0,0,1,8.708-3.9a1.682,1.682,0,0,1,.382,1.163ZM8.379-2.845A1.093,1.093,0,0,0,8.2-3.514a.6.6,0,0,0-.507-.242.593.593,0,0,0-.507.242A1.106,1.106,0,0,0,7-2.845v1.421a1.1,1.1,0,0,0,.182.675.6.6,0,0,0,.51.242A.59.59,0,0,0,8.2-.747a1.123,1.123,0,0,0,.177-.677ZM12.5-1.526a1.683,1.683,0,0,1-.379,1.163,1.294,1.294,0,0,1-1.015.425,1.305,1.305,0,0,1-1.02-.426A1.672,1.672,0,0,1,9.7-1.526v-1.21A1.686,1.686,0,0,1,10.084-3.9,1.294,1.294,0,0,1,11.1-4.327a1.3,1.3,0,0,1,1.018.428A1.682,1.682,0,0,1,12.5-2.736Zm-.712-1.318a1.093,1.093,0,0,0-.182-.669.6.6,0,0,0-.507-.242.593.593,0,0,0-.507.242,1.106,1.106,0,0,0-.179.669v1.421a1.1,1.1,0,0,0,.182.675.6.6,0,0,0,.51.242.59.59,0,0,0,.505-.24,1.123,1.123,0,0,0,.177-.677ZM15.952,0H13.2V-.489L14.534-2.03a3.532,3.532,0,0,0,.451-.633,1.058,1.058,0,0,0,.126-.478.643.643,0,0,0-.152-.444.553.553,0,0,0-.437-.171.618.618,0,0,0-.507.214A.821.821,0,0,0,13.84-3h-.688l-.006-.018a1.217,1.217,0,0,1,.362-.927,1.366,1.366,0,0,1,1.015-.379A1.33,1.33,0,0,1,15.479-4a1.135,1.135,0,0,1,.344.861,1.283,1.283,0,0,1-.192.677A7.727,7.727,0,0,1,15-1.614L14.1-.583l.006.015h1.846Z" transform="translate(-5039.772 -13974.99)" fill="#0c1d30"/>
    <path id="Trazado_204470" data-name="Trazado 204470" d="M2.83-1.919H1.16V-.568H3.129V0H.448V-4.266h2.66v.571H1.16v1.2H2.83Zm2.684.393H3.785V-2.1H5.514Zm3.577,0A1.683,1.683,0,0,1,8.711-.363,1.294,1.294,0,0,1,7.7.062a1.305,1.305,0,0,1-1.02-.426,1.672,1.672,0,0,1-.384-1.162v-1.21A1.686,1.686,0,0,1,6.674-3.9,1.294,1.294,0,0,1,7.69-4.327,1.3,1.3,0,0,1,8.708-3.9a1.682,1.682,0,0,1,.382,1.163ZM8.379-2.845A1.093,1.093,0,0,0,8.2-3.514a.6.6,0,0,0-.507-.242.593.593,0,0,0-.507.242A1.106,1.106,0,0,0,7-2.845v1.421a1.1,1.1,0,0,0,.182.675.6.6,0,0,0,.51.242A.59.59,0,0,0,8.2-.747a1.123,1.123,0,0,0,.177-.677ZM12.5-1.526a1.683,1.683,0,0,1-.379,1.163,1.294,1.294,0,0,1-1.015.425,1.305,1.305,0,0,1-1.02-.426A1.672,1.672,0,0,1,9.7-1.526v-1.21A1.686,1.686,0,0,1,10.084-3.9,1.294,1.294,0,0,1,11.1-4.327a1.3,1.3,0,0,1,1.018.428A1.682,1.682,0,0,1,12.5-2.736Zm-.712-1.318a1.093,1.093,0,0,0-.182-.669.6.6,0,0,0-.507-.242.593.593,0,0,0-.507.242,1.106,1.106,0,0,0-.179.669v1.421a1.1,1.1,0,0,0,.182.675.6.6,0,0,0,.51.242.59.59,0,0,0,.505-.24,1.123,1.123,0,0,0,.177-.677Zm2.719.372a.633.633,0,0,0,.5-.173.707.707,0,0,0,.152-.483.634.634,0,0,0-.164-.453.62.62,0,0,0-.475-.174.687.687,0,0,0-.478.171.553.553,0,0,0-.19.429h-.683l-.006-.018a.987.987,0,0,1,.374-.822,1.465,1.465,0,0,1,.983-.333,1.478,1.478,0,0,1,.986.306,1.1,1.1,0,0,1,.362.892.963.963,0,0,1-.16.538,1.077,1.077,0,0,1-.444.382,1.038,1.038,0,0,1,.5.388,1.1,1.1,0,0,1,.173.625,1.143,1.143,0,0,1-.4.923,1.526,1.526,0,0,1-1.02.334,1.6,1.6,0,0,1-.987-.318.991.991,0,0,1-.41-.869l.006-.018h.686a.592.592,0,0,0,.2.453.719.719,0,0,0,.508.183A.69.69,0,0,0,15.032-.7a.671.671,0,0,0,.19-.494.741.741,0,0,0-.177-.542.727.727,0,0,0-.538-.179h-.475v-.56Z" transform="translate(-5039.772 -13961.043)" fill="#0c1d30"/>
    <path id="Trazado_204471" data-name="Trazado 204471" d="M2.83-1.919H1.16V-.568H3.129V0H.448V-4.266h2.66v.571H1.16v1.2H2.83Zm2.684.393H3.785V-2.1H5.514Zm3.577,0A1.683,1.683,0,0,1,8.711-.363,1.294,1.294,0,0,1,7.7.062a1.305,1.305,0,0,1-1.02-.426,1.672,1.672,0,0,1-.384-1.162v-1.21A1.686,1.686,0,0,1,6.674-3.9,1.294,1.294,0,0,1,7.69-4.327,1.3,1.3,0,0,1,8.708-3.9a1.682,1.682,0,0,1,.382,1.163ZM8.379-2.845A1.093,1.093,0,0,0,8.2-3.514a.6.6,0,0,0-.507-.242.593.593,0,0,0-.507.242A1.106,1.106,0,0,0,7-2.845v1.421a1.1,1.1,0,0,0,.182.675.6.6,0,0,0,.51.242A.59.59,0,0,0,8.2-.747a1.123,1.123,0,0,0,.177-.677ZM12.5-1.526a1.683,1.683,0,0,1-.379,1.163,1.294,1.294,0,0,1-1.015.425,1.305,1.305,0,0,1-1.02-.426A1.672,1.672,0,0,1,9.7-1.526v-1.21A1.686,1.686,0,0,1,10.084-3.9,1.294,1.294,0,0,1,11.1-4.327a1.3,1.3,0,0,1,1.018.428A1.682,1.682,0,0,1,12.5-2.736Zm-.712-1.318a1.093,1.093,0,0,0-.182-.669.6.6,0,0,0-.507-.242.593.593,0,0,0-.507.242,1.106,1.106,0,0,0-.179.669v1.421a1.1,1.1,0,0,0,.182.675.6.6,0,0,0,.51.242.59.59,0,0,0,.505-.24,1.123,1.123,0,0,0,.177-.677ZM15.51-1.521h.539v.574H15.51V0H14.8V-.946H13.017L13-1.383,14.78-4.266h.729Zm-1.816,0H14.8v-1.74l-.018,0-.067.164Z" transform="translate(-5039.772 -13947.096)" fill="#0c1d30"/>
    <path id="Trazado_204472" data-name="Trazado 204472" d="M2.83-1.919H1.16V-.568H3.129V0H.448V-4.266h2.66v.571H1.16v1.2H2.83Zm2.684.393H3.785V-2.1H5.514Zm3.577,0A1.683,1.683,0,0,1,8.711-.363,1.294,1.294,0,0,1,7.7.062a1.305,1.305,0,0,1-1.02-.426,1.672,1.672,0,0,1-.384-1.162v-1.21A1.686,1.686,0,0,1,6.674-3.9,1.294,1.294,0,0,1,7.69-4.327,1.3,1.3,0,0,1,8.708-3.9a1.682,1.682,0,0,1,.382,1.163ZM8.379-2.845A1.093,1.093,0,0,0,8.2-3.514a.6.6,0,0,0-.507-.242.593.593,0,0,0-.507.242A1.106,1.106,0,0,0,7-2.845v1.421a1.1,1.1,0,0,0,.182.675.6.6,0,0,0,.51.242A.59.59,0,0,0,8.2-.747a1.123,1.123,0,0,0,.177-.677ZM12.5-1.526a1.683,1.683,0,0,1-.379,1.163,1.294,1.294,0,0,1-1.015.425,1.305,1.305,0,0,1-1.02-.426A1.672,1.672,0,0,1,9.7-1.526v-1.21A1.686,1.686,0,0,1,10.084-3.9,1.294,1.294,0,0,1,11.1-4.327a1.3,1.3,0,0,1,1.018.428A1.682,1.682,0,0,1,12.5-2.736Zm-.712-1.318a1.093,1.093,0,0,0-.182-.669.6.6,0,0,0-.507-.242.593.593,0,0,0-.507.242,1.106,1.106,0,0,0-.179.669v1.421a1.1,1.1,0,0,0,.182.675.6.6,0,0,0,.51.242.59.59,0,0,0,.505-.24,1.123,1.123,0,0,0,.177-.677Zm1.482.958.246-2.379h2.25v.615H14.109L13.98-2.563a1.185,1.185,0,0,1,.3-.152,1.2,1.2,0,0,1,.385-.064,1.15,1.15,0,0,1,.926.372,1.534,1.534,0,0,1,.331,1.046,1.5,1.5,0,0,1-.349,1.028,1.317,1.317,0,0,1-1.043.4,1.5,1.5,0,0,1-.951-.3,1,1,0,0,1-.374-.866l.006-.015.668-.021a.608.608,0,0,0,.18.467.661.661,0,0,0,.47.168.6.6,0,0,0,.507-.226,1,1,0,0,0,.173-.624.987.987,0,0,0-.179-.617.6.6,0,0,0-.51-.233.8.8,0,0,0-.435.094.53.53,0,0,0-.207.275Z" transform="translate(-5039.772 -13933.148)" fill="#0c1d30"/>
    <path id="Trazado_204473" data-name="Trazado 204473" d="M1.9-2.689l.9-1.576h.844L2.335-2.15,3.7,0H2.842L1.916-1.6.99,0H.146L1.488-2.15.176-4.266h.838Z" transform="translate(-5002.62 -13990.646)" fill="#0c1d30"/>
    <path id="Trazado_204474" data-name="Trazado 204474" d="M1.9-2.689l.9-1.576h.844L2.335-2.15,3.7,0H2.842L1.916-1.6.99,0H.146L1.488-2.15.176-4.266h.838Z" transform="translate(-4980.575 -13975.644)" fill="#0c1d30"/>
    <path id="Trazado_204475" data-name="Trazado 204475" d="M1.9-2.689l.9-1.576h.844L2.335-2.15,3.7,0H2.842L1.916-1.6.99,0H.146L1.488-2.15.176-4.266h.838Z" transform="translate(-4980.575 -13960.643)" fill="#0c1d30"/>
    <path id="Trazado_204476" data-name="Trazado 204476" d="M1.9-2.689l.9-1.576h.844L2.335-2.15,3.7,0H2.842L1.916-1.6.99,0H.146L1.488-2.15.176-4.266h.838Z" transform="translate(-4915.317 -13990.646)" fill="#0c1d30"/>
    <path id="Trazado_204477" data-name="Trazado 204477" d="M1.9-2.689l.9-1.576h.844L2.335-2.15,3.7,0H2.842L1.916-1.6.99,0H.146L1.488-2.15.176-4.266h.838Z" transform="translate(-4915.317 -13975.644)" fill="#0c1d30"/>
    <path id="Trazado_204478" data-name="Trazado 204478" d="M1.9-2.689l.9-1.576h.844L2.335-2.15,3.7,0H2.842L1.916-1.6.99,0H.146L1.488-2.15.176-4.266h.838Z" transform="translate(-4915.317 -13960.643)" fill="#0c1d30"/>
    <path id="Trazado_204479" data-name="Trazado 204479" d="M1.9-2.689l.9-1.576h.844L2.335-2.15,3.7,0H2.842L1.916-1.6.99,0H.146L1.488-2.15.176-4.266h.838Z" transform="translate(-4937.067 -13945.57)" fill="#0c1d30"/>
    <path id="Trazado_204480" data-name="Trazado 204480" d="M1.9-2.689l.9-1.576h.844L2.335-2.15,3.7,0H2.842L1.916-1.6.99,0H.146L1.488-2.15.176-4.266h.838Z" transform="translate(-4828.07 -13945.57)" fill="#0c1d30"/>
    <path id="Trazado_204481" data-name="Trazado 204481" d="M1.9-2.689l.9-1.576h.844L2.335-2.15,3.7,0H2.842L1.916-1.6.99,0H.146L1.488-2.15.176-4.266h.838Z" transform="translate(-4763.262 -13990.575)" fill="#0c1d30"/>
    <path id="Trazado_204482" data-name="Trazado 204482" d="M1.9-2.689l.9-1.576h.844L2.335-2.15,3.7,0H2.842L1.916-1.6.99,0H.146L1.488-2.15.176-4.266h.838Z" transform="translate(-4828.07 -13930.632)" fill="#0c1d30"/>
  </g>
</svg>
